<?xml version="1.0" encoding="UTF-8" standalone="no"?>
<!-- Created with matplotlib (http://matplotlib.org/) -->

<svg
   xmlns:dc="http://purl.org/dc/elements/1.1/"
   xmlns:cc="http://creativecommons.org/ns#"
   xmlns:rdf="http://www.w3.org/1999/02/22-rdf-syntax-ns#"
   xmlns:svg="http://www.w3.org/2000/svg"
   xmlns="http://www.w3.org/2000/svg"
   xmlns:xlink="http://www.w3.org/1999/xlink"
   xmlns:sodipodi="http://sodipodi.sourceforge.net/DTD/sodipodi-0.dtd"
   xmlns:inkscape="http://www.inkscape.org/namespaces/inkscape"
   height="720pt"
   version="1.1"
   viewBox="0 0 720 720"
   width="720pt"
   id="svg2"
   inkscape:version="0.91 r13725"
   sodipodi:docname="osc.svg">
  <metadata
     id="metadata695">
    <rdf:RDF>
      <cc:Work
         rdf:about="">
        <dc:format>image/svg+xml</dc:format>
        <dc:type
           rdf:resource="http://purl.org/dc/dcmitype/StillImage" />
      </cc:Work>
    </rdf:RDF>
  </metadata>
  <sodipodi:namedview
     pagecolor="#ffffff"
     bordercolor="#666666"
     borderopacity="1"
     objecttolerance="10"
     gridtolerance="10"
     guidetolerance="10"
     inkscape:pageopacity="0"
     inkscape:pageshadow="2"
     inkscape:window-width="1885"
     inkscape:window-height="1062"
     id="namedview693"
     showgrid="false"
     inkscape:zoom="0.52444444"
     inkscape:cx="-19.307265"
     inkscape:cy="232.16053"
     inkscape:window-x="35"
     inkscape:window-y="918"
     inkscape:window-maximized="1"
     inkscape:current-layer="patch_1" />
  <defs
     id="defs4">
    <style
       type="text/css"
       id="style6">
*{stroke-linecap:butt;stroke-linejoin:round;}
  </style>
  </defs>
  <g
     id="figure_1">
    <g
       id="patch_1" />
    <g
       id="axes_1">
      <g
         id="patch_2">
        <path
           d="M 90 630  L 648 630  L 648 86.4  L 90 86.4  z "
           style="fill:#ffffff;"
           id="path14" />
      </g>
      <g
         id="Quiver_1">
        <path
           clip-path="url(#pa20f96d721)"
           d="M 165.139513 606.47867  L 142.226155 588.125071  L 141.511123 591.451988  L 132.487705 578.374743  L 147.219502 584.325424  L 144.128948 585.749549  L 167.042305 604.103148  L 165.139513 606.47867  "
           id="path17" />
        <path
           clip-path="url(#pa20f96d721)"
           d="M 165.014283 556.948277  L 147.811671 539.728462  L 146.73397 542.956188  L 139.208346 528.963282  L 153.193723 536.502887  L 149.964922 537.577362  L 167.167535 554.797177  L 165.014283 556.948277  "
           id="path19" />
        <path
           clip-path="url(#pa20f96d721)"
           d="M 164.873126 507.367198  L 152.925079 491.42452  L 151.402165 494.467609  L 145.928987 479.55182  L 158.708864 488.991692  L 155.360645 489.599215  L 167.308692 505.541893  L 164.873126 507.367198  "
           id="path21" />
        <path
           clip-path="url(#pa20f96d721)"
           d="M 164.729617 457.716669  L 157.411087 443.072289  L 155.368809 445.794192  L 152.649628 430.140359  L 163.536559 441.712358  L 160.13367 441.711678  L 167.452201 456.356058  L 164.729617 457.716669  "
           id="path23" />
        <path
           clip-path="url(#pa20f96d721)"
           d="M 164.614507 407.98719  L 161.214941 394.385526  L 158.631145 396.599945  L 159.370268 380.728898  L 167.489558 394.385895  L 164.167745 393.64751  L 167.567311 407.249174  L 164.614507 407.98719  "
           id="path25" />
        <path
           clip-path="url(#pa20f96d721)"
           d="M 164.569091 358.2  L 164.569091 345.0138  L 161.525455 346.535619  L 166.090909 331.317437  L 170.656364 346.535619  L 167.612727 345.0138  L 167.612727 358.2  L 164.569091 358.2  "
           id="path27" />
        <path
           clip-path="url(#pa20f96d721)"
           d="M 164.61455 308.412636  L 168.012553 294.824023  L 164.690654 295.562017  L 172.81155 281.905976  L 173.548806 297.777109  L 170.965271 295.562387  L 167.567268 309.151  L 164.61455 308.412636  "
           id="path29" />
        <path
           clip-path="url(#pa20f96d721)"
           d="M 164.72989 258.682786  L 172.04352 244.062839  L 168.640632 244.062158  L 179.532191 232.494514  L 176.806748 248.147258  L 174.765559 245.424539  L 167.451928 260.044486  L 164.72989 258.682786  "
           id="path31" />
        <path
           clip-path="url(#pa20f96d721)"
           d="M 164.873783 209.031925  L 176.813942 193.123654  L 173.466161 192.513721  L 186.252831 183.083053  L 180.768915 197.994897  L 179.248193 194.950713  L 167.308035 210.858984  L 164.873783 209.031925  "
           id="path33" />
        <path
           clip-path="url(#pa20f96d721)"
           d="M 165.01536 159.450647  L 182.208288 142.274912  L 178.980562 141.197209  L 192.973472 133.671592  L 185.433859 147.656966  L 184.359387 144.428164  L 167.166459 161.603899  L 165.01536 159.450647  "
           id="path35" />
        <path
           clip-path="url(#pa20f96d721)"
           d="M 165.140962 109.920171  L 188.043885 91.620735  L 184.955071 90.192842  L 199.694113 84.260131  L 190.654754 97.326363  L 189.943779 93.998575  L 167.040856 112.298011  L 165.140962 109.920171  "
           id="path37" />
        <path
           clip-path="url(#pa20f96d721)"
           d="M 216.034254 606.595282  L 194.170403 593.455107  L 193.906919 596.84778  L 183.214978 585.095384  L 198.610487 589.021545  L 195.738258 590.846362  L 217.60211 603.986537  L 216.034254 606.595282  "
           id="path39" />
        <path
           clip-path="url(#pa20f96d721)"
           d="M 215.904312 557.089597  L 199.973581 545.125618  L 199.362712 548.473228  L 189.935619 535.683922  L 204.845929 541.172007  L 201.80132 542.691878  L 217.732051 554.655857  L 215.904312 557.089597  "
           id="path41" />
        <path
           clip-path="url(#pa20f96d721)"
           d="M 215.741556 507.530096  L 205.259584 497.037642  L 204.181883 500.265367  L 196.656259 486.272461  L 210.641637 493.812067  L 207.412835 494.886541  L 217.894807 505.378995  L 215.741556 507.530096  "
           id="path43" />
        <path
           clip-path="url(#pa20f96d721)"
           d="M 215.551693 457.880127  L 209.704282 449.103163  L 208.015068 452.057178  L 203.3769 436.861  L 215.614 446.994598  L 212.237259 447.415636  L 218.084671 456.1926  L 215.551693 457.880127  "
           id="path45" />
        <path
           clip-path="url(#pa20f96d721)"
           d="M 215.37441 408.099279  L 212.983641 400.92458  L 210.577195 403.330545  L 210.097541 387.449539  L 219.239824 400.443964  L 215.871184 399.962386  L 218.261953 407.137085  L 215.37441 408.099279  "
           id="path47" />
        <path
           clip-path="url(#pa20f96d721)"
           d="M 215.296364 358.2  L 215.296364 351.734441  L 212.252727 353.256259  L 216.818182 338.038078  L 221.383636 353.256259  L 218.34 351.734441  L 218.34 358.2  L 215.296364 358.2  "
           id="path49" />
        <path
           clip-path="url(#pa20f96d721)"
           d="M 215.374506 308.300433  L 217.762677 301.138309  L 214.393941 301.619213  L 223.538823 288.626616  L 223.055993 304.507527  L 220.650028 302.10108  L 218.261857 309.263204  L 215.374506 308.300433  "
           id="path51" />
        <path
           clip-path="url(#pa20f96d721)"
           d="M 215.552212 258.519094  L 221.392611 249.764337  L 218.016129 249.341221  L 230.259463 239.215155  L 225.611946 254.408477  L 223.924549 251.453422  L 218.084151 260.208179  L 215.552212 258.519094  "
           id="path53" />
        <path
           clip-path="url(#pa20f96d721)"
           d="M 215.742632 208.868828  L 226.214919 198.407014  L 222.987194 197.329311  L 236.980104 189.803694  L 229.440491 203.789068  L 228.366018 200.560266  L 217.893731 211.022081  L 215.742632 208.868828  "
           id="path55" />
        <path
           clip-path="url(#pa20f96d721)"
           d="M 215.905871 159.309234  L 231.826083 147.384995  L 228.783422 145.861228  L 243.700745 140.392233  L 234.257289 153.169462  L 233.650706 149.821072  L 217.730493 161.745312  L 215.905871 159.309234  "
           id="path57" />
        <path
           clip-path="url(#pa20f96d721)"
           d="M 216.036173 109.803567  L 237.889661 96.713327  L 235.02012 94.884288  L 250.421386 90.980772  L 239.712173 102.717432  L 239.453679 99.324375  L 217.600191 112.414615  L 216.036173 109.803567  "
           id="path59" />
        <path
           clip-path="url(#pa20f96d721)"
           d="M 266.979048 606.703394  L 246.08821 598.326168  L 246.367882 601.717545  L 233.942251 591.816024  L 249.766321 593.242634  L 247.221023 595.501198  L 268.111861 603.878424  L 266.979048 606.703394  "
           id="path61" />
        <path
           clip-path="url(#pa20f96d721)"
           d="M 266.863788 557.233338  L 252.226723 549.900168  L 252.224002 553.303056  L 240.662891 542.404563  L 256.313998 545.139391  L 253.590055 547.178947  L 268.227121 554.512116  L 266.863788 557.233338  "
           id="path63" />
        <path
           clip-path="url(#pa20f96d721)"
           d="M 266.700426 507.72019  L 257.929307 501.864006  L 257.504894 505.240325  L 247.383532 492.993102  L 262.575067 497.646456  L 259.619364 499.332717  L 268.390483 505.188901  L 266.700426 507.72019  "
           id="path65" />
        <path
           clip-path="url(#pa20f96d721)"
           d="M 266.468829 458.111914  L 262.707498 454.346821  L 261.629797 457.574547  L 254.104173 443.581641  L 268.08955 451.121247  L 264.860749 452.195721  L 268.62208 455.960814  L 266.468829 458.111914  "
           id="path67" />
        <path
           clip-path="url(#pa20f96d721)"
           d="M 266.200654 408.290246  L 265.52859 406.945446  L 263.511054 409.634374  L 260.824814 394.17018  L 271.579855 405.60199  L 268.218191 405.601318  L 268.890255 406.946118  L 266.200654 408.290246  "
           id="path69" />
        <path
           clip-path="url(#pa20f96d721)"
           d="M 266.201326 358.2  L 266.201326 356.855872  L 263.51307 358.2  L 267.545455 344.758718  L 271.577839 358.2  L 268.889583 356.855872  L 268.889583 358.2  L 266.201326 358.2  "
           id="path71" />
        <path
           clip-path="url(#pa20f96d721)"
           d="M 266.201998 308.109754  L 266.874063 306.766298  L 263.515086 306.765626  L 274.266095 295.347257  L 271.575823 310.79801  L 269.560975 308.110426  L 268.888911 309.453882  L 266.201998 308.109754  "
           id="path73" />
        <path
           clip-path="url(#pa20f96d721)"
           d="M 266.469905 258.28701  L 270.221551 254.539116  L 266.993826 253.461413  L 280.986736 245.935796  L 273.447123 259.92117  L 272.37265 256.692368  L 268.621004 260.440262  L 266.469905 258.28701  "
           id="path75" />
        <path
           clip-path="url(#pa20f96d721)"
           d="M 266.702179 208.678641  L 275.462778 202.847002  L 272.509414 201.15665  L 287.707377 196.524335  L 277.569067 208.757532  L 277.14933 205.380629  L 268.38873 211.212268  L 266.702179 208.678641  "
           id="path77" />
        <path
           clip-path="url(#pa20f96d721)"
           d="M 266.865966 159.165573  L 281.493231 151.866568  L 278.772555 149.822656  L 294.428018 147.112874  L 282.849484 157.992855  L 282.852208 154.589967  L 268.224943 161.888973  L 266.865966 159.165573  "
           id="path79" />
        <path
           clip-path="url(#pa20f96d721)"
           d="M 266.981484 109.695631  L 287.863552 101.363686  L 285.322152 99.100738  L 301.148658 97.701413  L 288.705974 107.581495  L 288.991493 104.190605  L 268.109425 112.52255  L 266.981484 109.695631  "
           id="path81" />
        <path
           clip-path="url(#pa20f96d721)"
           d="M 317.97284 606.782887  L 297.797437 602.727631  L 298.68964 606.011474  L 284.669523 598.536665  L 300.488965 597.059607  L 298.397212 599.743675  L 318.572615 603.798931  L 317.97284 606.782887  "
           id="path83" />
        <path
           clip-path="url(#pa20f96d721)"
           d="M 317.902243 557.34876  L 304.303973 553.935594  L 305.039037 557.258143  L 291.390164 549.125204  L 307.261942 548.401948  L 305.044941 550.983529  L 318.643211 554.396695  L 317.902243 557.34876  "
           id="path85" />
        <path
           clip-path="url(#pa20f96d721)"
           d="M 317.790187 507.897835  L 310.617874 505.499892  L 311.096084 508.869012  L 298.110805 499.713743  L 313.991324 500.209272  L 311.582954 502.613312  L 318.755267 505.011256  L 317.790187 507.897835  "
           id="path87" />
        <path
           clip-path="url(#pa20f96d721)"
           d="M 317.599319 458.380492  L 316.255191 457.707084  L 316.252503 461.068748  L 304.831446 450.302282  L 320.292952 453.003979  L 317.602007 455.018827  L 318.946135 455.692235  L 317.599319 458.380492  "
           id="path89" />
        <path
           clip-path="url(#pa20f96d721)"
           d="M 317.599991 408.290246  L 316.927927 407.61751  L 316.254519 409.634374  L 311.552086 400.89082  L 320.290936 405.60199  L 318.273399 406.273382  L 318.945463 406.946118  L 317.599991 408.290246  "
           id="path91" />
        <path
           clip-path="url(#pa20f96d721)"
           d="M 317.600663 358.2  L 317.600663 357.527936  L 316.256535 358.2  L 318.272727 351.479359  L 320.28892 358.2  L 318.944791 357.527936  L 318.944791 358.2  L 317.600663 358.2  "
           id="path93" />
        <path
           clip-path="url(#pa20f96d721)"
           d="M 317.601335 308.109754  L 318.273399 307.438362  L 316.258551 306.765626  L 324.993368 302.067898  L 320.286903 310.79801  L 319.616183 308.78249  L 318.944119 309.453882  L 317.601335 308.109754  "
           id="path95" />
        <path
           clip-path="url(#pa20f96d721)"
           d="M 317.602007 258.019508  L 318.946135 257.348788  L 316.260567 255.331252  L 331.714009 252.656437  L 320.284887 263.396021  L 320.287575 260.037045  L 318.943447 260.707765  L 317.602007 258.019508  "
           id="path97" />
        <path
           clip-path="url(#pa20f96d721)"
           d="M 317.792786 208.501298  L 324.957303 206.120291  L 322.553264 203.71192  L 338.43465 203.244976  L 325.432912 212.376856  L 325.917185 209.008603  L 318.752669 211.389611  L 317.792786 208.501298  "
           id="path99" />
        <path
           clip-path="url(#pa20f96d721)"
           d="M 317.905022 159.050545  L 331.49704 155.666133  L 329.284902 153.080384  L 345.15529 153.833515  L 331.491133 161.940747  L 332.23245 158.619588  L 318.640432 162.004  L 317.905022 159.050545  "
           id="path101" />
        <path
           clip-path="url(#pa20f96d721)"
           d="M 317.975709 109.616539  L 338.145947 105.602662  L 336.059359 102.914576  L 351.875931 104.422053  L 337.841466 111.869887  L 338.739982 108.587766  L 318.569745 112.601643  L 317.975709 109.616539  "
           id="path103" />
        <path
           clip-path="url(#pa20f96d721)"
           d="M 368.998478 606.812727  L 349.091631 606.79282  L 350.610405 609.837976  L 335.396796 605.257306  L 350.619536 600.707072  L 349.094675 603.749185  L 369.001522 603.769092  L 368.998478 606.812727  "
           id="path105" />
        <path
           clip-path="url(#pa20f96d721)"
           d="M 368.998478 557.394545  L 355.812272 557.381358  L 357.331046 560.426515  L 342.117437 555.845845  L 357.340177 551.295611  L 355.815315 554.337724  L 369.001522 554.35091  L 368.998478 557.394545  "
           id="path107" />
        <path
           clip-path="url(#pa20f96d721)"
           d="M 368.998478 507.976363  L 362.532913 507.969897  L 364.051686 511.015054  L 348.838078 506.434384  L 364.060817 501.884149  L 362.535956 504.926262  L 369.001522 504.932728  L 368.998478 507.976363  "
           id="path109" />
        <path
           clip-path="url(#pa20f96d721)"
           d="M 368.998656 458.380492  L 367.654528 458.379148  L 368.995968 461.068748  L 355.558718 457.022922  L 369.004032 453.003979  L 367.657216 455.690891  L 369.001344 455.692235  L 368.998656 458.380492  "
           id="path111" />
        <path
           clip-path="url(#pa20f96d721)"
           d="M 368.999328 408.290246  L 368.327264 408.289574  L 368.997984 409.634374  L 362.279359 407.611461  L 369.002016 405.60199  L 368.328608 406.945446  L 369.000672 406.946118  L 368.999328 408.290246  "
           id="path113" />
        <path
           clip-path="url(#pa20f96d721)"
           d="M 370.521818 358.2  L 369.760909 356.882067  L 368.239091 356.882067  L 367.478182 358.2  L 368.239091 359.517933  L 369.760909 359.517933  L 370.521818 358.2  L 369.760909 356.882067  "
           id="path115" />
        <path
           clip-path="url(#pa20f96d721)"
           d="M 369.000672 308.109754  L 369.672736 308.110426  L 369.002016 306.765626  L 375.720641 308.788539  L 368.997984 310.79801  L 369.671392 309.454554  L 368.999328 309.453882  L 369.000672 308.109754  "
           id="path117" />
        <path
           clip-path="url(#pa20f96d721)"
           d="M 369.001344 258.019508  L 370.345472 258.020852  L 369.004032 255.331252  L 382.441282 259.377078  L 368.995968 263.396021  L 370.342784 260.709109  L 368.998656 260.707765  L 369.001344 258.019508  "
           id="path119" />
        <path
           clip-path="url(#pa20f96d721)"
           d="M 369.001522 208.423637  L 375.467087 208.430103  L 373.948314 205.384946  L 389.161922 209.965616  L 373.939183 214.515851  L 375.464044 211.473738  L 368.998478 211.467272  L 369.001522 208.423637  "
           id="path121" />
        <path
           clip-path="url(#pa20f96d721)"
           d="M 369.001522 159.005455  L 382.187728 159.018642  L 380.668954 155.973485  L 395.882563 160.554155  L 380.659823 165.104389  L 382.184685 162.062276  L 368.998478 162.04909  L 369.001522 159.005455  "
           id="path123" />
        <path
           clip-path="url(#pa20f96d721)"
           d="M 369.001522 109.587273  L 388.908369 109.60718  L 387.389595 106.562024  L 402.603204 111.142694  L 387.380464 115.692928  L 388.905325 112.650815  L 368.998478 112.630908  L 369.001522 109.587273  "
           id="path125" />
        <path
           clip-path="url(#pa20f96d721)"
           d="M 420.024291 606.783461  L 399.854053 610.797338  L 401.940641 613.485424  L 386.124069 611.977947  L 400.158534 604.530113  L 399.260018 607.812234  L 419.430255 603.798357  L 420.024291 606.783461  "
           id="path127" />
        <path
           clip-path="url(#pa20f96d721)"
           d="M 420.094978 557.349455  L 406.50296 560.733867  L 408.715098 563.319616  L 392.84471 562.566485  L 406.508867 554.459253  L 405.76755 557.780412  L 419.359568 554.396  L 420.094978 557.349455  "
           id="path129" />
        <path
           clip-path="url(#pa20f96d721)"
           d="M 420.207214 507.898702  L 413.042697 510.279709  L 415.446736 512.68808  L 399.56535 513.155024  L 412.567088 504.023144  L 412.082815 507.391397  L 419.247331 505.010389  L 420.207214 507.898702  "
           id="path131" />
        <path
           clip-path="url(#pa20f96d721)"
           d="M 420.397993 458.380492  L 419.053865 459.051212  L 421.739433 461.068748  L 406.285991 463.743563  L 417.715113 453.003979  L 417.712425 456.362955  L 419.056553 455.692235  L 420.397993 458.380492  "
           id="path133" />
        <path
           clip-path="url(#pa20f96d721)"
           d="M 420.398665 408.290246  L 419.726601 408.961638  L 421.741449 409.634374  L 413.006632 414.332102  L 417.713097 405.60199  L 418.383817 407.61751  L 419.055881 406.946118  L 420.398665 408.290246  "
           id="path135" />
        <path
           clip-path="url(#pa20f96d721)"
           d="M 420.399337 358.2  L 420.399337 358.872064  L 421.743465 358.2  L 419.727273 364.920641  L 417.71108 358.2  L 419.055209 358.872064  L 419.055209 358.2  L 420.399337 358.2  "
           id="path137" />
        <path
           clip-path="url(#pa20f96d721)"
           d="M 420.400009 308.109754  L 421.072073 308.78249  L 421.745481 306.765626  L 426.447914 315.50918  L 417.709064 310.79801  L 419.726601 310.126618  L 419.054537 309.453882  L 420.400009 308.109754  "
           id="path139" />
        <path
           clip-path="url(#pa20f96d721)"
           d="M 420.400681 258.019508  L 421.744809 258.692916  L 421.747497 255.331252  L 433.168554 266.097718  L 417.707048 263.396021  L 420.397993 261.381173  L 419.053865 260.707765  L 420.400681 258.019508  "
           id="path141" />
        <path
           clip-path="url(#pa20f96d721)"
           d="M 420.209813 208.502165  L 427.382126 210.900108  L 426.903916 207.530988  L 439.889195 216.686257  L 424.008676 216.190728  L 426.417046 213.786688  L 419.244733 211.388744  L 420.209813 208.502165  "
           id="path143" />
        <path
           clip-path="url(#pa20f96d721)"
           d="M 420.097757 159.05124  L 433.696027 162.464406  L 432.960963 159.141857  L 446.609836 167.274796  L 430.738058 167.998052  L 432.955059 165.416471  L 419.356789 162.003305  L 420.097757 159.05124  "
           id="path145" />
        <path
           clip-path="url(#pa20f96d721)"
           d="M 420.02716 109.617113  L 440.202563 113.672369  L 439.31036 110.388526  L 453.330477 117.863335  L 437.511035 119.340393  L 439.602788 116.656325  L 419.427385 112.601069  L 420.02716 109.617113  "
           id="path147" />
        <path
           clip-path="url(#pa20f96d721)"
           d="M 471.018516 606.704369  L 450.136448 615.036314  L 452.677848 617.299262  L 436.851342 618.698587  L 449.294026 608.818505  L 449.008507 612.209395  L 469.890575 603.87745  L 471.018516 606.704369  "
           id="path149" />
        <path
           clip-path="url(#pa20f96d721)"
           d="M 471.134034 557.234427  L 456.506769 564.533432  L 459.227445 566.577344  L 443.571982 569.287126  L 455.150516 558.407145  L 455.147792 561.810033  L 469.775057 554.511027  L 471.134034 557.234427  "
           id="path151" />
        <path
           clip-path="url(#pa20f96d721)"
           d="M 471.297821 507.721359  L 462.537222 513.552998  L 465.490586 515.24335  L 450.292623 519.875665  L 460.430933 507.642468  L 460.85067 511.019371  L 469.61127 505.187732  L 471.297821 507.721359  "
           id="path153" />
        <path
           clip-path="url(#pa20f96d721)"
           d="M 471.530095 458.11299  L 467.778449 461.860884  L 471.006174 462.938587  L 457.013264 470.464204  L 464.552877 456.47883  L 465.62735 459.707632  L 469.378996 455.959738  L 471.530095 458.11299  "
           id="path155" />
        <path
           clip-path="url(#pa20f96d721)"
           d="M 471.798002 408.290246  L 471.125937 409.633702  L 474.484914 409.634374  L 463.733905 421.052743  L 466.424177 405.60199  L 468.439025 408.289574  L 469.111089 406.946118  L 471.798002 408.290246  "
           id="path157" />
        <path
           clip-path="url(#pa20f96d721)"
           d="M 471.798674 358.2  L 471.798674 359.544128  L 474.48693 358.2  L 470.454545 371.641282  L 466.422161 358.2  L 469.110417 359.544128  L 469.110417 358.2  L 471.798674 358.2  "
           id="path159" />
        <path
           clip-path="url(#pa20f96d721)"
           d="M 471.799346 308.109754  L 472.47141 309.454554  L 474.488946 306.765626  L 477.175186 322.22982  L 466.420145 310.79801  L 469.781809 310.798682  L 469.109745 309.453882  L 471.799346 308.109754  "
           id="path161" />
        <path
           clip-path="url(#pa20f96d721)"
           d="M 471.531171 258.288086  L 475.292502 262.053179  L 476.370203 258.825453  L 483.895827 272.818359  L 469.91045 265.278753  L 473.139251 264.204279  L 469.37792 260.439186  L 471.531171 258.288086  "
           id="path163" />
        <path
           clip-path="url(#pa20f96d721)"
           d="M 471.299574 208.67981  L 480.070693 214.535994  L 480.495106 211.159675  L 490.616468 223.406898  L 475.424933 218.753544  L 478.380636 217.067283  L 469.609517 211.211099  L 471.299574 208.67981  "
           id="path165" />
        <path
           clip-path="url(#pa20f96d721)"
           d="M 471.136212 159.166662  L 485.773277 166.499832  L 485.775998 163.096944  L 497.337109 173.995437  L 481.686002 171.260609  L 484.409945 169.221053  L 469.772879 161.887884  L 471.136212 159.166662  "
           id="path167" />
        <path
           clip-path="url(#pa20f96d721)"
           d="M 471.020952 109.696606  L 491.91179 118.073832  L 491.632118 114.682455  L 504.057749 124.583976  L 488.233679 123.157366  L 490.778977 120.898802  L 469.888139 112.521576  L 471.020952 109.696606  "
           id="path169" />
        <path
           clip-path="url(#pa20f96d721)"
           d="M 521.963827 606.596433  L 500.110339 619.686673  L 502.97988 621.515712  L 487.578614 625.419228  L 498.287827 613.682568  L 498.546321 617.075625  L 520.399809 603.985385  L 521.963827 606.596433  "
           id="path171" />
        <path
           clip-path="url(#pa20f96d721)"
           d="M 522.094129 557.090766  L 506.173917 569.015005  L 509.216578 570.538772  L 494.299255 576.007767  L 503.742711 563.230538  L 504.349294 566.578928  L 520.269507 554.654688  L 522.094129 557.090766  "
           id="path173" />
        <path
           clip-path="url(#pa20f96d721)"
           d="M 522.257368 507.531172  L 511.785081 517.992986  L 515.012806 519.070689  L 501.019896 526.596306  L 508.559509 512.610932  L 509.633982 515.839734  L 520.106269 505.377919  L 522.257368 507.531172  "
           id="path175" />
        <path
           clip-path="url(#pa20f96d721)"
           d="M 522.447788 457.880906  L 516.607389 466.635663  L 519.983871 467.058779  L 507.740537 477.184845  L 512.388054 461.991523  L 514.075451 464.946578  L 519.915849 456.191821  L 522.447788 457.880906  "
           id="path177" />
        <path
           clip-path="url(#pa20f96d721)"
           d="M 522.625494 408.099567  L 520.237323 415.261691  L 523.606059 414.780787  L 514.461177 427.773384  L 514.944007 411.892473  L 517.349972 414.29892  L 519.738143 407.136796  L 522.625494 408.099567  "
           id="path179" />
        <path
           clip-path="url(#pa20f96d721)"
           d="M 522.703636 358.2  L 522.703636 364.665559  L 525.747273 363.143741  L 521.181818 378.361922  L 516.616364 363.143741  L 519.66 364.665559  L 519.66 358.2  L 522.703636 358.2  "
           id="path181" />
        <path
           clip-path="url(#pa20f96d721)"
           d="M 522.62559 308.300721  L 525.016359 315.47542  L 527.422805 313.069455  L 527.902459 328.950461  L 518.760176 315.956036  L 522.128816 316.437614  L 519.738047 309.262915  L 522.62559 308.300721  "
           id="path183" />
        <path
           clip-path="url(#pa20f96d721)"
           d="M 522.448307 258.519873  L 528.295718 267.296837  L 529.984932 264.342822  L 534.6231 279.539  L 522.386 269.405402  L 525.762741 268.984364  L 519.915329 260.2074  L 522.448307 258.519873  "
           id="path185" />
        <path
           clip-path="url(#pa20f96d721)"
           d="M 522.258444 208.869904  L 532.740416 219.362358  L 533.818117 216.134633  L 541.343741 230.127539  L 527.358363 222.587933  L 530.587165 221.513459  L 520.105193 211.021005  L 522.258444 208.869904  "
           id="path187" />
        <path
           clip-path="url(#pa20f96d721)"
           d="M 522.095688 159.310403  L 538.026419 171.274382  L 538.637288 167.926772  L 548.064381 180.716078  L 533.154071 175.227993  L 536.19868 173.708122  L 520.267949 161.744143  L 522.095688 159.310403  "
           id="path189" />
        <path
           clip-path="url(#pa20f96d721)"
           d="M 521.965746 109.804718  L 543.829597 122.944893  L 544.093081 119.55222  L 554.785022 131.304616  L 539.389513 127.378455  L 542.261742 125.553638  L 520.39789 112.413463  L 521.965746 109.804718  "
           id="path191" />
        <path
           clip-path="url(#pa20f96d721)"
           d="M 572.859038 606.479829  L 549.956115 624.779265  L 553.044929 626.207158  L 538.305887 632.139869  L 547.345246 619.073637  L 548.056221 622.401425  L 570.959144 604.101989  L 572.859038 606.479829  "
           id="path193" />
        <path
           clip-path="url(#pa20f96d721)"
           d="M 572.98464 556.949353  L 555.791712 574.125088  L 559.019438 575.202791  L 545.026528 582.728408  L 552.566141 568.743034  L 553.640613 571.971836  L 570.833541 554.796101  L 572.98464 556.949353  "
           id="path195" />
        <path
           clip-path="url(#pa20f96d721)"
           d="M 573.126217 507.368075  L 561.186058 523.276346  L 564.533839 523.886279  L 551.747169 533.316947  L 557.231085 518.405103  L 558.751807 521.449287  L 570.691965 505.541016  L 573.126217 507.368075  "
           id="path197" />
        <path
           clip-path="url(#pa20f96d721)"
           d="M 573.27011 457.717214  L 565.95648 472.337161  L 569.359368 472.337842  L 558.467809 483.905486  L 561.193252 468.252742  L 563.234441 470.975461  L 570.548072 456.355514  L 573.27011 457.717214  "
           id="path199" />
        <path
           clip-path="url(#pa20f96d721)"
           d="M 573.38545 407.987364  L 569.987447 421.575977  L 573.309346 420.837983  L 565.18845 434.494024  L 564.451194 418.622891  L 567.034729 420.837613  L 570.432732 407.249  L 573.38545 407.987364  "
           id="path201" />
        <path
           clip-path="url(#pa20f96d721)"
           d="M 573.430909 358.2  L 573.430909 371.3862  L 576.474545 369.864381  L 571.909091 385.082563  L 567.343636 369.864381  L 570.387273 371.3862  L 570.387273 358.2  L 573.430909 358.2  "
           id="path203" />
        <path
           clip-path="url(#pa20f96d721)"
           d="M 573.385493 308.41281  L 576.785059 322.014474  L 579.368855 319.800055  L 578.629732 335.671102  L 570.510442 322.014105  L 573.832255 322.75249  L 570.432689 309.150826  L 573.385493 308.41281  "
           id="path205" />
        <path
           clip-path="url(#pa20f96d721)"
           d="M 573.270383 258.683331  L 580.588913 273.327711  L 582.631191 270.605808  L 585.350372 286.259641  L 574.463441 274.687642  L 577.86633 274.688322  L 570.547799 260.043942  L 573.270383 258.683331  "
           id="path207" />
        <path
           clip-path="url(#pa20f96d721)"
           d="M 573.126874 209.032802  L 585.074921 224.97548  L 586.597835 221.932391  L 592.071013 236.84818  L 579.291136 227.408308  L 582.639355 226.800785  L 570.691308 210.858107  L 573.126874 209.032802  "
           id="path209" />
        <path
           clip-path="url(#pa20f96d721)"
           d="M 572.985717 159.451723  L 590.188329 176.671538  L 591.26603 173.443812  L 598.791654 187.436718  L 584.806277 179.897113  L 588.035078 178.822638  L 570.832465 161.602823  L 572.985717 159.451723  "
           id="path211" />
        <path
           clip-path="url(#pa20f96d721)"
           d="M 572.860487 109.92133  L 595.773845 128.274929  L 596.488877 124.948012  L 605.512295 138.025257  L 590.780498 132.074576  L 593.871052 130.650451  L 570.957695 112.296852  L 572.860487 109.92133  "
           id="path213" />
        <path
           clip-path="url(#pa20f96d721)"
           d="M 623.711913 606.367535  L 599.798344 630.25719  L 603.02607 631.334893  L 589.03316 638.86051  L 596.572773 624.875136  L 597.647245 628.103938  L 621.560814 604.214283  L 623.711913 606.367535  "
           id="path215" />
        <path
           clip-path="url(#pa20f96d721)"
           d="M 623.824333 556.823863  L 605.501995 579.708463  L 608.82907 580.422766  L 595.7538 589.449049  L 601.701255 574.715949  L 603.126057 577.806191  L 621.448395 554.921591  L 623.824333 556.823863  "
           id="path217" />
        <path
           clip-path="url(#pa20f96d721)"
           d="M 623.941105 507.23786  L 610.829013 529.078234  L 614.22181 529.340122  L 602.474441 540.037587  L 606.393364 524.640235  L 608.219531 527.511605  L 621.331623 505.671231  L 623.941105 507.23786  "
           id="path219" />
        <path
           clip-path="url(#pa20f96d721)"
           d="M 624.049258 457.601748  L 615.696433 478.475458  L 619.087607 478.193331  L 609.195082 490.626126  L 610.610238 474.801027  L 612.870644 477.34469  L 621.223469 456.47098  L 624.049258 457.601748  "
           id="path221" />
        <path
           clip-path="url(#pa20f96d721)"
           d="M 624.128618 407.916692  L 620.094571 428.082889  L 623.37759 427.187656  L 615.915723 441.214665  L 614.424066 425.396593  L 617.110063 427.485868  L 621.14411 407.319671  L 624.128618 407.916692  "
           id="path223" />
        <path
           clip-path="url(#pa20f96d721)"
           d="M 624.158182 358.2  L 624.158182 378.10684  L 627.201818 376.585022  L 622.636364 391.803204  L 618.070909 376.585022  L 621.114545 378.10684  L 621.114545 358.2  L 624.158182 358.2  "
           id="path225" />
        <path
           clip-path="url(#pa20f96d721)"
           d="M 624.128641 308.483422  L 628.16372 328.662854  L 630.849878 326.573786  L 629.357004 342.391743  L 621.896216 328.36416  L 625.179166 329.259646  L 621.144087 309.080214  L 624.128641 308.483422  "
           id="path227" />
        <path
           clip-path="url(#pa20f96d721)"
           d="M 624.049414 258.798642  L 632.405748 279.697832  L 634.666855 277.154793  L 636.077645 292.980282  L 626.188551 280.544758  L 629.579646 280.82782  L 621.223313 259.928631  L 624.049414 258.798642  "
           id="path229" />
        <path
           clip-path="url(#pa20f96d721)"
           d="M 623.941519 209.162831  L 637.059828 231.039798  L 638.887515 228.169395  L 642.798286 243.56882  L 631.056583 232.865137  L 634.449517 232.605045  L 621.331208 210.728078  L 623.941519 209.162831  "
           id="path231" />
        <path
           clip-path="url(#pa20f96d721)"
           d="M 623.825075 159.577064  L 642.15576 182.508751  L 643.582973 179.419622  L 649.518927 194.157359  L 636.450707 185.120875  L 639.778337 184.409168  L 621.447653 161.477481  L 623.825075 159.577064  "
           id="path233" />
        <path
           clip-path="url(#pa20f96d721)"
           d="M 623.712989 110.033541  L 647.636243 133.980718  L 648.713944 130.752992  L 656.239568 144.745898  L 642.25419 137.206292  L 645.482992 136.131818  L 621.559738 112.184641  L 623.712989 110.033541  "
           id="path235" />
        <path
           clip-path="url(#pa20f96d721)"
           d="M 114.287011 606.366459  L 90.363757 582.419282  L 89.286056 585.647008  L 81.760432 571.654102  L 95.74581 579.193708  L 92.517008 580.268182  L 116.440262 604.215359  L 114.287011 606.366459  "
           id="path237" />
        <path
           clip-path="url(#pa20f96d721)"
           d="M 114.174925 556.822936  L 95.84424 533.891249  L 94.417027 536.980378  L 88.481073 522.242641  L 101.549293 531.279125  L 98.221663 531.990832  L 116.552347 554.922519  L 114.174925 556.822936  "
           id="path239" />
        <path
           clip-path="url(#pa20f96d721)"
           d="M 114.058481 507.237169  L 100.940172 485.360202  L 99.112485 488.230605  L 95.201714 472.83118  L 106.943417 483.534863  L 103.550483 483.794955  L 116.668792 505.671922  L 114.058481 507.237169  "
           id="path241" />
        <path
           clip-path="url(#pa20f96d721)"
           d="M 113.950586 457.601358  L 105.594252 436.702168  L 103.333145 439.245207  L 101.922355 423.419718  L 111.811449 435.855242  L 108.420354 435.57218  L 116.776687 456.471369  L 113.950586 457.601358  "
           id="path243" />
        <path
           clip-path="url(#pa20f96d721)"
           d="M 113.871359 407.916578  L 109.83628 387.737146  L 107.150122 389.826214  L 108.642996 374.008257  L 116.103784 388.03584  L 112.820834 387.140354  L 116.855913 407.319786  L 113.871359 407.916578  "
           id="path245" />
        <path
           clip-path="url(#pa20f96d721)"
           d="M 113.841818 358.2  L 113.841818 338.29316  L 110.798182 339.814978  L 115.363636 324.596796  L 119.929091 339.814978  L 116.885455 338.29316  L 116.885455 358.2  L 113.841818 358.2  "
           id="path247" />
        <path
           clip-path="url(#pa20f96d721)"
           d="M 113.871382 308.483308  L 117.905429 288.317111  L 114.62241 289.212344  L 122.084277 275.185335  L 123.575934 291.003407  L 120.889937 288.914132  L 116.85589 309.080329  L 113.871382 308.483308  "
           id="path249" />
        <path
           clip-path="url(#pa20f96d721)"
           d="M 113.950742 258.798252  L 122.303567 237.924542  L 118.912393 238.206669  L 128.804918 225.773874  L 127.389762 241.598973  L 125.129356 239.05531  L 116.776531 259.92902  L 113.950742 258.798252  "
           id="path251" />
        <path
           clip-path="url(#pa20f96d721)"
           d="M 114.058895 209.16214  L 127.170987 187.321766  L 123.77819 187.059878  L 135.525559 176.362413  L 131.606636 191.759765  L 129.780469 188.888395  L 116.668377 210.728769  L 114.058895 209.16214  "
           id="path253" />
        <path
           clip-path="url(#pa20f96d721)"
           d="M 114.175667 159.576137  L 132.498005 136.691537  L 129.17093 135.977234  L 142.2462 126.950951  L 136.298745 141.684051  L 134.873943 138.593809  L 116.551605 161.478409  L 114.175667 159.576137  "
           id="path255" />
        <path
           clip-path="url(#pa20f96d721)"
           d="M 114.288087 110.032465  L 138.201656 86.14281  L 134.97393 85.065107  L 148.96684 77.53949  L 141.427227 91.524864  L 140.352755 88.296062  L 116.439186 112.185717  L 114.288087 110.032465  "
           id="path257" />
      </g>
      <g
         id="matplotlib.axis_1">
        <g
           id="xtick_1">
          <g
             id="line2d_1">
            <path
               clip-path="url(#pa20f96d721)"
               d="M 115.363636 630  L 115.363636 86.4  "
               style="fill:none;stroke:#b0b0b0;stroke-linecap:square;stroke-width:0.8;"
               id="path262" />
          </g>
          <g
             id="line2d_2">
            <defs
               id="defs265">
              <path
                 d="M 0 0  L 0 3.5  "
                 id="m69f1d1b56f"
                 style="stroke:#000000;stroke-width:0.8;" />
            </defs>
            <g
               id="g268">
              <use
                 style="stroke:#000000;stroke-width:0.8;"
                 x="115.363636"
                 xlink:href="#m69f1d1b56f"
                 y="630"
                 id="use270" />
            </g>
          </g>
          <g
             id="text_1">
            <!-- −1.00 -->
            <defs
               id="defs273">
              <path
                 d="M 10.59375 35.5  L 73.1875 35.5  L 73.1875 27.203125  L 10.59375 27.203125  z "
                 id="DejaVuSans-2212" />
              <path
                 d="M 12.40625 8.296875  L 28.515625 8.296875  L 28.515625 63.921875  L 10.984375 60.40625  L 10.984375 69.390625  L 28.421875 72.90625  L 38.28125 72.90625  L 38.28125 8.296875  L 54.390625 8.296875  L 54.390625 0  L 12.40625 0  z "
                 id="DejaVuSans-31" />
              <path
                 d="M 10.6875 12.40625  L 21 12.40625  L 21 0  L 10.6875 0  z "
                 id="DejaVuSans-2e" />
              <path
                 d="M 31.78125 66.40625  Q 24.171875 66.40625 20.328125 58.90625  Q 16.5 51.421875 16.5 36.375  Q 16.5 21.390625 20.328125 13.890625  Q 24.171875 6.390625 31.78125 6.390625  Q 39.453125 6.390625 43.28125 13.890625  Q 47.125 21.390625 47.125 36.375  Q 47.125 51.421875 43.28125 58.90625  Q 39.453125 66.40625 31.78125 66.40625  z M 31.78125 74.21875  Q 44.046875 74.21875 50.515625 64.515625  Q 56.984375 54.828125 56.984375 36.375  Q 56.984375 17.96875 50.515625 8.265625  Q 44.046875 -1.421875 31.78125 -1.421875  Q 19.53125 -1.421875 13.0625 8.265625  Q 6.59375 17.96875 6.59375 36.375  Q 6.59375 54.828125 13.0625 64.515625  Q 19.53125 74.21875 31.78125 74.21875  z "
                 id="DejaVuSans-30" />
            </defs>
            <g
               transform="translate(93.911918 647.637812)scale(0.14 -0.14)"
               id="g279">
              <use
                 xlink:href="#DejaVuSans-2212"
                 id="use281" />
              <use
                 x="83.789062"
                 xlink:href="#DejaVuSans-31"
                 id="use283" />
              <use
                 x="147.412109"
                 xlink:href="#DejaVuSans-2e"
                 id="use285" />
              <use
                 x="179.199219"
                 xlink:href="#DejaVuSans-30"
                 id="use287" />
              <use
                 x="242.822266"
                 xlink:href="#DejaVuSans-30"
                 id="use289" />
            </g>
          </g>
        </g>
        <g
           id="xtick_2">
          <g
             id="line2d_3">
            <path
               clip-path="url(#pa20f96d721)"
               d="M 178.772727 630  L 178.772727 86.4  "
               style="fill:none;stroke:#b0b0b0;stroke-linecap:square;stroke-width:0.8;"
               id="path293" />
          </g>
          <g
             id="line2d_4">
            <g
               id="g296">
              <use
                 style="stroke:#000000;stroke-width:0.8;"
                 x="178.772727"
                 xlink:href="#m69f1d1b56f"
                 y="630"
                 id="use298" />
            </g>
          </g>
          <g
             id="text_2">
            <!-- −0.75 -->
            <defs
               id="defs301">
              <path
                 d="M 8.203125 72.90625  L 55.078125 72.90625  L 55.078125 68.703125  L 28.609375 0  L 18.3125 0  L 43.21875 64.59375  L 8.203125 64.59375  z "
                 id="DejaVuSans-37" />
              <path
                 d="M 10.796875 72.90625  L 49.515625 72.90625  L 49.515625 64.59375  L 19.828125 64.59375  L 19.828125 46.734375  Q 21.96875 47.46875 24.109375 47.828125  Q 26.265625 48.1875 28.421875 48.1875  Q 40.625 48.1875 47.75 41.5  Q 54.890625 34.8125 54.890625 23.390625  Q 54.890625 11.625 47.5625 5.09375  Q 40.234375 -1.421875 26.90625 -1.421875  Q 22.3125 -1.421875 17.546875 -0.640625  Q 12.796875 0.140625 7.71875 1.703125  L 7.71875 11.625  Q 12.109375 9.234375 16.796875 8.0625  Q 21.484375 6.890625 26.703125 6.890625  Q 35.15625 6.890625 40.078125 11.328125  Q 45.015625 15.765625 45.015625 23.390625  Q 45.015625 31 40.078125 35.4375  Q 35.15625 39.890625 26.703125 39.890625  Q 22.75 39.890625 18.8125 39.015625  Q 14.890625 38.140625 10.796875 36.28125  z "
                 id="DejaVuSans-35" />
            </defs>
            <g
               transform="translate(157.321009 647.637812)scale(0.14 -0.14)"
               id="g305">
              <use
                 xlink:href="#DejaVuSans-2212"
                 id="use307" />
              <use
                 x="83.789062"
                 xlink:href="#DejaVuSans-30"
                 id="use309" />
              <use
                 x="147.412109"
                 xlink:href="#DejaVuSans-2e"
                 id="use311" />
              <use
                 x="179.199219"
                 xlink:href="#DejaVuSans-37"
                 id="use313" />
              <use
                 x="242.822266"
                 xlink:href="#DejaVuSans-35"
                 id="use315" />
            </g>
          </g>
        </g>
        <g
           id="xtick_3">
          <g
             id="line2d_5">
            <path
               clip-path="url(#pa20f96d721)"
               d="M 242.181818 630  L 242.181818 86.4  "
               style="fill:none;stroke:#b0b0b0;stroke-linecap:square;stroke-width:0.8;"
               id="path319" />
          </g>
          <g
             id="line2d_6">
            <g
               id="g322">
              <use
                 style="stroke:#000000;stroke-width:0.8;"
                 x="242.181818"
                 xlink:href="#m69f1d1b56f"
                 y="630"
                 id="use324" />
            </g>
          </g>
          <g
             id="text_3">
            <!-- −0.50 -->
            <g
               transform="translate(220.730099 647.637812)scale(0.14 -0.14)"
               id="g327">
              <use
                 xlink:href="#DejaVuSans-2212"
                 id="use329" />
              <use
                 x="83.789062"
                 xlink:href="#DejaVuSans-30"
                 id="use331" />
              <use
                 x="147.412109"
                 xlink:href="#DejaVuSans-2e"
                 id="use333" />
              <use
                 x="179.199219"
                 xlink:href="#DejaVuSans-35"
                 id="use335" />
              <use
                 x="242.822266"
                 xlink:href="#DejaVuSans-30"
                 id="use337" />
            </g>
          </g>
        </g>
        <g
           id="xtick_4">
          <g
             id="line2d_7">
            <path
               clip-path="url(#pa20f96d721)"
               d="M 305.590909 630  L 305.590909 86.4  "
               style="fill:none;stroke:#b0b0b0;stroke-linecap:square;stroke-width:0.8;"
               id="path341" />
          </g>
          <g
             id="line2d_8">
            <g
               id="g344">
              <use
                 style="stroke:#000000;stroke-width:0.8;"
                 x="305.590909"
                 xlink:href="#m69f1d1b56f"
                 y="630"
                 id="use346" />
            </g>
          </g>
          <g
             id="text_4">
            <!-- −0.25 -->
            <defs
               id="defs349">
              <path
                 d="M 19.1875 8.296875  L 53.609375 8.296875  L 53.609375 0  L 7.328125 0  L 7.328125 8.296875  Q 12.9375 14.109375 22.625 23.890625  Q 32.328125 33.6875 34.8125 36.53125  Q 39.546875 41.84375 41.421875 45.53125  Q 43.3125 49.21875 43.3125 52.78125  Q 43.3125 58.59375 39.234375 62.25  Q 35.15625 65.921875 28.609375 65.921875  Q 23.96875 65.921875 18.8125 64.3125  Q 13.671875 62.703125 7.8125 59.421875  L 7.8125 69.390625  Q 13.765625 71.78125 18.9375 73  Q 24.125 74.21875 28.421875 74.21875  Q 39.75 74.21875 46.484375 68.546875  Q 53.21875 62.890625 53.21875 53.421875  Q 53.21875 48.921875 51.53125 44.890625  Q 49.859375 40.875 45.40625 35.40625  Q 44.1875 33.984375 37.640625 27.21875  Q 31.109375 20.453125 19.1875 8.296875  z "
                 id="DejaVuSans-32" />
            </defs>
            <g
               transform="translate(284.13919 647.637812)scale(0.14 -0.14)"
               id="g352">
              <use
                 xlink:href="#DejaVuSans-2212"
                 id="use354" />
              <use
                 x="83.789062"
                 xlink:href="#DejaVuSans-30"
                 id="use356" />
              <use
                 x="147.412109"
                 xlink:href="#DejaVuSans-2e"
                 id="use358" />
              <use
                 x="179.199219"
                 xlink:href="#DejaVuSans-32"
                 id="use360" />
              <use
                 x="242.822266"
                 xlink:href="#DejaVuSans-35"
                 id="use362" />
            </g>
          </g>
        </g>
        <g
           id="xtick_5"
           style="fill:#000000">
          <g
             id="line2d_9"
             style="fill:#000000">
            <path
               clip-path="url(#pa20f96d721)"
               d="M 369 630  L 369 86.4  "
               style="fill:#000000;stroke:#b0b0b0;stroke-linecap:square;stroke-width:0.8"
               id="path366" />
          </g>
          <g
             id="line2d_10"
             style="fill:#000000">
            <g
               id="g369"
               style="fill:#000000">
              <use
                 style="stroke:#000000;stroke-width:0.8;fill:#000000"
                 x="369"
                 xlink:href="#m69f1d1b56f"
                 y="630"
                 id="use371" />
            </g>
          </g>
          <g
             id="text_5"
             style="fill:#000000">
            <!-- 0.00 -->
            <g
               transform="translate(353.414062 647.637812)scale(0.14 -0.14)"
               id="g374"
               style="fill:#000000">
              <use
                 xlink:href="#DejaVuSans-30"
                 id="use376"
                 style="fill:#000000" />
              <use
                 x="63.623047"
                 xlink:href="#DejaVuSans-2e"
                 id="use378"
                 style="fill:#000000" />
              <use
                 x="95.410156"
                 xlink:href="#DejaVuSans-30"
                 id="use380"
                 style="fill:#000000" />
              <use
                 x="159.033203"
                 xlink:href="#DejaVuSans-30"
                 id="use382"
                 style="fill:#000000" />
            </g>
          </g>
        </g>
        <g
           id="xtick_6">
          <g
             id="line2d_11">
            <path
               clip-path="url(#pa20f96d721)"
               d="M 432.409091 630  L 432.409091 86.4  "
               style="fill:none;stroke:#b0b0b0;stroke-linecap:square;stroke-width:0.8;"
               id="path386" />
          </g>
          <g
             id="line2d_12">
            <g
               id="g389">
              <use
                 style="stroke:#000000;stroke-width:0.8;"
                 x="432.409091"
                 xlink:href="#m69f1d1b56f"
                 y="630"
                 id="use391" />
            </g>
          </g>
          <g
             id="text_6">
            <!-- 0.25 -->
            <g
               transform="translate(416.823153 647.637812)scale(0.14 -0.14)"
               id="g394">
              <use
                 xlink:href="#DejaVuSans-30"
                 id="use396" />
              <use
                 x="63.623047"
                 xlink:href="#DejaVuSans-2e"
                 id="use398" />
              <use
                 x="95.410156"
                 xlink:href="#DejaVuSans-32"
                 id="use400" />
              <use
                 x="159.033203"
                 xlink:href="#DejaVuSans-35"
                 id="use402" />
            </g>
          </g>
        </g>
        <g
           id="xtick_7">
          <g
             id="line2d_13">
            <path
               clip-path="url(#pa20f96d721)"
               d="M 495.818182 630  L 495.818182 86.4  "
               style="fill:none;stroke:#b0b0b0;stroke-linecap:square;stroke-width:0.8;"
               id="path406" />
          </g>
          <g
             id="line2d_14">
            <g
               id="g409">
              <use
                 style="stroke:#000000;stroke-width:0.8;"
                 x="495.818182"
                 xlink:href="#m69f1d1b56f"
                 y="630"
                 id="use411" />
            </g>
          </g>
          <g
             id="text_7">
            <!-- 0.50 -->
            <g
               transform="translate(480.232244 647.637812)scale(0.14 -0.14)"
               id="g414">
              <use
                 xlink:href="#DejaVuSans-30"
                 id="use416" />
              <use
                 x="63.623047"
                 xlink:href="#DejaVuSans-2e"
                 id="use418" />
              <use
                 x="95.410156"
                 xlink:href="#DejaVuSans-35"
                 id="use420" />
              <use
                 x="159.033203"
                 xlink:href="#DejaVuSans-30"
                 id="use422" />
            </g>
          </g>
        </g>
        <g
           id="xtick_8">
          <g
             id="line2d_15">
            <path
               clip-path="url(#pa20f96d721)"
               d="M 559.227273 630  L 559.227273 86.4  "
               style="fill:none;stroke:#b0b0b0;stroke-linecap:square;stroke-width:0.8;"
               id="path426" />
          </g>
          <g
             id="line2d_16">
            <g
               id="g429">
              <use
                 style="stroke:#000000;stroke-width:0.8;"
                 x="559.227273"
                 xlink:href="#m69f1d1b56f"
                 y="630"
                 id="use431" />
            </g>
          </g>
          <g
             id="text_8">
            <!-- 0.75 -->
            <g
               transform="translate(543.641335 647.637812)scale(0.14 -0.14)"
               id="g434">
              <use
                 xlink:href="#DejaVuSans-30"
                 id="use436" />
              <use
                 x="63.623047"
                 xlink:href="#DejaVuSans-2e"
                 id="use438" />
              <use
                 x="95.410156"
                 xlink:href="#DejaVuSans-37"
                 id="use440" />
              <use
                 x="159.033203"
                 xlink:href="#DejaVuSans-35"
                 id="use442" />
            </g>
          </g>
        </g>
        <g
           id="xtick_9">
          <g
             id="line2d_17">
            <path
               clip-path="url(#pa20f96d721)"
               d="M 622.636364 630  L 622.636364 86.4  "
               style="fill:none;stroke:#b0b0b0;stroke-linecap:square;stroke-width:0.8;"
               id="path446" />
          </g>
          <g
             id="line2d_18">
            <g
               id="g449">
              <use
                 style="stroke:#000000;stroke-width:0.8;"
                 x="622.636364"
                 xlink:href="#m69f1d1b56f"
                 y="630"
                 id="use451" />
            </g>
          </g>
          <g
             id="text_9">
            <!-- 1.00 -->
            <g
               transform="translate(607.050426 647.637812)scale(0.14 -0.14)"
               id="g454">
              <use
                 xlink:href="#DejaVuSans-31"
                 id="use456" />
              <use
                 x="63.623047"
                 xlink:href="#DejaVuSans-2e"
                 id="use458" />
              <use
                 x="95.410156"
                 xlink:href="#DejaVuSans-30"
                 id="use460" />
              <use
                 x="159.033203"
                 xlink:href="#DejaVuSans-30"
                 id="use462" />
            </g>
          </g>
        </g>
        <g
           id="text_10">
          <!-- $x_1$ -->
          <defs
             id="defs465">
            <path
               d="M 60.015625 54.6875  L 34.90625 27.875  L 50.296875 0  L 39.984375 0  L 28.421875 21.6875  L 8.296875 0  L -2.59375 0  L 24.3125 28.8125  L 10.015625 54.6875  L 20.3125 54.6875  L 30.8125 34.90625  L 49.125 54.6875  z "
               id="DejaVuSans-Oblique-78" />
          </defs>
          <g
             transform="translate(355.625 673.545469)scale(0.25 -0.25)"
             id="g468">
            <use
               transform="translate(0 0.3125)"
               xlink:href="#DejaVuSans-Oblique-78"
               id="use470" />
            <use
               transform="translate(59.179688 -16.09375)scale(0.7)"
               xlink:href="#DejaVuSans-31"
               id="use472" />
          </g>
        </g>
      </g>
      <g
         id="matplotlib.axis_2">
        <g
           id="ytick_1">
          <g
             id="line2d_19">
            <path
               clip-path="url(#pa20f96d721)"
               d="M 90 605.290909  L 648 605.290909  "
               style="fill:none;stroke:#b0b0b0;stroke-linecap:square;stroke-width:0.8;"
               id="path477" />
          </g>
          <g
             id="line2d_20">
            <defs
               id="defs480">
              <path
                 d="M 0 0  L -3.5 0  "
                 id="m6af5daa92c"
                 style="stroke:#000000;stroke-width:0.8;" />
            </defs>
            <g
               id="g483">
              <use
                 style="stroke:#000000;stroke-width:0.8;"
                 x="90"
                 xlink:href="#m6af5daa92c"
                 y="605.290909"
                 id="use485" />
            </g>
          </g>
          <g
             id="text_11">
            <!-- −1.00 -->
            <g
               transform="translate(40.096562 610.609815)scale(0.14 -0.14)"
               id="g488">
              <use
                 xlink:href="#DejaVuSans-2212"
                 id="use490" />
              <use
                 x="83.789062"
                 xlink:href="#DejaVuSans-31"
                 id="use492" />
              <use
                 x="147.412109"
                 xlink:href="#DejaVuSans-2e"
                 id="use494" />
              <use
                 x="179.199219"
                 xlink:href="#DejaVuSans-30"
                 id="use496" />
              <use
                 x="242.822266"
                 xlink:href="#DejaVuSans-30"
                 id="use498" />
            </g>
          </g>
        </g>
        <g
           id="ytick_2">
          <g
             id="line2d_21">
            <path
               clip-path="url(#pa20f96d721)"
               d="M 90 543.518182  L 648 543.518182  "
               style="fill:none;stroke:#b0b0b0;stroke-linecap:square;stroke-width:0.8;"
               id="path502" />
          </g>
          <g
             id="line2d_22">
            <g
               id="g505">
              <use
                 style="stroke:#000000;stroke-width:0.8;"
                 x="90"
                 xlink:href="#m6af5daa92c"
                 y="543.518182"
                 id="use507" />
            </g>
          </g>
          <g
             id="text_12">
            <!-- −0.75 -->
            <g
               transform="translate(40.096562 548.837088)scale(0.14 -0.14)"
               id="g510">
              <use
                 xlink:href="#DejaVuSans-2212"
                 id="use512" />
              <use
                 x="83.789062"
                 xlink:href="#DejaVuSans-30"
                 id="use514" />
              <use
                 x="147.412109"
                 xlink:href="#DejaVuSans-2e"
                 id="use516" />
              <use
                 x="179.199219"
                 xlink:href="#DejaVuSans-37"
                 id="use518" />
              <use
                 x="242.822266"
                 xlink:href="#DejaVuSans-35"
                 id="use520" />
            </g>
          </g>
        </g>
        <g
           id="ytick_3">
          <g
             id="line2d_23">
            <path
               clip-path="url(#pa20f96d721)"
               d="M 90 481.745455  L 648 481.745455  "
               style="fill:none;stroke:#b0b0b0;stroke-linecap:square;stroke-width:0.8;"
               id="path524" />
          </g>
          <g
             id="line2d_24">
            <g
               id="g527">
              <use
                 style="stroke:#000000;stroke-width:0.8;"
                 x="90"
                 xlink:href="#m6af5daa92c"
                 y="481.745455"
                 id="use529" />
            </g>
          </g>
          <g
             id="text_13">
            <!-- −0.50 -->
            <g
               transform="translate(40.096562 487.064361)scale(0.14 -0.14)"
               id="g532">
              <use
                 xlink:href="#DejaVuSans-2212"
                 id="use534" />
              <use
                 x="83.789062"
                 xlink:href="#DejaVuSans-30"
                 id="use536" />
              <use
                 x="147.412109"
                 xlink:href="#DejaVuSans-2e"
                 id="use538" />
              <use
                 x="179.199219"
                 xlink:href="#DejaVuSans-35"
                 id="use540" />
              <use
                 x="242.822266"
                 xlink:href="#DejaVuSans-30"
                 id="use542" />
            </g>
          </g>
        </g>
        <g
           id="ytick_4">
          <g
             id="line2d_25">
            <path
               clip-path="url(#pa20f96d721)"
               d="M 90 419.972727  L 648 419.972727  "
               style="fill:none;stroke:#b0b0b0;stroke-linecap:square;stroke-width:0.8;"
               id="path546" />
          </g>
          <g
             id="line2d_26">
            <g
               id="g549">
              <use
                 style="stroke:#000000;stroke-width:0.8;"
                 x="90"
                 xlink:href="#m6af5daa92c"
                 y="419.972727"
                 id="use551" />
            </g>
          </g>
          <g
             id="text_14">
            <!-- −0.25 -->
            <g
               transform="translate(40.096562 425.291634)scale(0.14 -0.14)"
               id="g554">
              <use
                 xlink:href="#DejaVuSans-2212"
                 id="use556" />
              <use
                 x="83.789062"
                 xlink:href="#DejaVuSans-30"
                 id="use558" />
              <use
                 x="147.412109"
                 xlink:href="#DejaVuSans-2e"
                 id="use560" />
              <use
                 x="179.199219"
                 xlink:href="#DejaVuSans-32"
                 id="use562" />
              <use
                 x="242.822266"
                 xlink:href="#DejaVuSans-35"
                 id="use564" />
            </g>
          </g>
        </g>
        <g
           id="ytick_5">
          <g
             id="line2d_27">
            <path
               clip-path="url(#pa20f96d721)"
               d="M 90 358.2  L 648 358.2  "
               style="fill:none;stroke:#b0b0b0;stroke-linecap:square;stroke-width:0.8;"
               id="path568" />
          </g>
          <g
             id="line2d_28">
            <g
               id="g571">
              <use
                 style="stroke:#000000;stroke-width:0.8;"
                 x="90"
                 xlink:href="#m6af5daa92c"
                 y="358.2"
                 id="use573" />
            </g>
          </g>
          <g
             id="text_15">
            <!-- 0.00 -->
            <g
               transform="translate(51.828125 363.518906)scale(0.14 -0.14)"
               id="g576">
              <use
                 xlink:href="#DejaVuSans-30"
                 id="use578" />
              <use
                 x="63.623047"
                 xlink:href="#DejaVuSans-2e"
                 id="use580" />
              <use
                 x="95.410156"
                 xlink:href="#DejaVuSans-30"
                 id="use582" />
              <use
                 x="159.033203"
                 xlink:href="#DejaVuSans-30"
                 id="use584" />
            </g>
          </g>
        </g>
        <g
           id="ytick_6">
          <g
             id="line2d_29">
            <path
               clip-path="url(#pa20f96d721)"
               d="M 90 296.427273  L 648 296.427273  "
               style="fill:none;stroke:#b0b0b0;stroke-linecap:square;stroke-width:0.8;"
               id="path588" />
          </g>
          <g
             id="line2d_30">
            <g
               id="g591">
              <use
                 style="stroke:#000000;stroke-width:0.8;"
                 x="90"
                 xlink:href="#m6af5daa92c"
                 y="296.427273"
                 id="use593" />
            </g>
          </g>
          <g
             id="text_16">
            <!-- 0.25 -->
            <g
               transform="translate(51.828125 301.746179)scale(0.14 -0.14)"
               id="g596">
              <use
                 xlink:href="#DejaVuSans-30"
                 id="use598" />
              <use
                 x="63.623047"
                 xlink:href="#DejaVuSans-2e"
                 id="use600" />
              <use
                 x="95.410156"
                 xlink:href="#DejaVuSans-32"
                 id="use602" />
              <use
                 x="159.033203"
                 xlink:href="#DejaVuSans-35"
                 id="use604" />
            </g>
          </g>
        </g>
        <g
           id="ytick_7">
          <g
             id="line2d_31">
            <path
               clip-path="url(#pa20f96d721)"
               d="M 90 234.654545  L 648 234.654545  "
               style="fill:none;stroke:#b0b0b0;stroke-linecap:square;stroke-width:0.8;"
               id="path608" />
          </g>
          <g
             id="line2d_32">
            <g
               id="g611">
              <use
                 style="stroke:#000000;stroke-width:0.8;"
                 x="90"
                 xlink:href="#m6af5daa92c"
                 y="234.654545"
                 id="use613" />
            </g>
          </g>
          <g
             id="text_17">
            <!-- 0.50 -->
            <g
               transform="translate(51.828125 239.973452)scale(0.14 -0.14)"
               id="g616">
              <use
                 xlink:href="#DejaVuSans-30"
                 id="use618" />
              <use
                 x="63.623047"
                 xlink:href="#DejaVuSans-2e"
                 id="use620" />
              <use
                 x="95.410156"
                 xlink:href="#DejaVuSans-35"
                 id="use622" />
              <use
                 x="159.033203"
                 xlink:href="#DejaVuSans-30"
                 id="use624" />
            </g>
          </g>
        </g>
        <g
           id="ytick_8">
          <g
             id="line2d_33">
            <path
               clip-path="url(#pa20f96d721)"
               d="M 90 172.881818  L 648 172.881818  "
               style="fill:none;stroke:#b0b0b0;stroke-linecap:square;stroke-width:0.8;"
               id="path628" />
          </g>
          <g
             id="line2d_34">
            <g
               id="g631">
              <use
                 style="stroke:#000000;stroke-width:0.8;"
                 x="90"
                 xlink:href="#m6af5daa92c"
                 y="172.881818"
                 id="use633" />
            </g>
          </g>
          <g
             id="text_18">
            <!-- 0.75 -->
            <g
               transform="translate(51.828125 178.200724)scale(0.14 -0.14)"
               id="g636">
              <use
                 xlink:href="#DejaVuSans-30"
                 id="use638" />
              <use
                 x="63.623047"
                 xlink:href="#DejaVuSans-2e"
                 id="use640" />
              <use
                 x="95.410156"
                 xlink:href="#DejaVuSans-37"
                 id="use642" />
              <use
                 x="159.033203"
                 xlink:href="#DejaVuSans-35"
                 id="use644" />
            </g>
          </g>
        </g>
        <g
           id="ytick_9">
          <g
             id="line2d_35">
            <path
               clip-path="url(#pa20f96d721)"
               d="M 90 111.109091  L 648 111.109091  "
               style="fill:none;stroke:#b0b0b0;stroke-linecap:square;stroke-width:0.8;"
               id="path648" />
          </g>
          <g
             id="line2d_36">
            <g
               id="g651">
              <use
                 style="stroke:#000000;stroke-width:0.8;"
                 x="90"
                 xlink:href="#m6af5daa92c"
                 y="111.109091"
                 id="use653" />
            </g>
          </g>
          <g
             id="text_19">
            <!-- 1.00 -->
            <g
               transform="translate(51.828125 116.427997)scale(0.14 -0.14)"
               id="g656">
              <use
                 xlink:href="#DejaVuSans-31"
                 id="use658" />
              <use
                 x="63.623047"
                 xlink:href="#DejaVuSans-2e"
                 id="use660" />
              <use
                 x="95.410156"
                 xlink:href="#DejaVuSans-30"
                 id="use662" />
              <use
                 x="159.033203"
                 xlink:href="#DejaVuSans-30"
                 id="use664" />
            </g>
          </g>
        </g>
        <g
           id="text_20">
          <!-- $x_2$ -->
          <g
             transform="translate(30.897344 371.575)rotate(-90)scale(0.25 -0.25)"
             id="g667">
            <use
               transform="translate(0 0.3125)"
               xlink:href="#DejaVuSans-Oblique-78"
               id="use669" />
            <use
               transform="translate(59.179688 -16.09375)scale(0.7)"
               xlink:href="#DejaVuSans-32"
               id="use671" />
          </g>
        </g>
      </g>
      <g
         id="line2d_37">
        <path
           clip-path="url(#pa20f96d721)"
           d="M 571.909091 358.2  L 571.801964 364.722017  L 571.474006 371.236933  L 570.925574 377.737652  L 570.157265 384.217097  L 569.169916 390.668212  L 567.964601 397.083972  L 566.542633 403.457391  L 564.905561 409.78153  L 563.055167 416.049501  L 560.993467 422.25448  L 558.722704 428.38971  L 556.245352 434.44851  L 553.564108 440.424283  L 550.681892 446.310522  L 547.601843 452.100817  L 544.327314 457.788864  L 540.861871 463.368468  L 537.209287 468.833554  L 533.373539 474.178171  L 529.358806 479.3965  L 525.169457 484.482857  L 520.810055 489.431705  L 516.285347 494.237654  L 511.60026 498.895472  L 506.759895 503.400086  L 501.769523 507.746592  L 496.634579 511.930256  L 491.360653 515.946523  L 485.953488 519.79102  L 480.418972 523.45956  L 474.763133 526.948149  L 468.992127 530.252988  L 463.11224 533.370478  L 457.129874 536.297225  L 451.051544 539.030041  L 444.883867 541.565951  L 438.63356 543.902194  L 432.30743 546.036226  L 425.912363 547.965722  L 419.455325 549.688582  L 412.74523 551.245547  L 405.984571 552.579372  L 399.181162 553.688517  L 392.342866 554.571698  L 385.477589 555.227895  L 378.593265 555.656351  L 371.697853 555.856568  L 364.799323 555.828317  L 357.905648 555.571629  L 351.024796 555.086802  L 344.164722 554.374395  L 337.333355 553.435233  L 330.538591 552.2704  L 323.788284 550.881244  L 317.090237 549.26937  L 310.452192 547.43664  L 303.881821 545.385174  L 297.576608 543.187108  L 291.349167 540.78761  L 285.20628 538.189291  L 279.154637 535.394982  L 273.200826 532.407725  L 267.351331 529.230774  L 261.612521 525.867586  L 255.990646 522.321825  L 250.491827 518.597352  L 245.122051 514.698221  L 239.887167 510.62868  L 234.792873 506.393159  L 229.844718 501.99627  L 225.048089 497.442801  L 220.40821 492.73771  L 215.930132 487.886121  L 211.618733 482.893317  L 207.478706 477.764734  L 203.514559 472.505957  L 199.73061 467.122712  L 196.130979 461.620861  L 192.719585 456.006395  L 189.500143 450.285427  L 186.476159 444.464188  L 183.650925 438.549015  L 181.027518 432.54635  L 178.608794 426.462729  L 176.397387 420.304777  L 174.395706 414.079199  L 172.60593 407.792774  L 171.030007 401.452347  L 169.669655 395.064823  L 168.526353 388.637156  L 167.601347 382.176347  L 166.895645 375.68943  L 166.410014 369.183468  L 166.144983 362.665546  L 166.100842 356.142762  L 166.277638 349.622218  L 166.675179 343.111015  L 167.293031 336.616242  L 168.130522 330.144971  L 169.186741 323.70425  L 170.460536 317.301091  L 171.950521 310.942467  L 173.655074 304.635302  L 175.572337 298.386463  L 177.700225 292.202755  L 180.036419 286.090912  L 182.578376 280.057589  L 185.323327 274.109355  L 188.268285 268.252687  L 191.410041 262.493963  L 194.745175 256.839454  L 198.270055 251.295316  L 201.980844 245.867587  L 205.8735 240.562177  L 209.943784 235.384862  L 214.187266 230.341282  L 218.599322 225.436926  L 223.175151 220.677137  L 227.909768 216.067096  L 232.798018 211.611825  L 237.83458 207.316173  L 243.013967 203.184819  L 248.33054 199.222261  L 253.778511 195.432814  L 259.351947 191.820604  L 265.044778 188.389565  L 270.850807 185.143434  L 276.76371 182.085743  L 282.777049 179.219824  L 288.884277 176.548796  L 295.078743 174.075569  L 301.353701 171.802834  L 307.70232 169.733068  L 314.117686 167.868524  L 320.789888 166.164266  L 327.517816 164.68198  L 334.293692 163.42338  L 341.109685 162.389919  L 347.957916 161.582793  L 354.83047 161.002935  L 361.719401 160.651014  L 368.616749 160.527439  L 375.514539 160.63235  L 382.404799 160.965628  L 389.279565 161.526887  L 396.13089 162.315478  L 402.950854 163.33049  L 409.731576 164.57075  L 416.465216 166.034823  L 423.143991 167.721018  L 429.760182 169.627385  L 436.114687 171.686152  L 442.39611 173.948014  L 448.597612 176.410508  L 454.71244 179.070954  L 460.733936 181.926453  L 466.655542 184.973896  L 472.470811 188.209966  L 478.173411 191.631138  L 483.757132 195.233687  L 489.215893 199.01369  L 494.543752 202.967032  L 499.734905 207.089407  L 504.783701 211.376326  L 509.684643 215.823122  L 514.432392 220.424952  L 519.02178 225.176806  L 523.447809 230.073509  L 527.705659 235.109729  L 531.790695 240.279982  L 535.698468 245.578638  L 539.424723 250.999928  L 542.965401 256.537948  L 546.316649 262.186668  L 549.474817 267.939937  L 552.436465 273.791491  L 555.198369 279.734956  L 557.757521 285.763863  L 560.111135 291.871645  L 562.256648 298.051653  L 564.191724 304.297156  L 565.914255 310.601354  L 567.422365 316.957382  L 568.714414 323.358319  L 569.788993 329.797196  L 570.644933 336.267  L 571.281301 342.760687  L 571.697405 349.271186  L 571.892791 355.791408  L 571.867248 362.314252  L 571.620802 368.832617  L 571.153721 375.339403  L 570.466516 381.827527  L 569.559933 388.289922  L 568.43496 394.719552  L 567.223772 400.530346  L 567.223772 400.530346  "
           style="fill:none;stroke:#ff0000;stroke-linecap:square;"
           id="path674" />
      </g>
      <g
         id="patch_3">
        <path
           d="M 90 630  L 90 86.4  "
           style="fill:none;stroke:#000000;stroke-linecap:square;stroke-linejoin:miter;stroke-width:0.8;"
           id="path677" />
      </g>
      <g
         id="patch_4">
        <path
           d="M 648 630  L 648 86.4  "
           style="fill:none;stroke:#000000;stroke-linecap:square;stroke-linejoin:miter;stroke-width:0.8;"
           id="path680" />
      </g>
      <g
         id="patch_5">
        <path
           d="M 90 630  L 648 630  "
           style="fill:none;stroke:#000000;stroke-linecap:square;stroke-linejoin:miter;stroke-width:0.8;"
           id="path683" />
      </g>
      <g
         id="patch_6">
        <path
           d="M 90 86.4  L 648 86.4  "
           style="fill:none;stroke:#000000;stroke-linecap:square;stroke-linejoin:miter;stroke-width:0.8;"
           id="path686" />
      </g>
    </g>
  </g>
  <defs
     id="defs688">
    <clipPath
       id="pa20f96d721">
      <rect
         height="543.6"
         width="558"
         x="90"
         y="86.4"
         id="rect691" />
    </clipPath>
  </defs>
</svg>
