<?xml version="1.0" encoding="utf-8" standalone="no"?>
<!DOCTYPE svg PUBLIC "-//W3C//DTD SVG 1.1//EN"
  "http://www.w3.org/Graphics/SVG/1.1/DTD/svg11.dtd">
<!-- Created with matplotlib (http://matplotlib.org/) -->
<svg height="720pt" version="1.1" viewBox="0 0 720 720" width="720pt" xmlns="http://www.w3.org/2000/svg" xmlns:xlink="http://www.w3.org/1999/xlink">
 <defs>
  <style type="text/css">
*{stroke-linecap:butt;stroke-linejoin:round;}
  </style>
 </defs>
 <g id="figure_1">
  <g id="patch_1">
   <path d="M 0 720 
L 720 720 
L 720 0 
L 0 0 
z
" style="fill:#ffffff;"/>
  </g>
  <g id="axes_1">
   <g id="patch_2">
    <path d="M 90 630 
L 648 630 
L 648 86.4 
L 90 86.4 
z
" style="fill:#ffffff;"/>
   </g>
   <g id="Quiver_1">
    <path clip-path="url(#p0090ec53e7)" d="M 164.760601 606.029969 
L 142.639566 566.212107 
L 140.71801 569.020536 
L 137.318333 553.500271 
L 148.69986 564.586175 
L 145.300183 564.733987 
L 167.421218 604.551849 
L 164.760601 606.029969 
"/>
    <path clip-path="url(#p0090ec53e7)" d="M 164.729754 556.553305 
L 147.836892 522.767583 
L 145.795159 525.489894 
L 143.072848 509.836605 
L 153.962092 521.406427 
L 150.559203 521.406427 
L 167.452065 555.192149 
L 164.729754 556.553305 
"/>
    <path clip-path="url(#p0090ec53e7)" d="M 164.692137 507.054019 
L 152.823853 479.361356 
L 150.625784 481.959075 
L 148.827363 466.172938 
L 159.018414 478.362234 
L 155.621397 478.162409 
L 167.489681 505.855072 
L 164.692137 507.054019 
"/>
    <path clip-path="url(#p0090ec53e7)" d="M 164.647186 457.517605 
L 157.469325 435.984024 
L 155.06312 438.39023 
L 154.581878 422.509272 
L 163.725461 435.502783 
L 160.356772 435.021542 
L 167.534633 456.555122 
L 164.647186 457.517605 
"/>
    <path clip-path="url(#p0090ec53e7)" d="M 164.598644 407.916635 
L 161.530206 392.574448 
L 158.844128 394.66362 
L 160.336394 378.845605 
L 167.797721 392.872901 
L 164.514737 391.977542 
L 167.583175 407.319729 
L 164.598644 407.916635 
"/>
    <path clip-path="url(#p0090ec53e7)" d="M 164.569091 358.2 
L 164.569091 348.878302 
L 161.525455 350.400121 
L 166.090909 335.181939 
L 170.656364 350.400121 
L 167.612727 348.878302 
L 167.612727 358.2 
L 164.569091 358.2 
"/>
    <path clip-path="url(#p0090ec53e7)" d="M 164.647186 308.300577 
L 166.07053 304.030543 
L 162.701842 304.511784 
L 171.845424 291.518272 
L 171.364183 307.399231 
L 168.957977 304.993025 
L 167.534633 309.263059 
L 164.647186 308.300577 
"/>
    <path clip-path="url(#p0090ec53e7)" d="M 165.014821 258.287548 
L 166.83906 256.463309 
L 163.610796 255.387221 
L 177.59994 247.854606 
L 170.067324 261.843749 
L 168.991236 258.615485 
L 167.166997 260.439724 
L 165.014821 258.287548 
"/>
    <path clip-path="url(#p0090ec53e7)" d="M 165.609668 208.501731 
L 169.879702 207.078386 
L 167.473497 204.67218 
L 183.354455 204.190939 
L 170.360944 213.334521 
L 170.842185 209.965833 
L 166.57215 211.389178 
L 165.609668 208.501731 
"/>
    <path clip-path="url(#p0090ec53e7)" d="M 166.090909 159.005455 
L 175.412607 159.005455 
L 173.890789 155.961818 
L 189.10897 160.527273 
L 173.890789 165.092727 
L 175.412607 162.049091 
L 166.090909 162.049091 
L 166.090909 159.005455 
"/>
    <path clip-path="url(#p0090ec53e7)" d="M 166.389362 109.616825 
L 181.731549 112.685263 
L 180.83619 109.402279 
L 194.863486 116.863606 
L 179.045471 118.355872 
L 181.134643 115.669794 
L 165.792456 112.601356 
L 166.389362 109.616825 
"/>
    <path clip-path="url(#p0090ec53e7)" d="M 215.527683 606.097471 
L 194.014164 571.675842 
L 192.239728 574.579465 
L 188.045605 559.254787 
L 199.982723 569.740093 
L 196.595163 570.062718 
L 218.108681 604.484347 
L 215.527683 606.097471 
"/>
    <path clip-path="url(#p0090ec53e7)" d="M 215.496874 556.627761 
L 199.274112 528.237927 
L 197.386529 531.069302 
L 193.800121 515.59112 
L 205.314378 526.539102 
L 201.916728 526.727861 
L 218.13949 555.117694 
L 215.496874 556.627761 
"/>
    <path clip-path="url(#p0090ec53e7)" d="M 215.457026 507.135123 
L 204.31868 484.858431 
L 202.276947 487.580743 
L 199.554636 471.927454 
L 210.44388 483.497276 
L 207.040991 483.497276 
L 218.179337 505.773968 
L 215.457026 507.135123 
"/>
    <path clip-path="url(#p0090ec53e7)" d="M 215.405209 457.601553 
L 208.98288 441.545731 
L 206.722124 444.089081 
L 205.309151 428.263787 
L 215.19996 440.697947 
L 211.808826 440.415352 
L 218.231155 456.471175 
L 215.405209 457.601553 
"/>
    <path clip-path="url(#p0090ec53e7)" d="M 215.341801 407.987277 
L 212.909142 398.25664 
L 210.325476 400.471211 
L 211.063667 384.600121 
L 219.183759 398.25664 
L 215.861903 397.51845 
L 218.294562 407.249087 
L 215.341801 407.987277 
"/>
    <path clip-path="url(#p0090ec53e7)" d="M 215.296364 358.2 
L 215.296364 354.632818 
L 212.252727 356.154636 
L 216.818182 340.936454 
L 221.383636 356.154636 
L 218.34 354.632818 
L 218.34 358.2 
L 215.296364 358.2 
"/>
    <path clip-path="url(#p0090ec53e7)" d="M 215.667279 308.206367 
L 216.24273 307.055464 
L 213.365473 307.055464 
L 222.572697 297.272788 
L 220.270891 310.508173 
L 218.544536 308.206367 
L 217.969085 309.35727 
L 215.667279 308.206367 
"/>
    <path clip-path="url(#p0090ec53e7)" d="M 216.24273 258.212733 
L 217.393633 257.637282 
L 215.091827 255.910927 
L 228.327212 253.609121 
L 218.544536 262.816346 
L 218.544536 259.939088 
L 217.393633 260.514539 
L 216.24273 258.212733 
"/>
    <path clip-path="url(#p0090ec53e7)" d="M 216.818182 208.423636 
L 220.385364 208.423636 
L 218.863546 205.38 
L 234.081728 209.945455 
L 218.863546 214.510909 
L 220.385364 211.467273 
L 216.818182 211.467273 
L 216.818182 208.423636 
"/>
    <path clip-path="url(#p0090ec53e7)" d="M 217.187277 159.050892 
L 226.917914 161.483551 
L 226.179723 158.161695 
L 239.836243 166.281788 
L 223.965153 167.019978 
L 226.179723 164.436312 
L 216.449087 162.003653 
L 217.187277 159.050892 
"/>
    <path clip-path="url(#p0090ec53e7)" d="M 217.383371 109.696118 
L 233.439193 116.118447 
L 233.156599 112.727313 
L 245.590758 122.618122 
L 229.765464 121.205149 
L 232.308815 118.944392 
L 216.252993 112.522064 
L 217.383371 109.696118 
"/>
    <path clip-path="url(#p0090ec53e7)" d="M 266.3071 606.175448 
L 245.495373 577.03903 
L 243.903203 580.046462 
L 238.772878 565.009302 
L 251.33333 574.739229 
L 247.972082 575.269953 
L 268.783809 604.40637 
L 266.3071 606.175448 
"/>
    <path clip-path="url(#p0090ec53e7)" d="M 266.279225 556.71688 
L 250.85854 533.585852 
L 249.170234 536.540387 
L 244.527393 521.345635 
L 256.76761 531.47547 
L 253.390998 531.897546 
L 268.811684 555.028574 
L 266.279225 556.71688 
"/>
    <path clip-path="url(#p0090ec53e7)" d="M 266.240506 507.237514 
L 256.023681 490.209473 
L 254.196754 493.080359 
L 250.281909 477.681969 
L 262.026444 488.382545 
L 258.633578 488.643535 
L 268.850403 505.671576 
L 266.240506 507.237514 
"/>
    <path clip-path="url(#p0090ec53e7)" d="M 266.184299 457.716941 
L 260.800468 446.94928 
L 258.758735 449.671591 
L 256.036424 434.018302 
L 266.925668 445.588125 
L 263.52278 445.588125 
L 268.90661 456.355786 
L 266.184299 457.716941 
"/>
    <path clip-path="url(#p0090ec53e7)" d="M 266.101731 408.099423 
L 264.678386 403.829388 
L 262.27218 406.235594 
L 261.790939 390.354636 
L 270.934521 403.348147 
L 267.565833 402.866906 
L 268.989178 407.136941 
L 266.101731 408.099423 
"/>
    <path clip-path="url(#p0090ec53e7)" d="M 266.394551 358.2 
L 266.394551 357.049097 
L 264.092745 358.2 
L 267.545455 346.690969 
L 270.998164 358.2 
L 268.696358 357.049097 
L 268.696358 358.2 
L 266.394551 358.2 
"/>
    <path clip-path="url(#p0090ec53e7)" d="M 266.970003 308.206367 
L 267.545455 307.630915 
L 265.8191 307.055464 
L 273.29997 303.027303 
L 269.271809 310.508173 
L 268.696358 308.781818 
L 268.120906 309.35727 
L 266.970003 308.206367 
"/>
    <path clip-path="url(#p0090ec53e7)" d="M 267.545455 258.212733 
L 268.696358 258.212733 
L 267.545455 255.910927 
L 279.054485 259.363636 
L 267.545455 262.816346 
L 268.696358 260.514539 
L 267.545455 260.514539 
L 267.545455 258.212733 
"/>
    <path clip-path="url(#p0090ec53e7)" d="M 268.026696 208.501731 
L 272.29673 209.925076 
L 271.815489 206.556388 
L 284.809 215.69997 
L 268.928042 215.218729 
L 271.334248 212.812523 
L 267.064213 211.389178 
L 268.026696 208.501731 
"/>
    <path clip-path="url(#p0090ec53e7)" d="M 268.226032 159.166117 
L 278.993694 164.549948 
L 278.993694 161.147059 
L 290.563516 172.036303 
L 274.910227 169.313992 
L 277.632538 167.272259 
L 266.864877 161.888428 
L 268.226032 159.166117 
"/>
    <path clip-path="url(#p0090ec53e7)" d="M 268.328424 109.804143 
L 285.356465 120.020968 
L 285.617455 116.628102 
L 296.318031 128.372637 
L 280.919641 124.457792 
L 283.790527 122.630864 
L 266.762486 112.414039 
L 268.328424 109.804143 
"/>
    <path clip-path="url(#p0090ec53e7)" d="M 317.103634 606.265153 
L 297.099256 582.259899 
L 295.735314 585.377481 
L 289.500151 570.763817 
L 302.749873 579.532016 
L 299.437442 580.311411 
L 319.44182 604.316665 
L 317.103634 606.265153 
"/>
    <path clip-path="url(#p0090ec53e7)" d="M 317.084387 556.8234 
L 302.622376 538.745886 
L 301.196368 541.835571 
L 295.254666 527.100151 
L 308.32641 536.131537 
L 304.999057 536.844542 
L 319.461068 554.922055 
L 317.084387 556.8234 
"/>
    <path clip-path="url(#p0090ec53e7)" d="M 317.055273 507.367636 
L 308.009545 495.306666 
L 306.487727 498.350302 
L 301.009181 483.436484 
L 313.792454 492.871757 
L 310.444454 493.480484 
L 319.490182 505.541455 
L 317.055273 507.367636 
"/>
    <path clip-path="url(#p0090ec53e7)" d="M 317.006498 457.880516 
L 313.094843 452.013034 
L 311.406537 454.967569 
L 306.763697 439.772818 
L 319.003913 449.902652 
L 315.627302 450.324728 
L 319.538957 456.192211 
L 317.006498 457.880516 
"/>
    <path clip-path="url(#p0090ec53e7)" d="M 317.121824 408.193633 
L 316.546373 407.04273 
L 314.820018 409.344536 
L 312.518212 396.109151 
L 321.725436 405.891827 
L 318.848179 405.891827 
L 319.42363 407.04273 
L 317.121824 408.193633 
"/>
    <path clip-path="url(#p0090ec53e7)" d="M 317.697276 358.2 
L 317.697276 357.624548 
L 316.546373 358.2 
L 318.272727 352.445485 
L 319.999082 358.2 
L 318.848179 357.624548 
L 318.848179 358.2 
L 317.697276 358.2 
"/>
    <path clip-path="url(#p0090ec53e7)" d="M 318.272727 308.206367 
L 318.848179 308.206367 
L 318.272727 307.055464 
L 324.027243 308.781818 
L 318.272727 310.508173 
L 318.848179 309.35727 
L 318.272727 309.35727 
L 318.272727 308.206367 
"/>
    <path clip-path="url(#p0090ec53e7)" d="M 318.848179 258.212733 
L 319.999082 258.788185 
L 319.999082 255.910927 
L 329.781758 265.118152 
L 316.546373 262.816346 
L 318.848179 261.089991 
L 317.697276 260.514539 
L 318.848179 258.212733 
"/>
    <path clip-path="url(#p0090ec53e7)" d="M 319.11688 208.679225 
L 324.984363 212.59088 
L 325.406439 209.214269 
L 335.536273 221.454485 
L 320.341522 216.811645 
L 323.296057 215.123339 
L 317.428574 211.211684 
L 319.11688 208.679225 
"/>
    <path clip-path="url(#p0090ec53e7)" d="M 319.185818 159.309818 
L 331.246789 168.355546 
L 331.855516 165.007546 
L 341.290789 177.790819 
L 326.37697 172.312273 
L 329.420607 170.790455 
L 317.359636 161.744727 
L 319.185818 159.309818 
"/>
    <path clip-path="url(#p0090ec53e7)" d="M 319.2234 109.920751 
L 337.300913 124.382761 
L 338.013917 121.055408 
L 347.045304 134.127152 
L 332.309883 128.18545 
L 335.399568 126.759442 
L 317.322055 112.297431 
L 319.2234 109.920751 
"/>
    <path clip-path="url(#p0090ec53e7)" d="M 367.923912 606.366997 
L 348.836127 587.279212 
L 347.760039 590.507476 
L 340.227423 576.518333 
L 354.216567 584.050948 
L 350.988303 585.127036 
L 370.076088 604.214821 
L 367.923912 606.366997 
"/>
    <path clip-path="url(#p0090ec53e7)" d="M 367.923912 556.948815 
L 354.590642 543.615546 
L 353.514554 546.843809 
L 345.981939 532.854666 
L 359.971082 540.387282 
L 356.742818 541.46337 
L 370.076088 554.796639 
L 367.923912 556.948815 
"/>
    <path clip-path="url(#p0090ec53e7)" d="M 367.923912 507.530633 
L 360.345158 499.951879 
L 359.26907 503.180143 
L 351.736454 489.191 
L 365.725597 496.723615 
L 362.497334 497.799703 
L 370.076088 505.378457 
L 367.923912 507.530633 
"/>
    <path clip-path="url(#p0090ec53e7)" d="M 367.923912 458.112452 
L 366.099673 456.288213 
L 365.023585 459.516476 
L 357.490969 445.527333 
L 371.480113 453.059949 
L 368.251849 454.136037 
L 370.076088 455.960276 
L 367.923912 458.112452 
"/>
    <path clip-path="url(#p0090ec53e7)" d="M 368.424548 408.193633 
L 367.849097 407.618182 
L 367.273645 409.344536 
L 363.245485 401.863667 
L 370.726355 405.891827 
L 369 406.467279 
L 369.575452 407.04273 
L 368.424548 408.193633 
"/>
    <path clip-path="url(#p0090ec53e7)" d="M 370.521818 358.2 
L 369.760909 356.882067 
L 368.239091 356.882067 
L 367.478182 358.2 
L 368.239091 359.517933 
L 369.760909 359.517933 
L 370.521818 358.2 
L 369.760909 356.882067 
"/>
    <path clip-path="url(#p0090ec53e7)" d="M 369.575452 308.206367 
L 370.150903 308.781818 
L 370.726355 307.055464 
L 374.754515 314.536333 
L 367.273645 310.508173 
L 369 309.932721 
L 368.424548 309.35727 
L 369.575452 308.206367 
"/>
    <path clip-path="url(#p0090ec53e7)" d="M 370.076088 258.287548 
L 371.900327 260.111787 
L 372.976415 256.883524 
L 380.509031 270.872667 
L 366.519887 263.340051 
L 369.748151 262.263963 
L 367.923912 260.439724 
L 370.076088 258.287548 
"/>
    <path clip-path="url(#p0090ec53e7)" d="M 370.076088 208.869367 
L 377.654842 216.448121 
L 378.73093 213.219857 
L 386.263546 227.209 
L 372.274403 219.676385 
L 375.502666 218.600297 
L 367.923912 211.021543 
L 370.076088 208.869367 
"/>
    <path clip-path="url(#p0090ec53e7)" d="M 370.076088 159.451185 
L 383.409358 172.784454 
L 384.485446 169.556191 
L 392.018061 183.545334 
L 378.028918 176.012718 
L 381.257182 174.93663 
L 367.923912 161.603361 
L 370.076088 159.451185 
"/>
    <path clip-path="url(#p0090ec53e7)" d="M 370.076088 110.033003 
L 389.163873 129.120788 
L 390.239961 125.892524 
L 397.772577 139.881667 
L 383.783433 132.349052 
L 387.011697 131.272964 
L 367.923912 112.185179 
L 370.076088 110.033003 
"/>
    <path clip-path="url(#p0090ec53e7)" d="M 418.7766 606.479249 
L 400.699087 592.017239 
L 399.986083 595.344592 
L 390.954696 582.272848 
L 405.690117 588.21455 
L 402.600432 589.640558 
L 420.677945 604.102569 
L 418.7766 606.479249 
"/>
    <path clip-path="url(#p0090ec53e7)" d="M 418.814182 557.090182 
L 406.753211 548.044454 
L 406.144484 551.392454 
L 396.709211 538.609181 
L 411.62303 544.087727 
L 408.579393 545.609545 
L 420.640364 554.655273 
L 418.814182 557.090182 
"/>
    <path clip-path="url(#p0090ec53e7)" d="M 418.88312 507.720775 
L 413.015637 503.80912 
L 412.593561 507.185731 
L 402.463727 494.945515 
L 417.658478 499.588355 
L 414.703943 501.276661 
L 420.571426 505.188316 
L 418.88312 507.720775 
"/>
    <path clip-path="url(#p0090ec53e7)" d="M 419.151821 458.187267 
L 418.000918 457.611815 
L 418.000918 460.489073 
L 408.218242 451.281848 
L 421.453627 453.583654 
L 419.151821 455.310009 
L 420.302724 455.885461 
L 419.151821 458.187267 
"/>
    <path clip-path="url(#p0090ec53e7)" d="M 419.727273 408.193633 
L 419.151821 408.193633 
L 419.727273 409.344536 
L 413.972757 407.618182 
L 419.727273 405.891827 
L 419.151821 407.04273 
L 419.727273 407.04273 
L 419.727273 408.193633 
"/>
    <path clip-path="url(#p0090ec53e7)" d="M 420.302724 358.2 
L 420.302724 358.775452 
L 421.453627 358.2 
L 419.727273 363.954515 
L 418.000918 358.2 
L 419.151821 358.775452 
L 419.151821 358.2 
L 420.302724 358.2 
"/>
    <path clip-path="url(#p0090ec53e7)" d="M 420.878176 308.206367 
L 421.453627 309.35727 
L 423.179982 307.055464 
L 425.481788 320.290849 
L 416.274564 310.508173 
L 419.151821 310.508173 
L 418.57637 309.35727 
L 420.878176 308.206367 
"/>
    <path clip-path="url(#p0090ec53e7)" d="M 420.993502 258.519484 
L 424.905157 264.386966 
L 426.593463 261.432431 
L 431.236303 276.627182 
L 418.996087 266.497348 
L 422.372698 266.075272 
L 418.461043 260.207789 
L 420.993502 258.519484 
"/>
    <path clip-path="url(#p0090ec53e7)" d="M 420.944727 209.032364 
L 429.990455 221.093334 
L 431.512273 218.049698 
L 436.990819 232.963516 
L 424.207546 223.528243 
L 427.555546 222.919516 
L 418.509818 210.858545 
L 420.944727 209.032364 
"/>
    <path clip-path="url(#p0090ec53e7)" d="M 420.915613 159.5766 
L 435.377624 177.654114 
L 436.803632 174.564429 
L 442.745334 189.299849 
L 429.67359 180.268463 
L 433.000943 179.555458 
L 418.538932 161.477945 
L 420.915613 159.5766 
"/>
    <path clip-path="url(#p0090ec53e7)" d="M 420.896366 110.134847 
L 440.900744 134.140101 
L 442.264686 131.022519 
L 448.499849 145.636183 
L 435.250127 136.867984 
L 438.562558 136.088589 
L 418.55818 112.083335 
L 420.896366 110.134847 
"/>
    <path clip-path="url(#p0090ec53e7)" d="M 469.671576 606.595857 
L 452.643535 596.379032 
L 452.382545 599.771898 
L 441.681969 588.027363 
L 457.080359 591.942208 
L 454.209473 593.769136 
L 471.237514 603.985961 
L 469.671576 606.595857 
"/>
    <path clip-path="url(#p0090ec53e7)" d="M 469.773968 557.233883 
L 459.006306 551.850052 
L 459.006306 555.252941 
L 447.436484 544.363697 
L 463.089773 547.086008 
L 460.367462 549.127741 
L 471.135123 554.511572 
L 469.773968 557.233883 
"/>
    <path clip-path="url(#p0090ec53e7)" d="M 469.973304 507.898269 
L 465.70327 506.474924 
L 466.184511 509.843612 
L 453.191 500.70003 
L 469.071958 501.181271 
L 466.665752 503.587477 
L 470.935787 505.010822 
L 469.973304 507.898269 
"/>
    <path clip-path="url(#p0090ec53e7)" d="M 470.454545 458.187267 
L 469.303642 458.187267 
L 470.454545 460.489073 
L 458.945515 457.036364 
L 470.454545 453.583654 
L 469.303642 455.885461 
L 470.454545 455.885461 
L 470.454545 458.187267 
"/>
    <path clip-path="url(#p0090ec53e7)" d="M 471.029997 408.193633 
L 470.454545 408.769085 
L 472.1809 409.344536 
L 464.70003 413.372697 
L 468.728191 405.891827 
L 469.303642 407.618182 
L 469.879094 407.04273 
L 471.029997 408.193633 
"/>
    <path clip-path="url(#p0090ec53e7)" d="M 471.605449 358.2 
L 471.605449 359.350903 
L 473.907255 358.2 
L 470.454545 369.709031 
L 467.001836 358.2 
L 469.303642 359.350903 
L 469.303642 358.2 
L 471.605449 358.2 
"/>
    <path clip-path="url(#p0090ec53e7)" d="M 471.898269 308.300577 
L 473.321614 312.570612 
L 475.72782 310.164406 
L 476.209061 326.045364 
L 467.065479 313.051853 
L 470.434167 313.533094 
L 469.010822 309.263059 
L 471.898269 308.300577 
"/>
    <path clip-path="url(#p0090ec53e7)" d="M 471.815701 258.683059 
L 477.199532 269.45072 
L 479.241265 266.728409 
L 481.963576 282.381698 
L 471.074332 270.811875 
L 474.47722 270.811875 
L 469.09339 260.044214 
L 471.815701 258.683059 
"/>
    <path clip-path="url(#p0090ec53e7)" d="M 471.759494 209.162486 
L 481.976319 226.190527 
L 483.803246 223.319641 
L 487.718091 238.718031 
L 475.973556 228.017455 
L 479.366422 227.756465 
L 469.149597 210.728424 
L 471.759494 209.162486 
"/>
    <path clip-path="url(#p0090ec53e7)" d="M 471.720775 159.68312 
L 487.14146 182.814148 
L 488.829766 179.859613 
L 493.472607 195.054365 
L 481.23239 184.92453 
L 484.609002 184.502454 
L 469.188316 161.371426 
L 471.720775 159.68312 
"/>
    <path clip-path="url(#p0090ec53e7)" d="M 471.6929 110.224552 
L 492.504627 139.36097 
L 494.096797 136.353538 
L 499.227122 151.390698 
L 486.66667 141.660771 
L 490.027918 141.130047 
L 469.216191 111.99363 
L 471.6929 110.224552 
"/>
    <path clip-path="url(#p0090ec53e7)" d="M 520.616629 606.703882 
L 504.560807 600.281553 
L 504.843401 603.672687 
L 492.409242 593.781878 
L 508.234536 595.194851 
L 505.691185 597.455608 
L 521.747007 603.877936 
L 520.616629 606.703882 
"/>
    <path clip-path="url(#p0090ec53e7)" d="M 520.812723 557.349108 
L 511.082086 554.916449 
L 511.820277 558.238305 
L 498.163757 550.118212 
L 514.034847 549.380022 
L 511.820277 551.963688 
L 521.550913 554.396347 
L 520.812723 557.349108 
"/>
    <path clip-path="url(#p0090ec53e7)" d="M 521.181818 507.976364 
L 517.614636 507.976364 
L 519.136454 511.02 
L 503.918272 506.454545 
L 519.136454 501.889091 
L 517.614636 504.932727 
L 521.181818 504.932727 
L 521.181818 507.976364 
"/>
    <path clip-path="url(#p0090ec53e7)" d="M 521.75727 458.187267 
L 520.606367 458.762718 
L 522.908173 460.489073 
L 509.672788 462.790879 
L 519.455464 453.583654 
L 519.455464 456.460912 
L 520.606367 455.885461 
L 521.75727 458.187267 
"/>
    <path clip-path="url(#p0090ec53e7)" d="M 522.332721 408.193633 
L 521.75727 409.344536 
L 524.634527 409.344536 
L 515.427303 419.127212 
L 517.729109 405.891827 
L 519.455464 408.193633 
L 520.030915 407.04273 
L 522.332721 408.193633 
"/>
    <path clip-path="url(#p0090ec53e7)" d="M 522.703636 358.2 
L 522.703636 361.767182 
L 525.747273 360.245364 
L 521.181818 375.463546 
L 516.616364 360.245364 
L 519.66 361.767182 
L 519.66 358.2 
L 522.703636 358.2 
"/>
    <path clip-path="url(#p0090ec53e7)" d="M 522.658199 308.412723 
L 525.090858 318.14336 
L 527.674524 315.928789 
L 526.936333 331.799879 
L 518.816241 318.14336 
L 522.138097 318.88155 
L 519.705438 309.150913 
L 522.658199 308.412723 
"/>
    <path clip-path="url(#p0090ec53e7)" d="M 522.594791 258.798447 
L 529.01712 274.854269 
L 531.277876 272.310919 
L 532.690849 288.136213 
L 522.80004 275.702053 
L 526.191174 275.984648 
L 519.768845 259.928825 
L 522.594791 258.798447 
"/>
    <path clip-path="url(#p0090ec53e7)" d="M 522.542974 209.264877 
L 533.68132 231.541569 
L 535.723053 228.819257 
L 538.445364 244.472546 
L 527.55612 232.902724 
L 530.959009 232.902724 
L 519.820663 210.626032 
L 522.542974 209.264877 
"/>
    <path clip-path="url(#p0090ec53e7)" d="M 522.503126 159.772239 
L 538.725888 188.162073 
L 540.613471 185.330698 
L 544.199879 200.80888 
L 532.685622 189.860898 
L 536.083272 189.672139 
L 519.86051 161.282306 
L 522.503126 159.772239 
"/>
    <path clip-path="url(#p0090ec53e7)" d="M 522.472317 110.302529 
L 543.985836 144.724158 
L 545.760272 141.820535 
L 549.954395 157.145213 
L 538.017277 146.659907 
L 541.404837 146.337282 
L 519.891319 111.915653 
L 522.472317 110.302529 
"/>
    <path clip-path="url(#p0090ec53e7)" d="M 571.610638 606.783175 
L 556.268451 603.714737 
L 557.16381 606.997721 
L 543.136514 599.536394 
L 558.954529 598.044128 
L 556.865357 600.730206 
L 572.207544 603.798644 
L 571.610638 606.783175 
"/>
    <path clip-path="url(#p0090ec53e7)" d="M 571.909091 557.394545 
L 562.587393 557.394545 
L 564.109211 560.438182 
L 548.89103 555.872727 
L 564.109211 551.307273 
L 562.587393 554.350909 
L 571.909091 554.350909 
L 571.909091 557.394545 
"/>
    <path clip-path="url(#p0090ec53e7)" d="M 572.390332 507.898269 
L 568.120298 509.321614 
L 570.526503 511.72782 
L 554.645545 512.209061 
L 567.639056 503.065479 
L 567.157815 506.434167 
L 571.42785 505.010822 
L 572.390332 507.898269 
"/>
    <path clip-path="url(#p0090ec53e7)" d="M 572.985179 458.112452 
L 571.16094 459.936691 
L 574.389204 461.012779 
L 560.40006 468.545394 
L 567.932676 454.556251 
L 569.008764 457.784515 
L 570.833003 455.960276 
L 572.985179 458.112452 
"/>
    <path clip-path="url(#p0090ec53e7)" d="M 573.352814 408.099423 
L 571.92947 412.369457 
L 575.298158 411.888216 
L 566.154576 424.881728 
L 566.635817 409.000769 
L 569.042023 411.406975 
L 570.465367 407.136941 
L 573.352814 408.099423 
"/>
    <path clip-path="url(#p0090ec53e7)" d="M 573.430909 358.2 
L 573.430909 367.521698 
L 576.474545 365.999879 
L 571.909091 381.218061 
L 567.343636 365.999879 
L 570.387273 367.521698 
L 570.387273 358.2 
L 573.430909 358.2 
"/>
    <path clip-path="url(#p0090ec53e7)" d="M 573.401356 308.483365 
L 576.469794 323.825552 
L 579.155872 321.73638 
L 577.663606 337.554395 
L 570.202279 323.527099 
L 573.485263 324.422458 
L 570.416825 309.080271 
L 573.401356 308.483365 
"/>
    <path clip-path="url(#p0090ec53e7)" d="M 573.352814 258.882395 
L 580.530675 280.415976 
L 582.93688 278.00977 
L 583.418122 293.890728 
L 574.274539 280.897217 
L 577.643228 281.378458 
L 570.465367 259.844878 
L 573.352814 258.882395 
"/>
    <path clip-path="url(#p0090ec53e7)" d="M 573.307863 209.345981 
L 585.176147 237.038644 
L 587.374216 234.440925 
L 589.172637 250.227062 
L 578.981586 238.037766 
L 582.378603 238.237591 
L 570.510319 210.544928 
L 573.307863 209.345981 
"/>
    <path clip-path="url(#p0090ec53e7)" d="M 573.270246 159.846695 
L 590.163108 193.632417 
L 592.204841 190.910106 
L 594.927152 206.563395 
L 584.037908 194.993573 
L 587.440797 194.993573 
L 570.547935 161.207851 
L 573.270246 159.846695 
"/>
    <path clip-path="url(#p0090ec53e7)" d="M 573.239399 110.370031 
L 595.360434 150.187893 
L 597.28199 147.379464 
L 600.681667 162.899729 
L 589.30014 151.813825 
L 592.699817 151.666013 
L 570.578782 111.848151 
L 573.239399 110.370031 
"/>
    <path clip-path="url(#p0090ec53e7)" d="M 622.636364 606.812727 
L 607.560151 606.812727 
L 609.081969 609.856364 
L 593.863787 605.290909 
L 609.081969 600.725455 
L 607.560151 603.769091 
L 622.636364 603.769091 
L 622.636364 606.812727 
"/>
    <path clip-path="url(#p0090ec53e7)" d="M 623.005459 557.349108 
L 613.274822 559.781767 
L 615.489393 562.365433 
L 599.618302 561.627243 
L 613.274822 553.50715 
L 612.536632 556.829006 
L 622.267269 554.396347 
L 623.005459 557.349108 
"/>
    <path clip-path="url(#p0090ec53e7)" d="M 623.480516 507.720775 
L 617.613034 511.63243 
L 620.567569 513.320735 
L 605.372818 517.963576 
L 615.502652 505.72336 
L 615.924728 509.099971 
L 621.792211 505.188316 
L 623.480516 507.720775 
"/>
    <path clip-path="url(#p0090ec53e7)" d="M 623.902593 457.880516 
L 619.990938 463.747999 
L 623.367549 464.170075 
L 611.127333 474.29991 
L 615.770174 459.105158 
L 617.458479 462.059693 
L 621.370134 456.192211 
L 623.902593 457.880516 
"/>
    <path clip-path="url(#p0090ec53e7)" d="M 624.112744 407.987277 
L 621.680085 417.717914 
L 625.001941 416.979723 
L 616.881848 430.636243 
L 616.143658 414.765153 
L 618.727324 416.979723 
L 621.159983 407.249087 
L 624.112744 407.987277 
"/>
    <path clip-path="url(#p0090ec53e7)" d="M 624.158182 358.2 
L 624.158182 373.276213 
L 627.201818 371.754395 
L 622.636364 386.972577 
L 618.070909 371.754395 
L 621.114545 373.276213 
L 621.114545 358.2 
L 624.158182 358.2 
"/>
    <path clip-path="url(#p0090ec53e7)" d="M 624.137476 308.531633 
L 627.640323 329.548715 
L 630.392362 327.547232 
L 628.390879 343.30891 
L 621.385689 329.048344 
L 624.638098 330.049086 
L 621.135251 309.032004 
L 624.137476 308.531633 
"/>
    <path clip-path="url(#p0090ec53e7)" d="M 624.099628 258.945561 
L 631.845978 286.057786 
L 634.354432 283.75837 
L 634.145394 299.645244 
L 625.574844 286.266824 
L 628.919449 286.893938 
L 621.173099 259.781712 
L 624.099628 258.945561 
"/>
    <path clip-path="url(#p0090ec53e7)" d="M 624.061286 209.411109 
L 636.515718 242.622926 
L 638.831217 240.129311 
L 639.89991 255.981577 
L 630.281681 243.335387 
L 633.665872 243.691618 
L 621.211441 210.479801 
L 624.061286 209.411109 
"/>
    <path clip-path="url(#p0090ec53e7)" d="M 624.027019 159.909204 
L 641.48246 199.183946 
L 643.645701 196.557154 
L 645.654425 212.317911 
L 635.301771 200.265567 
L 638.70115 200.420084 
L 621.245709 161.145342 
L 624.027019 159.909204 
"/>
    <path clip-path="url(#p0090ec53e7)" d="M 623.997519 110.428513 
L 646.644896 155.723266 
L 648.686629 153.000955 
L 651.40894 168.654244 
L 640.519696 157.084422 
L 643.922585 157.084422 
L 621.275208 111.789669 
L 623.997519 110.428513 
"/>
    <path clip-path="url(#p0090ec53e7)" d="M 114.002481 605.971487 
L 91.355104 560.676734 
L 89.313371 563.399045 
L 86.59106 547.745756 
L 97.480304 559.315578 
L 94.077415 559.315578 
L 116.724792 604.610331 
L 114.002481 605.971487 
"/>
    <path clip-path="url(#p0090ec53e7)" d="M 113.972981 556.490796 
L 96.51754 517.216054 
L 94.354299 519.842846 
L 92.345575 504.082089 
L 102.698229 516.134433 
L 99.29885 515.979916 
L 116.754291 555.254658 
L 113.972981 556.490796 
"/>
    <path clip-path="url(#p0090ec53e7)" d="M 113.938714 506.988891 
L 101.484282 473.777074 
L 99.168783 476.270689 
L 98.10009 460.418423 
L 107.718319 473.064613 
L 104.334128 472.708382 
L 116.788559 505.920199 
L 113.938714 506.988891 
"/>
    <path clip-path="url(#p0090ec53e7)" d="M 113.900372 457.454439 
L 106.154022 430.342214 
L 103.645568 432.64163 
L 103.854606 416.754756 
L 112.425156 430.133176 
L 109.080551 429.506062 
L 116.826901 456.618288 
L 113.900372 457.454439 
"/>
    <path clip-path="url(#p0090ec53e7)" d="M 113.862524 407.868367 
L 110.359677 386.851285 
L 107.607638 388.852768 
L 109.609121 373.09109 
L 116.614311 387.351656 
L 113.361902 386.350914 
L 116.864749 407.367996 
L 113.862524 407.868367 
"/>
    <path clip-path="url(#p0090ec53e7)" d="M 113.841818 358.2 
L 113.841818 343.123787 
L 110.798182 344.645605 
L 115.363636 329.427423 
L 119.929091 344.645605 
L 116.885455 343.123787 
L 116.885455 358.2 
L 113.841818 358.2 
"/>
    <path clip-path="url(#p0090ec53e7)" d="M 113.887256 308.412723 
L 116.319915 298.682086 
L 112.998059 299.420277 
L 121.118152 285.763757 
L 121.856342 301.634847 
L 119.272676 299.420277 
L 116.840017 309.150913 
L 113.887256 308.412723 
"/>
    <path clip-path="url(#p0090ec53e7)" d="M 114.097407 258.519484 
L 118.009062 252.652001 
L 114.632451 252.229925 
L 126.872667 242.10009 
L 122.229826 257.294842 
L 120.541521 254.340307 
L 116.629866 260.207789 
L 114.097407 258.519484 
"/>
    <path clip-path="url(#p0090ec53e7)" d="M 114.519484 208.679225 
L 120.386966 204.76757 
L 117.432431 203.079265 
L 132.627182 198.436424 
L 122.497348 210.67664 
L 122.075272 207.300029 
L 116.207789 211.211684 
L 114.519484 208.679225 
"/>
    <path clip-path="url(#p0090ec53e7)" d="M 114.994541 159.050892 
L 124.725178 156.618233 
L 122.510607 154.034567 
L 138.381698 154.772757 
L 124.725178 162.89285 
L 125.463368 159.570994 
L 115.732731 162.003653 
L 114.994541 159.050892 
"/>
    <path clip-path="url(#p0090ec53e7)" d="M 115.363636 109.587273 
L 130.439849 109.587273 
L 128.918031 106.543636 
L 144.136213 111.109091 
L 128.918031 115.674545 
L 130.439849 112.630909 
L 115.363636 112.630909 
L 115.363636 109.587273 
"/>
   </g>
   <g id="matplotlib.axis_1">
    <g id="xtick_1">
     <g id="line2d_1">
      <path clip-path="url(#p0090ec53e7)" d="M 115.363636 630 
L 115.363636 86.4 
" style="fill:none;stroke:#b0b0b0;stroke-linecap:square;stroke-width:0.8;"/>
     </g>
     <g id="line2d_2">
      <defs>
       <path d="M 0 0 
L 0 3.5 
" id="mfc622a5b0f" style="stroke:#000000;stroke-width:0.8;"/>
      </defs>
      <g>
       <use style="stroke:#000000;stroke-width:0.8;" x="115.363636" xlink:href="#mfc622a5b0f" y="630"/>
      </g>
     </g>
     <g id="text_1">
      <!-- −1.00 -->
      <defs>
       <path d="M 10.59375 35.5 
L 73.1875 35.5 
L 73.1875 27.203125 
L 10.59375 27.203125 
z
" id="DejaVuSans-2212"/>
       <path d="M 12.40625 8.296875 
L 28.515625 8.296875 
L 28.515625 63.921875 
L 10.984375 60.40625 
L 10.984375 69.390625 
L 28.421875 72.90625 
L 38.28125 72.90625 
L 38.28125 8.296875 
L 54.390625 8.296875 
L 54.390625 0 
L 12.40625 0 
z
" id="DejaVuSans-31"/>
       <path d="M 10.6875 12.40625 
L 21 12.40625 
L 21 0 
L 10.6875 0 
z
" id="DejaVuSans-2e"/>
       <path d="M 31.78125 66.40625 
Q 24.171875 66.40625 20.328125 58.90625 
Q 16.5 51.421875 16.5 36.375 
Q 16.5 21.390625 20.328125 13.890625 
Q 24.171875 6.390625 31.78125 6.390625 
Q 39.453125 6.390625 43.28125 13.890625 
Q 47.125 21.390625 47.125 36.375 
Q 47.125 51.421875 43.28125 58.90625 
Q 39.453125 66.40625 31.78125 66.40625 
z
M 31.78125 74.21875 
Q 44.046875 74.21875 50.515625 64.515625 
Q 56.984375 54.828125 56.984375 36.375 
Q 56.984375 17.96875 50.515625 8.265625 
Q 44.046875 -1.421875 31.78125 -1.421875 
Q 19.53125 -1.421875 13.0625 8.265625 
Q 6.59375 17.96875 6.59375 36.375 
Q 6.59375 54.828125 13.0625 64.515625 
Q 19.53125 74.21875 31.78125 74.21875 
z
" id="DejaVuSans-30"/>
      </defs>
      <g transform="translate(93.911918 647.637812)scale(0.14 -0.14)">
       <use xlink:href="#DejaVuSans-2212"/>
       <use x="83.789062" xlink:href="#DejaVuSans-31"/>
       <use x="147.412109" xlink:href="#DejaVuSans-2e"/>
       <use x="179.199219" xlink:href="#DejaVuSans-30"/>
       <use x="242.822266" xlink:href="#DejaVuSans-30"/>
      </g>
     </g>
    </g>
    <g id="xtick_2">
     <g id="line2d_3">
      <path clip-path="url(#p0090ec53e7)" d="M 178.772727 630 
L 178.772727 86.4 
" style="fill:none;stroke:#b0b0b0;stroke-linecap:square;stroke-width:0.8;"/>
     </g>
     <g id="line2d_4">
      <g>
       <use style="stroke:#000000;stroke-width:0.8;" x="178.772727" xlink:href="#mfc622a5b0f" y="630"/>
      </g>
     </g>
     <g id="text_2">
      <!-- −0.75 -->
      <defs>
       <path d="M 8.203125 72.90625 
L 55.078125 72.90625 
L 55.078125 68.703125 
L 28.609375 0 
L 18.3125 0 
L 43.21875 64.59375 
L 8.203125 64.59375 
z
" id="DejaVuSans-37"/>
       <path d="M 10.796875 72.90625 
L 49.515625 72.90625 
L 49.515625 64.59375 
L 19.828125 64.59375 
L 19.828125 46.734375 
Q 21.96875 47.46875 24.109375 47.828125 
Q 26.265625 48.1875 28.421875 48.1875 
Q 40.625 48.1875 47.75 41.5 
Q 54.890625 34.8125 54.890625 23.390625 
Q 54.890625 11.625 47.5625 5.09375 
Q 40.234375 -1.421875 26.90625 -1.421875 
Q 22.3125 -1.421875 17.546875 -0.640625 
Q 12.796875 0.140625 7.71875 1.703125 
L 7.71875 11.625 
Q 12.109375 9.234375 16.796875 8.0625 
Q 21.484375 6.890625 26.703125 6.890625 
Q 35.15625 6.890625 40.078125 11.328125 
Q 45.015625 15.765625 45.015625 23.390625 
Q 45.015625 31 40.078125 35.4375 
Q 35.15625 39.890625 26.703125 39.890625 
Q 22.75 39.890625 18.8125 39.015625 
Q 14.890625 38.140625 10.796875 36.28125 
z
" id="DejaVuSans-35"/>
      </defs>
      <g transform="translate(157.321009 647.637812)scale(0.14 -0.14)">
       <use xlink:href="#DejaVuSans-2212"/>
       <use x="83.789062" xlink:href="#DejaVuSans-30"/>
       <use x="147.412109" xlink:href="#DejaVuSans-2e"/>
       <use x="179.199219" xlink:href="#DejaVuSans-37"/>
       <use x="242.822266" xlink:href="#DejaVuSans-35"/>
      </g>
     </g>
    </g>
    <g id="xtick_3">
     <g id="line2d_5">
      <path clip-path="url(#p0090ec53e7)" d="M 242.181818 630 
L 242.181818 86.4 
" style="fill:none;stroke:#b0b0b0;stroke-linecap:square;stroke-width:0.8;"/>
     </g>
     <g id="line2d_6">
      <g>
       <use style="stroke:#000000;stroke-width:0.8;" x="242.181818" xlink:href="#mfc622a5b0f" y="630"/>
      </g>
     </g>
     <g id="text_3">
      <!-- −0.50 -->
      <g transform="translate(220.730099 647.637812)scale(0.14 -0.14)">
       <use xlink:href="#DejaVuSans-2212"/>
       <use x="83.789062" xlink:href="#DejaVuSans-30"/>
       <use x="147.412109" xlink:href="#DejaVuSans-2e"/>
       <use x="179.199219" xlink:href="#DejaVuSans-35"/>
       <use x="242.822266" xlink:href="#DejaVuSans-30"/>
      </g>
     </g>
    </g>
    <g id="xtick_4">
     <g id="line2d_7">
      <path clip-path="url(#p0090ec53e7)" d="M 305.590909 630 
L 305.590909 86.4 
" style="fill:none;stroke:#b0b0b0;stroke-linecap:square;stroke-width:0.8;"/>
     </g>
     <g id="line2d_8">
      <g>
       <use style="stroke:#000000;stroke-width:0.8;" x="305.590909" xlink:href="#mfc622a5b0f" y="630"/>
      </g>
     </g>
     <g id="text_4">
      <!-- −0.25 -->
      <defs>
       <path d="M 19.1875 8.296875 
L 53.609375 8.296875 
L 53.609375 0 
L 7.328125 0 
L 7.328125 8.296875 
Q 12.9375 14.109375 22.625 23.890625 
Q 32.328125 33.6875 34.8125 36.53125 
Q 39.546875 41.84375 41.421875 45.53125 
Q 43.3125 49.21875 43.3125 52.78125 
Q 43.3125 58.59375 39.234375 62.25 
Q 35.15625 65.921875 28.609375 65.921875 
Q 23.96875 65.921875 18.8125 64.3125 
Q 13.671875 62.703125 7.8125 59.421875 
L 7.8125 69.390625 
Q 13.765625 71.78125 18.9375 73 
Q 24.125 74.21875 28.421875 74.21875 
Q 39.75 74.21875 46.484375 68.546875 
Q 53.21875 62.890625 53.21875 53.421875 
Q 53.21875 48.921875 51.53125 44.890625 
Q 49.859375 40.875 45.40625 35.40625 
Q 44.1875 33.984375 37.640625 27.21875 
Q 31.109375 20.453125 19.1875 8.296875 
z
" id="DejaVuSans-32"/>
      </defs>
      <g transform="translate(284.13919 647.637812)scale(0.14 -0.14)">
       <use xlink:href="#DejaVuSans-2212"/>
       <use x="83.789062" xlink:href="#DejaVuSans-30"/>
       <use x="147.412109" xlink:href="#DejaVuSans-2e"/>
       <use x="179.199219" xlink:href="#DejaVuSans-32"/>
       <use x="242.822266" xlink:href="#DejaVuSans-35"/>
      </g>
     </g>
    </g>
    <g id="xtick_5">
     <g id="line2d_9">
      <path clip-path="url(#p0090ec53e7)" d="M 369 630 
L 369 86.4 
" style="fill:none;stroke:#b0b0b0;stroke-linecap:square;stroke-width:0.8;"/>
     </g>
     <g id="line2d_10">
      <g>
       <use style="stroke:#000000;stroke-width:0.8;" x="369" xlink:href="#mfc622a5b0f" y="630"/>
      </g>
     </g>
     <g id="text_5">
      <!-- 0.00 -->
      <g transform="translate(353.414062 647.637812)scale(0.14 -0.14)">
       <use xlink:href="#DejaVuSans-30"/>
       <use x="63.623047" xlink:href="#DejaVuSans-2e"/>
       <use x="95.410156" xlink:href="#DejaVuSans-30"/>
       <use x="159.033203" xlink:href="#DejaVuSans-30"/>
      </g>
     </g>
    </g>
    <g id="xtick_6">
     <g id="line2d_11">
      <path clip-path="url(#p0090ec53e7)" d="M 432.409091 630 
L 432.409091 86.4 
" style="fill:none;stroke:#b0b0b0;stroke-linecap:square;stroke-width:0.8;"/>
     </g>
     <g id="line2d_12">
      <g>
       <use style="stroke:#000000;stroke-width:0.8;" x="432.409091" xlink:href="#mfc622a5b0f" y="630"/>
      </g>
     </g>
     <g id="text_6">
      <!-- 0.25 -->
      <g transform="translate(416.823153 647.637812)scale(0.14 -0.14)">
       <use xlink:href="#DejaVuSans-30"/>
       <use x="63.623047" xlink:href="#DejaVuSans-2e"/>
       <use x="95.410156" xlink:href="#DejaVuSans-32"/>
       <use x="159.033203" xlink:href="#DejaVuSans-35"/>
      </g>
     </g>
    </g>
    <g id="xtick_7">
     <g id="line2d_13">
      <path clip-path="url(#p0090ec53e7)" d="M 495.818182 630 
L 495.818182 86.4 
" style="fill:none;stroke:#b0b0b0;stroke-linecap:square;stroke-width:0.8;"/>
     </g>
     <g id="line2d_14">
      <g>
       <use style="stroke:#000000;stroke-width:0.8;" x="495.818182" xlink:href="#mfc622a5b0f" y="630"/>
      </g>
     </g>
     <g id="text_7">
      <!-- 0.50 -->
      <g transform="translate(480.232244 647.637812)scale(0.14 -0.14)">
       <use xlink:href="#DejaVuSans-30"/>
       <use x="63.623047" xlink:href="#DejaVuSans-2e"/>
       <use x="95.410156" xlink:href="#DejaVuSans-35"/>
       <use x="159.033203" xlink:href="#DejaVuSans-30"/>
      </g>
     </g>
    </g>
    <g id="xtick_8">
     <g id="line2d_15">
      <path clip-path="url(#p0090ec53e7)" d="M 559.227273 630 
L 559.227273 86.4 
" style="fill:none;stroke:#b0b0b0;stroke-linecap:square;stroke-width:0.8;"/>
     </g>
     <g id="line2d_16">
      <g>
       <use style="stroke:#000000;stroke-width:0.8;" x="559.227273" xlink:href="#mfc622a5b0f" y="630"/>
      </g>
     </g>
     <g id="text_8">
      <!-- 0.75 -->
      <g transform="translate(543.641335 647.637812)scale(0.14 -0.14)">
       <use xlink:href="#DejaVuSans-30"/>
       <use x="63.623047" xlink:href="#DejaVuSans-2e"/>
       <use x="95.410156" xlink:href="#DejaVuSans-37"/>
       <use x="159.033203" xlink:href="#DejaVuSans-35"/>
      </g>
     </g>
    </g>
    <g id="xtick_9">
     <g id="line2d_17">
      <path clip-path="url(#p0090ec53e7)" d="M 622.636364 630 
L 622.636364 86.4 
" style="fill:none;stroke:#b0b0b0;stroke-linecap:square;stroke-width:0.8;"/>
     </g>
     <g id="line2d_18">
      <g>
       <use style="stroke:#000000;stroke-width:0.8;" x="622.636364" xlink:href="#mfc622a5b0f" y="630"/>
      </g>
     </g>
     <g id="text_9">
      <!-- 1.00 -->
      <g transform="translate(607.050426 647.637812)scale(0.14 -0.14)">
       <use xlink:href="#DejaVuSans-31"/>
       <use x="63.623047" xlink:href="#DejaVuSans-2e"/>
       <use x="95.410156" xlink:href="#DejaVuSans-30"/>
       <use x="159.033203" xlink:href="#DejaVuSans-30"/>
      </g>
     </g>
    </g>
    <g id="text_10">
     <!-- $x_1$ -->
     <defs>
      <path d="M 60.015625 54.6875 
L 34.90625 27.875 
L 50.296875 0 
L 39.984375 0 
L 28.421875 21.6875 
L 8.296875 0 
L -2.59375 0 
L 24.3125 28.8125 
L 10.015625 54.6875 
L 20.3125 54.6875 
L 30.8125 34.90625 
L 49.125 54.6875 
z
" id="DejaVuSans-Oblique-78"/>
     </defs>
     <g transform="translate(355.625 673.545469)scale(0.25 -0.25)">
      <use transform="translate(0 0.3125)" xlink:href="#DejaVuSans-Oblique-78"/>
      <use transform="translate(59.179688 -16.09375)scale(0.7)" xlink:href="#DejaVuSans-31"/>
     </g>
    </g>
   </g>
   <g id="matplotlib.axis_2">
    <g id="ytick_1">
     <g id="line2d_19">
      <path clip-path="url(#p0090ec53e7)" d="M 90 605.290909 
L 648 605.290909 
" style="fill:none;stroke:#b0b0b0;stroke-linecap:square;stroke-width:0.8;"/>
     </g>
     <g id="line2d_20">
      <defs>
       <path d="M 0 0 
L -3.5 0 
" id="m9bdf543d1d" style="stroke:#000000;stroke-width:0.8;"/>
      </defs>
      <g>
       <use style="stroke:#000000;stroke-width:0.8;" x="90" xlink:href="#m9bdf543d1d" y="605.290909"/>
      </g>
     </g>
     <g id="text_11">
      <!-- −1.00 -->
      <g transform="translate(40.096562 610.609815)scale(0.14 -0.14)">
       <use xlink:href="#DejaVuSans-2212"/>
       <use x="83.789062" xlink:href="#DejaVuSans-31"/>
       <use x="147.412109" xlink:href="#DejaVuSans-2e"/>
       <use x="179.199219" xlink:href="#DejaVuSans-30"/>
       <use x="242.822266" xlink:href="#DejaVuSans-30"/>
      </g>
     </g>
    </g>
    <g id="ytick_2">
     <g id="line2d_21">
      <path clip-path="url(#p0090ec53e7)" d="M 90 543.518182 
L 648 543.518182 
" style="fill:none;stroke:#b0b0b0;stroke-linecap:square;stroke-width:0.8;"/>
     </g>
     <g id="line2d_22">
      <g>
       <use style="stroke:#000000;stroke-width:0.8;" x="90" xlink:href="#m9bdf543d1d" y="543.518182"/>
      </g>
     </g>
     <g id="text_12">
      <!-- −0.75 -->
      <g transform="translate(40.096562 548.837088)scale(0.14 -0.14)">
       <use xlink:href="#DejaVuSans-2212"/>
       <use x="83.789062" xlink:href="#DejaVuSans-30"/>
       <use x="147.412109" xlink:href="#DejaVuSans-2e"/>
       <use x="179.199219" xlink:href="#DejaVuSans-37"/>
       <use x="242.822266" xlink:href="#DejaVuSans-35"/>
      </g>
     </g>
    </g>
    <g id="ytick_3">
     <g id="line2d_23">
      <path clip-path="url(#p0090ec53e7)" d="M 90 481.745455 
L 648 481.745455 
" style="fill:none;stroke:#b0b0b0;stroke-linecap:square;stroke-width:0.8;"/>
     </g>
     <g id="line2d_24">
      <g>
       <use style="stroke:#000000;stroke-width:0.8;" x="90" xlink:href="#m9bdf543d1d" y="481.745455"/>
      </g>
     </g>
     <g id="text_13">
      <!-- −0.50 -->
      <g transform="translate(40.096562 487.064361)scale(0.14 -0.14)">
       <use xlink:href="#DejaVuSans-2212"/>
       <use x="83.789062" xlink:href="#DejaVuSans-30"/>
       <use x="147.412109" xlink:href="#DejaVuSans-2e"/>
       <use x="179.199219" xlink:href="#DejaVuSans-35"/>
       <use x="242.822266" xlink:href="#DejaVuSans-30"/>
      </g>
     </g>
    </g>
    <g id="ytick_4">
     <g id="line2d_25">
      <path clip-path="url(#p0090ec53e7)" d="M 90 419.972727 
L 648 419.972727 
" style="fill:none;stroke:#b0b0b0;stroke-linecap:square;stroke-width:0.8;"/>
     </g>
     <g id="line2d_26">
      <g>
       <use style="stroke:#000000;stroke-width:0.8;" x="90" xlink:href="#m9bdf543d1d" y="419.972727"/>
      </g>
     </g>
     <g id="text_14">
      <!-- −0.25 -->
      <g transform="translate(40.096562 425.291634)scale(0.14 -0.14)">
       <use xlink:href="#DejaVuSans-2212"/>
       <use x="83.789062" xlink:href="#DejaVuSans-30"/>
       <use x="147.412109" xlink:href="#DejaVuSans-2e"/>
       <use x="179.199219" xlink:href="#DejaVuSans-32"/>
       <use x="242.822266" xlink:href="#DejaVuSans-35"/>
      </g>
     </g>
    </g>
    <g id="ytick_5">
     <g id="line2d_27">
      <path clip-path="url(#p0090ec53e7)" d="M 90 358.2 
L 648 358.2 
" style="fill:none;stroke:#b0b0b0;stroke-linecap:square;stroke-width:0.8;"/>
     </g>
     <g id="line2d_28">
      <g>
       <use style="stroke:#000000;stroke-width:0.8;" x="90" xlink:href="#m9bdf543d1d" y="358.2"/>
      </g>
     </g>
     <g id="text_15">
      <!-- 0.00 -->
      <g transform="translate(51.828125 363.518906)scale(0.14 -0.14)">
       <use xlink:href="#DejaVuSans-30"/>
       <use x="63.623047" xlink:href="#DejaVuSans-2e"/>
       <use x="95.410156" xlink:href="#DejaVuSans-30"/>
       <use x="159.033203" xlink:href="#DejaVuSans-30"/>
      </g>
     </g>
    </g>
    <g id="ytick_6">
     <g id="line2d_29">
      <path clip-path="url(#p0090ec53e7)" d="M 90 296.427273 
L 648 296.427273 
" style="fill:none;stroke:#b0b0b0;stroke-linecap:square;stroke-width:0.8;"/>
     </g>
     <g id="line2d_30">
      <g>
       <use style="stroke:#000000;stroke-width:0.8;" x="90" xlink:href="#m9bdf543d1d" y="296.427273"/>
      </g>
     </g>
     <g id="text_16">
      <!-- 0.25 -->
      <g transform="translate(51.828125 301.746179)scale(0.14 -0.14)">
       <use xlink:href="#DejaVuSans-30"/>
       <use x="63.623047" xlink:href="#DejaVuSans-2e"/>
       <use x="95.410156" xlink:href="#DejaVuSans-32"/>
       <use x="159.033203" xlink:href="#DejaVuSans-35"/>
      </g>
     </g>
    </g>
    <g id="ytick_7">
     <g id="line2d_31">
      <path clip-path="url(#p0090ec53e7)" d="M 90 234.654545 
L 648 234.654545 
" style="fill:none;stroke:#b0b0b0;stroke-linecap:square;stroke-width:0.8;"/>
     </g>
     <g id="line2d_32">
      <g>
       <use style="stroke:#000000;stroke-width:0.8;" x="90" xlink:href="#m9bdf543d1d" y="234.654545"/>
      </g>
     </g>
     <g id="text_17">
      <!-- 0.50 -->
      <g transform="translate(51.828125 239.973452)scale(0.14 -0.14)">
       <use xlink:href="#DejaVuSans-30"/>
       <use x="63.623047" xlink:href="#DejaVuSans-2e"/>
       <use x="95.410156" xlink:href="#DejaVuSans-35"/>
       <use x="159.033203" xlink:href="#DejaVuSans-30"/>
      </g>
     </g>
    </g>
    <g id="ytick_8">
     <g id="line2d_33">
      <path clip-path="url(#p0090ec53e7)" d="M 90 172.881818 
L 648 172.881818 
" style="fill:none;stroke:#b0b0b0;stroke-linecap:square;stroke-width:0.8;"/>
     </g>
     <g id="line2d_34">
      <g>
       <use style="stroke:#000000;stroke-width:0.8;" x="90" xlink:href="#m9bdf543d1d" y="172.881818"/>
      </g>
     </g>
     <g id="text_18">
      <!-- 0.75 -->
      <g transform="translate(51.828125 178.200724)scale(0.14 -0.14)">
       <use xlink:href="#DejaVuSans-30"/>
       <use x="63.623047" xlink:href="#DejaVuSans-2e"/>
       <use x="95.410156" xlink:href="#DejaVuSans-37"/>
       <use x="159.033203" xlink:href="#DejaVuSans-35"/>
      </g>
     </g>
    </g>
    <g id="ytick_9">
     <g id="line2d_35">
      <path clip-path="url(#p0090ec53e7)" d="M 90 111.109091 
L 648 111.109091 
" style="fill:none;stroke:#b0b0b0;stroke-linecap:square;stroke-width:0.8;"/>
     </g>
     <g id="line2d_36">
      <g>
       <use style="stroke:#000000;stroke-width:0.8;" x="90" xlink:href="#m9bdf543d1d" y="111.109091"/>
      </g>
     </g>
     <g id="text_19">
      <!-- 1.00 -->
      <g transform="translate(51.828125 116.427997)scale(0.14 -0.14)">
       <use xlink:href="#DejaVuSans-31"/>
       <use x="63.623047" xlink:href="#DejaVuSans-2e"/>
       <use x="95.410156" xlink:href="#DejaVuSans-30"/>
       <use x="159.033203" xlink:href="#DejaVuSans-30"/>
      </g>
     </g>
    </g>
    <g id="text_20">
     <!-- $x_2$ -->
     <g transform="translate(30.897344 371.575)rotate(-90)scale(0.25 -0.25)">
      <use transform="translate(0 0.3125)" xlink:href="#DejaVuSans-Oblique-78"/>
      <use transform="translate(59.179688 -16.09375)scale(0.7)" xlink:href="#DejaVuSans-32"/>
     </g>
    </g>
   </g>
   <g id="line2d_37">
    <path clip-path="url(#p0090ec53e7)" d="M 571.909091 358.2 
L 571.803062 364.618837 
L 571.483134 370.822533 
L 570.956591 376.81142 
L 570.230699 382.586049 
L 569.312706 388.147184 
L 568.209828 393.495792 
L 566.929244 398.633036 
L 565.478094 403.560269 
L 563.863467 408.279024 
L 562.03636 412.924527 
L 560.05081 417.35259 
L 557.91437 421.565444 
L 555.63451 425.565489 
L 553.218615 429.355288 
L 550.673976 432.937555 
L 548.007789 436.315152 
L 545.143702 439.581465 
L 542.165945 442.637482 
L 539.082013 445.486753 
L 535.806954 448.205612 
L 532.435222 450.713761 
L 528.974526 453.015455 
L 525.332936 455.170538 
L 521.613365 457.117 
L 517.720321 458.904122 
L 513.656569 460.52064 
L 509.532306 461.922665 
L 505.248305 463.144226 
L 500.809664 464.175815 
L 496.222448 465.008632 
L 491.60396 465.622636 
L 486.852785 466.032854 
L 481.977223 466.232729 
L 476.986494 466.216604 
L 471.890721 465.979786 
L 466.700902 465.518595 
L 461.31942 464.813827 
L 455.870273 463.871897 
L 450.367567 462.692976 
L 444.826099 461.278458 
L 439.261283 459.630986 
L 433.586884 457.717931 
L 427.925857 455.574302 
L 422.295658 453.207277 
L 416.619104 450.579378 
L 411.014654 447.741056 
L 405.411943 444.653156 
L 399.924712 441.375486 
L 394.489647 437.868245 
L 389.214103 434.199385 
L 384.041861 430.329416 
L 379.072227 426.332943 
L 374.321645 422.230477 
L 369.743972 417.98406 
L 365.423426 413.674481 
L 361.37274 409.324473 
L 357.555053 404.898996 
L 354.036825 400.480616 
L 350.825643 396.092631 
L 347.927167 391.757854 
L 345.345081 387.498448 
L 343.081057 383.335749 
L 341.15645 379.33837 
L 339.539213 375.472643 
L 338.239419 371.799609 
L 337.230084 368.286748 
L 336.511117 364.986869 
L 336.064155 361.904831 
L 335.870498 359.043665 
L 335.911261 356.404702 
L 336.167512 353.987695 
L 336.620402 351.790954 
L 337.251282 349.811463 
L 338.052236 348.025009 
L 338.998122 346.451275 
L 340.084332 345.068716 
L 341.311731 343.864352 
L 342.669095 342.843534 
L 344.160289 342.001821 
L 345.773163 341.347554 
L 347.51093 340.882932 
L 349.37567 340.615675 
L 351.366492 340.557792 
L 353.459684 340.721703 
L 355.643909 341.117728 
L 357.900698 341.755599 
L 360.186965 342.634974 
L 362.469315 343.753221 
L 364.692139 345.091479 
L 366.797692 346.618779 
L 368.729131 348.29289 
L 370.433851 350.062014 
L 371.860376 351.858159 
L 372.975322 353.612179 
L 373.762053 355.252129 
L 374.231038 356.726562 
L 374.408727 357.992579 
L 374.338301 359.027125 
L 374.069528 359.833002 
L 373.64377 360.428462 
L 373.086264 360.831295 
L 372.40722 361.047154 
L 371.610942 361.063393 
L 370.724513 360.855352 
L 369.812618 360.411143 
L 368.989938 359.765797 
L 368.396739 359.02881 
L 368.131775 358.372434 
L 368.169079 357.939157 
L 368.385208 357.748858 
L 368.70725 357.762443 
L 369.049163 357.995683 
L 369.123976 358.259351 
L 368.999202 358.241248 
L 368.992587 358.234105 
L 368.980347 358.189755 
L 369 358.2 
" style="fill:none;stroke:#ff0000;stroke-linecap:square;"/>
   </g>
   <g id="patch_3">
    <path d="M 90 630 
L 90 86.4 
" style="fill:none;stroke:#000000;stroke-linecap:square;stroke-linejoin:miter;stroke-width:0.8;"/>
   </g>
   <g id="patch_4">
    <path d="M 648 630 
L 648 86.4 
" style="fill:none;stroke:#000000;stroke-linecap:square;stroke-linejoin:miter;stroke-width:0.8;"/>
   </g>
   <g id="patch_5">
    <path d="M 90 630 
L 648 630 
" style="fill:none;stroke:#000000;stroke-linecap:square;stroke-linejoin:miter;stroke-width:0.8;"/>
   </g>
   <g id="patch_6">
    <path d="M 90 86.4 
L 648 86.4 
" style="fill:none;stroke:#000000;stroke-linecap:square;stroke-linejoin:miter;stroke-width:0.8;"/>
   </g>
  </g>
 </g>
 <defs>
  <clipPath id="p0090ec53e7">
   <rect height="543.6" width="558" x="90" y="86.4"/>
  </clipPath>
 </defs>
</svg>
