<?xml version="1.0" encoding="utf-8" standalone="no"?>
<!DOCTYPE svg PUBLIC "-//W3C//DTD SVG 1.1//EN"
  "http://www.w3.org/Graphics/SVG/1.1/DTD/svg11.dtd">
<!-- Created with matplotlib (http://matplotlib.org/) -->
<svg height="720pt" version="1.1" viewBox="0 0 720 720" width="720pt" xmlns="http://www.w3.org/2000/svg" xmlns:xlink="http://www.w3.org/1999/xlink">
 <defs>
  <style type="text/css">
*{stroke-linecap:butt;stroke-linejoin:round;}
  </style>
 </defs>
 <g id="figure_1">
  <g id="patch_1">
   <path d="M 0 720 
L 720 720 
L 720 0 
L 0 0 
z
" style="fill:#ffffff;"/>
  </g>
  <g id="axes_1">
   <g id="patch_2">
    <path d="M 90 630 
L 648 630 
L 648 86.4 
L 90 86.4 
z
" style="fill:#ffffff;"/>
   </g>
   <g id="Quiver_1">
    <path clip-path="url(#p5c38a68490)" d="M 164.619197 605.678202 
L 152.515608 559.684562 
L 149.959478 561.930859 
L 150.501687 546.051865 
L 158.789747 559.607104 
L 155.459031 558.909977 
L 167.562621 604.903617 
L 164.619197 605.678202 
"/>
    <path clip-path="url(#p5c38a68490)" d="M 164.614529 556.241822 
L 155.465007 519.643736 
L 152.881341 521.858307 
L 153.619531 505.987217 
L 161.739624 519.643736 
L 158.417768 518.905546 
L 167.56729 555.503632 
L 164.614529 556.241822 
"/>
    <path clip-path="url(#p5c38a68490)" d="M 164.608063 506.796741 
L 158.334287 479.61038 
L 155.71079 481.777616 
L 156.737376 465.922568 
L 164.607867 479.724445 
L 161.29998 478.925989 
L 167.573755 506.11235 
L 164.608063 506.796741 
"/>
    <path clip-path="url(#p5c38a68490)" d="M 164.598644 457.334817 
L 161.049033 439.586762 
L 158.362955 441.675934 
L 159.85522 425.85792 
L 167.316548 439.885215 
L 164.033564 438.989856 
L 167.583175 456.737911 
L 164.598644 457.334817 
"/>
    <path clip-path="url(#p5c38a68490)" d="M 164.584386 407.833399 
L 163.4035 399.567197 
L 160.605671 401.504155 
L 162.973065 385.793271 
L 169.64481 400.21285 
L 166.416546 399.136762 
L 167.597432 407.402964 
L 164.584386 407.833399 
"/>
    <path clip-path="url(#p5c38a68490)" d="M 164.843771 358.2 
L 164.843771 356.952862 
L 162.349496 358.2 
L 166.090909 345.728622 
L 169.832322 358.2 
L 167.338047 356.952862 
L 167.338047 358.2 
L 164.843771 358.2 
"/>
    <path clip-path="url(#p5c38a68490)" d="M 165.779125 308.470034 
L 166.090909 308.158249 
L 165.155556 307.846465 
L 169.208753 305.663974 
L 167.026262 309.717172 
L 166.714478 308.781818 
L 166.402694 309.093603 
L 165.779125 308.470034 
"/>
    <path clip-path="url(#p5c38a68490)" d="M 166.714478 258.740067 
L 167.338047 259.363636 
L 167.961616 257.49293 
L 172.326598 265.599325 
L 164.220202 261.234343 
L 166.090909 260.610774 
L 165.46734 259.987205 
L 166.714478 258.740067 
"/>
    <path clip-path="url(#p5c38a68490)" d="M 167.395857 209.162486 
L 169.70267 213.007173 
L 171.529597 210.136286 
L 175.444442 225.534677 
L 163.699907 214.8341 
L 167.092773 214.573111 
L 164.785961 210.728424 
L 167.395857 209.162486 
"/>
    <path clip-path="url(#p5c38a68490)" d="M 167.452065 159.846695 
L 173.798242 172.53905 
L 175.839976 169.816739 
L 178.562287 185.470028 
L 167.673042 173.900206 
L 171.075931 173.900206 
L 164.729754 161.207851 
L 167.452065 159.846695 
"/>
    <path clip-path="url(#p5c38a68490)" d="M 167.476321 110.479358 
L 177.397948 132.306936 
L 179.539039 129.662058 
L 181.680131 145.405379 
L 171.226566 133.440455 
L 174.627123 133.566402 
L 164.705497 111.738824 
L 167.476321 110.479358 
"/>
    <path clip-path="url(#p5c38a68490)" d="M 215.351883 605.698214 
L 203.428408 562.773707 
L 200.903116 565.054616 
L 201.22896 549.16971 
L 209.70091 562.610785 
L 206.361007 561.959096 
L 218.284481 604.883604 
L 215.351883 605.698214 
"/>
    <path clip-path="url(#p5c38a68490)" d="M 215.347748 556.264843 
L 206.405412 522.731082 
L 203.85666 524.985747 
L 204.346804 509.105061 
L 212.679263 522.633053 
L 209.346279 521.946851 
L 218.288616 555.480612 
L 215.347748 556.264843 
"/>
    <path clip-path="url(#p5c38a68490)" d="M 215.341801 506.823641 
L 209.310124 482.696932 
L 206.726458 484.911503 
L 207.464649 469.040413 
L 215.584741 482.696932 
L 212.262885 481.958742 
L 218.294562 506.08545 
L 215.341801 506.823641 
"/>
    <path clip-path="url(#p5c38a68490)" d="M 215.332603 457.366492 
L 212.068072 442.676106 
L 209.427043 444.821942 
L 210.582493 428.975764 
L 218.340518 442.84117 
L 215.039231 442.015848 
L 218.303761 456.706235 
L 215.332603 457.366492 
"/>
    <path clip-path="url(#p5c38a68490)" d="M 215.31707 407.868367 
L 214.450894 402.671311 
L 211.698854 404.672794 
L 213.700337 388.911115 
L 220.705528 403.171681 
L 217.453118 402.17094 
L 218.319294 407.367996 
L 215.31707 407.868367 
"/>
    <path clip-path="url(#p5c38a68490)" d="M 215.882828 358.2 
L 215.882828 357.264647 
L 214.012122 358.2 
L 216.818182 348.846467 
L 219.624242 358.2 
L 217.753535 357.264647 
L 217.753535 358.2 
L 215.882828 358.2 
"/>
    <path clip-path="url(#p5c38a68490)" d="M 216.818182 308.470034 
L 217.129966 308.470034 
L 216.818182 307.846465 
L 219.936026 308.781818 
L 216.818182 309.717172 
L 217.129966 309.093603 
L 216.818182 309.093603 
L 216.818182 308.470034 
"/>
    <path clip-path="url(#p5c38a68490)" d="M 217.753535 258.740067 
L 218.377104 259.675421 
L 219.624242 257.49293 
L 223.053871 268.71717 
L 214.012122 261.234343 
L 216.506397 260.922559 
L 215.882828 259.987205 
L 217.753535 258.740067 
"/>
    <path clip-path="url(#p5c38a68490)" d="M 218.179337 209.264877 
L 221.407671 215.721543 
L 223.449404 212.999232 
L 226.171715 228.652521 
L 215.282471 217.082699 
L 218.685359 217.082699 
L 215.457026 210.626032 
L 218.179337 209.264877 
"/>
    <path clip-path="url(#p5c38a68490)" d="M 218.208837 159.909204 
L 225.117594 175.453908 
L 227.280836 172.827115 
L 229.289559 188.587872 
L 218.936905 176.535529 
L 222.336284 176.690046 
L 215.427527 161.145342 
L 218.208837 159.909204 
"/>
    <path clip-path="url(#p5c38a68490)" d="M 218.222937 110.523776 
L 228.544327 135.295112 
L 230.768523 132.719727 
L 232.407404 148.523224 
L 222.339991 136.231615 
L 225.734816 136.465741 
L 215.413427 111.694406 
L 218.222937 110.523776 
"/>
    <path clip-path="url(#p5c38a68490)" d="M 266.085475 605.720315 
L 254.360905 565.856779 
L 251.870351 568.17557 
L 251.956233 552.287554 
L 260.630231 565.599135 
L 257.280865 564.997967 
L 269.005434 604.861503 
L 266.085475 605.720315 
"/>
    <path clip-path="url(#p5c38a68490)" d="M 266.08219 556.290803 
L 257.373493 525.810363 
L 254.865039 528.109779 
L 255.074077 512.222906 
L 263.644627 525.601325 
L 260.300022 524.974212 
L 269.008719 555.454652 
L 266.08219 556.290803 
"/>
    <path clip-path="url(#p5c38a68490)" d="M 266.077259 506.854962 
L 260.327478 485.77243 
L 257.791504 488.041459 
L 258.191921 472.158257 
L 266.600675 485.638958 
L 263.263868 484.971596 
L 269.01365 506.054129 
L 266.077259 506.854962 
"/>
    <path clip-path="url(#p5c38a68490)" d="M 266.069074 457.405459 
L 263.155241 445.750128 
L 260.571575 447.964699 
L 261.309766 432.093608 
L 269.429858 445.750128 
L 266.108002 445.011938 
L 269.021835 456.667269 
L 266.069074 457.405459 
"/>
    <path clip-path="url(#p5c38a68490)" d="M 266.053189 407.916635 
L 265.621423 405.757802 
L 262.935345 407.846974 
L 264.42761 392.02896 
L 271.888938 406.056256 
L 268.605954 405.160896 
L 269.03772 407.319729 
L 266.053189 407.916635 
"/>
    <path clip-path="url(#p5c38a68490)" d="M 266.921886 358.2 
L 266.921886 357.576431 
L 265.674748 358.2 
L 267.545455 351.964311 
L 269.416161 358.2 
L 268.169023 357.576431 
L 268.169023 358.2 
L 266.921886 358.2 
"/>
    <path clip-path="url(#p5c38a68490)" d="M 267.857239 308.470034 
L 268.169023 308.781818 
L 268.480808 307.846465 
L 270.663299 311.899663 
L 266.610101 309.717172 
L 267.545455 309.405387 
L 267.23367 309.093603 
L 267.857239 308.470034 
"/>
    <path clip-path="url(#p5c38a68490)" d="M 268.792592 258.740067 
L 269.416161 259.987205 
L 271.286868 257.49293 
L 273.781143 271.835014 
L 263.804041 261.234343 
L 266.921886 261.234343 
L 266.298317 259.987205 
L 268.792592 258.740067 
"/>
    <path clip-path="url(#p5c38a68490)" d="M 268.944226 209.345981 
L 272.902497 218.581947 
L 275.100567 215.984229 
L 276.898988 231.770365 
L 266.707937 219.58107 
L 270.104954 219.780894 
L 266.146683 210.544928 
L 268.944226 209.345981 
"/>
    <path clip-path="url(#p5c38a68490)" d="M 268.958427 159.962084 
L 276.343103 178.423773 
L 278.603859 175.880422 
L 280.016832 191.705717 
L 270.126023 179.271557 
L 273.517158 179.554151 
L 266.132482 161.092462 
L 268.958427 159.962084 
"/>
    <path clip-path="url(#p5c38a68490)" d="M 268.965837 110.56279 
L 279.638351 138.311326 
L 281.932815 135.798342 
L 283.134677 151.641068 
L 273.410521 139.076148 
L 276.797586 139.403928 
L 266.125072 111.655392 
L 268.965837 110.56279 
"/>
    <path clip-path="url(#p5c38a68490)" d="M 316.820182 605.744829 
L 305.316243 568.932224 
L 302.865073 571.292609 
L 302.683505 555.405399 
L 311.580343 568.569088 
L 308.221333 568.024383 
L 319.725272 604.836989 
L 316.820182 605.744829 
"/>
    <path clip-path="url(#p5c38a68490)" d="M 316.818205 556.320272 
L 308.374735 528.878992 
L 305.913236 531.228604 
L 305.80135 515.34075 
L 314.640367 528.543333 
L 311.283778 527.983902 
L 319.727249 555.425182 
L 316.818205 556.320272 
"/>
    <path clip-path="url(#p5c38a68490)" d="M 316.81509 506.891837 
L 311.397178 488.83213 
L 308.919194 491.16435 
L 308.919194 475.276101 
L 317.665019 488.540602 
L 314.312453 487.957547 
L 319.730365 506.017254 
L 316.81509 506.891837 
"/>
    <path clip-path="url(#p5c38a68490)" d="M 316.809463 457.454439 
L 314.336454 448.79891 
L 311.828001 451.098326 
L 312.037038 435.211453 
L 320.607588 448.589872 
L 317.262984 447.962759 
L 319.735992 456.618288 
L 316.809463 457.454439 
"/>
    <path clip-path="url(#p5c38a68490)" d="M 317.02559 407.929966 
L 316.713805 406.682828 
L 314.531314 408.553535 
L 315.154883 395.146804 
L 322.014141 406.682828 
L 319.208081 406.05926 
L 319.519865 407.306397 
L 317.02559 407.929966 
"/>
    <path clip-path="url(#p5c38a68490)" d="M 317.960943 358.2 
L 317.960943 357.888216 
L 317.337374 358.2 
L 318.272727 355.082156 
L 319.208081 358.2 
L 318.584512 357.888216 
L 318.584512 358.2 
L 317.960943 358.2 
"/>
    <path clip-path="url(#p5c38a68490)" d="M 318.896296 308.470034 
L 319.208081 309.093603 
L 320.143434 307.846465 
L 321.390572 315.017507 
L 316.402021 309.717172 
L 317.960943 309.717172 
L 317.649158 309.093603 
L 318.896296 308.470034 
"/>
    <path clip-path="url(#p5c38a68490)" d="M 319.6857 258.798447 
L 320.834687 261.670915 
L 323.095443 259.127564 
L 324.508416 274.952858 
L 314.617607 262.518699 
L 318.008742 262.801293 
L 316.859755 259.928825 
L 319.6857 258.798447 
"/>
    <path clip-path="url(#p5c38a68490)" d="M 319.69765 209.411109 
L 324.242069 221.529559 
L 326.557568 219.035944 
L 327.62626 234.88821 
L 318.008032 222.24202 
L 321.392223 222.598251 
L 316.847805 210.479801 
L 319.69765 209.411109 
"/>
    <path clip-path="url(#p5c38a68490)" d="M 319.702922 160.007202 
L 327.493662 181.431738 
L 329.833981 178.961402 
L 330.744105 194.823561 
L 321.252813 182.081826 
L 324.633273 182.47188 
L 316.842533 161.047344 
L 319.702922 160.007202 
"/>
    <path clip-path="url(#p5c38a68490)" d="M 319.705887 110.597248 
L 330.688524 141.34863 
L 333.043001 138.891784 
L 333.861949 154.758913 
L 324.444041 141.962841 
L 327.822204 142.372316 
L 316.839567 111.620934 
L 319.705887 110.597248 
"/>
    <path clip-path="url(#p5c38a68490)" d="M 367.556277 605.77215 
L 356.298225 571.997996 
L 353.892019 574.404201 
L 353.410778 558.523243 
L 362.55436 571.516754 
L 359.185672 571.035513 
L 370.443723 604.809668 
L 367.556277 605.77215 
"/>
    <path clip-path="url(#p5c38a68490)" d="M 367.556277 556.353968 
L 359.416069 531.933347 
L 357.009864 534.339553 
L 356.528622 518.458594 
L 365.672205 531.452106 
L 362.303516 530.970865 
L 370.443723 555.391486 
L 367.556277 556.353968 
"/>
    <path clip-path="url(#p5c38a68490)" d="M 367.556277 506.935787 
L 362.533914 491.868698 
L 360.127708 494.274904 
L 359.646467 478.393946 
L 368.790049 491.387457 
L 365.421361 490.906216 
L 370.443723 505.973304 
L 367.556277 506.935787 
"/>
    <path clip-path="url(#p5c38a68490)" d="M 367.556277 457.517605 
L 365.651758 451.80405 
L 363.245552 454.210256 
L 362.764311 438.329297 
L 371.907893 451.322809 
L 368.539205 450.841567 
L 370.443723 456.555122 
L 367.556277 457.517605 
"/>
    <path clip-path="url(#p5c38a68490)" d="M 368.064647 407.929966 
L 367.752862 406.994613 
L 366.19394 408.553535 
L 365.882156 398.264649 
L 371.80606 406.682828 
L 369.623569 406.371044 
L 369.935353 407.306397 
L 368.064647 407.929966 
"/>
    <path clip-path="url(#p5c38a68490)" d="M 370.521818 358.2 
L 369.760909 356.882067 
L 368.239091 356.882067 
L 367.478182 358.2 
L 368.239091 359.517933 
L 369.760909 359.517933 
L 370.521818 358.2 
L 369.760909 356.882067 
"/>
    <path clip-path="url(#p5c38a68490)" d="M 369.935353 308.470034 
L 370.247138 309.405387 
L 371.80606 307.846465 
L 372.117844 318.135351 
L 366.19394 309.717172 
L 368.376431 310.028956 
L 368.064647 309.093603 
L 369.935353 308.470034 
"/>
    <path clip-path="url(#p5c38a68490)" d="M 370.443723 258.882395 
L 372.348242 264.59595 
L 374.754448 262.189744 
L 375.235689 278.070703 
L 366.092107 265.077191 
L 369.460795 265.558433 
L 367.556277 259.844878 
L 370.443723 258.882395 
"/>
    <path clip-path="url(#p5c38a68490)" d="M 370.443723 209.464213 
L 375.466086 224.531302 
L 377.872292 222.125096 
L 378.353533 238.006054 
L 369.209951 225.012543 
L 372.578639 225.493784 
L 367.556277 210.426696 
L 370.443723 209.464213 
"/>
    <path clip-path="url(#p5c38a68490)" d="M 370.443723 160.046032 
L 378.583931 184.466653 
L 380.990136 182.060447 
L 381.471378 197.941406 
L 372.327795 184.947894 
L 375.696484 185.429135 
L 367.556277 161.008514 
L 370.443723 160.046032 
"/>
    <path clip-path="url(#p5c38a68490)" d="M 370.443723 110.62785 
L 381.701775 144.402004 
L 384.107981 141.995799 
L 384.589222 157.876757 
L 375.44564 144.883246 
L 378.814328 145.364487 
L 367.556277 111.590332 
L 370.443723 110.62785 
"/>
    <path clip-path="url(#p5c38a68490)" d="M 418.294113 605.802752 
L 407.311476 575.05137 
L 404.956999 577.508216 
L 404.138051 561.641087 
L 413.555959 574.437159 
L 410.177796 574.027684 
L 421.160433 604.779066 
L 418.294113 605.802752 
"/>
    <path clip-path="url(#p5c38a68490)" d="M 418.297078 556.392798 
L 410.506338 534.968262 
L 408.166019 537.438598 
L 407.255895 521.576439 
L 416.747187 534.318174 
L 413.366727 533.92812 
L 421.157467 555.352656 
L 418.297078 556.392798 
"/>
    <path clip-path="url(#p5c38a68490)" d="M 418.30235 506.988891 
L 413.757931 494.870441 
L 411.442432 497.364056 
L 410.37374 481.51179 
L 419.991968 494.15798 
L 416.607777 493.801749 
L 421.152195 505.920199 
L 418.30235 506.988891 
"/>
    <path clip-path="url(#p5c38a68490)" d="M 418.3143 457.601553 
L 417.165313 454.729085 
L 414.904557 457.272436 
L 413.491584 441.447142 
L 423.382393 453.881301 
L 419.991258 453.598707 
L 421.140245 456.471175 
L 418.3143 457.601553 
"/>
    <path clip-path="url(#p5c38a68490)" d="M 419.103704 407.929966 
L 418.791919 407.306397 
L 417.856566 408.553535 
L 416.609428 401.382493 
L 421.597979 406.682828 
L 420.039057 406.682828 
L 420.350842 407.306397 
L 419.103704 407.929966 
"/>
    <path clip-path="url(#p5c38a68490)" d="M 420.039057 358.2 
L 420.039057 358.511784 
L 420.662626 358.2 
L 419.727273 361.317844 
L 418.791919 358.2 
L 419.415488 358.511784 
L 419.415488 358.2 
L 420.039057 358.2 
"/>
    <path clip-path="url(#p5c38a68490)" d="M 420.97441 308.470034 
L 421.286195 309.717172 
L 423.468686 307.846465 
L 422.845117 321.253196 
L 415.985859 309.717172 
L 418.791919 310.34074 
L 418.480135 309.093603 
L 420.97441 308.470034 
"/>
    <path clip-path="url(#p5c38a68490)" d="M 421.190537 258.945561 
L 423.663546 267.60109 
L 426.171999 265.301674 
L 425.962962 281.188547 
L 417.392412 267.810128 
L 420.737016 268.437241 
L 418.264008 259.781712 
L 421.190537 258.945561 
"/>
    <path clip-path="url(#p5c38a68490)" d="M 421.18491 209.508163 
L 426.602822 227.56787 
L 429.080806 225.23565 
L 429.080806 241.123899 
L 420.334981 227.859398 
L 423.687547 228.442453 
L 418.269635 210.382746 
L 421.18491 209.508163 
"/>
    <path clip-path="url(#p5c38a68490)" d="M 421.181795 160.079728 
L 429.625265 187.521008 
L 432.086764 185.171396 
L 432.19865 201.05925 
L 423.359633 187.856667 
L 426.716222 188.416098 
L 418.272751 160.974818 
L 421.181795 160.079728 
"/>
    <path clip-path="url(#p5c38a68490)" d="M 421.179818 110.655171 
L 432.683757 147.467776 
L 435.134927 145.107391 
L 435.316495 160.994601 
L 426.419657 147.830912 
L 429.778667 148.375617 
L 418.274728 111.563011 
L 421.179818 110.655171 
"/>
    <path clip-path="url(#p5c38a68490)" d="M 469.034163 605.83721 
L 458.361649 578.088674 
L 456.067185 580.601658 
L 454.865323 564.758932 
L 464.589479 577.323852 
L 461.202414 576.996072 
L 471.874928 604.744608 
L 469.034163 605.83721 
"/>
    <path clip-path="url(#p5c38a68490)" d="M 469.041573 556.437916 
L 461.656897 537.976227 
L 459.396141 540.519578 
L 457.983168 524.694283 
L 467.873977 537.128443 
L 464.482842 536.845849 
L 471.867518 555.307538 
L 469.041573 556.437916 
"/>
    <path clip-path="url(#p5c38a68490)" d="M 469.055774 507.054019 
L 465.097503 497.818053 
L 462.899433 500.415771 
L 461.101012 484.629635 
L 471.292063 496.81893 
L 467.895046 496.619106 
L 471.853317 505.855072 
L 469.055774 507.054019 
"/>
    <path clip-path="url(#p5c38a68490)" d="M 469.207408 457.659933 
L 468.583839 456.412795 
L 466.713132 458.90707 
L 464.218857 444.564986 
L 474.195959 455.165657 
L 471.078114 455.165657 
L 471.701683 456.412795 
L 469.207408 457.659933 
"/>
    <path clip-path="url(#p5c38a68490)" d="M 470.142761 407.929966 
L 469.830977 407.618182 
L 469.519192 408.553535 
L 467.336701 404.500337 
L 471.389899 406.682828 
L 470.454545 406.994613 
L 470.76633 407.306397 
L 470.142761 407.929966 
"/>
    <path clip-path="url(#p5c38a68490)" d="M 471.078114 358.2 
L 471.078114 358.823569 
L 472.325252 358.2 
L 470.454545 364.435689 
L 468.583839 358.2 
L 469.830977 358.823569 
L 469.830977 358.2 
L 471.078114 358.2 
"/>
    <path clip-path="url(#p5c38a68490)" d="M 471.946811 308.483365 
L 472.378577 310.642198 
L 475.064655 308.553026 
L 473.57239 324.37104 
L 466.111062 310.343744 
L 469.394046 311.239104 
L 468.96228 309.080271 
L 471.946811 308.483365 
"/>
    <path clip-path="url(#p5c38a68490)" d="M 471.930926 258.994541 
L 474.844759 270.649872 
L 477.428425 268.435301 
L 476.690234 284.306392 
L 468.570142 270.649872 
L 471.891998 271.388062 
L 468.978165 259.732731 
L 471.930926 258.994541 
"/>
    <path clip-path="url(#p5c38a68490)" d="M 471.922741 209.545038 
L 477.672522 230.62757 
L 480.208496 228.358541 
L 479.808079 244.241743 
L 471.399325 230.761042 
L 474.736132 231.428404 
L 468.98635 210.345871 
L 471.922741 209.545038 
"/>
    <path clip-path="url(#p5c38a68490)" d="M 471.91781 160.109197 
L 480.626507 190.589637 
L 483.134961 188.290221 
L 482.925923 204.177094 
L 474.355373 190.798675 
L 477.699978 191.425788 
L 468.991281 160.945348 
L 471.91781 160.109197 
"/>
    <path clip-path="url(#p5c38a68490)" d="M 471.914525 110.679685 
L 483.639095 150.543221 
L 486.129649 148.22443 
L 486.043767 164.112446 
L 477.369769 150.800865 
L 480.719135 151.402033 
L 468.994566 111.538497 
L 471.914525 110.679685 
"/>
    <path clip-path="url(#p5c38a68490)" d="M 519.777063 605.876224 
L 509.455673 581.104888 
L 507.231477 583.680273 
L 505.592596 567.876776 
L 515.660009 580.168385 
L 512.265184 579.934259 
L 522.586573 604.705594 
L 519.777063 605.876224 
"/>
    <path clip-path="url(#p5c38a68490)" d="M 519.791163 556.490796 
L 512.882406 540.946092 
L 510.719164 543.572885 
L 508.710441 527.812128 
L 519.063095 539.864471 
L 515.663716 539.709954 
L 522.572473 555.254658 
L 519.791163 556.490796 
"/>
    <path clip-path="url(#p5c38a68490)" d="M 519.820663 507.135123 
L 516.592329 500.678457 
L 514.550596 503.400768 
L 511.828285 487.747479 
L 522.717529 499.317301 
L 519.314641 499.317301 
L 522.542974 505.773968 
L 519.820663 507.135123 
"/>
    <path clip-path="url(#p5c38a68490)" d="M 520.246465 457.659933 
L 519.622896 456.724579 
L 518.375758 458.90707 
L 514.946129 447.68283 
L 523.987878 455.165657 
L 521.493603 455.477441 
L 522.117172 456.412795 
L 520.246465 457.659933 
"/>
    <path clip-path="url(#p5c38a68490)" d="M 521.181818 407.929966 
L 520.870034 407.929966 
L 521.181818 408.553535 
L 518.063974 407.618182 
L 521.181818 406.682828 
L 520.870034 407.306397 
L 521.181818 407.306397 
L 521.181818 407.929966 
"/>
    <path clip-path="url(#p5c38a68490)" d="M 522.117172 358.2 
L 522.117172 359.135353 
L 523.987878 358.2 
L 521.181818 367.553533 
L 518.375758 358.2 
L 520.246465 359.135353 
L 520.246465 358.2 
L 522.117172 358.2 
"/>
    <path clip-path="url(#p5c38a68490)" d="M 522.68293 308.531633 
L 523.549106 313.728689 
L 526.301146 311.727206 
L 524.299663 327.488885 
L 517.294472 313.228319 
L 520.546882 314.22906 
L 519.680706 309.032004 
L 522.68293 308.531633 
"/>
    <path clip-path="url(#p5c38a68490)" d="M 522.667397 259.033508 
L 525.931928 273.723894 
L 528.572957 271.578058 
L 527.417507 287.424236 
L 519.659482 273.55883 
L 522.960769 274.384152 
L 519.696239 259.693765 
L 522.667397 259.033508 
"/>
    <path clip-path="url(#p5c38a68490)" d="M 522.658199 209.576359 
L 528.689876 233.703068 
L 531.273542 231.488497 
L 530.535351 247.359587 
L 522.415259 233.703068 
L 525.737115 234.441258 
L 519.705438 210.31455 
L 522.658199 209.576359 
"/>
    <path clip-path="url(#p5c38a68490)" d="M 522.652252 160.135157 
L 531.594588 193.668918 
L 534.14334 191.414253 
L 533.653196 207.294939 
L 525.320737 193.766947 
L 528.653721 194.453149 
L 519.711384 160.919388 
L 522.652252 160.135157 
"/>
    <path clip-path="url(#p5c38a68490)" d="M 522.648117 110.701786 
L 534.571592 153.626293 
L 537.096884 151.345384 
L 536.77104 167.23029 
L 528.29909 153.789215 
L 531.638993 154.440904 
L 519.715519 111.516396 
L 522.648117 110.701786 
"/>
    <path clip-path="url(#p5c38a68490)" d="M 570.523679 605.920642 
L 560.602052 584.093064 
L 558.460961 586.737942 
L 556.319869 570.994621 
L 566.773434 582.959545 
L 563.372877 582.833598 
L 573.294503 604.661176 
L 570.523679 605.920642 
"/>
    <path clip-path="url(#p5c38a68490)" d="M 570.547935 556.553305 
L 564.201758 543.86095 
L 562.160024 546.583261 
L 559.437713 530.929972 
L 570.326958 542.499794 
L 566.924069 542.499794 
L 573.270246 555.192149 
L 570.547935 556.553305 
"/>
    <path clip-path="url(#p5c38a68490)" d="M 570.604143 507.237514 
L 568.29733 503.392827 
L 566.470403 506.263714 
L 562.555558 490.865323 
L 574.300093 501.5659 
L 570.907227 501.826889 
L 573.214039 505.671576 
L 570.604143 507.237514 
"/>
    <path clip-path="url(#p5c38a68490)" d="M 571.285522 457.659933 
L 570.661953 457.036364 
L 570.038384 458.90707 
L 565.673402 450.800675 
L 573.779798 455.165657 
L 571.909091 455.789226 
L 572.53266 456.412795 
L 571.285522 457.659933 
"/>
    <path clip-path="url(#p5c38a68490)" d="M 572.220875 407.929966 
L 571.909091 408.241751 
L 572.844444 408.553535 
L 568.791247 410.736026 
L 570.973738 406.682828 
L 571.285522 407.618182 
L 571.597306 407.306397 
L 572.220875 407.929966 
"/>
    <path clip-path="url(#p5c38a68490)" d="M 573.156229 358.2 
L 573.156229 359.447138 
L 575.650504 358.2 
L 571.909091 370.671378 
L 568.167678 358.2 
L 570.661953 359.447138 
L 570.661953 358.2 
L 573.156229 358.2 
"/>
    <path clip-path="url(#p5c38a68490)" d="M 573.415614 308.566601 
L 574.5965 316.832803 
L 577.394329 314.895845 
L 575.026935 330.606729 
L 568.35519 316.18715 
L 571.583454 317.263238 
L 570.402568 308.997036 
L 573.415614 308.566601 
"/>
    <path clip-path="url(#p5c38a68490)" d="M 573.401356 259.065183 
L 576.950967 276.813238 
L 579.637045 274.724066 
L 578.14478 290.54208 
L 570.683452 276.514785 
L 573.966436 277.410144 
L 570.416825 259.662089 
L 573.401356 259.065183 
"/>
    <path clip-path="url(#p5c38a68490)" d="M 573.391937 209.603259 
L 579.665713 236.78962 
L 582.28921 234.622384 
L 581.262624 250.477432 
L 573.392133 236.675555 
L 576.70002 237.474011 
L 570.426245 210.28765 
L 573.391937 209.603259 
"/>
    <path clip-path="url(#p5c38a68490)" d="M 573.385471 160.158178 
L 582.534993 196.756264 
L 585.118659 194.541693 
L 584.380469 210.412783 
L 576.260376 196.756264 
L 579.582232 197.494454 
L 570.43271 160.896368 
L 573.385471 160.158178 
"/>
    <path clip-path="url(#p5c38a68490)" d="M 573.380803 110.721798 
L 585.484392 156.715438 
L 588.040522 154.469141 
L 587.498313 170.348135 
L 579.210253 156.792896 
L 582.540969 157.490023 
L 570.437379 111.496383 
L 573.380803 110.721798 
"/>
    <path clip-path="url(#p5c38a68490)" d="M 621.275208 605.971487 
L 611.811186 587.043443 
L 609.769453 589.765754 
L 607.047142 574.112465 
L 617.936386 585.682287 
L 614.533497 585.682287 
L 623.997519 604.610331 
L 621.275208 605.971487 
"/>
    <path clip-path="url(#p5c38a68490)" d="M 621.315055 556.627761 
L 615.638977 546.694624 
L 613.751394 549.525998 
L 610.164986 534.047816 
L 621.679243 544.995799 
L 618.281594 545.184557 
L 623.957672 555.117694 
L 621.315055 556.627761 
"/>
    <path clip-path="url(#p5c38a68490)" d="M 621.418909 507.367636 
L 620.283194 505.85335 
L 618.761376 508.896986 
L 613.28283 493.983168 
L 626.066103 503.418441 
L 622.718103 504.027168 
L 623.853818 505.541455 
L 621.418909 507.367636 
"/>
    <path clip-path="url(#p5c38a68490)" d="M 622.324579 457.659933 
L 621.70101 457.348148 
L 621.70101 458.90707 
L 616.400675 453.918519 
L 623.571717 455.165657 
L 622.324579 456.10101 
L 622.948148 456.412795 
L 622.324579 457.659933 
"/>
    <path clip-path="url(#p5c38a68490)" d="M 623.259933 407.929966 
L 622.948148 408.553535 
L 624.50707 408.553535 
L 619.518519 413.853871 
L 620.765657 406.682828 
L 621.70101 407.929966 
L 622.012795 407.306397 
L 623.259933 407.929966 
"/>
    <path clip-path="url(#p5c38a68490)" d="M 624.158182 358.2 
L 624.158182 360.092858 
L 627.201818 358.57104 
L 622.636364 373.789222 
L 618.070909 358.57104 
L 621.114545 360.092858 
L 621.114545 358.2 
L 624.158182 358.2 
"/>
    <path clip-path="url(#p5c38a68490)" d="M 624.14643 308.59306 
L 625.56545 319.945216 
L 628.396824 318.057633 
L 625.754208 333.724573 
L 619.336425 319.190183 
L 622.545317 320.322733 
L 621.126297 308.970576 
L 624.14643 308.59306 
"/>
    <path clip-path="url(#p5c38a68490)" d="M 624.133635 259.091405 
L 627.919244 279.912254 
L 630.641555 277.87052 
L 628.872052 293.659925 
L 621.657928 279.503907 
L 624.924701 280.456716 
L 621.139093 259.635867 
L 624.133635 259.091405 
"/>
    <path clip-path="url(#p5c38a68490)" d="M 624.124401 209.626589 
L 630.608148 239.884074 
L 633.265358 237.758306 
L 631.989897 253.595276 
L 624.337133 239.671497 
L 627.632073 240.521804 
L 621.148326 210.26432 
L 624.124401 209.626589 
"/>
    <path clip-path="url(#p5c38a68490)" d="M 624.117728 160.178717 
L 633.452099 199.849796 
L 636.066271 197.671319 
L 635.107741 213.530628 
L 627.178087 199.762657 
L 630.489371 200.546908 
L 621.155 160.875829 
L 624.117728 160.178717 
"/>
    <path clip-path="url(#p5c38a68490)" d="M 624.112744 110.739996 
L 636.38011 159.809459 
L 638.963776 157.594889 
L 638.225586 173.465979 
L 630.105493 159.809459 
L 633.427349 160.54765 
L 621.159983 111.478186 
L 624.112744 110.739996 
"/>
    <path clip-path="url(#p5c38a68490)" d="M 113.887256 605.660004 
L 101.61989 556.590541 
L 99.036224 558.805111 
L 99.774414 542.934021 
L 107.894507 556.590541 
L 104.572651 555.85235 
L 116.840017 604.921814 
L 113.887256 605.660004 
"/>
    <path clip-path="url(#p5c38a68490)" d="M 113.882272 556.221283 
L 104.547901 516.550204 
L 101.933729 518.728681 
L 102.892259 502.869372 
L 110.821913 516.637343 
L 107.510629 515.853092 
L 116.845 555.524171 
L 113.882272 556.221283 
"/>
    <path clip-path="url(#p5c38a68490)" d="M 113.875599 506.773411 
L 107.391852 476.515926 
L 104.734642 478.641694 
L 106.010103 462.804724 
L 113.662867 476.728503 
L 110.367927 475.878196 
L 116.851674 506.13568 
L 113.875599 506.773411 
"/>
    <path clip-path="url(#p5c38a68490)" d="M 113.866365 457.308595 
L 110.080756 436.487746 
L 107.358445 438.52948 
L 109.127948 422.740075 
L 116.342072 436.896093 
L 113.075299 435.943284 
L 116.860907 456.764133 
L 113.866365 457.308595 
"/>
    <path clip-path="url(#p5c38a68490)" d="M 113.85357 407.80694 
L 112.43455 396.454784 
L 109.603176 398.342367 
L 112.245792 382.675427 
L 118.663575 397.209817 
L 115.454683 396.077267 
L 116.873703 407.429424 
L 113.85357 407.80694 
"/>
    <path clip-path="url(#p5c38a68490)" d="M 113.841818 358.2 
L 113.841818 356.307142 
L 110.798182 357.82896 
L 115.363636 342.610778 
L 119.929091 357.82896 
L 116.885455 356.307142 
L 116.885455 358.2 
L 113.841818 358.2 
"/>
    <path clip-path="url(#p5c38a68490)" d="M 114.740067 308.470034 
L 115.051852 307.846465 
L 113.49293 307.846465 
L 118.481481 302.546129 
L 117.234343 309.717172 
L 116.29899 308.470034 
L 115.987205 309.093603 
L 114.740067 308.470034 
"/>
    <path clip-path="url(#p5c38a68490)" d="M 115.675421 258.740067 
L 116.29899 259.051852 
L 116.29899 257.49293 
L 121.599325 262.481481 
L 114.428283 261.234343 
L 115.675421 260.29899 
L 115.051852 259.987205 
L 115.675421 258.740067 
"/>
    <path clip-path="url(#p5c38a68490)" d="M 116.581091 209.032364 
L 117.716806 210.54665 
L 119.238624 207.503014 
L 124.71717 222.416832 
L 111.933897 212.981559 
L 115.281897 212.372832 
L 114.146182 210.858545 
L 116.581091 209.032364 
"/>
    <path clip-path="url(#p5c38a68490)" d="M 116.684945 159.772239 
L 122.361023 169.705376 
L 124.248606 166.874002 
L 127.835014 182.352184 
L 116.320757 171.404201 
L 119.718406 171.215443 
L 114.042328 161.282306 
L 116.684945 159.772239 
"/>
    <path clip-path="url(#p5c38a68490)" d="M 116.724792 110.428513 
L 126.188814 129.356557 
L 128.230547 126.634246 
L 130.952858 142.287535 
L 120.063614 130.717713 
L 123.466503 130.717713 
L 114.002481 111.789669 
L 116.724792 110.428513 
"/>
   </g>
   <g id="matplotlib.axis_1">
    <g id="xtick_1">
     <g id="line2d_1">
      <path clip-path="url(#p5c38a68490)" d="M 115.363636 630 
L 115.363636 86.4 
" style="fill:none;stroke:#b0b0b0;stroke-linecap:square;stroke-width:0.8;"/>
     </g>
     <g id="line2d_2">
      <defs>
       <path d="M 0 0 
L 0 3.5 
" id="m0e7e900b38" style="stroke:#000000;stroke-width:0.8;"/>
      </defs>
      <g>
       <use style="stroke:#000000;stroke-width:0.8;" x="115.363636" xlink:href="#m0e7e900b38" y="630"/>
      </g>
     </g>
     <g id="text_1">
      <!-- −1.00 -->
      <defs>
       <path d="M 10.59375 35.5 
L 73.1875 35.5 
L 73.1875 27.203125 
L 10.59375 27.203125 
z
" id="DejaVuSans-2212"/>
       <path d="M 12.40625 8.296875 
L 28.515625 8.296875 
L 28.515625 63.921875 
L 10.984375 60.40625 
L 10.984375 69.390625 
L 28.421875 72.90625 
L 38.28125 72.90625 
L 38.28125 8.296875 
L 54.390625 8.296875 
L 54.390625 0 
L 12.40625 0 
z
" id="DejaVuSans-31"/>
       <path d="M 10.6875 12.40625 
L 21 12.40625 
L 21 0 
L 10.6875 0 
z
" id="DejaVuSans-2e"/>
       <path d="M 31.78125 66.40625 
Q 24.171875 66.40625 20.328125 58.90625 
Q 16.5 51.421875 16.5 36.375 
Q 16.5 21.390625 20.328125 13.890625 
Q 24.171875 6.390625 31.78125 6.390625 
Q 39.453125 6.390625 43.28125 13.890625 
Q 47.125 21.390625 47.125 36.375 
Q 47.125 51.421875 43.28125 58.90625 
Q 39.453125 66.40625 31.78125 66.40625 
z
M 31.78125 74.21875 
Q 44.046875 74.21875 50.515625 64.515625 
Q 56.984375 54.828125 56.984375 36.375 
Q 56.984375 17.96875 50.515625 8.265625 
Q 44.046875 -1.421875 31.78125 -1.421875 
Q 19.53125 -1.421875 13.0625 8.265625 
Q 6.59375 17.96875 6.59375 36.375 
Q 6.59375 54.828125 13.0625 64.515625 
Q 19.53125 74.21875 31.78125 74.21875 
z
" id="DejaVuSans-30"/>
      </defs>
      <g transform="translate(93.911918 647.637812)scale(0.14 -0.14)">
       <use xlink:href="#DejaVuSans-2212"/>
       <use x="83.789062" xlink:href="#DejaVuSans-31"/>
       <use x="147.412109" xlink:href="#DejaVuSans-2e"/>
       <use x="179.199219" xlink:href="#DejaVuSans-30"/>
       <use x="242.822266" xlink:href="#DejaVuSans-30"/>
      </g>
     </g>
    </g>
    <g id="xtick_2">
     <g id="line2d_3">
      <path clip-path="url(#p5c38a68490)" d="M 178.772727 630 
L 178.772727 86.4 
" style="fill:none;stroke:#b0b0b0;stroke-linecap:square;stroke-width:0.8;"/>
     </g>
     <g id="line2d_4">
      <g>
       <use style="stroke:#000000;stroke-width:0.8;" x="178.772727" xlink:href="#m0e7e900b38" y="630"/>
      </g>
     </g>
     <g id="text_2">
      <!-- −0.75 -->
      <defs>
       <path d="M 8.203125 72.90625 
L 55.078125 72.90625 
L 55.078125 68.703125 
L 28.609375 0 
L 18.3125 0 
L 43.21875 64.59375 
L 8.203125 64.59375 
z
" id="DejaVuSans-37"/>
       <path d="M 10.796875 72.90625 
L 49.515625 72.90625 
L 49.515625 64.59375 
L 19.828125 64.59375 
L 19.828125 46.734375 
Q 21.96875 47.46875 24.109375 47.828125 
Q 26.265625 48.1875 28.421875 48.1875 
Q 40.625 48.1875 47.75 41.5 
Q 54.890625 34.8125 54.890625 23.390625 
Q 54.890625 11.625 47.5625 5.09375 
Q 40.234375 -1.421875 26.90625 -1.421875 
Q 22.3125 -1.421875 17.546875 -0.640625 
Q 12.796875 0.140625 7.71875 1.703125 
L 7.71875 11.625 
Q 12.109375 9.234375 16.796875 8.0625 
Q 21.484375 6.890625 26.703125 6.890625 
Q 35.15625 6.890625 40.078125 11.328125 
Q 45.015625 15.765625 45.015625 23.390625 
Q 45.015625 31 40.078125 35.4375 
Q 35.15625 39.890625 26.703125 39.890625 
Q 22.75 39.890625 18.8125 39.015625 
Q 14.890625 38.140625 10.796875 36.28125 
z
" id="DejaVuSans-35"/>
      </defs>
      <g transform="translate(157.321009 647.637812)scale(0.14 -0.14)">
       <use xlink:href="#DejaVuSans-2212"/>
       <use x="83.789062" xlink:href="#DejaVuSans-30"/>
       <use x="147.412109" xlink:href="#DejaVuSans-2e"/>
       <use x="179.199219" xlink:href="#DejaVuSans-37"/>
       <use x="242.822266" xlink:href="#DejaVuSans-35"/>
      </g>
     </g>
    </g>
    <g id="xtick_3">
     <g id="line2d_5">
      <path clip-path="url(#p5c38a68490)" d="M 242.181818 630 
L 242.181818 86.4 
" style="fill:none;stroke:#b0b0b0;stroke-linecap:square;stroke-width:0.8;"/>
     </g>
     <g id="line2d_6">
      <g>
       <use style="stroke:#000000;stroke-width:0.8;" x="242.181818" xlink:href="#m0e7e900b38" y="630"/>
      </g>
     </g>
     <g id="text_3">
      <!-- −0.50 -->
      <g transform="translate(220.730099 647.637812)scale(0.14 -0.14)">
       <use xlink:href="#DejaVuSans-2212"/>
       <use x="83.789062" xlink:href="#DejaVuSans-30"/>
       <use x="147.412109" xlink:href="#DejaVuSans-2e"/>
       <use x="179.199219" xlink:href="#DejaVuSans-35"/>
       <use x="242.822266" xlink:href="#DejaVuSans-30"/>
      </g>
     </g>
    </g>
    <g id="xtick_4">
     <g id="line2d_7">
      <path clip-path="url(#p5c38a68490)" d="M 305.590909 630 
L 305.590909 86.4 
" style="fill:none;stroke:#b0b0b0;stroke-linecap:square;stroke-width:0.8;"/>
     </g>
     <g id="line2d_8">
      <g>
       <use style="stroke:#000000;stroke-width:0.8;" x="305.590909" xlink:href="#m0e7e900b38" y="630"/>
      </g>
     </g>
     <g id="text_4">
      <!-- −0.25 -->
      <defs>
       <path d="M 19.1875 8.296875 
L 53.609375 8.296875 
L 53.609375 0 
L 7.328125 0 
L 7.328125 8.296875 
Q 12.9375 14.109375 22.625 23.890625 
Q 32.328125 33.6875 34.8125 36.53125 
Q 39.546875 41.84375 41.421875 45.53125 
Q 43.3125 49.21875 43.3125 52.78125 
Q 43.3125 58.59375 39.234375 62.25 
Q 35.15625 65.921875 28.609375 65.921875 
Q 23.96875 65.921875 18.8125 64.3125 
Q 13.671875 62.703125 7.8125 59.421875 
L 7.8125 69.390625 
Q 13.765625 71.78125 18.9375 73 
Q 24.125 74.21875 28.421875 74.21875 
Q 39.75 74.21875 46.484375 68.546875 
Q 53.21875 62.890625 53.21875 53.421875 
Q 53.21875 48.921875 51.53125 44.890625 
Q 49.859375 40.875 45.40625 35.40625 
Q 44.1875 33.984375 37.640625 27.21875 
Q 31.109375 20.453125 19.1875 8.296875 
z
" id="DejaVuSans-32"/>
      </defs>
      <g transform="translate(284.13919 647.637812)scale(0.14 -0.14)">
       <use xlink:href="#DejaVuSans-2212"/>
       <use x="83.789062" xlink:href="#DejaVuSans-30"/>
       <use x="147.412109" xlink:href="#DejaVuSans-2e"/>
       <use x="179.199219" xlink:href="#DejaVuSans-32"/>
       <use x="242.822266" xlink:href="#DejaVuSans-35"/>
      </g>
     </g>
    </g>
    <g id="xtick_5">
     <g id="line2d_9">
      <path clip-path="url(#p5c38a68490)" d="M 369 630 
L 369 86.4 
" style="fill:none;stroke:#b0b0b0;stroke-linecap:square;stroke-width:0.8;"/>
     </g>
     <g id="line2d_10">
      <g>
       <use style="stroke:#000000;stroke-width:0.8;" x="369" xlink:href="#m0e7e900b38" y="630"/>
      </g>
     </g>
     <g id="text_5">
      <!-- 0.00 -->
      <g transform="translate(353.414062 647.637812)scale(0.14 -0.14)">
       <use xlink:href="#DejaVuSans-30"/>
       <use x="63.623047" xlink:href="#DejaVuSans-2e"/>
       <use x="95.410156" xlink:href="#DejaVuSans-30"/>
       <use x="159.033203" xlink:href="#DejaVuSans-30"/>
      </g>
     </g>
    </g>
    <g id="xtick_6">
     <g id="line2d_11">
      <path clip-path="url(#p5c38a68490)" d="M 432.409091 630 
L 432.409091 86.4 
" style="fill:none;stroke:#b0b0b0;stroke-linecap:square;stroke-width:0.8;"/>
     </g>
     <g id="line2d_12">
      <g>
       <use style="stroke:#000000;stroke-width:0.8;" x="432.409091" xlink:href="#m0e7e900b38" y="630"/>
      </g>
     </g>
     <g id="text_6">
      <!-- 0.25 -->
      <g transform="translate(416.823153 647.637812)scale(0.14 -0.14)">
       <use xlink:href="#DejaVuSans-30"/>
       <use x="63.623047" xlink:href="#DejaVuSans-2e"/>
       <use x="95.410156" xlink:href="#DejaVuSans-32"/>
       <use x="159.033203" xlink:href="#DejaVuSans-35"/>
      </g>
     </g>
    </g>
    <g id="xtick_7">
     <g id="line2d_13">
      <path clip-path="url(#p5c38a68490)" d="M 495.818182 630 
L 495.818182 86.4 
" style="fill:none;stroke:#b0b0b0;stroke-linecap:square;stroke-width:0.8;"/>
     </g>
     <g id="line2d_14">
      <g>
       <use style="stroke:#000000;stroke-width:0.8;" x="495.818182" xlink:href="#m0e7e900b38" y="630"/>
      </g>
     </g>
     <g id="text_7">
      <!-- 0.50 -->
      <g transform="translate(480.232244 647.637812)scale(0.14 -0.14)">
       <use xlink:href="#DejaVuSans-30"/>
       <use x="63.623047" xlink:href="#DejaVuSans-2e"/>
       <use x="95.410156" xlink:href="#DejaVuSans-35"/>
       <use x="159.033203" xlink:href="#DejaVuSans-30"/>
      </g>
     </g>
    </g>
    <g id="xtick_8">
     <g id="line2d_15">
      <path clip-path="url(#p5c38a68490)" d="M 559.227273 630 
L 559.227273 86.4 
" style="fill:none;stroke:#b0b0b0;stroke-linecap:square;stroke-width:0.8;"/>
     </g>
     <g id="line2d_16">
      <g>
       <use style="stroke:#000000;stroke-width:0.8;" x="559.227273" xlink:href="#m0e7e900b38" y="630"/>
      </g>
     </g>
     <g id="text_8">
      <!-- 0.75 -->
      <g transform="translate(543.641335 647.637812)scale(0.14 -0.14)">
       <use xlink:href="#DejaVuSans-30"/>
       <use x="63.623047" xlink:href="#DejaVuSans-2e"/>
       <use x="95.410156" xlink:href="#DejaVuSans-37"/>
       <use x="159.033203" xlink:href="#DejaVuSans-35"/>
      </g>
     </g>
    </g>
    <g id="xtick_9">
     <g id="line2d_17">
      <path clip-path="url(#p5c38a68490)" d="M 622.636364 630 
L 622.636364 86.4 
" style="fill:none;stroke:#b0b0b0;stroke-linecap:square;stroke-width:0.8;"/>
     </g>
     <g id="line2d_18">
      <g>
       <use style="stroke:#000000;stroke-width:0.8;" x="622.636364" xlink:href="#m0e7e900b38" y="630"/>
      </g>
     </g>
     <g id="text_9">
      <!-- 1.00 -->
      <g transform="translate(607.050426 647.637812)scale(0.14 -0.14)">
       <use xlink:href="#DejaVuSans-31"/>
       <use x="63.623047" xlink:href="#DejaVuSans-2e"/>
       <use x="95.410156" xlink:href="#DejaVuSans-30"/>
       <use x="159.033203" xlink:href="#DejaVuSans-30"/>
      </g>
     </g>
    </g>
    <g id="text_10">
     <!-- $x_1$ -->
     <defs>
      <path d="M 60.015625 54.6875 
L 34.90625 27.875 
L 50.296875 0 
L 39.984375 0 
L 28.421875 21.6875 
L 8.296875 0 
L -2.59375 0 
L 24.3125 28.8125 
L 10.015625 54.6875 
L 20.3125 54.6875 
L 30.8125 34.90625 
L 49.125 54.6875 
z
" id="DejaVuSans-Oblique-78"/>
     </defs>
     <g transform="translate(355.625 673.545469)scale(0.25 -0.25)">
      <use transform="translate(0 0.3125)" xlink:href="#DejaVuSans-Oblique-78"/>
      <use transform="translate(59.179688 -16.09375)scale(0.7)" xlink:href="#DejaVuSans-31"/>
     </g>
    </g>
   </g>
   <g id="matplotlib.axis_2">
    <g id="ytick_1">
     <g id="line2d_19">
      <path clip-path="url(#p5c38a68490)" d="M 90 605.290909 
L 648 605.290909 
" style="fill:none;stroke:#b0b0b0;stroke-linecap:square;stroke-width:0.8;"/>
     </g>
     <g id="line2d_20">
      <defs>
       <path d="M 0 0 
L -3.5 0 
" id="mf2c6d99fed" style="stroke:#000000;stroke-width:0.8;"/>
      </defs>
      <g>
       <use style="stroke:#000000;stroke-width:0.8;" x="90" xlink:href="#mf2c6d99fed" y="605.290909"/>
      </g>
     </g>
     <g id="text_11">
      <!-- −1.00 -->
      <g transform="translate(40.096562 610.609815)scale(0.14 -0.14)">
       <use xlink:href="#DejaVuSans-2212"/>
       <use x="83.789062" xlink:href="#DejaVuSans-31"/>
       <use x="147.412109" xlink:href="#DejaVuSans-2e"/>
       <use x="179.199219" xlink:href="#DejaVuSans-30"/>
       <use x="242.822266" xlink:href="#DejaVuSans-30"/>
      </g>
     </g>
    </g>
    <g id="ytick_2">
     <g id="line2d_21">
      <path clip-path="url(#p5c38a68490)" d="M 90 543.518182 
L 648 543.518182 
" style="fill:none;stroke:#b0b0b0;stroke-linecap:square;stroke-width:0.8;"/>
     </g>
     <g id="line2d_22">
      <g>
       <use style="stroke:#000000;stroke-width:0.8;" x="90" xlink:href="#mf2c6d99fed" y="543.518182"/>
      </g>
     </g>
     <g id="text_12">
      <!-- −0.75 -->
      <g transform="translate(40.096562 548.837088)scale(0.14 -0.14)">
       <use xlink:href="#DejaVuSans-2212"/>
       <use x="83.789062" xlink:href="#DejaVuSans-30"/>
       <use x="147.412109" xlink:href="#DejaVuSans-2e"/>
       <use x="179.199219" xlink:href="#DejaVuSans-37"/>
       <use x="242.822266" xlink:href="#DejaVuSans-35"/>
      </g>
     </g>
    </g>
    <g id="ytick_3">
     <g id="line2d_23">
      <path clip-path="url(#p5c38a68490)" d="M 90 481.745455 
L 648 481.745455 
" style="fill:none;stroke:#b0b0b0;stroke-linecap:square;stroke-width:0.8;"/>
     </g>
     <g id="line2d_24">
      <g>
       <use style="stroke:#000000;stroke-width:0.8;" x="90" xlink:href="#mf2c6d99fed" y="481.745455"/>
      </g>
     </g>
     <g id="text_13">
      <!-- −0.50 -->
      <g transform="translate(40.096562 487.064361)scale(0.14 -0.14)">
       <use xlink:href="#DejaVuSans-2212"/>
       <use x="83.789062" xlink:href="#DejaVuSans-30"/>
       <use x="147.412109" xlink:href="#DejaVuSans-2e"/>
       <use x="179.199219" xlink:href="#DejaVuSans-35"/>
       <use x="242.822266" xlink:href="#DejaVuSans-30"/>
      </g>
     </g>
    </g>
    <g id="ytick_4">
     <g id="line2d_25">
      <path clip-path="url(#p5c38a68490)" d="M 90 419.972727 
L 648 419.972727 
" style="fill:none;stroke:#b0b0b0;stroke-linecap:square;stroke-width:0.8;"/>
     </g>
     <g id="line2d_26">
      <g>
       <use style="stroke:#000000;stroke-width:0.8;" x="90" xlink:href="#mf2c6d99fed" y="419.972727"/>
      </g>
     </g>
     <g id="text_14">
      <!-- −0.25 -->
      <g transform="translate(40.096562 425.291634)scale(0.14 -0.14)">
       <use xlink:href="#DejaVuSans-2212"/>
       <use x="83.789062" xlink:href="#DejaVuSans-30"/>
       <use x="147.412109" xlink:href="#DejaVuSans-2e"/>
       <use x="179.199219" xlink:href="#DejaVuSans-32"/>
       <use x="242.822266" xlink:href="#DejaVuSans-35"/>
      </g>
     </g>
    </g>
    <g id="ytick_5">
     <g id="line2d_27">
      <path clip-path="url(#p5c38a68490)" d="M 90 358.2 
L 648 358.2 
" style="fill:none;stroke:#b0b0b0;stroke-linecap:square;stroke-width:0.8;"/>
     </g>
     <g id="line2d_28">
      <g>
       <use style="stroke:#000000;stroke-width:0.8;" x="90" xlink:href="#mf2c6d99fed" y="358.2"/>
      </g>
     </g>
     <g id="text_15">
      <!-- 0.00 -->
      <g transform="translate(51.828125 363.518906)scale(0.14 -0.14)">
       <use xlink:href="#DejaVuSans-30"/>
       <use x="63.623047" xlink:href="#DejaVuSans-2e"/>
       <use x="95.410156" xlink:href="#DejaVuSans-30"/>
       <use x="159.033203" xlink:href="#DejaVuSans-30"/>
      </g>
     </g>
    </g>
    <g id="ytick_6">
     <g id="line2d_29">
      <path clip-path="url(#p5c38a68490)" d="M 90 296.427273 
L 648 296.427273 
" style="fill:none;stroke:#b0b0b0;stroke-linecap:square;stroke-width:0.8;"/>
     </g>
     <g id="line2d_30">
      <g>
       <use style="stroke:#000000;stroke-width:0.8;" x="90" xlink:href="#mf2c6d99fed" y="296.427273"/>
      </g>
     </g>
     <g id="text_16">
      <!-- 0.25 -->
      <g transform="translate(51.828125 301.746179)scale(0.14 -0.14)">
       <use xlink:href="#DejaVuSans-30"/>
       <use x="63.623047" xlink:href="#DejaVuSans-2e"/>
       <use x="95.410156" xlink:href="#DejaVuSans-32"/>
       <use x="159.033203" xlink:href="#DejaVuSans-35"/>
      </g>
     </g>
    </g>
    <g id="ytick_7">
     <g id="line2d_31">
      <path clip-path="url(#p5c38a68490)" d="M 90 234.654545 
L 648 234.654545 
" style="fill:none;stroke:#b0b0b0;stroke-linecap:square;stroke-width:0.8;"/>
     </g>
     <g id="line2d_32">
      <g>
       <use style="stroke:#000000;stroke-width:0.8;" x="90" xlink:href="#mf2c6d99fed" y="234.654545"/>
      </g>
     </g>
     <g id="text_17">
      <!-- 0.50 -->
      <g transform="translate(51.828125 239.973452)scale(0.14 -0.14)">
       <use xlink:href="#DejaVuSans-30"/>
       <use x="63.623047" xlink:href="#DejaVuSans-2e"/>
       <use x="95.410156" xlink:href="#DejaVuSans-35"/>
       <use x="159.033203" xlink:href="#DejaVuSans-30"/>
      </g>
     </g>
    </g>
    <g id="ytick_8">
     <g id="line2d_33">
      <path clip-path="url(#p5c38a68490)" d="M 90 172.881818 
L 648 172.881818 
" style="fill:none;stroke:#b0b0b0;stroke-linecap:square;stroke-width:0.8;"/>
     </g>
     <g id="line2d_34">
      <g>
       <use style="stroke:#000000;stroke-width:0.8;" x="90" xlink:href="#mf2c6d99fed" y="172.881818"/>
      </g>
     </g>
     <g id="text_18">
      <!-- 0.75 -->
      <g transform="translate(51.828125 178.200724)scale(0.14 -0.14)">
       <use xlink:href="#DejaVuSans-30"/>
       <use x="63.623047" xlink:href="#DejaVuSans-2e"/>
       <use x="95.410156" xlink:href="#DejaVuSans-37"/>
       <use x="159.033203" xlink:href="#DejaVuSans-35"/>
      </g>
     </g>
    </g>
    <g id="ytick_9">
     <g id="line2d_35">
      <path clip-path="url(#p5c38a68490)" d="M 90 111.109091 
L 648 111.109091 
" style="fill:none;stroke:#b0b0b0;stroke-linecap:square;stroke-width:0.8;"/>
     </g>
     <g id="line2d_36">
      <g>
       <use style="stroke:#000000;stroke-width:0.8;" x="90" xlink:href="#mf2c6d99fed" y="111.109091"/>
      </g>
     </g>
     <g id="text_19">
      <!-- 1.00 -->
      <g transform="translate(51.828125 116.427997)scale(0.14 -0.14)">
       <use xlink:href="#DejaVuSans-31"/>
       <use x="63.623047" xlink:href="#DejaVuSans-2e"/>
       <use x="95.410156" xlink:href="#DejaVuSans-30"/>
       <use x="159.033203" xlink:href="#DejaVuSans-30"/>
      </g>
     </g>
    </g>
    <g id="text_20">
     <!-- $x_2$ -->
     <g transform="translate(30.897344 371.575)rotate(-90)scale(0.25 -0.25)">
      <use transform="translate(0 0.3125)" xlink:href="#DejaVuSans-Oblique-78"/>
      <use transform="translate(59.179688 -16.09375)scale(0.7)" xlink:href="#DejaVuSans-32"/>
     </g>
    </g>
   </g>
   <g id="line2d_37">
    <path clip-path="url(#p5c38a68490)" d="M 571.909091 358.2 
L 571.798827 364.597463 
L 571.476092 370.366832 
L 570.961867 375.562733 
L 570.275307 380.235118 
L 569.433897 384.429668 
L 568.453597 388.188153 
L 567.348968 391.548771 
L 566.133295 394.546447 
L 564.818696 397.213116 
L 563.373748 399.643241 
L 561.846648 401.782616 
L 560.200712 403.707701 
L 558.439834 405.422573 
L 556.568383 406.932498 
L 554.591132 408.24378 
L 552.460683 409.388891 
L 550.179492 410.360636 
L 547.751326 411.154892 
L 545.126172 411.781331 
L 542.25327 412.235991 
L 539.138573 412.501467 
L 535.735322 412.566369 
L 532.000251 412.413168 
L 527.84031 412.014805 
L 523.227198 411.343976 
L 518.090245 410.368356 
L 512.272718 409.032648 
L 505.604543 407.26768 
L 497.829924 404.97292 
L 488.531982 401.988763 
L 476.905573 398.013453 
L 461.130166 392.368476 
L 435.236034 382.835209 
L 369 358.2 
L 369 358.2 
" style="fill:none;stroke:#ff0000;stroke-linecap:square;"/>
   </g>
   <g id="patch_3">
    <path d="M 90 630 
L 90 86.4 
" style="fill:none;stroke:#000000;stroke-linecap:square;stroke-linejoin:miter;stroke-width:0.8;"/>
   </g>
   <g id="patch_4">
    <path d="M 648 630 
L 648 86.4 
" style="fill:none;stroke:#000000;stroke-linecap:square;stroke-linejoin:miter;stroke-width:0.8;"/>
   </g>
   <g id="patch_5">
    <path d="M 90 630 
L 648 630 
" style="fill:none;stroke:#000000;stroke-linecap:square;stroke-linejoin:miter;stroke-width:0.8;"/>
   </g>
   <g id="patch_6">
    <path d="M 90 86.4 
L 648 86.4 
" style="fill:none;stroke:#000000;stroke-linecap:square;stroke-linejoin:miter;stroke-width:0.8;"/>
   </g>
  </g>
 </g>
 <defs>
  <clipPath id="p5c38a68490">
   <rect height="543.6" width="558" x="90" y="86.4"/>
  </clipPath>
 </defs>
</svg>
