<?xml version="1.0" encoding="utf-8" standalone="no"?>
<!DOCTYPE svg PUBLIC "-//W3C//DTD SVG 1.1//EN"
  "http://www.w3.org/Graphics/SVG/1.1/DTD/svg11.dtd">
<!-- Created with matplotlib (http://matplotlib.org/) -->
<svg height="288pt" version="1.1" viewBox="0 0 1224 288" width="1224pt" xmlns="http://www.w3.org/2000/svg" xmlns:xlink="http://www.w3.org/1999/xlink">
 <defs>
  <style type="text/css">
*{stroke-linecap:butt;stroke-linejoin:round;}
  </style>
 </defs>
 <g id="figure_1">
  <g id="patch_1">
   <path d="
M0 288
L1224 288
L1224 0
L0 0
z
" style="fill:#ffffff;"/>
  </g>
  <g id="axes_1">
   <g id="patch_2">
    <path d="
M153 252
L1101.6 252
L1101.6 28.8
L153 28.8
z
" style="fill:#eaeaf2;"/>
   </g>
   <g id="matplotlib.axis_1">
    <g id="xtick_1">
     <g id="line2d_1">
      <path clip-path="url(#p45e3f7c9ba)" d="
M225.969 252
L225.969 28.8" style="fill:none;stroke:#ffffff;stroke-linecap:round;"/>
     </g>
     <g id="line2d_2">
      <defs>
       <path d="
M0 0
L0 0" id="m219da94a98" style="stroke:#262626;"/>
      </defs>
      <g>
       <use style="fill:#262626;stroke:#262626;" x="225.969230769" xlink:href="#m219da94a98" y="252.0"/>
      </g>
     </g>
     <g id="line2d_3">
      <g>
       <use style="fill:#262626;stroke:#262626;" x="225.969230769" xlink:href="#m219da94a98" y="28.8"/>
      </g>
     </g>
     <g id="text_1">
      <!-- −4 -->
      <defs>
       <path d="
M4.9375 29.6875
L4.9375 36.8125
L53.5156 36.8125
L53.5156 29.6875
z
" id="LiberationSans-2212"/>
       <path d="
M43.0156 15.5781
L43.0156 0
L34.7188 0
L34.7188 15.5781
L2.29688 15.5781
L2.29688 22.4062
L33.7969 68.7969
L43.0156 68.7969
L43.0156 22.5156
L52.6875 22.5156
L52.6875 15.5781
z

M34.7188 58.8906
Q34.625 58.6406 34.2344 57.9375
Q33.8438 57.2344 33.3438 56.3438
Q32.8594 55.4688 32.3438 54.5625
Q31.8438 53.6562 31.4531 53.0781
L13.8125 27.0938
Q13.5781 26.7031 13.1094 26.0625
Q12.6406 25.4375 12.1562 24.7812
Q11.6719 24.125 11.1719 23.4844
Q10.6875 22.8594 10.4062 22.5156
L34.7188 22.5156
z
" id="LiberationSans-34"/>
      </defs>
      <g style="fill:#262626;" transform="translate(212.699699519 277.1171875)scale(0.25 -0.25)">
       <use xlink:href="#LiberationSans-2212"/>
       <use x="58.3984375" xlink:href="#LiberationSans-34"/>
      </g>
     </g>
    </g>
    <g id="xtick_2">
     <g id="line2d_4">
      <path clip-path="url(#p45e3f7c9ba)" d="
M371.908 252
L371.908 28.8" style="fill:none;stroke:#ffffff;stroke-linecap:round;"/>
     </g>
     <g id="line2d_5">
      <g>
       <use style="fill:#262626;stroke:#262626;" x="371.907692308" xlink:href="#m219da94a98" y="252.0"/>
      </g>
     </g>
     <g id="line2d_6">
      <g>
       <use style="fill:#262626;stroke:#262626;" x="371.907692308" xlink:href="#m219da94a98" y="28.8"/>
      </g>
     </g>
     <g id="text_2">
      <!-- −2 -->
      <defs>
       <path d="
M5.03125 0
L5.03125 6.20312
Q7.51562 11.9219 11.1094 16.2812
Q14.7031 20.6562 18.6562 24.1875
Q22.6094 27.7344 26.4844 30.7656
Q30.375 33.7969 33.5 36.8125
Q36.625 39.8438 38.5469 43.1562
Q40.4844 46.4844 40.4844 50.6875
Q40.4844 53.6094 39.5938 55.8281
Q38.7188 58.0625 37.0625 59.5625
Q35.4062 61.0781 33.0781 61.8281
Q30.7656 62.5938 27.9375 62.5938
Q25.2969 62.5938 22.9688 61.8594
Q20.6562 61.1406 18.8438 59.6719
Q17.0469 58.2031 15.8906 56.0312
Q14.75 53.8594 14.4062 50.9844
L5.42188 51.8125
Q5.85938 55.5156 7.46875 58.7812
Q9.07812 62.0625 11.9062 64.5312
Q14.75 67 18.7188 68.4062
Q22.7031 69.8281 27.9375 69.8281
Q33.0625 69.8281 37.0625 68.6094
Q41.0625 67.3906 43.8125 64.9844
Q46.5781 62.5938 48.0469 59.0781
Q49.5156 55.5625 49.5156 50.9844
Q49.5156 47.5156 48.2656 44.3906
Q47.0156 41.2656 44.9375 38.4219
Q42.875 35.5938 40.1406 32.9531
Q37.4062 30.3281 34.4219 27.8125
Q31.4531 25.2969 28.4219 22.8281
Q25.3906 20.3594 22.7188 17.8594
Q20.0625 15.375 17.9688 12.8125
Q15.875 10.25 14.7031 7.46875
L50.5938 7.46875
L50.5938 0
z
" id="LiberationSans-32"/>
      </defs>
      <g style="fill:#262626;" transform="translate(358.899879808 277.1171875)scale(0.25 -0.25)">
       <use xlink:href="#LiberationSans-2212"/>
       <use x="58.3984375" xlink:href="#LiberationSans-32"/>
      </g>
     </g>
    </g>
    <g id="xtick_3">
     <g id="line2d_7">
      <path clip-path="url(#p45e3f7c9ba)" d="
M517.846 252
L517.846 28.8" style="fill:none;stroke:#ffffff;stroke-linecap:round;"/>
     </g>
     <g id="line2d_8">
      <g>
       <use style="fill:#262626;stroke:#262626;" x="517.846153846" xlink:href="#m219da94a98" y="252.0"/>
      </g>
     </g>
     <g id="line2d_9">
      <g>
       <use style="fill:#262626;stroke:#262626;" x="517.846153846" xlink:href="#m219da94a98" y="28.8"/>
      </g>
     </g>
     <g id="text_3">
      <!-- 0 -->
      <defs>
       <path d="
M51.7031 34.4219
Q51.7031 24.5156 49.8281 17.75
Q47.9531 10.9844 44.7031 6.8125
Q41.4531 2.64062 37.0625 0.828125
Q32.6719 -0.984375 27.6875 -0.984375
Q22.6562 -0.984375 18.3125 0.828125
Q13.9688 2.64062 10.7656 6.78125
Q7.5625 10.9375 5.73438 17.7031
Q3.90625 24.4688 3.90625 34.4219
Q3.90625 44.8281 5.73438 51.6406
Q7.5625 58.4531 10.7812 62.5
Q14.0156 66.5469 18.4062 68.1875
Q22.7969 69.8281 27.9844 69.8281
Q32.9062 69.8281 37.2188 68.1875
Q41.5469 66.5469 44.7656 62.5
Q48 58.4531 49.8438 51.6406
Q51.7031 44.8281 51.7031 34.4219
M42.7812 34.4219
Q42.7812 42.625 41.7969 48.0625
Q40.8281 53.5156 38.9219 56.7656
Q37.0156 60.0156 34.25 61.3594
Q31.5 62.7031 27.9844 62.7031
Q24.2656 62.7031 21.4375 61.3281
Q18.6094 59.9688 16.6719 56.7188
Q14.75 53.4688 13.7656 48.0156
Q12.7969 42.5781 12.7969 34.4219
Q12.7969 26.5156 13.7969 21.0938
Q14.7969 15.6719 16.7188 12.375
Q18.6562 9.07812 21.4375 7.64062
Q24.2188 6.20312 27.7812 6.20312
Q31.25 6.20312 34.0312 7.64062
Q36.8125 9.07812 38.7344 12.375
Q40.6719 15.6719 41.7188 21.0938
Q42.7812 26.5156 42.7812 34.4219" id="LiberationSans-30"/>
      </defs>
      <g style="fill:#262626;" transform="translate(511.871544471 277.1171875)scale(0.25 -0.25)">
       <use xlink:href="#LiberationSans-30"/>
      </g>
     </g>
    </g>
    <g id="xtick_4">
     <g id="line2d_10">
      <path clip-path="url(#p45e3f7c9ba)" d="
M663.785 252
L663.785 28.8" style="fill:none;stroke:#ffffff;stroke-linecap:round;"/>
     </g>
     <g id="line2d_11">
      <g>
       <use style="fill:#262626;stroke:#262626;" x="663.784615385" xlink:href="#m219da94a98" y="252.0"/>
      </g>
     </g>
     <g id="line2d_12">
      <g>
       <use style="fill:#262626;stroke:#262626;" x="663.784615385" xlink:href="#m219da94a98" y="28.8"/>
      </g>
     </g>
     <g id="text_4">
      <!-- 2 -->
      <g style="fill:#262626;" transform="translate(658.089302885 277.1171875)scale(0.25 -0.25)">
       <use xlink:href="#LiberationSans-32"/>
      </g>
     </g>
    </g>
    <g id="xtick_5">
     <g id="line2d_13">
      <path clip-path="url(#p45e3f7c9ba)" d="
M809.723 252
L809.723 28.8" style="fill:none;stroke:#ffffff;stroke-linecap:round;"/>
     </g>
     <g id="line2d_14">
      <g>
       <use style="fill:#262626;stroke:#262626;" x="809.723076923" xlink:href="#m219da94a98" y="252.0"/>
      </g>
     </g>
     <g id="line2d_15">
      <g>
       <use style="fill:#262626;stroke:#262626;" x="809.723076923" xlink:href="#m219da94a98" y="28.8"/>
      </g>
     </g>
     <g id="text_5">
      <!-- 4 -->
      <g style="fill:#262626;" transform="translate(803.424248798 277.1171875)scale(0.25 -0.25)">
       <use xlink:href="#LiberationSans-34"/>
      </g>
     </g>
    </g>
    <g id="xtick_6">
     <g id="line2d_16">
      <path clip-path="url(#p45e3f7c9ba)" d="
M955.662 252
L955.662 28.8" style="fill:none;stroke:#ffffff;stroke-linecap:round;"/>
     </g>
     <g id="line2d_17">
      <g>
       <use style="fill:#262626;stroke:#262626;" x="955.661538462" xlink:href="#m219da94a98" y="252.0"/>
      </g>
     </g>
     <g id="line2d_18">
      <g>
       <use style="fill:#262626;stroke:#262626;" x="955.661538462" xlink:href="#m219da94a98" y="28.8"/>
      </g>
     </g>
     <g id="text_6">
      <!-- 6 -->
      <defs>
       <path d="
M51.2188 22.5156
Q51.2188 17.3281 49.7812 13
Q48.3438 8.6875 45.5312 5.57812
Q42.7188 2.48438 38.5625 0.75
Q34.4219 -0.984375 29 -0.984375
Q23 -0.984375 18.5 1.3125
Q14.0156 3.60938 11.0312 7.92188
Q8.0625 12.25 6.5625 18.5312
Q5.07812 24.8125 5.07812 32.8125
Q5.07812 42 6.76562 48.9219
Q8.45312 55.8594 11.625 60.5
Q14.7969 65.1406 19.3594 67.4844
Q23.9219 69.8281 29.6875 69.8281
Q33.2031 69.8281 36.2812 69.0938
Q39.3594 68.3594 41.875 66.7188
Q44.3906 65.0938 46.2812 62.4062
Q48.1875 59.7188 49.3125 55.8125
L40.9219 54.2969
Q39.5469 58.7344 36.5469 60.7188
Q33.5469 62.7031 29.5938 62.7031
Q25.9844 62.7031 23.0469 60.9844
Q20.125 59.2812 18.0625 55.875
Q16.0156 52.4844 14.9062 47.3594
Q13.8125 42.2344 13.8125 35.4062
Q16.2188 39.8438 20.5625 42.1562
Q24.9062 44.4844 30.5156 44.4844
Q35.2031 44.4844 39.0156 42.9688
Q42.8281 41.4531 45.5312 38.5938
Q48.25 35.75 49.7344 31.6719
Q51.2188 27.5938 51.2188 22.5156
M42.2812 22.125
Q42.2812 25.6875 41.4062 28.5625
Q40.5312 31.4531 38.7656 33.4688
Q37.0156 35.5 34.4219 36.5938
Q31.8438 37.7031 28.4219 37.7031
Q26.0312 37.7031 23.5781 36.9844
Q21.1406 36.2812 19.1562 34.6875
Q17.1875 33.1094 15.9375 30.5156
Q14.7031 27.9375 14.7031 24.2188
Q14.7031 20.4062 15.6719 17.1094
Q16.6562 13.8125 18.4844 11.375
Q20.3125 8.9375 22.8906 7.51562
Q25.4844 6.10938 28.7188 6.10938
Q31.8906 6.10938 34.4062 7.20312
Q36.9219 8.29688 38.6719 10.375
Q40.4375 12.4531 41.3594 15.4219
Q42.2812 18.4062 42.2812 22.125" id="LiberationSans-36"/>
      </defs>
      <g style="fill:#262626;" transform="translate(949.893960337 277.1171875)scale(0.25 -0.25)">
       <use xlink:href="#LiberationSans-36"/>
      </g>
     </g>
    </g>
    <g id="xtick_7">
     <g id="line2d_19">
      <path clip-path="url(#p45e3f7c9ba)" d="
M1101.6 252
L1101.6 28.8" style="fill:none;stroke:#ffffff;stroke-linecap:round;"/>
     </g>
     <g id="line2d_20">
      <g>
       <use style="fill:#262626;stroke:#262626;" x="1101.6" xlink:href="#m219da94a98" y="252.0"/>
      </g>
     </g>
     <g id="line2d_21">
      <g>
       <use style="fill:#262626;stroke:#262626;" x="1101.6" xlink:href="#m219da94a98" y="28.8"/>
      </g>
     </g>
     <g id="text_7">
      <!-- 8 -->
      <defs>
       <path d="
M51.2656 19.1875
Q51.2656 14.7969 49.875 11.1094
Q48.4844 7.42188 45.625 4.73438
Q42.7812 2.04688 38.3281 0.53125
Q33.8906 -0.984375 27.8281 -0.984375
Q21.7812 -0.984375 17.3594 0.53125
Q12.9375 2.04688 10.0312 4.70312
Q7.125 7.375 5.73438 11.0625
Q4.34375 14.75 4.34375 19.0938
Q4.34375 22.8594 5.48438 25.7812
Q6.64062 28.7188 8.5625 30.8281
Q10.5 32.9531 12.9688 34.25
Q15.4375 35.5469 18.0625 35.9844
L18.0625 36.1875
Q15.1875 36.8594 12.9062 38.375
Q10.6406 39.8906 9.09375 42.0156
Q7.5625 44.1406 6.75 46.7188
Q5.95312 49.3125 5.95312 52.2031
Q5.95312 55.8125 7.34375 59
Q8.73438 62.2031 11.4688 64.625
Q14.2031 67.0469 18.25 68.4375
Q22.3125 69.8281 27.6406 69.8281
Q33.25 69.8281 37.375 68.4062
Q41.5 67 44.2031 64.5781
Q46.9219 62.1562 48.2344 58.9375
Q49.5625 55.7188 49.5625 52.0938
Q49.5625 49.2656 48.75 46.6719
Q47.9531 44.0938 46.4062 41.9688
Q44.875 39.8438 42.5938 38.3438
Q40.3281 36.8594 37.3594 36.2812
L37.3594 36.0781
Q40.3281 35.5938 42.8594 34.2969
Q45.4062 33.0156 47.2656 30.8906
Q49.125 28.7656 50.1875 25.8281
Q51.2656 22.9062 51.2656 19.1875
M40.4375 51.6094
Q40.4375 54.2031 39.7656 56.3438
Q39.1094 58.5 37.5938 60.0312
Q36.0781 61.5781 33.6406 62.4219
Q31.2031 63.2812 27.6406 63.2812
Q24.1719 63.2812 21.7812 62.4219
Q19.3906 61.5781 17.8438 60.0312
Q16.3125 58.5 15.625 56.3438
Q14.9375 54.2031 14.9375 51.6094
Q14.9375 49.5625 15.4688 47.4062
Q16.0156 45.2656 17.4219 43.5
Q18.8438 41.75 21.3281 40.625
Q23.8281 39.5 27.7344 39.5
Q31.8906 39.5 34.4062 40.625
Q36.9219 41.75 38.25 43.5
Q39.5938 45.2656 40.0156 47.4062
Q40.4375 49.5625 40.4375 51.6094
M42.1406 20.0156
Q42.1406 22.5156 41.4531 24.8281
Q40.7656 27.1562 39.1094 28.9375
Q37.4531 30.7188 34.6406 31.8125
Q31.8438 32.9062 27.6406 32.9062
Q23.7812 32.9062 21.0625 31.8125
Q18.3594 30.7188 16.6719 28.9062
Q14.9844 27.0938 14.2031 24.7188
Q13.4219 22.3594 13.4219 19.8281
Q13.4219 16.6562 14.2031 14.0312
Q14.9844 11.4219 16.6875 9.54688
Q18.4062 7.67188 21.1875 6.64062
Q23.9688 5.60938 27.9375 5.60938
Q31.9375 5.60938 34.6719 6.64062
Q37.4062 7.67188 39.0625 9.54688
Q40.7188 11.4219 41.4219 14.0781
Q42.1406 16.75 42.1406 20.0156" id="LiberationSans-38"/>
      </defs>
      <g style="fill:#262626;" transform="translate(1095.73476563 277.1171875)scale(0.25 -0.25)">
       <use xlink:href="#LiberationSans-38"/>
      </g>
     </g>
    </g>
    <g id="text_8">
     <!-- Time -->
     <defs>
      <path d="
M37.5 0
L37.5 33.5
Q37.5 37.3594 37.0156 39.9375
Q36.5312 42.5312 35.375 44.1094
Q34.2344 45.7031 32.375 46.3594
Q30.5156 47.0156 27.8281 47.0156
Q25.0469 47.0156 22.7969 45.9219
Q20.5625 44.8281 18.9688 42.75
Q17.3906 40.6719 16.5312 37.625
Q15.6719 34.5781 15.6719 30.6094
L15.6719 0
L6.9375 0
L6.9375 41.5469
Q6.9375 43.2188 6.90625 45.0469
Q6.89062 46.875 6.82812 48.5
Q6.78125 50.1406 6.73438 51.3125
Q6.6875 52.4844 6.64062 52.8281
L14.9375 52.8281
Q14.9844 52.5938 15.0312 51.5156
Q15.0938 50.4375 15.1562 49.0469
Q15.2344 47.6562 15.2812 46.2188
Q15.3281 44.7812 15.3281 43.7969
L15.4844 43.7969
Q16.6562 46.0938 18.0156 47.9531
Q19.3906 49.8125 21.2188 51.0938
Q23.0469 52.3906 25.4062 53.0938
Q27.7812 53.8125 30.9062 53.8125
Q36.9219 53.8125 40.4062 51.4219
Q43.8906 49.0312 45.2656 43.7969
L45.4062 43.7969
Q46.5781 46.0938 48.0469 47.9531
Q49.5156 49.8125 51.4688 51.0938
Q53.4219 52.3906 55.8594 53.0938
Q58.2969 53.8125 61.4219 53.8125
Q65.4375 53.8125 68.3281 52.7344
Q71.2344 51.6562 73.0938 49.4062
Q74.9531 47.1719 75.8281 43.625
Q76.7031 40.0938 76.7031 35.2031
L76.7031 0
L68.0156 0
L68.0156 33.5
Q68.0156 37.3594 67.5312 39.9375
Q67.0469 42.5312 65.8906 44.1094
Q64.75 45.7031 62.8906 46.3594
Q61.0312 47.0156 58.3438 47.0156
Q55.5625 47.0156 53.3125 45.9688
Q51.0781 44.9219 49.4844 42.875
Q47.9062 40.8281 47.0469 37.75
Q46.1875 34.6719 46.1875 30.6094
L46.1875 0
z
" id="LiberationSans-6d"/>
      <path d="
M35.1562 61.1875
L35.1562 0
L25.875 0
L25.875 61.1875
L2.25 61.1875
L2.25 68.7969
L58.7969 68.7969
L58.7969 61.1875
z
" id="LiberationSans-54"/>
      <path d="
M6.6875 64.0625
L6.6875 72.4688
L15.4844 72.4688
L15.4844 64.0625
z

M6.6875 0
L6.6875 52.8281
L15.4844 52.8281
L15.4844 0
z
" id="LiberationSans-69"/>
      <path d="
M13.4844 24.5625
Q13.4844 20.4062 14.3281 16.9062
Q15.1875 13.4219 16.9688 10.9062
Q18.75 8.40625 21.5312 7
Q24.3125 5.60938 28.2188 5.60938
Q33.9375 5.60938 37.375 7.90625
Q40.8281 10.2031 42.0469 13.7188
L49.75 11.5312
Q48.9219 9.32812 47.4375 7.10938
Q45.9531 4.89062 43.4531 3.09375
Q40.9688 1.3125 37.2344 0.15625
Q33.5 -0.984375 28.2188 -0.984375
Q16.5 -0.984375 10.375 6
Q4.25 12.9844 4.25 26.7656
Q4.25 34.1875 6.09375 39.3281
Q7.95312 44.4844 11.1719 47.7031
Q14.4062 50.9219 18.7031 52.3594
Q23 53.8125 27.875 53.8125
Q34.5156 53.8125 38.9844 51.6562
Q43.4531 49.5156 46.1562 45.7188
Q48.875 41.9375 50.0156 36.8125
Q51.1719 31.6875 51.1719 25.7344
L51.1719 24.5625
z

M42.0938 31.2969
Q41.3594 39.6562 37.8438 43.4844
Q34.3281 47.3125 27.7344 47.3125
Q25.5312 47.3125 23.1094 46.6094
Q20.7031 45.9062 18.6562 44.0938
Q16.6094 42.2812 15.1875 39.1719
Q13.7656 36.0781 13.5781 31.2969
z
" id="LiberationSans-65"/>
     </defs>
     <g style="fill:#262626;" transform="translate(600.829296875 305.421875)scale(0.25 -0.25)">
      <use xlink:href="#LiberationSans-54"/>
      <use x="57.333984375" xlink:href="#LiberationSans-69"/>
      <use x="79.55078125" xlink:href="#LiberationSans-6d"/>
      <use x="162.8515625" xlink:href="#LiberationSans-65"/>
     </g>
    </g>
   </g>
   <g id="matplotlib.axis_2"/>
   <g id="line2d_22">
    <path clip-path="url(#p45e3f7c9ba)" d="
M153 140.4
L341.99 140.511
L347.098 140.42
L355.854 140.173
L359.503 140.379
L366.07 140.891
L368.259 140.85
L370.448 140.631
L374.097 139.989
L377.016 139.531
L379.205 139.443
L380.664 139.564
L382.853 140.025
L385.772 140.998
L387.961 141.721
L389.42 142.05
L390.88 142.17
L392.339 142.03
L393.798 141.615
L395.258 140.95
L397.447 139.645
L399.636 138.322
L401.095 137.665
L402.555 137.341
L403.284 137.337
L404.014 137.447
L404.744 137.677
L406.203 138.482
L407.663 139.687
L409.852 141.932
L412.041 144.076
L413.5 145.062
L414.23 145.343
L414.96 145.455
L415.689 145.384
L416.419 145.122
L417.149 144.668
L417.878 144.03
L419.338 142.258
L420.797 140.002
L423.716 135.265
L425.175 133.506
L425.905 132.93
L426.635 132.602
L427.364 132.547
L428.094 132.781
L428.824 133.31
L429.553 134.128
L430.283 135.219
L431.742 138.101
L433.932 143.463
L435.391 147.013
L436.85 149.908
L437.58 150.949
L438.31 151.649
L439.039 151.964
L439.769 151.866
L440.499 151.342
L441.228 150.392
L441.958 149.033
L442.688 147.299
L444.147 142.912
L448.525 128.193
L449.255 126.487
L449.985 125.226
L450.714 124.473
L451.444 124.274
L452.174 124.659
L452.904 125.634
L453.633 127.185
L454.363 129.274
L455.822 134.817
L458.011 145.121
L459.471 151.928
L460.93 157.493
L461.66 159.517
L462.39 160.908
L463.119 161.596
L463.849 161.533
L464.579 160.7
L465.308 159.104
L466.038 156.782
L466.768 153.798
L468.227 146.23
L471.876 124.463
L472.605 120.893
L473.335 117.94
L474.065 115.727
L474.794 114.354
L475.524 113.891
L476.254 114.377
L476.983 115.816
L477.713 118.176
L478.443 121.393
L479.172 125.367
L480.632 135.046
L483.551 156.407
L485.01 165.005
L485.74 168.162
L486.469 170.377
L487.199 171.551
L487.929 171.625
L488.658 170.577
L489.388 168.428
L490.118 165.238
L490.848 161.107
L492.307 150.597
L495.955 120.434
L496.685 115.485
L497.415 111.371
L498.144 108.253
L498.874 106.252
L499.604 105.454
L500.334 105.899
L501.063 107.584
L501.793 110.459
L502.523 114.43
L503.252 119.363
L504.712 131.4
L507.63 157.895
L509.09 168.555
L509.82 172.498
L510.549 175.308
L511.279 176.879
L512.009 177.149
L512.738 176.103
L513.468 173.776
L514.198 170.246
L514.927 165.64
L516.387 153.883
L520.035 120.233
L520.765 114.717
L521.495 110.115
L522.224 106.592
L522.954 104.272
L523.684 103.235
L524.413 103.515
L525.143 105.097
L525.873 107.92
L526.602 111.878
L527.332 116.822
L528.792 128.916
L531.71 155.499
L533.17 166.218
L533.899 170.223
L534.629 173.135
L535.359 174.859
L536.088 175.346
L536.818 174.592
L537.548 172.638
L538.278 169.568
L539.007 165.505
L540.467 155.066
L544.115 125.231
L544.845 120.36
L545.574 116.295
L546.304 113.171
L547.034 111.088
L547.764 110.107
L548.493 110.247
L549.223 111.486
L549.953 113.764
L550.682 116.984
L551.412 121.015
L552.871 130.861
L555.79 152.37
L557.25 161.005
L557.979 164.24
L558.709 166.613
L559.439 168.056
L560.168 168.538
L560.898 168.063
L561.628 166.669
L562.357 164.426
L563.087 161.432
L564.546 153.705
L568.195 131.499
L569.654 124.69
L570.384 122.216
L571.114 120.457
L571.843 119.451
L572.573 119.204
L573.303 119.698
L574.032 120.885
L574.762 122.696
L575.492 125.04
L576.951 130.885
L579.87 143.69
L581.329 148.719
L582.059 150.552
L582.789 151.849
L583.518 152.574
L584.248 152.713
L584.978 152.276
L585.708 151.291
L586.437 149.808
L587.167 147.892
L588.626 143.084
L592.275 129.814
L593.004 127.686
L593.734 125.909
L594.464 124.533
L595.194 123.594
L595.923 123.107
L596.653 123.077
L597.383 123.488
L598.112 124.314
L598.842 125.513
L599.572 127.034
L601.031 130.797
L604.68 141.252
L606.139 144.577
L606.869 145.883
L607.598 146.925
L608.328 147.695
L609.058 148.198
L609.787 148.446
L610.517 148.464
L611.247 148.282
L611.976 147.935
L613.436 146.916
L615.625 145.219
L617.084 144.438
L617.814 144.243
L618.544 144.206
L619.273 144.335
L620.003 144.635
L620.733 145.101
L622.192 146.481
L623.652 148.318
L627.3 153.377
L628.759 154.941
L629.489 155.521
L630.219 155.943
L630.948 156.195
L631.678 156.272
L632.408 156.172
L633.138 155.896
L633.867 155.453
L635.327 154.113
L636.786 152.273
L638.975 148.909
L643.353 141.786
L645.542 138.66
L647.731 135.933
L650.65 132.741
L655.758 127.603
L658.677 124.919
L660.136 123.775
L661.596 122.847
L663.055 122.193
L664.514 121.864
L665.974 121.895
L667.433 122.304
L668.892 123.089
L670.352 124.229
L671.811 125.69
L673.271 127.425
L675.46 130.426
L678.378 134.882
L684.216 143.948
L687.135 147.988
L689.324 150.624
L691.513 152.837
L692.972 154.041
L694.432 155.007
L695.891 155.719
L697.35 156.166
L698.81 156.343
L700.269 156.25
L701.729 155.893
L703.188 155.285
L704.647 154.444
L706.107 153.393
L708.296 151.485
L710.485 149.274
L714.133 145.223
L718.512 140.381
L721.43 137.515
L723.619 135.681
L725.808 134.174
L727.998 133.028
L729.457 132.473
L730.916 132.087
L732.376 131.866
L733.835 131.805
L736.024 131.994
L738.213 132.483
L740.402 133.223
L743.321 134.504
L747.699 136.769
L752.807 139.407
L755.726 140.705
L758.645 141.762
L761.563 142.542
L764.482 143.034
L767.401 143.254
L770.32 143.234
L773.968 142.942
L778.346 142.339
L790.751 140.479
L795.859 140.032
L800.967 139.83
L806.804 139.834
L817.02 140.124
L829.425 140.421
L841.83 140.472
L881.963 140.396
L881.963 140.396" style="fill:none;stroke:#4c72b0;stroke-linecap:round;stroke-width:1.75;"/>
   </g>
   <g id="line2d_23">
    <path clip-path="url(#p45e3f7c9ba)" d="
M153 214.798
L216.483 214.685
L233.996 214.515
L241.293 214.696
L248.59 215.126
L263.913 216.198
L268.291 216.212
L271.94 216.012
L275.588 215.592
L279.237 214.952
L283.615 213.943
L294.56 211.213
L297.479 210.745
L300.398 210.515
L302.587 210.531
L304.776 210.726
L306.965 211.11
L309.154 211.685
L312.073 212.731
L314.992 214.055
L318.64 215.987
L325.937 219.976
L328.856 221.274
L331.045 222.022
L333.234 222.53
L335.423 222.765
L337.612 222.705
L339.801 222.341
L341.99 221.676
L344.179 220.725
L346.368 219.517
L349.287 217.578
L352.936 214.807
L358.773 210.312
L361.692 208.404
L363.881 207.251
L366.07 206.39
L368.259 205.851
L370.448 205.648
L372.637 205.775
L374.826 206.215
L377.016 206.941
L379.205 207.923
L381.394 209.126
L384.312 211.011
L388.691 214.209
L393.069 217.37
L395.258 218.727
L397.447 219.828
L399.636 220.618
L401.825 221.075
L404.014 221.221
L406.203 221.111
L409.122 220.695
L413.5 219.792
L417.149 218.856
L420.067 217.863
L422.256 216.909
L425.175 215.376
L429.553 212.976
L431.742 212.061
L433.202 211.658
L434.661 211.452
L436.121 211.445
L437.58 211.619
L439.769 212.13
L444.147 213.283
L445.607 213.48
L447.066 213.52
L449.255 213.289
L455.822 212.141
L457.282 212.255
L458.741 212.613
L460.2 213.212
L462.39 214.456
L466.038 216.698
L467.497 217.335
L468.957 217.682
L470.416 217.688
L471.876 217.348
L473.335 216.704
L475.524 215.374
L477.713 213.99
L479.172 213.268
L480.632 212.842
L482.091 212.783
L483.551 213.111
L485.01 213.785
L487.199 215.229
L489.388 216.761
L490.848 217.569
L492.307 218.047
L493.766 218.107
L495.226 217.721
L496.685 216.926
L498.144 215.822
L501.793 212.738
L503.252 211.831
L504.712 211.327
L505.441 211.252
L506.171 211.3
L506.901 211.471
L508.36 212.152
L509.82 213.198
L514.198 216.882
L515.657 217.693
L516.387 217.939
L517.116 218.064
L517.846 218.064
L518.576 217.939
L520.035 217.337
L521.495 216.345
L524.413 213.812
L525.873 212.638
L527.332 211.759
L528.792 211.3
L529.521 211.252
L530.251 211.327
L531.71 211.831
L533.17 212.738
L535.359 214.556
L537.548 216.405
L539.007 217.37
L540.467 217.969
L541.926 218.132
L543.385 217.856
L544.845 217.199
L547.034 215.756
L549.223 214.224
L550.682 213.409
L552.142 212.9
L553.601 212.764
L555.06 213.013
L556.52 213.599
L558.709 214.895
L561.628 216.704
L563.087 217.348
L564.546 217.688
L566.006 217.682
L567.465 217.335
L568.925 216.698
L571.114 215.395
L574.032 213.589
L575.492 212.884
L576.951 212.403
L578.411 212.169
L579.87 212.167
L582.059 212.493
L586.437 213.401
L587.897 213.52
L589.356 213.48
L591.545 213.133
L594.464 212.338
L597.383 211.619
L598.842 211.445
L600.301 211.452
L601.761 211.658
L603.22 212.061
L605.409 212.976
L608.328 214.549
L611.976 216.55
L614.895 217.863
L617.814 218.856
L621.462 219.792
L625.841 220.695
L628.759 221.111
L630.948 221.221
L633.138 221.075
L635.327 220.618
L637.516 219.828
L639.705 218.727
L641.894 217.37
L645.542 214.755
L651.38 210.515
L654.299 208.703
L656.488 207.569
L658.677 206.669
L660.866 206.035
L663.055 205.696
L665.244 205.678
L666.703 205.851
L668.892 206.39
L671.082 207.251
L673.271 208.404
L675.46 209.802
L678.378 211.939
L687.135 218.589
L689.324 219.946
L691.513 221.072
L693.702 221.93
L695.891 222.496
L698.08 222.759
L700.269 222.719
L702.458 222.39
L704.647 221.797
L706.836 220.978
L709.755 219.611
L714.133 217.219
L719.241 214.421
L722.16 213.038
L725.079 211.917
L727.268 211.281
L729.457 210.833
L731.646 210.575
L733.835 210.501
L736.754 210.663
L739.673 211.077
L743.321 211.853
L749.888 213.566
L754.996 214.8
L758.645 215.481
L762.293 215.946
L765.942 216.188
L770.32 216.217
L775.428 215.982
L785.643 215.181
L792.94 214.728
L799.507 214.532
L807.534 214.523
L847.667 214.826
L881.963 214.798
L881.963 214.798" style="fill:none;stroke:#55a868;stroke-linecap:round;stroke-width:1.75;"/>
   </g>
   <g id="line2d_24">
    <path clip-path="url(#p45e3f7c9ba)" d="
M153 66.0022
L216.483 66.1146
L233.996 66.2852
L241.293 66.1036
L248.59 65.6738
L263.913 64.6018
L268.291 64.5888
L271.94 64.7885
L275.588 65.208
L279.237 65.8471
L283.615 66.8561
L294.56 69.5899
L297.479 70.0561
L300.398 70.2831
L302.587 70.2645
L304.776 70.0667
L306.965 69.6821
L309.154 69.1104
L312.073 68.0726
L314.992 66.759
L318.64 64.8331
L326.667 60.4425
L328.856 59.481
L331.045 58.73
L333.234 58.2369
L335.423 58.035
L337.612 58.1394
L339.801 58.5462
L341.99 59.2349
L344.179 60.1741
L346.368 61.3285
L349.287 63.1456
L352.206 65.2203
L356.584 68.6562
L360.962 72.067
L363.151 73.5151
L364.611 74.3004
L366.07 74.9008
L367.53 75.2894
L368.989 75.4508
L370.448 75.3838
L371.908 75.1036
L373.367 74.6408
L375.556 73.7021
L381.394 70.9554
L385.042 69.6151
L387.961 68.4599
L389.42 67.695
L390.88 66.7355
L392.339 65.5569
L394.528 63.411
L398.906 58.745
L400.366 57.5527
L401.825 56.7792
L402.555 56.585
L403.284 56.5322
L404.014 56.626
L404.744 56.867
L405.474 57.2514
L406.933 58.4111
L408.392 59.9808
L412.041 64.3607
L413.5 65.6701
L414.23 66.1209
L414.96 66.4097
L415.689 66.5241
L416.419 66.4581
L417.149 66.2125
L417.878 65.7959
L419.338 64.5192
L421.527 61.9323
L422.986 60.2151
L424.446 58.9167
L425.175 58.5301
L425.905 58.3665
L426.635 58.4537
L427.364 58.8112
L428.094 59.449
L428.824 60.3664
L429.553 61.5522
L431.013 64.6274
L433.202 70.3554
L435.391 75.9893
L436.121 77.5311
L436.85 78.7968
L437.58 79.7305
L438.31 80.2859
L439.039 80.4282
L439.769 80.1365
L440.499 79.4044
L441.228 78.2415
L441.958 76.6737
L443.418 72.5043
L445.607 64.7026
L447.066 59.4995
L448.525 55.1924
L449.255 53.5979
L449.985 52.475
L450.714 51.8798
L451.444 51.8504
L452.174 52.4052
L452.904 53.541
L453.633 55.2329
L454.363 57.4341
L455.822 63.0758
L460.2 82.1154
L460.93 84.3037
L461.66 85.9096
L462.39 86.852
L463.119 87.0726
L463.849 86.5381
L464.579 85.2422
L465.308 83.2074
L466.038 80.484
L467.497 73.3069
L469.686 60.0596
L471.146 51.3486
L472.605 44.2333
L473.335 41.6351
L474.065 39.8318
L474.794 38.908
L475.524 38.9178
L476.254 39.8822
L476.983 41.7877
L477.713 44.5858
L478.443 48.1941
L479.902 57.3569
L483.551 83.696
L484.28 88.0252
L485.01 91.6204
L485.74 94.3381
L486.469 96.065
L487.199 96.7221
L487.929 96.2684
L488.658 94.7033
L489.388 92.0667
L490.118 88.439
L490.848 83.9378
L492.307 72.9502
L495.226 48.712
L496.685 38.9587
L497.415 35.3668
L498.144 32.8302
L498.874 31.4529
L499.604 31.2974
L500.334 32.3822
L501.063 34.6805
L501.793 38.1206
L502.523 42.5886
L503.982 53.9643
L507.63 86.5362
L508.36 91.8744
L509.09 96.3174
L509.82 99.7005
L510.549 101.897
L511.279 102.822
L512.009 102.439
L512.738 100.756
L513.468 97.8304
L514.198 93.7648
L514.927 88.7031
L516.387 76.3439
L519.306 49.1741
L520.765 38.2352
L521.495 34.1696
L522.224 31.2442
L522.954 29.5613
L523.684 29.1778
L524.413 30.1032
L525.143 32.2995
L525.873 35.6826
L526.602 40.1256
L528.062 51.5009
L531.71 84.0682
L532.44 89.4114
L533.17 93.8794
L533.899 97.3195
L534.629 99.6178
L535.359 100.703
L536.088 100.547
L536.818 99.1698
L537.548 96.6332
L538.278 93.0413
L539.007 88.5353
L540.467 77.4969
L543.385 53.2852
L544.845 43.561
L545.574 39.9333
L546.304 37.2967
L547.034 35.7316
L547.764 35.2779
L548.493 35.935
L549.223 37.6619
L549.953 40.3796
L550.682 43.9748
L552.142 53.2
L555.79 79.5016
L556.52 83.8059
L557.25 87.4142
L557.979 90.2123
L558.709 92.1178
L559.439 93.0822
L560.168 93.092
L560.898 92.1682
L561.628 90.3649
L562.357 87.7667
L563.087 84.4845
L564.546 76.4167
L567.465 58.6931
L568.925 51.516
L569.654 48.7926
L570.384 46.7578
L571.114 45.4619
L571.843 44.9274
L572.573 45.148
L573.303 46.0904
L574.032 47.6963
L574.762 49.8846
L576.222 55.5965
L579.87 71.9228
L580.6 74.5659
L581.329 76.7671
L582.059 78.459
L582.789 79.5948
L583.518 80.1496
L584.248 80.1202
L584.978 79.525
L585.708 78.4021
L586.437 76.8076
L587.897 72.5005
L592.275 57.2575
L593.004 55.3263
L593.734 53.7585
L594.464 52.5956
L595.194 51.8635
L595.923 51.5718
L596.653 51.7141
L597.383 52.2695
L598.112 53.2032
L598.842 54.4689
L600.301 57.7659
L604.68 69.0164
L605.409 70.4478
L606.139 71.6336
L606.869 72.551
L607.598 73.1888
L608.328 73.5463
L609.058 73.6335
L609.787 73.4699
L610.517 73.0833
L611.247 72.5083
L612.706 70.9563
L615.625 67.4808
L617.084 66.2041
L617.814 65.7875
L618.544 65.5419
L619.273 65.4759
L620.003 65.5903
L620.733 65.8791
L621.462 66.3299
L622.922 67.6393
L625.111 70.2282
L627.3 72.8448
L628.759 74.2295
L630.219 75.133
L630.948 75.374
L631.678 75.4678
L632.408 75.415
L633.138 75.2208
L634.597 74.4473
L636.056 73.255
L638.245 70.9902
L641.894 67.1131
L643.353 65.8261
L644.813 64.7582
L646.272 63.9009
L648.461 62.9205
L655.758 60.0799
L661.596 57.3592
L663.055 56.8964
L664.514 56.6162
L665.974 56.5492
L667.433 56.7106
L668.892 57.0992
L670.352 57.6996
L672.541 58.9363
L674.73 60.4688
L679.108 63.9313
L683.486 67.3192
L686.405 69.3353
L689.324 71.0781
L691.513 72.1646
L693.702 73.0242
L695.891 73.622
L698.08 73.9295
L700.269 73.9313
L702.458 73.6298
L704.647 73.0462
L706.836 72.2192
L709.755 70.8274
L714.133 68.404
L719.241 65.6052
L722.16 64.2321
L725.079 63.1205
L727.268 62.4879
L729.457 62.0405
L731.646 61.781
L733.835 61.704
L736.754 61.8624
L739.673 62.2745
L743.321 63.0508
L749.888 64.7671
L754.996 66.0009
L758.645 66.6812
L762.293 67.1456
L765.942 67.388
L770.32 67.4168
L775.428 67.1821
L785.643 66.3809
L792.94 65.9283
L799.507 65.7323
L807.534 65.7233
L847.667 66.0264
L881.963 65.9978
L881.963 65.9978" style="fill:none;stroke:#c44e52;stroke-linecap:round;stroke-width:1.75;"/>
   </g>
   <g id="patch_3">
    <path d="
M153 28.8
L1101.6 28.8" style="fill:none;"/>
   </g>
   <g id="patch_4">
    <path d="
M1101.6 252
L1101.6 28.8" style="fill:none;"/>
   </g>
   <g id="patch_5">
    <path d="
M153 252
L1101.6 252" style="fill:none;"/>
   </g>
   <g id="patch_6">
    <path d="
M153 252
L153 28.8" style="fill:none;"/>
   </g>
   <g id="text_9">
    <!-- Decomposition of a signal into even and odd components -->
    <defs>
     <path d="
M46.3906 14.5938
Q46.3906 10.8906 44.9375 7.98438
Q43.5 5.07812 40.7656 3.09375
Q38.0312 1.125 34.0469 0.0625
Q30.0781 -0.984375 24.9531 -0.984375
Q20.3594 -0.984375 16.6719 -0.265625
Q12.9844 0.4375 10.2031 2
Q7.42188 3.5625 5.53125 6.125
Q3.65625 8.6875 2.78125 12.4062
L10.5469 13.9219
Q11.6719 9.67188 15.1875 7.6875
Q18.7031 5.71875 24.9531 5.71875
Q27.7812 5.71875 30.1406 6.10938
Q32.5156 6.5 34.2188 7.45312
Q35.9375 8.40625 36.8906 9.98438
Q37.8438 11.5781 37.8438 13.9219
Q37.8438 16.3125 36.7188 17.8438
Q35.5938 19.3906 33.5938 20.4062
Q31.5938 21.4375 28.7344 22.1875
Q25.875 22.9531 22.4688 23.875
Q19.2812 24.7031 16.1562 25.7344
Q13.0312 26.7656 10.5156 28.4375
Q8.01562 30.125 6.45312 32.6094
Q4.89062 35.1094 4.89062 38.875
Q4.89062 46.0938 10.0312 49.875
Q15.1875 53.6562 25.0469 53.6562
Q33.7969 53.6562 38.9375 50.5781
Q44.0938 47.5156 45.4531 40.7188
L37.5469 39.75
Q37.1094 41.7969 35.9375 43.1875
Q34.7656 44.5781 33.1094 45.4375
Q31.4531 46.2969 29.375 46.6562
Q27.2969 47.0156 25.0469 47.0156
Q19.0938 47.0156 16.25 45.2031
Q13.4219 43.4062 13.4219 39.75
Q13.4219 37.5938 14.4688 36.2031
Q15.5312 34.8125 17.4062 33.8594
Q19.2812 32.9062 21.9219 32.2031
Q24.5625 31.5 27.7344 30.7188
Q29.8281 30.1719 32.0312 29.5625
Q34.2344 28.9531 36.2969 28.0938
Q38.375 27.25 40.2031 26.0938
Q42.0469 24.9531 43.4062 23.3438
Q44.7812 21.7344 45.5781 19.5781
Q46.3906 17.4375 46.3906 14.5938" id="LiberationSans-73"/>
     <path d="
M40.0938 8.5
Q37.6406 3.42188 33.6094 1.21875
Q29.5938 -0.984375 23.6406 -0.984375
Q13.625 -0.984375 8.90625 5.75
Q4.20312 12.5 4.20312 26.1719
Q4.20312 53.8125 23.6406 53.8125
Q29.6406 53.8125 33.6406 51.6094
Q37.6406 49.4219 40.0938 44.625
L40.1875 44.625
Q40.1875 45.125 40.1562 46.1719
Q40.1406 47.2188 40.1094 48.3594
Q40.0938 49.5156 40.0938 50.5312
Q40.0938 51.5625 40.0938 52
L40.0938 72.4688
L48.875 72.4688
L48.875 10.8906
Q48.875 8.98438 48.8906 7.21875
Q48.9219 5.46875 48.9688 4
Q49.0312 2.54688 49.0781 1.48438
Q49.125 0.4375 49.1719 0
L40.7656 0
Q40.6719 0.484375 40.5938 1.39062
Q40.5312 2.29688 40.4531 3.46875
Q40.375 4.64062 40.3281 5.9375
Q40.2812 7.23438 40.2812 8.5
z

M13.4219 26.4688
Q13.4219 21 14.1094 17.0938
Q14.7969 13.1875 16.3125 10.6719
Q17.8281 8.15625 20.1719 6.98438
Q22.5156 5.8125 25.875 5.8125
Q29.3438 5.8125 32 6.9375
Q34.6719 8.0625 36.4531 10.5781
Q38.2344 13.0938 39.1562 17.1406
Q40.0938 21.1875 40.0938 27.0469
Q40.0938 32.6719 39.1562 36.5469
Q38.2344 40.4375 36.4219 42.8281
Q34.625 45.2188 32 46.2656
Q29.3906 47.3125 25.9844 47.3125
Q22.75 47.3125 20.4062 46.1875
Q18.0625 45.0625 16.5 42.5781
Q14.9375 40.0938 14.1719 36.1094
Q13.4219 32.125 13.4219 26.4688" id="LiberationSans-64"/>
     <path d="
M17.625 46.4375
L17.625 0
L8.84375 0
L8.84375 46.4375
L1.42188 46.4375
L1.42188 52.8281
L8.84375 52.8281
L8.84375 58.7969
Q8.84375 61.6719 9.375 64.1406
Q9.90625 66.6094 11.3438 68.4375
Q12.7969 70.2656 15.2812 71.3125
Q17.7812 72.3594 21.7344 72.3594
Q23.2969 72.3594 24.9688 72.2188
Q26.6562 72.0781 27.9375 71.7812
L27.9375 65.0938
Q27.0938 65.2344 26 65.3594
Q24.9062 65.4844 24.0312 65.4844
Q22.0781 65.4844 20.8281 64.9375
Q19.5781 64.4062 18.875 63.4062
Q18.1719 62.4062 17.8906 60.9375
Q17.625 59.4688 17.625 57.5625
L17.625 52.8281
L27.9375 52.8281
L27.9375 46.4375
z
" id="LiberationSans-66"/>
     <path d="
M51.4219 26.6562
Q51.4219 20.6562 50.4375 15.5781
Q49.4688 10.5 47.1875 6.82812
Q44.9219 3.17188 41.1875 1.09375
Q37.4531 -0.984375 31.9844 -0.984375
Q26.3125 -0.984375 22.0625 1.17188
Q17.8281 3.32812 15.5781 8.20312
L15.3281 8.20312
Q15.375 8.10938 15.4062 7.32812
Q15.4375 6.54688 15.4531 5.375
Q15.4844 4.20312 15.5 2.75
Q15.5312 1.3125 15.5312 -0.09375
L15.5312 -20.75
L6.73438 -20.75
L6.73438 42.0469
Q6.73438 43.9531 6.70312 45.7031
Q6.6875 47.4688 6.64062 48.9062
Q6.59375 50.3438 6.54688 51.3594
Q6.5 52.3906 6.45312 52.8281
L14.9375 52.8281
Q14.9844 52.6875 15.0625 51.7969
Q15.1406 50.9219 15.2031 49.6719
Q15.2812 48.4375 15.3594 47.0156
Q15.4375 45.6094 15.4375 44.3438
L15.625 44.3438
Q16.8438 46.875 18.4062 48.6562
Q19.9688 50.4375 21.9688 51.5781
Q23.9688 52.7344 26.4375 53.25
Q28.9062 53.7656 31.9844 53.7656
Q37.4531 53.7656 41.1875 51.8125
Q44.9219 49.8594 47.1875 46.3125
Q49.4688 42.7812 50.4375 37.7656
Q51.4219 32.7656 51.4219 26.6562
M42.1875 26.4688
Q42.1875 31.3438 41.5938 35.1562
Q41.0156 38.9688 39.5781 41.5938
Q38.1406 44.2344 35.7344 45.5938
Q33.3438 46.9688 29.7344 46.9688
Q26.8125 46.9688 24.2188 46.1406
Q21.625 45.3125 19.7031 42.9688
Q17.7812 40.625 16.6562 36.5
Q15.5312 32.375 15.5312 25.7812
Q15.5312 20.1719 16.4531 16.2812
Q17.3906 12.4062 19.1719 10.0156
Q20.9531 7.625 23.5781 6.5625
Q26.2188 5.51562 29.6406 5.51562
Q33.2969 5.51562 35.7188 6.92188
Q38.1406 8.34375 39.5781 11.0312
Q41.0156 13.7188 41.5938 17.5938
Q42.1875 21.4844 42.1875 26.4688" id="LiberationSans-70"/>
     <path d="
M20.2188 -0.984375
Q12.25 -0.984375 8.25 3.21875
Q4.25 7.42188 4.25 14.75
Q4.25 19.9688 6.21875 23.3125
Q8.20312 26.6562 11.3906 28.5625
Q14.5938 30.4688 18.6875 31.2031
Q22.7969 31.9375 27.0469 32.0312
L38.9219 32.2344
L38.9219 35.1094
Q38.9219 38.375 38.2344 40.6719
Q37.5469 42.9688 36.125 44.375
Q34.7188 45.7969 32.5938 46.4531
Q30.4688 47.125 27.5938 47.125
Q25.0469 47.125 23 46.75
Q20.9531 46.3906 19.4375 45.4375
Q17.9219 44.4844 16.9844 42.8438
Q16.0625 41.2188 15.7656 38.7188
L6.59375 39.5469
Q7.07812 42.6719 8.4375 45.2812
Q9.8125 47.9062 12.3281 49.7969
Q14.8438 51.7031 18.625 52.75
Q22.4062 53.8125 27.7812 53.8125
Q37.75 53.8125 42.7656 49.2344
Q47.7969 44.6719 47.7969 36.0312
L47.7969 13.2812
Q47.7969 9.375 48.8281 7.39062
Q49.8594 5.42188 52.7344 5.42188
Q53.4688 5.42188 54.2031 5.51562
Q54.9375 5.60938 55.6094 5.76562
L55.6094 0.296875
Q53.9531 -0.09375 52.3125 -0.28125
Q50.6875 -0.484375 48.8281 -0.484375
Q46.3438 -0.484375 44.5625 0.171875
Q42.7812 0.828125 41.6562 2.17188
Q40.5312 3.51562 39.9375 5.48438
Q39.3594 7.46875 39.2031 10.1094
L38.9219 10.1094
Q37.5 7.5625 35.8125 5.51562
Q34.125 3.46875 31.875 2.03125
Q29.6406 0.59375 26.7812 -0.1875
Q23.9219 -0.984375 20.2188 -0.984375
M22.2188 5.60938
Q26.4219 5.60938 29.5625 7.14062
Q32.7188 8.6875 34.7812 11.0781
Q36.8594 13.4844 37.8906 16.3125
Q38.9219 19.1406 38.9219 21.7344
L38.9219 26.0781
L29.2969 25.875
Q26.0781 25.8281 23.1719 25.4062
Q20.2656 25 18.0625 23.7812
Q15.875 22.5625 14.5781 20.3594
Q13.2812 18.1719 13.2812 14.5938
Q13.2812 10.2969 15.5938 7.95312
Q17.9219 5.60938 22.2188 5.60938" id="LiberationSans-61"/>
     <path d="
M27.0469 0.390625
Q25.0469 -0.140625 22.9688 -0.453125
Q20.9062 -0.78125 18.1719 -0.78125
Q7.625 -0.78125 7.625 11.1875
L7.625 46.4375
L1.51562 46.4375
L1.51562 52.8281
L7.95312 52.8281
L10.5469 64.6562
L16.4062 64.6562
L16.4062 52.8281
L26.1719 52.8281
L26.1719 46.4375
L16.4062 46.4375
L16.4062 13.0938
Q16.4062 9.28125 17.6406 7.73438
Q18.8906 6.20312 21.9688 6.20312
Q23.25 6.20312 24.4375 6.39062
Q25.6406 6.59375 27.0469 6.89062
z
" id="LiberationSans-74"/>
     <path d="
M13.4219 26.6562
Q13.4219 22.125 14.0781 18.3125
Q14.75 14.5 16.3125 11.7344
Q17.875 8.98438 20.4375 7.46875
Q23 5.95312 26.7656 5.95312
Q31.4531 5.95312 34.5938 8.48438
Q37.75 11.0312 38.4844 16.3125
L47.3594 15.7188
Q46.9219 12.4531 45.4531 9.42188
Q44 6.39062 41.4844 4.09375
Q38.9688 1.8125 35.3438 0.40625
Q31.7344 -0.984375 27 -0.984375
Q20.7969 -0.984375 16.4531 1.10938
Q12.1094 3.21875 9.39062 6.90625
Q6.6875 10.5938 5.46875 15.5938
Q4.25 20.6094 4.25 26.4688
Q4.25 31.7812 5.125 35.8594
Q6 39.9375 7.59375 42.9844
Q9.1875 46.0469 11.3281 48.125
Q13.4844 50.2031 15.9844 51.4375
Q18.5 52.6875 21.2812 53.25
Q24.0781 53.8125 26.9062 53.8125
Q31.3438 53.8125 34.8125 52.5938
Q38.2812 51.375 40.7969 49.25
Q43.3125 47.125 44.875 44.2344
Q46.4375 41.3594 47.0781 38.0312
L38.0312 37.3594
Q37.3594 41.75 34.5625 44.3281
Q31.7812 46.9219 26.6562 46.9219
Q22.9062 46.9219 20.3906 45.6719
Q17.875 44.4375 16.3125 41.9219
Q14.75 39.4062 14.0781 35.5938
Q13.4219 31.7812 13.4219 26.6562" id="LiberationSans-63"/>
     <path d="
M40.2812 0
L40.2812 33.5
Q40.2812 37.3594 39.7188 39.9375
Q39.1562 42.5312 37.8906 44.1094
Q36.625 45.7031 34.5469 46.3594
Q32.4688 47.0156 29.3906 47.0156
Q26.2656 47.0156 23.75 45.9219
Q21.2344 44.8281 19.4531 42.75
Q17.6719 40.6719 16.6875 37.625
Q15.7188 34.5781 15.7188 30.6094
L15.7188 0
L6.9375 0
L6.9375 41.5469
Q6.9375 43.2188 6.90625 45.0469
Q6.89062 46.875 6.82812 48.5
Q6.78125 50.1406 6.73438 51.3125
Q6.6875 52.4844 6.64062 52.8281
L14.9375 52.8281
Q14.9844 52.5938 15.0312 51.5156
Q15.0938 50.4375 15.1562 49.0469
Q15.2344 47.6562 15.2812 46.2188
Q15.3281 44.7812 15.3281 43.7969
L15.4844 43.7969
Q16.75 46.0938 18.2656 47.9531
Q19.7812 49.8125 21.7812 51.0938
Q23.7812 52.3906 26.3594 53.0938
Q28.9531 53.8125 32.375 53.8125
Q36.7656 53.8125 39.9375 52.7344
Q43.1094 51.6562 45.1562 49.4062
Q47.2188 47.1719 48.1719 43.625
Q49.125 40.0938 49.125 35.2031
L49.125 0
z
" id="LiberationSans-6e"/>
     <path d="
M51.4219 26.4688
Q51.4219 12.5938 45.3125 5.79688
Q39.2031 -0.984375 27.5938 -0.984375
Q22.0781 -0.984375 17.7188 0.671875
Q13.375 2.34375 10.375 5.76562
Q7.375 9.1875 5.78125 14.3281
Q4.20312 19.4844 4.20312 26.4688
Q4.20312 53.8125 27.875 53.8125
Q34.0312 53.8125 38.5 52.0938
Q42.9688 50.3906 45.8281 46.9688
Q48.6875 43.5625 50.0469 38.4219
Q51.4219 33.2969 51.4219 26.4688
M42.1875 26.4688
Q42.1875 32.625 41.2344 36.625
Q40.2812 40.625 38.4531 43.0156
Q36.625 45.4062 33.9844 46.3594
Q31.3438 47.3125 28.0312 47.3125
Q24.6562 47.3125 21.9375 46.3125
Q19.2344 45.3125 17.3281 42.8906
Q15.4375 40.4844 14.4219 36.4688
Q13.4219 32.4688 13.4219 26.4688
Q13.4219 20.3125 14.5 16.2812
Q15.5781 12.25 17.4531 9.85938
Q19.3438 7.46875 21.9062 6.48438
Q24.4688 5.51562 27.4844 5.51562
Q30.8594 5.51562 33.5938 6.46875
Q36.3281 7.42188 38.2344 9.8125
Q40.1406 12.2031 41.1562 16.25
Q42.1875 20.3125 42.1875 26.4688" id="LiberationSans-6f"/>
     <path d="
M26.7656 -20.75
Q22.2188 -20.75 18.7031 -19.8125
Q15.1875 -18.8906 12.6875 -17.1562
Q10.2031 -15.4375 8.64062 -13.0312
Q7.07812 -10.6406 6.39062 -7.71875
L15.2344 -6.45312
Q16.1094 -10.1094 19.1094 -12.0781
Q22.125 -14.0625 27 -14.0625
Q29.9844 -14.0625 32.4219 -13.2344
Q34.8594 -12.4062 36.5625 -10.5625
Q38.2812 -8.73438 39.2031 -5.79688
Q40.1406 -2.875 40.1406 1.3125
L40.1406 9.8125
L40.0469 9.8125
Q39.0625 7.8125 37.625 5.98438
Q36.1875 4.15625 34.1094 2.73438
Q32.0312 1.3125 29.2969 0.453125
Q26.5625 -0.390625 23.0469 -0.390625
Q18.0156 -0.390625 14.4219 1.29688
Q10.8438 2.98438 8.5625 6.34375
Q6.29688 9.71875 5.25 14.7188
Q4.20312 19.7344 4.20312 26.3125
Q4.20312 32.6719 5.25 37.75
Q6.29688 42.8281 8.65625 46.3594
Q11.0312 49.9062 14.8125 51.7812
Q18.6094 53.6562 24.0312 53.6562
Q29.6406 53.6562 33.7656 51.0938
Q37.8906 48.5312 40.1406 43.7969
L40.2344 43.7969
Q40.2344 45.0156 40.2969 46.5312
Q40.375 48.0469 40.4531 49.3906
Q40.5312 50.7344 40.625 51.7031
Q40.7188 52.6875 40.8281 52.8281
L49.1719 52.8281
Q49.125 52.3906 49.0781 51.3438
Q49.0312 50.2969 48.9688 48.8281
Q48.9219 47.3594 48.8906 45.5781
Q48.875 43.7969 48.875 41.8906
L48.875 1.51562
Q48.875 -9.57812 43.4219 -15.1562
Q37.9844 -20.75 26.7656 -20.75
M40.1406 26.4219
Q40.1406 31.9375 38.9375 35.8594
Q37.75 39.7969 35.7969 42.2812
Q33.8438 44.7812 31.3281 45.9531
Q28.8125 47.125 26.1719 47.125
Q22.7969 47.125 20.375 45.9531
Q17.9688 44.7812 16.375 42.2656
Q14.7969 39.75 14.0312 35.8125
Q13.2812 31.8906 13.2812 26.4219
Q13.2812 20.7031 14.0312 16.8125
Q14.7969 12.9375 16.3594 10.5469
Q17.9219 8.15625 20.3125 7.125
Q22.7031 6.10938 26.0312 6.10938
Q28.6562 6.10938 31.1719 7.21875
Q33.6875 8.34375 35.6875 10.7812
Q37.7031 13.2344 38.9219 17.0938
Q40.1406 20.9531 40.1406 26.4219" id="LiberationSans-67"/>
     <path d="
M6.73438 0
L6.73438 72.4688
L15.5312 72.4688
L15.5312 0
z
" id="LiberationSans-6c"/>
     <path id="LiberationSans-20"/>
     <path d="
M67.4375 35.1094
Q67.4375 26.5156 64.8438 19.9375
Q62.25 13.375 57.75 8.95312
Q53.2656 4.54688 47.1406 2.26562
Q41.0156 0 33.9375 0
L8.20312 0
L8.20312 68.7969
L30.9531 68.7969
Q38.9219 68.7969 45.625 66.8125
Q52.3438 64.8438 57.1719 60.7188
Q62.0156 56.5938 64.7188 50.2344
Q67.4375 43.8906 67.4375 35.1094
M58.0625 35.1094
Q58.0625 42.0938 56.0469 47.0469
Q54.0469 52 50.4375 55.1719
Q46.8281 58.3438 41.7969 59.8281
Q36.7656 61.3281 30.7656 61.3281
L17.5312 61.3281
L17.5312 7.46875
L32.8594 7.46875
Q38.2812 7.46875 42.8906 9.21875
Q47.5156 10.9844 50.875 14.4531
Q54.25 17.9219 56.1562 23.0938
Q58.0625 28.2656 58.0625 35.1094" id="LiberationSans-44"/>
     <path d="
M29.9375 0
L19.5312 0
L0.34375 52.8281
L9.71875 52.8281
L21.3438 18.4531
Q21.6875 17.3906 22.1406 15.8438
Q22.6094 14.3125 23.0938 12.6406
Q23.5781 10.9844 24 9.4375
Q24.4219 7.90625 24.7031 6.89062
Q25 7.90625 25.4531 9.4375
Q25.9219 10.9844 26.4062 12.5938
Q26.9062 14.2031 27.4219 15.7344
Q27.9375 17.2812 28.3281 18.3594
L40.3281 52.8281
L49.6562 52.8281
z
" id="LiberationSans-76"/>
    </defs>
    <g style="fill:#262626;" transform="translate(310.208203125 23.8)scale(0.25 -0.25)">
     <use xlink:href="#LiberationSans-44"/>
     <use x="72.216796875" xlink:href="#LiberationSans-65"/>
     <use x="127.83203125" xlink:href="#LiberationSans-63"/>
     <use x="177.83203125" xlink:href="#LiberationSans-6f"/>
     <use x="233.447265625" xlink:href="#LiberationSans-6d"/>
     <use x="316.748046875" xlink:href="#LiberationSans-70"/>
     <use x="372.36328125" xlink:href="#LiberationSans-6f"/>
     <use x="427.978515625" xlink:href="#LiberationSans-73"/>
     <use x="477.978515625" xlink:href="#LiberationSans-69"/>
     <use x="500.1953125" xlink:href="#LiberationSans-74"/>
     <use x="527.978515625" xlink:href="#LiberationSans-69"/>
     <use x="550.1953125" xlink:href="#LiberationSans-6f"/>
     <use x="605.810546875" xlink:href="#LiberationSans-6e"/>
     <use x="661.42578125" xlink:href="#LiberationSans-20"/>
     <use x="689.208984375" xlink:href="#LiberationSans-6f"/>
     <use x="744.82421875" xlink:href="#LiberationSans-66"/>
     <use x="772.607421875" xlink:href="#LiberationSans-20"/>
     <use x="800.390625" xlink:href="#LiberationSans-61"/>
     <use x="856.005859375" xlink:href="#LiberationSans-20"/>
     <use x="883.7890625" xlink:href="#LiberationSans-73"/>
     <use x="933.7890625" xlink:href="#LiberationSans-69"/>
     <use x="956.005859375" xlink:href="#LiberationSans-67"/>
     <use x="1011.62109375" xlink:href="#LiberationSans-6e"/>
     <use x="1067.23632812" xlink:href="#LiberationSans-61"/>
     <use x="1122.8515625" xlink:href="#LiberationSans-6c"/>
     <use x="1145.06835938" xlink:href="#LiberationSans-20"/>
     <use x="1172.8515625" xlink:href="#LiberationSans-69"/>
     <use x="1195.06835938" xlink:href="#LiberationSans-6e"/>
     <use x="1250.68359375" xlink:href="#LiberationSans-74"/>
     <use x="1278.46679688" xlink:href="#LiberationSans-6f"/>
     <use x="1334.08203125" xlink:href="#LiberationSans-20"/>
     <use x="1361.86523438" xlink:href="#LiberationSans-65"/>
     <use x="1417.48046875" xlink:href="#LiberationSans-76"/>
     <use x="1467.48046875" xlink:href="#LiberationSans-65"/>
     <use x="1523.09570312" xlink:href="#LiberationSans-6e"/>
     <use x="1578.7109375" xlink:href="#LiberationSans-20"/>
     <use x="1606.49414062" xlink:href="#LiberationSans-61"/>
     <use x="1662.109375" xlink:href="#LiberationSans-6e"/>
     <use x="1717.72460938" xlink:href="#LiberationSans-64"/>
     <use x="1773.33984375" xlink:href="#LiberationSans-20"/>
     <use x="1801.12304688" xlink:href="#LiberationSans-6f"/>
     <use x="1856.73828125" xlink:href="#LiberationSans-64"/>
     <use x="1912.35351562" xlink:href="#LiberationSans-64"/>
     <use x="1967.96875" xlink:href="#LiberationSans-20"/>
     <use x="1995.75195312" xlink:href="#LiberationSans-63"/>
     <use x="2045.75195312" xlink:href="#LiberationSans-6f"/>
     <use x="2101.3671875" xlink:href="#LiberationSans-6d"/>
     <use x="2184.66796875" xlink:href="#LiberationSans-70"/>
     <use x="2240.28320312" xlink:href="#LiberationSans-6f"/>
     <use x="2295.8984375" xlink:href="#LiberationSans-6e"/>
     <use x="2351.51367188" xlink:href="#LiberationSans-65"/>
     <use x="2407.12890625" xlink:href="#LiberationSans-6e"/>
     <use x="2462.74414062" xlink:href="#LiberationSans-74"/>
     <use x="2490.52734375" xlink:href="#LiberationSans-73"/>
    </g>
   </g>
   <g id="legend_1">
    <g id="line2d_25">
     <path d="
M931.1 61.3
L981.1 61.3" style="fill:none;stroke:#4c72b0;stroke-linecap:round;stroke-width:1.75;"/>
    </g>
    <g id="line2d_26"/>
    <g id="text_10">
     <!-- $x(t)$ -->
     <defs>
      <path d="
M31 -24.8125
Q25.4375 -20.4062 21.4062 -14.7188
Q17.3906 -9.03125 14.8125 -2.57812
Q12.25 3.85938 10.9844 10.8906
Q9.71875 17.9219 9.71875 25
Q9.71875 32.1719 10.9844 39.2031
Q12.25 46.2344 14.8594 52.7344
Q17.4844 59.2344 21.5312 64.8906
Q25.5938 70.5625 31 74.8125
Q31 75 31.5 75
L32.4219 75
Q32.7188 75 32.9531 74.7344
Q33.2031 74.4688 33.2031 74.125
Q33.2031 73.6875 33.0156 73.4844
Q28.125 68.7031 24.875 63.2344
Q21.625 57.7656 19.6406 51.5781
Q17.6719 45.4062 16.7969 38.7812
Q15.9219 32.1719 15.9219 25
Q15.9219 -6.78125 32.9062 -23.2969
Q33.2031 -23.5781 33.2031 -24.125
Q33.2031 -24.3594 32.9375 -24.6719
Q32.6719 -25 32.4219 -25
L31.5 -25
Q31 -25 31 -24.8125" id="Cmr10-28"/>
      <path d="
M6.5 -25
Q5.60938 -25 5.60938 -24.125
Q5.60938 -23.6875 5.8125 -23.4844
Q22.9062 -6.78125 22.9062 25
Q22.9062 56.7812 6 73.2969
Q5.60938 73.5312 5.60938 74.125
Q5.60938 74.4688 5.875 74.7344
Q6.15625 75 6.5 75
L7.42188 75
Q7.71875 75 7.90625 74.8125
Q15.0938 69.1406 19.875 61.0312
Q24.6562 52.9375 26.875 43.75
Q29.1094 34.5781 29.1094 25
Q29.1094 17.9219 27.9062 11.0625
Q26.7031 4.20312 24.0938 -2.45312
Q21.4844 -9.125 17.4844 -14.7656
Q13.4844 -20.4062 7.90625 -24.8125
Q7.71875 -25 7.42188 -25
z
" id="Cmr10-29"/>
      <path d="
M7.8125 2.875
Q9.57812 1.51562 12.7969 1.51562
Q15.9219 1.51562 18.3125 4.51562
Q20.7031 7.51562 21.5781 11.0781
L26.125 28.8125
Q27.2031 33.6406 27.2031 35.4062
Q27.2031 37.8906 25.8125 39.75
Q24.4219 41.6094 21.9219 41.6094
Q18.75 41.6094 15.9688 39.625
Q13.1875 37.6406 11.2812 34.5938
Q9.375 31.5469 8.59375 28.4219
Q8.40625 27.7812 7.8125 27.7812
L6.59375 27.7812
Q5.8125 27.7812 5.8125 28.7188
L5.8125 29
Q6.78125 32.7188 9.125 36.25
Q11.4688 39.7969 14.8594 41.9844
Q18.2656 44.1875 22.125 44.1875
Q25.7812 44.1875 28.7344 42.2344
Q31.6875 40.2812 32.9062 36.9219
Q34.625 39.9844 37.2812 42.0781
Q39.9375 44.1875 43.1094 44.1875
Q45.2656 44.1875 47.5 43.4219
Q49.75 42.6719 51.1719 41.1094
Q52.5938 39.5469 52.5938 37.2031
Q52.5938 34.6719 50.9531 32.8281
Q49.3125 31 46.7812 31
Q45.1719 31 44.0938 32.0312
Q43.0156 33.0625 43.0156 34.625
Q43.0156 36.7188 44.4531 38.2969
Q45.9062 39.8906 47.9062 40.1875
Q46.0938 41.6094 42.9219 41.6094
Q39.7031 41.6094 37.3281 38.625
Q34.9688 35.6406 33.9844 31.9844
L29.5938 14.3125
Q28.5156 10.2969 28.5156 7.71875
Q28.5156 5.17188 29.9531 3.34375
Q31.3906 1.51562 33.7969 1.51562
Q38.4844 1.51562 42.1562 5.64062
Q45.8438 9.76562 47.0156 14.7031
Q47.2188 15.2812 47.7969 15.2812
L49.0312 15.2812
Q49.4219 15.2812 49.6562 15.0156
Q49.9062 14.75 49.9062 14.4062
Q49.9062 14.3125 49.8125 14.1094
Q48.3906 8.15625 43.8438 3.51562
Q39.3125 -1.125 33.5938 -1.125
Q29.9375 -1.125 26.9844 0.84375
Q24.0312 2.82812 22.7969 6.20312
Q21.2344 3.26562 18.4688 1.0625
Q15.7188 -1.125 12.5938 -1.125
Q10.4531 -1.125 8.17188 -0.359375
Q5.90625 0.390625 4.48438 1.95312
Q3.07812 3.51562 3.07812 5.90625
Q3.07812 8.25 4.70312 10.1719
Q6.34375 12.1094 8.79688 12.1094
Q10.4531 12.1094 11.5781 11.1094
Q12.7031 10.1094 12.7031 8.5
Q12.7031 6.39062 11.2969 4.82812
Q9.90625 3.26562 7.8125 2.875" id="Cmmi10-78"/>
      <path d="
M6.20312 8.10938
Q6.20312 9.57812 6.5 10.8906
L13.7188 39.5938
L3.21875 39.5938
Q2.20312 39.5938 2.20312 40.9219
Q2.59375 43.1094 3.51562 43.1094
L14.5938 43.1094
L18.6094 59.4219
Q19 60.75 20.1719 61.6719
Q21.3438 62.5938 22.7969 62.5938
Q24.0781 62.5938 24.9219 61.8281
Q25.7812 61.0781 25.7812 59.8125
Q25.7812 59.5156 25.75 59.3438
Q25.7344 59.1875 25.6875 58.9844
L21.6875 43.1094
L31.9844 43.1094
Q33.0156 43.1094 33.0156 41.7969
Q32.9531 41.5469 32.8125 40.9531
Q32.6719 40.375 32.4219 39.9844
Q32.1719 39.5938 31.6875 39.5938
L20.7969 39.5938
L13.625 10.6875
Q12.8906 7.85938 12.8906 5.8125
Q12.8906 1.51562 15.8281 1.51562
Q20.2188 1.51562 23.6094 5.64062
Q27 9.76562 28.8125 14.7031
Q29.2031 15.2812 29.5938 15.2812
L30.8125 15.2812
Q31.2031 15.2812 31.4375 15.0156
Q31.6875 14.75 31.6875 14.4062
Q31.6875 14.2031 31.5938 14.1094
Q29.3906 8.0625 25.1875 3.46875
Q21 -1.125 15.5781 -1.125
Q11.625 -1.125 8.90625 1.45312
Q6.20312 4.04688 6.20312 8.10938" id="Cmmi10-74"/>
     </defs>
     <g style="fill:#262626;" transform="translate(1001.1 70.05)scale(0.25 -0.25)">
      <use xlink:href="#Cmmi10-78"/>
      <use transform="translate(57.080078125 0.0)" xlink:href="#Cmr10-28"/>
      <use transform="translate(95.8984375 0.0)" xlink:href="#Cmmi10-74"/>
      <use transform="translate(131.982421875 0.0)" xlink:href="#Cmr10-29"/>
     </g>
    </g>
    <g id="line2d_27">
     <path d="
M931.1 98.8
L981.1 98.8" style="fill:none;stroke:#55a868;stroke-linecap:round;stroke-width:1.75;"/>
    </g>
    <g id="line2d_28"/>
    <g id="text_11">
     <!-- $x_{even}(t)$ -->
     <defs>
      <path d="
M10.6875 11.2812
Q10.6875 13.5312 11.2188 16.2031
Q11.7656 18.8906 12.2969 20.625
Q12.8438 22.3594 14.75 27.3906
Q16.6562 32.4219 16.7031 32.625
Q18.0156 36.2812 18.0156 38.625
Q18.0156 41.6094 15.8281 41.6094
Q11.8594 41.6094 9.29688 37.5312
Q6.73438 33.4531 5.51562 28.4219
Q5.32812 27.7812 4.6875 27.7812
L3.51562 27.7812
Q2.6875 27.7812 2.6875 28.7188
L2.6875 29
Q4.29688 34.9688 7.60938 39.5781
Q10.9375 44.1875 16.0156 44.1875
Q19.5781 44.1875 22.0469 41.8438
Q24.5156 39.5 24.5156 35.8906
Q24.5156 34.0312 23.6875 31.9844
Q21.7344 26.9062 20.6094 23.8438
Q19.4844 20.7969 18.5312 17.0156
Q17.5781 13.2344 17.5781 10.0156
Q17.5781 6.25 19.3125 3.875
Q21.0469 1.51562 24.7031 1.51562
Q31.6406 1.51562 37.2031 12.2031
Q38.9688 15.6719 40.5312 20.3594
Q42.0938 25.0469 42.0938 27.9844
Q42.0938 31 41.1094 32.6875
Q40.1406 34.375 38.5781 36.2031
Q37.0156 38.0312 37.0156 39.1094
Q37.0156 41.0625 38.625 42.6719
Q40.2344 44.2812 42.1875 44.2812
Q44.5781 44.2812 45.625 42.0781
Q46.6875 39.8906 46.6875 37.1094
Q46.6875 33.7969 45.7344 29.2031
Q44.7812 24.6094 43.0938 19.6719
Q41.4062 14.75 39.9844 11.9219
Q33.4062 -1.125 24.6094 -1.125
Q18.3125 -1.125 14.5 2.01562
Q10.6875 5.17188 10.6875 11.2812" id="Cmmi10-76"/>
      <path d="
M20.125 -1.125
Q15.3281 -1.125 11.7344 1.35938
Q8.15625 3.85938 6.26562 8.07812
Q4.39062 12.3125 4.39062 17
Q4.39062 24.125 7.98438 30.3906
Q11.5781 36.6719 17.7188 40.4219
Q23.875 44.1875 30.9062 44.1875
Q35.2031 44.1875 38.4062 41.9688
Q41.6094 39.75 41.6094 35.5938
Q41.6094 29.8281 37.0156 27.0156
Q32.4219 24.2188 26.6562 23.5625
Q20.9062 22.9062 13.9219 22.9062
L13.625 22.9062
Q12.0156 16.9375 12.0156 12.7031
Q12.0156 8.25 14.0625 4.875
Q16.1094 1.51562 20.3125 1.51562
Q26.2656 1.51562 31.75 4.25
Q37.25 6.98438 40.7188 11.8125
Q41.0156 12.1094 41.5 12.1094
Q42 12.1094 42.5 11.5469
Q43.0156 10.9844 43.0156 10.5
Q43.0156 10.1094 42.8281 9.90625
Q39.1562 4.78125 32.9531 1.82812
Q26.7656 -1.125 20.125 -1.125
M14.2031 25.4844
Q20.0156 25.4844 24.9531 26.0156
Q29.8906 26.5625 33.8906 28.7344
Q37.8906 30.9062 37.8906 35.5
Q37.8906 37.3594 36.8594 38.75
Q35.8438 40.1406 34.2031 40.875
Q32.5625 41.6094 30.8125 41.6094
Q26.5625 41.6094 23.1719 39.3125
Q19.7812 37.0156 17.5781 33.3281
Q15.375 29.6406 14.2031 25.4844" id="Cmmi10-65"/>
      <path d="
M7.71875 1.70312
Q7.71875 2.29688 7.8125 2.59375
L15.2812 32.4219
Q16.0156 35.2031 16.0156 37.3125
Q16.0156 41.6094 13.0938 41.6094
Q9.96875 41.6094 8.45312 37.8594
Q6.9375 34.125 5.51562 28.4219
Q5.51562 28.125 5.21875 27.9531
Q4.9375 27.7812 4.6875 27.7812
L3.51562 27.7812
Q3.17188 27.7812 2.92188 28.1406
Q2.6875 28.5156 2.6875 28.8125
Q3.76562 33.1562 4.76562 36.1719
Q5.76562 39.2031 7.89062 41.6875
Q10.0156 44.1875 13.1875 44.1875
Q16.9375 44.1875 19.8125 41.8125
Q22.7031 39.4531 22.7031 35.7969
Q25.6875 39.7031 29.6875 41.9375
Q33.6875 44.1875 38.1875 44.1875
Q41.75 44.1875 44.3281 42.9688
Q46.9219 41.75 48.3594 39.2812
Q49.8125 36.8125 49.8125 33.4062
Q49.8125 29.2969 47.9688 23.4844
Q46.1406 17.6719 43.4062 10.5
Q42 7.23438 42 4.5
Q42 1.51562 44.2812 1.51562
Q48.1875 1.51562 50.7969 5.70312
Q53.4219 9.90625 54.5 14.7031
Q54.6875 15.2812 55.3281 15.2812
L56.5 15.2812
Q56.8906 15.2812 57.1562 15.0312
Q57.4219 14.7969 57.4219 14.4062
Q57.4219 14.3125 57.3281 14.1094
Q55.9531 8.45312 52.5625 3.65625
Q49.1719 -1.125 44.0938 -1.125
Q40.5781 -1.125 38.0781 1.29688
Q35.5938 3.71875 35.5938 7.17188
Q35.5938 9.03125 36.375 11.0781
Q37.6406 14.3594 39.2812 18.8906
Q40.9219 23.4375 41.9688 27.5781
Q43.0156 31.7344 43.0156 34.9062
Q43.0156 37.7031 41.8594 39.6562
Q40.7188 41.6094 37.9844 41.6094
Q34.3281 41.6094 31.25 39.9844
Q28.1719 38.375 25.875 35.7188
Q23.5781 33.0625 21.6875 29.3906
L14.8906 2.20312
Q14.5469 0.828125 13.3438 -0.140625
Q12.1562 -1.125 10.6875 -1.125
Q9.46875 -1.125 8.59375 -0.34375
Q7.71875 0.4375 7.71875 1.70312" id="Cmmi10-6e"/>
     </defs>
     <g style="fill:#262626;" transform="translate(1001.1 107.55)scale(0.25 -0.25)">
      <use xlink:href="#Cmmi10-78"/>
      <use transform="translate(57.080078125 -25.509375)scale(0.7)" xlink:href="#Cmmi10-65"/>
      <use transform="translate(89.619140625 -25.509375)scale(0.7)" xlink:href="#Cmmi10-76"/>
      <use transform="translate(123.491210938 -25.509375)scale(0.7)" xlink:href="#Cmmi10-65"/>
      <use transform="translate(156.030273438 -25.509375)scale(0.7)" xlink:href="#Cmmi10-6e"/>
      <use transform="translate(198.037109375 0.0)" xlink:href="#Cmr10-28"/>
      <use transform="translate(236.85546875 0.0)" xlink:href="#Cmmi10-74"/>
      <use transform="translate(272.939453125 0.0)" xlink:href="#Cmr10-29"/>
     </g>
    </g>
    <g id="line2d_29">
     <path d="
M931.1 136.8
L981.1 136.8" style="fill:none;stroke:#c44e52;stroke-linecap:round;stroke-width:1.75;"/>
    </g>
    <g id="line2d_30"/>
    <g id="text_12">
     <!-- $x_{odd}(t)$ -->
     <defs>
      <path d="
M17.3906 -1.125
Q11.0781 -1.125 7.4375 3.64062
Q3.8125 8.40625 3.8125 14.8906
Q3.8125 21.2969 7.125 28.1719
Q10.4531 35.0625 16.0938 39.625
Q21.7344 44.1875 28.2188 44.1875
Q31.1562 44.1875 33.5156 42.5469
Q35.8906 40.9219 37.2031 38.1875
L42.8281 60.5
Q43.2188 62.2031 43.3125 63.1875
Q43.3125 64.7969 36.8125 64.7969
Q35.7969 64.7969 35.7969 66.1094
Q35.8438 66.3594 36.0156 66.9844
Q36.1875 67.625 36.4531 67.9688
Q36.7188 68.3125 37.2031 68.3125
L50.6875 69.3906
Q51.9062 69.3906 51.9062 68.1094
L37.5 10.5938
Q36.8125 8.9375 36.8125 5.8125
Q36.8125 1.51562 39.7031 1.51562
Q42.8281 1.51562 44.4531 5.48438
Q46.0938 9.46875 47.2188 14.7031
Q47.4062 15.2812 48 15.2812
L49.2188 15.2812
Q49.6094 15.2812 49.8438 14.9375
Q50.0938 14.5938 50.0938 14.3125
Q48.3438 7.32812 46.2656 3.09375
Q44.1875 -1.125 39.5 -1.125
Q36.1406 -1.125 33.5469 0.84375
Q30.9531 2.82812 30.3281 6.10938
Q23.875 -1.125 17.3906 -1.125
M17.4844 1.51562
Q21.0938 1.51562 24.4844 4.21875
Q27.875 6.9375 30.3281 10.5938
Q30.4219 10.6875 30.4219 10.9844
L35.8906 33.0156
Q35.2969 36.5312 33.2969 39.0625
Q31.2969 41.6094 27.9844 41.6094
Q24.6094 41.6094 21.7031 38.8438
Q18.7969 36.0781 16.7969 32.3281
Q14.8438 28.3281 13.0625 21.3438
Q11.2812 14.3594 11.2812 10.5
Q11.2812 7.03125 12.7656 4.26562
Q14.2656 1.51562 17.4844 1.51562" id="Cmmi10-64"/>
      <path d="
M20.125 -1.125
Q15.375 -1.125 11.6875 1.125
Q8.01562 3.375 6 7.17188
Q4 10.9844 4 15.8281
Q4 22.6094 7.78125 29.25
Q11.5781 35.8906 17.8438 40.0312
Q24.125 44.1875 31 44.1875
Q34.7188 44.1875 37.625 42.9219
Q40.5312 41.6562 42.6719 39.3594
Q44.8281 37.0625 45.9688 33.9844
Q47.125 30.9062 47.125 27.2969
Q47.125 22.0781 44.9219 17.0156
Q42.7188 11.9688 38.8906 7.84375
Q35.0625 3.71875 30.125 1.29688
Q25.2031 -1.125 20.125 -1.125
M20.3125 1.51562
Q24.75 1.51562 28.4375 4.53125
Q32.125 7.5625 34.4844 12.1719
Q36.8594 16.7969 38.125 21.9219
Q39.4062 27.0469 39.4062 31.2031
Q39.4062 35.5469 37.2344 38.5781
Q35.0625 41.6094 30.8125 41.6094
Q24.9531 41.6094 20.5469 36.5938
Q16.1562 31.5938 13.9375 24.625
Q11.7188 17.6719 11.7188 11.9219
Q11.7188 7.5625 13.9375 4.53125
Q16.1562 1.51562 20.3125 1.51562" id="Cmmi10-6f"/>
     </defs>
     <g style="fill:#262626;" transform="translate(1001.1 145.55)scale(0.25 -0.25)">
      <use xlink:href="#Cmmi10-78"/>
      <use transform="translate(57.080078125 -25.509375)scale(0.7)" xlink:href="#Cmmi10-6f"/>
      <use transform="translate(90.9521484375 -25.509375)scale(0.7)" xlink:href="#Cmmi10-64"/>
      <use transform="translate(127.353515625 -25.509375)scale(0.7)" xlink:href="#Cmmi10-64"/>
      <use transform="translate(163.754882812 0.0)" xlink:href="#Cmr10-28"/>
      <use transform="translate(202.573242188 0.0)" xlink:href="#Cmmi10-74"/>
      <use transform="translate(238.657226562 0.0)" xlink:href="#Cmr10-29"/>
     </g>
    </g>
   </g>
  </g>
 </g>
 <defs>
  <clipPath id="p45e3f7c9ba">
   <rect height="223.2" width="948.6" x="153.0" y="28.8"/>
  </clipPath>
 </defs>
</svg>
