<?xml version="1.0" encoding="UTF-8" standalone="no"?>
<!-- Created with matplotlib (http://matplotlib.org/) -->

<svg
   xmlns:dc="http://purl.org/dc/elements/1.1/"
   xmlns:cc="http://creativecommons.org/ns#"
   xmlns:rdf="http://www.w3.org/1999/02/22-rdf-syntax-ns#"
   xmlns:svg="http://www.w3.org/2000/svg"
   xmlns="http://www.w3.org/2000/svg"
   xmlns:xlink="http://www.w3.org/1999/xlink"
   xmlns:sodipodi="http://sodipodi.sourceforge.net/DTD/sodipodi-0.dtd"
   xmlns:inkscape="http://www.inkscape.org/namespaces/inkscape"
   height="288pt"
   version="1.1"
   viewBox="0 0 1224 288"
   width="1224pt"
   id="svg2"
   inkscape:version="0.48.4 r9939"
   sodipodi:docname="memory.svg">
  <metadata
     id="metadata454">
    <rdf:RDF>
      <cc:Work
         rdf:about="">
        <dc:format>image/svg+xml</dc:format>
        <dc:type
           rdf:resource="http://purl.org/dc/dcmitype/StillImage" />
      </cc:Work>
    </rdf:RDF>
  </metadata>
  <sodipodi:namedview
     pagecolor="#ffffff"
     bordercolor="#666666"
     borderopacity="1"
     objecttolerance="10"
     gridtolerance="10"
     guidetolerance="10"
     inkscape:pageopacity="0"
     inkscape:pageshadow="2"
     inkscape:window-width="1335"
     inkscape:window-height="750"
     id="namedview452"
     showgrid="false"
     inkscape:zoom="0.63006536"
     inkscape:cx="612.82179"
     inkscape:cy="55.007036"
     inkscape:window-x="31"
     inkscape:window-y="18"
     inkscape:window-maximized="1"
     inkscape:current-layer="figure_1" />
  <defs
     id="defs4">
    <style
       type="text/css"
       id="style6">
*{stroke-linecap:butt;stroke-linejoin:round;}
  </style>
  </defs>
  <g
     id="figure_1">
    <g
       id="axes_1">
      <g
         id="patch_2">
        <path
           d=" M153 252 L1101.6 252 L1101.6 28.8 L153 28.8 z "
           style="fill:#eaeaf2;"
           id="path14" />
      </g>
      <g
         id="matplotlib.axis_1">
        <g
           id="xtick_1">
          <g
             id="line2d_1">
            <path
               clip-path="url(#p45e3f7c9ba)"
               d=" M153 252 L153 28.8"
               style="fill:none;stroke:#ffffff;stroke-linecap:round;"
               id="path19" />
          </g>
          <g
             id="line2d_2">
            <defs
               id="defs22">
              <path
                 d=" M0 0 L0 0"
                 id="m219da94a98"
                 style="stroke:#262626;" />
            </defs>
            <g
               id="g25">
              <use
                 style="fill:#262626;stroke:#262626;"
                 x="153.0"
                 xlink:href="#m219da94a98"
                 y="252.0"
                 id="use27" />
            </g>
          </g>
          <g
             id="line2d_3">
            <g
               id="g30">
              <use
                 style="fill:#262626;stroke:#262626;"
                 x="153.0"
                 xlink:href="#m219da94a98"
                 y="28.8"
                 id="use32" />
            </g>
          </g>
          <g
             id="text_1">
            <!-- −1 -->
            <defs
               id="defs35">
              <path
                 d=" M4.9375 29.6875 L4.9375 36.8125 L53.5156 36.8125 L53.5156 29.6875 z "
                 id="LiberationSans-2212" />
              <path
                 d=" M7.625 0 L7.625 7.46875 L25.1406 7.46875 L25.1406 60.4062 L9.625 49.3125 L9.625 57.625 L25.875 68.7969 L33.9844 68.7969 L33.9844 7.46875 L50.7344 7.46875 L50.7344 0 z "
                 id="LiberationSans-31" />
            </defs>
            <g
               style="fill:#262626;"
               transform="translate(139.974609375 277.1171875)scale(0.25 -0.25)"
               id="g39">
              <use
                 xlink:href="#LiberationSans-2212"
                 id="use41" />
              <use
                 x="58.3984375"
                 xlink:href="#LiberationSans-31"
                 id="use43" />
            </g>
          </g>
        </g>
        <g
           id="xtick_2">
          <g
             id="line2d_4">
            <path
               clip-path="url(#p45e3f7c9ba)"
               d=" M311.1 252 L311.1 28.8"
               style="fill:none;stroke:#ffffff;stroke-linecap:round;"
               id="path47" />
          </g>
          <g
             id="line2d_5">
            <g
               id="g50">
              <use
                 style="fill:#262626;stroke:#262626;"
                 x="311.1"
                 xlink:href="#m219da94a98"
                 y="252.0"
                 id="use52" />
            </g>
          </g>
          <g
             id="line2d_6">
            <g
               id="g55">
              <use
                 style="fill:#262626;stroke:#262626;"
                 x="311.1"
                 xlink:href="#m219da94a98"
                 y="28.8"
                 id="use57" />
            </g>
          </g>
          <g
             id="text_2">
            <!-- 0 -->
            <defs
               id="defs60">
              <path
                 d=" M51.7031 34.4219 Q51.7031 24.5156 49.8281 17.75 Q47.9531 10.9844 44.7031 6.8125 Q41.4531 2.64062 37.0625 0.828125 Q32.6719 -0.984375 27.6875 -0.984375 Q22.6562 -0.984375 18.3125 0.828125 Q13.9688 2.64062 10.7656 6.78125 Q7.5625 10.9375 5.73438 17.7031 Q3.90625 24.4688 3.90625 34.4219 Q3.90625 44.8281 5.73438 51.6406 Q7.5625 58.4531 10.7812 62.5 Q14.0156 66.5469 18.4062 68.1875 Q22.7969 69.8281 27.9844 69.8281 Q32.9062 69.8281 37.2188 68.1875 Q41.5469 66.5469 44.7656 62.5 Q48 58.4531 49.8438 51.6406 Q51.7031 44.8281 51.7031 34.4219 M42.7812 34.4219 Q42.7812 42.625 41.7969 48.0625 Q40.8281 53.5156 38.9219 56.7656 Q37.0156 60.0156 34.25 61.3594 Q31.5 62.7031 27.9844 62.7031 Q24.2656 62.7031 21.4375 61.3281 Q18.6094 59.9688 16.6719 56.7188 Q14.75 53.4688 13.7656 48.0156 Q12.7969 42.5781 12.7969 34.4219 Q12.7969 26.5156 13.7969 21.0938 Q14.7969 15.6719 16.7188 12.375 Q18.6562 9.07812 21.4375 7.64062 Q24.2188 6.20312 27.7812 6.20312 Q31.25 6.20312 34.0312 7.64062 Q36.8125 9.07812 38.7344 12.375 Q40.6719 15.6719 41.7188 21.0938 Q42.7812 26.5156 42.7812 34.4219"
                 id="LiberationSans-30" />
            </defs>
            <g
               style="fill:#262626;"
               transform="translate(305.125390625 277.1171875)scale(0.25 -0.25)"
               id="g63">
              <use
                 xlink:href="#LiberationSans-30"
                 id="use65" />
            </g>
          </g>
        </g>
        <g
           id="xtick_3">
          <g
             id="line2d_7">
            <path
               clip-path="url(#p45e3f7c9ba)"
               d=" M469.2 252 L469.2 28.8"
               style="fill:none;stroke:#ffffff;stroke-linecap:round;"
               id="path69" />
          </g>
          <g
             id="line2d_8">
            <g
               id="g72">
              <use
                 style="fill:#262626;stroke:#262626;"
                 x="469.2"
                 xlink:href="#m219da94a98"
                 y="252.0"
                 id="use74" />
            </g>
          </g>
          <g
             id="line2d_9">
            <g
               id="g77">
              <use
                 style="fill:#262626;stroke:#262626;"
                 x="469.2"
                 xlink:href="#m219da94a98"
                 y="28.8"
                 id="use79" />
            </g>
          </g>
          <g
             id="text_3">
            <!-- 1 -->
            <g
               style="fill:#262626;"
               transform="translate(463.811328125 277.1171875)scale(0.25 -0.25)"
               id="g82">
              <use
                 xlink:href="#LiberationSans-31"
                 id="use84" />
            </g>
          </g>
        </g>
        <g
           id="xtick_4">
          <g
             id="line2d_10">
            <path
               clip-path="url(#p45e3f7c9ba)"
               d=" M627.3 252 L627.3 28.8"
               style="fill:none;stroke:#ffffff;stroke-linecap:round;"
               id="path88" />
          </g>
          <g
             id="line2d_11">
            <g
               id="g91">
              <use
                 style="fill:#262626;stroke:#262626;"
                 x="627.3"
                 xlink:href="#m219da94a98"
                 y="252.0"
                 id="use93" />
            </g>
          </g>
          <g
             id="line2d_12">
            <g
               id="g96">
              <use
                 style="fill:#262626;stroke:#262626;"
                 x="627.3"
                 xlink:href="#m219da94a98"
                 y="28.8"
                 id="use98" />
            </g>
          </g>
          <g
             id="text_4">
            <!-- 2 -->
            <defs
               id="defs101">
              <path
                 d=" M5.03125 0 L5.03125 6.20312 Q7.51562 11.9219 11.1094 16.2812 Q14.7031 20.6562 18.6562 24.1875 Q22.6094 27.7344 26.4844 30.7656 Q30.375 33.7969 33.5 36.8125 Q36.625 39.8438 38.5469 43.1562 Q40.4844 46.4844 40.4844 50.6875 Q40.4844 53.6094 39.5938 55.8281 Q38.7188 58.0625 37.0625 59.5625 Q35.4062 61.0781 33.0781 61.8281 Q30.7656 62.5938 27.9375 62.5938 Q25.2969 62.5938 22.9688 61.8594 Q20.6562 61.1406 18.8438 59.6719 Q17.0469 58.2031 15.8906 56.0312 Q14.75 53.8594 14.4062 50.9844 L5.42188 51.8125 Q5.85938 55.5156 7.46875 58.7812 Q9.07812 62.0625 11.9062 64.5312 Q14.75 67 18.7188 68.4062 Q22.7031 69.8281 27.9375 69.8281 Q33.0625 69.8281 37.0625 68.6094 Q41.0625 67.3906 43.8125 64.9844 Q46.5781 62.5938 48.0469 59.0781 Q49.5156 55.5625 49.5156 50.9844 Q49.5156 47.5156 48.2656 44.3906 Q47.0156 41.2656 44.9375 38.4219 Q42.875 35.5938 40.1406 32.9531 Q37.4062 30.3281 34.4219 27.8125 Q31.4531 25.2969 28.4219 22.8281 Q25.3906 20.3594 22.7188 17.8594 Q20.0625 15.375 17.9688 12.8125 Q15.875 10.25 14.7031 7.46875 L50.5938 7.46875 L50.5938 0 z "
                 id="LiberationSans-32" />
            </defs>
            <g
               style="fill:#262626;"
               transform="translate(621.6046875 277.1171875)scale(0.25 -0.25)"
               id="g104">
              <use
                 xlink:href="#LiberationSans-32"
                 id="use106" />
            </g>
          </g>
        </g>
        <g
           id="xtick_5">
          <g
             id="line2d_13">
            <path
               clip-path="url(#p45e3f7c9ba)"
               d=" M785.4 252 L785.4 28.8"
               style="fill:none;stroke:#ffffff;stroke-linecap:round;"
               id="path110" />
          </g>
          <g
             id="line2d_14">
            <g
               id="g113">
              <use
                 style="fill:#262626;stroke:#262626;"
                 x="785.4"
                 xlink:href="#m219da94a98"
                 y="252.0"
                 id="use115" />
            </g>
          </g>
          <g
             id="line2d_15">
            <g
               id="g118">
              <use
                 style="fill:#262626;stroke:#262626;"
                 x="785.4"
                 xlink:href="#m219da94a98"
                 y="28.8"
                 id="use120" />
            </g>
          </g>
          <g
             id="text_5">
            <!-- 3 -->
            <defs
               id="defs123">
              <path
                 d=" M51.2188 19 Q51.2188 14.2656 49.6719 10.5469 Q48.1406 6.84375 45.1875 4.26562 Q42.2344 1.70312 37.8594 0.359375 Q33.5 -0.984375 27.875 -0.984375 Q21.4844 -0.984375 17.1094 0.609375 Q12.75 2.20312 9.90625 4.8125 Q7.07812 7.42188 5.65625 10.7656 Q4.25 14.1094 3.8125 17.6719 L12.8906 18.5 Q13.2812 15.7656 14.3281 13.5156 Q15.375 11.2812 17.1875 9.67188 Q19 8.0625 21.625 7.17188 Q24.2656 6.29688 27.875 6.29688 Q34.5156 6.29688 38.2969 9.5625 Q42.0938 12.8438 42.0938 19.2812 Q42.0938 23.0938 40.4062 25.4062 Q38.7188 27.7344 36.2031 29.0312 Q33.6875 30.3281 30.7344 30.7656 Q27.7812 31.2031 25.2969 31.2031 L20.3125 31.2031 L20.3125 38.8125 L25.0938 38.8125 Q27.5938 38.8125 30.2656 39.3281 Q32.9531 39.8438 35.1719 41.1875 Q37.4062 42.5312 38.8438 44.8281 Q40.2812 47.125 40.2812 50.6875 Q40.2812 56.2031 37.0312 59.3906 Q33.7969 62.5938 27.3906 62.5938 Q21.5781 62.5938 17.9844 59.6094 Q14.4062 56.6406 13.8125 51.2188 L4.98438 51.9062 Q5.51562 56.4531 7.46875 59.8125 Q9.42188 63.1875 12.4219 65.4062 Q15.4375 67.625 19.2812 68.7188 Q23.1406 69.8281 27.4844 69.8281 Q33.25 69.8281 37.3906 68.375 Q41.5469 66.9375 44.1875 64.4688 Q46.8281 62.0156 48.0625 58.6875 Q49.3125 55.375 49.3125 51.6094 Q49.3125 48.5781 48.4844 45.9375 Q47.6562 43.3125 45.8906 41.2031 Q44.1406 39.1094 41.4219 37.5938 Q38.7188 36.0781 34.9062 35.2969 L34.9062 35.1094 Q39.0625 34.6719 42.1406 33.2188 Q45.2188 31.7812 47.2188 29.625 Q49.2188 27.4844 50.2188 24.75 Q51.2188 22.0156 51.2188 19"
                 id="LiberationSans-33" />
            </defs>
            <g
               style="fill:#262626;"
               transform="translate(779.47421875 277.1171875)scale(0.25 -0.25)"
               id="g126">
              <use
                 xlink:href="#LiberationSans-33"
                 id="use128" />
            </g>
          </g>
        </g>
        <g
           id="xtick_6">
          <g
             id="line2d_16">
            <path
               clip-path="url(#p45e3f7c9ba)"
               d=" M943.5 252 L943.5 28.8"
               style="fill:none;stroke:#ffffff;stroke-linecap:round;"
               id="path132" />
          </g>
          <g
             id="line2d_17">
            <g
               id="g135">
              <use
                 style="fill:#262626;stroke:#262626;"
                 x="943.5"
                 xlink:href="#m219da94a98"
                 y="252.0"
                 id="use137" />
            </g>
          </g>
          <g
             id="line2d_18">
            <g
               id="g140">
              <use
                 style="fill:#262626;stroke:#262626;"
                 x="943.5"
                 xlink:href="#m219da94a98"
                 y="28.8"
                 id="use142" />
            </g>
          </g>
          <g
             id="text_6">
            <!-- 4 -->
            <defs
               id="defs145">
              <path
                 d=" M43.0156 15.5781 L43.0156 0 L34.7188 0 L34.7188 15.5781 L2.29688 15.5781 L2.29688 22.4062 L33.7969 68.7969 L43.0156 68.7969 L43.0156 22.5156 L52.6875 22.5156 L52.6875 15.5781 z  M34.7188 58.8906 Q34.625 58.6406 34.2344 57.9375 Q33.8438 57.2344 33.3438 56.3438 Q32.8594 55.4688 32.3438 54.5625 Q31.8438 53.6562 31.4531 53.0781 L13.8125 27.0938 Q13.5781 26.7031 13.1094 26.0625 Q12.6406 25.4375 12.1562 24.7812 Q11.6719 24.125 11.1719 23.4844 Q10.6875 22.8594 10.4062 22.5156 L34.7188 22.5156 z "
                 id="LiberationSans-34" />
            </defs>
            <g
               style="fill:#262626;"
               transform="translate(937.201171875 277.1171875)scale(0.25 -0.25)"
               id="g148">
              <use
                 xlink:href="#LiberationSans-34"
                 id="use150" />
            </g>
          </g>
        </g>
        <g
           id="xtick_7">
          <g
             id="line2d_19">
            <path
               clip-path="url(#p45e3f7c9ba)"
               d=" M1101.6 252 L1101.6 28.8"
               style="fill:none;stroke:#ffffff;stroke-linecap:round;"
               id="path154" />
          </g>
          <g
             id="line2d_20">
            <g
               id="g157">
              <use
                 style="fill:#262626;stroke:#262626;"
                 x="1101.6"
                 xlink:href="#m219da94a98"
                 y="252.0"
                 id="use159" />
            </g>
          </g>
          <g
             id="line2d_21">
            <g
               id="g162">
              <use
                 style="fill:#262626;stroke:#262626;"
                 x="1101.6"
                 xlink:href="#m219da94a98"
                 y="28.8"
                 id="use164" />
            </g>
          </g>
          <g
             id="text_7">
            <!-- 5 -->
            <defs
               id="defs167">
              <path
                 d=" M51.4219 22.4062 Q51.4219 17.2344 49.8594 12.9375 Q48.2969 8.64062 45.2188 5.53125 Q42.1406 2.4375 37.5781 0.71875 Q33.0156 -0.984375 27 -0.984375 Q21.5781 -0.984375 17.5469 0.28125 Q13.5312 1.5625 10.7344 3.78125 Q7.95312 6 6.3125 8.98438 Q4.6875 11.9688 4 15.375 L12.8906 16.4062 Q13.4219 14.4531 14.3906 12.625 Q15.375 10.7969 17.0625 9.34375 Q18.75 7.90625 21.2188 7.04688 Q23.6875 6.20312 27.2031 6.20312 Q30.6094 6.20312 33.3906 7.25 Q36.1875 8.29688 38.1562 10.3438 Q40.1406 12.4062 41.2031 15.375 Q42.2812 18.3594 42.2812 22.2188 Q42.2812 25.3906 41.25 28.0469 Q40.2344 30.7188 38.3281 32.6406 Q36.4219 34.5781 33.6562 35.6406 Q30.9062 36.7188 27.3906 36.7188 Q25.2031 36.7188 23.3438 36.3281 Q21.4844 35.9375 19.8906 35.25 Q18.3125 34.5781 17.0156 33.6719 Q15.7188 32.7656 14.5938 31.7812 L6 31.7812 L8.29688 68.7969 L47.4062 68.7969 L47.4062 61.3281 L16.3125 61.3281 L14.9844 39.5 Q17.3281 41.3125 20.8438 42.5938 Q24.3594 43.8906 29.2031 43.8906 Q34.3281 43.8906 38.4219 42.3281 Q42.5312 40.7656 45.4062 37.9062 Q48.2969 35.0625 49.8594 31.1094 Q51.4219 27.1562 51.4219 22.4062"
                 id="LiberationSans-35" />
            </defs>
            <g
               style="fill:#262626;"
               transform="translate(1095.67226563 277.1171875)scale(0.25 -0.25)"
               id="g170">
              <use
                 xlink:href="#LiberationSans-35"
                 id="use172" />
            </g>
          </g>
        </g>
        <g
           id="text_8">
          <!-- Time -->
          <defs
             id="defs175">
            <path
               d=" M37.5 0 L37.5 33.5 Q37.5 37.3594 37.0156 39.9375 Q36.5312 42.5312 35.375 44.1094 Q34.2344 45.7031 32.375 46.3594 Q30.5156 47.0156 27.8281 47.0156 Q25.0469 47.0156 22.7969 45.9219 Q20.5625 44.8281 18.9688 42.75 Q17.3906 40.6719 16.5312 37.625 Q15.6719 34.5781 15.6719 30.6094 L15.6719 0 L6.9375 0 L6.9375 41.5469 Q6.9375 43.2188 6.90625 45.0469 Q6.89062 46.875 6.82812 48.5 Q6.78125 50.1406 6.73438 51.3125 Q6.6875 52.4844 6.64062 52.8281 L14.9375 52.8281 Q14.9844 52.5938 15.0312 51.5156 Q15.0938 50.4375 15.1562 49.0469 Q15.2344 47.6562 15.2812 46.2188 Q15.3281 44.7812 15.3281 43.7969 L15.4844 43.7969 Q16.6562 46.0938 18.0156 47.9531 Q19.3906 49.8125 21.2188 51.0938 Q23.0469 52.3906 25.4062 53.0938 Q27.7812 53.8125 30.9062 53.8125 Q36.9219 53.8125 40.4062 51.4219 Q43.8906 49.0312 45.2656 43.7969 L45.4062 43.7969 Q46.5781 46.0938 48.0469 47.9531 Q49.5156 49.8125 51.4688 51.0938 Q53.4219 52.3906 55.8594 53.0938 Q58.2969 53.8125 61.4219 53.8125 Q65.4375 53.8125 68.3281 52.7344 Q71.2344 51.6562 73.0938 49.4062 Q74.9531 47.1719 75.8281 43.625 Q76.7031 40.0938 76.7031 35.2031 L76.7031 0 L68.0156 0 L68.0156 33.5 Q68.0156 37.3594 67.5312 39.9375 Q67.0469 42.5312 65.8906 44.1094 Q64.75 45.7031 62.8906 46.3594 Q61.0312 47.0156 58.3438 47.0156 Q55.5625 47.0156 53.3125 45.9688 Q51.0781 44.9219 49.4844 42.875 Q47.9062 40.8281 47.0469 37.75 Q46.1875 34.6719 46.1875 30.6094 L46.1875 0 z "
               id="LiberationSans-6d" />
            <path
               d=" M35.1562 61.1875 L35.1562 0 L25.875 0 L25.875 61.1875 L2.25 61.1875 L2.25 68.7969 L58.7969 68.7969 L58.7969 61.1875 z "
               id="LiberationSans-54" />
            <path
               d=" M6.6875 64.0625 L6.6875 72.4688 L15.4844 72.4688 L15.4844 64.0625 z  M6.6875 0 L6.6875 52.8281 L15.4844 52.8281 L15.4844 0 z "
               id="LiberationSans-69" />
            <path
               d=" M13.4844 24.5625 Q13.4844 20.4062 14.3281 16.9062 Q15.1875 13.4219 16.9688 10.9062 Q18.75 8.40625 21.5312 7 Q24.3125 5.60938 28.2188 5.60938 Q33.9375 5.60938 37.375 7.90625 Q40.8281 10.2031 42.0469 13.7188 L49.75 11.5312 Q48.9219 9.32812 47.4375 7.10938 Q45.9531 4.89062 43.4531 3.09375 Q40.9688 1.3125 37.2344 0.15625 Q33.5 -0.984375 28.2188 -0.984375 Q16.5 -0.984375 10.375 6 Q4.25 12.9844 4.25 26.7656 Q4.25 34.1875 6.09375 39.3281 Q7.95312 44.4844 11.1719 47.7031 Q14.4062 50.9219 18.7031 52.3594 Q23 53.8125 27.875 53.8125 Q34.5156 53.8125 38.9844 51.6562 Q43.4531 49.5156 46.1562 45.7188 Q48.875 41.9375 50.0156 36.8125 Q51.1719 31.6875 51.1719 25.7344 L51.1719 24.5625 z  M42.0938 31.2969 Q41.3594 39.6562 37.8438 43.4844 Q34.3281 47.3125 27.7344 47.3125 Q25.5312 47.3125 23.1094 46.6094 Q20.7031 45.9062 18.6562 44.0938 Q16.6094 42.2812 15.1875 39.1719 Q13.7656 36.0781 13.5781 31.2969 z "
               id="LiberationSans-65" />
          </defs>
          <g
             style="fill:#262626;"
             transform="translate(600.829296875 305.421875)scale(0.25 -0.25)"
             id="g181">
            <use
               xlink:href="#LiberationSans-54"
               id="use183" />
            <use
               x="57.333984375"
               xlink:href="#LiberationSans-69"
               id="use185" />
            <use
               x="79.55078125"
               xlink:href="#LiberationSans-6d"
               id="use187" />
            <use
               x="162.8515625"
               xlink:href="#LiberationSans-65"
               id="use189" />
          </g>
        </g>
      </g>
      <g
         id="matplotlib.axis_2">
        <g
           id="ytick_1">
          <g
             id="line2d_22">
            <path
               clip-path="url(#p45e3f7c9ba)"
               d=" M153 233.4 L1101.6 233.4"
               style="fill:none;stroke:#ffffff;stroke-linecap:round;"
               id="path194" />
          </g>
          <g
             id="line2d_23">
            <g
               id="g197">
              <use
                 style="fill:#262626;stroke:#262626;"
                 x="153.0"
                 xlink:href="#m219da94a98"
                 y="233.4"
                 id="use199" />
            </g>
          </g>
          <g
             id="line2d_24">
            <g
               id="g202">
              <use
                 style="fill:#262626;stroke:#262626;"
                 x="1101.6"
                 xlink:href="#m219da94a98"
                 y="233.4"
                 id="use204" />
            </g>
          </g>
          <g
             id="text_9">
            <!-- 0.0 -->
            <defs
               id="defs207">
              <path
                 d=" M9.125 0 L9.125 10.6875 L18.6562 10.6875 L18.6562 0 z "
                 id="LiberationSans-2e" />
            </defs>
            <g
               style="fill:#262626;"
               transform="translate(113.203125 239.86484375)scale(0.25 -0.25)"
               id="g210">
              <use
                 xlink:href="#LiberationSans-30"
                 id="use212" />
              <use
                 x="55.615234375"
                 xlink:href="#LiberationSans-2e"
                 id="use214" />
              <use
                 x="83.3984375"
                 xlink:href="#LiberationSans-30"
                 id="use216" />
            </g>
          </g>
        </g>
        <g
           id="ytick_2">
          <g
             id="line2d_25">
            <path
               clip-path="url(#p45e3f7c9ba)"
               d=" M153 196.2 L1101.6 196.2"
               style="fill:none;stroke:#ffffff;stroke-linecap:round;"
               id="path220" />
          </g>
          <g
             id="line2d_26">
            <g
               id="g223">
              <use
                 style="fill:#262626;stroke:#262626;"
                 x="153.0"
                 xlink:href="#m219da94a98"
                 y="196.2"
                 id="use225" />
            </g>
          </g>
          <g
             id="line2d_27">
            <g
               id="g228">
              <use
                 style="fill:#262626;stroke:#262626;"
                 x="1101.6"
                 xlink:href="#m219da94a98"
                 y="196.2"
                 id="use230" />
            </g>
          </g>
          <g
             id="text_10">
            <!-- 0.2 -->
            <g
               style="fill:#262626;"
               transform="translate(113.48046875 202.66484375)scale(0.25 -0.25)"
               id="g233">
              <use
                 xlink:href="#LiberationSans-30"
                 id="use235" />
              <use
                 x="55.615234375"
                 xlink:href="#LiberationSans-2e"
                 id="use237" />
              <use
                 x="83.3984375"
                 xlink:href="#LiberationSans-32"
                 id="use239" />
            </g>
          </g>
        </g>
        <g
           id="ytick_3">
          <g
             id="line2d_28">
            <path
               clip-path="url(#p45e3f7c9ba)"
               d=" M153 159 L1101.6 159"
               style="fill:none;stroke:#ffffff;stroke-linecap:round;"
               id="path243" />
          </g>
          <g
             id="line2d_29">
            <g
               id="g246">
              <use
                 style="fill:#262626;stroke:#262626;"
                 x="153.0"
                 xlink:href="#m219da94a98"
                 y="159.0"
                 id="use248" />
            </g>
          </g>
          <g
             id="line2d_30">
            <g
               id="g251">
              <use
                 style="fill:#262626;stroke:#262626;"
                 x="1101.6"
                 xlink:href="#m219da94a98"
                 y="159.0"
                 id="use253" />
            </g>
          </g>
          <g
             id="text_11">
            <!-- 0.4 -->
            <g
               style="fill:#262626;"
               transform="translate(112.95703125 165.46484375)scale(0.25 -0.25)"
               id="g256">
              <use
                 xlink:href="#LiberationSans-30"
                 id="use258" />
              <use
                 x="55.615234375"
                 xlink:href="#LiberationSans-2e"
                 id="use260" />
              <use
                 x="83.3984375"
                 xlink:href="#LiberationSans-34"
                 id="use262" />
            </g>
          </g>
        </g>
        <g
           id="ytick_4">
          <g
             id="line2d_31">
            <path
               clip-path="url(#p45e3f7c9ba)"
               d=" M153 121.8 L1101.6 121.8"
               style="fill:none;stroke:#ffffff;stroke-linecap:round;"
               id="path266" />
          </g>
          <g
             id="line2d_32">
            <g
               id="g269">
              <use
                 style="fill:#262626;stroke:#262626;"
                 x="153.0"
                 xlink:href="#m219da94a98"
                 y="121.8"
                 id="use271" />
            </g>
          </g>
          <g
             id="line2d_33">
            <g
               id="g274">
              <use
                 style="fill:#262626;stroke:#262626;"
                 x="1101.6"
                 xlink:href="#m219da94a98"
                 y="121.8"
                 id="use276" />
            </g>
          </g>
          <g
             id="text_12">
            <!-- 0.6 -->
            <defs
               id="defs279">
              <path
                 d=" M51.2188 22.5156 Q51.2188 17.3281 49.7812 13 Q48.3438 8.6875 45.5312 5.57812 Q42.7188 2.48438 38.5625 0.75 Q34.4219 -0.984375 29 -0.984375 Q23 -0.984375 18.5 1.3125 Q14.0156 3.60938 11.0312 7.92188 Q8.0625 12.25 6.5625 18.5312 Q5.07812 24.8125 5.07812 32.8125 Q5.07812 42 6.76562 48.9219 Q8.45312 55.8594 11.625 60.5 Q14.7969 65.1406 19.3594 67.4844 Q23.9219 69.8281 29.6875 69.8281 Q33.2031 69.8281 36.2812 69.0938 Q39.3594 68.3594 41.875 66.7188 Q44.3906 65.0938 46.2812 62.4062 Q48.1875 59.7188 49.3125 55.8125 L40.9219 54.2969 Q39.5469 58.7344 36.5469 60.7188 Q33.5469 62.7031 29.5938 62.7031 Q25.9844 62.7031 23.0469 60.9844 Q20.125 59.2812 18.0625 55.875 Q16.0156 52.4844 14.9062 47.3594 Q13.8125 42.2344 13.8125 35.4062 Q16.2188 39.8438 20.5625 42.1562 Q24.9062 44.4844 30.5156 44.4844 Q35.2031 44.4844 39.0156 42.9688 Q42.8281 41.4531 45.5312 38.5938 Q48.25 35.75 49.7344 31.6719 Q51.2188 27.5938 51.2188 22.5156 M42.2812 22.125 Q42.2812 25.6875 41.4062 28.5625 Q40.5312 31.4531 38.7656 33.4688 Q37.0156 35.5 34.4219 36.5938 Q31.8438 37.7031 28.4219 37.7031 Q26.0312 37.7031 23.5781 36.9844 Q21.1406 36.2812 19.1562 34.6875 Q17.1875 33.1094 15.9375 30.5156 Q14.7031 27.9375 14.7031 24.2188 Q14.7031 20.4062 15.6719 17.1094 Q16.6562 13.8125 18.4844 11.375 Q20.3125 8.9375 22.8906 7.51562 Q25.4844 6.10938 28.7188 6.10938 Q31.8906 6.10938 34.4062 7.20312 Q36.9219 8.29688 38.6719 10.375 Q40.4375 12.4531 41.3594 15.4219 Q42.2812 18.4062 42.2812 22.125"
                 id="LiberationSans-36" />
            </defs>
            <g
               style="fill:#262626;"
               transform="translate(113.32421875 128.26484375)scale(0.25 -0.25)"
               id="g282">
              <use
                 xlink:href="#LiberationSans-30"
                 id="use284" />
              <use
                 x="55.615234375"
                 xlink:href="#LiberationSans-2e"
                 id="use286" />
              <use
                 x="83.3984375"
                 xlink:href="#LiberationSans-36"
                 id="use288" />
            </g>
          </g>
        </g>
        <g
           id="ytick_5">
          <g
             id="line2d_34">
            <path
               clip-path="url(#p45e3f7c9ba)"
               d=" M153 84.6 L1101.6 84.6"
               style="fill:none;stroke:#ffffff;stroke-linecap:round;"
               id="path292" />
          </g>
          <g
             id="line2d_35">
            <g
               id="g295">
              <use
                 style="fill:#262626;stroke:#262626;"
                 x="153.0"
                 xlink:href="#m219da94a98"
                 y="84.6"
                 id="use297" />
            </g>
          </g>
          <g
             id="line2d_36">
            <g
               id="g300">
              <use
                 style="fill:#262626;stroke:#262626;"
                 x="1101.6"
                 xlink:href="#m219da94a98"
                 y="84.6"
                 id="use302" />
            </g>
          </g>
          <g
             id="text_13">
            <!-- 0.8 -->
            <defs
               id="defs305">
              <path
                 d=" M51.2656 19.1875 Q51.2656 14.7969 49.875 11.1094 Q48.4844 7.42188 45.625 4.73438 Q42.7812 2.04688 38.3281 0.53125 Q33.8906 -0.984375 27.8281 -0.984375 Q21.7812 -0.984375 17.3594 0.53125 Q12.9375 2.04688 10.0312 4.70312 Q7.125 7.375 5.73438 11.0625 Q4.34375 14.75 4.34375 19.0938 Q4.34375 22.8594 5.48438 25.7812 Q6.64062 28.7188 8.5625 30.8281 Q10.5 32.9531 12.9688 34.25 Q15.4375 35.5469 18.0625 35.9844 L18.0625 36.1875 Q15.1875 36.8594 12.9062 38.375 Q10.6406 39.8906 9.09375 42.0156 Q7.5625 44.1406 6.75 46.7188 Q5.95312 49.3125 5.95312 52.2031 Q5.95312 55.8125 7.34375 59 Q8.73438 62.2031 11.4688 64.625 Q14.2031 67.0469 18.25 68.4375 Q22.3125 69.8281 27.6406 69.8281 Q33.25 69.8281 37.375 68.4062 Q41.5 67 44.2031 64.5781 Q46.9219 62.1562 48.2344 58.9375 Q49.5625 55.7188 49.5625 52.0938 Q49.5625 49.2656 48.75 46.6719 Q47.9531 44.0938 46.4062 41.9688 Q44.875 39.8438 42.5938 38.3438 Q40.3281 36.8594 37.3594 36.2812 L37.3594 36.0781 Q40.3281 35.5938 42.8594 34.2969 Q45.4062 33.0156 47.2656 30.8906 Q49.125 28.7656 50.1875 25.8281 Q51.2656 22.9062 51.2656 19.1875 M40.4375 51.6094 Q40.4375 54.2031 39.7656 56.3438 Q39.1094 58.5 37.5938 60.0312 Q36.0781 61.5781 33.6406 62.4219 Q31.2031 63.2812 27.6406 63.2812 Q24.1719 63.2812 21.7812 62.4219 Q19.3906 61.5781 17.8438 60.0312 Q16.3125 58.5 15.625 56.3438 Q14.9375 54.2031 14.9375 51.6094 Q14.9375 49.5625 15.4688 47.4062 Q16.0156 45.2656 17.4219 43.5 Q18.8438 41.75 21.3281 40.625 Q23.8281 39.5 27.7344 39.5 Q31.8906 39.5 34.4062 40.625 Q36.9219 41.75 38.25 43.5 Q39.5938 45.2656 40.0156 47.4062 Q40.4375 49.5625 40.4375 51.6094 M42.1406 20.0156 Q42.1406 22.5156 41.4531 24.8281 Q40.7656 27.1562 39.1094 28.9375 Q37.4531 30.7188 34.6406 31.8125 Q31.8438 32.9062 27.6406 32.9062 Q23.7812 32.9062 21.0625 31.8125 Q18.3594 30.7188 16.6719 28.9062 Q14.9844 27.0938 14.2031 24.7188 Q13.4219 22.3594 13.4219 19.8281 Q13.4219 16.6562 14.2031 14.0312 Q14.9844 11.4219 16.6875 9.54688 Q18.4062 7.67188 21.1875 6.64062 Q23.9688 5.60938 27.9375 5.60938 Q31.9375 5.60938 34.6719 6.64062 Q37.4062 7.67188 39.0625 9.54688 Q40.7188 11.4219 41.4219 14.0781 Q42.1406 16.75 42.1406 20.0156"
                 id="LiberationSans-38" />
            </defs>
            <g
               style="fill:#262626;"
               transform="translate(113.3125 91.06484375)scale(0.25 -0.25)"
               id="g308">
              <use
                 xlink:href="#LiberationSans-30"
                 id="use310" />
              <use
                 x="55.615234375"
                 xlink:href="#LiberationSans-2e"
                 id="use312" />
              <use
                 x="83.3984375"
                 xlink:href="#LiberationSans-38"
                 id="use314" />
            </g>
          </g>
        </g>
        <g
           id="ytick_6">
          <g
             id="line2d_37">
            <path
               clip-path="url(#p45e3f7c9ba)"
               d=" M153 47.4 L1101.6 47.4"
               style="fill:none;stroke:#ffffff;stroke-linecap:round;"
               id="path318" />
          </g>
          <g
             id="line2d_38">
            <g
               id="g321">
              <use
                 style="fill:#262626;stroke:#262626;"
                 x="153.0"
                 xlink:href="#m219da94a98"
                 y="47.4"
                 id="use323" />
            </g>
          </g>
          <g
             id="line2d_39">
            <g
               id="g326">
              <use
                 style="fill:#262626;stroke:#262626;"
                 x="1101.6"
                 xlink:href="#m219da94a98"
                 y="47.4"
                 id="use328" />
            </g>
          </g>
          <g
             id="text_14">
            <!-- 1.0 -->
            <g
               style="fill:#262626;"
               transform="translate(114.1328125 53.86484375)scale(0.25 -0.25)"
               id="g331">
              <use
                 xlink:href="#LiberationSans-31"
                 id="use333" />
              <use
                 x="55.615234375"
                 xlink:href="#LiberationSans-2e"
                 id="use335" />
              <use
                 x="83.3984375"
                 xlink:href="#LiberationSans-30"
                 id="use337" />
            </g>
          </g>
        </g>
      </g>
      <g
         id="line2d_40">
        <path
           clip-path="url(#p45e3f7c9ba)"
           d=" M153 233.4 L467.619 233.4 L469.2 47.4 L783.819 47.4 L785.4 233.4 L1100.02 233.4 L1100.02 233.4"
           style="fill:none;stroke:#4c72b0;stroke-linecap:round;stroke-width:2;"
           id="path340" />
      </g>
      <g
         id="line2d_41">
        <path
           clip-path="url(#p45e3f7c9ba)"
           d=" M153 233.4 L467.619 233.4 L469.2 140.4 L783.819 140.4 L785.4 233.4 L1100.02 233.4 L1100.02 233.4"
           style="fill:none;stroke:#55a868;stroke-linecap:round;stroke-width:2;"
           id="path343" />
      </g>
      <g
         id="line2d_42">
        <path
           clip-path="url(#p45e3f7c9ba)"
           d=" M153 233.4 L469.2 233.4 L548.25 140.4 L785.4 140.4 L864.45 233.4 L1100.02 233.4 L1100.02 233.4"
           style="fill:none;stroke:#c44e52;stroke-linecap:round;stroke-width:2;"
           id="path346" />
      </g>
      <g
         id="patch_3">
        <path
           d=" M153 28.8 L1101.6 28.8"
           style="fill:none;"
           id="path349" />
      </g>
      <g
         id="patch_4">
        <path
           d=" M1101.6 252 L1101.6 28.8"
           style="fill:none;"
           id="path352" />
      </g>
      <g
         id="patch_5">
        <path
           d=" M153 252 L1101.6 252"
           style="fill:none;"
           id="path355" />
      </g>
      <g
         id="patch_6">
        <path
           d=" M153 252 L153 28.8"
           style="fill:none;"
           id="path358" />
      </g>
      <g
         id="legend_1">
        <g
           id="line2d_43">
          <path
             d=" M880.85 61.3 L930.85 61.3"
             style="fill:none;stroke:#4c72b0;stroke-linecap:round;stroke-width:2;"
             id="path362" />
        </g>
        <g
           id="line2d_44" />
        <g
           id="text_15">
          <!-- $x(t)$ -->
          <defs
             id="defs366">
            <path
               d=" M31 -24.8125 Q25.4375 -20.4062 21.4062 -14.7188 Q17.3906 -9.03125 14.8125 -2.57812 Q12.25 3.85938 10.9844 10.8906 Q9.71875 17.9219 9.71875 25 Q9.71875 32.1719 10.9844 39.2031 Q12.25 46.2344 14.8594 52.7344 Q17.4844 59.2344 21.5312 64.8906 Q25.5938 70.5625 31 74.8125 Q31 75 31.5 75 L32.4219 75 Q32.7188 75 32.9531 74.7344 Q33.2031 74.4688 33.2031 74.125 Q33.2031 73.6875 33.0156 73.4844 Q28.125 68.7031 24.875 63.2344 Q21.625 57.7656 19.6406 51.5781 Q17.6719 45.4062 16.7969 38.7812 Q15.9219 32.1719 15.9219 25 Q15.9219 -6.78125 32.9062 -23.2969 Q33.2031 -23.5781 33.2031 -24.125 Q33.2031 -24.3594 32.9375 -24.6719 Q32.6719 -25 32.4219 -25 L31.5 -25 Q31 -25 31 -24.8125"
               id="Cmr10-28" />
            <path
               d=" M6.5 -25 Q5.60938 -25 5.60938 -24.125 Q5.60938 -23.6875 5.8125 -23.4844 Q22.9062 -6.78125 22.9062 25 Q22.9062 56.7812 6 73.2969 Q5.60938 73.5312 5.60938 74.125 Q5.60938 74.4688 5.875 74.7344 Q6.15625 75 6.5 75 L7.42188 75 Q7.71875 75 7.90625 74.8125 Q15.0938 69.1406 19.875 61.0312 Q24.6562 52.9375 26.875 43.75 Q29.1094 34.5781 29.1094 25 Q29.1094 17.9219 27.9062 11.0625 Q26.7031 4.20312 24.0938 -2.45312 Q21.4844 -9.125 17.4844 -14.7656 Q13.4844 -20.4062 7.90625 -24.8125 Q7.71875 -25 7.42188 -25 z "
               id="Cmr10-29" />
            <path
               d=" M7.8125 2.875 Q9.57812 1.51562 12.7969 1.51562 Q15.9219 1.51562 18.3125 4.51562 Q20.7031 7.51562 21.5781 11.0781 L26.125 28.8125 Q27.2031 33.6406 27.2031 35.4062 Q27.2031 37.8906 25.8125 39.75 Q24.4219 41.6094 21.9219 41.6094 Q18.75 41.6094 15.9688 39.625 Q13.1875 37.6406 11.2812 34.5938 Q9.375 31.5469 8.59375 28.4219 Q8.40625 27.7812 7.8125 27.7812 L6.59375 27.7812 Q5.8125 27.7812 5.8125 28.7188 L5.8125 29 Q6.78125 32.7188 9.125 36.25 Q11.4688 39.7969 14.8594 41.9844 Q18.2656 44.1875 22.125 44.1875 Q25.7812 44.1875 28.7344 42.2344 Q31.6875 40.2812 32.9062 36.9219 Q34.625 39.9844 37.2812 42.0781 Q39.9375 44.1875 43.1094 44.1875 Q45.2656 44.1875 47.5 43.4219 Q49.75 42.6719 51.1719 41.1094 Q52.5938 39.5469 52.5938 37.2031 Q52.5938 34.6719 50.9531 32.8281 Q49.3125 31 46.7812 31 Q45.1719 31 44.0938 32.0312 Q43.0156 33.0625 43.0156 34.625 Q43.0156 36.7188 44.4531 38.2969 Q45.9062 39.8906 47.9062 40.1875 Q46.0938 41.6094 42.9219 41.6094 Q39.7031 41.6094 37.3281 38.625 Q34.9688 35.6406 33.9844 31.9844 L29.5938 14.3125 Q28.5156 10.2969 28.5156 7.71875 Q28.5156 5.17188 29.9531 3.34375 Q31.3906 1.51562 33.7969 1.51562 Q38.4844 1.51562 42.1562 5.64062 Q45.8438 9.76562 47.0156 14.7031 Q47.2188 15.2812 47.7969 15.2812 L49.0312 15.2812 Q49.4219 15.2812 49.6562 15.0156 Q49.9062 14.75 49.9062 14.4062 Q49.9062 14.3125 49.8125 14.1094 Q48.3906 8.15625 43.8438 3.51562 Q39.3125 -1.125 33.5938 -1.125 Q29.9375 -1.125 26.9844 0.84375 Q24.0312 2.82812 22.7969 6.20312 Q21.2344 3.26562 18.4688 1.0625 Q15.7188 -1.125 12.5938 -1.125 Q10.4531 -1.125 8.17188 -0.359375 Q5.90625 0.390625 4.48438 1.95312 Q3.07812 3.51562 3.07812 5.90625 Q3.07812 8.25 4.70312 10.1719 Q6.34375 12.1094 8.79688 12.1094 Q10.4531 12.1094 11.5781 11.1094 Q12.7031 10.1094 12.7031 8.5 Q12.7031 6.39062 11.2969 4.82812 Q9.90625 3.26562 7.8125 2.875"
               id="Cmmi10-78" />
            <path
               d=" M6.20312 8.10938 Q6.20312 9.57812 6.5 10.8906 L13.7188 39.5938 L3.21875 39.5938 Q2.20312 39.5938 2.20312 40.9219 Q2.59375 43.1094 3.51562 43.1094 L14.5938 43.1094 L18.6094 59.4219 Q19 60.75 20.1719 61.6719 Q21.3438 62.5938 22.7969 62.5938 Q24.0781 62.5938 24.9219 61.8281 Q25.7812 61.0781 25.7812 59.8125 Q25.7812 59.5156 25.75 59.3438 Q25.7344 59.1875 25.6875 58.9844 L21.6875 43.1094 L31.9844 43.1094 Q33.0156 43.1094 33.0156 41.7969 Q32.9531 41.5469 32.8125 40.9531 Q32.6719 40.375 32.4219 39.9844 Q32.1719 39.5938 31.6875 39.5938 L20.7969 39.5938 L13.625 10.6875 Q12.8906 7.85938 12.8906 5.8125 Q12.8906 1.51562 15.8281 1.51562 Q20.2188 1.51562 23.6094 5.64062 Q27 9.76562 28.8125 14.7031 Q29.2031 15.2812 29.5938 15.2812 L30.8125 15.2812 Q31.2031 15.2812 31.4375 15.0156 Q31.6875 14.75 31.6875 14.4062 Q31.6875 14.2031 31.5938 14.1094 Q29.3906 8.0625 25.1875 3.46875 Q21 -1.125 15.5781 -1.125 Q11.625 -1.125 8.90625 1.45312 Q6.20312 4.04688 6.20312 8.10938"
               id="Cmmi10-74" />
          </defs>
          <g
             style="fill:#262626;"
             transform="translate(950.85 70.05)scale(0.25 -0.25)"
             id="g372">
            <use
               xlink:href="#Cmmi10-78"
               id="use374" />
            <use
               transform="translate(57.080078125 0.0)"
               xlink:href="#Cmr10-28"
               id="use376" />
            <use
               transform="translate(95.8984375 0.0)"
               xlink:href="#Cmmi10-74"
               id="use378" />
            <use
               transform="translate(131.982421875 0.0)"
               xlink:href="#Cmr10-29"
               id="use380" />
          </g>
        </g>
        <g
           id="line2d_45">
          <path
             d=" M880.85 98.8 L930.85 98.8"
             style="fill:none;stroke:#55a868;stroke-linecap:round;stroke-width:2;"
             id="path383" />
        </g>
        <g
           id="line2d_46" />
        <g
           id="text_16">
          <!-- $0.5x(t)$ -->
          <defs
             id="defs387">
            <path
               d=" M25 -2.20312 Q12.75 -2.20312 8.32812 7.875 Q3.90625 17.9688 3.90625 31.8906 Q3.90625 40.5781 5.48438 48.2344 Q7.07812 55.9062 11.7812 61.25 Q16.5 66.6094 25 66.6094 Q31.5938 66.6094 35.7812 63.375 Q39.9844 60.1562 42.1875 55.0469 Q44.3906 49.9531 45.1875 44.1094 Q46 38.2812 46 31.8906 Q46 23.2969 44.4062 15.7969 Q42.8281 8.29688 38.1875 3.04688 Q33.5469 -2.20312 25 -2.20312 M25 0.390625 Q30.5625 0.390625 33.2969 6.09375 Q36.0312 11.8125 36.6719 18.75 Q37.3125 25.6875 37.3125 33.5 Q37.3125 41.0156 36.6719 47.3594 Q36.0312 53.7188 33.3125 58.8594 Q30.6094 64.0156 25 64.0156 Q19.3438 64.0156 16.6094 58.8281 Q13.875 53.6562 13.2344 47.3281 Q12.5938 41.0156 12.5938 33.5 Q12.5938 27.9375 12.8594 23 Q13.1406 18.0625 14.3125 12.8125 Q15.4844 7.5625 18.0938 3.96875 Q20.7031 0.390625 25 0.390625"
               id="Cmr10-30" />
            <path
               d=" M8.6875 11.375 Q9.71875 8.45312 11.8438 6.04688 Q13.9688 3.65625 16.875 2.3125 Q19.7812 0.984375 22.9062 0.984375 Q30.125 0.984375 32.8594 6.59375 Q35.5938 12.2031 35.5938 20.2188 Q35.5938 23.6875 35.4688 26.0469 Q35.3594 28.4219 34.8125 30.6094 Q33.8906 34.125 31.5625 36.7656 Q29.25 39.4062 25.875 39.4062 Q22.5156 39.4062 20.0938 38.375 Q17.6719 37.3594 16.1562 35.9844 Q14.6562 34.625 13.4844 33.1094 Q12.3125 31.5938 12.0156 31.5 L10.8906 31.5 Q10.6406 31.5 10.2656 31.8125 Q9.90625 32.125 9.90625 32.4219 L9.90625 65.8281 Q9.90625 66.0625 10.2188 66.3281 Q10.5469 66.6094 10.8906 66.6094 L11.1875 66.6094 Q17.9219 63.375 25.4844 63.375 Q32.9062 63.375 39.7969 66.6094 L40.0938 66.6094 Q40.4375 66.6094 40.7188 66.3594 Q41.0156 66.1094 41.0156 65.8281 L41.0156 64.8906 Q41.0156 64.4062 40.8281 64.4062 Q37.4062 59.8594 32.25 57.3125 Q27.0938 54.7812 21.5781 54.7812 Q17.5781 54.7812 13.375 55.9062 L13.375 37.0156 Q16.7031 39.7031 19.3125 40.8438 Q21.9219 42 25.9844 42 Q31.5 42 35.8594 38.8125 Q40.2344 35.6406 42.5781 30.5312 Q44.9219 25.4375 44.9219 20.125 Q44.9219 14.1094 41.9688 8.98438 Q39.0156 3.85938 33.9375 0.828125 Q28.8594 -2.20312 22.9062 -2.20312 Q17.9688 -2.20312 13.8438 0.328125 Q9.71875 2.875 7.34375 7.17188 Q4.98438 11.4688 4.98438 16.3125 Q4.98438 18.5625 6.4375 19.9688 Q7.90625 21.3906 10.1094 21.3906 Q12.3125 21.3906 13.7969 19.9375 Q15.2812 18.5 15.2812 16.3125 Q15.2812 14.1562 13.7969 12.6719 Q12.3125 11.1875 10.1094 11.1875 Q9.76562 11.1875 9.32812 11.25 Q8.89062 11.3281 8.6875 11.375"
               id="Cmr10-35" />
            <path
               d=" M8.40625 5.51562 Q8.40625 7.76562 10.0625 9.375 Q11.7188 10.9844 13.9219 10.9844 Q15.2812 10.9844 16.5938 10.25 Q17.9219 9.51562 18.6562 8.20312 Q19.3906 6.89062 19.3906 5.51562 Q19.3906 3.32812 17.7656 1.65625 Q16.1562 0 13.9219 0 Q11.7188 0 10.0625 1.65625 Q8.40625 3.32812 8.40625 5.51562"
               id="Cmmi10-3a" />
          </defs>
          <g
             style="fill:#262626;"
             transform="translate(950.85 107.55)scale(0.25 -0.25)"
             id="g392">
            <use
               xlink:href="#Cmr10-30"
               id="use394" />
            <use
               transform="translate(50.0 0.0)"
               xlink:href="#Cmmi10-3a"
               id="use396" />
            <use
               transform="translate(78.54296875 0.0)"
               xlink:href="#Cmr10-35"
               id="use398" />
            <use
               transform="translate(128.54296875 0.0)"
               xlink:href="#Cmmi10-78"
               id="use400" />
            <use
               transform="translate(185.623046875 0.0)"
               xlink:href="#Cmr10-28"
               id="use402" />
            <use
               transform="translate(224.44140625 0.0)"
               xlink:href="#Cmmi10-74"
               id="use404" />
            <use
               transform="translate(260.525390625 0.0)"
               xlink:href="#Cmr10-29"
               id="use406" />
          </g>
        </g>
        <g
           id="line2d_47">
          <path
             d=" M880.85 158.3 L930.85 158.3"
             style="fill:none;stroke:#c44e52;stroke-linecap:round;stroke-width:2;"
             id="path409" />
        </g>
        <g
           id="line2d_48" />
        <g
           id="text_17">
          <!-- $\int_{t-0.5}^{t}x(p)dp$ -->
          <defs
             id="defs413">
            <path
               d=" M-2.48438 -19.3906 Q-3.42188 -19.3906 -3.42188 -18.1094 Q-3.07812 -15.9219 -2.09375 -15.9219 Q1.03125 -15.9219 2.26562 -15.3594 Q3.51562 -14.7969 4.20312 -12.5 L15.4844 32.5156 Q16.2188 34.375 16.2188 37.3125 Q16.2188 41.6094 13.2812 41.6094 Q10.1562 41.6094 8.64062 37.8594 Q7.125 34.125 5.71875 28.4219 Q5.71875 27.7812 4.89062 27.7812 L3.71875 27.7812 Q3.46875 27.7812 3.17188 28.1406 Q2.875 28.5156 2.875 28.8125 Q3.95312 33.1562 4.95312 36.1719 Q5.95312 39.2031 8.07812 41.6875 Q10.2031 44.1875 13.375 44.1875 Q16.7969 44.1875 19.375 42.25 Q21.9688 40.3281 22.7031 37.0156 Q25.4375 40.1875 28.75 42.1875 Q32.0781 44.1875 35.5938 44.1875 Q39.7969 44.1875 42.8906 41.9375 Q46 39.7031 47.5625 36.0625 Q49.125 32.4219 49.125 28.2188 Q49.125 21.7812 45.8281 14.8906 Q42.5312 8.01562 36.8906 3.4375 Q31.25 -1.125 24.8125 -1.125 Q21.875 -1.125 19.5 0.53125 Q17.1406 2.20312 15.8281 4.89062 L11.2812 -12.8906 Q11.0312 -14.3594 10.9844 -14.5938 Q10.9844 -15.9219 17.5781 -15.9219 Q18.6094 -15.9219 18.6094 -17.1875 Q18.2656 -18.5 18.0469 -18.9375 Q17.8281 -19.3906 16.8906 -19.3906 z  M24.9062 1.51562 Q28.375 1.51562 31.3438 4.375 Q34.3281 7.23438 36.1875 10.7969 Q37.5469 13.4844 38.7344 17.3594 Q39.9375 21.2344 40.8125 25.625 Q41.7031 30.0312 41.7031 32.625 Q41.7031 34.9062 41.0938 36.9062 Q40.4844 38.9219 39.0938 40.2656 Q37.7031 41.6094 35.4062 41.6094 Q31.7344 41.6094 28.4844 38.9844 Q25.25 36.375 22.6094 32.5156 L22.6094 32.1719 L17.0938 10.1094 Q17.7812 6.54688 19.7344 4.03125 Q21.6875 1.51562 24.9062 1.51562"
               id="Cmmi10-70" />
            <path
               d=" M10.2031 23 Q9.375 23 8.82812 23.625 Q8.29688 24.2656 8.29688 25 Q8.29688 25.7344 8.82812 26.3594 Q9.375 27 10.2031 27 L67.5781 27 Q68.3594 27 68.875 26.3594 Q69.3906 25.7344 69.3906 25 Q69.3906 24.2656 68.875 23.625 Q68.3594 23 67.5781 23 z "
               id="Cmsy10-a1" />
            <path
               d=" M17.3906 -1.125 Q11.0781 -1.125 7.4375 3.64062 Q3.8125 8.40625 3.8125 14.8906 Q3.8125 21.2969 7.125 28.1719 Q10.4531 35.0625 16.0938 39.625 Q21.7344 44.1875 28.2188 44.1875 Q31.1562 44.1875 33.5156 42.5469 Q35.8906 40.9219 37.2031 38.1875 L42.8281 60.5 Q43.2188 62.2031 43.3125 63.1875 Q43.3125 64.7969 36.8125 64.7969 Q35.7969 64.7969 35.7969 66.1094 Q35.8438 66.3594 36.0156 66.9844 Q36.1875 67.625 36.4531 67.9688 Q36.7188 68.3125 37.2031 68.3125 L50.6875 69.3906 Q51.9062 69.3906 51.9062 68.1094 L37.5 10.5938 Q36.8125 8.9375 36.8125 5.8125 Q36.8125 1.51562 39.7031 1.51562 Q42.8281 1.51562 44.4531 5.48438 Q46.0938 9.46875 47.2188 14.7031 Q47.4062 15.2812 48 15.2812 L49.2188 15.2812 Q49.6094 15.2812 49.8438 14.9375 Q50.0938 14.5938 50.0938 14.3125 Q48.3438 7.32812 46.2656 3.09375 Q44.1875 -1.125 39.5 -1.125 Q36.1406 -1.125 33.5469 0.84375 Q30.9531 2.82812 30.3281 6.10938 Q23.875 -1.125 17.3906 -1.125 M17.4844 1.51562 Q21.0938 1.51562 24.4844 4.21875 Q27.875 6.9375 30.3281 10.5938 Q30.4219 10.6875 30.4219 10.9844 L35.8906 33.0156 Q35.2969 36.5312 33.2969 39.0625 Q31.2969 41.6094 27.9844 41.6094 Q24.6094 41.6094 21.7031 38.8438 Q18.7969 36.0781 16.7969 32.3281 Q14.8438 28.3281 13.0625 21.3438 Q11.2812 14.3594 11.2812 10.5 Q11.2812 7.03125 12.7656 4.26562 Q14.2656 1.51562 17.4844 1.51562"
               id="Cmmi10-64" />
            <path
               d=" M10.5938 -217.094 Q13.0938 -219.578 16.7031 -219.578 Q20.3125 -219.578 23.2812 -214.625 Q26.2656 -209.672 28.5156 -202.25 Q30.7656 -194.828 31.8125 -189.812 Q32.8594 -184.812 34.4219 -176.906 Q35.8438 -169.531 37.1562 -162.109 Q38.4844 -154.688 39.875 -146.312 Q41.2656 -137.938 42.7969 -129.312 Q44.3438 -120.703 46.2969 -110.984 Q48.9219 -98.1875 50.0625 -92.6875 Q51.2188 -87.2031 53.5625 -76.8281 Q55.9062 -66.4531 56.6562 -63.1562 Q57.4219 -59.8594 60.9844 -45.125 L62.3125 -39.8906 Q64.5469 -31.1094 65.7656 -26.5938 Q67 -22.0781 69.5625 -15.5469 Q72.125 -9.03125 75.5781 -4.51562 Q79.0469 0 83.2031 0 Q86.1406 0 88.6406 -1.3125 Q91.1562 -2.64062 92.7188 -4.9375 Q94.2812 -7.23438 94.2812 -10.2031 Q94.2812 -12.3594 92.8594 -13.7656 Q91.4531 -15.1875 89.3125 -15.1875 Q87.1094 -15.1875 85.6406 -13.7656 Q84.1875 -12.3594 84.1875 -10.2031 Q84.1875 -8.01562 85.6406 -6.54688 Q87.1094 -5.07812 89.3125 -5.07812 Q86.7188 -2.59375 83.2969 -2.59375 Q81.4531 -2.59375 79.2188 -8 Q77 -13.4219 75.125 -20.7656 Q73.25 -28.125 72.2344 -33.0312 Q71.2344 -37.9375 69.8281 -45.3125 Q68.1719 -53.6562 67.0625 -59.8594 Q65.9688 -66.0625 64.4062 -75.1875 Q62.8438 -84.3281 61.3438 -92.5781 Q59.8594 -100.828 57.8125 -111.188 Q56.5 -117.719 54 -129.562 Q51.5156 -141.406 50.7031 -144.969 Q49.9062 -148.531 46.6094 -162.391 Q43.3125 -176.266 43.1094 -177.094 L41.8906 -181.688 Q39.3125 -192.281 36.6875 -200.312 Q34.0781 -208.344 29.0156 -215.281 Q23.9688 -222.219 16.7031 -222.219 Q12.3594 -222.219 8.98438 -219.281 Q5.60938 -216.359 5.60938 -212.109 Q5.60938 -209.906 7.07812 -208.438 Q8.54688 -206.984 10.6875 -206.984 Q12.1094 -206.984 13.25 -207.656 Q14.4062 -208.344 15.0625 -209.516 Q15.7188 -210.688 15.7188 -212.109 Q15.7188 -214.266 14.25 -215.672 Q12.7969 -217.094 10.5938 -217.094"
               id="Cmex10-5a" />
          </defs>
          <g
             style="fill:#262626;"
             transform="translate(950.85 167.05)scale(0.25 -0.25)"
             id="g419">
            <use
               transform="translate(0.0 144.69375)"
               xlink:href="#Cmex10-5a"
               id="use421" />
            <use
               transform="translate(95.516953125 119.184375)scale(0.7)"
               xlink:href="#Cmmi10-74"
               id="use423" />
            <use
               transform="translate(55.517578125 -103.034375)scale(0.7)"
               xlink:href="#Cmmi10-74"
               id="use425" />
            <use
               transform="translate(80.7763671875 -103.034375)scale(0.7)"
               xlink:href="#Cmsy10-a1"
               id="use427" />
            <use
               transform="translate(135.15625 -103.034375)scale(0.7)"
               xlink:href="#Cmr10-30"
               id="use429" />
            <use
               transform="translate(170.15625 -103.034375)scale(0.7)"
               xlink:href="#Cmmi10-3a"
               id="use431" />
            <use
               transform="translate(190.136328125 -103.034375)scale(0.7)"
               xlink:href="#Cmr10-35"
               id="use433" />
            <use
               transform="translate(225.136328125 0.251041666667)"
               xlink:href="#Cmmi10-78"
               id="use435" />
            <use
               transform="translate(282.21640625 0.251041666667)"
               xlink:href="#Cmr10-28"
               id="use437" />
            <use
               transform="translate(321.034765625 0.251041666667)"
               xlink:href="#Cmmi10-70"
               id="use439" />
            <use
               transform="translate(371.327734375 0.251041666667)"
               xlink:href="#Cmr10-29"
               id="use441" />
            <use
               transform="translate(410.14609375 0.251041666667)"
               xlink:href="#Cmmi10-64"
               id="use443" />
            <use
               transform="translate(462.148046875 0.251041666667)"
               xlink:href="#Cmmi10-70"
               id="use445" />
          </g>
        </g>
      </g>
    </g>
  </g>
  <defs
     id="defs447">
    <clipPath
       id="p45e3f7c9ba">
      <rect
         height="223.2"
         width="948.6"
         x="153.0"
         y="28.8"
         id="rect450" />
    </clipPath>
  </defs>
</svg>
