<?xml version="1.0" encoding="UTF-8" standalone="no"?>
<!-- Created with matplotlib (http://matplotlib.org/) -->

<svg
   xmlns:dc="http://purl.org/dc/elements/1.1/"
   xmlns:cc="http://creativecommons.org/ns#"
   xmlns:rdf="http://www.w3.org/1999/02/22-rdf-syntax-ns#"
   xmlns:svg="http://www.w3.org/2000/svg"
   xmlns="http://www.w3.org/2000/svg"
   xmlns:xlink="http://www.w3.org/1999/xlink"
   xmlns:sodipodi="http://sodipodi.sourceforge.net/DTD/sodipodi-0.dtd"
   xmlns:inkscape="http://www.inkscape.org/namespaces/inkscape"
   height="504pt"
   version="1.1"
   viewBox="0 0 504 504"
   width="504pt"
   id="svg2"
   inkscape:version="0.48.4 r9939"
   sodipodi:docname="2dvec.svg">
  <metadata
     id="metadata447">
    <rdf:RDF>
      <cc:Work
         rdf:about="">
        <dc:format>image/svg+xml</dc:format>
        <dc:type
           rdf:resource="http://purl.org/dc/dcmitype/StillImage" />
      </cc:Work>
    </rdf:RDF>
  </metadata>
  <sodipodi:namedview
     pagecolor="#ffffff"
     bordercolor="#666666"
     borderopacity="1"
     objecttolerance="10"
     gridtolerance="10"
     guidetolerance="10"
     inkscape:pageopacity="0"
     inkscape:pageshadow="2"
     inkscape:window-width="640"
     inkscape:window-height="480"
     id="namedview445"
     showgrid="false"
     inkscape:zoom="0.37460317"
     inkscape:cx="315"
     inkscape:cy="315"
     inkscape:window-x="31"
     inkscape:window-y="18"
     inkscape:window-maximized="0"
     inkscape:current-layer="figure_1" />
  <defs
     id="defs4">
    <style
       type="text/css"
       id="style6">
*{stroke-linecap:butt;stroke-linejoin:round;}
  </style>
  </defs>
  <g
     id="figure_1">
    <g
       id="axes_1">
      <g
         id="patch_2">
        <path
           d=" M63 441 L453.6 441 L453.6 50.4 L63 50.4 z "
           style="fill:#eaeaf2;"
           id="path14" />
      </g>
      <g
         id="matplotlib.axis_1">
        <g
           id="xtick_1">
          <g
             id="line2d_1">
            <path
               clip-path="url(#p41d7ee9abc)"
               d=" M63 441 L63 50.4"
               style="fill:none;stroke:#ffffff;stroke-linecap:round;"
               id="path19" />
          </g>
          <g
             id="line2d_2">
            <defs
               id="defs22">
              <path
                 d=" M0 0 L0 0"
                 id="m219da94a98"
                 style="stroke:#262626;" />
            </defs>
            <g
               id="g25">
              <use
                 style="fill:#262626;stroke:#262626;"
                 x="63.0"
                 xlink:href="#m219da94a98"
                 y="441.0"
                 id="use27" />
            </g>
          </g>
          <g
             id="line2d_3">
            <g
               id="g30">
              <use
                 style="fill:#262626;stroke:#262626;"
                 x="63.0"
                 xlink:href="#m219da94a98"
                 y="50.4"
                 id="use32" />
            </g>
          </g>
          <g
             id="text_1">
            <!-- −3 -->
            <defs
               id="defs35">
              <path
                 d=" M4.9375 29.6875 L4.9375 36.8125 L53.5156 36.8125 L53.5156 29.6875 z "
                 id="LiberationSans-2212" />
              <path
                 d=" M51.2188 19 Q51.2188 14.2656 49.6719 10.5469 Q48.1406 6.84375 45.1875 4.26562 Q42.2344 1.70312 37.8594 0.359375 Q33.5 -0.984375 27.875 -0.984375 Q21.4844 -0.984375 17.1094 0.609375 Q12.75 2.20312 9.90625 4.8125 Q7.07812 7.42188 5.65625 10.7656 Q4.25 14.1094 3.8125 17.6719 L12.8906 18.5 Q13.2812 15.7656 14.3281 13.5156 Q15.375 11.2812 17.1875 9.67188 Q19 8.0625 21.625 7.17188 Q24.2656 6.29688 27.875 6.29688 Q34.5156 6.29688 38.2969 9.5625 Q42.0938 12.8438 42.0938 19.2812 Q42.0938 23.0938 40.4062 25.4062 Q38.7188 27.7344 36.2031 29.0312 Q33.6875 30.3281 30.7344 30.7656 Q27.7812 31.2031 25.2969 31.2031 L20.3125 31.2031 L20.3125 38.8125 L25.0938 38.8125 Q27.5938 38.8125 30.2656 39.3281 Q32.9531 39.8438 35.1719 41.1875 Q37.4062 42.5312 38.8438 44.8281 Q40.2812 47.125 40.2812 50.6875 Q40.2812 56.2031 37.0312 59.3906 Q33.7969 62.5938 27.3906 62.5938 Q21.5781 62.5938 17.9844 59.6094 Q14.4062 56.6406 13.8125 51.2188 L4.98438 51.9062 Q5.51562 56.4531 7.46875 59.8125 Q9.42188 63.1875 12.4219 65.4062 Q15.4375 67.625 19.2812 68.7188 Q23.1406 69.8281 27.4844 69.8281 Q33.25 69.8281 37.3906 68.375 Q41.5469 66.9375 44.1875 64.4688 Q46.8281 62.0156 48.0625 58.6875 Q49.3125 55.375 49.3125 51.6094 Q49.3125 48.5781 48.4844 45.9375 Q47.6562 43.3125 45.8906 41.2031 Q44.1406 39.1094 41.4219 37.5938 Q38.7188 36.0781 34.9062 35.2969 L34.9062 35.1094 Q39.0625 34.6719 42.1406 33.2188 Q45.2188 31.7812 47.2188 29.625 Q49.2188 27.4844 50.2188 24.75 Q51.2188 22.0156 51.2188 19"
                 id="LiberationSans-33" />
            </defs>
            <g
               style="fill:#262626;"
               transform="translate(52.53125 462.49375)scale(0.2 -0.2)"
               id="g39">
              <use
                 xlink:href="#LiberationSans-2212"
                 id="use41" />
              <use
                 x="58.3984375"
                 xlink:href="#LiberationSans-33"
                 id="use43" />
            </g>
          </g>
        </g>
        <g
           id="xtick_2">
          <g
             id="line2d_4">
            <path
               clip-path="url(#p41d7ee9abc)"
               d=" M128.1 441 L128.1 50.4"
               style="fill:none;stroke:#ffffff;stroke-linecap:round;"
               id="path47" />
          </g>
          <g
             id="line2d_5">
            <g
               id="g50">
              <use
                 style="fill:#262626;stroke:#262626;"
                 x="128.1"
                 xlink:href="#m219da94a98"
                 y="441.0"
                 id="use52" />
            </g>
          </g>
          <g
             id="line2d_6">
            <g
               id="g55">
              <use
                 style="fill:#262626;stroke:#262626;"
                 x="128.1"
                 xlink:href="#m219da94a98"
                 y="50.4"
                 id="use57" />
            </g>
          </g>
          <g
             id="text_2">
            <!-- −2 -->
            <defs
               id="defs60">
              <path
                 d=" M5.03125 0 L5.03125 6.20312 Q7.51562 11.9219 11.1094 16.2812 Q14.7031 20.6562 18.6562 24.1875 Q22.6094 27.7344 26.4844 30.7656 Q30.375 33.7969 33.5 36.8125 Q36.625 39.8438 38.5469 43.1562 Q40.4844 46.4844 40.4844 50.6875 Q40.4844 53.6094 39.5938 55.8281 Q38.7188 58.0625 37.0625 59.5625 Q35.4062 61.0781 33.0781 61.8281 Q30.7656 62.5938 27.9375 62.5938 Q25.2969 62.5938 22.9688 61.8594 Q20.6562 61.1406 18.8438 59.6719 Q17.0469 58.2031 15.8906 56.0312 Q14.75 53.8594 14.4062 50.9844 L5.42188 51.8125 Q5.85938 55.5156 7.46875 58.7812 Q9.07812 62.0625 11.9062 64.5312 Q14.75 67 18.7188 68.4062 Q22.7031 69.8281 27.9375 69.8281 Q33.0625 69.8281 37.0625 68.6094 Q41.0625 67.3906 43.8125 64.9844 Q46.5781 62.5938 48.0469 59.0781 Q49.5156 55.5625 49.5156 50.9844 Q49.5156 47.5156 48.2656 44.3906 Q47.0156 41.2656 44.9375 38.4219 Q42.875 35.5938 40.1406 32.9531 Q37.4062 30.3281 34.4219 27.8125 Q31.4531 25.2969 28.4219 22.8281 Q25.3906 20.3594 22.7188 17.8594 Q20.0625 15.375 17.9688 12.8125 Q15.875 10.25 14.7031 7.46875 L50.5938 7.46875 L50.5938 0 z "
                 id="LiberationSans-32" />
            </defs>
            <g
               style="fill:#262626;"
               transform="translate(117.69375 462.49375)scale(0.2 -0.2)"
               id="g63">
              <use
                 xlink:href="#LiberationSans-2212"
                 id="use65" />
              <use
                 x="58.3984375"
                 xlink:href="#LiberationSans-32"
                 id="use67" />
            </g>
          </g>
        </g>
        <g
           id="xtick_3">
          <g
             id="line2d_7">
            <path
               clip-path="url(#p41d7ee9abc)"
               d=" M193.2 441 L193.2 50.4"
               style="fill:none;stroke:#ffffff;stroke-linecap:round;"
               id="path71" />
          </g>
          <g
             id="line2d_8">
            <g
               id="g74">
              <use
                 style="fill:#262626;stroke:#262626;"
                 x="193.2"
                 xlink:href="#m219da94a98"
                 y="441.0"
                 id="use76" />
            </g>
          </g>
          <g
             id="line2d_9">
            <g
               id="g79">
              <use
                 style="fill:#262626;stroke:#262626;"
                 x="193.2"
                 xlink:href="#m219da94a98"
                 y="50.4"
                 id="use81" />
            </g>
          </g>
          <g
             id="text_3">
            <!-- −1 -->
            <defs
               id="defs84">
              <path
                 d=" M7.625 0 L7.625 7.46875 L25.1406 7.46875 L25.1406 60.4062 L9.625 49.3125 L9.625 57.625 L25.875 68.7969 L33.9844 68.7969 L33.9844 7.46875 L50.7344 7.46875 L50.7344 0 z "
                 id="LiberationSans-31" />
            </defs>
            <g
               style="fill:#262626;"
               transform="translate(182.7796875 462.49375)scale(0.2 -0.2)"
               id="g87">
              <use
                 xlink:href="#LiberationSans-2212"
                 id="use89" />
              <use
                 x="58.3984375"
                 xlink:href="#LiberationSans-31"
                 id="use91" />
            </g>
          </g>
        </g>
        <g
           id="xtick_4">
          <g
             id="line2d_10">
            <path
               clip-path="url(#p41d7ee9abc)"
               d=" M258.3 441 L258.3 50.4"
               style="fill:none;stroke:#ffffff;stroke-linecap:round;"
               id="path95" />
          </g>
          <g
             id="line2d_11">
            <g
               id="g98">
              <use
                 style="fill:#262626;stroke:#262626;"
                 x="258.3"
                 xlink:href="#m219da94a98"
                 y="441.0"
                 id="use100" />
            </g>
          </g>
          <g
             id="line2d_12">
            <g
               id="g103">
              <use
                 style="fill:#262626;stroke:#262626;"
                 x="258.3"
                 xlink:href="#m219da94a98"
                 y="50.4"
                 id="use105" />
            </g>
          </g>
          <g
             id="text_4">
            <!-- 0 -->
            <defs
               id="defs108">
              <path
                 d=" M51.7031 34.4219 Q51.7031 24.5156 49.8281 17.75 Q47.9531 10.9844 44.7031 6.8125 Q41.4531 2.64062 37.0625 0.828125 Q32.6719 -0.984375 27.6875 -0.984375 Q22.6562 -0.984375 18.3125 0.828125 Q13.9688 2.64062 10.7656 6.78125 Q7.5625 10.9375 5.73438 17.7031 Q3.90625 24.4688 3.90625 34.4219 Q3.90625 44.8281 5.73438 51.6406 Q7.5625 58.4531 10.7812 62.5 Q14.0156 66.5469 18.4062 68.1875 Q22.7969 69.8281 27.9844 69.8281 Q32.9062 69.8281 37.2188 68.1875 Q41.5469 66.5469 44.7656 62.5 Q48 58.4531 49.8438 51.6406 Q51.7031 44.8281 51.7031 34.4219 M42.7812 34.4219 Q42.7812 42.625 41.7969 48.0625 Q40.8281 53.5156 38.9219 56.7656 Q37.0156 60.0156 34.25 61.3594 Q31.5 62.7031 27.9844 62.7031 Q24.2656 62.7031 21.4375 61.3281 Q18.6094 59.9688 16.6719 56.7188 Q14.75 53.4688 13.7656 48.0156 Q12.7969 42.5781 12.7969 34.4219 Q12.7969 26.5156 13.7969 21.0938 Q14.7969 15.6719 16.7188 12.375 Q18.6562 9.07812 21.4375 7.64062 Q24.2188 6.20312 27.7812 6.20312 Q31.25 6.20312 34.0312 7.64062 Q36.8125 9.07812 38.7344 12.375 Q40.6719 15.6719 41.7188 21.0938 Q42.7812 26.5156 42.7812 34.4219"
                 id="LiberationSans-30" />
            </defs>
            <g
               style="fill:#262626;"
               transform="translate(253.5203125 462.49375)scale(0.2 -0.2)"
               id="g111">
              <use
                 xlink:href="#LiberationSans-30"
                 id="use113" />
            </g>
          </g>
        </g>
        <g
           id="xtick_5">
          <g
             id="line2d_13">
            <path
               clip-path="url(#p41d7ee9abc)"
               d=" M323.4 441 L323.4 50.4"
               style="fill:none;stroke:#ffffff;stroke-linecap:round;"
               id="path117" />
          </g>
          <g
             id="line2d_14">
            <g
               id="g120">
              <use
                 style="fill:#262626;stroke:#262626;"
                 x="323.4"
                 xlink:href="#m219da94a98"
                 y="441.0"
                 id="use122" />
            </g>
          </g>
          <g
             id="line2d_15">
            <g
               id="g125">
              <use
                 style="fill:#262626;stroke:#262626;"
                 x="323.4"
                 xlink:href="#m219da94a98"
                 y="50.4"
                 id="use127" />
            </g>
          </g>
          <g
             id="text_5">
            <!-- 1 -->
            <g
               style="fill:#262626;"
               transform="translate(319.0890625 462.49375)scale(0.2 -0.2)"
               id="g130">
              <use
                 xlink:href="#LiberationSans-31"
                 id="use132" />
            </g>
          </g>
        </g>
        <g
           id="xtick_6">
          <g
             id="line2d_16">
            <path
               clip-path="url(#p41d7ee9abc)"
               d=" M388.5 441 L388.5 50.4"
               style="fill:none;stroke:#ffffff;stroke-linecap:round;"
               id="path136" />
          </g>
          <g
             id="line2d_17">
            <g
               id="g139">
              <use
                 style="fill:#262626;stroke:#262626;"
                 x="388.5"
                 xlink:href="#m219da94a98"
                 y="441.0"
                 id="use141" />
            </g>
          </g>
          <g
             id="line2d_18">
            <g
               id="g144">
              <use
                 style="fill:#262626;stroke:#262626;"
                 x="388.5"
                 xlink:href="#m219da94a98"
                 y="50.4"
                 id="use146" />
            </g>
          </g>
          <g
             id="text_6">
            <!-- 2 -->
            <g
               style="fill:#262626;"
               transform="translate(383.94375 462.49375)scale(0.2 -0.2)"
               id="g149">
              <use
                 xlink:href="#LiberationSans-32"
                 id="use151" />
            </g>
          </g>
        </g>
        <g
           id="xtick_7">
          <g
             id="line2d_19">
            <path
               clip-path="url(#p41d7ee9abc)"
               d=" M453.6 441 L453.6 50.4"
               style="fill:none;stroke:#ffffff;stroke-linecap:round;"
               id="path155" />
          </g>
          <g
             id="line2d_20">
            <g
               id="g158">
              <use
                 style="fill:#262626;stroke:#262626;"
                 x="453.6"
                 xlink:href="#m219da94a98"
                 y="441.0"
                 id="use160" />
            </g>
          </g>
          <g
             id="line2d_21">
            <g
               id="g163">
              <use
                 style="fill:#262626;stroke:#262626;"
                 x="453.6"
                 xlink:href="#m219da94a98"
                 y="50.4"
                 id="use165" />
            </g>
          </g>
          <g
             id="text_7">
            <!-- 3 -->
            <g
               style="fill:#262626;"
               transform="translate(448.859375 462.49375)scale(0.2 -0.2)"
               id="g168">
              <use
                 xlink:href="#LiberationSans-33"
                 id="use170" />
            </g>
          </g>
        </g>
        <g
           id="text_8">
          <!-- $x[0]$ -->
          <defs
             id="defs173">
            <path
               d=" M2.20312 -25 L2.20312 -21 L11.9219 -21 L11.9219 71 L2.20312 71 L2.20312 75 L15.9219 75 L15.9219 -25 z "
               id="Cmr10-5d" />
            <path
               d=" M7.8125 2.875 Q9.57812 1.51562 12.7969 1.51562 Q15.9219 1.51562 18.3125 4.51562 Q20.7031 7.51562 21.5781 11.0781 L26.125 28.8125 Q27.2031 33.6406 27.2031 35.4062 Q27.2031 37.8906 25.8125 39.75 Q24.4219 41.6094 21.9219 41.6094 Q18.75 41.6094 15.9688 39.625 Q13.1875 37.6406 11.2812 34.5938 Q9.375 31.5469 8.59375 28.4219 Q8.40625 27.7812 7.8125 27.7812 L6.59375 27.7812 Q5.8125 27.7812 5.8125 28.7188 L5.8125 29 Q6.78125 32.7188 9.125 36.25 Q11.4688 39.7969 14.8594 41.9844 Q18.2656 44.1875 22.125 44.1875 Q25.7812 44.1875 28.7344 42.2344 Q31.6875 40.2812 32.9062 36.9219 Q34.625 39.9844 37.2812 42.0781 Q39.9375 44.1875 43.1094 44.1875 Q45.2656 44.1875 47.5 43.4219 Q49.75 42.6719 51.1719 41.1094 Q52.5938 39.5469 52.5938 37.2031 Q52.5938 34.6719 50.9531 32.8281 Q49.3125 31 46.7812 31 Q45.1719 31 44.0938 32.0312 Q43.0156 33.0625 43.0156 34.625 Q43.0156 36.7188 44.4531 38.2969 Q45.9062 39.8906 47.9062 40.1875 Q46.0938 41.6094 42.9219 41.6094 Q39.7031 41.6094 37.3281 38.625 Q34.9688 35.6406 33.9844 31.9844 L29.5938 14.3125 Q28.5156 10.2969 28.5156 7.71875 Q28.5156 5.17188 29.9531 3.34375 Q31.3906 1.51562 33.7969 1.51562 Q38.4844 1.51562 42.1562 5.64062 Q45.8438 9.76562 47.0156 14.7031 Q47.2188 15.2812 47.7969 15.2812 L49.0312 15.2812 Q49.4219 15.2812 49.6562 15.0156 Q49.9062 14.75 49.9062 14.4062 Q49.9062 14.3125 49.8125 14.1094 Q48.3906 8.15625 43.8438 3.51562 Q39.3125 -1.125 33.5938 -1.125 Q29.9375 -1.125 26.9844 0.84375 Q24.0312 2.82812 22.7969 6.20312 Q21.2344 3.26562 18.4688 1.0625 Q15.7188 -1.125 12.5938 -1.125 Q10.4531 -1.125 8.17188 -0.359375 Q5.90625 0.390625 4.48438 1.95312 Q3.07812 3.51562 3.07812 5.90625 Q3.07812 8.25 4.70312 10.1719 Q6.34375 12.1094 8.79688 12.1094 Q10.4531 12.1094 11.5781 11.1094 Q12.7031 10.1094 12.7031 8.5 Q12.7031 6.39062 11.2969 4.82812 Q9.90625 3.26562 7.8125 2.875"
               id="Cmmi10-78" />
            <path
               d=" M25 -2.20312 Q12.75 -2.20312 8.32812 7.875 Q3.90625 17.9688 3.90625 31.8906 Q3.90625 40.5781 5.48438 48.2344 Q7.07812 55.9062 11.7812 61.25 Q16.5 66.6094 25 66.6094 Q31.5938 66.6094 35.7812 63.375 Q39.9844 60.1562 42.1875 55.0469 Q44.3906 49.9531 45.1875 44.1094 Q46 38.2812 46 31.8906 Q46 23.2969 44.4062 15.7969 Q42.8281 8.29688 38.1875 3.04688 Q33.5469 -2.20312 25 -2.20312 M25 0.390625 Q30.5625 0.390625 33.2969 6.09375 Q36.0312 11.8125 36.6719 18.75 Q37.3125 25.6875 37.3125 33.5 Q37.3125 41.0156 36.6719 47.3594 Q36.0312 53.7188 33.3125 58.8594 Q30.6094 64.0156 25 64.0156 Q19.3438 64.0156 16.6094 58.8281 Q13.875 53.6562 13.2344 47.3281 Q12.5938 41.0156 12.5938 33.5 Q12.5938 27.9375 12.8594 23 Q13.1406 18.0625 14.3125 12.8125 Q15.4844 7.5625 18.0938 3.96875 Q20.7031 0.390625 25 0.390625"
               id="Cmr10-30" />
            <path
               d=" M11.8125 -25 L11.8125 75 L25.4844 75 L25.4844 71 L15.8281 71 L15.8281 -21 L25.4844 -21 L25.4844 -25 z "
               id="Cmr10-5b" />
          </defs>
          <g
             style="fill:#262626;"
             transform="translate(237.925 490.39375)scale(0.25 -0.25)"
             id="g179">
            <use
               xlink:href="#Cmmi10-78"
               id="use181" />
            <use
               transform="translate(57.080078125 0.0)"
               xlink:href="#Cmr10-5b"
               id="use183" />
            <use
               transform="translate(84.765625 0.0)"
               xlink:href="#Cmr10-30"
               id="use185" />
            <use
               transform="translate(134.765625 0.0)"
               xlink:href="#Cmr10-5d"
               id="use187" />
          </g>
        </g>
      </g>
      <g
         id="matplotlib.axis_2">
        <g
           id="ytick_1">
          <g
             id="line2d_22">
            <path
               clip-path="url(#p41d7ee9abc)"
               d=" M63 441 L453.6 441"
               style="fill:none;stroke:#ffffff;stroke-linecap:round;"
               id="path192" />
          </g>
          <g
             id="line2d_23">
            <g
               id="g195">
              <use
                 style="fill:#262626;stroke:#262626;"
                 x="63.0"
                 xlink:href="#m219da94a98"
                 y="441.0"
                 id="use197" />
            </g>
          </g>
          <g
             id="line2d_24">
            <g
               id="g200">
              <use
                 style="fill:#262626;stroke:#262626;"
                 x="453.6"
                 xlink:href="#m219da94a98"
                 y="441.0"
                 id="use202" />
            </g>
          </g>
          <g
             id="text_9">
            <!-- −3 -->
            <g
               style="fill:#262626;"
               transform="translate(35.0625 446.171875)scale(0.2 -0.2)"
               id="g205">
              <use
                 xlink:href="#LiberationSans-2212"
                 id="use207" />
              <use
                 x="58.3984375"
                 xlink:href="#LiberationSans-33"
                 id="use209" />
            </g>
          </g>
        </g>
        <g
           id="ytick_2">
          <g
             id="line2d_25">
            <path
               clip-path="url(#p41d7ee9abc)"
               d=" M63 375.9 L453.6 375.9"
               style="fill:none;stroke:#ffffff;stroke-linecap:round;"
               id="path213" />
          </g>
          <g
             id="line2d_26">
            <g
               id="g216">
              <use
                 style="fill:#262626;stroke:#262626;"
                 x="63.0"
                 xlink:href="#m219da94a98"
                 y="375.9"
                 id="use218" />
            </g>
          </g>
          <g
             id="line2d_27">
            <g
               id="g221">
              <use
                 style="fill:#262626;stroke:#262626;"
                 x="453.6"
                 xlink:href="#m219da94a98"
                 y="375.9"
                 id="use223" />
            </g>
          </g>
          <g
             id="text_10">
            <!-- −2 -->
            <g
               style="fill:#262626;"
               transform="translate(35.1875 381.071875)scale(0.2 -0.2)"
               id="g226">
              <use
                 xlink:href="#LiberationSans-2212"
                 id="use228" />
              <use
                 x="58.3984375"
                 xlink:href="#LiberationSans-32"
                 id="use230" />
            </g>
          </g>
        </g>
        <g
           id="ytick_3">
          <g
             id="line2d_28">
            <path
               clip-path="url(#p41d7ee9abc)"
               d=" M63 310.8 L453.6 310.8"
               style="fill:none;stroke:#ffffff;stroke-linecap:round;"
               id="path234" />
          </g>
          <g
             id="line2d_29">
            <g
               id="g237">
              <use
                 style="fill:#262626;stroke:#262626;"
                 x="63.0"
                 xlink:href="#m219da94a98"
                 y="310.8"
                 id="use239" />
            </g>
          </g>
          <g
             id="line2d_30">
            <g
               id="g242">
              <use
                 style="fill:#262626;stroke:#262626;"
                 x="453.6"
                 xlink:href="#m219da94a98"
                 y="310.8"
                 id="use244" />
            </g>
          </g>
          <g
             id="text_11">
            <!-- −1 -->
            <g
               style="fill:#262626;"
               transform="translate(35.159375 315.971875)scale(0.2 -0.2)"
               id="g247">
              <use
                 xlink:href="#LiberationSans-2212"
                 id="use249" />
              <use
                 x="58.3984375"
                 xlink:href="#LiberationSans-31"
                 id="use251" />
            </g>
          </g>
        </g>
        <g
           id="ytick_4">
          <g
             id="line2d_31">
            <path
               clip-path="url(#p41d7ee9abc)"
               d=" M63 245.7 L453.6 245.7"
               style="fill:none;stroke:#ffffff;stroke-linecap:round;"
               id="path255" />
          </g>
          <g
             id="line2d_32">
            <g
               id="g258">
              <use
                 style="fill:#262626;stroke:#262626;"
                 x="63.0"
                 xlink:href="#m219da94a98"
                 y="245.7"
                 id="use260" />
            </g>
          </g>
          <g
             id="line2d_33">
            <g
               id="g263">
              <use
                 style="fill:#262626;stroke:#262626;"
                 x="453.6"
                 xlink:href="#m219da94a98"
                 y="245.7"
                 id="use265" />
            </g>
          </g>
          <g
             id="text_12">
            <!-- 0 -->
            <g
               style="fill:#262626;"
               transform="translate(46.440625 250.871875)scale(0.2 -0.2)"
               id="g268">
              <use
                 xlink:href="#LiberationSans-30"
                 id="use270" />
            </g>
          </g>
        </g>
        <g
           id="ytick_5">
          <g
             id="line2d_34">
            <path
               clip-path="url(#p41d7ee9abc)"
               d=" M63 180.6 L453.6 180.6"
               style="fill:none;stroke:#ffffff;stroke-linecap:round;"
               id="path274" />
          </g>
          <g
             id="line2d_35">
            <g
               id="g277">
              <use
                 style="fill:#262626;stroke:#262626;"
                 x="63.0"
                 xlink:href="#m219da94a98"
                 y="180.6"
                 id="use279" />
            </g>
          </g>
          <g
             id="line2d_36">
            <g
               id="g282">
              <use
                 style="fill:#262626;stroke:#262626;"
                 x="453.6"
                 xlink:href="#m219da94a98"
                 y="180.6"
                 id="use284" />
            </g>
          </g>
          <g
             id="text_13">
            <!-- 1 -->
            <g
               style="fill:#262626;"
               transform="translate(47.378125 185.771875)scale(0.2 -0.2)"
               id="g287">
              <use
                 xlink:href="#LiberationSans-31"
                 id="use289" />
            </g>
          </g>
        </g>
        <g
           id="ytick_6">
          <g
             id="line2d_37">
            <path
               clip-path="url(#p41d7ee9abc)"
               d=" M63 115.5 L453.6 115.5"
               style="fill:none;stroke:#ffffff;stroke-linecap:round;"
               id="path293" />
          </g>
          <g
             id="line2d_38">
            <g
               id="g296">
              <use
                 style="fill:#262626;stroke:#262626;"
                 x="63.0"
                 xlink:href="#m219da94a98"
                 y="115.5"
                 id="use298" />
            </g>
          </g>
          <g
             id="line2d_39">
            <g
               id="g301">
              <use
                 style="fill:#262626;stroke:#262626;"
                 x="453.6"
                 xlink:href="#m219da94a98"
                 y="115.5"
                 id="use303" />
            </g>
          </g>
          <g
             id="text_14">
            <!-- 2 -->
            <g
               style="fill:#262626;"
               transform="translate(46.8875 120.671875)scale(0.2 -0.2)"
               id="g306">
              <use
                 xlink:href="#LiberationSans-32"
                 id="use308" />
            </g>
          </g>
        </g>
        <g
           id="ytick_7">
          <g
             id="line2d_40">
            <path
               clip-path="url(#p41d7ee9abc)"
               d=" M63 50.4 L453.6 50.4"
               style="fill:none;stroke:#ffffff;stroke-linecap:round;"
               id="path312" />
          </g>
          <g
             id="line2d_41">
            <g
               id="g315">
              <use
                 style="fill:#262626;stroke:#262626;"
                 x="63.0"
                 xlink:href="#m219da94a98"
                 y="50.4"
                 id="use317" />
            </g>
          </g>
          <g
             id="line2d_42">
            <g
               id="g320">
              <use
                 style="fill:#262626;stroke:#262626;"
                 x="453.6"
                 xlink:href="#m219da94a98"
                 y="50.4"
                 id="use322" />
            </g>
          </g>
          <g
             id="text_15">
            <!-- 3 -->
            <g
               style="fill:#262626;"
               transform="translate(46.51875 55.571875)scale(0.2 -0.2)"
               id="g325">
              <use
                 xlink:href="#LiberationSans-33"
                 id="use327" />
            </g>
          </g>
        </g>
        <g
           id="text_16">
          <!-- $x[1]$ -->
          <defs
             id="defs330">
            <path
               d=" M9.28125 0 L9.28125 3.51562 Q21.7812 3.51562 21.7812 6.6875 L21.7812 59.1875 Q16.6094 56.6875 8.6875 56.6875 L8.6875 60.2031 Q20.9531 60.2031 27.2031 66.6094 L28.6094 66.6094 Q28.9531 66.6094 29.2656 66.3281 Q29.5938 66.0625 29.5938 65.7188 L29.5938 6.6875 Q29.5938 3.51562 42.0938 3.51562 L42.0938 0 z "
               id="Cmr10-31" />
          </defs>
          <g
             style="fill:#262626;"
             transform="translate(23.8125 266.075)rotate(-90.0)scale(0.25 -0.25)"
             id="g333">
            <use
               xlink:href="#Cmmi10-78"
               id="use335" />
            <use
               transform="translate(57.080078125 0.0)"
               xlink:href="#Cmr10-5b"
               id="use337" />
            <use
               transform="translate(84.765625 0.0)"
               xlink:href="#Cmr10-31"
               id="use339" />
            <use
               transform="translate(134.765625 0.0)"
               xlink:href="#Cmr10-5d"
               id="use341" />
          </g>
        </g>
      </g>
      <g
         id="patch_3">
        <path
           clip-path="url(#p41d7ee9abc)"
           d=" M322.369 117.562 L316.546 136.486 L313.664 135.045 L258.329 245.715 L258.271 245.685 L313.606 135.015 L310.724 133.574 z "
           style="stroke:#000000;stroke-linejoin:miter;stroke-width:0.3;"
           id="path344" />
      </g>
      <g
         id="patch_4">
        <path
           clip-path="url(#p41d7ee9abc)"
           d=" M190.29 179.329 L206.54 190.639 L204.29 192.946 L258.323 245.677 L258.277 245.723 L204.244 192.992 L201.994 195.299 z "
           style="stroke:#000000;stroke-linejoin:miter;stroke-width:0.3;"
           id="path347" />
      </g>
      <g
         id="line2d_43">
        <defs
           id="defs350">
          <path
             d=" M0 3.5 C0.928211 3.5 1.81853 3.13122 2.47487 2.47487 C3.13122 1.81853 3.5 0.928211 3.5 0 C3.5 -0.928211 3.13122 -1.81853 2.47487 -2.47487 C1.81853 -3.13122 0.928211 -3.5 0 -3.5 C-0.928211 -3.5 -1.81853 -3.13122 -2.47487 -2.47487 C-3.13122 -1.81853 -3.5 -0.928211 -3.5 0 C-3.5 0.928211 -3.13122 1.81853 -2.47487 2.47487 C-1.81853 3.13122 -0.928211 3.5 0 3.5 z "
             id="m1709273626" />
        </defs>
        <g
           clip-path="url(#p41d7ee9abc)"
           id="g353">
          <use
             style="fill:#0000ff;"
             x="323.4"
             xlink:href="#m1709273626"
             y="115.5"
             id="use355" />
        </g>
      </g>
      <g
         id="line2d_44">
        <g
           clip-path="url(#p41d7ee9abc)"
           id="g358">
          <use
             style="fill:#0000ff;"
             x="193.2"
             xlink:href="#m1709273626"
             y="180.6"
             id="use360" />
        </g>
      </g>
      <g
         id="line2d_45">
        <path
           clip-path="url(#p41d7ee9abc)"
           d=" M258.3 441 L258.3 50.4"
           style="fill:none;stroke:#808080;stroke-linecap:round;stroke-width:1.75;"
           id="path363" />
      </g>
      <g
         id="line2d_46">
        <path
           clip-path="url(#p41d7ee9abc)"
           d=" M63 245.7 L453.6 245.7"
           style="fill:none;stroke:#808080;stroke-linecap:round;stroke-width:1.75;"
           id="path366" />
      </g>
      <g
         id="patch_5">
        <path
           d=" M63 50.4 L453.6 50.4"
           style="fill:none;"
           id="path369" />
      </g>
      <g
         id="patch_6">
        <path
           d=" M453.6 441 L453.6 50.4"
           style="fill:none;"
           id="path372" />
      </g>
      <g
         id="patch_7">
        <path
           d=" M63 441 L453.6 441"
           style="fill:none;"
           id="path375" />
      </g>
      <g
         id="patch_8">
        <path
           d=" M63 441 L63 50.4"
           style="fill:none;"
           id="path378" />
      </g>
      <g
         id="text_17">
        <!-- $x[n] = \{1, 2\}$ -->
        <defs
           id="defs381">
          <path
             d=" M4.98438 0 L4.98438 2.6875 Q4.98438 2.9375 5.17188 3.21875 L20.7031 20.4062 Q24.2188 24.2188 26.4062 26.7969 Q28.6094 29.3906 30.75 32.7656 Q32.9062 36.1406 34.1562 39.625 Q35.4062 43.1094 35.4062 47.0156 Q35.4062 51.125 33.8906 54.8594 Q32.375 58.5938 29.375 60.8438 Q26.375 63.0938 22.125 63.0938 Q17.7812 63.0938 14.3125 60.4688 Q10.8438 57.8594 9.42188 53.7188 Q9.8125 53.8125 10.5 53.8125 Q12.75 53.8125 14.3281 52.2969 Q15.9219 50.7812 15.9219 48.3906 Q15.9219 46.0938 14.3281 44.5 Q12.75 42.9219 10.5 42.9219 Q8.15625 42.9219 6.5625 44.5469 Q4.98438 46.1875 4.98438 48.3906 Q4.98438 52.1562 6.39062 55.4375 Q7.8125 58.7344 10.4688 61.2969 Q13.1406 63.875 16.4844 65.2344 Q19.8281 66.6094 23.5781 66.6094 Q29.2969 66.6094 34.2188 64.1875 Q39.1562 61.7656 42.0312 57.3438 Q44.9219 52.9375 44.9219 47.0156 Q44.9219 42.6719 43.0156 38.7656 Q41.1094 34.8594 38.125 31.6562 Q35.1562 28.4688 30.5156 24.4062 Q25.875 20.3594 24.4219 19 L13.0938 8.10938 L22.7031 8.10938 Q29.7812 8.10938 34.5469 8.21875 Q39.3125 8.34375 39.5938 8.59375 Q40.7656 9.85938 42 17.8281 L44.9219 17.8281 L42.0938 0 z "
             id="Cmr10-32" />
          <path
             d=" M11.0781 -115.094 L11.0781 -113.922 Q11.0781 -113.234 11.8125 -113.094 Q25.4844 -108.641 25.4844 -100.203 L25.4844 -71 Q25.4844 -61.0781 41.7031 -56 Q34.6719 -53.6094 30.0781 -50.1406 Q25.4844 -46.6875 25.4844 -40.9219 L25.4844 -11.7188 Q25.4844 -3.21875 11.8125 1.21875 Q11.0781 1.375 11.0781 2 L11.0781 3.21875 Q11.0781 4 12.0156 4 L13.1875 4 Q21.2344 2.04688 27.0156 -1.51562 Q32.8125 -5.07812 32.8125 -11.5312 L32.8125 -40.7188 Q32.8125 -45.7031 36.7812 -49.0938 Q40.7656 -52.4844 46.4844 -54.5938 Q47.125 -54.7812 47.125 -55.4219 L47.125 -56.5938 Q47.125 -56.8906 46.4844 -57.4219 Q43.2656 -58.5 40.0938 -60.375 Q36.9219 -62.25 34.8594 -65.0156 Q32.8125 -67.7812 32.8125 -71.1875 L32.8125 -100.391 Q32.8125 -104.891 29.7031 -108.031 Q26.6094 -111.188 22.4531 -112.922 Q18.3125 -114.656 13.1875 -115.922 L12.0156 -115.922 Q11.625 -115.922 11.3438 -115.641 Q11.0781 -115.375 11.0781 -115.094"
             id="Cmex10-aa" />
          <path
             d=" M7.71875 1.70312 Q7.71875 2.29688 7.8125 2.59375 L15.2812 32.4219 Q16.0156 35.2031 16.0156 37.3125 Q16.0156 41.6094 13.0938 41.6094 Q9.96875 41.6094 8.45312 37.8594 Q6.9375 34.125 5.51562 28.4219 Q5.51562 28.125 5.21875 27.9531 Q4.9375 27.7812 4.6875 27.7812 L3.51562 27.7812 Q3.17188 27.7812 2.92188 28.1406 Q2.6875 28.5156 2.6875 28.8125 Q3.76562 33.1562 4.76562 36.1719 Q5.76562 39.2031 7.89062 41.6875 Q10.0156 44.1875 13.1875 44.1875 Q16.9375 44.1875 19.8125 41.8125 Q22.7031 39.4531 22.7031 35.7969 Q25.6875 39.7031 29.6875 41.9375 Q33.6875 44.1875 38.1875 44.1875 Q41.75 44.1875 44.3281 42.9688 Q46.9219 41.75 48.3594 39.2812 Q49.8125 36.8125 49.8125 33.4062 Q49.8125 29.2969 47.9688 23.4844 Q46.1406 17.6719 43.4062 10.5 Q42 7.23438 42 4.5 Q42 1.51562 44.2812 1.51562 Q48.1875 1.51562 50.7969 5.70312 Q53.4219 9.90625 54.5 14.7031 Q54.6875 15.2812 55.3281 15.2812 L56.5 15.2812 Q56.8906 15.2812 57.1562 15.0312 Q57.4219 14.7969 57.4219 14.4062 Q57.4219 14.3125 57.3281 14.1094 Q55.9531 8.45312 52.5625 3.65625 Q49.1719 -1.125 44.0938 -1.125 Q40.5781 -1.125 38.0781 1.29688 Q35.5938 3.71875 35.5938 7.17188 Q35.5938 9.03125 36.375 11.0781 Q37.6406 14.3594 39.2812 18.8906 Q40.9219 23.4375 41.9688 27.5781 Q43.0156 31.7344 43.0156 34.9062 Q43.0156 37.7031 41.8594 39.6562 Q40.7188 41.6094 37.9844 41.6094 Q34.3281 41.6094 31.25 39.9844 Q28.1719 38.375 25.875 35.7188 Q23.5781 33.0625 21.6875 29.3906 L14.8906 2.20312 Q14.5469 0.828125 13.3438 -0.140625 Q12.1562 -1.125 10.6875 -1.125 Q9.46875 -1.125 8.59375 -0.34375 Q7.71875 0.4375 7.71875 1.70312"
             id="Cmmi10-6e" />
          <path
             d=" M7.51562 13.2812 Q6.6875 13.2812 6.14062 13.9062 Q5.60938 14.5469 5.60938 15.2812 Q5.60938 16.1094 6.14062 16.6875 Q6.6875 17.2812 7.51562 17.2812 L70.3125 17.2812 Q71.0469 17.2812 71.5781 16.6875 Q72.125 16.1094 72.125 15.2812 Q72.125 14.5469 71.5781 13.9062 Q71.0469 13.2812 70.3125 13.2812 z  M7.51562 32.7188 Q6.6875 32.7188 6.14062 33.2969 Q5.60938 33.8906 5.60938 34.7188 Q5.60938 35.4531 6.14062 36.0781 Q6.6875 36.7188 7.51562 36.7188 L70.3125 36.7188 Q71.0469 36.7188 71.5781 36.0781 Q72.125 35.4531 72.125 34.7188 Q72.125 33.8906 71.5781 33.2969 Q71.0469 32.7188 70.3125 32.7188 z "
             id="Cmr10-3d" />
          <path
             d=" M25.4844 -100.391 L25.4844 -71.1875 Q25.4844 -67.7812 23.4844 -64.9844 Q21.4844 -62.2031 18.5 -60.4219 Q15.5312 -58.6406 11.8125 -57.4219 Q11.0781 -57.0312 11.0781 -56.5938 L11.0781 -55.4219 Q11.0781 -54.7344 11.8125 -54.5938 Q17.625 -52.5938 21.5469 -49.2188 Q25.4844 -45.8438 25.4844 -40.7188 L25.4844 -11.5312 Q25.4844 -5.07812 31.3125 -1.48438 Q37.1562 2.09375 45.125 4 L46.2969 4 Q46.5781 4 46.8438 3.78125 Q47.125 3.5625 47.125 3.21875 L47.125 2 Q47.125 1.42188 46.4844 1.21875 Q40.9219 -0.484375 36.8594 -3.625 Q32.8125 -6.78125 32.8125 -11.7188 L32.8125 -40.9219 Q32.8125 -46.7812 28.1875 -50.2188 Q23.5781 -53.6562 16.5 -56 Q23.3906 -58.0625 28.0938 -61.5469 Q32.8125 -65.0469 32.8125 -71 L32.8125 -100.203 Q32.8125 -103.562 34.8594 -106.094 Q36.9219 -108.641 39.9375 -110.297 Q42.9688 -111.969 46.4844 -113.094 Q47.125 -113.281 47.125 -113.922 L47.125 -115.094 Q47.125 -115.375 46.8438 -115.641 Q46.5781 -115.922 46.2969 -115.922 L45.125 -115.922 Q39.9844 -114.656 35.8125 -112.922 Q31.6406 -111.188 28.5625 -108.031 Q25.4844 -104.891 25.4844 -100.391"
             id="Cmex10-a9" />
          <path
             d=" M9.90625 -18.0156 Q9.90625 -17.5781 10.2969 -17.1875 Q13.9219 -13.7188 15.9219 -9.17188 Q17.9219 -4.64062 17.9219 0.390625 L17.9219 1.60938 Q16.3125 0 13.9219 0 Q11.625 0 10.0156 1.60938 Q8.40625 3.21875 8.40625 5.51562 Q8.40625 7.85938 10.0156 9.42188 Q11.625 10.9844 13.9219 10.9844 Q17.4844 10.9844 19 7.6875 Q20.5156 4.39062 20.5156 0.390625 Q20.5156 -5.17188 18.2812 -10.1719 Q16.0625 -15.1875 12.0156 -19.1875 Q11.625 -19.3906 11.375 -19.3906 Q10.8906 -19.3906 10.3906 -18.9375 Q9.90625 -18.5 9.90625 -18.0156"
             id="Cmmi10-3b" />
        </defs>
        <g
           style="fill:#262626;"
           transform="translate(316.89 102.48)scale(0.25 -0.25)"
           id="g389">
          <use
             transform="translate(0.0 0.705729166667)"
             xlink:href="#Cmmi10-78"
             id="use391" />
          <use
             transform="translate(57.080078125 0.705729166667)"
             xlink:href="#Cmr10-5b"
             id="use393" />
          <use
             transform="translate(84.765625 0.705729166667)"
             xlink:href="#Cmmi10-6e"
             id="use395" />
          <use
             transform="translate(144.775390625 0.705729166667)"
             xlink:href="#Cmr10-5d"
             id="use397" />
          <use
             transform="translate(190.01953125 0.705729166667)"
             xlink:href="#Cmr10-3d"
             id="use399" />
          <use
             transform="translate(274.078125 94.0)"
             xlink:href="#Cmex10-a9"
             id="use401" />
          <use
             transform="translate(332.37890625 0.705729166667)"
             xlink:href="#Cmr10-31"
             id="use403" />
          <use
             transform="translate(382.37890625 0.705729166667)"
             xlink:href="#Cmmi10-3b"
             id="use405" />
          <use
             transform="translate(412.046875 0.705729166667)"
             xlink:href="#Cmr10-32"
             id="use407" />
          <use
             transform="translate(462.046875 94.0)"
             xlink:href="#Cmex10-aa"
             id="use409" />
        </g>
      </g>
      <g
         id="text_18">
        <!-- $y[n] = \{-1, 1\}$ -->
        <defs
           id="defs412">
          <path
             d=" M10.2031 23 Q9.375 23 8.82812 23.625 Q8.29688 24.2656 8.29688 25 Q8.29688 25.7344 8.82812 26.3594 Q9.375 27 10.2031 27 L67.5781 27 Q68.3594 27 68.875 26.3594 Q69.3906 25.7344 69.3906 25 Q69.3906 24.2656 68.875 23.625 Q68.3594 23 67.5781 23 z "
             id="Cmsy10-a1" />
          <path
             d=" M8.40625 -14.3125 Q10.5 -17.9219 15.7188 -17.9219 Q20.4531 -17.9219 23.9219 -14.5938 Q27.3906 -11.2812 29.5156 -6.5625 Q31.6406 -1.85938 32.8125 3.07812 Q28.375 -1.125 23.1875 -1.125 Q19.2344 -1.125 16.4531 0.234375 Q13.6719 1.60938 12.125 4.3125 Q10.5938 7.03125 10.5938 10.8906 Q10.5938 14.1562 11.4688 17.5938 Q12.3594 21.0469 13.9375 25.2656 Q15.5312 29.5 16.7031 32.625 Q18.0156 36.2812 18.0156 38.625 Q18.0156 41.6094 15.8281 41.6094 Q11.8594 41.6094 9.29688 37.5312 Q6.73438 33.4531 5.51562 28.4219 Q5.32812 27.7812 4.6875 27.7812 L3.51562 27.7812 Q2.6875 27.7812 2.6875 28.7188 L2.6875 29 Q4.29688 34.9688 7.60938 39.5781 Q10.9375 44.1875 16.0156 44.1875 Q19.5781 44.1875 22.0469 41.8438 Q24.5156 39.5 24.5156 35.8906 Q24.5156 34.0312 23.6875 31.9844 Q23.25 30.7656 21.6875 26.6562 Q20.125 22.5625 19.2812 19.875 Q18.4531 17.1875 17.9219 14.5938 Q17.3906 12.0156 17.3906 9.42188 Q17.3906 6.10938 18.7969 3.8125 Q20.2188 1.51562 23.2969 1.51562 Q29.5 1.51562 34.4219 9.07812 L42 39.8906 Q42.3281 41.2188 43.5469 42.1562 Q44.7812 43.1094 46.1875 43.1094 Q47.4062 43.1094 48.3125 42.3281 Q49.2188 41.5469 49.2188 40.2812 Q49.2188 39.7031 49.125 39.5 L39.2031 -0.296875 Q37.8906 -5.42188 34.375 -10.1094 Q30.8594 -14.7969 25.9062 -17.6562 Q20.9531 -20.5156 15.5781 -20.5156 Q12.9844 -20.5156 10.4375 -19.5 Q7.90625 -18.5 6.34375 -16.5 Q4.78125 -14.5 4.78125 -11.8125 Q4.78125 -9.07812 6.39062 -7.07812 Q8.01562 -5.07812 10.6875 -5.07812 Q12.3125 -5.07812 13.4062 -6.07812 Q14.5 -7.07812 14.5 -8.6875 Q14.5 -10.9844 12.7812 -12.6875 Q11.0781 -14.4062 8.79688 -14.4062 Q8.6875 -14.3594 8.59375 -14.3281 Q8.5 -14.3125 8.40625 -14.3125"
             id="Cmmi10-79" />
        </defs>
        <g
           style="fill:#262626;"
           transform="translate(95.55 164.325)scale(0.25 -0.25)"
           id="g416">
          <use
             transform="translate(0.0 0.705729166667)"
             xlink:href="#Cmmi10-79"
             id="use418" />
          <use
             transform="translate(49.0234375 0.705729166667)"
             xlink:href="#Cmr10-5b"
             id="use420" />
          <use
             transform="translate(76.708984375 0.705729166667)"
             xlink:href="#Cmmi10-6e"
             id="use422" />
          <use
             transform="translate(136.71875 0.705729166667)"
             xlink:href="#Cmr10-5d"
             id="use424" />
          <use
             transform="translate(181.962890625 0.705729166667)"
             xlink:href="#Cmr10-3d"
             id="use426" />
          <use
             transform="translate(266.021484375 94.0)"
             xlink:href="#Cmex10-a9"
             id="use428" />
          <use
             transform="translate(324.322265625 0.705729166667)"
             xlink:href="#Cmsy10-a1"
             id="use430" />
          <use
             transform="translate(402.0078125 0.705729166667)"
             xlink:href="#Cmr10-31"
             id="use432" />
          <use
             transform="translate(452.0078125 0.705729166667)"
             xlink:href="#Cmmi10-3b"
             id="use434" />
          <use
             transform="translate(481.67578125 0.705729166667)"
             xlink:href="#Cmr10-31"
             id="use436" />
          <use
             transform="translate(531.67578125 94.0)"
             xlink:href="#Cmex10-aa"
             id="use438" />
        </g>
      </g>
    </g>
  </g>
  <defs
     id="defs440">
    <clipPath
       id="p41d7ee9abc">
      <rect
         height="390.6"
         width="390.6"
         x="63.0"
         y="50.4"
         id="rect443" />
    </clipPath>
  </defs>
</svg>
