<?xml version="1.0" encoding="utf-8" standalone="no"?>
<!DOCTYPE svg PUBLIC "-//W3C//DTD SVG 1.1//EN"
  "http://www.w3.org/Graphics/SVG/1.1/DTD/svg11.dtd">
<!-- Created with matplotlib (http://matplotlib.org/) -->
<svg height="432pt" version="1.1" viewBox="0 0 1224 432" width="1224pt" xmlns="http://www.w3.org/2000/svg" xmlns:xlink="http://www.w3.org/1999/xlink">
 <defs>
  <style type="text/css">
*{stroke-linecap:butt;stroke-linejoin:round;}
  </style>
 </defs>
 <g id="figure_1">
  <g id="patch_1">
   <path d="
M0 432
L1224 432
L1224 0
L0 0
z
" style="fill:#ffffff;"/>
  </g>
  <g id="axes_1">
   <g id="patch_2">
    <path d="
M39.0906 189.675
L606.748 189.675
L606.748 30.2
L39.0906 30.2
z
" style="fill:#eaeaf2;"/>
   </g>
   <g id="matplotlib.axis_1">
    <g id="xtick_1">
     <g id="line2d_1">
      <path clip-path="url(#pb1cbc7d12f)" d="
M39.0906 189.675
L39.0906 30.2" style="fill:none;stroke:#ffffff;stroke-linecap:round;"/>
     </g>
     <g id="line2d_2">
      <defs>
       <path d="
M0 0
L0 0" id="m219da94a98" style="stroke:#262626;"/>
      </defs>
      <g>
       <use style="fill:#262626;stroke:#262626;" x="39.090625" xlink:href="#m219da94a98" y="189.675"/>
      </g>
     </g>
     <g id="line2d_3">
      <g>
       <use style="fill:#262626;stroke:#262626;" x="39.090625" xlink:href="#m219da94a98" y="30.2"/>
      </g>
     </g>
     <g id="text_1">
      <!-- −10 -->
      <defs>
       <path d="
M4.9375 29.6875
L4.9375 36.8125
L53.5156 36.8125
L53.5156 29.6875
z
" id="LiberationSans-2212"/>
       <path d="
M7.625 0
L7.625 7.46875
L25.1406 7.46875
L25.1406 60.4062
L9.625 49.3125
L9.625 57.625
L25.875 68.7969
L33.9844 68.7969
L33.9844 7.46875
L50.7344 7.46875
L50.7344 0
z
" id="LiberationSans-31"/>
       <path d="
M51.7031 34.4219
Q51.7031 24.5156 49.8281 17.75
Q47.9531 10.9844 44.7031 6.8125
Q41.4531 2.64062 37.0625 0.828125
Q32.6719 -0.984375 27.6875 -0.984375
Q22.6562 -0.984375 18.3125 0.828125
Q13.9688 2.64062 10.7656 6.78125
Q7.5625 10.9375 5.73438 17.7031
Q3.90625 24.4688 3.90625 34.4219
Q3.90625 44.8281 5.73438 51.6406
Q7.5625 58.4531 10.7812 62.5
Q14.0156 66.5469 18.4062 68.1875
Q22.7969 69.8281 27.9844 69.8281
Q32.9062 69.8281 37.2188 68.1875
Q41.5469 66.5469 44.7656 62.5
Q48 58.4531 49.8438 51.6406
Q51.7031 44.8281 51.7031 34.4219
M42.7812 34.4219
Q42.7812 42.625 41.7969 48.0625
Q40.8281 53.5156 38.9219 56.7656
Q37.0156 60.0156 34.25 61.3594
Q31.5 62.7031 27.9844 62.7031
Q24.2656 62.7031 21.4375 61.3281
Q18.6094 59.9688 16.6719 56.7188
Q14.75 53.4688 13.7656 48.0156
Q12.7969 42.5781 12.7969 34.4219
Q12.7969 26.5156 13.7969 21.0938
Q14.7969 15.6719 16.7188 12.375
Q18.6562 9.07812 21.4375 7.64062
Q24.2188 6.20312 27.7812 6.20312
Q31.25 6.20312 34.0312 7.64062
Q36.8125 9.07812 38.7344 12.375
Q40.6719 15.6719 41.7188 21.0938
Q42.7812 26.5156 42.7812 34.4219" id="LiberationSans-30"/>
      </defs>
      <g style="fill:#262626;" transform="translate(23.0125 211.16875)scale(0.2 -0.2)">
       <use xlink:href="#LiberationSans-2212"/>
       <use x="58.3984375" xlink:href="#LiberationSans-31"/>
       <use x="114.013671875" xlink:href="#LiberationSans-30"/>
      </g>
     </g>
    </g>
    <g id="xtick_2">
     <g id="line2d_4">
      <path clip-path="url(#pb1cbc7d12f)" d="
M188.474 189.675
L188.474 30.2" style="fill:none;stroke:#ffffff;stroke-linecap:round;"/>
     </g>
     <g id="line2d_5">
      <g>
       <use style="fill:#262626;stroke:#262626;" x="188.474054276" xlink:href="#m219da94a98" y="189.675"/>
      </g>
     </g>
     <g id="line2d_6">
      <g>
       <use style="fill:#262626;stroke:#262626;" x="188.474054276" xlink:href="#m219da94a98" y="30.2"/>
      </g>
     </g>
     <g id="text_2">
      <!-- −5 -->
      <defs>
       <path d="
M51.4219 22.4062
Q51.4219 17.2344 49.8594 12.9375
Q48.2969 8.64062 45.2188 5.53125
Q42.1406 2.4375 37.5781 0.71875
Q33.0156 -0.984375 27 -0.984375
Q21.5781 -0.984375 17.5469 0.28125
Q13.5312 1.5625 10.7344 3.78125
Q7.95312 6 6.3125 8.98438
Q4.6875 11.9688 4 15.375
L12.8906 16.4062
Q13.4219 14.4531 14.3906 12.625
Q15.375 10.7969 17.0625 9.34375
Q18.75 7.90625 21.2188 7.04688
Q23.6875 6.20312 27.2031 6.20312
Q30.6094 6.20312 33.3906 7.25
Q36.1875 8.29688 38.1562 10.3438
Q40.1406 12.4062 41.2031 15.375
Q42.2812 18.3594 42.2812 22.2188
Q42.2812 25.3906 41.25 28.0469
Q40.2344 30.7188 38.3281 32.6406
Q36.4219 34.5781 33.6562 35.6406
Q30.9062 36.7188 27.3906 36.7188
Q25.2031 36.7188 23.3438 36.3281
Q21.4844 35.9375 19.8906 35.25
Q18.3125 34.5781 17.0156 33.6719
Q15.7188 32.7656 14.5938 31.7812
L6 31.7812
L8.29688 68.7969
L47.4062 68.7969
L47.4062 61.3281
L16.3125 61.3281
L14.9844 39.5
Q17.3281 41.3125 20.8438 42.5938
Q24.3594 43.8906 29.2031 43.8906
Q34.3281 43.8906 38.4219 42.3281
Q42.5312 40.7656 45.4062 37.9062
Q48.2969 35.0625 49.8594 31.1094
Q51.4219 27.1562 51.4219 22.4062" id="LiberationSans-35"/>
      </defs>
      <g style="fill:#262626;" transform="translate(177.984991776 211.16875)scale(0.2 -0.2)">
       <use xlink:href="#LiberationSans-2212"/>
       <use x="58.3984375" xlink:href="#LiberationSans-35"/>
      </g>
     </g>
    </g>
    <g id="xtick_3">
     <g id="line2d_7">
      <path clip-path="url(#pb1cbc7d12f)" d="
M337.857 189.675
L337.857 30.2" style="fill:none;stroke:#ffffff;stroke-linecap:round;"/>
     </g>
     <g id="line2d_8">
      <g>
       <use style="fill:#262626;stroke:#262626;" x="337.857483553" xlink:href="#m219da94a98" y="189.675"/>
      </g>
     </g>
     <g id="line2d_9">
      <g>
       <use style="fill:#262626;stroke:#262626;" x="337.857483553" xlink:href="#m219da94a98" y="30.2"/>
      </g>
     </g>
     <g id="text_3">
      <!-- 0 -->
      <g style="fill:#262626;" transform="translate(333.077796053 211.16875)scale(0.2 -0.2)">
       <use xlink:href="#LiberationSans-30"/>
      </g>
     </g>
    </g>
    <g id="xtick_4">
     <g id="line2d_10">
      <path clip-path="url(#pb1cbc7d12f)" d="
M487.241 189.675
L487.241 30.2" style="fill:none;stroke:#ffffff;stroke-linecap:round;"/>
     </g>
     <g id="line2d_11">
      <g>
       <use style="fill:#262626;stroke:#262626;" x="487.240912829" xlink:href="#m219da94a98" y="189.675"/>
      </g>
     </g>
     <g id="line2d_12">
      <g>
       <use style="fill:#262626;stroke:#262626;" x="487.240912829" xlink:href="#m219da94a98" y="30.2"/>
      </g>
     </g>
     <g id="text_4">
      <!-- 5 -->
      <g style="fill:#262626;" transform="translate(482.498725329 211.16875)scale(0.2 -0.2)">
       <use xlink:href="#LiberationSans-35"/>
      </g>
     </g>
    </g>
   </g>
   <g id="matplotlib.axis_2">
    <g id="ytick_1">
     <g id="line2d_13">
      <path clip-path="url(#pb1cbc7d12f)" d="
M39.0906 189.675
L606.748 189.675" style="fill:none;stroke:#ffffff;stroke-linecap:round;"/>
     </g>
     <g id="line2d_14">
      <g>
       <use style="fill:#262626;stroke:#262626;" x="39.090625" xlink:href="#m219da94a98" y="189.675"/>
      </g>
     </g>
     <g id="line2d_15">
      <g>
       <use style="fill:#262626;stroke:#262626;" x="606.74765625" xlink:href="#m219da94a98" y="189.675"/>
      </g>
     </g>
     <g id="text_5">
      <!-- 0 -->
      <g style="fill:#262626;" transform="translate(22.53125 194.846875)scale(0.2 -0.2)">
       <use xlink:href="#LiberationSans-30"/>
      </g>
     </g>
    </g>
    <g id="ytick_2">
     <g id="line2d_16">
      <path clip-path="url(#pb1cbc7d12f)" d="
M39.0906 149.806
L606.748 149.806" style="fill:none;stroke:#ffffff;stroke-linecap:round;"/>
     </g>
     <g id="line2d_17">
      <g>
       <use style="fill:#262626;stroke:#262626;" x="39.090625" xlink:href="#m219da94a98" y="149.80625"/>
      </g>
     </g>
     <g id="line2d_18">
      <g>
       <use style="fill:#262626;stroke:#262626;" x="606.74765625" xlink:href="#m219da94a98" y="149.80625"/>
      </g>
     </g>
     <g id="text_6">
      <!-- 5 -->
      <g style="fill:#262626;" transform="translate(22.60625 154.978125)scale(0.2 -0.2)">
       <use xlink:href="#LiberationSans-35"/>
      </g>
     </g>
    </g>
    <g id="ytick_3">
     <g id="line2d_19">
      <path clip-path="url(#pb1cbc7d12f)" d="
M39.0906 109.938
L606.748 109.938" style="fill:none;stroke:#ffffff;stroke-linecap:round;"/>
     </g>
     <g id="line2d_20">
      <g>
       <use style="fill:#262626;stroke:#262626;" x="39.090625" xlink:href="#m219da94a98" y="109.9375"/>
      </g>
     </g>
     <g id="line2d_21">
      <g>
       <use style="fill:#262626;stroke:#262626;" x="606.74765625" xlink:href="#m219da94a98" y="109.9375"/>
      </g>
     </g>
     <g id="text_7">
      <!-- 10 -->
      <g style="fill:#262626;" transform="translate(12.153125 115.109375)scale(0.2 -0.2)">
       <use xlink:href="#LiberationSans-31"/>
       <use x="55.615234375" xlink:href="#LiberationSans-30"/>
      </g>
     </g>
    </g>
    <g id="ytick_4">
     <g id="line2d_22">
      <path clip-path="url(#pb1cbc7d12f)" d="
M39.0906 70.0688
L606.748 70.0688" style="fill:none;stroke:#ffffff;stroke-linecap:round;"/>
     </g>
     <g id="line2d_23">
      <g>
       <use style="fill:#262626;stroke:#262626;" x="39.090625" xlink:href="#m219da94a98" y="70.06875"/>
      </g>
     </g>
     <g id="line2d_24">
      <g>
       <use style="fill:#262626;stroke:#262626;" x="606.74765625" xlink:href="#m219da94a98" y="70.06875"/>
      </g>
     </g>
     <g id="text_8">
      <!-- 15 -->
      <g style="fill:#262626;" transform="translate(12.209375 75.240625)scale(0.2 -0.2)">
       <use xlink:href="#LiberationSans-31"/>
       <use x="55.615234375" xlink:href="#LiberationSans-35"/>
      </g>
     </g>
    </g>
    <g id="ytick_5">
     <g id="line2d_25">
      <path clip-path="url(#pb1cbc7d12f)" d="
M39.0906 30.2
L606.748 30.2" style="fill:none;stroke:#ffffff;stroke-linecap:round;"/>
     </g>
     <g id="line2d_26">
      <g>
       <use style="fill:#262626;stroke:#262626;" x="39.090625" xlink:href="#m219da94a98" y="30.2"/>
      </g>
     </g>
     <g id="line2d_27">
      <g>
       <use style="fill:#262626;stroke:#262626;" x="606.74765625" xlink:href="#m219da94a98" y="30.2"/>
      </g>
     </g>
     <g id="text_9">
      <!-- 20 -->
      <defs>
       <path d="
M5.03125 0
L5.03125 6.20312
Q7.51562 11.9219 11.1094 16.2812
Q14.7031 20.6562 18.6562 24.1875
Q22.6094 27.7344 26.4844 30.7656
Q30.375 33.7969 33.5 36.8125
Q36.625 39.8438 38.5469 43.1562
Q40.4844 46.4844 40.4844 50.6875
Q40.4844 53.6094 39.5938 55.8281
Q38.7188 58.0625 37.0625 59.5625
Q35.4062 61.0781 33.0781 61.8281
Q30.7656 62.5938 27.9375 62.5938
Q25.2969 62.5938 22.9688 61.8594
Q20.6562 61.1406 18.8438 59.6719
Q17.0469 58.2031 15.8906 56.0312
Q14.75 53.8594 14.4062 50.9844
L5.42188 51.8125
Q5.85938 55.5156 7.46875 58.7812
Q9.07812 62.0625 11.9062 64.5312
Q14.75 67 18.7188 68.4062
Q22.7031 69.8281 27.9375 69.8281
Q33.0625 69.8281 37.0625 68.6094
Q41.0625 67.3906 43.8125 64.9844
Q46.5781 62.5938 48.0469 59.0781
Q49.5156 55.5625 49.5156 50.9844
Q49.5156 47.5156 48.2656 44.3906
Q47.0156 41.2656 44.9375 38.4219
Q42.875 35.5938 40.1406 32.9531
Q37.4062 30.3281 34.4219 27.8125
Q31.4531 25.2969 28.4219 22.8281
Q25.3906 20.3594 22.7188 17.8594
Q20.0625 15.375 17.9688 12.8125
Q15.875 10.25 14.7031 7.46875
L50.5938 7.46875
L50.5938 0
z
" id="LiberationSans-32"/>
      </defs>
      <g style="fill:#262626;" transform="translate(11.634375 35.371875)scale(0.2 -0.2)">
       <use xlink:href="#LiberationSans-32"/>
       <use x="55.615234375" xlink:href="#LiberationSans-30"/>
      </g>
     </g>
    </g>
   </g>
   <g id="line2d_28">
    <defs>
     <path d="
M0 3.5
C0.928211 3.5 1.81853 3.13122 2.47487 2.47487
C3.13122 1.81853 3.5 0.928211 3.5 0
C3.5 -0.928211 3.13122 -1.81853 2.47487 -2.47487
C1.81853 -3.13122 0.928211 -3.5 0 -3.5
C-0.928211 -3.5 -1.81853 -3.13122 -2.47487 -2.47487
C-3.13122 -1.81853 -3.5 -0.928211 -3.5 0
C-3.5 0.928211 -3.13122 1.81853 -2.47487 2.47487
C-1.81853 3.13122 -0.928211 3.5 0 3.5
z
" id="m1709273626"/>
    </defs>
    <g clip-path="url(#pb1cbc7d12f)">
     <use style="fill:#0000ff;" x="39.090625" xlink:href="#m1709273626" y="189.643654866"/>
     <use style="fill:#0000ff;" x="68.9673108553" xlink:href="#m1709273626" y="189.620459467"/>
     <use style="fill:#0000ff;" x="98.8439967105" xlink:href="#m1709273626" y="189.580099472"/>
     <use style="fill:#0000ff;" x="128.720682566" xlink:href="#m1709273626" y="189.509873081"/>
     <use style="fill:#0000ff;" x="158.597368421" xlink:href="#m1709273626" y="189.387679161"/>
     <use style="fill:#0000ff;" x="188.474054276" xlink:href="#m1709273626" y="189.175061741"/>
     <use style="fill:#0000ff;" x="218.350740132" xlink:href="#m1709273626" y="188.805107429"/>
     <use style="fill:#0000ff;" x="248.227425987" xlink:href="#m1709273626" y="188.161386926"/>
     <use style="fill:#0000ff;" x="278.104111842" xlink:href="#m1709273626" y="187.041313251"/>
     <use style="fill:#0000ff;" x="307.980797697" xlink:href="#m1709273626" y="185.092385057"/>
     <use style="fill:#0000ff;" x="337.857483553" xlink:href="#m1709273626" y="181.70125"/>
     <use style="fill:#0000ff;" x="367.734169408" xlink:href="#m1709273626" y="175.800675"/>
     <use style="fill:#0000ff;" x="397.610855263" xlink:href="#m1709273626" y="165.5336745"/>
     <use style="fill:#0000ff;" x="427.487541118" xlink:href="#m1709273626" y="147.66909363"/>
     <use style="fill:#0000ff;" x="457.364226974" xlink:href="#m1709273626" y="116.584722916"/>
     <use style="fill:#0000ff;" x="487.240912829" xlink:href="#m1709273626" y="62.4979178742"/>
     <use style="fill:#0000ff;" x="507.399093306" xlink:href="#m1709273626" y="-1.0"/>
    </g>
   </g>
   <g id="line2d_29">
    <path clip-path="url(#pb1cbc7d12f)" d="
M39.0906 189.675
L39.0906 189.644" style="fill:none;stroke:#0000ff;stroke-linecap:round;stroke-width:1.75;"/>
   </g>
   <g id="line2d_30">
    <path clip-path="url(#pb1cbc7d12f)" d="
M68.9673 189.675
L68.9673 189.62" style="fill:none;stroke:#0000ff;stroke-linecap:round;stroke-width:1.75;"/>
   </g>
   <g id="line2d_31">
    <path clip-path="url(#pb1cbc7d12f)" d="
M98.844 189.675
L98.844 189.58" style="fill:none;stroke:#0000ff;stroke-linecap:round;stroke-width:1.75;"/>
   </g>
   <g id="line2d_32">
    <path clip-path="url(#pb1cbc7d12f)" d="
M128.721 189.675
L128.721 189.51" style="fill:none;stroke:#0000ff;stroke-linecap:round;stroke-width:1.75;"/>
   </g>
   <g id="line2d_33">
    <path clip-path="url(#pb1cbc7d12f)" d="
M158.597 189.675
L158.597 189.388" style="fill:none;stroke:#0000ff;stroke-linecap:round;stroke-width:1.75;"/>
   </g>
   <g id="line2d_34">
    <path clip-path="url(#pb1cbc7d12f)" d="
M188.474 189.675
L188.474 189.175" style="fill:none;stroke:#0000ff;stroke-linecap:round;stroke-width:1.75;"/>
   </g>
   <g id="line2d_35">
    <path clip-path="url(#pb1cbc7d12f)" d="
M218.351 189.675
L218.351 188.805" style="fill:none;stroke:#0000ff;stroke-linecap:round;stroke-width:1.75;"/>
   </g>
   <g id="line2d_36">
    <path clip-path="url(#pb1cbc7d12f)" d="
M248.227 189.675
L248.227 188.161" style="fill:none;stroke:#0000ff;stroke-linecap:round;stroke-width:1.75;"/>
   </g>
   <g id="line2d_37">
    <path clip-path="url(#pb1cbc7d12f)" d="
M278.104 189.675
L278.104 187.041" style="fill:none;stroke:#0000ff;stroke-linecap:round;stroke-width:1.75;"/>
   </g>
   <g id="line2d_38">
    <path clip-path="url(#pb1cbc7d12f)" d="
M307.981 189.675
L307.981 185.092" style="fill:none;stroke:#0000ff;stroke-linecap:round;stroke-width:1.75;"/>
   </g>
   <g id="line2d_39">
    <path clip-path="url(#pb1cbc7d12f)" d="
M337.857 189.675
L337.857 181.701" style="fill:none;stroke:#0000ff;stroke-linecap:round;stroke-width:1.75;"/>
   </g>
   <g id="line2d_40">
    <path clip-path="url(#pb1cbc7d12f)" d="
M367.734 189.675
L367.734 175.801" style="fill:none;stroke:#0000ff;stroke-linecap:round;stroke-width:1.75;"/>
   </g>
   <g id="line2d_41">
    <path clip-path="url(#pb1cbc7d12f)" d="
M397.611 189.675
L397.611 165.534" style="fill:none;stroke:#0000ff;stroke-linecap:round;stroke-width:1.75;"/>
   </g>
   <g id="line2d_42">
    <path clip-path="url(#pb1cbc7d12f)" d="
M427.488 189.675
L427.488 147.669" style="fill:none;stroke:#0000ff;stroke-linecap:round;stroke-width:1.75;"/>
   </g>
   <g id="line2d_43">
    <path clip-path="url(#pb1cbc7d12f)" d="
M457.364 189.675
L457.364 116.585" style="fill:none;stroke:#0000ff;stroke-linecap:round;stroke-width:1.75;"/>
   </g>
   <g id="line2d_44">
    <path clip-path="url(#pb1cbc7d12f)" d="
M487.241 189.675
L487.241 62.4979" style="fill:none;stroke:#0000ff;stroke-linecap:round;stroke-width:1.75;"/>
   </g>
   <g id="line2d_45">
    <path clip-path="url(#pb1cbc7d12f)" d="
M517.118 189.675
L517.118 -1" style="fill:none;stroke:#0000ff;stroke-linecap:round;stroke-width:1.75;"/>
   </g>
   <g id="line2d_46">
    <path clip-path="url(#pb1cbc7d12f)" d="
M546.994 189.675
L546.994 -1" style="fill:none;stroke:#0000ff;stroke-linecap:round;stroke-width:1.75;"/>
   </g>
   <g id="line2d_47">
    <path clip-path="url(#pb1cbc7d12f)" d="
M576.871 189.675
L576.871 -1" style="fill:none;stroke:#0000ff;stroke-linecap:round;stroke-width:1.75;"/>
   </g>
   <g id="line2d_48">
    <path clip-path="url(#pb1cbc7d12f)" d="
M606.748 189.675
L606.748 -1" style="fill:none;stroke:#0000ff;stroke-linecap:round;stroke-width:1.75;"/>
   </g>
   <g id="line2d_49">
    <path clip-path="url(#pb1cbc7d12f)" d="
M39.0906 189.675
L606.748 189.675" style="fill:none;stroke:#ff0000;stroke-linecap:round;stroke-width:1.75;"/>
   </g>
   <g id="patch_3">
    <path d="
M39.0906 30.2
L606.748 30.2" style="fill:none;"/>
   </g>
   <g id="patch_4">
    <path d="
M606.748 189.675
L606.748 30.2" style="fill:none;"/>
   </g>
   <g id="patch_5">
    <path d="
M39.0906 189.675
L606.748 189.675" style="fill:none;"/>
   </g>
   <g id="patch_6">
    <path d="
M39.0906 189.675
L39.0906 30.2" style="fill:none;"/>
   </g>
   <g id="text_10">
    <!-- Exponentially growing signal -->
    <defs>
     <path d="
M46.3906 14.5938
Q46.3906 10.8906 44.9375 7.98438
Q43.5 5.07812 40.7656 3.09375
Q38.0312 1.125 34.0469 0.0625
Q30.0781 -0.984375 24.9531 -0.984375
Q20.3594 -0.984375 16.6719 -0.265625
Q12.9844 0.4375 10.2031 2
Q7.42188 3.5625 5.53125 6.125
Q3.65625 8.6875 2.78125 12.4062
L10.5469 13.9219
Q11.6719 9.67188 15.1875 7.6875
Q18.7031 5.71875 24.9531 5.71875
Q27.7812 5.71875 30.1406 6.10938
Q32.5156 6.5 34.2188 7.45312
Q35.9375 8.40625 36.8906 9.98438
Q37.8438 11.5781 37.8438 13.9219
Q37.8438 16.3125 36.7188 17.8438
Q35.5938 19.3906 33.5938 20.4062
Q31.5938 21.4375 28.7344 22.1875
Q25.875 22.9531 22.4688 23.875
Q19.2812 24.7031 16.1562 25.7344
Q13.0312 26.7656 10.5156 28.4375
Q8.01562 30.125 6.45312 32.6094
Q4.89062 35.1094 4.89062 38.875
Q4.89062 46.0938 10.0312 49.875
Q15.1875 53.6562 25.0469 53.6562
Q33.7969 53.6562 38.9375 50.5781
Q44.0938 47.5156 45.4531 40.7188
L37.5469 39.75
Q37.1094 41.7969 35.9375 43.1875
Q34.7656 44.5781 33.1094 45.4375
Q31.4531 46.2969 29.375 46.6562
Q27.2969 47.0156 25.0469 47.0156
Q19.0938 47.0156 16.25 45.2031
Q13.4219 43.4062 13.4219 39.75
Q13.4219 37.5938 14.4688 36.2031
Q15.5312 34.8125 17.4062 33.8594
Q19.2812 32.9062 21.9219 32.2031
Q24.5625 31.5 27.7344 30.7188
Q29.8281 30.1719 32.0312 29.5625
Q34.2344 28.9531 36.2969 28.0938
Q38.375 27.25 40.2031 26.0938
Q42.0469 24.9531 43.4062 23.3438
Q44.7812 21.7344 45.5781 19.5781
Q46.3906 17.4375 46.3906 14.5938" id="LiberationSans-73"/>
     <path d="
M13.4844 24.5625
Q13.4844 20.4062 14.3281 16.9062
Q15.1875 13.4219 16.9688 10.9062
Q18.75 8.40625 21.5312 7
Q24.3125 5.60938 28.2188 5.60938
Q33.9375 5.60938 37.375 7.90625
Q40.8281 10.2031 42.0469 13.7188
L49.75 11.5312
Q48.9219 9.32812 47.4375 7.10938
Q45.9531 4.89062 43.4531 3.09375
Q40.9688 1.3125 37.2344 0.15625
Q33.5 -0.984375 28.2188 -0.984375
Q16.5 -0.984375 10.375 6
Q4.25 12.9844 4.25 26.7656
Q4.25 34.1875 6.09375 39.3281
Q7.95312 44.4844 11.1719 47.7031
Q14.4062 50.9219 18.7031 52.3594
Q23 53.8125 27.875 53.8125
Q34.5156 53.8125 38.9844 51.6562
Q43.4531 49.5156 46.1562 45.7188
Q48.875 41.9375 50.0156 36.8125
Q51.1719 31.6875 51.1719 25.7344
L51.1719 24.5625
z

M42.0938 31.2969
Q41.3594 39.6562 37.8438 43.4844
Q34.3281 47.3125 27.7344 47.3125
Q25.5312 47.3125 23.1094 46.6094
Q20.7031 45.9062 18.6562 44.0938
Q16.6094 42.2812 15.1875 39.1719
Q13.7656 36.0781 13.5781 31.2969
z
" id="LiberationSans-65"/>
     <path d="
M51.4219 26.6562
Q51.4219 20.6562 50.4375 15.5781
Q49.4688 10.5 47.1875 6.82812
Q44.9219 3.17188 41.1875 1.09375
Q37.4531 -0.984375 31.9844 -0.984375
Q26.3125 -0.984375 22.0625 1.17188
Q17.8281 3.32812 15.5781 8.20312
L15.3281 8.20312
Q15.375 8.10938 15.4062 7.32812
Q15.4375 6.54688 15.4531 5.375
Q15.4844 4.20312 15.5 2.75
Q15.5312 1.3125 15.5312 -0.09375
L15.5312 -20.75
L6.73438 -20.75
L6.73438 42.0469
Q6.73438 43.9531 6.70312 45.7031
Q6.6875 47.4688 6.64062 48.9062
Q6.59375 50.3438 6.54688 51.3594
Q6.5 52.3906 6.45312 52.8281
L14.9375 52.8281
Q14.9844 52.6875 15.0625 51.7969
Q15.1406 50.9219 15.2031 49.6719
Q15.2812 48.4375 15.3594 47.0156
Q15.4375 45.6094 15.4375 44.3438
L15.625 44.3438
Q16.8438 46.875 18.4062 48.6562
Q19.9688 50.4375 21.9688 51.5781
Q23.9688 52.7344 26.4375 53.25
Q28.9062 53.7656 31.9844 53.7656
Q37.4531 53.7656 41.1875 51.8125
Q44.9219 49.8594 47.1875 46.3125
Q49.4688 42.7812 50.4375 37.7656
Q51.4219 32.7656 51.4219 26.6562
M42.1875 26.4688
Q42.1875 31.3438 41.5938 35.1562
Q41.0156 38.9688 39.5781 41.5938
Q38.1406 44.2344 35.7344 45.5938
Q33.3438 46.9688 29.7344 46.9688
Q26.8125 46.9688 24.2188 46.1406
Q21.625 45.3125 19.7031 42.9688
Q17.7812 40.625 16.6562 36.5
Q15.5312 32.375 15.5312 25.7812
Q15.5312 20.1719 16.4531 16.2812
Q17.3906 12.4062 19.1719 10.0156
Q20.9531 7.625 23.5781 6.5625
Q26.2188 5.51562 29.6406 5.51562
Q33.2969 5.51562 35.7188 6.92188
Q38.1406 8.34375 39.5781 11.0312
Q41.0156 13.7188 41.5938 17.5938
Q42.1875 21.4844 42.1875 26.4688" id="LiberationSans-70"/>
     <path d="
M57.3281 0
L47.125 0
L38.6719 34.0781
Q38.2812 35.4062 37.8594 37.3594
Q37.4531 39.3125 37.0625 41.1562
Q36.5781 43.3125 36.1406 45.6094
Q35.6875 43.4062 35.2031 41.2656
Q34.8125 39.4062 34.3438 37.4062
Q33.8906 35.4062 33.5 33.8906
L24.8125 0
L14.6562 0
L-0.140625 52.8281
L8.54688 52.8281
L17.4844 16.9375
Q17.8281 15.8281 18.1562 14.1875
Q18.5 12.5469 18.8438 10.9844
Q19.1875 9.1875 19.5781 7.28125
Q19.9688 9.125 20.4062 10.8906
Q20.7969 12.4062 21.1875 13.9688
Q21.5781 15.5312 21.875 16.5469
L31.4531 52.8281
L40.875 52.8281
L50.0938 16.5469
Q50.4375 15.2812 50.8281 13.6719
Q51.2188 12.0625 51.5625 10.6406
Q51.9531 8.98438 52.3438 7.28125
Q52.7344 9.125 53.125 10.8906
Q53.4688 12.4062 53.8281 14.0312
Q54.2031 15.6719 54.5469 16.9375
L63.875 52.8281
L72.4688 52.8281
z
" id="LiberationSans-77"/>
     <path d="
M20.2188 -0.984375
Q12.25 -0.984375 8.25 3.21875
Q4.25 7.42188 4.25 14.75
Q4.25 19.9688 6.21875 23.3125
Q8.20312 26.6562 11.3906 28.5625
Q14.5938 30.4688 18.6875 31.2031
Q22.7969 31.9375 27.0469 32.0312
L38.9219 32.2344
L38.9219 35.1094
Q38.9219 38.375 38.2344 40.6719
Q37.5469 42.9688 36.125 44.375
Q34.7188 45.7969 32.5938 46.4531
Q30.4688 47.125 27.5938 47.125
Q25.0469 47.125 23 46.75
Q20.9531 46.3906 19.4375 45.4375
Q17.9219 44.4844 16.9844 42.8438
Q16.0625 41.2188 15.7656 38.7188
L6.59375 39.5469
Q7.07812 42.6719 8.4375 45.2812
Q9.8125 47.9062 12.3281 49.7969
Q14.8438 51.7031 18.625 52.75
Q22.4062 53.8125 27.7812 53.8125
Q37.75 53.8125 42.7656 49.2344
Q47.7969 44.6719 47.7969 36.0312
L47.7969 13.2812
Q47.7969 9.375 48.8281 7.39062
Q49.8594 5.42188 52.7344 5.42188
Q53.4688 5.42188 54.2031 5.51562
Q54.9375 5.60938 55.6094 5.76562
L55.6094 0.296875
Q53.9531 -0.09375 52.3125 -0.28125
Q50.6875 -0.484375 48.8281 -0.484375
Q46.3438 -0.484375 44.5625 0.171875
Q42.7812 0.828125 41.6562 2.17188
Q40.5312 3.51562 39.9375 5.48438
Q39.3594 7.46875 39.2031 10.1094
L38.9219 10.1094
Q37.5 7.5625 35.8125 5.51562
Q34.125 3.46875 31.875 2.03125
Q29.6406 0.59375 26.7812 -0.1875
Q23.9219 -0.984375 20.2188 -0.984375
M22.2188 5.60938
Q26.4219 5.60938 29.5625 7.14062
Q32.7188 8.6875 34.7812 11.0781
Q36.8594 13.4844 37.8906 16.3125
Q38.9219 19.1406 38.9219 21.7344
L38.9219 26.0781
L29.2969 25.875
Q26.0781 25.8281 23.1719 25.4062
Q20.2656 25 18.0625 23.7812
Q15.875 22.5625 14.5781 20.3594
Q13.2812 18.1719 13.2812 14.5938
Q13.2812 10.2969 15.5938 7.95312
Q17.9219 5.60938 22.2188 5.60938" id="LiberationSans-61"/>
     <path d="
M27.0469 0.390625
Q25.0469 -0.140625 22.9688 -0.453125
Q20.9062 -0.78125 18.1719 -0.78125
Q7.625 -0.78125 7.625 11.1875
L7.625 46.4375
L1.51562 46.4375
L1.51562 52.8281
L7.95312 52.8281
L10.5469 64.6562
L16.4062 64.6562
L16.4062 52.8281
L26.1719 52.8281
L26.1719 46.4375
L16.4062 46.4375
L16.4062 13.0938
Q16.4062 9.28125 17.6406 7.73438
Q18.8906 6.20312 21.9688 6.20312
Q23.25 6.20312 24.4375 6.39062
Q25.6406 6.59375 27.0469 6.89062
z
" id="LiberationSans-74"/>
     <path d="
M29.5 0
Q27.6406 -4.78125 25.7031 -8.60938
Q23.7812 -12.4531 21.3906 -15.1562
Q19 -17.875 16.0625 -19.3125
Q13.1406 -20.75 9.32812 -20.75
Q7.67188 -20.75 6.25 -20.6562
Q4.82812 -20.5625 3.26562 -20.2188
L3.26562 -13.625
Q4.20312 -13.7656 5.375 -13.8438
Q6.54688 -13.9219 7.375 -13.9219
Q11.2344 -13.9219 14.5469 -11.0312
Q17.875 -8.15625 20.3594 -1.85938
L21.1875 0.25
L0.25 52.8281
L9.625 52.8281
L20.75 23.6406
Q21.2344 22.3125 21.9844 20.1094
Q22.75 17.9219 23.5 15.7188
Q24.2656 13.5312 24.8438 11.7656
Q25.4375 10.0156 25.5312 9.57812
Q25.6875 10.1094 26.25 11.6875
Q26.8125 13.2812 27.5156 15.2344
Q28.2188 17.1875 28.9531 19.1875
Q29.6875 21.1875 30.1719 22.6562
L40.5312 52.8281
L49.8125 52.8281
z
" id="LiberationSans-79"/>
     <path d="
M39.1094 0
L24.9062 21.6875
L10.5938 0
L1.125 0
L19.9219 27.1562
L2 52.8281
L11.7188 52.8281
L24.9062 32.2812
L37.9844 52.8281
L47.7969 52.8281
L29.8906 27.25
L48.9219 0
z
" id="LiberationSans-78"/>
     <path d="
M6.6875 64.0625
L6.6875 72.4688
L15.4844 72.4688
L15.4844 64.0625
z

M6.6875 0
L6.6875 52.8281
L15.4844 52.8281
L15.4844 0
z
" id="LiberationSans-69"/>
     <path d="
M6.9375 0
L6.9375 40.5312
Q6.9375 42.1875 6.90625 43.9219
Q6.89062 45.6562 6.82812 47.2656
Q6.78125 48.875 6.73438 50.2812
Q6.6875 51.7031 6.64062 52.8281
L14.9375 52.8281
Q14.9844 51.7031 15.0625 50.2656
Q15.1406 48.8281 15.2031 47.3125
Q15.2812 45.7969 15.2969 44.4062
Q15.3281 43.0156 15.3281 42.0469
L15.5312 42.0469
Q16.4531 45.0625 17.5 47.2812
Q18.5625 49.5156 19.9688 50.9531
Q21.3906 52.3906 23.3438 53.0938
Q25.2969 53.8125 28.0781 53.8125
Q29.1562 53.8125 30.125 53.6406
Q31.1094 53.4688 31.6406 53.3281
L31.6406 45.2656
Q30.7656 45.5156 29.5938 45.625
Q28.4219 45.75 26.9531 45.75
Q23.9219 45.75 21.7969 44.375
Q19.6719 43.0156 18.3281 40.5938
Q17 38.1875 16.3594 34.8438
Q15.7188 31.5 15.7188 27.5469
L15.7188 0
z
" id="LiberationSans-72"/>
     <path d="
M40.2812 0
L40.2812 33.5
Q40.2812 37.3594 39.7188 39.9375
Q39.1562 42.5312 37.8906 44.1094
Q36.625 45.7031 34.5469 46.3594
Q32.4688 47.0156 29.3906 47.0156
Q26.2656 47.0156 23.75 45.9219
Q21.2344 44.8281 19.4531 42.75
Q17.6719 40.6719 16.6875 37.625
Q15.7188 34.5781 15.7188 30.6094
L15.7188 0
L6.9375 0
L6.9375 41.5469
Q6.9375 43.2188 6.90625 45.0469
Q6.89062 46.875 6.82812 48.5
Q6.78125 50.1406 6.73438 51.3125
Q6.6875 52.4844 6.64062 52.8281
L14.9375 52.8281
Q14.9844 52.5938 15.0312 51.5156
Q15.0938 50.4375 15.1562 49.0469
Q15.2344 47.6562 15.2812 46.2188
Q15.3281 44.7812 15.3281 43.7969
L15.4844 43.7969
Q16.75 46.0938 18.2656 47.9531
Q19.7812 49.8125 21.7812 51.0938
Q23.7812 52.3906 26.3594 53.0938
Q28.9531 53.8125 32.375 53.8125
Q36.7656 53.8125 39.9375 52.7344
Q43.1094 51.6562 45.1562 49.4062
Q47.2188 47.1719 48.1719 43.625
Q49.125 40.0938 49.125 35.2031
L49.125 0
z
" id="LiberationSans-6e"/>
     <path d="
M51.4219 26.4688
Q51.4219 12.5938 45.3125 5.79688
Q39.2031 -0.984375 27.5938 -0.984375
Q22.0781 -0.984375 17.7188 0.671875
Q13.375 2.34375 10.375 5.76562
Q7.375 9.1875 5.78125 14.3281
Q4.20312 19.4844 4.20312 26.4688
Q4.20312 53.8125 27.875 53.8125
Q34.0312 53.8125 38.5 52.0938
Q42.9688 50.3906 45.8281 46.9688
Q48.6875 43.5625 50.0469 38.4219
Q51.4219 33.2969 51.4219 26.4688
M42.1875 26.4688
Q42.1875 32.625 41.2344 36.625
Q40.2812 40.625 38.4531 43.0156
Q36.625 45.4062 33.9844 46.3594
Q31.3438 47.3125 28.0312 47.3125
Q24.6562 47.3125 21.9375 46.3125
Q19.2344 45.3125 17.3281 42.8906
Q15.4375 40.4844 14.4219 36.4688
Q13.4219 32.4688 13.4219 26.4688
Q13.4219 20.3125 14.5 16.2812
Q15.5781 12.25 17.4531 9.85938
Q19.3438 7.46875 21.9062 6.48438
Q24.4688 5.51562 27.4844 5.51562
Q30.8594 5.51562 33.5938 6.46875
Q36.3281 7.42188 38.2344 9.8125
Q40.1406 12.2031 41.1562 16.25
Q42.1875 20.3125 42.1875 26.4688" id="LiberationSans-6f"/>
     <path d="
M26.7656 -20.75
Q22.2188 -20.75 18.7031 -19.8125
Q15.1875 -18.8906 12.6875 -17.1562
Q10.2031 -15.4375 8.64062 -13.0312
Q7.07812 -10.6406 6.39062 -7.71875
L15.2344 -6.45312
Q16.1094 -10.1094 19.1094 -12.0781
Q22.125 -14.0625 27 -14.0625
Q29.9844 -14.0625 32.4219 -13.2344
Q34.8594 -12.4062 36.5625 -10.5625
Q38.2812 -8.73438 39.2031 -5.79688
Q40.1406 -2.875 40.1406 1.3125
L40.1406 9.8125
L40.0469 9.8125
Q39.0625 7.8125 37.625 5.98438
Q36.1875 4.15625 34.1094 2.73438
Q32.0312 1.3125 29.2969 0.453125
Q26.5625 -0.390625 23.0469 -0.390625
Q18.0156 -0.390625 14.4219 1.29688
Q10.8438 2.98438 8.5625 6.34375
Q6.29688 9.71875 5.25 14.7188
Q4.20312 19.7344 4.20312 26.3125
Q4.20312 32.6719 5.25 37.75
Q6.29688 42.8281 8.65625 46.3594
Q11.0312 49.9062 14.8125 51.7812
Q18.6094 53.6562 24.0312 53.6562
Q29.6406 53.6562 33.7656 51.0938
Q37.8906 48.5312 40.1406 43.7969
L40.2344 43.7969
Q40.2344 45.0156 40.2969 46.5312
Q40.375 48.0469 40.4531 49.3906
Q40.5312 50.7344 40.625 51.7031
Q40.7188 52.6875 40.8281 52.8281
L49.1719 52.8281
Q49.125 52.3906 49.0781 51.3438
Q49.0312 50.2969 48.9688 48.8281
Q48.9219 47.3594 48.8906 45.5781
Q48.875 43.7969 48.875 41.8906
L48.875 1.51562
Q48.875 -9.57812 43.4219 -15.1562
Q37.9844 -20.75 26.7656 -20.75
M40.1406 26.4219
Q40.1406 31.9375 38.9375 35.8594
Q37.75 39.7969 35.7969 42.2812
Q33.8438 44.7812 31.3281 45.9531
Q28.8125 47.125 26.1719 47.125
Q22.7969 47.125 20.375 45.9531
Q17.9688 44.7812 16.375 42.2656
Q14.7969 39.75 14.0312 35.8125
Q13.2812 31.8906 13.2812 26.4219
Q13.2812 20.7031 14.0312 16.8125
Q14.7969 12.9375 16.3594 10.5469
Q17.9219 8.15625 20.3125 7.125
Q22.7031 6.10938 26.0312 6.10938
Q28.6562 6.10938 31.1719 7.21875
Q33.6875 8.34375 35.6875 10.7812
Q37.7031 13.2344 38.9219 17.0938
Q40.1406 20.9531 40.1406 26.4219" id="LiberationSans-67"/>
     <path d="
M6.73438 0
L6.73438 72.4688
L15.5312 72.4688
L15.5312 0
z
" id="LiberationSans-6c"/>
     <path id="LiberationSans-20"/>
     <path d="
M8.20312 0
L8.20312 68.7969
L60.4062 68.7969
L60.4062 61.1875
L17.5312 61.1875
L17.5312 39.1094
L57.4688 39.1094
L57.4688 31.5938
L17.5312 31.5938
L17.5312 7.625
L62.4062 7.625
L62.4062 0
z
" id="LiberationSans-45"/>
    </defs>
    <g style="fill:#262626;" transform="translate(197.408203125 25.2)scale(0.2 -0.2)">
     <use xlink:href="#LiberationSans-45"/>
     <use x="66.69921875" xlink:href="#LiberationSans-78"/>
     <use x="116.69921875" xlink:href="#LiberationSans-70"/>
     <use x="172.314453125" xlink:href="#LiberationSans-6f"/>
     <use x="227.9296875" xlink:href="#LiberationSans-6e"/>
     <use x="283.544921875" xlink:href="#LiberationSans-65"/>
     <use x="339.16015625" xlink:href="#LiberationSans-6e"/>
     <use x="394.775390625" xlink:href="#LiberationSans-74"/>
     <use x="422.55859375" xlink:href="#LiberationSans-69"/>
     <use x="444.775390625" xlink:href="#LiberationSans-61"/>
     <use x="500.390625" xlink:href="#LiberationSans-6c"/>
     <use x="522.607421875" xlink:href="#LiberationSans-6c"/>
     <use x="544.82421875" xlink:href="#LiberationSans-79"/>
     <use x="594.82421875" xlink:href="#LiberationSans-20"/>
     <use x="622.607421875" xlink:href="#LiberationSans-67"/>
     <use x="678.22265625" xlink:href="#LiberationSans-72"/>
     <use x="711.5234375" xlink:href="#LiberationSans-6f"/>
     <use x="767.138671875" xlink:href="#LiberationSans-77"/>
     <use x="839.35546875" xlink:href="#LiberationSans-69"/>
     <use x="861.572265625" xlink:href="#LiberationSans-6e"/>
     <use x="917.1875" xlink:href="#LiberationSans-67"/>
     <use x="972.802734375" xlink:href="#LiberationSans-20"/>
     <use x="1000.5859375" xlink:href="#LiberationSans-73"/>
     <use x="1050.5859375" xlink:href="#LiberationSans-69"/>
     <use x="1072.80273438" xlink:href="#LiberationSans-67"/>
     <use x="1128.41796875" xlink:href="#LiberationSans-6e"/>
     <use x="1184.03320312" xlink:href="#LiberationSans-61"/>
     <use x="1239.6484375" xlink:href="#LiberationSans-6c"/>
    </g>
   </g>
   <g id="legend_1">
    <g id="line2d_50">
     <g>
      <use style="fill:#0000ff;" x="86.590625" xlink:href="#m1709273626" y="58.7859375"/>
     </g>
    </g>
    <g id="line2d_51">
     <path d="
M86.5906 70.8172
L86.5906 58.7859" style="fill:none;stroke:#0000ff;stroke-linecap:round;stroke-width:1.75;"/>
    </g>
    <g id="line2d_52">
     <path d="
M61.5906 70.8172
L111.591 70.8172" style="fill:none;stroke:#ff0000;stroke-linecap:round;stroke-width:1.75;"/>
    </g>
    <g id="text_11">
     <!-- $1.74^n$ -->
     <defs>
      <path d="
M7.71875 1.70312
Q7.71875 2.29688 7.8125 2.59375
L15.2812 32.4219
Q16.0156 35.2031 16.0156 37.3125
Q16.0156 41.6094 13.0938 41.6094
Q9.96875 41.6094 8.45312 37.8594
Q6.9375 34.125 5.51562 28.4219
Q5.51562 28.125 5.21875 27.9531
Q4.9375 27.7812 4.6875 27.7812
L3.51562 27.7812
Q3.17188 27.7812 2.92188 28.1406
Q2.6875 28.5156 2.6875 28.8125
Q3.76562 33.1562 4.76562 36.1719
Q5.76562 39.2031 7.89062 41.6875
Q10.0156 44.1875 13.1875 44.1875
Q16.9375 44.1875 19.8125 41.8125
Q22.7031 39.4531 22.7031 35.7969
Q25.6875 39.7031 29.6875 41.9375
Q33.6875 44.1875 38.1875 44.1875
Q41.75 44.1875 44.3281 42.9688
Q46.9219 41.75 48.3594 39.2812
Q49.8125 36.8125 49.8125 33.4062
Q49.8125 29.2969 47.9688 23.4844
Q46.1406 17.6719 43.4062 10.5
Q42 7.23438 42 4.5
Q42 1.51562 44.2812 1.51562
Q48.1875 1.51562 50.7969 5.70312
Q53.4219 9.90625 54.5 14.7031
Q54.6875 15.2812 55.3281 15.2812
L56.5 15.2812
Q56.8906 15.2812 57.1562 15.0312
Q57.4219 14.7969 57.4219 14.4062
Q57.4219 14.3125 57.3281 14.1094
Q55.9531 8.45312 52.5625 3.65625
Q49.1719 -1.125 44.0938 -1.125
Q40.5781 -1.125 38.0781 1.29688
Q35.5938 3.71875 35.5938 7.17188
Q35.5938 9.03125 36.375 11.0781
Q37.6406 14.3594 39.2812 18.8906
Q40.9219 23.4375 41.9688 27.5781
Q43.0156 31.7344 43.0156 34.9062
Q43.0156 37.7031 41.8594 39.6562
Q40.7188 41.6094 37.9844 41.6094
Q34.3281 41.6094 31.25 39.9844
Q28.1719 38.375 25.875 35.7188
Q23.5781 33.0625 21.6875 29.3906
L14.8906 2.20312
Q14.5469 0.828125 13.3438 -0.140625
Q12.1562 -1.125 10.6875 -1.125
Q9.46875 -1.125 8.59375 -0.34375
Q7.71875 0.4375 7.71875 1.70312" id="Cmmi10-6e"/>
      <path d="
M9.28125 0
L9.28125 3.51562
Q21.7812 3.51562 21.7812 6.6875
L21.7812 59.1875
Q16.6094 56.6875 8.6875 56.6875
L8.6875 60.2031
Q20.9531 60.2031 27.2031 66.6094
L28.6094 66.6094
Q28.9531 66.6094 29.2656 66.3281
Q29.5938 66.0625 29.5938 65.7188
L29.5938 6.6875
Q29.5938 3.51562 42.0938 3.51562
L42.0938 0
z
" id="Cmr10-31"/>
      <path d="
M2.78125 16.5
L2.78125 20.0156
L33.6875 66.1094
Q34.0312 66.6094 34.7188 66.6094
L36.1875 66.6094
Q37.3125 66.6094 37.3125 65.4844
L37.3125 20.0156
L47.125 20.0156
L47.125 16.5
L37.3125 16.5
L37.3125 6.6875
Q37.3125 4.64062 40.2344 4.07812
Q43.1719 3.51562 47.0156 3.51562
L47.0156 0
L19.4844 0
L19.4844 3.51562
Q23.3438 3.51562 26.2656 4.07812
Q29.2031 4.64062 29.2031 6.6875
L29.2031 16.5
z

M6.10938 20.0156
L29.7812 20.0156
L29.7812 55.4219
z
" id="Cmr10-34"/>
      <path d="
M17.3906 2.59375
Q17.3906 8.15625 18.3594 13.4688
Q19.3438 18.7969 21.2188 24
Q23.0938 29.2031 25.75 34.2031
Q28.4219 39.2031 31.5938 43.6094
L40.7188 56.2969
L29.2969 56.2969
Q11.5312 56.2969 10.9844 55.8125
Q9.67188 54.2031 8.5 46.5781
L5.60938 46.5781
L8.89062 67.5781
L11.8125 67.5781
L11.8125 67.2812
Q11.8125 65.4844 17.9219 64.9375
Q24.0312 64.4062 29.8906 64.4062
L48.4844 64.4062
L48.4844 61.8125
Q48.4844 61.7188 48.4531 61.6719
Q48.4375 61.625 48.3906 61.5312
L34.625 42.1875
Q29.5469 34.6719 28.2656 25.4844
Q27 16.3125 27 2.59375
Q27 0.640625 25.5781 -0.78125
Q24.1719 -2.20312 22.2188 -2.20312
Q20.2188 -2.20312 18.7969 -0.78125
Q17.3906 0.640625 17.3906 2.59375" id="Cmr10-37"/>
      <path d="
M8.40625 5.51562
Q8.40625 7.76562 10.0625 9.375
Q11.7188 10.9844 13.9219 10.9844
Q15.2812 10.9844 16.5938 10.25
Q17.9219 9.51562 18.6562 8.20312
Q19.3906 6.89062 19.3906 5.51562
Q19.3906 3.32812 17.7656 1.65625
Q16.1562 0 13.9219 0
Q11.7188 0 10.0625 1.65625
Q8.40625 3.32812 8.40625 5.51562" id="Cmmi10-3a"/>
     </defs>
     <g style="fill:#262626;" transform="translate(131.590625 70.8171875)scale(0.25 -0.25)">
      <use transform="translate(0.0 0.553125)" xlink:href="#Cmr10-31"/>
      <use transform="translate(50.0 0.553125)" xlink:href="#Cmmi10-3a"/>
      <use transform="translate(78.54296875 0.553125)" xlink:href="#Cmr10-37"/>
      <use transform="translate(128.54296875 0.553125)" xlink:href="#Cmr10-34"/>
      <use transform="translate(178.54296875 43.06875)scale(0.7)" xlink:href="#Cmmi10-6e"/>
     </g>
    </g>
   </g>
  </g>
  <g id="axes_2">
   <g id="patch_7">
    <path d="
M645.543 189.675
L1213.2 189.675
L1213.2 30.2
L645.543 30.2
z
" style="fill:#eaeaf2;"/>
   </g>
   <g id="matplotlib.axis_3">
    <g id="xtick_5">
     <g id="line2d_53">
      <path clip-path="url(#pd332633f72)" d="
M645.543 189.675
L645.543 30.2" style="fill:none;stroke:#ffffff;stroke-linecap:round;"/>
     </g>
     <g id="line2d_54">
      <g>
       <use style="fill:#262626;stroke:#262626;" x="645.54296875" xlink:href="#m219da94a98" y="189.675"/>
      </g>
     </g>
     <g id="line2d_55">
      <g>
       <use style="fill:#262626;stroke:#262626;" x="645.54296875" xlink:href="#m219da94a98" y="30.2"/>
      </g>
     </g>
     <g id="text_12">
      <!-- −10 -->
      <g style="fill:#262626;" transform="translate(629.46484375 211.16875)scale(0.2 -0.2)">
       <use xlink:href="#LiberationSans-2212"/>
       <use x="58.3984375" xlink:href="#LiberationSans-31"/>
       <use x="114.013671875" xlink:href="#LiberationSans-30"/>
      </g>
     </g>
    </g>
    <g id="xtick_6">
     <g id="line2d_56">
      <path clip-path="url(#pd332633f72)" d="
M794.926 189.675
L794.926 30.2" style="fill:none;stroke:#ffffff;stroke-linecap:round;"/>
     </g>
     <g id="line2d_57">
      <g>
       <use style="fill:#262626;stroke:#262626;" x="794.926398026" xlink:href="#m219da94a98" y="189.675"/>
      </g>
     </g>
     <g id="line2d_58">
      <g>
       <use style="fill:#262626;stroke:#262626;" x="794.926398026" xlink:href="#m219da94a98" y="30.2"/>
      </g>
     </g>
     <g id="text_13">
      <!-- −5 -->
      <g style="fill:#262626;" transform="translate(784.437335526 211.16875)scale(0.2 -0.2)">
       <use xlink:href="#LiberationSans-2212"/>
       <use x="58.3984375" xlink:href="#LiberationSans-35"/>
      </g>
     </g>
    </g>
    <g id="xtick_7">
     <g id="line2d_59">
      <path clip-path="url(#pd332633f72)" d="
M944.31 189.675
L944.31 30.2" style="fill:none;stroke:#ffffff;stroke-linecap:round;"/>
     </g>
     <g id="line2d_60">
      <g>
       <use style="fill:#262626;stroke:#262626;" x="944.309827303" xlink:href="#m219da94a98" y="189.675"/>
      </g>
     </g>
     <g id="line2d_61">
      <g>
       <use style="fill:#262626;stroke:#262626;" x="944.309827303" xlink:href="#m219da94a98" y="30.2"/>
      </g>
     </g>
     <g id="text_14">
      <!-- 0 -->
      <g style="fill:#262626;" transform="translate(939.530139803 211.16875)scale(0.2 -0.2)">
       <use xlink:href="#LiberationSans-30"/>
      </g>
     </g>
    </g>
    <g id="xtick_8">
     <g id="line2d_62">
      <path clip-path="url(#pd332633f72)" d="
M1093.69 189.675
L1093.69 30.2" style="fill:none;stroke:#ffffff;stroke-linecap:round;"/>
     </g>
     <g id="line2d_63">
      <g>
       <use style="fill:#262626;stroke:#262626;" x="1093.69325658" xlink:href="#m219da94a98" y="189.675"/>
      </g>
     </g>
     <g id="line2d_64">
      <g>
       <use style="fill:#262626;stroke:#262626;" x="1093.69325658" xlink:href="#m219da94a98" y="30.2"/>
      </g>
     </g>
     <g id="text_15">
      <!-- 5 -->
      <g style="fill:#262626;" transform="translate(1088.95106908 211.16875)scale(0.2 -0.2)">
       <use xlink:href="#LiberationSans-35"/>
      </g>
     </g>
    </g>
   </g>
   <g id="matplotlib.axis_4">
    <g id="ytick_6">
     <g id="line2d_65">
      <path clip-path="url(#pd332633f72)" d="
M645.543 189.675
L1213.2 189.675" style="fill:none;stroke:#ffffff;stroke-linecap:round;"/>
     </g>
     <g id="line2d_66">
      <g>
       <use style="fill:#262626;stroke:#262626;" x="645.54296875" xlink:href="#m219da94a98" y="189.675"/>
      </g>
     </g>
     <g id="line2d_67">
      <g>
       <use style="fill:#262626;stroke:#262626;" x="1213.2" xlink:href="#m219da94a98" y="189.675"/>
      </g>
     </g>
     <g id="text_16">
      <!-- 0 -->
      <g style="fill:#262626;" transform="translate(628.98359375 194.846875)scale(0.2 -0.2)">
       <use xlink:href="#LiberationSans-30"/>
      </g>
     </g>
    </g>
    <g id="ytick_7">
     <g id="line2d_68">
      <path clip-path="url(#pd332633f72)" d="
M645.543 149.806
L1213.2 149.806" style="fill:none;stroke:#ffffff;stroke-linecap:round;"/>
     </g>
     <g id="line2d_69">
      <g>
       <use style="fill:#262626;stroke:#262626;" x="645.54296875" xlink:href="#m219da94a98" y="149.80625"/>
      </g>
     </g>
     <g id="line2d_70">
      <g>
       <use style="fill:#262626;stroke:#262626;" x="1213.2" xlink:href="#m219da94a98" y="149.80625"/>
      </g>
     </g>
     <g id="text_17">
      <!-- 5 -->
      <g style="fill:#262626;" transform="translate(629.05859375 154.978125)scale(0.2 -0.2)">
       <use xlink:href="#LiberationSans-35"/>
      </g>
     </g>
    </g>
    <g id="ytick_8">
     <g id="line2d_71">
      <path clip-path="url(#pd332633f72)" d="
M645.543 109.938
L1213.2 109.938" style="fill:none;stroke:#ffffff;stroke-linecap:round;"/>
     </g>
     <g id="line2d_72">
      <g>
       <use style="fill:#262626;stroke:#262626;" x="645.54296875" xlink:href="#m219da94a98" y="109.9375"/>
      </g>
     </g>
     <g id="line2d_73">
      <g>
       <use style="fill:#262626;stroke:#262626;" x="1213.2" xlink:href="#m219da94a98" y="109.9375"/>
      </g>
     </g>
     <g id="text_18">
      <!-- 10 -->
      <g style="fill:#262626;" transform="translate(618.60546875 115.109375)scale(0.2 -0.2)">
       <use xlink:href="#LiberationSans-31"/>
       <use x="55.615234375" xlink:href="#LiberationSans-30"/>
      </g>
     </g>
    </g>
    <g id="ytick_9">
     <g id="line2d_74">
      <path clip-path="url(#pd332633f72)" d="
M645.543 70.0688
L1213.2 70.0688" style="fill:none;stroke:#ffffff;stroke-linecap:round;"/>
     </g>
     <g id="line2d_75">
      <g>
       <use style="fill:#262626;stroke:#262626;" x="645.54296875" xlink:href="#m219da94a98" y="70.06875"/>
      </g>
     </g>
     <g id="line2d_76">
      <g>
       <use style="fill:#262626;stroke:#262626;" x="1213.2" xlink:href="#m219da94a98" y="70.06875"/>
      </g>
     </g>
     <g id="text_19">
      <!-- 15 -->
      <g style="fill:#262626;" transform="translate(618.66171875 75.240625)scale(0.2 -0.2)">
       <use xlink:href="#LiberationSans-31"/>
       <use x="55.615234375" xlink:href="#LiberationSans-35"/>
      </g>
     </g>
    </g>
    <g id="ytick_10">
     <g id="line2d_77">
      <path clip-path="url(#pd332633f72)" d="
M645.543 30.2
L1213.2 30.2" style="fill:none;stroke:#ffffff;stroke-linecap:round;"/>
     </g>
     <g id="line2d_78">
      <g>
       <use style="fill:#262626;stroke:#262626;" x="645.54296875" xlink:href="#m219da94a98" y="30.2"/>
      </g>
     </g>
     <g id="line2d_79">
      <g>
       <use style="fill:#262626;stroke:#262626;" x="1213.2" xlink:href="#m219da94a98" y="30.2"/>
      </g>
     </g>
     <g id="text_20">
      <!-- 20 -->
      <g style="fill:#262626;" transform="translate(618.08671875 35.371875)scale(0.2 -0.2)">
       <use xlink:href="#LiberationSans-32"/>
       <use x="55.615234375" xlink:href="#LiberationSans-30"/>
      </g>
     </g>
    </g>
   </g>
   <g id="line2d_80">
    <g clip-path="url(#pd332633f72)">
     <use style="fill:#0000ff;" x="645.54296875" xlink:href="#m1709273626" y="65.6450146648"/>
     <use style="fill:#0000ff;" x="675.419654605" xlink:href="#m1709273626" y="95.4122111452"/>
     <use style="fill:#0000ff;" x="705.296340461" xlink:href="#m1709273626" y="118.03528047"/>
     <use style="fill:#0000ff;" x="735.173026316" xlink:href="#m1709273626" y="135.228813157"/>
     <use style="fill:#0000ff;" x="765.049712171" xlink:href="#m1709273626" y="148.295898"/>
     <use style="fill:#0000ff;" x="794.926398026" xlink:href="#m1709273626" y="158.22688248"/>
     <use style="fill:#0000ff;" x="824.803083882" xlink:href="#m1709273626" y="165.774430685"/>
     <use style="fill:#0000ff;" x="854.679769737" xlink:href="#m1709273626" y="171.51056732"/>
     <use style="fill:#0000ff;" x="884.556455592" xlink:href="#m1709273626" y="175.870031163"/>
     <use style="fill:#0000ff;" x="914.433141447" xlink:href="#m1709273626" y="179.183223684"/>
     <use style="fill:#0000ff;" x="944.309827303" xlink:href="#m1709273626" y="181.70125"/>
     <use style="fill:#0000ff;" x="974.186513158" xlink:href="#m1709273626" y="183.61495"/>
     <use style="fill:#0000ff;" x="1004.06319901" xlink:href="#m1709273626" y="185.069362"/>
     <use style="fill:#0000ff;" x="1033.93988487" xlink:href="#m1709273626" y="186.17471512"/>
     <use style="fill:#0000ff;" x="1063.81657072" xlink:href="#m1709273626" y="187.014783491"/>
     <use style="fill:#0000ff;" x="1093.69325658" xlink:href="#m1709273626" y="187.653235453"/>
     <use style="fill:#0000ff;" x="1123.56994243" xlink:href="#m1709273626" y="188.138458945"/>
     <use style="fill:#0000ff;" x="1153.44662829" xlink:href="#m1709273626" y="188.507228798"/>
     <use style="fill:#0000ff;" x="1183.32331414" xlink:href="#m1709273626" y="188.787493886"/>
     <use style="fill:#0000ff;" x="1213.2" xlink:href="#m1709273626" y="189.000495354"/>
    </g>
   </g>
   <g id="line2d_81">
    <path clip-path="url(#pd332633f72)" d="
M645.543 189.675
L645.543 65.645" style="fill:none;stroke:#0000ff;stroke-linecap:round;stroke-width:1.75;"/>
   </g>
   <g id="line2d_82">
    <path clip-path="url(#pd332633f72)" d="
M675.42 189.675
L675.42 95.4122" style="fill:none;stroke:#0000ff;stroke-linecap:round;stroke-width:1.75;"/>
   </g>
   <g id="line2d_83">
    <path clip-path="url(#pd332633f72)" d="
M705.296 189.675
L705.296 118.035" style="fill:none;stroke:#0000ff;stroke-linecap:round;stroke-width:1.75;"/>
   </g>
   <g id="line2d_84">
    <path clip-path="url(#pd332633f72)" d="
M735.173 189.675
L735.173 135.229" style="fill:none;stroke:#0000ff;stroke-linecap:round;stroke-width:1.75;"/>
   </g>
   <g id="line2d_85">
    <path clip-path="url(#pd332633f72)" d="
M765.05 189.675
L765.05 148.296" style="fill:none;stroke:#0000ff;stroke-linecap:round;stroke-width:1.75;"/>
   </g>
   <g id="line2d_86">
    <path clip-path="url(#pd332633f72)" d="
M794.926 189.675
L794.926 158.227" style="fill:none;stroke:#0000ff;stroke-linecap:round;stroke-width:1.75;"/>
   </g>
   <g id="line2d_87">
    <path clip-path="url(#pd332633f72)" d="
M824.803 189.675
L824.803 165.774" style="fill:none;stroke:#0000ff;stroke-linecap:round;stroke-width:1.75;"/>
   </g>
   <g id="line2d_88">
    <path clip-path="url(#pd332633f72)" d="
M854.68 189.675
L854.68 171.511" style="fill:none;stroke:#0000ff;stroke-linecap:round;stroke-width:1.75;"/>
   </g>
   <g id="line2d_89">
    <path clip-path="url(#pd332633f72)" d="
M884.556 189.675
L884.556 175.87" style="fill:none;stroke:#0000ff;stroke-linecap:round;stroke-width:1.75;"/>
   </g>
   <g id="line2d_90">
    <path clip-path="url(#pd332633f72)" d="
M914.433 189.675
L914.433 179.183" style="fill:none;stroke:#0000ff;stroke-linecap:round;stroke-width:1.75;"/>
   </g>
   <g id="line2d_91">
    <path clip-path="url(#pd332633f72)" d="
M944.31 189.675
L944.31 181.701" style="fill:none;stroke:#0000ff;stroke-linecap:round;stroke-width:1.75;"/>
   </g>
   <g id="line2d_92">
    <path clip-path="url(#pd332633f72)" d="
M974.187 189.675
L974.187 183.615" style="fill:none;stroke:#0000ff;stroke-linecap:round;stroke-width:1.75;"/>
   </g>
   <g id="line2d_93">
    <path clip-path="url(#pd332633f72)" d="
M1004.06 189.675
L1004.06 185.069" style="fill:none;stroke:#0000ff;stroke-linecap:round;stroke-width:1.75;"/>
   </g>
   <g id="line2d_94">
    <path clip-path="url(#pd332633f72)" d="
M1033.94 189.675
L1033.94 186.175" style="fill:none;stroke:#0000ff;stroke-linecap:round;stroke-width:1.75;"/>
   </g>
   <g id="line2d_95">
    <path clip-path="url(#pd332633f72)" d="
M1063.82 189.675
L1063.82 187.015" style="fill:none;stroke:#0000ff;stroke-linecap:round;stroke-width:1.75;"/>
   </g>
   <g id="line2d_96">
    <path clip-path="url(#pd332633f72)" d="
M1093.69 189.675
L1093.69 187.653" style="fill:none;stroke:#0000ff;stroke-linecap:round;stroke-width:1.75;"/>
   </g>
   <g id="line2d_97">
    <path clip-path="url(#pd332633f72)" d="
M1123.57 189.675
L1123.57 188.138" style="fill:none;stroke:#0000ff;stroke-linecap:round;stroke-width:1.75;"/>
   </g>
   <g id="line2d_98">
    <path clip-path="url(#pd332633f72)" d="
M1153.45 189.675
L1153.45 188.507" style="fill:none;stroke:#0000ff;stroke-linecap:round;stroke-width:1.75;"/>
   </g>
   <g id="line2d_99">
    <path clip-path="url(#pd332633f72)" d="
M1183.32 189.675
L1183.32 188.787" style="fill:none;stroke:#0000ff;stroke-linecap:round;stroke-width:1.75;"/>
   </g>
   <g id="line2d_100">
    <path clip-path="url(#pd332633f72)" d="
M1213.2 189.675
L1213.2 189" style="fill:none;stroke:#0000ff;stroke-linecap:round;stroke-width:1.75;"/>
   </g>
   <g id="line2d_101">
    <path clip-path="url(#pd332633f72)" d="
M645.543 189.675
L1213.2 189.675" style="fill:none;stroke:#ff0000;stroke-linecap:round;stroke-width:1.75;"/>
   </g>
   <g id="patch_8">
    <path d="
M645.543 30.2
L1213.2 30.2" style="fill:none;"/>
   </g>
   <g id="patch_9">
    <path d="
M1213.2 189.675
L1213.2 30.2" style="fill:none;"/>
   </g>
   <g id="patch_10">
    <path d="
M645.543 189.675
L1213.2 189.675" style="fill:none;"/>
   </g>
   <g id="patch_11">
    <path d="
M645.543 189.675
L645.543 30.2" style="fill:none;"/>
   </g>
   <g id="text_21">
    <!-- Exponentially growing signal -->
    <g style="fill:#262626;" transform="translate(803.860546875 25.2)scale(0.2 -0.2)">
     <use xlink:href="#LiberationSans-45"/>
     <use x="66.69921875" xlink:href="#LiberationSans-78"/>
     <use x="116.69921875" xlink:href="#LiberationSans-70"/>
     <use x="172.314453125" xlink:href="#LiberationSans-6f"/>
     <use x="227.9296875" xlink:href="#LiberationSans-6e"/>
     <use x="283.544921875" xlink:href="#LiberationSans-65"/>
     <use x="339.16015625" xlink:href="#LiberationSans-6e"/>
     <use x="394.775390625" xlink:href="#LiberationSans-74"/>
     <use x="422.55859375" xlink:href="#LiberationSans-69"/>
     <use x="444.775390625" xlink:href="#LiberationSans-61"/>
     <use x="500.390625" xlink:href="#LiberationSans-6c"/>
     <use x="522.607421875" xlink:href="#LiberationSans-6c"/>
     <use x="544.82421875" xlink:href="#LiberationSans-79"/>
     <use x="594.82421875" xlink:href="#LiberationSans-20"/>
     <use x="622.607421875" xlink:href="#LiberationSans-67"/>
     <use x="678.22265625" xlink:href="#LiberationSans-72"/>
     <use x="711.5234375" xlink:href="#LiberationSans-6f"/>
     <use x="767.138671875" xlink:href="#LiberationSans-77"/>
     <use x="839.35546875" xlink:href="#LiberationSans-69"/>
     <use x="861.572265625" xlink:href="#LiberationSans-6e"/>
     <use x="917.1875" xlink:href="#LiberationSans-67"/>
     <use x="972.802734375" xlink:href="#LiberationSans-20"/>
     <use x="1000.5859375" xlink:href="#LiberationSans-73"/>
     <use x="1050.5859375" xlink:href="#LiberationSans-69"/>
     <use x="1072.80273438" xlink:href="#LiberationSans-67"/>
     <use x="1128.41796875" xlink:href="#LiberationSans-6e"/>
     <use x="1184.03320312" xlink:href="#LiberationSans-61"/>
     <use x="1239.6484375" xlink:href="#LiberationSans-6c"/>
    </g>
   </g>
   <g id="legend_2">
    <g id="line2d_102">
     <g>
      <use style="fill:#0000ff;" x="1081.7" xlink:href="#m1709273626" y="58.7859375"/>
     </g>
    </g>
    <g id="line2d_103">
     <path d="
M1081.7 70.8172
L1081.7 58.7859" style="fill:none;stroke:#0000ff;stroke-linecap:round;stroke-width:1.75;"/>
    </g>
    <g id="line2d_104">
     <path d="
M1056.7 70.8172
L1106.7 70.8172" style="fill:none;stroke:#ff0000;stroke-linecap:round;stroke-width:1.75;"/>
    </g>
    <g id="text_22">
     <!-- $0.76^n$ -->
     <defs>
      <path d="
M25 -2.20312
Q12.75 -2.20312 8.32812 7.875
Q3.90625 17.9688 3.90625 31.8906
Q3.90625 40.5781 5.48438 48.2344
Q7.07812 55.9062 11.7812 61.25
Q16.5 66.6094 25 66.6094
Q31.5938 66.6094 35.7812 63.375
Q39.9844 60.1562 42.1875 55.0469
Q44.3906 49.9531 45.1875 44.1094
Q46 38.2812 46 31.8906
Q46 23.2969 44.4062 15.7969
Q42.8281 8.29688 38.1875 3.04688
Q33.5469 -2.20312 25 -2.20312
M25 0.390625
Q30.5625 0.390625 33.2969 6.09375
Q36.0312 11.8125 36.6719 18.75
Q37.3125 25.6875 37.3125 33.5
Q37.3125 41.0156 36.6719 47.3594
Q36.0312 53.7188 33.3125 58.8594
Q30.6094 64.0156 25 64.0156
Q19.3438 64.0156 16.6094 58.8281
Q13.875 53.6562 13.2344 47.3281
Q12.5938 41.0156 12.5938 33.5
Q12.5938 27.9375 12.8594 23
Q13.1406 18.0625 14.3125 12.8125
Q15.4844 7.5625 18.0938 3.96875
Q20.7031 0.390625 25 0.390625" id="Cmr10-30"/>
      <path d="
M25 -2.20312
Q18.7969 -2.20312 14.6406 1.09375
Q10.5 4.39062 8.21875 9.64062
Q5.95312 14.8906 5.07812 20.6562
Q4.20312 26.4219 4.20312 32.3281
Q4.20312 40.2344 7.28125 48.1875
Q10.3594 56.1562 16.3281 61.375
Q22.3125 66.6094 30.5156 66.6094
Q33.9375 66.6094 36.8906 65.3125
Q39.8438 64.0156 41.5312 61.5
Q43.2188 58.9844 43.2188 55.4219
Q43.2188 53.375 41.8281 51.9844
Q40.4375 50.5938 38.375 50.5938
Q36.4219 50.5938 35 52
Q33.5938 53.4219 33.5938 55.4219
Q33.5938 57.375 35 58.7812
Q36.4219 60.2031 38.375 60.2031
L38.9219 60.2031
Q37.6406 62.0156 35.3281 62.8594
Q33.0156 63.7188 30.5156 63.7188
Q27.4844 63.7188 24.9219 62.3906
Q22.3594 61.0781 20.3125 58.8281
Q18.2656 56.5938 16.8906 53.875
Q15.5312 51.1719 14.7656 47.7031
Q14.0156 44.2344 13.8125 41.2031
Q13.625 38.1875 13.625 33.5938
Q15.375 37.7031 18.5938 40.3125
Q21.8281 42.9219 25.875 42.9219
Q30.3281 42.9219 33.9844 41.1094
Q37.6406 39.3125 40.2812 36.1094
Q42.9219 32.9062 44.3125 28.7969
Q45.7031 24.7031 45.7031 20.5156
Q45.7031 14.6562 43.0938 9.34375
Q40.4844 4.04688 35.7344 0.921875
Q31 -2.20312 25 -2.20312
M25 0.984375
Q28.8594 0.984375 31.2031 2.73438
Q33.5469 4.5 34.6406 7.39062
Q35.75 10.2969 36.0156 13.25
Q36.2812 16.2188 36.2812 20.5156
Q36.2812 26.1719 35.7344 30.1719
Q35.2031 34.1875 32.8125 37.2344
Q30.4219 40.2812 25.4844 40.2812
Q21.4375 40.2812 18.8281 37.5469
Q16.2188 34.8125 15.0156 30.6406
Q13.8125 26.4688 13.8125 22.6094
Q13.8125 21.2969 13.9219 20.6094
Q13.9219 20.4531 13.8906 20.3594
Q13.875 20.2656 13.8125 20.125
Q13.8125 15.8281 14.6875 11.4219
Q15.5781 7.03125 18.0625 4
Q20.5625 0.984375 25 0.984375" id="Cmr10-36"/>
     </defs>
     <g style="fill:#262626;" transform="translate(1126.7 70.8171875)scale(0.25 -0.25)">
      <use transform="translate(0.0 0.553125)" xlink:href="#Cmr10-30"/>
      <use transform="translate(50.0 0.553125)" xlink:href="#Cmmi10-3a"/>
      <use transform="translate(78.54296875 0.553125)" xlink:href="#Cmr10-37"/>
      <use transform="translate(128.54296875 0.553125)" xlink:href="#Cmr10-36"/>
      <use transform="translate(178.54296875 43.06875)scale(0.7)" xlink:href="#Cmmi10-6e"/>
     </g>
    </g>
   </g>
  </g>
  <g id="axes_3">
   <g id="patch_12">
    <path d="
M39.0906 395.3
L606.748 395.3
L606.748 235.825
L39.0906 235.825
z
" style="fill:#eaeaf2;"/>
   </g>
   <g id="matplotlib.axis_5">
    <g id="xtick_9">
     <g id="line2d_105">
      <path clip-path="url(#p8a02e65023)" d="
M39.0906 395.3
L39.0906 235.825" style="fill:none;stroke:#ffffff;stroke-linecap:round;"/>
     </g>
     <g id="line2d_106">
      <g>
       <use style="fill:#262626;stroke:#262626;" x="39.090625" xlink:href="#m219da94a98" y="395.3"/>
      </g>
     </g>
     <g id="line2d_107">
      <g>
       <use style="fill:#262626;stroke:#262626;" x="39.090625" xlink:href="#m219da94a98" y="235.825"/>
      </g>
     </g>
     <g id="text_23">
      <!-- −10 -->
      <g style="fill:#262626;" transform="translate(23.0125 416.79375)scale(0.2 -0.2)">
       <use xlink:href="#LiberationSans-2212"/>
       <use x="58.3984375" xlink:href="#LiberationSans-31"/>
       <use x="114.013671875" xlink:href="#LiberationSans-30"/>
      </g>
     </g>
    </g>
    <g id="xtick_10">
     <g id="line2d_108">
      <path clip-path="url(#p8a02e65023)" d="
M188.474 395.3
L188.474 235.825" style="fill:none;stroke:#ffffff;stroke-linecap:round;"/>
     </g>
     <g id="line2d_109">
      <g>
       <use style="fill:#262626;stroke:#262626;" x="188.474054276" xlink:href="#m219da94a98" y="395.3"/>
      </g>
     </g>
     <g id="line2d_110">
      <g>
       <use style="fill:#262626;stroke:#262626;" x="188.474054276" xlink:href="#m219da94a98" y="235.825"/>
      </g>
     </g>
     <g id="text_24">
      <!-- −5 -->
      <g style="fill:#262626;" transform="translate(177.984991776 416.79375)scale(0.2 -0.2)">
       <use xlink:href="#LiberationSans-2212"/>
       <use x="58.3984375" xlink:href="#LiberationSans-35"/>
      </g>
     </g>
    </g>
    <g id="xtick_11">
     <g id="line2d_111">
      <path clip-path="url(#p8a02e65023)" d="
M337.857 395.3
L337.857 235.825" style="fill:none;stroke:#ffffff;stroke-linecap:round;"/>
     </g>
     <g id="line2d_112">
      <g>
       <use style="fill:#262626;stroke:#262626;" x="337.857483553" xlink:href="#m219da94a98" y="395.3"/>
      </g>
     </g>
     <g id="line2d_113">
      <g>
       <use style="fill:#262626;stroke:#262626;" x="337.857483553" xlink:href="#m219da94a98" y="235.825"/>
      </g>
     </g>
     <g id="text_25">
      <!-- 0 -->
      <g style="fill:#262626;" transform="translate(333.077796053 416.79375)scale(0.2 -0.2)">
       <use xlink:href="#LiberationSans-30"/>
      </g>
     </g>
    </g>
    <g id="xtick_12">
     <g id="line2d_114">
      <path clip-path="url(#p8a02e65023)" d="
M487.241 395.3
L487.241 235.825" style="fill:none;stroke:#ffffff;stroke-linecap:round;"/>
     </g>
     <g id="line2d_115">
      <g>
       <use style="fill:#262626;stroke:#262626;" x="487.240912829" xlink:href="#m219da94a98" y="395.3"/>
      </g>
     </g>
     <g id="line2d_116">
      <g>
       <use style="fill:#262626;stroke:#262626;" x="487.240912829" xlink:href="#m219da94a98" y="235.825"/>
      </g>
     </g>
     <g id="text_26">
      <!-- 5 -->
      <g style="fill:#262626;" transform="translate(482.498725329 416.79375)scale(0.2 -0.2)">
       <use xlink:href="#LiberationSans-35"/>
      </g>
     </g>
    </g>
   </g>
   <g id="matplotlib.axis_6">
    <g id="ytick_11">
     <g id="line2d_117">
      <path clip-path="url(#p8a02e65023)" d="
M39.0906 386.44
L606.748 386.44" style="fill:none;stroke:#ffffff;stroke-linecap:round;"/>
     </g>
     <g id="line2d_118">
      <g>
       <use style="fill:#262626;stroke:#262626;" x="39.090625" xlink:href="#m219da94a98" y="386.440277778"/>
      </g>
     </g>
     <g id="line2d_119">
      <g>
       <use style="fill:#262626;stroke:#262626;" x="606.74765625" xlink:href="#m219da94a98" y="386.440277778"/>
      </g>
     </g>
     <g id="text_27">
      <!-- −4 -->
      <defs>
       <path d="
M43.0156 15.5781
L43.0156 0
L34.7188 0
L34.7188 15.5781
L2.29688 15.5781
L2.29688 22.4062
L33.7969 68.7969
L43.0156 68.7969
L43.0156 22.5156
L52.6875 22.5156
L52.6875 15.5781
z

M34.7188 58.8906
Q34.625 58.6406 34.2344 57.9375
Q33.8438 57.2344 33.3438 56.3438
Q32.8594 55.4688 32.3438 54.5625
Q31.8438 53.6562 31.4531 53.0781
L13.8125 27.0938
Q13.5781 26.7031 13.1094 26.0625
Q12.6406 25.4375 12.1562 24.7812
Q11.6719 24.125 11.1719 23.4844
Q10.6875 22.8594 10.4062 22.5156
L34.7188 22.5156
z
" id="LiberationSans-34"/>
      </defs>
      <g style="fill:#262626;" transform="translate(10.859375 391.612152778)scale(0.2 -0.2)">
       <use xlink:href="#LiberationSans-2212"/>
       <use x="58.3984375" xlink:href="#LiberationSans-34"/>
      </g>
     </g>
    </g>
    <g id="ytick_12">
     <g id="line2d_120">
      <path clip-path="url(#p8a02e65023)" d="
M39.0906 351.001
L606.748 351.001" style="fill:none;stroke:#ffffff;stroke-linecap:round;"/>
     </g>
     <g id="line2d_121">
      <g>
       <use style="fill:#262626;stroke:#262626;" x="39.090625" xlink:href="#m219da94a98" y="351.001388889"/>
      </g>
     </g>
     <g id="line2d_122">
      <g>
       <use style="fill:#262626;stroke:#262626;" x="606.74765625" xlink:href="#m219da94a98" y="351.001388889"/>
      </g>
     </g>
     <g id="text_28">
      <!-- −2 -->
      <g style="fill:#262626;" transform="translate(11.278125 356.173263889)scale(0.2 -0.2)">
       <use xlink:href="#LiberationSans-2212"/>
       <use x="58.3984375" xlink:href="#LiberationSans-32"/>
      </g>
     </g>
    </g>
    <g id="ytick_13">
     <g id="line2d_123">
      <path clip-path="url(#p8a02e65023)" d="
M39.0906 315.562
L606.748 315.562" style="fill:none;stroke:#ffffff;stroke-linecap:round;"/>
     </g>
     <g id="line2d_124">
      <g>
       <use style="fill:#262626;stroke:#262626;" x="39.090625" xlink:href="#m219da94a98" y="315.5625"/>
      </g>
     </g>
     <g id="line2d_125">
      <g>
       <use style="fill:#262626;stroke:#262626;" x="606.74765625" xlink:href="#m219da94a98" y="315.5625"/>
      </g>
     </g>
     <g id="text_29">
      <!-- 0 -->
      <g style="fill:#262626;" transform="translate(22.53125 320.734375)scale(0.2 -0.2)">
       <use xlink:href="#LiberationSans-30"/>
      </g>
     </g>
    </g>
    <g id="ytick_14">
     <g id="line2d_126">
      <path clip-path="url(#p8a02e65023)" d="
M39.0906 280.124
L606.748 280.124" style="fill:none;stroke:#ffffff;stroke-linecap:round;"/>
     </g>
     <g id="line2d_127">
      <g>
       <use style="fill:#262626;stroke:#262626;" x="39.090625" xlink:href="#m219da94a98" y="280.123611111"/>
      </g>
     </g>
     <g id="line2d_128">
      <g>
       <use style="fill:#262626;stroke:#262626;" x="606.74765625" xlink:href="#m219da94a98" y="280.123611111"/>
      </g>
     </g>
     <g id="text_30">
      <!-- 2 -->
      <g style="fill:#262626;" transform="translate(22.978125 285.295486111)scale(0.2 -0.2)">
       <use xlink:href="#LiberationSans-32"/>
      </g>
     </g>
    </g>
    <g id="ytick_15">
     <g id="line2d_129">
      <path clip-path="url(#p8a02e65023)" d="
M39.0906 244.685
L606.748 244.685" style="fill:none;stroke:#ffffff;stroke-linecap:round;"/>
     </g>
     <g id="line2d_130">
      <g>
       <use style="fill:#262626;stroke:#262626;" x="39.090625" xlink:href="#m219da94a98" y="244.684722222"/>
      </g>
     </g>
     <g id="line2d_131">
      <g>
       <use style="fill:#262626;stroke:#262626;" x="606.74765625" xlink:href="#m219da94a98" y="244.684722222"/>
      </g>
     </g>
     <g id="text_31">
      <!-- 4 -->
      <g style="fill:#262626;" transform="translate(22.0125 249.856597222)scale(0.2 -0.2)">
       <use xlink:href="#LiberationSans-34"/>
      </g>
     </g>
    </g>
   </g>
   <g id="line2d_132">
    <g clip-path="url(#p8a02e65023)">
     <use style="fill:#0000ff;" x="39.090625" xlink:href="#m1709273626" y="315.354911105"/>
     <use style="fill:#0000ff;" x="68.9673108553" xlink:href="#m1709273626" y="315.886338677"/>
     <use style="fill:#0000ff;" x="98.8439967105" xlink:href="#m1709273626" y="315.057311664"/>
     <use style="fill:#0000ff;" x="128.720682566" xlink:href="#m1709273626" y="316.350593804"/>
     <use style="fill:#0000ff;" x="158.597368421" xlink:href="#m1709273626" y="314.333073666"/>
     <use style="fill:#0000ff;" x="188.474054276" xlink:href="#m1709273626" y="317.480405081"/>
     <use style="fill:#0000ff;" x="218.350740132" xlink:href="#m1709273626" y="312.570568074"/>
     <use style="fill:#0000ff;" x="248.227425987" xlink:href="#m1709273626" y="320.229913804"/>
     <use style="fill:#0000ff;" x="278.104111842" xlink:href="#m1709273626" y="308.281334466"/>
     <use style="fill:#0000ff;" x="307.980797697" xlink:href="#m1709273626" y="326.921118234"/>
     <use style="fill:#0000ff;" x="337.857483553" xlink:href="#m1709273626" y="297.843055556"/>
     <use style="fill:#0000ff;" x="367.734169408" xlink:href="#m1709273626" y="343.204833333"/>
     <use style="fill:#0000ff;" x="397.610855263" xlink:href="#m1709273626" y="272.44046"/>
     <use style="fill:#0000ff;" x="427.487541118" xlink:href="#m1709273626" y="382.8328824"/>
     <use style="fill:#0000ff;" x="457.364226974" xlink:href="#m1709273626" y="210.620703456"/>
     <use style="fill:#0000ff;" x="487.240912829" xlink:href="#m1709273626" y="479.271702609"/>
     <use style="fill:#0000ff;" x="517.117598684" xlink:href="#m1709273626" y="60.1761439305"/>
     <use style="fill:#0000ff;" x="546.994284539" xlink:href="#m1709273626" y="713.965215468"/>
     <use style="fill:#0000ff;" x="567.938065079" xlink:href="#m1709273626" y="-1.0"/>
     <use style="fill:#0000ff;" x="582.597191751" xlink:href="#m1709273626" y="-1.0"/>
     <use style="fill:#0000ff;" x="606.74765625" xlink:href="#m1709273626" y="1285.11534836"/>
    </g>
   </g>
   <g id="line2d_133">
    <path clip-path="url(#p8a02e65023)" d="
M39.0906 315.562
L39.0906 315.355" style="fill:none;stroke:#0000ff;stroke-linecap:round;stroke-width:1.75;"/>
   </g>
   <g id="line2d_134">
    <path clip-path="url(#p8a02e65023)" d="
M68.9673 315.562
L68.9673 315.886" style="fill:none;stroke:#0000ff;stroke-linecap:round;stroke-width:1.75;"/>
   </g>
   <g id="line2d_135">
    <path clip-path="url(#p8a02e65023)" d="
M98.844 315.562
L98.844 315.057" style="fill:none;stroke:#0000ff;stroke-linecap:round;stroke-width:1.75;"/>
   </g>
   <g id="line2d_136">
    <path clip-path="url(#p8a02e65023)" d="
M128.721 315.562
L128.721 316.351" style="fill:none;stroke:#0000ff;stroke-linecap:round;stroke-width:1.75;"/>
   </g>
   <g id="line2d_137">
    <path clip-path="url(#p8a02e65023)" d="
M158.597 315.562
L158.597 314.333" style="fill:none;stroke:#0000ff;stroke-linecap:round;stroke-width:1.75;"/>
   </g>
   <g id="line2d_138">
    <path clip-path="url(#p8a02e65023)" d="
M188.474 315.562
L188.474 317.48" style="fill:none;stroke:#0000ff;stroke-linecap:round;stroke-width:1.75;"/>
   </g>
   <g id="line2d_139">
    <path clip-path="url(#p8a02e65023)" d="
M218.351 315.562
L218.351 312.571" style="fill:none;stroke:#0000ff;stroke-linecap:round;stroke-width:1.75;"/>
   </g>
   <g id="line2d_140">
    <path clip-path="url(#p8a02e65023)" d="
M248.227 315.562
L248.227 320.23" style="fill:none;stroke:#0000ff;stroke-linecap:round;stroke-width:1.75;"/>
   </g>
   <g id="line2d_141">
    <path clip-path="url(#p8a02e65023)" d="
M278.104 315.562
L278.104 308.281" style="fill:none;stroke:#0000ff;stroke-linecap:round;stroke-width:1.75;"/>
   </g>
   <g id="line2d_142">
    <path clip-path="url(#p8a02e65023)" d="
M307.981 315.562
L307.981 326.921" style="fill:none;stroke:#0000ff;stroke-linecap:round;stroke-width:1.75;"/>
   </g>
   <g id="line2d_143">
    <path clip-path="url(#p8a02e65023)" d="
M337.857 315.562
L337.857 297.843" style="fill:none;stroke:#0000ff;stroke-linecap:round;stroke-width:1.75;"/>
   </g>
   <g id="line2d_144">
    <path clip-path="url(#p8a02e65023)" d="
M367.734 315.562
L367.734 343.205" style="fill:none;stroke:#0000ff;stroke-linecap:round;stroke-width:1.75;"/>
   </g>
   <g id="line2d_145">
    <path clip-path="url(#p8a02e65023)" d="
M397.611 315.562
L397.611 272.44" style="fill:none;stroke:#0000ff;stroke-linecap:round;stroke-width:1.75;"/>
   </g>
   <g id="line2d_146">
    <path clip-path="url(#p8a02e65023)" d="
M427.488 315.562
L427.488 382.833" style="fill:none;stroke:#0000ff;stroke-linecap:round;stroke-width:1.75;"/>
   </g>
   <g id="line2d_147">
    <path clip-path="url(#p8a02e65023)" d="
M457.364 315.562
L457.364 210.621" style="fill:none;stroke:#0000ff;stroke-linecap:round;stroke-width:1.75;"/>
   </g>
   <g id="line2d_148">
    <path clip-path="url(#p8a02e65023)" d="
M487.241 315.562
L487.241 433" style="fill:none;stroke:#0000ff;stroke-linecap:round;stroke-width:1.75;"/>
   </g>
   <g id="line2d_149">
    <path clip-path="url(#p8a02e65023)" d="
M517.118 315.562
L517.118 60.1761" style="fill:none;stroke:#0000ff;stroke-linecap:round;stroke-width:1.75;"/>
   </g>
   <g id="line2d_150">
    <path clip-path="url(#p8a02e65023)" d="
M546.994 315.562
L546.994 433" style="fill:none;stroke:#0000ff;stroke-linecap:round;stroke-width:1.75;"/>
   </g>
   <g id="line2d_151">
    <path clip-path="url(#p8a02e65023)" d="
M576.871 315.562
L576.871 -1" style="fill:none;stroke:#0000ff;stroke-linecap:round;stroke-width:1.75;"/>
   </g>
   <g id="line2d_152">
    <path clip-path="url(#p8a02e65023)" d="
M606.748 315.562
L606.748 433" style="fill:none;stroke:#0000ff;stroke-linecap:round;stroke-width:1.75;"/>
   </g>
   <g id="line2d_153">
    <path clip-path="url(#p8a02e65023)" d="
M39.0906 315.562
L606.748 315.562" style="fill:none;stroke:#ff0000;stroke-linecap:round;stroke-width:1.75;"/>
   </g>
   <g id="patch_13">
    <path d="
M39.0906 235.825
L606.748 235.825" style="fill:none;"/>
   </g>
   <g id="patch_14">
    <path d="
M606.748 395.3
L606.748 235.825" style="fill:none;"/>
   </g>
   <g id="patch_15">
    <path d="
M39.0906 395.3
L606.748 395.3" style="fill:none;"/>
   </g>
   <g id="patch_16">
    <path d="
M39.0906 395.3
L39.0906 235.825" style="fill:none;"/>
   </g>
   <g id="legend_3">
    <g id="line2d_154">
     <g>
      <use style="fill:#0000ff;" x="86.590625" xlink:href="#m1709273626" y="264.4109375"/>
     </g>
    </g>
    <g id="line2d_155">
     <path d="
M86.5906 276.442
L86.5906 264.411" style="fill:none;stroke:#0000ff;stroke-linecap:round;stroke-width:1.75;"/>
    </g>
    <g id="line2d_156">
     <path d="
M61.5906 276.442
L111.591 276.442" style="fill:none;stroke:#ff0000;stroke-linecap:round;stroke-width:1.75;"/>
    </g>
    <g id="text_32">
     <!-- $-1.56^n$ -->
     <defs>
      <path d="
M10.2031 23
Q9.375 23 8.82812 23.625
Q8.29688 24.2656 8.29688 25
Q8.29688 25.7344 8.82812 26.3594
Q9.375 27 10.2031 27
L67.5781 27
Q68.3594 27 68.875 26.3594
Q69.3906 25.7344 69.3906 25
Q69.3906 24.2656 68.875 23.625
Q68.3594 23 67.5781 23
z
" id="Cmsy10-a1"/>
      <path d="
M8.6875 11.375
Q9.71875 8.45312 11.8438 6.04688
Q13.9688 3.65625 16.875 2.3125
Q19.7812 0.984375 22.9062 0.984375
Q30.125 0.984375 32.8594 6.59375
Q35.5938 12.2031 35.5938 20.2188
Q35.5938 23.6875 35.4688 26.0469
Q35.3594 28.4219 34.8125 30.6094
Q33.8906 34.125 31.5625 36.7656
Q29.25 39.4062 25.875 39.4062
Q22.5156 39.4062 20.0938 38.375
Q17.6719 37.3594 16.1562 35.9844
Q14.6562 34.625 13.4844 33.1094
Q12.3125 31.5938 12.0156 31.5
L10.8906 31.5
Q10.6406 31.5 10.2656 31.8125
Q9.90625 32.125 9.90625 32.4219
L9.90625 65.8281
Q9.90625 66.0625 10.2188 66.3281
Q10.5469 66.6094 10.8906 66.6094
L11.1875 66.6094
Q17.9219 63.375 25.4844 63.375
Q32.9062 63.375 39.7969 66.6094
L40.0938 66.6094
Q40.4375 66.6094 40.7188 66.3594
Q41.0156 66.1094 41.0156 65.8281
L41.0156 64.8906
Q41.0156 64.4062 40.8281 64.4062
Q37.4062 59.8594 32.25 57.3125
Q27.0938 54.7812 21.5781 54.7812
Q17.5781 54.7812 13.375 55.9062
L13.375 37.0156
Q16.7031 39.7031 19.3125 40.8438
Q21.9219 42 25.9844 42
Q31.5 42 35.8594 38.8125
Q40.2344 35.6406 42.5781 30.5312
Q44.9219 25.4375 44.9219 20.125
Q44.9219 14.1094 41.9688 8.98438
Q39.0156 3.85938 33.9375 0.828125
Q28.8594 -2.20312 22.9062 -2.20312
Q17.9688 -2.20312 13.8438 0.328125
Q9.71875 2.875 7.34375 7.17188
Q4.98438 11.4688 4.98438 16.3125
Q4.98438 18.5625 6.4375 19.9688
Q7.90625 21.3906 10.1094 21.3906
Q12.3125 21.3906 13.7969 19.9375
Q15.2812 18.5 15.2812 16.3125
Q15.2812 14.1562 13.7969 12.6719
Q12.3125 11.1875 10.1094 11.1875
Q9.76562 11.1875 9.32812 11.25
Q8.89062 11.3281 8.6875 11.375" id="Cmr10-35"/>
     </defs>
     <g style="fill:#262626;" transform="translate(131.590625 276.4421875)scale(0.25 -0.25)">
      <use transform="translate(0.0 0.553125)" xlink:href="#Cmsy10-a1"/>
      <use transform="translate(77.685546875 0.553125)" xlink:href="#Cmr10-31"/>
      <use transform="translate(127.685546875 0.553125)" xlink:href="#Cmmi10-3a"/>
      <use transform="translate(156.228515625 0.553125)" xlink:href="#Cmr10-35"/>
      <use transform="translate(206.228515625 0.553125)" xlink:href="#Cmr10-36"/>
      <use transform="translate(256.228515625 43.06875)scale(0.7)" xlink:href="#Cmmi10-6e"/>
     </g>
    </g>
   </g>
  </g>
  <g id="axes_4">
   <g id="patch_17">
    <path d="
M645.543 395.3
L1213.2 395.3
L1213.2 235.825
L645.543 235.825
z
" style="fill:#eaeaf2;"/>
   </g>
   <g id="matplotlib.axis_7">
    <g id="xtick_13">
     <g id="line2d_157">
      <path clip-path="url(#pfad8245fe1)" d="
M645.543 395.3
L645.543 235.825" style="fill:none;stroke:#ffffff;stroke-linecap:round;"/>
     </g>
     <g id="line2d_158">
      <g>
       <use style="fill:#262626;stroke:#262626;" x="645.54296875" xlink:href="#m219da94a98" y="395.3"/>
      </g>
     </g>
     <g id="line2d_159">
      <g>
       <use style="fill:#262626;stroke:#262626;" x="645.54296875" xlink:href="#m219da94a98" y="235.825"/>
      </g>
     </g>
     <g id="text_33">
      <!-- −10 -->
      <g style="fill:#262626;" transform="translate(629.46484375 416.79375)scale(0.2 -0.2)">
       <use xlink:href="#LiberationSans-2212"/>
       <use x="58.3984375" xlink:href="#LiberationSans-31"/>
       <use x="114.013671875" xlink:href="#LiberationSans-30"/>
      </g>
     </g>
    </g>
    <g id="xtick_14">
     <g id="line2d_160">
      <path clip-path="url(#pfad8245fe1)" d="
M794.926 395.3
L794.926 235.825" style="fill:none;stroke:#ffffff;stroke-linecap:round;"/>
     </g>
     <g id="line2d_161">
      <g>
       <use style="fill:#262626;stroke:#262626;" x="794.926398026" xlink:href="#m219da94a98" y="395.3"/>
      </g>
     </g>
     <g id="line2d_162">
      <g>
       <use style="fill:#262626;stroke:#262626;" x="794.926398026" xlink:href="#m219da94a98" y="235.825"/>
      </g>
     </g>
     <g id="text_34">
      <!-- −5 -->
      <g style="fill:#262626;" transform="translate(784.437335526 416.79375)scale(0.2 -0.2)">
       <use xlink:href="#LiberationSans-2212"/>
       <use x="58.3984375" xlink:href="#LiberationSans-35"/>
      </g>
     </g>
    </g>
    <g id="xtick_15">
     <g id="line2d_163">
      <path clip-path="url(#pfad8245fe1)" d="
M944.31 395.3
L944.31 235.825" style="fill:none;stroke:#ffffff;stroke-linecap:round;"/>
     </g>
     <g id="line2d_164">
      <g>
       <use style="fill:#262626;stroke:#262626;" x="944.309827303" xlink:href="#m219da94a98" y="395.3"/>
      </g>
     </g>
     <g id="line2d_165">
      <g>
       <use style="fill:#262626;stroke:#262626;" x="944.309827303" xlink:href="#m219da94a98" y="235.825"/>
      </g>
     </g>
     <g id="text_35">
      <!-- 0 -->
      <g style="fill:#262626;" transform="translate(939.530139803 416.79375)scale(0.2 -0.2)">
       <use xlink:href="#LiberationSans-30"/>
      </g>
     </g>
    </g>
    <g id="xtick_16">
     <g id="line2d_166">
      <path clip-path="url(#pfad8245fe1)" d="
M1093.69 395.3
L1093.69 235.825" style="fill:none;stroke:#ffffff;stroke-linecap:round;"/>
     </g>
     <g id="line2d_167">
      <g>
       <use style="fill:#262626;stroke:#262626;" x="1093.69325658" xlink:href="#m219da94a98" y="395.3"/>
      </g>
     </g>
     <g id="line2d_168">
      <g>
       <use style="fill:#262626;stroke:#262626;" x="1093.69325658" xlink:href="#m219da94a98" y="235.825"/>
      </g>
     </g>
     <g id="text_36">
      <!-- 5 -->
      <g style="fill:#262626;" transform="translate(1088.95106908 416.79375)scale(0.2 -0.2)">
       <use xlink:href="#LiberationSans-35"/>
      </g>
     </g>
    </g>
   </g>
   <g id="matplotlib.axis_8">
    <g id="ytick_16">
     <g id="line2d_169">
      <path clip-path="url(#pfad8245fe1)" d="
M645.543 395.3
L1213.2 395.3" style="fill:none;stroke:#ffffff;stroke-linecap:round;"/>
     </g>
     <g id="line2d_170">
      <g>
       <use style="fill:#262626;stroke:#262626;" x="645.54296875" xlink:href="#m219da94a98" y="395.3"/>
      </g>
     </g>
     <g id="line2d_171">
      <g>
       <use style="fill:#262626;stroke:#262626;" x="1213.2" xlink:href="#m219da94a98" y="395.3"/>
      </g>
     </g>
     <g id="text_37">
      <!-- −3 -->
      <defs>
       <path d="
M51.2188 19
Q51.2188 14.2656 49.6719 10.5469
Q48.1406 6.84375 45.1875 4.26562
Q42.2344 1.70312 37.8594 0.359375
Q33.5 -0.984375 27.875 -0.984375
Q21.4844 -0.984375 17.1094 0.609375
Q12.75 2.20312 9.90625 4.8125
Q7.07812 7.42188 5.65625 10.7656
Q4.25 14.1094 3.8125 17.6719
L12.8906 18.5
Q13.2812 15.7656 14.3281 13.5156
Q15.375 11.2812 17.1875 9.67188
Q19 8.0625 21.625 7.17188
Q24.2656 6.29688 27.875 6.29688
Q34.5156 6.29688 38.2969 9.5625
Q42.0938 12.8438 42.0938 19.2812
Q42.0938 23.0938 40.4062 25.4062
Q38.7188 27.7344 36.2031 29.0312
Q33.6875 30.3281 30.7344 30.7656
Q27.7812 31.2031 25.2969 31.2031
L20.3125 31.2031
L20.3125 38.8125
L25.0938 38.8125
Q27.5938 38.8125 30.2656 39.3281
Q32.9531 39.8438 35.1719 41.1875
Q37.4062 42.5312 38.8438 44.8281
Q40.2812 47.125 40.2812 50.6875
Q40.2812 56.2031 37.0312 59.3906
Q33.7969 62.5938 27.3906 62.5938
Q21.5781 62.5938 17.9844 59.6094
Q14.4062 56.6406 13.8125 51.2188
L4.98438 51.9062
Q5.51562 56.4531 7.46875 59.8125
Q9.42188 63.1875 12.4219 65.4062
Q15.4375 67.625 19.2812 68.7188
Q23.1406 69.8281 27.4844 69.8281
Q33.25 69.8281 37.3906 68.375
Q41.5469 66.9375 44.1875 64.4688
Q46.8281 62.0156 48.0625 58.6875
Q49.3125 55.375 49.3125 51.6094
Q49.3125 48.5781 48.4844 45.9375
Q47.6562 43.3125 45.8906 41.2031
Q44.1406 39.1094 41.4219 37.5938
Q38.7188 36.0781 34.9062 35.2969
L34.9062 35.1094
Q39.0625 34.6719 42.1406 33.2188
Q45.2188 31.7812 47.2188 29.625
Q49.2188 27.4844 50.2188 24.75
Q51.2188 22.0156 51.2188 19" id="LiberationSans-33"/>
      </defs>
      <g style="fill:#262626;" transform="translate(617.60546875 400.471875)scale(0.2 -0.2)">
       <use xlink:href="#LiberationSans-2212"/>
       <use x="58.3984375" xlink:href="#LiberationSans-33"/>
      </g>
     </g>
    </g>
    <g id="ytick_17">
     <g id="line2d_172">
      <path clip-path="url(#pfad8245fe1)" d="
M645.543 368.721
L1213.2 368.721" style="fill:none;stroke:#ffffff;stroke-linecap:round;"/>
     </g>
     <g id="line2d_173">
      <g>
       <use style="fill:#262626;stroke:#262626;" x="645.54296875" xlink:href="#m219da94a98" y="368.720833333"/>
      </g>
     </g>
     <g id="line2d_174">
      <g>
       <use style="fill:#262626;stroke:#262626;" x="1213.2" xlink:href="#m219da94a98" y="368.720833333"/>
      </g>
     </g>
     <g id="text_38">
      <!-- −2 -->
      <g style="fill:#262626;" transform="translate(617.73046875 373.892708333)scale(0.2 -0.2)">
       <use xlink:href="#LiberationSans-2212"/>
       <use x="58.3984375" xlink:href="#LiberationSans-32"/>
      </g>
     </g>
    </g>
    <g id="ytick_18">
     <g id="line2d_175">
      <path clip-path="url(#pfad8245fe1)" d="
M645.543 342.142
L1213.2 342.142" style="fill:none;stroke:#ffffff;stroke-linecap:round;"/>
     </g>
     <g id="line2d_176">
      <g>
       <use style="fill:#262626;stroke:#262626;" x="645.54296875" xlink:href="#m219da94a98" y="342.141666667"/>
      </g>
     </g>
     <g id="line2d_177">
      <g>
       <use style="fill:#262626;stroke:#262626;" x="1213.2" xlink:href="#m219da94a98" y="342.141666667"/>
      </g>
     </g>
     <g id="text_39">
      <!-- −1 -->
      <g style="fill:#262626;" transform="translate(617.70234375 347.313541667)scale(0.2 -0.2)">
       <use xlink:href="#LiberationSans-2212"/>
       <use x="58.3984375" xlink:href="#LiberationSans-31"/>
      </g>
     </g>
    </g>
    <g id="ytick_19">
     <g id="line2d_178">
      <path clip-path="url(#pfad8245fe1)" d="
M645.543 315.562
L1213.2 315.562" style="fill:none;stroke:#ffffff;stroke-linecap:round;"/>
     </g>
     <g id="line2d_179">
      <g>
       <use style="fill:#262626;stroke:#262626;" x="645.54296875" xlink:href="#m219da94a98" y="315.5625"/>
      </g>
     </g>
     <g id="line2d_180">
      <g>
       <use style="fill:#262626;stroke:#262626;" x="1213.2" xlink:href="#m219da94a98" y="315.5625"/>
      </g>
     </g>
     <g id="text_40">
      <!-- 0 -->
      <g style="fill:#262626;" transform="translate(628.98359375 320.734375)scale(0.2 -0.2)">
       <use xlink:href="#LiberationSans-30"/>
      </g>
     </g>
    </g>
    <g id="ytick_20">
     <g id="line2d_181">
      <path clip-path="url(#pfad8245fe1)" d="
M645.543 288.983
L1213.2 288.983" style="fill:none;stroke:#ffffff;stroke-linecap:round;"/>
     </g>
     <g id="line2d_182">
      <g>
       <use style="fill:#262626;stroke:#262626;" x="645.54296875" xlink:href="#m219da94a98" y="288.983333333"/>
      </g>
     </g>
     <g id="line2d_183">
      <g>
       <use style="fill:#262626;stroke:#262626;" x="1213.2" xlink:href="#m219da94a98" y="288.983333333"/>
      </g>
     </g>
     <g id="text_41">
      <!-- 1 -->
      <g style="fill:#262626;" transform="translate(629.92109375 294.155208333)scale(0.2 -0.2)">
       <use xlink:href="#LiberationSans-31"/>
      </g>
     </g>
    </g>
    <g id="ytick_21">
     <g id="line2d_184">
      <path clip-path="url(#pfad8245fe1)" d="
M645.543 262.404
L1213.2 262.404" style="fill:none;stroke:#ffffff;stroke-linecap:round;"/>
     </g>
     <g id="line2d_185">
      <g>
       <use style="fill:#262626;stroke:#262626;" x="645.54296875" xlink:href="#m219da94a98" y="262.404166667"/>
      </g>
     </g>
     <g id="line2d_186">
      <g>
       <use style="fill:#262626;stroke:#262626;" x="1213.2" xlink:href="#m219da94a98" y="262.404166667"/>
      </g>
     </g>
     <g id="text_42">
      <!-- 2 -->
      <g style="fill:#262626;" transform="translate(629.43046875 267.576041667)scale(0.2 -0.2)">
       <use xlink:href="#LiberationSans-32"/>
      </g>
     </g>
    </g>
    <g id="ytick_22">
     <g id="line2d_187">
      <path clip-path="url(#pfad8245fe1)" d="
M645.543 235.825
L1213.2 235.825" style="fill:none;stroke:#ffffff;stroke-linecap:round;"/>
     </g>
     <g id="line2d_188">
      <g>
       <use style="fill:#262626;stroke:#262626;" x="645.54296875" xlink:href="#m219da94a98" y="235.825"/>
      </g>
     </g>
     <g id="line2d_189">
      <g>
       <use style="fill:#262626;stroke:#262626;" x="1213.2" xlink:href="#m219da94a98" y="235.825"/>
      </g>
     </g>
     <g id="text_43">
      <!-- 3 -->
      <g style="fill:#262626;" transform="translate(629.06171875 240.996875)scale(0.2 -0.2)">
       <use xlink:href="#LiberationSans-33"/>
      </g>
     </g>
    </g>
   </g>
   <g id="line2d_190">
    <g clip-path="url(#pfad8245fe1)">
     <use style="fill:#0000ff;" x="645.54296875" xlink:href="#m1709273626" y="-8447.60454517"/>
     <use style="fill:#0000ff;" x="664.002849606" xlink:href="#m1709273626" y="-1.0"/>
     <use style="fill:#0000ff;" x="675.419654605" xlink:href="#m1709273626" y="5222.9360453"/>
     <use style="fill:#0000ff;" x="695.806806389" xlink:href="#m1709273626" y="-1.0"/>
     <use style="fill:#0000ff;" x="722.241937016" xlink:href="#m1709273626" y="-1.0"/>
     <use style="fill:#0000ff;" x="735.173026316" xlink:href="#m1709273626" y="1854.5148438"/>
     <use style="fill:#0000ff;" x="758.264257208" xlink:href="#m1709273626" y="-1.0"/>
     <use style="fill:#0000ff;" x="777.166596034" xlink:href="#m1709273626" y="-1.0"/>
     <use style="fill:#0000ff;" x="794.926398026" xlink:href="#m1709273626" y="798.177955017"/>
     <use style="fill:#0000ff;" x="824.803083882" xlink:href="#m1709273626" y="45.2978451904"/>
     <use style="fill:#0000ff;" x="854.679769737" xlink:href="#m1709273626" y="466.910706693"/>
     <use style="fill:#0000ff;" x="884.556455592" xlink:href="#m1709273626" y="230.807504252"/>
     <use style="fill:#0000ff;" x="914.433141447" xlink:href="#m1709273626" y="363.025297619"/>
     <use style="fill:#0000ff;" x="944.309827303" xlink:href="#m1709273626" y="288.983333333"/>
     <use style="fill:#0000ff;" x="974.186513158" xlink:href="#m1709273626" y="330.446833333"/>
     <use style="fill:#0000ff;" x="1004.06319901" xlink:href="#m1709273626" y="307.227273333"/>
     <use style="fill:#0000ff;" x="1033.93988487" xlink:href="#m1709273626" y="320.230226933"/>
     <use style="fill:#0000ff;" x="1063.81657072" xlink:href="#m1709273626" y="312.948572917"/>
     <use style="fill:#0000ff;" x="1093.69325658" xlink:href="#m1709273626" y="317.026299166"/>
     <use style="fill:#0000ff;" x="1123.56994243" xlink:href="#m1709273626" y="314.742772467"/>
     <use style="fill:#0000ff;" x="1153.44662829" xlink:href="#m1709273626" y="316.021547419"/>
     <use style="fill:#0000ff;" x="1183.32331414" xlink:href="#m1709273626" y="315.305433446"/>
     <use style="fill:#0000ff;" x="1213.2" xlink:href="#m1709273626" y="315.70645727"/>
    </g>
   </g>
   <g id="line2d_191">
    <path clip-path="url(#pfad8245fe1)" d="
M645.543 315.562
L645.543 -1" style="fill:none;stroke:#0000ff;stroke-linecap:round;stroke-width:1.75;"/>
   </g>
   <g id="line2d_192">
    <path clip-path="url(#pfad8245fe1)" d="
M675.42 315.562
L675.42 433" style="fill:none;stroke:#0000ff;stroke-linecap:round;stroke-width:1.75;"/>
   </g>
   <g id="line2d_193">
    <path clip-path="url(#pfad8245fe1)" d="
M705.296 315.562
L705.296 -1" style="fill:none;stroke:#0000ff;stroke-linecap:round;stroke-width:1.75;"/>
   </g>
   <g id="line2d_194">
    <path clip-path="url(#pfad8245fe1)" d="
M735.173 315.562
L735.173 433" style="fill:none;stroke:#0000ff;stroke-linecap:round;stroke-width:1.75;"/>
   </g>
   <g id="line2d_195">
    <path clip-path="url(#pfad8245fe1)" d="
M765.05 315.562
L765.05 -1" style="fill:none;stroke:#0000ff;stroke-linecap:round;stroke-width:1.75;"/>
   </g>
   <g id="line2d_196">
    <path clip-path="url(#pfad8245fe1)" d="
M794.926 315.562
L794.926 433" style="fill:none;stroke:#0000ff;stroke-linecap:round;stroke-width:1.75;"/>
   </g>
   <g id="line2d_197">
    <path clip-path="url(#pfad8245fe1)" d="
M824.803 315.562
L824.803 45.2978" style="fill:none;stroke:#0000ff;stroke-linecap:round;stroke-width:1.75;"/>
   </g>
   <g id="line2d_198">
    <path clip-path="url(#pfad8245fe1)" d="
M854.68 315.562
L854.68 433" style="fill:none;stroke:#0000ff;stroke-linecap:round;stroke-width:1.75;"/>
   </g>
   <g id="line2d_199">
    <path clip-path="url(#pfad8245fe1)" d="
M884.556 315.562
L884.556 230.808" style="fill:none;stroke:#0000ff;stroke-linecap:round;stroke-width:1.75;"/>
   </g>
   <g id="line2d_200">
    <path clip-path="url(#pfad8245fe1)" d="
M914.433 315.562
L914.433 363.025" style="fill:none;stroke:#0000ff;stroke-linecap:round;stroke-width:1.75;"/>
   </g>
   <g id="line2d_201">
    <path clip-path="url(#pfad8245fe1)" d="
M944.31 315.562
L944.31 288.983" style="fill:none;stroke:#0000ff;stroke-linecap:round;stroke-width:1.75;"/>
   </g>
   <g id="line2d_202">
    <path clip-path="url(#pfad8245fe1)" d="
M974.187 315.562
L974.187 330.447" style="fill:none;stroke:#0000ff;stroke-linecap:round;stroke-width:1.75;"/>
   </g>
   <g id="line2d_203">
    <path clip-path="url(#pfad8245fe1)" d="
M1004.06 315.562
L1004.06 307.227" style="fill:none;stroke:#0000ff;stroke-linecap:round;stroke-width:1.75;"/>
   </g>
   <g id="line2d_204">
    <path clip-path="url(#pfad8245fe1)" d="
M1033.94 315.562
L1033.94 320.23" style="fill:none;stroke:#0000ff;stroke-linecap:round;stroke-width:1.75;"/>
   </g>
   <g id="line2d_205">
    <path clip-path="url(#pfad8245fe1)" d="
M1063.82 315.562
L1063.82 312.949" style="fill:none;stroke:#0000ff;stroke-linecap:round;stroke-width:1.75;"/>
   </g>
   <g id="line2d_206">
    <path clip-path="url(#pfad8245fe1)" d="
M1093.69 315.562
L1093.69 317.026" style="fill:none;stroke:#0000ff;stroke-linecap:round;stroke-width:1.75;"/>
   </g>
   <g id="line2d_207">
    <path clip-path="url(#pfad8245fe1)" d="
M1123.57 315.562
L1123.57 314.743" style="fill:none;stroke:#0000ff;stroke-linecap:round;stroke-width:1.75;"/>
   </g>
   <g id="line2d_208">
    <path clip-path="url(#pfad8245fe1)" d="
M1153.45 315.562
L1153.45 316.022" style="fill:none;stroke:#0000ff;stroke-linecap:round;stroke-width:1.75;"/>
   </g>
   <g id="line2d_209">
    <path clip-path="url(#pfad8245fe1)" d="
M1183.32 315.562
L1183.32 315.305" style="fill:none;stroke:#0000ff;stroke-linecap:round;stroke-width:1.75;"/>
   </g>
   <g id="line2d_210">
    <path clip-path="url(#pfad8245fe1)" d="
M1213.2 315.562
L1213.2 315.706" style="fill:none;stroke:#0000ff;stroke-linecap:round;stroke-width:1.75;"/>
   </g>
   <g id="line2d_211">
    <path clip-path="url(#pfad8245fe1)" d="
M645.543 315.562
L1213.2 315.562" style="fill:none;stroke:#ff0000;stroke-linecap:round;stroke-width:1.75;"/>
   </g>
   <g id="patch_18">
    <path d="
M645.543 235.825
L1213.2 235.825" style="fill:none;"/>
   </g>
   <g id="patch_19">
    <path d="
M1213.2 395.3
L1213.2 235.825" style="fill:none;"/>
   </g>
   <g id="patch_20">
    <path d="
M645.543 395.3
L1213.2 395.3" style="fill:none;"/>
   </g>
   <g id="patch_21">
    <path d="
M645.543 395.3
L645.543 235.825" style="fill:none;"/>
   </g>
   <g id="legend_4">
    <g id="line2d_212">
     <g>
      <use style="fill:#0000ff;" x="1062.2" xlink:href="#m1709273626" y="355.58125"/>
     </g>
    </g>
    <g id="line2d_213">
     <path d="
M1062.2 367.613
L1062.2 355.581" style="fill:none;stroke:#0000ff;stroke-linecap:round;stroke-width:1.75;"/>
    </g>
    <g id="line2d_214">
     <path d="
M1037.2 367.613
L1087.2 367.613" style="fill:none;stroke:#ff0000;stroke-linecap:round;stroke-width:1.75;"/>
    </g>
    <g id="text_44">
     <!-- $-0.56^n$ -->
     <g style="fill:#262626;" transform="translate(1107.2 367.6125)scale(0.25 -0.25)">
      <use transform="translate(0.0 0.553125)" xlink:href="#Cmsy10-a1"/>
      <use transform="translate(77.685546875 0.553125)" xlink:href="#Cmr10-30"/>
      <use transform="translate(127.685546875 0.553125)" xlink:href="#Cmmi10-3a"/>
      <use transform="translate(156.228515625 0.553125)" xlink:href="#Cmr10-35"/>
      <use transform="translate(206.228515625 0.553125)" xlink:href="#Cmr10-36"/>
      <use transform="translate(256.228515625 43.06875)scale(0.7)" xlink:href="#Cmmi10-6e"/>
     </g>
    </g>
   </g>
  </g>
 </g>
 <defs>
  <clipPath id="pfad8245fe1">
   <rect height="159.475" width="567.65703125" x="645.54296875" y="235.825"/>
  </clipPath>
  <clipPath id="pd332633f72">
   <rect height="159.475" width="567.65703125" x="645.54296875" y="30.2"/>
  </clipPath>
  <clipPath id="p8a02e65023">
   <rect height="159.475" width="567.65703125" x="39.090625" y="235.825"/>
  </clipPath>
  <clipPath id="pb1cbc7d12f">
   <rect height="159.475" width="567.65703125" x="39.090625" y="30.2"/>
  </clipPath>
 </defs>
</svg>
