<?xml version="1.0" encoding="utf-8" standalone="no"?>
<!DOCTYPE svg PUBLIC "-//W3C//DTD SVG 1.1//EN"
  "http://www.w3.org/Graphics/SVG/1.1/DTD/svg11.dtd">
<!-- Created with matplotlib (http://matplotlib.org/) -->
<svg height="756pt" version="1.1" viewBox="0 0 756 756" width="756pt" xmlns="http://www.w3.org/2000/svg" xmlns:xlink="http://www.w3.org/1999/xlink">
 <defs>
  <style type="text/css">
*{stroke-linecap:butt;stroke-linejoin:round;}
  </style>
 </defs>
 <g id="figure_1">
  <g id="patch_1">
   <path d="
M0 756
L756 756
L756 0
L0 0
z
" style="fill:#ffffff;"/>
  </g>
  <g id="axes_1">
   <g id="patch_2">
    <path d="
M96.2438 679.5
L733.641 679.5
L733.641 37.4
L96.2438 37.4
L96.2438 679.5" style="fill:none;"/>
   </g>
   <g id="patch_3">
    <path clip-path="url(#p40ac537a30)" d="
M414.942 119.426
L439.25 141.524
L432.687 145.899
L574.358 358.406
L574.225 358.494
L432.554 145.988
L425.991 150.363
z
" style="stroke:#000000;stroke-linejoin:miter;"/>
   </g>
   <g id="patch_4">
    <path clip-path="url(#p40ac537a30)" d="
M414.942 119.426
L407.816 151.495
L400.761 147.967
L295.502 358.486
L295.359 358.414
L400.618 147.896
L393.563 144.368
z
" style="stroke:#000000;stroke-linejoin:miter;"/>
   </g>
   <g id="line2d_1">
    <path clip-path="url(#p40ac537a30)" d="
M-541.153 358.45
M-1 358.45
L757 358.45" style="fill:none;stroke:#808080;stroke-linecap:square;"/>
   </g>
   <g id="line2d_2">
    <path clip-path="url(#p40ac537a30)" d="
M414.942 1314.55
M414.942 757
L414.942 -1" style="fill:none;stroke:#808080;stroke-linecap:square;"/>
   </g>
   <g id="line2d_3">
    <defs>
     <path d="
M0 10
C2.65203 10 5.1958 8.94634 7.07107 7.07107
C8.94634 5.1958 10 2.65203 10 0
C10 -2.65203 8.94634 -5.1958 7.07107 -7.07107
C5.1958 -8.94634 2.65203 -10 0 -10
C-2.65203 -10 -5.1958 -8.94634 -7.07107 -7.07107
C-8.94634 -5.1958 -10 -2.65203 -10 0
C-10 2.65203 -8.94634 5.1958 -7.07107 7.07107
C-5.1958 8.94634 -2.65203 10 0 10
z
" id="m1f3a911c3b" style="stroke:#000000;stroke-width:0.5;"/>
    </defs>
    <g clip-path="url(#p40ac537a30)">
     <use style="fill:none;stroke:#000000;stroke-width:0.5;" x="574.29140625" xlink:href="#m1f3a911c3b" y="358.45"/>
    </g>
   </g>
   <g id="line2d_4">
    <defs>
     <path d="
M-10 10
L10 -10
M-10 -10
L10 10" id="m5a800472e8" style="stroke:#000000;stroke-width:0.5;"/>
    </defs>
    <g clip-path="url(#p40ac537a30)">
     <use style="fill:none;stroke:#000000;stroke-width:0.5;" x="295.430273437" xlink:href="#m5a800472e8" y="358.45"/>
    </g>
   </g>
   <g id="line2d_5">
    <path clip-path="url(#p40ac537a30)" d="
M614.129 358.45
L614.031 355.664
L613.739 352.891
L613.254 350.146
L612.577 347.441
L611.713 344.79
L610.666 342.206
L609.441 339.702
L608.044 337.289
L606.481 334.98
L604.761 332.786
L602.891 330.718
L600.881 328.785
L598.741 326.998
L596.482 325.365
L594.113 323.894
L591.648 322.592
L589.097 321.466
L586.474 320.521
L583.792 319.762
L581.062 319.192
L578.3 318.815
L575.518 318.632
L572.73 318.643
L569.95 318.85
L567.191 319.251
L564.466 319.843
L561.79 320.625
L559.175 321.592
L556.634 322.74
L554.18 324.062
L552.486 325.11
L552.486 325.11" style="fill:none;stroke:#0000ff;stroke-linecap:square;"/>
   </g>
   <g id="line2d_6">
    <path clip-path="url(#p40ac537a30)" d="
M335.268 358.45
L335.266 358.052
L335.26 357.653
L335.25 357.255
L335.236 356.857
L335.218 356.459
L335.196 356.061
L335.17 355.664
L335.14 355.266
L335.106 354.869
L335.069 354.473
L335.027 354.077
L334.981 353.681
L334.931 353.286
L334.878 352.891
L334.82 352.497
L334.759 352.103
L334.693 351.71
L334.624 351.318
L334.551 350.926
L334.473 350.536
L334.392 350.146
L334.307 349.756
L334.219 349.368
L334.126 348.981
L334.029 348.594
L333.929 348.209
L333.824 347.824
L333.716 347.441
L333.604 347.058
L333.488 346.677
L333.369 346.297
L333.245 345.919
L333.118 345.541
L332.987 345.165
L332.852 344.79
L332.714 344.416
L332.572 344.044
L332.426 343.674
L332.276 343.304
L332.123 342.937
L331.966 342.57
L331.805 342.206
L331.641 341.843
L331.473 341.482
L331.302 341.122
L331.127 340.764
L330.948 340.408
L330.766 340.054
L330.58 339.702
L330.391 339.351
L330.198 339.002
L330.002 338.656
L329.802 338.311
L329.599 337.968
L329.393 337.628
L329.183 337.289
L328.969 336.953
L328.753 336.618
L328.533 336.286
L328.309 335.956
L328.083 335.629
L327.853 335.303
L327.62 334.98
L327.384 334.659
L327.144 334.341
L326.901 334.025
L326.656 333.712
L326.407 333.401
L326.155 333.092
L325.9 332.786
L325.641 332.483
L325.38 332.182
L325.116 331.884
L324.849 331.588
L324.579 331.295
L324.306 331.005
L324.03 330.718
L323.751 330.433
L323.47 330.151
L323.185 329.872
L322.898 329.596
L322.608 329.323
L322.316 329.053
L322.02 328.785
L321.722 328.521
L321.422 328.26
L321.118 328.001
L320.813 327.746
L320.504 327.494
L320.194 327.244
L319.88 326.998
L319.565 326.755
L319.246 326.516
L318.926 326.279
L318.603 326.046
L318.278 325.816
L317.95 325.589
L317.621 325.365
L317.289 325.145
L316.954 324.928
L316.618 324.715
L316.28 324.504
L315.939 324.298
L315.597 324.094
L315.252 323.894
L314.906 323.698
L314.557 323.505
L314.207 323.315
L313.854 323.129
L313.5 322.947" style="fill:none;stroke:#0000ff;stroke-linecap:square;"/>
   </g>
   <g id="patch_5">
    <path d="
M96.2438 37.4
L733.641 37.4" style="fill:none;stroke:#000000;stroke-linecap:square;stroke-linejoin:miter;"/>
   </g>
   <g id="patch_6">
    <path d="
M733.641 679.5
L733.641 37.4" style="fill:none;stroke:#000000;stroke-linecap:square;stroke-linejoin:miter;"/>
   </g>
   <g id="patch_7">
    <path d="
M96.2438 679.5
L733.641 679.5" style="fill:none;stroke:#000000;stroke-linecap:square;stroke-linejoin:miter;"/>
   </g>
   <g id="patch_8">
    <path d="
M96.2438 679.5
L96.2438 37.4" style="fill:none;stroke:#000000;stroke-linecap:square;stroke-linejoin:miter;"/>
   </g>
   <g id="matplotlib.axis_1">
    <g id="xtick_1">
     <g id="line2d_7">
      <path clip-path="url(#p40ac537a30)" d="
M96.2438 679.5
L96.2438 37.4" style="fill:none;stroke:#000000;stroke-dasharray:1.000000,3.000000;stroke-dashoffset:0.0;stroke-width:0.5;"/>
     </g>
     <g id="line2d_8">
      <defs>
       <path d="
M0 0
L0 -4" id="m93b0483c22" style="stroke:#000000;stroke-width:0.5;"/>
      </defs>
      <g>
       <use style="stroke:#000000;stroke-width:0.5;" x="96.24375" xlink:href="#m93b0483c22" y="679.5"/>
      </g>
     </g>
     <g id="line2d_9">
      <defs>
       <path d="
M0 0
L0 4" id="m741efc42ff" style="stroke:#000000;stroke-width:0.5;"/>
      </defs>
      <g>
       <use style="stroke:#000000;stroke-width:0.5;" x="96.24375" xlink:href="#m741efc42ff" y="37.4"/>
      </g>
     </g>
     <g id="text_1">
      <!-- −2.0 -->
      <defs>
       <path d="
M10.5938 35.5
L73.1875 35.5
L73.1875 27.2031
L10.5938 27.2031
z
" id="BitstreamVeraSans-Roman-2212"/>
       <path d="
M19.1875 8.29688
L53.6094 8.29688
L53.6094 0
L7.32812 0
L7.32812 8.29688
Q12.9375 14.1094 22.625 23.8906
Q32.3281 33.6875 34.8125 36.5312
Q39.5469 41.8438 41.4219 45.5312
Q43.3125 49.2188 43.3125 52.7812
Q43.3125 58.5938 39.2344 62.25
Q35.1562 65.9219 28.6094 65.9219
Q23.9688 65.9219 18.8125 64.3125
Q13.6719 62.7031 7.8125 59.4219
L7.8125 69.3906
Q13.7656 71.7812 18.9375 73
Q24.125 74.2188 28.4219 74.2188
Q39.75 74.2188 46.4844 68.5469
Q53.2188 62.8906 53.2188 53.4219
Q53.2188 48.9219 51.5312 44.8906
Q49.8594 40.875 45.4062 35.4062
Q44.1875 33.9844 37.6406 27.2188
Q31.1094 20.4531 19.1875 8.29688" id="BitstreamVeraSans-Roman-32"/>
       <path d="
M31.7812 66.4062
Q24.1719 66.4062 20.3281 58.9062
Q16.5 51.4219 16.5 36.375
Q16.5 21.3906 20.3281 13.8906
Q24.1719 6.39062 31.7812 6.39062
Q39.4531 6.39062 43.2812 13.8906
Q47.125 21.3906 47.125 36.375
Q47.125 51.4219 43.2812 58.9062
Q39.4531 66.4062 31.7812 66.4062
M31.7812 74.2188
Q44.0469 74.2188 50.5156 64.5156
Q56.9844 54.8281 56.9844 36.375
Q56.9844 17.9688 50.5156 8.26562
Q44.0469 -1.42188 31.7812 -1.42188
Q19.5312 -1.42188 13.0625 8.26562
Q6.59375 17.9688 6.59375 36.375
Q6.59375 54.8281 13.0625 64.5156
Q19.5312 74.2188 31.7812 74.2188" id="BitstreamVeraSans-Roman-30"/>
       <path d="
M10.6875 12.4062
L21 12.4062
L21 0
L10.6875 0
z
" id="BitstreamVeraSans-Roman-2e"/>
      </defs>
      <g transform="translate(78.19625 695.6575)scale(0.16 -0.16)">
       <use xlink:href="#BitstreamVeraSans-Roman-2212"/>
       <use x="83.7890625" xlink:href="#BitstreamVeraSans-Roman-32"/>
       <use x="147.412109375" xlink:href="#BitstreamVeraSans-Roman-2e"/>
       <use x="179.19921875" xlink:href="#BitstreamVeraSans-Roman-30"/>
      </g>
     </g>
    </g>
    <g id="xtick_2">
     <g id="line2d_10">
      <path clip-path="url(#p40ac537a30)" d="
M175.918 679.5
L175.918 37.4" style="fill:none;stroke:#000000;stroke-dasharray:1.000000,3.000000;stroke-dashoffset:0.0;stroke-width:0.5;"/>
     </g>
     <g id="line2d_11">
      <g>
       <use style="stroke:#000000;stroke-width:0.5;" x="175.918359375" xlink:href="#m93b0483c22" y="679.5"/>
      </g>
     </g>
     <g id="line2d_12">
      <g>
       <use style="stroke:#000000;stroke-width:0.5;" x="175.918359375" xlink:href="#m741efc42ff" y="37.4"/>
      </g>
     </g>
     <g id="text_2">
      <!-- −1.5 -->
      <defs>
       <path d="
M12.4062 8.29688
L28.5156 8.29688
L28.5156 63.9219
L10.9844 60.4062
L10.9844 69.3906
L28.4219 72.9062
L38.2812 72.9062
L38.2812 8.29688
L54.3906 8.29688
L54.3906 0
L12.4062 0
z
" id="BitstreamVeraSans-Roman-31"/>
       <path d="
M10.7969 72.9062
L49.5156 72.9062
L49.5156 64.5938
L19.8281 64.5938
L19.8281 46.7344
Q21.9688 47.4688 24.1094 47.8281
Q26.2656 48.1875 28.4219 48.1875
Q40.625 48.1875 47.75 41.5
Q54.8906 34.8125 54.8906 23.3906
Q54.8906 11.625 47.5625 5.09375
Q40.2344 -1.42188 26.9062 -1.42188
Q22.3125 -1.42188 17.5469 -0.640625
Q12.7969 0.140625 7.71875 1.70312
L7.71875 11.625
Q12.1094 9.23438 16.7969 8.0625
Q21.4844 6.89062 26.7031 6.89062
Q35.1562 6.89062 40.0781 11.3281
Q45.0156 15.7656 45.0156 23.3906
Q45.0156 31 40.0781 35.4375
Q35.1562 39.8906 26.7031 39.8906
Q22.75 39.8906 18.8125 39.0156
Q14.8906 38.1406 10.7969 36.2812
z
" id="BitstreamVeraSans-Roman-35"/>
      </defs>
      <g transform="translate(158.038359375 695.6575)scale(0.16 -0.16)">
       <use xlink:href="#BitstreamVeraSans-Roman-2212"/>
       <use x="83.7890625" xlink:href="#BitstreamVeraSans-Roman-31"/>
       <use x="147.412109375" xlink:href="#BitstreamVeraSans-Roman-2e"/>
       <use x="179.19921875" xlink:href="#BitstreamVeraSans-Roman-35"/>
      </g>
     </g>
    </g>
    <g id="xtick_3">
     <g id="line2d_13">
      <path clip-path="url(#p40ac537a30)" d="
M255.593 679.5
L255.593 37.4" style="fill:none;stroke:#000000;stroke-dasharray:1.000000,3.000000;stroke-dashoffset:0.0;stroke-width:0.5;"/>
     </g>
     <g id="line2d_14">
      <g>
       <use style="stroke:#000000;stroke-width:0.5;" x="255.59296875" xlink:href="#m93b0483c22" y="679.5"/>
      </g>
     </g>
     <g id="line2d_15">
      <g>
       <use style="stroke:#000000;stroke-width:0.5;" x="255.59296875" xlink:href="#m741efc42ff" y="37.4"/>
      </g>
     </g>
     <g id="text_3">
      <!-- −1.0 -->
      <g transform="translate(237.54546875 695.6575)scale(0.16 -0.16)">
       <use xlink:href="#BitstreamVeraSans-Roman-2212"/>
       <use x="83.7890625" xlink:href="#BitstreamVeraSans-Roman-31"/>
       <use x="147.412109375" xlink:href="#BitstreamVeraSans-Roman-2e"/>
       <use x="179.19921875" xlink:href="#BitstreamVeraSans-Roman-30"/>
      </g>
     </g>
    </g>
    <g id="xtick_4">
     <g id="line2d_16">
      <path clip-path="url(#p40ac537a30)" d="
M335.268 679.5
L335.268 37.4" style="fill:none;stroke:#000000;stroke-dasharray:1.000000,3.000000;stroke-dashoffset:0.0;stroke-width:0.5;"/>
     </g>
     <g id="line2d_17">
      <g>
       <use style="stroke:#000000;stroke-width:0.5;" x="335.267578125" xlink:href="#m93b0483c22" y="679.5"/>
      </g>
     </g>
     <g id="line2d_18">
      <g>
       <use style="stroke:#000000;stroke-width:0.5;" x="335.267578125" xlink:href="#m741efc42ff" y="37.4"/>
      </g>
     </g>
     <g id="text_4">
      <!-- −0.5 -->
      <g transform="translate(317.387578125 695.6575)scale(0.16 -0.16)">
       <use xlink:href="#BitstreamVeraSans-Roman-2212"/>
       <use x="83.7890625" xlink:href="#BitstreamVeraSans-Roman-30"/>
       <use x="147.412109375" xlink:href="#BitstreamVeraSans-Roman-2e"/>
       <use x="179.19921875" xlink:href="#BitstreamVeraSans-Roman-35"/>
      </g>
     </g>
    </g>
    <g id="xtick_5">
     <g id="line2d_19">
      <path clip-path="url(#p40ac537a30)" d="
M414.942 679.5
L414.942 37.4" style="fill:none;stroke:#000000;stroke-dasharray:1.000000,3.000000;stroke-dashoffset:0.0;stroke-width:0.5;"/>
     </g>
     <g id="line2d_20">
      <g>
       <use style="stroke:#000000;stroke-width:0.5;" x="414.9421875" xlink:href="#m93b0483c22" y="679.5"/>
      </g>
     </g>
     <g id="line2d_21">
      <g>
       <use style="stroke:#000000;stroke-width:0.5;" x="414.9421875" xlink:href="#m741efc42ff" y="37.4"/>
      </g>
     </g>
     <g id="text_5">
      <!-- 0.0 -->
      <g transform="translate(403.2784375 695.6575)scale(0.16 -0.16)">
       <use xlink:href="#BitstreamVeraSans-Roman-30"/>
       <use x="63.623046875" xlink:href="#BitstreamVeraSans-Roman-2e"/>
       <use x="95.41015625" xlink:href="#BitstreamVeraSans-Roman-30"/>
      </g>
     </g>
    </g>
    <g id="xtick_6">
     <g id="line2d_22">
      <path clip-path="url(#p40ac537a30)" d="
M494.617 679.5
L494.617 37.4" style="fill:none;stroke:#000000;stroke-dasharray:1.000000,3.000000;stroke-dashoffset:0.0;stroke-width:0.5;"/>
     </g>
     <g id="line2d_23">
      <g>
       <use style="stroke:#000000;stroke-width:0.5;" x="494.616796875" xlink:href="#m93b0483c22" y="679.5"/>
      </g>
     </g>
     <g id="line2d_24">
      <g>
       <use style="stroke:#000000;stroke-width:0.5;" x="494.616796875" xlink:href="#m741efc42ff" y="37.4"/>
      </g>
     </g>
     <g id="text_6">
      <!-- 0.5 -->
      <g transform="translate(483.120546875 695.6575)scale(0.16 -0.16)">
       <use xlink:href="#BitstreamVeraSans-Roman-30"/>
       <use x="63.623046875" xlink:href="#BitstreamVeraSans-Roman-2e"/>
       <use x="95.41015625" xlink:href="#BitstreamVeraSans-Roman-35"/>
      </g>
     </g>
    </g>
    <g id="xtick_7">
     <g id="line2d_25">
      <path clip-path="url(#p40ac537a30)" d="
M574.291 679.5
L574.291 37.4" style="fill:none;stroke:#000000;stroke-dasharray:1.000000,3.000000;stroke-dashoffset:0.0;stroke-width:0.5;"/>
     </g>
     <g id="line2d_26">
      <g>
       <use style="stroke:#000000;stroke-width:0.5;" x="574.29140625" xlink:href="#m93b0483c22" y="679.5"/>
      </g>
     </g>
     <g id="line2d_27">
      <g>
       <use style="stroke:#000000;stroke-width:0.5;" x="574.29140625" xlink:href="#m741efc42ff" y="37.4"/>
      </g>
     </g>
     <g id="text_7">
      <!-- 1.0 -->
      <g transform="translate(562.97890625 695.6575)scale(0.16 -0.16)">
       <use xlink:href="#BitstreamVeraSans-Roman-31"/>
       <use x="63.623046875" xlink:href="#BitstreamVeraSans-Roman-2e"/>
       <use x="95.41015625" xlink:href="#BitstreamVeraSans-Roman-30"/>
      </g>
     </g>
    </g>
    <g id="xtick_8">
     <g id="line2d_28">
      <path clip-path="url(#p40ac537a30)" d="
M653.966 679.5
L653.966 37.4" style="fill:none;stroke:#000000;stroke-dasharray:1.000000,3.000000;stroke-dashoffset:0.0;stroke-width:0.5;"/>
     </g>
     <g id="line2d_29">
      <g>
       <use style="stroke:#000000;stroke-width:0.5;" x="653.966015625" xlink:href="#m93b0483c22" y="679.5"/>
      </g>
     </g>
     <g id="line2d_30">
      <g>
       <use style="stroke:#000000;stroke-width:0.5;" x="653.966015625" xlink:href="#m741efc42ff" y="37.4"/>
      </g>
     </g>
     <g id="text_8">
      <!-- 1.5 -->
      <g transform="translate(642.821015625 695.6575)scale(0.16 -0.16)">
       <use xlink:href="#BitstreamVeraSans-Roman-31"/>
       <use x="63.623046875" xlink:href="#BitstreamVeraSans-Roman-2e"/>
       <use x="95.41015625" xlink:href="#BitstreamVeraSans-Roman-35"/>
      </g>
     </g>
    </g>
    <g id="xtick_9">
     <g id="line2d_31">
      <path clip-path="url(#p40ac537a30)" d="
M733.641 679.5
L733.641 37.4" style="fill:none;stroke:#000000;stroke-dasharray:1.000000,3.000000;stroke-dashoffset:0.0;stroke-width:0.5;"/>
     </g>
     <g id="line2d_32">
      <g>
       <use style="stroke:#000000;stroke-width:0.5;" x="733.640625" xlink:href="#m93b0483c22" y="679.5"/>
      </g>
     </g>
     <g id="line2d_33">
      <g>
       <use style="stroke:#000000;stroke-width:0.5;" x="733.640625" xlink:href="#m741efc42ff" y="37.4"/>
      </g>
     </g>
     <g id="text_9">
      <!-- 2.0 -->
      <g transform="translate(722.035625 695.6575)scale(0.16 -0.16)">
       <use xlink:href="#BitstreamVeraSans-Roman-32"/>
       <use x="63.623046875" xlink:href="#BitstreamVeraSans-Roman-2e"/>
       <use x="95.41015625" xlink:href="#BitstreamVeraSans-Roman-30"/>
      </g>
     </g>
    </g>
    <g id="text_10">
     <!-- $\Re \{s\} = \sigma$ -->
     <defs>
      <path d="
M11.0781 -115.094
L11.0781 -113.922
Q11.0781 -113.234 11.8125 -113.094
Q25.4844 -108.641 25.4844 -100.203
L25.4844 -71
Q25.4844 -61.0781 41.7031 -56
Q34.6719 -53.6094 30.0781 -50.1406
Q25.4844 -46.6875 25.4844 -40.9219
L25.4844 -11.7188
Q25.4844 -3.21875 11.8125 1.21875
Q11.0781 1.375 11.0781 2
L11.0781 3.21875
Q11.0781 4 12.0156 4
L13.1875 4
Q21.2344 2.04688 27.0156 -1.51562
Q32.8125 -5.07812 32.8125 -11.5312
L32.8125 -40.7188
Q32.8125 -45.7031 36.7812 -49.0938
Q40.7656 -52.4844 46.4844 -54.5938
Q47.125 -54.7812 47.125 -55.4219
L47.125 -56.5938
Q47.125 -56.8906 46.4844 -57.4219
Q43.2656 -58.5 40.0938 -60.375
Q36.9219 -62.25 34.8594 -65.0156
Q32.8125 -67.7812 32.8125 -71.1875
L32.8125 -100.391
Q32.8125 -104.891 29.7031 -108.031
Q26.6094 -111.188 22.4531 -112.922
Q18.3125 -114.656 13.1875 -115.922
L12.0156 -115.922
Q11.625 -115.922 11.3438 -115.641
Q11.0781 -115.375 11.0781 -115.094" id="Cmex10-aa"/>
      <path d="
M18.7031 -1.125
Q14.2656 -1.125 10.8125 1
Q7.375 3.125 5.48438 6.73438
Q3.60938 10.3594 3.60938 14.7031
Q3.60938 19.3438 5.70312 24.4688
Q7.8125 29.5938 11.4531 33.8438
Q15.0938 38.0938 19.6719 40.5938
Q24.2656 43.1094 29.1094 43.1094
L54.2969 43.1094
Q55.3281 43.1094 56.0469 42.4219
Q56.7812 41.75 56.7812 40.5781
Q56.7812 39.1094 55.7344 38.0156
Q54.6875 36.9219 53.2188 36.9219
L41.0156 36.9219
Q43.8906 32.625 43.8906 26.5156
Q43.8906 21.4844 41.9375 16.5938
Q39.9844 11.7188 36.5156 7.6875
Q33.0625 3.65625 28.4375 1.26562
Q23.8281 -1.125 18.7031 -1.125
M18.7969 1.51562
Q24.2656 1.51562 28.4844 5.78125
Q32.7188 10.0625 34.9531 16.2344
Q37.2031 22.4062 37.2031 27.6875
Q37.2031 31.9844 34.8281 34.4531
Q32.4688 36.9219 28.2188 36.9219
Q22.4062 36.9219 18.3281 33.0156
Q14.2656 29.1094 12.2344 23.1875
Q10.2031 17.2812 10.2031 11.8125
Q10.2031 7.51562 12.4688 4.51562
Q14.75 1.51562 18.7969 1.51562" id="Cmmi10-be"/>
      <path d="
M8.6875 6.10938
Q11.375 1.51562 19.4844 1.51562
Q23 1.51562 26.1719 2.70312
Q29.3438 3.90625 31.4219 6.29688
Q33.5 8.6875 33.5 12.1094
Q33.5 14.7031 31.6406 16.3594
Q29.7812 18.0156 27.0938 18.6094
L21.6875 19.6719
Q17.9688 20.6094 15.5781 23.1406
Q13.1875 25.6875 13.1875 29.2969
Q13.1875 33.7344 15.5938 37.1562
Q18.0156 40.5781 21.9688 42.375
Q25.9219 44.1875 30.1719 44.1875
Q34.7188 44.1875 38.2969 42.0156
Q41.8906 39.8438 41.8906 35.5938
Q41.8906 33.2969 40.5938 31.5312
Q39.3125 29.7812 37.0156 29.7812
Q35.6875 29.7812 34.7344 30.6406
Q33.7969 31.5 33.7969 32.8125
Q33.7969 33.9844 34.4531 35.0781
Q35.1094 36.1875 36.2031 36.8438
Q37.3125 37.5 38.4844 37.5
Q37.5938 39.6562 35.1719 40.625
Q32.7656 41.6094 29.9844 41.6094
Q27.4375 41.6094 24.8906 40.5781
Q22.3594 39.5469 20.8125 37.5625
Q19.2812 35.5938 19.2812 32.9062
Q19.2812 31.1094 20.5469 29.7344
Q21.8281 28.375 23.6875 27.7812
L29.5 26.6094
Q32.2812 26.0312 34.5938 24.5312
Q36.9219 23.0469 38.25 20.7656
Q39.5938 18.5 39.5938 15.5781
Q39.5938 11.8594 37.5156 8.25
Q35.4531 4.64062 32.4219 2.48438
Q27.0938 -1.125 19.3906 -1.125
Q14.0625 -1.125 9.60938 1.3125
Q5.17188 3.76562 5.17188 8.59375
Q5.17188 11.3281 6.75 13.3438
Q8.34375 15.375 11.0781 15.375
Q12.7031 15.375 13.7969 14.3906
Q14.8906 13.4219 14.8906 11.8125
Q14.8906 9.51562 13.1719 7.8125
Q11.4688 6.10938 9.1875 6.10938
z
" id="Cmmi10-73"/>
      <path d="
M7.51562 13.2812
Q6.6875 13.2812 6.14062 13.9062
Q5.60938 14.5469 5.60938 15.2812
Q5.60938 16.1094 6.14062 16.6875
Q6.6875 17.2812 7.51562 17.2812
L70.3125 17.2812
Q71.0469 17.2812 71.5781 16.6875
Q72.125 16.1094 72.125 15.2812
Q72.125 14.5469 71.5781 13.9062
Q71.0469 13.2812 70.3125 13.2812
z

M7.51562 32.7188
Q6.6875 32.7188 6.14062 33.2969
Q5.60938 33.8906 5.60938 34.7188
Q5.60938 35.4531 6.14062 36.0781
Q6.6875 36.7188 7.51562 36.7188
L70.3125 36.7188
Q71.0469 36.7188 71.5781 36.0781
Q72.125 35.4531 72.125 34.7188
Q72.125 33.8906 71.5781 33.2969
Q71.0469 32.7188 70.3125 32.7188
z
" id="Cmr10-3d"/>
      <path d="
M25.4844 -100.391
L25.4844 -71.1875
Q25.4844 -67.7812 23.4844 -64.9844
Q21.4844 -62.2031 18.5 -60.4219
Q15.5312 -58.6406 11.8125 -57.4219
Q11.0781 -57.0312 11.0781 -56.5938
L11.0781 -55.4219
Q11.0781 -54.7344 11.8125 -54.5938
Q17.625 -52.5938 21.5469 -49.2188
Q25.4844 -45.8438 25.4844 -40.7188
L25.4844 -11.5312
Q25.4844 -5.07812 31.3125 -1.48438
Q37.1562 2.09375 45.125 4
L46.2969 4
Q46.5781 4 46.8438 3.78125
Q47.125 3.5625 47.125 3.21875
L47.125 2
Q47.125 1.42188 46.4844 1.21875
Q40.9219 -0.484375 36.8594 -3.625
Q32.8125 -6.78125 32.8125 -11.7188
L32.8125 -40.9219
Q32.8125 -46.7812 28.1875 -50.2188
Q23.5781 -53.6562 16.5 -56
Q23.3906 -58.0625 28.0938 -61.5469
Q32.8125 -65.0469 32.8125 -71
L32.8125 -100.203
Q32.8125 -103.562 34.8594 -106.094
Q36.9219 -108.641 39.9375 -110.297
Q42.9688 -111.969 46.4844 -113.094
Q47.125 -113.281 47.125 -113.922
L47.125 -115.094
Q47.125 -115.375 46.8438 -115.641
Q46.5781 -115.922 46.2969 -115.922
L45.125 -115.922
Q39.9844 -114.656 35.8125 -112.922
Q31.6406 -111.188 28.5625 -108.031
Q25.4844 -104.891 25.4844 -100.391" id="Cmex10-a9"/>
      <path d="
M5.8125 7.71875
Q5.28125 7.71875 4.82812 8.15625
Q4.39062 8.59375 4.39062 9.07812
Q4.39062 9.71875 4.90625 10
Q5.42188 10.2969 6.5 10.5938
Q6.10938 11.1875 6.10938 11.7188
Q6.10938 11.9219 6.29688 12.3125
L7.17188 13.0938
Q7.32812 13.2812 7.8125 13.2812
Q8.15625 13.2812 8.375 13.0312
Q8.59375 12.7969 8.78125 12.3594
Q8.98438 11.9219 9.07812 11.7188
Q9.375 11.8594 9.95312 12.0781
Q10.5469 12.3125 10.8906 12.3125
Q11.4219 12.3125 11.8594 11.8594
Q12.3125 11.4219 12.3125 10.8906
Q12.3125 10.25 11.5 9.875
Q10.6875 9.51562 10.0156 9.28125
Q13.4844 0.390625 19.3906 0.390625
Q23.2969 0.390625 24.4375 8.65625
Q25.5938 16.9375 25.5938 25.3906
L25.5938 44.4844
Q25.5938 67.9219 16.7031 67.9219
Q13.2344 67.9219 11.1094 64.9375
Q8.98438 61.9688 8.98438 58.5
Q8.98438 56.7812 9.82812 55.7031
Q10.6875 54.6406 13.6406 51.5156
Q16.6094 48.3906 18 45.9219
Q19.3906 43.4531 19.3906 40.2812
Q19.3906 24.3125 11.2812 24.3125
Q8.45312 24.3125 7.03125 26.9062
Q5.60938 29.5 5.60938 32.5156
Q5.60938 33.5938 6.5 33.5938
L7.71875 33.5938
Q8.01562 33.5938 8.25 33.3281
Q8.5 33.0625 8.5 32.7188
Q8.5 30.7188 9.07812 28.8125
Q9.67188 26.9062 11.2812 26.9062
Q15.8281 26.9062 15.8281 39.8906
Q15.8281 42.625 14.2031 44.8125
Q12.5938 47.0156 9.8125 49.9062
Q7.71875 52.2969 6.65625 54.125
Q5.60938 55.9531 5.60938 58.2031
Q5.60938 61.375 7.04688 64.2031
Q8.5 67.0469 11.0156 68.7812
Q13.5312 70.5156 16.7031 70.5156
Q19.5781 70.5156 22.2656 69.1719
Q24.9531 67.8281 27.0781 65.5
Q29.2031 63.1875 30.6094 60.5
Q34.0781 66.1094 41.2344 68.8438
Q48.3906 71.5781 56 71.5781
Q56.5 71.5781 56.7812 71.2969
L71.2969 45.125
Q71.4844 44.5312 71.4844 44.4844
Q71.4844 43.8438 71.1875 43.7031
L65.1875 40.375
Q64.0156 39.75 62.4062 38.8594
Q60.7969 37.9844 59.5625 37.375
Q58.3438 36.7656 57 36.1719
Q55.6719 35.5938 54.2969 35.2031
L55.6094 12.4062
Q55.6094 11.7188 55.3906 10.8125
Q55.1719 9.90625 55.1719 9.42188
Q55.1719 7.03125 56.4375 4.82812
Q57.7188 2.64062 59.7188 1.3125
L67.3906 7.8125
Q67.5781 8.01562 68.0156 8.01562
Q68.4062 8.01562 69.1406 7.51562
Q69.875 7.03125 70.0156 6.98438
Q70.3125 6.84375 70.3125 6.29688
Q70.3125 5.8125 70.0156 5.51562
L60.4062 -2
Q60.2031 -2.20312 59.9062 -2.20312
L58.1094 -2.20312
Q55.0781 -2.20312 52.3906 -0.609375
Q49.7031 0.984375 48.0938 3.65625
Q46.4844 6.34375 46.4844 9.42188
Q46.4844 9.96875 46.7031 10.9062
Q46.9219 11.8594 46.9219 12.4062
L45.7031 34.2812
L34.2812 34.2812
L34.2812 25.2031
Q34.2812 20.0156 32.8125 13.5938
Q31.3438 7.17188 27.9531 2.48438
Q24.5625 -2.20312 19.3906 -2.20312
Q11.4688 -2.20312 7.42188 8.29688
Q7.03125 8.10938 6.48438 7.90625
Q5.95312 7.71875 5.8125 7.71875
M34.2812 37.7969
L49.8125 37.7969
Q51.6094 37.7969 53.8281 38.5938
Q56.0625 39.4062 57.9375 40.4062
Q59.8125 41.4062 62.5 42.9219
L49.0312 67.4844
Q43.2188 66.4531 38.6406 63.7188
Q34.0781 60.9844 32.4219 56.2969
Q33.4062 53.3281 33.8438 50.4219
Q34.2812 47.5156 34.2812 44.4844
z
" id="Cmsy10-3c"/>
     </defs>
     <g transform="translate(355.6921875 733.385)scale(0.3 -0.3)">
      <use transform="translate(0.0 0.705729166667)" xlink:href="#Cmsy10-3c"/>
      <use transform="translate(72.216796875 94.0)" xlink:href="#Cmex10-a9"/>
      <use transform="translate(130.517578125 0.705729166667)" xlink:href="#Cmmi10-73"/>
      <use transform="translate(177.294921875 94.0)" xlink:href="#Cmex10-aa"/>
      <use transform="translate(253.154296875 0.705729166667)" xlink:href="#Cmr10-3d"/>
      <use transform="translate(337.212890625 0.705729166667)" xlink:href="#Cmmi10-be"/>
     </g>
    </g>
   </g>
   <g id="matplotlib.axis_2">
    <g id="ytick_1">
     <g id="line2d_34">
      <path clip-path="url(#p40ac537a30)" d="
M96.2438 677.148
L733.641 677.148" style="fill:none;stroke:#000000;stroke-dasharray:1.000000,3.000000;stroke-dashoffset:0.0;stroke-width:0.5;"/>
     </g>
     <g id="line2d_35">
      <defs>
       <path d="
M0 0
L4 0" id="m728421d6d4" style="stroke:#000000;stroke-width:0.5;"/>
      </defs>
      <g>
       <use style="stroke:#000000;stroke-width:0.5;" x="96.24375" xlink:href="#m728421d6d4" y="677.1484375"/>
      </g>
     </g>
     <g id="line2d_36">
      <defs>
       <path d="
M0 0
L-4 0" id="mcb0005524f" style="stroke:#000000;stroke-width:0.5;"/>
      </defs>
      <g>
       <use style="stroke:#000000;stroke-width:0.5;" x="733.640625" xlink:href="#mcb0005524f" y="677.1484375"/>
      </g>
     </g>
     <g id="text_11">
      <!-- −2.0 -->
      <g transform="translate(56.14875 681.5634375)scale(0.16 -0.16)">
       <use xlink:href="#BitstreamVeraSans-Roman-2212"/>
       <use x="83.7890625" xlink:href="#BitstreamVeraSans-Roman-32"/>
       <use x="147.412109375" xlink:href="#BitstreamVeraSans-Roman-2e"/>
       <use x="179.19921875" xlink:href="#BitstreamVeraSans-Roman-30"/>
      </g>
     </g>
    </g>
    <g id="ytick_2">
     <g id="line2d_37">
      <path clip-path="url(#p40ac537a30)" d="
M96.2438 597.474
L733.641 597.474" style="fill:none;stroke:#000000;stroke-dasharray:1.000000,3.000000;stroke-dashoffset:0.0;stroke-width:0.5;"/>
     </g>
     <g id="line2d_38">
      <g>
       <use style="stroke:#000000;stroke-width:0.5;" x="96.24375" xlink:href="#m728421d6d4" y="597.473828125"/>
      </g>
     </g>
     <g id="line2d_39">
      <g>
       <use style="stroke:#000000;stroke-width:0.5;" x="733.640625" xlink:href="#mcb0005524f" y="597.473828125"/>
      </g>
     </g>
     <g id="text_12">
      <!-- −1.5 -->
      <g transform="translate(56.48375 601.888828125)scale(0.16 -0.16)">
       <use xlink:href="#BitstreamVeraSans-Roman-2212"/>
       <use x="83.7890625" xlink:href="#BitstreamVeraSans-Roman-31"/>
       <use x="147.412109375" xlink:href="#BitstreamVeraSans-Roman-2e"/>
       <use x="179.19921875" xlink:href="#BitstreamVeraSans-Roman-35"/>
      </g>
     </g>
    </g>
    <g id="ytick_3">
     <g id="line2d_40">
      <path clip-path="url(#p40ac537a30)" d="
M96.2438 517.799
L733.641 517.799" style="fill:none;stroke:#000000;stroke-dasharray:1.000000,3.000000;stroke-dashoffset:0.0;stroke-width:0.5;"/>
     </g>
     <g id="line2d_41">
      <g>
       <use style="stroke:#000000;stroke-width:0.5;" x="96.24375" xlink:href="#m728421d6d4" y="517.79921875"/>
      </g>
     </g>
     <g id="line2d_42">
      <g>
       <use style="stroke:#000000;stroke-width:0.5;" x="733.640625" xlink:href="#mcb0005524f" y="517.79921875"/>
      </g>
     </g>
     <g id="text_13">
      <!-- −1.0 -->
      <g transform="translate(56.14875 522.21421875)scale(0.16 -0.16)">
       <use xlink:href="#BitstreamVeraSans-Roman-2212"/>
       <use x="83.7890625" xlink:href="#BitstreamVeraSans-Roman-31"/>
       <use x="147.412109375" xlink:href="#BitstreamVeraSans-Roman-2e"/>
       <use x="179.19921875" xlink:href="#BitstreamVeraSans-Roman-30"/>
      </g>
     </g>
    </g>
    <g id="ytick_4">
     <g id="line2d_43">
      <path clip-path="url(#p40ac537a30)" d="
M96.2438 438.125
L733.641 438.125" style="fill:none;stroke:#000000;stroke-dasharray:1.000000,3.000000;stroke-dashoffset:0.0;stroke-width:0.5;"/>
     </g>
     <g id="line2d_44">
      <g>
       <use style="stroke:#000000;stroke-width:0.5;" x="96.24375" xlink:href="#m728421d6d4" y="438.124609375"/>
      </g>
     </g>
     <g id="line2d_45">
      <g>
       <use style="stroke:#000000;stroke-width:0.5;" x="733.640625" xlink:href="#mcb0005524f" y="438.124609375"/>
      </g>
     </g>
     <g id="text_14">
      <!-- −0.5 -->
      <g transform="translate(56.48375 442.539609375)scale(0.16 -0.16)">
       <use xlink:href="#BitstreamVeraSans-Roman-2212"/>
       <use x="83.7890625" xlink:href="#BitstreamVeraSans-Roman-30"/>
       <use x="147.412109375" xlink:href="#BitstreamVeraSans-Roman-2e"/>
       <use x="179.19921875" xlink:href="#BitstreamVeraSans-Roman-35"/>
      </g>
     </g>
    </g>
    <g id="ytick_5">
     <g id="line2d_46">
      <path clip-path="url(#p40ac537a30)" d="
M96.2438 358.45
L733.641 358.45" style="fill:none;stroke:#000000;stroke-dasharray:1.000000,3.000000;stroke-dashoffset:0.0;stroke-width:0.5;"/>
     </g>
     <g id="line2d_47">
      <g>
       <use style="stroke:#000000;stroke-width:0.5;" x="96.24375" xlink:href="#m728421d6d4" y="358.45"/>
      </g>
     </g>
     <g id="line2d_48">
      <g>
       <use style="stroke:#000000;stroke-width:0.5;" x="733.640625" xlink:href="#mcb0005524f" y="358.45"/>
      </g>
     </g>
     <g id="text_15">
      <!-- 0.0 -->
      <g transform="translate(68.91625 362.865)scale(0.16 -0.16)">
       <use xlink:href="#BitstreamVeraSans-Roman-30"/>
       <use x="63.623046875" xlink:href="#BitstreamVeraSans-Roman-2e"/>
       <use x="95.41015625" xlink:href="#BitstreamVeraSans-Roman-30"/>
      </g>
     </g>
    </g>
    <g id="ytick_6">
     <g id="line2d_49">
      <path clip-path="url(#p40ac537a30)" d="
M96.2438 278.775
L733.641 278.775" style="fill:none;stroke:#000000;stroke-dasharray:1.000000,3.000000;stroke-dashoffset:0.0;stroke-width:0.5;"/>
     </g>
     <g id="line2d_50">
      <g>
       <use style="stroke:#000000;stroke-width:0.5;" x="96.24375" xlink:href="#m728421d6d4" y="278.775390625"/>
      </g>
     </g>
     <g id="line2d_51">
      <g>
       <use style="stroke:#000000;stroke-width:0.5;" x="733.640625" xlink:href="#mcb0005524f" y="278.775390625"/>
      </g>
     </g>
     <g id="text_16">
      <!-- 0.5 -->
      <g transform="translate(69.25125 283.190390625)scale(0.16 -0.16)">
       <use xlink:href="#BitstreamVeraSans-Roman-30"/>
       <use x="63.623046875" xlink:href="#BitstreamVeraSans-Roman-2e"/>
       <use x="95.41015625" xlink:href="#BitstreamVeraSans-Roman-35"/>
      </g>
     </g>
    </g>
    <g id="ytick_7">
     <g id="line2d_52">
      <path clip-path="url(#p40ac537a30)" d="
M96.2438 199.101
L733.641 199.101" style="fill:none;stroke:#000000;stroke-dasharray:1.000000,3.000000;stroke-dashoffset:0.0;stroke-width:0.5;"/>
     </g>
     <g id="line2d_53">
      <g>
       <use style="stroke:#000000;stroke-width:0.5;" x="96.24375" xlink:href="#m728421d6d4" y="199.10078125"/>
      </g>
     </g>
     <g id="line2d_54">
      <g>
       <use style="stroke:#000000;stroke-width:0.5;" x="733.640625" xlink:href="#mcb0005524f" y="199.10078125"/>
      </g>
     </g>
     <g id="text_17">
      <!-- 1.0 -->
      <g transform="translate(69.61875 203.51578125)scale(0.16 -0.16)">
       <use xlink:href="#BitstreamVeraSans-Roman-31"/>
       <use x="63.623046875" xlink:href="#BitstreamVeraSans-Roman-2e"/>
       <use x="95.41015625" xlink:href="#BitstreamVeraSans-Roman-30"/>
      </g>
     </g>
    </g>
    <g id="ytick_8">
     <g id="line2d_55">
      <path clip-path="url(#p40ac537a30)" d="
M96.2438 119.426
L733.641 119.426" style="fill:none;stroke:#000000;stroke-dasharray:1.000000,3.000000;stroke-dashoffset:0.0;stroke-width:0.5;"/>
     </g>
     <g id="line2d_56">
      <g>
       <use style="stroke:#000000;stroke-width:0.5;" x="96.24375" xlink:href="#m728421d6d4" y="119.426171875"/>
      </g>
     </g>
     <g id="line2d_57">
      <g>
       <use style="stroke:#000000;stroke-width:0.5;" x="733.640625" xlink:href="#mcb0005524f" y="119.426171875"/>
      </g>
     </g>
     <g id="text_18">
      <!-- 1.5 -->
      <g transform="translate(69.95375 123.841171875)scale(0.16 -0.16)">
       <use xlink:href="#BitstreamVeraSans-Roman-31"/>
       <use x="63.623046875" xlink:href="#BitstreamVeraSans-Roman-2e"/>
       <use x="95.41015625" xlink:href="#BitstreamVeraSans-Roman-35"/>
      </g>
     </g>
    </g>
    <g id="ytick_9">
     <g id="line2d_58">
      <path clip-path="url(#p40ac537a30)" d="
M96.2438 39.7516
L733.641 39.7516" style="fill:none;stroke:#000000;stroke-dasharray:1.000000,3.000000;stroke-dashoffset:0.0;stroke-width:0.5;"/>
     </g>
     <g id="line2d_59">
      <g>
       <use style="stroke:#000000;stroke-width:0.5;" x="96.24375" xlink:href="#m728421d6d4" y="39.7515625"/>
      </g>
     </g>
     <g id="line2d_60">
      <g>
       <use style="stroke:#000000;stroke-width:0.5;" x="733.640625" xlink:href="#mcb0005524f" y="39.7515625"/>
      </g>
     </g>
     <g id="text_19">
      <!-- 2.0 -->
      <g transform="translate(69.03375 44.1665625)scale(0.16 -0.16)">
       <use xlink:href="#BitstreamVeraSans-Roman-32"/>
       <use x="63.623046875" xlink:href="#BitstreamVeraSans-Roman-2e"/>
       <use x="95.41015625" xlink:href="#BitstreamVeraSans-Roman-30"/>
      </g>
     </g>
    </g>
    <g id="text_20">
     <!-- $\Im \{s\} = \omega$ -->
     <defs>
      <path d="
M12.1094 -1.125
Q6.45312 -1.125 3.9375 3.01562
Q1.42188 7.17188 1.42188 13.1875
Q1.42188 17.1406 2.125 20.9219
Q2.82812 24.7031 4.26562 28.5781
Q5.71875 32.4688 7.5625 35.8594
Q9.42188 39.2656 11.7188 42.4844
Q12.1562 43.1094 12.8906 43.1094
Q13.5312 43.1094 13.9219 42.7188
Q14.3125 42.3281 14.3125 41.7969
Q14.3125 41.2656 14.0156 40.8281
Q4.89062 28.2656 4.89062 17.6719
Q4.89062 13.0938 7 9.79688
Q9.125 6.5 13.4844 6.5
Q17.2344 6.5 20.4375 8.6875
Q23.6406 10.8906 25.9844 14.3125
Q25.9844 16.0625 26.5938 19.7656
Q27.2031 23.4844 28.4844 26.3906
Q29.7812 29.2969 31.5938 29.2969
Q33.8906 29.2969 33.8906 26.6094
Q33.8906 25.0469 33.2188 22.6719
Q32.5625 20.3125 31.75 18.2656
Q30.9531 16.2188 29.7812 13.625
Q30.9531 6.5 36.9219 6.5
Q40.375 6.5 43.8594 8.5
Q47.3594 10.5 50.0469 13.75
Q52.7344 17 54.2656 20.75
Q55.8125 24.5156 55.8125 27.875
Q55.8125 30.9062 54.8594 32.5938
Q53.9062 34.2812 52.3438 36.125
Q50.7812 37.9844 50.7812 39.1094
Q50.7812 41.0625 52.4375 42.6719
Q54.1094 44.2812 56 44.2812
Q58.4531 44.2812 59.4688 42.0625
Q60.5 39.8438 60.5 37.0156
Q60.5 32.4219 58.6719 25.4375
Q56.8438 18.4531 54.5 13.8125
Q51.2656 7.51562 46.4062 3.1875
Q41.5469 -1.125 35.5 -1.125
Q31.6406 -1.125 29.2656 1.1875
Q26.9062 3.51562 26.2188 7.51562
Q23.4375 3.5625 19.875 1.21875
Q16.3125 -1.125 12.1094 -1.125" id="Cmmi10-21"/>
      <path d="
M6.5 15.7188
Q5.60938 15.7188 5.60938 16.6094
L5.60938 17.4844
Q5.60938 18.3125 6.5 18.3125
L13.4844 18.3125
Q17.625 18.3125 21.0156 16.3594
Q24.4219 14.4062 29.2969 9.85938
Q34.1875 5.32812 36.3281 3.6875
Q38.4844 2.04688 41.8906 1.21875
Q45.0156 1.8125 47.7656 3.54688
Q50.5312 5.28125 52.2188 7.98438
Q53.9062 10.6875 53.9062 13.9219
Q53.9062 16.2656 52.6875 18.0625
Q51.4688 19.875 48.9531 22.4844
Q46.4375 25.0938 45.2656 27.0156
Q44.0938 28.9531 44.0938 31.3906
Q44.0938 34.7656 46.0156 37.4531
Q47.9531 40.1406 51.0781 41.625
Q54.2031 43.1094 57.4219 43.1094
Q60.2031 43.1094 62.9531 41.9688
Q65.7188 40.8281 67.5 38.5938
Q69.2812 36.375 69.2812 33.5
Q69.2812 32.5156 68.5 32.5156
L66.7031 32.5156
Q65.8281 32.5156 65.8281 33.2969
Q65.8281 36.5312 63.25 38.5
Q60.6875 40.4844 57.4219 40.4844
Q54.6875 40.4844 53.7344 37.625
Q52.7812 34.7656 52.7812 31.3906
Q52.7812 29.2031 53.9219 27.4375
Q55.0781 25.6875 57.5625 23.0938
Q60.0625 20.5156 61.3281 18.5
Q62.5938 16.5 62.5938 13.9219
Q62.5938 9.42188 60.0781 6.03125
Q57.5625 2.64062 53.5156 0.75
Q49.4688 -1.125 45.125 -1.125
L38.0938 -1.125
Q33.7344 -1.125 30.2656 0.96875
Q26.8125 3.07812 22.1875 7.25
Q17.5781 11.4219 14.2031 13.5625
Q10.8438 15.7188 6.5 15.7188
M5.60938 51.3125
Q5.60938 55.375 7.35938 58.9844
Q9.125 62.5938 12.1562 65.1562
Q15.1875 67.7188 19.0156 69.1094
Q22.8594 70.5156 26.9062 70.5156
Q32.3281 70.5156 37.5781 68.3125
Q42.8281 66.1094 47.0156 62.2188
Q51.2188 58.3438 54 53.5156
Q54.8906 51.8594 55.6094 50.9688
Q56.3438 50.0938 57.4219 50.0938
Q60.4531 50.0938 63.1406 51.2188
Q65.8281 52.3438 65.8281 54.9844
Q65.8281 55.9062 66.7031 55.9062
L68.5 55.9062
Q69.2812 55.9062 69.2812 54.7812
Q69.2812 50.9844 65.5156 49.25
Q61.7656 47.5156 57.4219 47.5156
Q52.2031 47.5156 48.5625 50.125
Q44.9219 52.7344 40.8125 57.8125
Q36.7188 62.8906 33.8125 65.4062
Q30.9062 67.9219 26.9062 67.9219
Q22.3125 67.9219 18.1562 65.75
Q14.0156 63.5781 11.5469 59.7656
Q9.07812 55.9531 9.07812 51.3125
Q9.07812 46.4844 11.7656 42.6719
Q14.4531 38.875 18.7969 36.7969
Q23.1406 34.7188 27.875 34.7188
Q28.2188 34.7188 28.4688 34.4531
Q28.7188 34.1875 28.7188 33.8906
L28.7188 33.0156
Q28.7188 32.0781 27.6875 32.0781
Q22.2188 32.0781 17.0938 34.5
Q11.9688 36.9219 8.78125 41.3125
Q5.60938 45.7031 5.60938 51.3125" id="Cmsy10-3d"/>
     </defs>
     <g transform="translate(44.24875 418.45)rotate(-90.0)scale(0.3 -0.3)">
      <use transform="translate(0.0 0.705729166667)" xlink:href="#Cmsy10-3d"/>
      <use transform="translate(72.216796875 94.0)" xlink:href="#Cmex10-a9"/>
      <use transform="translate(130.517578125 0.705729166667)" xlink:href="#Cmmi10-73"/>
      <use transform="translate(177.294921875 94.0)" xlink:href="#Cmex10-aa"/>
      <use transform="translate(253.154296875 0.705729166667)" xlink:href="#Cmr10-3d"/>
      <use transform="translate(337.212890625 0.705729166667)" xlink:href="#Cmmi10-21"/>
     </g>
    </g>
   </g>
   <g id="text_21">
    <!-- $z_1$ -->
    <defs>
     <path d="
M9.28125 0
L9.28125 3.51562
Q21.7812 3.51562 21.7812 6.6875
L21.7812 59.1875
Q16.6094 56.6875 8.6875 56.6875
L8.6875 60.2031
Q20.9531 60.2031 27.2031 66.6094
L28.6094 66.6094
Q28.9531 66.6094 29.2656 66.3281
Q29.5938 66.0625 29.5938 65.7188
L29.5938 6.6875
Q29.5938 3.51562 42.0938 3.51562
L42.0938 0
z
" id="Cmr10-31"/>
     <path d="
M4.89062 -1.125
Q4.10938 -1.125 4.10938 -0.203125
Q4.10938 0.296875 4.29688 0.484375
Q6.98438 5.125 10.7656 9.34375
Q14.5469 13.5781 19.3594 17.8906
Q24.1719 22.2188 29.0312 26.5625
Q33.8906 30.9062 36.9219 34.2812
L36.5312 34.2812
Q34.3281 34.2812 30.0781 35.6875
Q25.8281 37.1094 23.3906 37.1094
Q20.75 37.1094 18.25 35.9531
Q15.7656 34.8125 15.0938 32.4219
Q14.9375 31.6875 14.3125 31.6875
L13.0938 31.6875
Q12.3125 31.6875 12.3125 32.7188
L12.3125 33.0156
Q13.0938 35.9375 14.875 38.4688
Q16.6562 41.0156 19.2656 42.5938
Q21.875 44.1875 24.7031 44.1875
Q26.7031 44.1875 28.0156 43.2812
Q29.3438 42.3906 31.0938 40.4844
Q32.8594 38.5781 33.9531 37.75
Q35.0625 36.9219 36.7188 36.9219
Q38.9219 36.9219 40.6562 38.9219
Q42.3906 40.9219 44.0938 43.8906
Q44.3906 44.1875 44.8281 44.1875
L46 44.1875
Q46.3438 44.1875 46.5625 43.9375
Q46.7812 43.7031 46.7812 43.3125
Q46.7812 42.9688 46.5781 42.6719
Q43.8906 38.0312 40.2969 34
Q36.7188 29.9844 30.9219 24.7812
Q25.1406 19.5781 21.1562 15.9844
Q17.1875 12.4062 13.7188 8.59375
Q14.5 8.79688 15.8281 8.79688
Q18.2656 8.79688 22.4844 7.39062
Q26.7031 6 29 6
Q31.5 6 34.0312 7.07812
Q36.5781 8.15625 38.4219 10.1094
Q40.2812 12.0625 40.9219 14.5938
Q41.1562 15.2812 41.7031 15.2812
L42.9219 15.2812
Q43.3125 15.2812 43.5469 14.9688
Q43.7969 14.6562 43.7969 14.3125
Q43.7969 14.2031 43.7031 14.0156
Q42.7812 10.2031 40.4844 6.76562
Q38.1875 3.32812 34.8438 1.09375
Q31.5 -1.125 27.6875 -1.125
Q25.7812 -1.125 24.4531 -0.234375
Q23.1406 0.640625 21.3594 2.5625
Q19.5781 4.5 18.4531 5.34375
Q17.3281 6.20312 15.7188 6.20312
Q10.75 6.20312 6.78125 -0.78125
Q6.45312 -1.125 6.10938 -1.125
z
" id="Cmmi10-7a"/>
    </defs>
    <g transform="translate(574.29140625 406.254765625)scale(0.25 -0.25)">
     <use transform="translate(0.0 0.8125)" xlink:href="#Cmmi10-7a"/>
     <use transform="translate(46.484375 -24.696875)scale(0.7)" xlink:href="#Cmr10-31"/>
    </g>
   </g>
   <g id="text_22">
    <!-- $p_1$ -->
    <defs>
     <path d="
M-2.48438 -19.3906
Q-3.42188 -19.3906 -3.42188 -18.1094
Q-3.07812 -15.9219 -2.09375 -15.9219
Q1.03125 -15.9219 2.26562 -15.3594
Q3.51562 -14.7969 4.20312 -12.5
L15.4844 32.5156
Q16.2188 34.375 16.2188 37.3125
Q16.2188 41.6094 13.2812 41.6094
Q10.1562 41.6094 8.64062 37.8594
Q7.125 34.125 5.71875 28.4219
Q5.71875 27.7812 4.89062 27.7812
L3.71875 27.7812
Q3.46875 27.7812 3.17188 28.1406
Q2.875 28.5156 2.875 28.8125
Q3.95312 33.1562 4.95312 36.1719
Q5.95312 39.2031 8.07812 41.6875
Q10.2031 44.1875 13.375 44.1875
Q16.7969 44.1875 19.375 42.25
Q21.9688 40.3281 22.7031 37.0156
Q25.4375 40.1875 28.75 42.1875
Q32.0781 44.1875 35.5938 44.1875
Q39.7969 44.1875 42.8906 41.9375
Q46 39.7031 47.5625 36.0625
Q49.125 32.4219 49.125 28.2188
Q49.125 21.7812 45.8281 14.8906
Q42.5312 8.01562 36.8906 3.4375
Q31.25 -1.125 24.8125 -1.125
Q21.875 -1.125 19.5 0.53125
Q17.1406 2.20312 15.8281 4.89062
L11.2812 -12.8906
Q11.0312 -14.3594 10.9844 -14.5938
Q10.9844 -15.9219 17.5781 -15.9219
Q18.6094 -15.9219 18.6094 -17.1875
Q18.2656 -18.5 18.0469 -18.9375
Q17.8281 -19.3906 16.8906 -19.3906
z

M24.9062 1.51562
Q28.375 1.51562 31.3438 4.375
Q34.3281 7.23438 36.1875 10.7969
Q37.5469 13.4844 38.7344 17.3594
Q39.9375 21.2344 40.8125 25.625
Q41.7031 30.0312 41.7031 32.625
Q41.7031 34.9062 41.0938 36.9062
Q40.4844 38.9219 39.0938 40.2656
Q37.7031 41.6094 35.4062 41.6094
Q31.7344 41.6094 28.4844 38.9844
Q25.25 36.375 22.6094 32.5156
L22.6094 32.1719
L17.0938 10.1094
Q17.7812 6.54688 19.7344 4.03125
Q21.6875 1.51562 24.9062 1.51562" id="Cmmi10-70"/>
    </defs>
    <g transform="translate(263.560429688 406.254765625)scale(0.25 -0.25)">
     <use transform="translate(0.0 0.8125)" xlink:href="#Cmmi10-70"/>
     <use transform="translate(50.29296875 -24.696875)scale(0.7)" xlink:href="#Cmr10-31"/>
    </g>
   </g>
   <g id="text_23">
    <!-- $j\omega$ -->
    <defs>
     <path d="
M-1.3125 -14.2031
Q-1.3125 -11.7656 0.359375 -9.98438
Q2.04688 -8.20312 4.5 -8.20312
Q6.10938 -8.20312 7.20312 -9.20312
Q8.29688 -10.2031 8.29688 -11.8125
Q8.29688 -13.7188 7.09375 -15.25
Q5.90625 -16.7969 4.10938 -17.2812
Q5.85938 -17.9219 7.625 -17.9219
Q11.8594 -17.9219 14.9844 -13.9844
Q18.1094 -10.0625 19.3906 -5.17188
L28.8125 32.4219
Q29.5 35.2969 29.5 37.3125
Q29.5 41.6094 26.5156 41.6094
Q22.125 41.6094 18.8281 37.625
Q15.5312 33.6406 13.4844 28.4219
Q13.2812 27.7812 12.7031 27.7812
L11.5312 27.7812
Q10.6875 27.7812 10.6875 28.7188
L10.6875 29
Q12.9375 35.0156 17.0781 39.5938
Q21.2344 44.1875 26.7031 44.1875
Q30.8594 44.1875 33.5156 41.5938
Q36.1875 39.0156 36.1875 35.0156
Q36.1875 33.5938 35.8906 32.1719
L26.4219 -5.8125
Q25.3906 -9.85938 22.5 -13.2344
Q19.625 -16.6094 15.625 -18.5625
Q11.625 -20.5156 7.42188 -20.5156
Q4.04688 -20.5156 1.35938 -18.8906
Q-1.3125 -17.2812 -1.3125 -14.2031
M30.3281 60.5938
Q30.3281 62.7969 32.0312 64.4531
Q33.7344 66.1094 35.8906 66.1094
Q37.5938 66.1094 38.6875 65.0625
Q39.7969 64.0156 39.7969 62.4062
Q39.7969 60.1562 38.0156 58.4688
Q36.2344 56.7812 34.0781 56.7812
Q32.4688 56.7812 31.3906 57.9062
Q30.3281 59.0312 30.3281 60.5938" id="Cmmi10-6a"/>
    </defs>
    <g transform="translate(367.137421875 119.426171875)scale(0.25 -0.25)">
     <use transform="translate(0.0 0.890625)" xlink:href="#Cmmi10-6a"/>
     <use transform="translate(41.11328125 0.890625)" xlink:href="#Cmmi10-21"/>
    </g>
   </g>
   <g id="text_24">
    <!-- $\left|j\omega - z_1\right|$ -->
    <defs>
     <path d="
M11.9219 -23.1875
L11.9219 73.1875
Q11.9219 73.9688 12.5 74.4844
Q13.0938 75 13.9219 75
Q14.6562 75 15.2812 74.4844
Q15.9219 73.9688 15.9219 73.1875
L15.9219 -23.1875
Q15.9219 -23.9688 15.2812 -24.4844
Q14.6562 -25 13.9219 -25
Q13.0938 -25 12.5 -24.4844
Q11.9219 -23.9688 11.9219 -23.1875" id="Cmsy10-6a"/>
     <path d="
M10.2031 23
Q9.375 23 8.82812 23.625
Q8.29688 24.2656 8.29688 25
Q8.29688 25.7344 8.82812 26.3594
Q9.375 27 10.2031 27
L67.5781 27
Q68.3594 27 68.875 26.3594
Q69.3906 25.7344 69.3906 25
Q69.3906 24.2656 68.875 23.625
Q68.3594 23 67.5781 23
z
" id="Cmsy10-a1"/>
    </defs>
    <g transform="translate(478.681875 199.10078125)scale(0.25 -0.25)">
     <use transform="translate(0.0 -1.7125)scale(0.9161875)" xlink:href="#Cmsy10-6a"/>
     <use transform="translate(25.3625488281 0.890625)" xlink:href="#Cmmi10-6a"/>
     <use transform="translate(66.4758300781 0.890625)" xlink:href="#Cmmi10-21"/>
     <use transform="translate(128.682861328 0.890625)" xlink:href="#Cmsy10-a1"/>
     <use transform="translate(206.368408203 0.890625)" xlink:href="#Cmmi10-7a"/>
     <use transform="translate(252.852783203 -24.61875)scale(0.7)" xlink:href="#Cmr10-31"/>
     <use transform="translate(302.852783203 -1.7125)scale(0.9161875)" xlink:href="#Cmsy10-6a"/>
    </g>
   </g>
   <g id="text_25">
    <!-- $\left|j\omega - p_1\right|$ -->
    <g transform="translate(271.527890625 199.10078125)scale(0.25 -0.25)">
     <use transform="translate(0.0 -1.7125)scale(0.9161875)" xlink:href="#Cmsy10-6a"/>
     <use transform="translate(25.3625488281 0.890625)" xlink:href="#Cmmi10-6a"/>
     <use transform="translate(66.4758300781 0.890625)" xlink:href="#Cmmi10-21"/>
     <use transform="translate(128.682861328 0.890625)" xlink:href="#Cmsy10-a1"/>
     <use transform="translate(206.368408203 0.890625)" xlink:href="#Cmmi10-70"/>
     <use transform="translate(256.661376953 -24.61875)scale(0.7)" xlink:href="#Cmr10-31"/>
     <use transform="translate(306.661376953 -1.7125)scale(0.9161875)" xlink:href="#Cmsy10-6a"/>
    </g>
   </g>
   <g id="text_26">
    <!-- $\angle (j\omega - z_1)$ -->
    <defs>
     <path d="
M31 -24.8125
Q25.4375 -20.4062 21.4062 -14.7188
Q17.3906 -9.03125 14.8125 -2.57812
Q12.25 3.85938 10.9844 10.8906
Q9.71875 17.9219 9.71875 25
Q9.71875 32.1719 10.9844 39.2031
Q12.25 46.2344 14.8594 52.7344
Q17.4844 59.2344 21.5312 64.8906
Q25.5938 70.5625 31 74.8125
Q31 75 31.5 75
L32.4219 75
Q32.7188 75 32.9531 74.7344
Q33.2031 74.4688 33.2031 74.125
Q33.2031 73.6875 33.0156 73.4844
Q28.125 68.7031 24.875 63.2344
Q21.625 57.7656 19.6406 51.5781
Q17.6719 45.4062 16.7969 38.7812
Q15.9219 32.1719 15.9219 25
Q15.9219 -6.78125 32.9062 -23.2969
Q33.2031 -23.5781 33.2031 -24.125
Q33.2031 -24.3594 32.9375 -24.6719
Q32.6719 -25 32.4219 -25
L31.5 -25
Q31 -25 31 -24.8125" id="Cmr10-28"/>
     <path d="
M6.5 -25
Q5.60938 -25 5.60938 -24.125
Q5.60938 -23.6875 5.8125 -23.4844
Q22.9062 -6.78125 22.9062 25
Q22.9062 56.7812 6 73.2969
Q5.60938 73.5312 5.60938 74.125
Q5.60938 74.4688 5.875 74.7344
Q6.15625 75 6.5 75
L7.42188 75
Q7.71875 75 7.90625 74.8125
Q15.0938 69.1406 19.875 61.0312
Q24.6562 52.9375 26.875 43.75
Q29.1094 34.5781 29.1094 25
Q29.1094 17.9219 27.9062 11.0625
Q26.7031 4.20312 24.0938 -2.45312
Q21.4844 -9.125 17.4844 -14.7656
Q13.4844 -20.4062 7.90625 -24.8125
Q7.71875 -25 7.42188 -25
z
" id="Cmr10-29"/>
     <path d="
M64.2969 0
L2.29688 0
L56.9062 54.7031
L61.9062 50.5
L18.2031 6.59375
L64.2969 6.59375
z
" id="STIXGeneral-Regular-2220"/>
    </defs>
    <g transform="translate(598.193789062 318.612695312)scale(0.25 -0.25)">
     <use xlink:href="#STIXGeneral-Regular-2220"/>
     <use transform="translate(68.4999847412 0.0)" xlink:href="#Cmr10-28"/>
     <use transform="translate(107.318344116 0.0)" xlink:href="#Cmmi10-6a"/>
     <use transform="translate(148.431625366 0.0)" xlink:href="#Cmmi10-21"/>
     <use transform="translate(210.638656616 0.0)" xlink:href="#Cmsy10-a1"/>
     <use transform="translate(288.324203491 0.0)" xlink:href="#Cmmi10-7a"/>
     <use transform="translate(334.808578491 -25.509375)scale(0.7)" xlink:href="#Cmr10-31"/>
     <use transform="translate(384.808578491 0.0)" xlink:href="#Cmr10-29"/>
    </g>
   </g>
   <g id="text_27">
    <!-- $\angle (j\omega - p_1)$ -->
    <g transform="translate(335.267578125 334.547617188)scale(0.25 -0.25)">
     <use xlink:href="#STIXGeneral-Regular-2220"/>
     <use transform="translate(68.4999847412 0.0)" xlink:href="#Cmr10-28"/>
     <use transform="translate(107.318344116 0.0)" xlink:href="#Cmmi10-6a"/>
     <use transform="translate(148.431625366 0.0)" xlink:href="#Cmmi10-21"/>
     <use transform="translate(210.638656616 0.0)" xlink:href="#Cmsy10-a1"/>
     <use transform="translate(288.324203491 0.0)" xlink:href="#Cmmi10-70"/>
     <use transform="translate(338.617172241 -25.509375)scale(0.7)" xlink:href="#Cmr10-31"/>
     <use transform="translate(388.617172241 0.0)" xlink:href="#Cmr10-29"/>
    </g>
   </g>
   <g id="text_28">
    <!-- $A$ -->
    <defs>
     <path d="
M4.5 0
Q3.51562 0 3.51562 1.3125
Q3.90625 3.51562 4.78125 3.51562
Q8.84375 3.51562 11.7969 5.125
Q14.75 6.73438 16.8906 10.1094
Q17.0938 10.2969 17.0938 10.2969
L52.7812 70.5156
Q53.5625 71.5781 54.6875 71.5781
L56 71.5781
Q56.2969 71.5781 56.5938 71.4531
Q56.8906 71.3438 57.1094 71.0625
Q57.3281 70.7969 57.3281 70.5156
L63.375 5.90625
Q63.375 5.46875 63.8125 4.59375
Q64.7969 3.51562 71.2969 3.51562
Q72.3125 3.51562 72.3125 2.20312
Q71.9688 0.875 71.75 0.4375
Q71.5312 0 70.6094 0
L45.6094 0
Q44.6719 0 44.6719 1.3125
Q45.2188 3.51562 46 3.51562
Q53.9062 3.51562 54.3906 6.20312
L52.875 22.7031
L28.2188 22.7031
L20.2188 9.28125
Q19.4844 8.20312 19.4844 6.78125
Q19.4844 5.03125 21.1719 4.26562
Q22.8594 3.51562 24.9062 3.51562
Q25.875 3.51562 25.875 2.20312
Q25.5312 0.78125 25.3281 0.390625
Q25.1406 0 24.2188 0
z

M30.1719 26.2188
L52.4844 26.2188
L49.5156 58.5938
z
" id="Cmmi10-41"/>
    </defs>
    <g transform="translate(542.4215625 390.31984375)scale(0.25 -0.25)">
     <use transform="translate(0.0 0.421875)" xlink:href="#Cmmi10-41"/>
    </g>
   </g>
   <g id="text_29">
    <!-- $B$ -->
    <defs>
     <path d="
M4.98438 0
Q4 0 4 1.3125
Q4.04688 1.5625 4.1875 2.14062
Q4.34375 2.73438 4.57812 3.125
Q4.82812 3.51562 5.32812 3.51562
Q8.15625 3.51562 10.25 3.65625
Q12.3594 3.8125 13.8125 4.20312
Q14.9844 4.64062 15.7188 6.89062
L29.3906 61.8125
Q29.5938 62.7969 29.5938 63.1875
Q29.5938 64.2656 28.4219 64.4062
Q26.5156 64.7969 21.1875 64.7969
Q20.2188 64.7969 20.2188 66.1094
Q20.2656 66.3594 20.4062 66.9688
Q20.5625 67.5781 20.8281 67.9375
Q21.0938 68.3125 21.4844 68.3125
L57.3281 68.3125
Q60.5938 68.3125 63.7969 67.5
Q67 66.7031 69.7031 64.9375
Q72.4062 63.1875 74 60.5625
Q75.5938 57.9531 75.5938 54.5
Q75.5938 50.7344 73.6562 47.5
Q71.7344 44.2812 68.6719 41.8906
Q65.625 39.5 62.0781 37.9531
Q58.5469 36.4219 54.6875 35.6875
Q57.4219 35.6875 60.2188 34.6094
Q63.0312 33.5469 65.2344 31.6875
Q67.4375 29.8281 68.7812 27.2344
Q70.125 24.6562 70.125 21.6875
Q70.125 15.6719 65.9219 10.6875
Q61.7188 5.71875 55.3438 2.85938
Q48.9688 0 43.0156 0
z

M23.3906 4.29688
Q23.3906 3.51562 26.8125 3.51562
L41.1094 3.51562
Q46 3.51562 50.4844 6.21875
Q54.9844 8.9375 57.6875 13.4219
Q60.4062 17.9219 60.4062 22.7969
Q60.4062 25.7812 59.1562 28.4375
Q57.9062 31.1094 55.5625 32.6406
Q53.2188 34.1875 50.2031 34.1875
L30.7188 34.1875
L23.7812 6.5
Q23.3906 5.125 23.3906 4.29688
M31.3906 36.8125
L46.5781 36.8125
Q51.375 36.8125 55.8906 39.25
Q60.4062 41.7031 63.25 45.8906
Q66.1094 50.0938 66.1094 54.7812
Q66.1094 59.125 63.3906 61.9531
Q60.6875 64.7969 56.3906 64.7969
L42.6719 64.7969
Q39.9844 64.7969 39.0625 64.2969
Q38.1406 63.8125 37.5 61.375
z
" id="Cmmi10-42"/>
    </defs>
    <g transform="translate(295.430273437 390.31984375)scale(0.25 -0.25)">
     <use transform="translate(0.0 0.6875)" xlink:href="#Cmmi10-42"/>
    </g>
   </g>
   <g id="text_30">
    <!-- $C$ -->
    <defs>
     <path d="
M14.5938 21.5781
Q14.5938 15.5781 16.9062 11.0156
Q19.2344 6.45312 23.6562 3.875
Q28.0781 1.3125 34.0781 1.3125
Q40.375 1.3125 46.2031 4.53125
Q52.0469 7.76562 56.1719 13.1562
Q60.2969 18.5625 61.8125 24.6094
Q62.0156 25.2031 62.5938 25.2031
L63.8125 25.2031
Q64.2031 25.2031 64.4531 24.9219
Q64.7031 24.6562 64.7031 24.3125
Q64.7031 24.2188 64.5938 24.0312
Q62.8906 17.0938 57.9844 11.0156
Q53.0781 4.9375 46.2344 1.35938
Q39.4062 -2.20312 32.1719 -2.20312
Q24.3594 -2.20312 18.1562 1.3125
Q11.9688 4.82812 8.51562 11.0781
Q5.07812 17.3281 5.07812 25.2031
Q5.07812 33.5938 8.82812 41.8125
Q12.5938 50.0469 18.9375 56.4688
Q25.2969 62.8906 33.4219 66.7031
Q41.5469 70.5156 49.9062 70.5156
Q53.2188 70.5156 56.25 69.5
Q59.2812 68.5 61.8594 66.4531
Q64.4531 64.4062 66.1094 61.7188
L74.0312 70.3125
Q74.0312 70.5156 74.5156 70.5156
L75.0938 70.5156
Q75.4844 70.5156 75.7344 70.1719
Q75.9844 69.8281 75.9844 69.4844
L69.1875 42.4844
Q69.1875 41.7969 68.4062 41.7969
L66.6094 41.7969
Q65.8281 41.7969 65.8281 42.9219
Q66.2188 45.125 66.2188 48.1875
Q66.2188 53.0781 64.5469 57.3906
Q62.8906 61.7188 59.3906 64.3594
Q55.9062 67 50.875 67
Q42.7188 67 35.9375 62.8906
Q29.1562 58.7969 24.4375 52.125
Q19.7344 45.4531 17.1562 37.3281
Q14.5938 29.2031 14.5938 21.5781" id="Cmmi10-43"/>
    </defs>
    <g transform="translate(422.909648437 119.426171875)scale(0.25 -0.25)">
     <use transform="translate(0.0 0.484375)" xlink:href="#Cmmi10-43"/>
    </g>
   </g>
   <g id="text_31">
    <!-- $H(s) = \frac{s+z_1}{s+p_1}$ -->
    <defs>
     <path d="
M7.51562 23
Q6.6875 23 6.14062 23.625
Q5.60938 24.2656 5.60938 25
Q5.60938 25.7344 6.14062 26.3594
Q6.6875 27 7.51562 27
L36.9219 27
L36.9219 56.5
Q36.9219 57.2812 37.5 57.7812
Q38.0938 58.2969 38.9219 58.2969
Q39.6562 58.2969 40.2812 57.7812
Q40.9219 57.2812 40.9219 56.5
L40.9219 27
L70.3125 27
Q71.0469 27 71.5781 26.3594
Q72.125 25.7344 72.125 25
Q72.125 24.2656 71.5781 23.625
Q71.0469 23 70.3125 23
L40.9219 23
L40.9219 -6.5
Q40.9219 -7.28125 40.2812 -7.78125
Q39.6562 -8.29688 38.9219 -8.29688
Q38.0938 -8.29688 37.5 -7.78125
Q36.9219 -7.28125 36.9219 -6.5
L36.9219 23
z
" id="Cmr10-2b"/>
     <path d="
M4.6875 0
Q3.71875 0 3.71875 1.3125
Q3.76562 1.5625 3.90625 2.17188
Q4.04688 2.78125 4.3125 3.14062
Q4.59375 3.51562 4.98438 3.51562
Q11.0781 3.51562 13.4844 4.20312
Q14.7969 4.64062 15.375 6.89062
L29.1094 61.8125
Q29.2969 62.7969 29.2969 63.1875
Q29.2969 64.2656 28.0781 64.4062
Q26.2188 64.7969 20.9062 64.7969
Q19.9219 64.7969 19.9219 66.1094
Q20.2656 67.3906 20.4531 67.8438
Q20.6562 68.3125 21.5781 68.3125
L48.4844 68.3125
Q49.5156 68.3125 49.5156 67
Q49.4688 66.75 49.3125 66.1562
Q49.1719 65.5781 48.9219 65.1875
Q48.6875 64.7969 48.1875 64.7969
Q42.0938 64.7969 39.7031 64.1094
Q38.375 63.625 37.7969 61.375
L31.7812 37.3125
L61.8125 37.3125
L67.9219 61.8125
Q68.1094 62.7969 68.1094 63.1875
Q68.1094 64.2656 66.8906 64.4062
Q64.9844 64.7969 59.7188 64.7969
Q58.6875 64.7969 58.6875 66.1094
Q59.0312 67.3906 59.2188 67.8438
Q59.4219 68.3125 60.4062 68.3125
L87.3125 68.3125
Q88.2812 68.3125 88.2812 67
Q88.2344 66.75 88.0781 66.1406
Q87.9375 65.5312 87.6719 65.1562
Q87.4062 64.7969 87.0156 64.7969
Q80.9062 64.7969 78.5156 64.1094
Q77.2031 63.6719 76.6094 61.375
L62.8906 6.5
Q62.7031 5.51562 62.7031 5.07812
Q62.7031 4.04688 63.9219 3.90625
Q65.8281 3.51562 71.0938 3.51562
Q72.125 3.51562 72.125 2.20312
Q71.8281 1.03125 71.5312 0.515625
Q71.2344 0 70.4062 0
L43.5 0
Q42.4844 0 42.4844 1.3125
Q42.6719 2.04688 42.7656 2.39062
Q42.875 2.73438 43.1406 3.125
Q43.4062 3.51562 43.7969 3.51562
Q49.9062 3.51562 52.2969 4.20312
Q53.6094 4.64062 54.2031 6.89062
L60.8906 33.7969
L30.9062 33.7969
L24.125 6.5
Q23.875 5.28125 23.875 5.07812
Q23.875 4.04688 25.0938 3.90625
Q27 3.51562 32.3281 3.51562
Q33.2969 3.51562 33.2969 2.20312
Q32.9531 0.875 32.7344 0.4375
Q32.5156 0 31.5938 0
z
" id="Cmmi10-48"/>
    </defs>
    <g transform="translate(136.081054688 119.426171875)scale(0.25 -0.25)">
     <use transform="translate(0.0 0.835625)" xlink:href="#Cmmi10-48"/>
     <use transform="translate(83.10546875 0.835625)" xlink:href="#Cmr10-28"/>
     <use transform="translate(121.923828125 0.835625)" xlink:href="#Cmmi10-73"/>
     <use transform="translate(168.701171875 0.835625)" xlink:href="#Cmr10-29"/>
     <use transform="translate(225.078125 0.835625)" xlink:href="#Cmr10-3d"/>
     <use transform="translate(310.13671875 56.1921875)scale(0.7)" xlink:href="#Cmmi10-73"/>
     <use transform="translate(355.171875 56.1921875)scale(0.7)" xlink:href="#Cmr10-2b"/>
     <use transform="translate(414.012890625 56.1921875)scale(0.7)" xlink:href="#Cmmi10-7a"/>
     <use transform="translate(446.551953125 38.335625)scale(0.49)" xlink:href="#Cmr10-31"/>
     <use transform="translate(309.13671875 -33.7221875)scale(0.7)" xlink:href="#Cmmi10-73"/>
     <use transform="translate(354.171875 -33.7221875)scale(0.7)" xlink:href="#Cmr10-2b"/>
     <use transform="translate(413.012890625 -33.7221875)scale(0.7)" xlink:href="#Cmmi10-70"/>
     <use transform="translate(448.21796875 -51.57875)scale(0.49)" xlink:href="#Cmr10-31"/>
     <path d="
M309.137 13.3356
L309.137 19.5856
L483.218 19.5856
L483.218 13.3356
L309.137 13.3356
z
"/>
    </g>
   </g>
   <g id="text_32">
    <!-- $\left|H(\omega)\right| = \frac{\left|j\omega+z_1\right|}{\left|j\omega+p_1\right|}=\frac{\left|\overline{AC}\right|}{\left|\overline{BC}\right|}$ -->
    <g transform="translate(136.081054688 517.79921875)scale(0.25 -0.25)">
     <use transform="translate(0.0 0.5171875)" xlink:href="#Cmsy10-6a"/>
     <use transform="translate(27.685546875 0.5171875)" xlink:href="#Cmmi10-48"/>
     <use transform="translate(110.791015625 0.5171875)" xlink:href="#Cmr10-28"/>
     <use transform="translate(149.609375 0.5171875)" xlink:href="#Cmmi10-21"/>
     <use transform="translate(211.81640625 0.5171875)" xlink:href="#Cmr10-29"/>
     <use transform="translate(250.634765625 0.5171875)" xlink:href="#Cmsy10-6a"/>
     <use transform="translate(295.87890625 0.5171875)" xlink:href="#Cmr10-3d"/>
     <use transform="translate(380.9375 54.0515625)scale(0.64133125)" xlink:href="#Cmsy10-6a"/>
     <use transform="translate(398.69128418 55.87375)scale(0.7)" xlink:href="#Cmmi10-6a"/>
     <use transform="translate(427.470581055 55.87375)scale(0.7)" xlink:href="#Cmmi10-21"/>
     <use transform="translate(483.306518555 55.87375)scale(0.7)" xlink:href="#Cmr10-2b"/>
     <use transform="translate(542.14753418 55.87375)scale(0.7)" xlink:href="#Cmmi10-7a"/>
     <use transform="translate(574.68659668 38.0171875)scale(0.49)" xlink:href="#Cmr10-31"/>
     <use transform="translate(609.68659668 54.0515625)scale(0.64133125)" xlink:href="#Cmsy10-6a"/>
     <use transform="translate(379.9375 -41.3315625)scale(0.64133125)" xlink:href="#Cmsy10-6a"/>
     <use transform="translate(397.69128418 -39.509375)scale(0.7)" xlink:href="#Cmmi10-6a"/>
     <use transform="translate(426.470581055 -39.509375)scale(0.7)" xlink:href="#Cmmi10-21"/>
     <use transform="translate(482.306518555 -39.509375)scale(0.7)" xlink:href="#Cmr10-2b"/>
     <use transform="translate(541.14753418 -39.509375)scale(0.7)" xlink:href="#Cmmi10-70"/>
     <use transform="translate(576.352612305 -57.3659375)scale(0.49)" xlink:href="#Cmr10-31"/>
     <use transform="translate(611.352612305 -41.3315625)scale(0.64133125)" xlink:href="#Cmsy10-6a"/>
     <use transform="translate(659.164990234 0.5171875)" xlink:href="#Cmr10-3d"/>
     <use transform="translate(743.223583984 55.265625)scale(0.68971875)" xlink:href="#Cmsy10-6a"/>
     <use transform="translate(762.318824768 39.509375)scale(0.7)" xlink:href="#Cmmi10-41"/>
     <use transform="translate(814.818824768 39.509375)scale(0.7)" xlink:href="#Cmmi10-43"/>
     <use transform="translate(864.789527893 55.265625)scale(0.68971875)" xlink:href="#Cmsy10-6a"/>
     <use transform="translate(743.223583984 -44.409375)scale(0.68228125)" xlink:href="#Cmsy10-6a"/>
     <use transform="translate(762.112913513 -59.9796875)scale(0.7)" xlink:href="#Cmmi10-42"/>
     <use transform="translate(815.159788513 -59.9796875)scale(0.7)" xlink:href="#Cmmi10-43"/>
     <use transform="translate(865.130491638 -44.409375)scale(0.68228125)" xlink:href="#Cmsy10-6a"/>
     <path d="
M379.938 13.0172
L379.938 19.2672
L629.106 19.2672
L629.106 13.0172
L379.938 13.0172
z
"/>
     <path d="
M762.319 98.2391
L762.319 102.614
L864.79 102.614
L864.79 98.2391
L762.319 98.2391
z
"/>
     <path d="
M743.224 13.0172
L743.224 19.2672
L884.02 19.2672
L884.02 13.0172
L743.224 13.0172
z
"/>
     <path d="
M762.113 -1.99375
L762.113 2.38125
L865.13 2.38125
L865.13 -1.99375
L762.113 -1.99375
z
"/>
    </g>
   </g>
   <g id="text_33">
    <!-- $\angle H(\omega) = \angle (j\omega+z_1) - \angle (j\omega+p_1) = (\pi - \angle BAC) - \angle ABC$ -->
    <defs>
     <path d="
M10.1094 1.70312
Q10.1094 2.25 10.5 3.32812
Q13.2812 9.125 15.6875 14.7188
Q18.1094 20.3125 20.0312 25.6094
Q21.9688 30.9062 23.5781 36.9219
L17.1875 36.9219
Q13.5312 36.9219 10.3438 34.625
Q7.17188 32.3281 5.07812 28.8125
Q4.89062 28.4219 4.5 28.4219
L3.32812 28.4219
Q2.39062 28.4219 2.39062 29.3906
Q2.39062 29.5938 2.59375 29.9844
Q5.85938 35.5469 9.59375 39.3281
Q13.3281 43.1094 18.0156 43.1094
L54.2969 43.1094
Q55.3281 43.1094 56.0469 42.4219
Q56.7812 41.75 56.7812 40.5781
Q56.7812 39.1094 55.7344 38.0156
Q54.6875 36.9219 53.2188 36.9219
L40.4844 36.9219
Q38.875 29.0469 38.7188 21.5781
Q38.7188 11.9688 42.0938 4.20312
Q42.3906 3.60938 42.3906 2.98438
Q42.3906 1.90625 41.75 0.96875
Q41.1094 0.046875 40.1094 -0.53125
Q39.1094 -1.125 37.9844 -1.125
Q35.3594 -1.125 34.375 3.17188
Q33.4062 7.46875 33.4062 11.5312
Q33.4062 17.2344 34.375 22.5312
Q35.3594 27.8281 37.5 36.9219
L26.6094 36.9219
Q18.7031 4.89062 17.0938 1.60938
Q15.6719 -1.125 13.1875 -1.125
Q11.9688 -1.125 11.0312 -0.3125
Q10.1094 0.484375 10.1094 1.70312" id="Cmmi10-bc"/>
    </defs>
    <g transform="translate(136.081054688 597.473828125)scale(0.25 -0.25)">
     <use xlink:href="#STIXGeneral-Regular-2220"/>
     <use transform="translate(68.4999847412 0.0)" xlink:href="#Cmmi10-48"/>
     <use transform="translate(151.605453491 0.0)" xlink:href="#Cmr10-28"/>
     <use transform="translate(190.423812866 0.0)" xlink:href="#Cmmi10-21"/>
     <use transform="translate(252.630844116 0.0)" xlink:href="#Cmr10-29"/>
     <use transform="translate(309.007797241 0.0)" xlink:href="#Cmr10-3d"/>
     <use transform="translate(393.066390991 0.0)" xlink:href="#STIXGeneral-Regular-2220"/>
     <use transform="translate(461.566375732 0.0)" xlink:href="#Cmr10-28"/>
     <use transform="translate(500.384735107 0.0)" xlink:href="#Cmmi10-6a"/>
     <use transform="translate(541.498016357 0.0)" xlink:href="#Cmmi10-21"/>
     <use transform="translate(621.263641357 0.0)" xlink:href="#Cmr10-2b"/>
     <use transform="translate(705.322235107 0.0)" xlink:href="#Cmmi10-7a"/>
     <use transform="translate(751.806610107 -25.509375)scale(0.7)" xlink:href="#Cmr10-31"/>
     <use transform="translate(801.806610107 0.0)" xlink:href="#Cmr10-29"/>
     <use transform="translate(840.624969482 0.0)" xlink:href="#Cmsy10-a1"/>
     <use transform="translate(918.310516357 0.0)" xlink:href="#STIXGeneral-Regular-2220"/>
     <use transform="translate(986.810501099 0.0)" xlink:href="#Cmr10-28"/>
     <use transform="translate(1025.62886047 0.0)" xlink:href="#Cmmi10-6a"/>
     <use transform="translate(1066.74214172 0.0)" xlink:href="#Cmmi10-21"/>
     <use transform="translate(1146.50776672 0.0)" xlink:href="#Cmr10-2b"/>
     <use transform="translate(1230.56636047 0.0)" xlink:href="#Cmmi10-70"/>
     <use transform="translate(1280.85932922 -25.509375)scale(0.7)" xlink:href="#Cmr10-31"/>
     <use transform="translate(1330.85932922 0.0)" xlink:href="#Cmr10-29"/>
     <use transform="translate(1387.23628235 0.0)" xlink:href="#Cmr10-3d"/>
     <use transform="translate(1471.2948761 0.0)" xlink:href="#Cmr10-28"/>
     <use transform="translate(1510.11323547 0.0)" xlink:href="#Cmmi10-bc"/>
     <use transform="translate(1567.09565735 0.0)" xlink:href="#Cmsy10-a1"/>
     <use transform="translate(1644.78120422 0.0)" xlink:href="#STIXGeneral-Regular-2220"/>
     <use transform="translate(1713.28118896 0.0)" xlink:href="#Cmmi10-42"/>
     <use transform="translate(1789.06243896 0.0)" xlink:href="#Cmmi10-41"/>
     <use transform="translate(1864.06243896 0.0)" xlink:href="#Cmmi10-43"/>
     <use transform="translate(1935.44915771 0.0)" xlink:href="#Cmr10-29"/>
     <use transform="translate(1974.26751709 0.0)" xlink:href="#Cmsy10-a1"/>
     <use transform="translate(2051.95306396 0.0)" xlink:href="#STIXGeneral-Regular-2220"/>
     <use transform="translate(2120.45304871 0.0)" xlink:href="#Cmmi10-41"/>
     <use transform="translate(2195.45304871 0.0)" xlink:href="#Cmmi10-42"/>
     <use transform="translate(2271.23429871 0.0)" xlink:href="#Cmmi10-43"/>
    </g>
   </g>
   <g id="text_34">
    <!-- $s$ plane -->
    <defs>
     <path id="BitstreamVeraSans-Roman-20"/>
     <path d="
M54.8906 33.0156
L54.8906 0
L45.9062 0
L45.9062 32.7188
Q45.9062 40.4844 42.875 44.3281
Q39.8438 48.1875 33.7969 48.1875
Q26.5156 48.1875 22.3125 43.5469
Q18.1094 38.9219 18.1094 30.9062
L18.1094 0
L9.07812 0
L9.07812 54.6875
L18.1094 54.6875
L18.1094 46.1875
Q21.3438 51.125 25.7031 53.5625
Q30.0781 56 35.7969 56
Q45.2188 56 50.0469 50.1719
Q54.8906 44.3438 54.8906 33.0156" id="BitstreamVeraSans-Roman-6e"/>
     <path d="
M9.42188 75.9844
L18.4062 75.9844
L18.4062 0
L9.42188 0
z
" id="BitstreamVeraSans-Roman-6c"/>
     <path d="
M56.2031 29.5938
L56.2031 25.2031
L14.8906 25.2031
Q15.4844 15.9219 20.4844 11.0625
Q25.4844 6.20312 34.4219 6.20312
Q39.5938 6.20312 44.4531 7.46875
Q49.3125 8.73438 54.1094 11.2812
L54.1094 2.78125
Q49.2656 0.734375 44.1875 -0.34375
Q39.1094 -1.42188 33.8906 -1.42188
Q20.7969 -1.42188 13.1562 6.1875
Q5.51562 13.8125 5.51562 26.8125
Q5.51562 40.2344 12.7656 48.1094
Q20.0156 56 32.3281 56
Q43.3594 56 49.7812 48.8906
Q56.2031 41.7969 56.2031 29.5938
M47.2188 32.2344
Q47.125 39.5938 43.0938 43.9844
Q39.0625 48.3906 32.4219 48.3906
Q24.9062 48.3906 20.3906 44.1406
Q15.875 39.8906 15.1875 32.1719
z
" id="BitstreamVeraSans-Roman-65"/>
     <path d="
M34.2812 27.4844
Q23.3906 27.4844 19.1875 25
Q14.9844 22.5156 14.9844 16.5
Q14.9844 11.7188 18.1406 8.90625
Q21.2969 6.10938 26.7031 6.10938
Q34.1875 6.10938 38.7031 11.4062
Q43.2188 16.7031 43.2188 25.4844
L43.2188 27.4844
z

M52.2031 31.2031
L52.2031 0
L43.2188 0
L43.2188 8.29688
Q40.1406 3.32812 35.5469 0.953125
Q30.9531 -1.42188 24.3125 -1.42188
Q15.9219 -1.42188 10.9531 3.29688
Q6 8.01562 6 15.9219
Q6 25.1406 12.1719 29.8281
Q18.3594 34.5156 30.6094 34.5156
L43.2188 34.5156
L43.2188 35.4062
Q43.2188 41.6094 39.1406 45
Q35.0625 48.3906 27.6875 48.3906
Q23 48.3906 18.5469 47.2656
Q14.1094 46.1406 10.0156 43.8906
L10.0156 52.2031
Q14.9375 54.1094 19.5781 55.0469
Q24.2188 56 28.6094 56
Q40.4844 56 46.3438 49.8438
Q52.2031 43.7031 52.2031 31.2031" id="BitstreamVeraSans-Roman-61"/>
     <path d="
M18.1094 8.20312
L18.1094 -20.7969
L9.07812 -20.7969
L9.07812 54.6875
L18.1094 54.6875
L18.1094 46.3906
Q20.9531 51.2656 25.2656 53.625
Q29.5938 56 35.5938 56
Q45.5625 56 51.7812 48.0938
Q58.0156 40.1875 58.0156 27.2969
Q58.0156 14.4062 51.7812 6.48438
Q45.5625 -1.42188 35.5938 -1.42188
Q29.5938 -1.42188 25.2656 0.953125
Q20.9531 3.32812 18.1094 8.20312
M48.6875 27.2969
Q48.6875 37.2031 44.6094 42.8438
Q40.5312 48.4844 33.4062 48.4844
Q26.2656 48.4844 22.1875 42.8438
Q18.1094 37.2031 18.1094 27.2969
Q18.1094 17.3906 22.1875 11.75
Q26.2656 6.10938 33.4062 6.10938
Q40.5312 6.10938 44.6094 11.75
Q48.6875 17.3906 48.6875 27.2969" id="BitstreamVeraSans-Roman-70"/>
    </defs>
    <g transform="translate(370.3171875 32.4)scale(0.25 -0.25)">
     <use transform="translate(0.0 0.015625)" xlink:href="#Cmmi10-73"/>
     <use transform="translate(46.77734375 0.015625)" xlink:href="#BitstreamVeraSans-Roman-20"/>
     <use transform="translate(78.564453125 0.015625)" xlink:href="#BitstreamVeraSans-Roman-70"/>
     <use transform="translate(142.041015625 0.015625)" xlink:href="#BitstreamVeraSans-Roman-6c"/>
     <use transform="translate(169.82421875 0.015625)" xlink:href="#BitstreamVeraSans-Roman-61"/>
     <use transform="translate(231.103515625 0.015625)" xlink:href="#BitstreamVeraSans-Roman-6e"/>
     <use transform="translate(294.482421875 0.015625)" xlink:href="#BitstreamVeraSans-Roman-65"/>
    </g>
   </g>
  </g>
 </g>
 <defs>
  <clipPath id="p40ac537a30">
   <rect height="642.1" width="637.396875" x="96.24375" y="37.4"/>
  </clipPath>
 </defs>
</svg>
