<?xml version="1.0" encoding="utf-8" standalone="no"?>
<!DOCTYPE svg PUBLIC "-//W3C//DTD SVG 1.1//EN"
  "http://www.w3.org/Graphics/SVG/1.1/DTD/svg11.dtd">
<!-- Created with matplotlib (http://matplotlib.org/) -->
<svg height="432pt" version="1.1" viewBox="0 0 1224 432" width="1224pt" xmlns="http://www.w3.org/2000/svg" xmlns:xlink="http://www.w3.org/1999/xlink">
 <defs>
  <style type="text/css">
*{stroke-linecap:butt;stroke-linejoin:round;}
  </style>
 </defs>
 <g id="figure_1">
  <g id="patch_1">
   <path d="
M0 432
L1224 432
L1224 0
L0 0
z
" style="fill:#ffffff;"/>
  </g>
  <g id="axes_1">
   <g id="patch_2">
    <path d="
M38.7531 184.7
L593.477 184.7
L593.477 37.4
L38.7531 37.4
z
" style="fill:#eaeaf2;"/>
   </g>
   <g id="matplotlib.axis_1">
    <g id="xtick_1">
     <g id="line2d_1">
      <path clip-path="url(#p018a847e64)" d="
M38.7531 184.7
L38.7531 37.4" style="fill:none;stroke:#ffffff;stroke-linecap:round;"/>
     </g>
     <g id="line2d_2">
      <defs>
       <path d="
M0 0
L0 0" id="m219da94a98" style="stroke:#262626;"/>
      </defs>
      <g>
       <use style="fill:#262626;stroke:#262626;" x="38.753125" xlink:href="#m219da94a98" y="184.7"/>
      </g>
     </g>
     <g id="line2d_3">
      <g>
       <use style="fill:#262626;stroke:#262626;" x="38.753125" xlink:href="#m219da94a98" y="37.4"/>
      </g>
     </g>
     <g id="text_1">
      <!-- −2.0 -->
      <defs>
       <path d="
M4.9375 29.6875
L4.9375 36.8125
L53.5156 36.8125
L53.5156 29.6875
z
" id="LiberationSans-2212"/>
       <path d="
M51.7031 34.4219
Q51.7031 24.5156 49.8281 17.75
Q47.9531 10.9844 44.7031 6.8125
Q41.4531 2.64062 37.0625 0.828125
Q32.6719 -0.984375 27.6875 -0.984375
Q22.6562 -0.984375 18.3125 0.828125
Q13.9688 2.64062 10.7656 6.78125
Q7.5625 10.9375 5.73438 17.7031
Q3.90625 24.4688 3.90625 34.4219
Q3.90625 44.8281 5.73438 51.6406
Q7.5625 58.4531 10.7812 62.5
Q14.0156 66.5469 18.4062 68.1875
Q22.7969 69.8281 27.9844 69.8281
Q32.9062 69.8281 37.2188 68.1875
Q41.5469 66.5469 44.7656 62.5
Q48 58.4531 49.8438 51.6406
Q51.7031 44.8281 51.7031 34.4219
M42.7812 34.4219
Q42.7812 42.625 41.7969 48.0625
Q40.8281 53.5156 38.9219 56.7656
Q37.0156 60.0156 34.25 61.3594
Q31.5 62.7031 27.9844 62.7031
Q24.2656 62.7031 21.4375 61.3281
Q18.6094 59.9688 16.6719 56.7188
Q14.75 53.4688 13.7656 48.0156
Q12.7969 42.5781 12.7969 34.4219
Q12.7969 26.5156 13.7969 21.0938
Q14.7969 15.6719 16.7188 12.375
Q18.6562 9.07812 21.4375 7.64062
Q24.2188 6.20312 27.7812 6.20312
Q31.25 6.20312 34.0312 7.64062
Q36.8125 9.07812 38.7344 12.375
Q40.6719 15.6719 41.7188 21.0938
Q42.7812 26.5156 42.7812 34.4219" id="LiberationSans-30"/>
       <path d="
M5.03125 0
L5.03125 6.20312
Q7.51562 11.9219 11.1094 16.2812
Q14.7031 20.6562 18.6562 24.1875
Q22.6094 27.7344 26.4844 30.7656
Q30.375 33.7969 33.5 36.8125
Q36.625 39.8438 38.5469 43.1562
Q40.4844 46.4844 40.4844 50.6875
Q40.4844 53.6094 39.5938 55.8281
Q38.7188 58.0625 37.0625 59.5625
Q35.4062 61.0781 33.0781 61.8281
Q30.7656 62.5938 27.9375 62.5938
Q25.2969 62.5938 22.9688 61.8594
Q20.6562 61.1406 18.8438 59.6719
Q17.0469 58.2031 15.8906 56.0312
Q14.75 53.8594 14.4062 50.9844
L5.42188 51.8125
Q5.85938 55.5156 7.46875 58.7812
Q9.07812 62.0625 11.9062 64.5312
Q14.75 67 18.7188 68.4062
Q22.7031 69.8281 27.9375 69.8281
Q33.0625 69.8281 37.0625 68.6094
Q41.0625 67.3906 43.8125 64.9844
Q46.5781 62.5938 48.0469 59.0781
Q49.5156 55.5625 49.5156 50.9844
Q49.5156 47.5156 48.2656 44.3906
Q47.0156 41.2656 44.9375 38.4219
Q42.875 35.5938 40.1406 32.9531
Q37.4062 30.3281 34.4219 27.8125
Q31.4531 25.2969 28.4219 22.8281
Q25.3906 20.3594 22.7188 17.8594
Q20.0625 15.375 17.9688 12.8125
Q15.875 10.25 14.7031 7.46875
L50.5938 7.46875
L50.5938 0
z
" id="LiberationSans-32"/>
       <path d="
M9.125 0
L9.125 10.6875
L18.6562 10.6875
L18.6562 0
z
" id="LiberationSans-2e"/>
      </defs>
      <g style="fill:#262626;" transform="translate(19.896875 206.19375)scale(0.2 -0.2)">
       <use xlink:href="#LiberationSans-2212"/>
       <use x="58.3984375" xlink:href="#LiberationSans-32"/>
       <use x="114.013671875" xlink:href="#LiberationSans-2e"/>
       <use x="141.796875" xlink:href="#LiberationSans-30"/>
      </g>
     </g>
    </g>
    <g id="xtick_2">
     <g id="line2d_4">
      <path clip-path="url(#p018a847e64)" d="
M108.111 184.7
L108.111 37.4" style="fill:none;stroke:#ffffff;stroke-linecap:round;"/>
     </g>
     <g id="line2d_5">
      <g>
       <use style="fill:#262626;stroke:#262626;" x="108.110990571" xlink:href="#m219da94a98" y="184.7"/>
      </g>
     </g>
     <g id="line2d_6">
      <g>
       <use style="fill:#262626;stroke:#262626;" x="108.110990571" xlink:href="#m219da94a98" y="37.4"/>
      </g>
     </g>
     <g id="text_2">
      <!-- −1.5 -->
      <defs>
       <path d="
M51.4219 22.4062
Q51.4219 17.2344 49.8594 12.9375
Q48.2969 8.64062 45.2188 5.53125
Q42.1406 2.4375 37.5781 0.71875
Q33.0156 -0.984375 27 -0.984375
Q21.5781 -0.984375 17.5469 0.28125
Q13.5312 1.5625 10.7344 3.78125
Q7.95312 6 6.3125 8.98438
Q4.6875 11.9688 4 15.375
L12.8906 16.4062
Q13.4219 14.4531 14.3906 12.625
Q15.375 10.7969 17.0625 9.34375
Q18.75 7.90625 21.2188 7.04688
Q23.6875 6.20312 27.2031 6.20312
Q30.6094 6.20312 33.3906 7.25
Q36.1875 8.29688 38.1562 10.3438
Q40.1406 12.4062 41.2031 15.375
Q42.2812 18.3594 42.2812 22.2188
Q42.2812 25.3906 41.25 28.0469
Q40.2344 30.7188 38.3281 32.6406
Q36.4219 34.5781 33.6562 35.6406
Q30.9062 36.7188 27.3906 36.7188
Q25.2031 36.7188 23.3438 36.3281
Q21.4844 35.9375 19.8906 35.25
Q18.3125 34.5781 17.0156 33.6719
Q15.7188 32.7656 14.5938 31.7812
L6 31.7812
L8.29688 68.7969
L47.4062 68.7969
L47.4062 61.3281
L16.3125 61.3281
L14.9844 39.5
Q17.3281 41.3125 20.8438 42.5938
Q24.3594 43.8906 29.2031 43.8906
Q34.3281 43.8906 38.4219 42.3281
Q42.5312 40.7656 45.4062 37.9062
Q48.2969 35.0625 49.8594 31.1094
Q51.4219 27.1562 51.4219 22.4062" id="LiberationSans-35"/>
       <path d="
M7.625 0
L7.625 7.46875
L25.1406 7.46875
L25.1406 60.4062
L9.625 49.3125
L9.625 57.625
L25.875 68.7969
L33.9844 68.7969
L33.9844 7.46875
L50.7344 7.46875
L50.7344 0
z
" id="LiberationSans-31"/>
      </defs>
      <g style="fill:#262626;" transform="translate(89.2828655714 206.19375)scale(0.2 -0.2)">
       <use xlink:href="#LiberationSans-2212"/>
       <use x="58.3984375" xlink:href="#LiberationSans-31"/>
       <use x="114.013671875" xlink:href="#LiberationSans-2e"/>
       <use x="141.796875" xlink:href="#LiberationSans-35"/>
      </g>
     </g>
    </g>
    <g id="xtick_3">
     <g id="line2d_7">
      <path clip-path="url(#p018a847e64)" d="
M177.469 184.7
L177.469 37.4" style="fill:none;stroke:#ffffff;stroke-linecap:round;"/>
     </g>
     <g id="line2d_8">
      <g>
       <use style="fill:#262626;stroke:#262626;" x="177.468856143" xlink:href="#m219da94a98" y="184.7"/>
      </g>
     </g>
     <g id="line2d_9">
      <g>
       <use style="fill:#262626;stroke:#262626;" x="177.468856143" xlink:href="#m219da94a98" y="37.4"/>
      </g>
     </g>
     <g id="text_3">
      <!-- −1.0 -->
      <g style="fill:#262626;" transform="translate(158.612606143 206.19375)scale(0.2 -0.2)">
       <use xlink:href="#LiberationSans-2212"/>
       <use x="58.3984375" xlink:href="#LiberationSans-31"/>
       <use x="114.013671875" xlink:href="#LiberationSans-2e"/>
       <use x="141.796875" xlink:href="#LiberationSans-30"/>
      </g>
     </g>
    </g>
    <g id="xtick_4">
     <g id="line2d_10">
      <path clip-path="url(#p018a847e64)" d="
M246.827 184.7
L246.827 37.4" style="fill:none;stroke:#ffffff;stroke-linecap:round;"/>
     </g>
     <g id="line2d_11">
      <g>
       <use style="fill:#262626;stroke:#262626;" x="246.826721714" xlink:href="#m219da94a98" y="184.7"/>
      </g>
     </g>
     <g id="line2d_12">
      <g>
       <use style="fill:#262626;stroke:#262626;" x="246.826721714" xlink:href="#m219da94a98" y="37.4"/>
      </g>
     </g>
     <g id="text_4">
      <!-- −0.5 -->
      <g style="fill:#262626;" transform="translate(227.998596714 206.19375)scale(0.2 -0.2)">
       <use xlink:href="#LiberationSans-2212"/>
       <use x="58.3984375" xlink:href="#LiberationSans-30"/>
       <use x="114.013671875" xlink:href="#LiberationSans-2e"/>
       <use x="141.796875" xlink:href="#LiberationSans-35"/>
      </g>
     </g>
    </g>
    <g id="xtick_5">
     <g id="line2d_13">
      <path clip-path="url(#p018a847e64)" d="
M316.185 184.7
L316.185 37.4" style="fill:none;stroke:#ffffff;stroke-linecap:round;"/>
     </g>
     <g id="line2d_14">
      <g>
       <use style="fill:#262626;stroke:#262626;" x="316.184587286" xlink:href="#m219da94a98" y="184.7"/>
      </g>
     </g>
     <g id="line2d_15">
      <g>
       <use style="fill:#262626;stroke:#262626;" x="316.184587286" xlink:href="#m219da94a98" y="37.4"/>
      </g>
     </g>
     <g id="text_5">
      <!-- 0.0 -->
      <g style="fill:#262626;" transform="translate(303.065837286 206.19375)scale(0.2 -0.2)">
       <use xlink:href="#LiberationSans-30"/>
       <use x="55.615234375" xlink:href="#LiberationSans-2e"/>
       <use x="83.3984375" xlink:href="#LiberationSans-30"/>
      </g>
     </g>
    </g>
    <g id="xtick_6">
     <g id="line2d_16">
      <path clip-path="url(#p018a847e64)" d="
M385.542 184.7
L385.542 37.4" style="fill:none;stroke:#ffffff;stroke-linecap:round;"/>
     </g>
     <g id="line2d_17">
      <g>
       <use style="fill:#262626;stroke:#262626;" x="385.542452857" xlink:href="#m219da94a98" y="184.7"/>
      </g>
     </g>
     <g id="line2d_18">
      <g>
       <use style="fill:#262626;stroke:#262626;" x="385.542452857" xlink:href="#m219da94a98" y="37.4"/>
      </g>
     </g>
     <g id="text_6">
      <!-- 0.5 -->
      <g style="fill:#262626;" transform="translate(372.451827857 206.19375)scale(0.2 -0.2)">
       <use xlink:href="#LiberationSans-30"/>
       <use x="55.615234375" xlink:href="#LiberationSans-2e"/>
       <use x="83.3984375" xlink:href="#LiberationSans-35"/>
      </g>
     </g>
    </g>
    <g id="xtick_7">
     <g id="line2d_19">
      <path clip-path="url(#p018a847e64)" d="
M454.9 184.7
L454.9 37.4" style="fill:none;stroke:#ffffff;stroke-linecap:round;"/>
     </g>
     <g id="line2d_20">
      <g>
       <use style="fill:#262626;stroke:#262626;" x="454.900318428" xlink:href="#m219da94a98" y="184.7"/>
      </g>
     </g>
     <g id="line2d_21">
      <g>
       <use style="fill:#262626;stroke:#262626;" x="454.900318428" xlink:href="#m219da94a98" y="37.4"/>
      </g>
     </g>
     <g id="text_7">
      <!-- 1.0 -->
      <g style="fill:#262626;" transform="translate(442.153443428 206.19375)scale(0.2 -0.2)">
       <use xlink:href="#LiberationSans-31"/>
       <use x="55.615234375" xlink:href="#LiberationSans-2e"/>
       <use x="83.3984375" xlink:href="#LiberationSans-30"/>
      </g>
     </g>
    </g>
    <g id="xtick_8">
     <g id="line2d_22">
      <path clip-path="url(#p018a847e64)" d="
M524.258 184.7
L524.258 37.4" style="fill:none;stroke:#ffffff;stroke-linecap:round;"/>
     </g>
     <g id="line2d_23">
      <g>
       <use style="fill:#262626;stroke:#262626;" x="524.258184" xlink:href="#m219da94a98" y="184.7"/>
      </g>
     </g>
     <g id="line2d_24">
      <g>
       <use style="fill:#262626;stroke:#262626;" x="524.258184" xlink:href="#m219da94a98" y="37.4"/>
      </g>
     </g>
     <g id="text_8">
      <!-- 1.5 -->
      <g style="fill:#262626;" transform="translate(511.539434 206.19375)scale(0.2 -0.2)">
       <use xlink:href="#LiberationSans-31"/>
       <use x="55.615234375" xlink:href="#LiberationSans-2e"/>
       <use x="83.3984375" xlink:href="#LiberationSans-35"/>
      </g>
     </g>
    </g>
    <g id="xtick_9">
     <g id="text_9">
      <!-- 2.0 -->
      <g style="fill:#262626;" transform="translate(580.609799571 206.19375)scale(0.2 -0.2)">
       <use xlink:href="#LiberationSans-32"/>
       <use x="55.615234375" xlink:href="#LiberationSans-2e"/>
       <use x="83.3984375" xlink:href="#LiberationSans-30"/>
      </g>
     </g>
    </g>
   </g>
   <g id="matplotlib.axis_2">
    <g id="ytick_1">
     <g id="line2d_25">
      <path clip-path="url(#p018a847e64)" d="
M38.7531 181.193
L593.477 181.193" style="fill:none;stroke:#ffffff;stroke-linecap:round;"/>
     </g>
     <g id="line2d_26">
      <g>
       <use style="fill:#262626;stroke:#262626;" x="38.753125" xlink:href="#m219da94a98" y="181.192857143"/>
      </g>
     </g>
     <g id="line2d_27">
      <g>
       <use style="fill:#262626;stroke:#262626;" x="593.47733384" xlink:href="#m219da94a98" y="181.192857143"/>
      </g>
     </g>
     <g id="text_10">
      <!-- −2 -->
      <g style="fill:#262626;" transform="translate(10.940625 186.364732143)scale(0.2 -0.2)">
       <use xlink:href="#LiberationSans-2212"/>
       <use x="58.3984375" xlink:href="#LiberationSans-32"/>
      </g>
     </g>
    </g>
    <g id="ytick_2">
     <g id="line2d_28">
      <path clip-path="url(#p018a847e64)" d="
M38.7531 146.121
L593.477 146.121" style="fill:none;stroke:#ffffff;stroke-linecap:round;"/>
     </g>
     <g id="line2d_29">
      <g>
       <use style="fill:#262626;stroke:#262626;" x="38.753125" xlink:href="#m219da94a98" y="146.121428571"/>
      </g>
     </g>
     <g id="line2d_30">
      <g>
       <use style="fill:#262626;stroke:#262626;" x="593.47733384" xlink:href="#m219da94a98" y="146.121428571"/>
      </g>
     </g>
     <g id="text_11">
      <!-- −1 -->
      <g style="fill:#262626;" transform="translate(10.9125 151.293303571)scale(0.2 -0.2)">
       <use xlink:href="#LiberationSans-2212"/>
       <use x="58.3984375" xlink:href="#LiberationSans-31"/>
      </g>
     </g>
    </g>
    <g id="ytick_3">
     <g id="line2d_31">
      <path clip-path="url(#p018a847e64)" d="
M38.7531 111.05
L593.477 111.05" style="fill:none;stroke:#ffffff;stroke-linecap:round;"/>
     </g>
     <g id="line2d_32">
      <g>
       <use style="fill:#262626;stroke:#262626;" x="38.753125" xlink:href="#m219da94a98" y="111.05"/>
      </g>
     </g>
     <g id="line2d_33">
      <g>
       <use style="fill:#262626;stroke:#262626;" x="593.47733384" xlink:href="#m219da94a98" y="111.05"/>
      </g>
     </g>
     <g id="text_12">
      <!-- 0 -->
      <g style="fill:#262626;" transform="translate(22.19375 116.221875)scale(0.2 -0.2)">
       <use xlink:href="#LiberationSans-30"/>
      </g>
     </g>
    </g>
    <g id="ytick_4">
     <g id="line2d_34">
      <path clip-path="url(#p018a847e64)" d="
M38.7531 75.9786
L593.477 75.9786" style="fill:none;stroke:#ffffff;stroke-linecap:round;"/>
     </g>
     <g id="line2d_35">
      <g>
       <use style="fill:#262626;stroke:#262626;" x="38.753125" xlink:href="#m219da94a98" y="75.9785714286"/>
      </g>
     </g>
     <g id="line2d_36">
      <g>
       <use style="fill:#262626;stroke:#262626;" x="593.47733384" xlink:href="#m219da94a98" y="75.9785714286"/>
      </g>
     </g>
     <g id="text_13">
      <!-- 1 -->
      <g style="fill:#262626;" transform="translate(23.13125 81.1504464286)scale(0.2 -0.2)">
       <use xlink:href="#LiberationSans-31"/>
      </g>
     </g>
    </g>
    <g id="ytick_5">
     <g id="line2d_37">
      <path clip-path="url(#p018a847e64)" d="
M38.7531 40.9071
L593.477 40.9071" style="fill:none;stroke:#ffffff;stroke-linecap:round;"/>
     </g>
     <g id="line2d_38">
      <g>
       <use style="fill:#262626;stroke:#262626;" x="38.753125" xlink:href="#m219da94a98" y="40.9071428571"/>
      </g>
     </g>
     <g id="line2d_39">
      <g>
       <use style="fill:#262626;stroke:#262626;" x="593.47733384" xlink:href="#m219da94a98" y="40.9071428571"/>
      </g>
     </g>
     <g id="text_14">
      <!-- 2 -->
      <g style="fill:#262626;" transform="translate(22.640625 46.0790178571)scale(0.2 -0.2)">
       <use xlink:href="#LiberationSans-32"/>
      </g>
     </g>
    </g>
   </g>
   <g id="line2d_40">
    <path clip-path="url(#p018a847e64)" d="
M38.7531 111.05
L45.9663 99.794
L49.8504 94.1542
L53.0408 89.9044
L55.8152 86.5643
L58.312 83.8871
L60.6702 81.6767
L62.8897 79.9018
L64.9704 78.5232
L66.9124 77.4967
L68.8544 76.7298
L70.6577 76.2551
L72.461 76.0125
L74.2644 76.0035
L76.0677 76.2282
L77.871 76.6851
L79.6743 77.3711
L81.6163 78.3609
L83.5583 79.6035
L85.639 81.2044
L87.8585 83.2036
L90.2167 85.6354
L92.8523 88.6946
L95.7653 92.4442
L99.0945 97.1215
L103.117 103.185
L110.053 114.131
L115.74 122.93
L119.486 128.331
L122.676 132.546
L125.45 135.849
L127.947 138.49
L130.306 140.662
L132.525 142.398
L134.606 143.739
L136.548 144.729
L138.351 145.415
L140.154 145.872
L141.958 146.097
L143.761 146.088
L145.564 145.845
L147.368 145.37
L149.171 144.667
L151.113 143.659
L153.055 142.398
L155.136 140.779
L157.355 138.762
L159.713 136.312
L162.349 133.235
L165.262 129.469
L168.591 124.776
L172.614 118.701
L179.966 107.092
L185.376 98.7563
L189.121 93.3872
L192.173 89.3808
L194.947 86.0954
L197.444 83.4737
L199.802 81.3207
L202.022 79.6035
L204.102 78.2817
L206.044 77.3103
L207.848 76.6418
L209.651 76.2026
L211.454 75.9959
L213.258 76.0229
L215.061 76.2834
L216.864 76.7758
L218.667 77.4967
L220.609 78.5232
L222.551 79.8011
L224.632 81.4382
L226.852 83.4737
L229.21 85.9411
L231.845 89.036
L234.758 92.8193
L238.088 97.527
L242.249 103.83
L257.508 127.364
L260.698 131.664
L263.473 135.058
L266.108 137.932
L268.466 140.18
L270.686 141.993
L272.767 143.409
L274.709 144.472
L276.651 145.277
L278.454 145.787
L280.257 146.065
L282.061 146.11
L283.864 145.922
L285.667 145.5
L287.47 144.849
L289.412 143.896
L291.354 142.689
L293.435 141.125
L295.655 139.162
L298.013 136.766
L300.51 133.911
L303.284 130.397
L306.474 125.983
L310.359 120.198
L316.046 111.27
L323.398 99.794
L327.282 94.1542
L330.472 89.9044
L333.247 86.5643
L335.744 83.8871
L338.102 81.6767
L340.321 79.9018
L342.402 78.5232
L344.344 77.4967
L346.286 76.7298
L348.089 76.2551
L349.893 76.0125
L351.696 76.0035
L353.499 76.2282
L355.302 76.6851
L357.106 77.3711
L359.048 78.3609
L360.99 79.6035
L363.071 81.2044
L365.29 83.2036
L367.648 85.6354
L370.284 88.6946
L373.197 92.4442
L376.526 97.1215
L380.549 103.185
L387.484 114.131
L393.172 122.93
L396.917 128.331
L400.108 132.546
L402.882 135.849
L405.379 138.49
L407.737 140.662
L409.956 142.398
L412.037 143.739
L413.979 144.729
L415.782 145.415
L417.586 145.872
L419.389 146.097
L421.192 146.088
L422.996 145.845
L424.799 145.37
L426.602 144.667
L428.544 143.659
L430.486 142.398
L432.567 140.779
L434.787 138.762
L437.145 136.312
L439.78 133.235
L442.693 129.469
L446.023 124.776
L450.045 118.701
L457.397 107.092
L462.807 98.7563
L466.552 93.3872
L469.604 89.3808
L472.379 86.0954
L474.875 83.4737
L477.234 81.3207
L479.453 79.6035
L481.534 78.2817
L483.476 77.3103
L485.279 76.6418
L487.082 76.2026
L488.886 75.9959
L490.689 76.0229
L492.492 76.2834
L494.296 76.7758
L496.099 77.4967
L498.041 78.5232
L499.983 79.8011
L502.064 81.4382
L504.283 83.4737
L506.641 85.9411
L509.277 89.036
L512.19 92.8193
L515.519 97.527
L519.681 103.83
L534.939 127.364
L538.13 131.664
L540.904 135.058
L543.54 137.932
L545.898 140.18
L548.117 141.993
L550.198 143.409
L552.14 144.472
L554.082 145.277
L555.885 145.787
L557.689 146.065
L559.492 146.11
L561.295 145.922
L563.099 145.5
L564.902 144.849
L566.844 143.896
L568.786 142.689
L570.867 141.125
L573.086 139.162
L575.444 136.766
L577.941 133.911
L580.715 130.397
L583.906 125.983
L587.79 120.198
L593.477 111.27
L593.477 111.27" style="fill:none;stroke:#4c72b0;stroke-linecap:round;stroke-width:1.75;"/>
   </g>
   <g id="patch_3">
    <path d="
M38.7531 37.4
L593.477 37.4" style="fill:none;"/>
   </g>
   <g id="patch_4">
    <path d="
M593.477 184.7
L593.477 37.4" style="fill:none;"/>
   </g>
   <g id="patch_5">
    <path d="
M38.7531 184.7
L593.477 184.7" style="fill:none;"/>
   </g>
   <g id="patch_6">
    <path d="
M38.7531 184.7
L38.7531 37.4" style="fill:none;"/>
   </g>
   <g id="text_15">
    <!-- $\sin(2\pi t)$ -->
    <defs>
     <path d="
M4.98438 0
L4.98438 2.6875
Q4.98438 2.9375 5.17188 3.21875
L20.7031 20.4062
Q24.2188 24.2188 26.4062 26.7969
Q28.6094 29.3906 30.75 32.7656
Q32.9062 36.1406 34.1562 39.625
Q35.4062 43.1094 35.4062 47.0156
Q35.4062 51.125 33.8906 54.8594
Q32.375 58.5938 29.375 60.8438
Q26.375 63.0938 22.125 63.0938
Q17.7812 63.0938 14.3125 60.4688
Q10.8438 57.8594 9.42188 53.7188
Q9.8125 53.8125 10.5 53.8125
Q12.75 53.8125 14.3281 52.2969
Q15.9219 50.7812 15.9219 48.3906
Q15.9219 46.0938 14.3281 44.5
Q12.75 42.9219 10.5 42.9219
Q8.15625 42.9219 6.5625 44.5469
Q4.98438 46.1875 4.98438 48.3906
Q4.98438 52.1562 6.39062 55.4375
Q7.8125 58.7344 10.4688 61.2969
Q13.1406 63.875 16.4844 65.2344
Q19.8281 66.6094 23.5781 66.6094
Q29.2969 66.6094 34.2188 64.1875
Q39.1562 61.7656 42.0312 57.3438
Q44.9219 52.9375 44.9219 47.0156
Q44.9219 42.6719 43.0156 38.7656
Q41.1094 34.8594 38.125 31.6562
Q35.1562 28.4688 30.5156 24.4062
Q25.875 20.3594 24.4219 19
L13.0938 8.10938
L22.7031 8.10938
Q29.7812 8.10938 34.5469 8.21875
Q39.3125 8.34375 39.5938 8.59375
Q40.7656 9.85938 42 17.8281
L44.9219 17.8281
L42.0938 0
z
" id="Cmr10-32"/>
     <path d="
M31 -24.8125
Q25.4375 -20.4062 21.4062 -14.7188
Q17.3906 -9.03125 14.8125 -2.57812
Q12.25 3.85938 10.9844 10.8906
Q9.71875 17.9219 9.71875 25
Q9.71875 32.1719 10.9844 39.2031
Q12.25 46.2344 14.8594 52.7344
Q17.4844 59.2344 21.5312 64.8906
Q25.5938 70.5625 31 74.8125
Q31 75 31.5 75
L32.4219 75
Q32.7188 75 32.9531 74.7344
Q33.2031 74.4688 33.2031 74.125
Q33.2031 73.6875 33.0156 73.4844
Q28.125 68.7031 24.875 63.2344
Q21.625 57.7656 19.6406 51.5781
Q17.6719 45.4062 16.7969 38.7812
Q15.9219 32.1719 15.9219 25
Q15.9219 -6.78125 32.9062 -23.2969
Q33.2031 -23.5781 33.2031 -24.125
Q33.2031 -24.3594 32.9375 -24.6719
Q32.6719 -25 32.4219 -25
L31.5 -25
Q31 -25 31 -24.8125" id="Cmr10-28"/>
     <path d="
M2.98438 0
L2.98438 3.51562
Q6.39062 3.51562 8.59375 4.04688
Q10.7969 4.59375 10.7969 6.6875
L10.7969 33.9844
Q10.7969 36.6719 9.98438 37.8594
Q9.1875 39.0625 7.67188 39.3281
Q6.15625 39.5938 2.98438 39.5938
L2.98438 43.1094
L17.4844 44.1875
L17.4844 34.4219
Q19.4844 38.7188 23.4062 41.4531
Q27.3438 44.1875 31.9844 44.1875
Q38.9219 44.1875 42.4062 40.8594
Q45.9062 37.5469 45.9062 30.7188
L45.9062 6.6875
Q45.9062 4.59375 48.0938 4.04688
Q50.2969 3.51562 53.7188 3.51562
L53.7188 0
L30.8125 0
L30.8125 3.51562
Q34.2344 3.51562 36.4219 4.04688
Q38.625 4.59375 38.625 6.6875
L38.625 30.4219
Q38.625 35.2969 37.2031 38.4531
Q35.7969 41.6094 31.3906 41.6094
Q25.5938 41.6094 21.8438 36.9688
Q18.1094 32.3281 18.1094 26.4219
L18.1094 6.6875
Q18.1094 4.59375 20.3125 4.04688
Q22.5156 3.51562 25.875 3.51562
L25.875 0
z
" id="Cmr10-6e"/>
     <path d="
M10.1094 1.70312
Q10.1094 2.25 10.5 3.32812
Q13.2812 9.125 15.6875 14.7188
Q18.1094 20.3125 20.0312 25.6094
Q21.9688 30.9062 23.5781 36.9219
L17.1875 36.9219
Q13.5312 36.9219 10.3438 34.625
Q7.17188 32.3281 5.07812 28.8125
Q4.89062 28.4219 4.5 28.4219
L3.32812 28.4219
Q2.39062 28.4219 2.39062 29.3906
Q2.39062 29.5938 2.59375 29.9844
Q5.85938 35.5469 9.59375 39.3281
Q13.3281 43.1094 18.0156 43.1094
L54.2969 43.1094
Q55.3281 43.1094 56.0469 42.4219
Q56.7812 41.75 56.7812 40.5781
Q56.7812 39.1094 55.7344 38.0156
Q54.6875 36.9219 53.2188 36.9219
L40.4844 36.9219
Q38.875 29.0469 38.7188 21.5781
Q38.7188 11.9688 42.0938 4.20312
Q42.3906 3.60938 42.3906 2.98438
Q42.3906 1.90625 41.75 0.96875
Q41.1094 0.046875 40.1094 -0.53125
Q39.1094 -1.125 37.9844 -1.125
Q35.3594 -1.125 34.375 3.17188
Q33.4062 7.46875 33.4062 11.5312
Q33.4062 17.2344 34.375 22.5312
Q35.3594 27.8281 37.5 36.9219
L26.6094 36.9219
Q18.7031 4.89062 17.0938 1.60938
Q15.6719 -1.125 13.1875 -1.125
Q11.9688 -1.125 11.0312 -0.3125
Q10.1094 0.484375 10.1094 1.70312" id="Cmmi10-bc"/>
     <path d="
M3.07812 0
L3.07812 3.51562
Q6.5 3.51562 8.6875 4.04688
Q10.8906 4.59375 10.8906 6.6875
L10.8906 33.9844
Q10.8906 37.8438 9.39062 38.7188
Q7.90625 39.5938 3.51562 39.5938
L3.51562 43.1094
L17.9219 44.1875
L17.9219 6.6875
Q17.9219 4.59375 19.8281 4.04688
Q21.7344 3.51562 24.9062 3.51562
L24.9062 0
z

M7.32812 61.375
Q7.32812 63.5781 8.98438 65.2344
Q10.6406 66.8906 12.7969 66.8906
Q14.2031 66.8906 15.5156 66.1562
Q16.8438 65.4375 17.5781 64.1094
Q18.3125 62.7969 18.3125 61.375
Q18.3125 59.2344 16.6406 57.5625
Q14.9844 55.9062 12.7969 55.9062
Q10.6406 55.9062 8.98438 57.5625
Q7.32812 59.2344 7.32812 61.375" id="Cmr10-69"/>
     <path d="
M6.20312 8.10938
Q6.20312 9.57812 6.5 10.8906
L13.7188 39.5938
L3.21875 39.5938
Q2.20312 39.5938 2.20312 40.9219
Q2.59375 43.1094 3.51562 43.1094
L14.5938 43.1094
L18.6094 59.4219
Q19 60.75 20.1719 61.6719
Q21.3438 62.5938 22.7969 62.5938
Q24.0781 62.5938 24.9219 61.8281
Q25.7812 61.0781 25.7812 59.8125
Q25.7812 59.5156 25.75 59.3438
Q25.7344 59.1875 25.6875 58.9844
L21.6875 43.1094
L31.9844 43.1094
Q33.0156 43.1094 33.0156 41.7969
Q32.9531 41.5469 32.8125 40.9531
Q32.6719 40.375 32.4219 39.9844
Q32.1719 39.5938 31.6875 39.5938
L20.7969 39.5938
L13.625 10.6875
Q12.8906 7.85938 12.8906 5.8125
Q12.8906 1.51562 15.8281 1.51562
Q20.2188 1.51562 23.6094 5.64062
Q27 9.76562 28.8125 14.7031
Q29.2031 15.2812 29.5938 15.2812
L30.8125 15.2812
Q31.2031 15.2812 31.4375 15.0156
Q31.6875 14.75 31.6875 14.4062
Q31.6875 14.2031 31.5938 14.1094
Q29.3906 8.0625 25.1875 3.46875
Q21 -1.125 15.5781 -1.125
Q11.625 -1.125 8.90625 1.45312
Q6.20312 4.04688 6.20312 8.10938" id="Cmmi10-74"/>
     <path d="
M6.5 -25
Q5.60938 -25 5.60938 -24.125
Q5.60938 -23.6875 5.8125 -23.4844
Q22.9062 -6.78125 22.9062 25
Q22.9062 56.7812 6 73.2969
Q5.60938 73.5312 5.60938 74.125
Q5.60938 74.4688 5.875 74.7344
Q6.15625 75 6.5 75
L7.42188 75
Q7.71875 75 7.90625 74.8125
Q15.0938 69.1406 19.875 61.0312
Q24.6562 52.9375 26.875 43.75
Q29.1094 34.5781 29.1094 25
Q29.1094 17.9219 27.9062 11.0625
Q26.7031 4.20312 24.0938 -2.45312
Q21.4844 -9.125 17.4844 -14.7656
Q13.4844 -20.4062 7.90625 -24.8125
Q7.71875 -25 7.42188 -25
z
" id="Cmr10-29"/>
     <path d="
M3.32812 -0.296875
L3.32812 16.0156
Q3.32812 16.7969 4.20312 16.7969
L5.42188 16.7969
Q6 16.7969 6.20312 16.0156
Q8.98438 1.51562 19.6719 1.51562
Q24.4219 1.51562 27.6094 3.65625
Q30.8125 5.8125 30.8125 10.2969
Q30.8125 13.5312 28.3125 15.7969
Q25.8281 18.0625 22.4062 18.8906
L15.7188 20.2188
Q12.3594 20.9531 9.59375 22.4531
Q6.84375 23.9688 5.07812 26.4844
Q3.32812 29 3.32812 32.3281
Q3.32812 36.7188 5.64062 39.5156
Q7.95312 42.3281 11.6562 43.5781
Q15.375 44.8281 19.6719 44.8281
Q24.8125 44.8281 28.6094 42.0938
L31.5 44.5781
Q31.5 44.8281 31.9844 44.8281
L32.7188 44.8281
Q33.0156 44.8281 33.25 44.5469
Q33.5 44.2812 33.5 44
L33.5 30.9062
Q33.5 29.9844 32.7188 29.9844
L31.5 29.9844
Q30.6094 29.9844 30.6094 30.9062
Q30.6094 36.1406 27.7031 39.3125
Q24.8125 42.4844 19.5781 42.4844
Q15.0938 42.4844 11.7969 40.8125
Q8.5 39.1562 8.5 35.1094
Q8.5 32.3281 10.8594 30.5469
Q13.2344 28.7656 16.4062 27.9844
L23.1875 26.7031
Q26.6094 25.9219 29.5625 24.0625
Q32.5156 22.2188 34.25 19.375
Q35.9844 16.5469 35.9844 12.9844
Q35.9844 9.375 34.7344 6.70312
Q33.5 4.04688 31.2656 2.28125
Q29.0469 0.53125 26.0156 -0.296875
Q23 -1.125 19.6719 -1.125
Q13.4219 -1.125 8.98438 3.07812
L5.32812 -0.875
Q5.32812 -1.125 4.78125 -1.125
L4.20312 -1.125
Q3.32812 -1.125 3.32812 -0.296875" id="Cmr10-73"/>
    </defs>
    <g style="fill:#262626;" transform="translate(273.11522942 32.4)scale(0.25 -0.25)">
     <use xlink:href="#Cmr10-73"/>
     <use transform="translate(39.404296875 0.0)" xlink:href="#Cmr10-69"/>
     <use transform="translate(67.08984375 0.0)" xlink:href="#Cmr10-6e"/>
     <use transform="translate(122.607421875 0.0)" xlink:href="#Cmr10-28"/>
     <use transform="translate(161.42578125 0.0)" xlink:href="#Cmr10-32"/>
     <use transform="translate(211.42578125 0.0)" xlink:href="#Cmmi10-bc"/>
     <use transform="translate(268.408203125 0.0)" xlink:href="#Cmmi10-74"/>
     <use transform="translate(304.4921875 0.0)" xlink:href="#Cmr10-29"/>
    </g>
   </g>
  </g>
  <g id="axes_2">
   <g id="patch_7">
    <path d="
M645.353 184.7
L1200.08 184.7
L1200.08 37.4
L645.353 37.4
z
" style="fill:#eaeaf2;"/>
   </g>
   <g id="matplotlib.axis_3">
    <g id="xtick_10">
     <g id="line2d_41">
      <path clip-path="url(#pd6674b7c24)" d="
M645.353 184.7
L645.353 37.4" style="fill:none;stroke:#ffffff;stroke-linecap:round;"/>
     </g>
     <g id="line2d_42">
      <g>
       <use style="fill:#262626;stroke:#262626;" x="645.353125" xlink:href="#m219da94a98" y="184.7"/>
      </g>
     </g>
     <g id="line2d_43">
      <g>
       <use style="fill:#262626;stroke:#262626;" x="645.353125" xlink:href="#m219da94a98" y="37.4"/>
      </g>
     </g>
     <g id="text_16">
      <!-- −2.0 -->
      <g style="fill:#262626;" transform="translate(626.496875 206.19375)scale(0.2 -0.2)">
       <use xlink:href="#LiberationSans-2212"/>
       <use x="58.3984375" xlink:href="#LiberationSans-32"/>
       <use x="114.013671875" xlink:href="#LiberationSans-2e"/>
       <use x="141.796875" xlink:href="#LiberationSans-30"/>
      </g>
     </g>
    </g>
    <g id="xtick_11">
     <g id="line2d_44">
      <path clip-path="url(#pd6674b7c24)" d="
M714.711 184.7
L714.711 37.4" style="fill:none;stroke:#ffffff;stroke-linecap:round;"/>
     </g>
     <g id="line2d_45">
      <g>
       <use style="fill:#262626;stroke:#262626;" x="714.710990571" xlink:href="#m219da94a98" y="184.7"/>
      </g>
     </g>
     <g id="line2d_46">
      <g>
       <use style="fill:#262626;stroke:#262626;" x="714.710990571" xlink:href="#m219da94a98" y="37.4"/>
      </g>
     </g>
     <g id="text_17">
      <!-- −1.5 -->
      <g style="fill:#262626;" transform="translate(695.882865571 206.19375)scale(0.2 -0.2)">
       <use xlink:href="#LiberationSans-2212"/>
       <use x="58.3984375" xlink:href="#LiberationSans-31"/>
       <use x="114.013671875" xlink:href="#LiberationSans-2e"/>
       <use x="141.796875" xlink:href="#LiberationSans-35"/>
      </g>
     </g>
    </g>
    <g id="xtick_12">
     <g id="line2d_47">
      <path clip-path="url(#pd6674b7c24)" d="
M784.069 184.7
L784.069 37.4" style="fill:none;stroke:#ffffff;stroke-linecap:round;"/>
     </g>
     <g id="line2d_48">
      <g>
       <use style="fill:#262626;stroke:#262626;" x="784.068856143" xlink:href="#m219da94a98" y="184.7"/>
      </g>
     </g>
     <g id="line2d_49">
      <g>
       <use style="fill:#262626;stroke:#262626;" x="784.068856143" xlink:href="#m219da94a98" y="37.4"/>
      </g>
     </g>
     <g id="text_18">
      <!-- −1.0 -->
      <g style="fill:#262626;" transform="translate(765.212606143 206.19375)scale(0.2 -0.2)">
       <use xlink:href="#LiberationSans-2212"/>
       <use x="58.3984375" xlink:href="#LiberationSans-31"/>
       <use x="114.013671875" xlink:href="#LiberationSans-2e"/>
       <use x="141.796875" xlink:href="#LiberationSans-30"/>
      </g>
     </g>
    </g>
    <g id="xtick_13">
     <g id="line2d_50">
      <path clip-path="url(#pd6674b7c24)" d="
M853.427 184.7
L853.427 37.4" style="fill:none;stroke:#ffffff;stroke-linecap:round;"/>
     </g>
     <g id="line2d_51">
      <g>
       <use style="fill:#262626;stroke:#262626;" x="853.426721714" xlink:href="#m219da94a98" y="184.7"/>
      </g>
     </g>
     <g id="line2d_52">
      <g>
       <use style="fill:#262626;stroke:#262626;" x="853.426721714" xlink:href="#m219da94a98" y="37.4"/>
      </g>
     </g>
     <g id="text_19">
      <!-- −0.5 -->
      <g style="fill:#262626;" transform="translate(834.598596714 206.19375)scale(0.2 -0.2)">
       <use xlink:href="#LiberationSans-2212"/>
       <use x="58.3984375" xlink:href="#LiberationSans-30"/>
       <use x="114.013671875" xlink:href="#LiberationSans-2e"/>
       <use x="141.796875" xlink:href="#LiberationSans-35"/>
      </g>
     </g>
    </g>
    <g id="xtick_14">
     <g id="line2d_53">
      <path clip-path="url(#pd6674b7c24)" d="
M922.785 184.7
L922.785 37.4" style="fill:none;stroke:#ffffff;stroke-linecap:round;"/>
     </g>
     <g id="line2d_54">
      <g>
       <use style="fill:#262626;stroke:#262626;" x="922.784587286" xlink:href="#m219da94a98" y="184.7"/>
      </g>
     </g>
     <g id="line2d_55">
      <g>
       <use style="fill:#262626;stroke:#262626;" x="922.784587286" xlink:href="#m219da94a98" y="37.4"/>
      </g>
     </g>
     <g id="text_20">
      <!-- 0.0 -->
      <g style="fill:#262626;" transform="translate(909.665837286 206.19375)scale(0.2 -0.2)">
       <use xlink:href="#LiberationSans-30"/>
       <use x="55.615234375" xlink:href="#LiberationSans-2e"/>
       <use x="83.3984375" xlink:href="#LiberationSans-30"/>
      </g>
     </g>
    </g>
    <g id="xtick_15">
     <g id="line2d_56">
      <path clip-path="url(#pd6674b7c24)" d="
M992.142 184.7
L992.142 37.4" style="fill:none;stroke:#ffffff;stroke-linecap:round;"/>
     </g>
     <g id="line2d_57">
      <g>
       <use style="fill:#262626;stroke:#262626;" x="992.142452857" xlink:href="#m219da94a98" y="184.7"/>
      </g>
     </g>
     <g id="line2d_58">
      <g>
       <use style="fill:#262626;stroke:#262626;" x="992.142452857" xlink:href="#m219da94a98" y="37.4"/>
      </g>
     </g>
     <g id="text_21">
      <!-- 0.5 -->
      <g style="fill:#262626;" transform="translate(979.051827857 206.19375)scale(0.2 -0.2)">
       <use xlink:href="#LiberationSans-30"/>
       <use x="55.615234375" xlink:href="#LiberationSans-2e"/>
       <use x="83.3984375" xlink:href="#LiberationSans-35"/>
      </g>
     </g>
    </g>
    <g id="xtick_16">
     <g id="line2d_59">
      <path clip-path="url(#pd6674b7c24)" d="
M1061.5 184.7
L1061.5 37.4" style="fill:none;stroke:#ffffff;stroke-linecap:round;"/>
     </g>
     <g id="line2d_60">
      <g>
       <use style="fill:#262626;stroke:#262626;" x="1061.50031843" xlink:href="#m219da94a98" y="184.7"/>
      </g>
     </g>
     <g id="line2d_61">
      <g>
       <use style="fill:#262626;stroke:#262626;" x="1061.50031843" xlink:href="#m219da94a98" y="37.4"/>
      </g>
     </g>
     <g id="text_22">
      <!-- 1.0 -->
      <g style="fill:#262626;" transform="translate(1048.75344343 206.19375)scale(0.2 -0.2)">
       <use xlink:href="#LiberationSans-31"/>
       <use x="55.615234375" xlink:href="#LiberationSans-2e"/>
       <use x="83.3984375" xlink:href="#LiberationSans-30"/>
      </g>
     </g>
    </g>
    <g id="xtick_17">
     <g id="line2d_62">
      <path clip-path="url(#pd6674b7c24)" d="
M1130.86 184.7
L1130.86 37.4" style="fill:none;stroke:#ffffff;stroke-linecap:round;"/>
     </g>
     <g id="line2d_63">
      <g>
       <use style="fill:#262626;stroke:#262626;" x="1130.858184" xlink:href="#m219da94a98" y="184.7"/>
      </g>
     </g>
     <g id="line2d_64">
      <g>
       <use style="fill:#262626;stroke:#262626;" x="1130.858184" xlink:href="#m219da94a98" y="37.4"/>
      </g>
     </g>
     <g id="text_23">
      <!-- 1.5 -->
      <g style="fill:#262626;" transform="translate(1118.139434 206.19375)scale(0.2 -0.2)">
       <use xlink:href="#LiberationSans-31"/>
       <use x="55.615234375" xlink:href="#LiberationSans-2e"/>
       <use x="83.3984375" xlink:href="#LiberationSans-35"/>
      </g>
     </g>
    </g>
    <g id="xtick_18">
     <g id="text_24">
      <!-- 2.0 -->
      <g style="fill:#262626;" transform="translate(1187.20979957 206.19375)scale(0.2 -0.2)">
       <use xlink:href="#LiberationSans-32"/>
       <use x="55.615234375" xlink:href="#LiberationSans-2e"/>
       <use x="83.3984375" xlink:href="#LiberationSans-30"/>
      </g>
     </g>
    </g>
   </g>
   <g id="matplotlib.axis_4">
    <g id="ytick_6">
     <g id="line2d_65">
      <path clip-path="url(#pd6674b7c24)" d="
M645.353 181.193
L1200.08 181.193" style="fill:none;stroke:#ffffff;stroke-linecap:round;"/>
     </g>
     <g id="line2d_66">
      <g>
       <use style="fill:#262626;stroke:#262626;" x="645.353125" xlink:href="#m219da94a98" y="181.192857143"/>
      </g>
     </g>
     <g id="line2d_67">
      <g>
       <use style="fill:#262626;stroke:#262626;" x="1200.07733384" xlink:href="#m219da94a98" y="181.192857143"/>
      </g>
     </g>
     <g id="text_25">
      <!-- −2 -->
      <g style="fill:#262626;" transform="translate(617.540625 186.364732143)scale(0.2 -0.2)">
       <use xlink:href="#LiberationSans-2212"/>
       <use x="58.3984375" xlink:href="#LiberationSans-32"/>
      </g>
     </g>
    </g>
    <g id="ytick_7">
     <g id="line2d_68">
      <path clip-path="url(#pd6674b7c24)" d="
M645.353 146.121
L1200.08 146.121" style="fill:none;stroke:#ffffff;stroke-linecap:round;"/>
     </g>
     <g id="line2d_69">
      <g>
       <use style="fill:#262626;stroke:#262626;" x="645.353125" xlink:href="#m219da94a98" y="146.121428571"/>
      </g>
     </g>
     <g id="line2d_70">
      <g>
       <use style="fill:#262626;stroke:#262626;" x="1200.07733384" xlink:href="#m219da94a98" y="146.121428571"/>
      </g>
     </g>
     <g id="text_26">
      <!-- −1 -->
      <g style="fill:#262626;" transform="translate(617.5125 151.293303571)scale(0.2 -0.2)">
       <use xlink:href="#LiberationSans-2212"/>
       <use x="58.3984375" xlink:href="#LiberationSans-31"/>
      </g>
     </g>
    </g>
    <g id="ytick_8">
     <g id="line2d_71">
      <path clip-path="url(#pd6674b7c24)" d="
M645.353 111.05
L1200.08 111.05" style="fill:none;stroke:#ffffff;stroke-linecap:round;"/>
     </g>
     <g id="line2d_72">
      <g>
       <use style="fill:#262626;stroke:#262626;" x="645.353125" xlink:href="#m219da94a98" y="111.05"/>
      </g>
     </g>
     <g id="line2d_73">
      <g>
       <use style="fill:#262626;stroke:#262626;" x="1200.07733384" xlink:href="#m219da94a98" y="111.05"/>
      </g>
     </g>
     <g id="text_27">
      <!-- 0 -->
      <g style="fill:#262626;" transform="translate(628.79375 116.221875)scale(0.2 -0.2)">
       <use xlink:href="#LiberationSans-30"/>
      </g>
     </g>
    </g>
    <g id="ytick_9">
     <g id="line2d_74">
      <path clip-path="url(#pd6674b7c24)" d="
M645.353 75.9786
L1200.08 75.9786" style="fill:none;stroke:#ffffff;stroke-linecap:round;"/>
     </g>
     <g id="line2d_75">
      <g>
       <use style="fill:#262626;stroke:#262626;" x="645.353125" xlink:href="#m219da94a98" y="75.9785714286"/>
      </g>
     </g>
     <g id="line2d_76">
      <g>
       <use style="fill:#262626;stroke:#262626;" x="1200.07733384" xlink:href="#m219da94a98" y="75.9785714286"/>
      </g>
     </g>
     <g id="text_28">
      <!-- 1 -->
      <g style="fill:#262626;" transform="translate(629.73125 81.1504464286)scale(0.2 -0.2)">
       <use xlink:href="#LiberationSans-31"/>
      </g>
     </g>
    </g>
    <g id="ytick_10">
     <g id="line2d_77">
      <path clip-path="url(#pd6674b7c24)" d="
M645.353 40.9071
L1200.08 40.9071" style="fill:none;stroke:#ffffff;stroke-linecap:round;"/>
     </g>
     <g id="line2d_78">
      <g>
       <use style="fill:#262626;stroke:#262626;" x="645.353125" xlink:href="#m219da94a98" y="40.9071428571"/>
      </g>
     </g>
     <g id="line2d_79">
      <g>
       <use style="fill:#262626;stroke:#262626;" x="1200.07733384" xlink:href="#m219da94a98" y="40.9071428571"/>
      </g>
     </g>
     <g id="text_29">
      <!-- 2 -->
      <g style="fill:#262626;" transform="translate(629.240625 46.0790178571)scale(0.2 -0.2)">
       <use xlink:href="#LiberationSans-32"/>
      </g>
     </g>
    </g>
   </g>
   <g id="line2d_80">
    <path clip-path="url(#pd6674b7c24)" d="
M645.353 111.05
L652.289 89.3747
L655.896 78.8138
L658.947 70.5374
L661.583 64.0062
L663.941 58.7276
L666.16 54.3032
L668.103 50.9006
L669.906 48.157
L671.57 45.9963
L673.235 44.2053
L674.761 42.897
L676.148 41.9898
L677.535 41.3553
L678.784 41.0193
L680.032 40.9071
L681.28 41.0193
L682.529 41.3553
L683.777 41.9141
L685.165 42.7941
L686.552 43.9435
L688.078 45.5135
L689.603 47.3964
L691.268 49.7969
L693.071 52.7896
L695.013 56.4464
L697.094 60.8322
L699.452 66.3393
L702.088 73.0942
L705.001 81.1846
L708.607 91.9044
L713.601 107.526
L721.785 133.144
L725.392 143.677
L728.444 151.922
L731.079 158.42
L733.438 163.665
L735.657 168.055
L737.599 171.425
L739.402 174.137
L741.067 176.267
L742.593 177.895
L744.119 179.203
L745.506 180.11
L746.893 180.745
L748.141 181.081
L749.39 181.193
L750.638 181.081
L751.887 180.745
L753.135 180.186
L754.522 179.306
L755.91 178.157
L757.435 176.587
L758.961 174.704
L760.626 172.303
L762.429 169.31
L764.371 165.654
L766.452 161.268
L768.81 155.761
L771.446 149.006
L774.359 140.915
L777.965 130.196
L782.959 114.574
L791.143 88.9559
L794.75 78.423
L797.802 70.1784
L800.437 63.6802
L802.795 58.4351
L805.015 54.0453
L806.957 50.6751
L808.76 47.9631
L810.425 45.8328
L811.951 44.2053
L813.477 42.897
L814.864 41.9898
L816.251 41.3553
L817.499 41.0193
L818.748 40.9071
L819.996 41.0193
L821.245 41.3553
L822.493 41.9141
L823.88 42.7941
L825.267 43.9435
L826.793 45.5135
L828.319 47.3964
L829.984 49.7969
L831.787 52.7896
L833.729 56.4464
L835.81 60.8322
L838.168 66.3393
L840.804 73.0942
L843.717 81.1846
L847.323 91.9044
L852.317 107.526
L860.501 133.144
L864.108 143.677
L867.16 151.922
L869.795 158.42
L872.153 163.665
L874.373 168.055
L876.315 171.425
L878.118 174.137
L879.783 176.267
L881.309 177.895
L882.834 179.203
L884.222 180.11
L885.609 180.745
L886.857 181.081
L888.106 181.193
L889.354 181.081
L890.603 180.745
L891.851 180.186
L893.238 179.306
L894.625 178.157
L896.151 176.587
L897.677 174.704
L899.342 172.303
L901.145 169.31
L903.087 165.654
L905.168 161.268
L907.526 155.761
L910.161 149.006
L913.074 140.915
L916.681 130.196
L921.675 114.574
L929.859 88.9559
L933.466 78.423
L936.517 70.1784
L939.153 63.6802
L941.511 58.4351
L943.731 54.0453
L945.673 50.6751
L947.476 47.9631
L949.141 45.8328
L950.666 44.2053
L952.192 42.897
L953.579 41.9898
L954.967 41.3553
L956.215 41.0193
L957.464 40.9071
L958.712 41.0193
L959.96 41.3553
L961.209 41.9141
L962.596 42.7941
L963.983 43.9435
L965.509 45.5135
L967.035 47.3964
L968.699 49.7969
L970.503 52.7896
L972.445 56.4464
L974.526 60.8322
L976.884 66.3393
L979.519 73.0942
L982.432 81.1846
L986.039 91.9044
L991.033 107.526
L999.217 133.144
L1002.82 143.677
L1005.88 151.922
L1008.51 158.42
L1010.87 163.665
L1013.09 168.055
L1015.03 171.425
L1016.83 174.137
L1018.5 176.267
L1020.02 177.895
L1021.55 179.203
L1022.94 180.11
L1024.32 180.745
L1025.57 181.081
L1026.82 181.193
L1028.07 181.081
L1029.32 180.745
L1030.57 180.186
L1031.95 179.306
L1033.34 178.157
L1034.87 176.587
L1036.39 174.704
L1038.06 172.303
L1039.86 169.31
L1041.8 165.654
L1043.88 161.268
L1046.24 155.761
L1048.88 149.006
L1051.79 140.915
L1055.4 130.196
L1060.39 114.574
L1068.57 88.9559
L1072.18 78.423
L1075.23 70.1784
L1077.87 63.6802
L1080.23 58.4351
L1082.45 54.0453
L1084.39 50.6751
L1086.19 47.9631
L1087.86 45.8328
L1089.38 44.2053
L1090.91 42.897
L1092.3 41.9898
L1093.68 41.3553
L1094.93 41.0193
L1096.18 40.9071
L1097.43 41.0193
L1098.68 41.3553
L1099.92 41.9141
L1101.31 42.7941
L1102.7 43.9435
L1104.22 45.5135
L1105.75 47.3964
L1107.42 49.7969
L1109.22 52.7896
L1111.16 56.4464
L1113.24 60.8322
L1115.6 66.3393
L1118.24 73.0942
L1121.15 81.1846
L1124.75 91.9044
L1129.75 107.526
L1137.93 133.144
L1141.54 143.677
L1144.59 151.922
L1147.23 158.42
L1149.58 163.665
L1151.8 168.055
L1153.75 171.425
L1155.55 174.137
L1157.21 176.267
L1158.74 177.895
L1160.27 179.203
L1161.65 180.11
L1163.04 180.745
L1164.29 181.081
L1165.54 181.193
L1166.79 181.081
L1168.03 180.745
L1169.28 180.186
L1170.67 179.306
L1172.06 178.157
L1173.58 176.587
L1175.11 174.704
L1176.77 172.303
L1178.58 169.31
L1180.52 165.654
L1182.6 161.268
L1184.96 155.761
L1187.59 149.006
L1190.51 140.915
L1194.11 130.196
L1199.11 114.574
L1200.08 111.491
L1200.08 111.491" style="fill:none;stroke:#4c72b0;stroke-linecap:round;stroke-width:1.75;"/>
   </g>
   <g id="patch_8">
    <path d="
M645.353 37.4
L1200.08 37.4" style="fill:none;"/>
   </g>
   <g id="patch_9">
    <path d="
M1200.08 184.7
L1200.08 37.4" style="fill:none;"/>
   </g>
   <g id="patch_10">
    <path d="
M645.353 184.7
L1200.08 184.7" style="fill:none;"/>
   </g>
   <g id="patch_11">
    <path d="
M645.353 184.7
L645.353 37.4" style="fill:none;"/>
   </g>
   <g id="text_30">
    <!-- $2\sin(2\pi t)$ -->
    <g style="fill:#262626;" transform="translate(873.46522942 32.4)scale(0.25 -0.25)">
     <use xlink:href="#Cmr10-32"/>
     <use transform="translate(50.0 0.0)" xlink:href="#Cmr10-73"/>
     <use transform="translate(89.404296875 0.0)" xlink:href="#Cmr10-69"/>
     <use transform="translate(117.08984375 0.0)" xlink:href="#Cmr10-6e"/>
     <use transform="translate(172.607421875 0.0)" xlink:href="#Cmr10-28"/>
     <use transform="translate(211.42578125 0.0)" xlink:href="#Cmr10-32"/>
     <use transform="translate(261.42578125 0.0)" xlink:href="#Cmmi10-bc"/>
     <use transform="translate(318.408203125 0.0)" xlink:href="#Cmmi10-74"/>
     <use transform="translate(354.4921875 0.0)" xlink:href="#Cmr10-29"/>
    </g>
   </g>
  </g>
  <g id="axes_3">
   <g id="patch_12">
    <path d="
M38.7531 395.3
L593.477 395.3
L593.477 248
L38.7531 248
z
" style="fill:#eaeaf2;"/>
   </g>
   <g id="matplotlib.axis_5">
    <g id="xtick_19">
     <g id="line2d_81">
      <path clip-path="url(#pb9cdb7c8ab)" d="
M38.7531 395.3
L38.7531 248" style="fill:none;stroke:#ffffff;stroke-linecap:round;"/>
     </g>
     <g id="line2d_82">
      <g>
       <use style="fill:#262626;stroke:#262626;" x="38.753125" xlink:href="#m219da94a98" y="395.3"/>
      </g>
     </g>
     <g id="line2d_83">
      <g>
       <use style="fill:#262626;stroke:#262626;" x="38.753125" xlink:href="#m219da94a98" y="248.0"/>
      </g>
     </g>
     <g id="text_31">
      <!-- −2.0 -->
      <g style="fill:#262626;" transform="translate(19.896875 416.79375)scale(0.2 -0.2)">
       <use xlink:href="#LiberationSans-2212"/>
       <use x="58.3984375" xlink:href="#LiberationSans-32"/>
       <use x="114.013671875" xlink:href="#LiberationSans-2e"/>
       <use x="141.796875" xlink:href="#LiberationSans-30"/>
      </g>
     </g>
    </g>
    <g id="xtick_20">
     <g id="line2d_84">
      <path clip-path="url(#pb9cdb7c8ab)" d="
M108.111 395.3
L108.111 248" style="fill:none;stroke:#ffffff;stroke-linecap:round;"/>
     </g>
     <g id="line2d_85">
      <g>
       <use style="fill:#262626;stroke:#262626;" x="108.110990571" xlink:href="#m219da94a98" y="395.3"/>
      </g>
     </g>
     <g id="line2d_86">
      <g>
       <use style="fill:#262626;stroke:#262626;" x="108.110990571" xlink:href="#m219da94a98" y="248.0"/>
      </g>
     </g>
     <g id="text_32">
      <!-- −1.5 -->
      <g style="fill:#262626;" transform="translate(89.2828655714 416.79375)scale(0.2 -0.2)">
       <use xlink:href="#LiberationSans-2212"/>
       <use x="58.3984375" xlink:href="#LiberationSans-31"/>
       <use x="114.013671875" xlink:href="#LiberationSans-2e"/>
       <use x="141.796875" xlink:href="#LiberationSans-35"/>
      </g>
     </g>
    </g>
    <g id="xtick_21">
     <g id="line2d_87">
      <path clip-path="url(#pb9cdb7c8ab)" d="
M177.469 395.3
L177.469 248" style="fill:none;stroke:#ffffff;stroke-linecap:round;"/>
     </g>
     <g id="line2d_88">
      <g>
       <use style="fill:#262626;stroke:#262626;" x="177.468856143" xlink:href="#m219da94a98" y="395.3"/>
      </g>
     </g>
     <g id="line2d_89">
      <g>
       <use style="fill:#262626;stroke:#262626;" x="177.468856143" xlink:href="#m219da94a98" y="248.0"/>
      </g>
     </g>
     <g id="text_33">
      <!-- −1.0 -->
      <g style="fill:#262626;" transform="translate(158.612606143 416.79375)scale(0.2 -0.2)">
       <use xlink:href="#LiberationSans-2212"/>
       <use x="58.3984375" xlink:href="#LiberationSans-31"/>
       <use x="114.013671875" xlink:href="#LiberationSans-2e"/>
       <use x="141.796875" xlink:href="#LiberationSans-30"/>
      </g>
     </g>
    </g>
    <g id="xtick_22">
     <g id="line2d_90">
      <path clip-path="url(#pb9cdb7c8ab)" d="
M246.827 395.3
L246.827 248" style="fill:none;stroke:#ffffff;stroke-linecap:round;"/>
     </g>
     <g id="line2d_91">
      <g>
       <use style="fill:#262626;stroke:#262626;" x="246.826721714" xlink:href="#m219da94a98" y="395.3"/>
      </g>
     </g>
     <g id="line2d_92">
      <g>
       <use style="fill:#262626;stroke:#262626;" x="246.826721714" xlink:href="#m219da94a98" y="248.0"/>
      </g>
     </g>
     <g id="text_34">
      <!-- −0.5 -->
      <g style="fill:#262626;" transform="translate(227.998596714 416.79375)scale(0.2 -0.2)">
       <use xlink:href="#LiberationSans-2212"/>
       <use x="58.3984375" xlink:href="#LiberationSans-30"/>
       <use x="114.013671875" xlink:href="#LiberationSans-2e"/>
       <use x="141.796875" xlink:href="#LiberationSans-35"/>
      </g>
     </g>
    </g>
    <g id="xtick_23">
     <g id="line2d_93">
      <path clip-path="url(#pb9cdb7c8ab)" d="
M316.185 395.3
L316.185 248" style="fill:none;stroke:#ffffff;stroke-linecap:round;"/>
     </g>
     <g id="line2d_94">
      <g>
       <use style="fill:#262626;stroke:#262626;" x="316.184587286" xlink:href="#m219da94a98" y="395.3"/>
      </g>
     </g>
     <g id="line2d_95">
      <g>
       <use style="fill:#262626;stroke:#262626;" x="316.184587286" xlink:href="#m219da94a98" y="248.0"/>
      </g>
     </g>
     <g id="text_35">
      <!-- 0.0 -->
      <g style="fill:#262626;" transform="translate(303.065837286 416.79375)scale(0.2 -0.2)">
       <use xlink:href="#LiberationSans-30"/>
       <use x="55.615234375" xlink:href="#LiberationSans-2e"/>
       <use x="83.3984375" xlink:href="#LiberationSans-30"/>
      </g>
     </g>
    </g>
    <g id="xtick_24">
     <g id="line2d_96">
      <path clip-path="url(#pb9cdb7c8ab)" d="
M385.542 395.3
L385.542 248" style="fill:none;stroke:#ffffff;stroke-linecap:round;"/>
     </g>
     <g id="line2d_97">
      <g>
       <use style="fill:#262626;stroke:#262626;" x="385.542452857" xlink:href="#m219da94a98" y="395.3"/>
      </g>
     </g>
     <g id="line2d_98">
      <g>
       <use style="fill:#262626;stroke:#262626;" x="385.542452857" xlink:href="#m219da94a98" y="248.0"/>
      </g>
     </g>
     <g id="text_36">
      <!-- 0.5 -->
      <g style="fill:#262626;" transform="translate(372.451827857 416.79375)scale(0.2 -0.2)">
       <use xlink:href="#LiberationSans-30"/>
       <use x="55.615234375" xlink:href="#LiberationSans-2e"/>
       <use x="83.3984375" xlink:href="#LiberationSans-35"/>
      </g>
     </g>
    </g>
    <g id="xtick_25">
     <g id="line2d_99">
      <path clip-path="url(#pb9cdb7c8ab)" d="
M454.9 395.3
L454.9 248" style="fill:none;stroke:#ffffff;stroke-linecap:round;"/>
     </g>
     <g id="line2d_100">
      <g>
       <use style="fill:#262626;stroke:#262626;" x="454.900318428" xlink:href="#m219da94a98" y="395.3"/>
      </g>
     </g>
     <g id="line2d_101">
      <g>
       <use style="fill:#262626;stroke:#262626;" x="454.900318428" xlink:href="#m219da94a98" y="248.0"/>
      </g>
     </g>
     <g id="text_37">
      <!-- 1.0 -->
      <g style="fill:#262626;" transform="translate(442.153443428 416.79375)scale(0.2 -0.2)">
       <use xlink:href="#LiberationSans-31"/>
       <use x="55.615234375" xlink:href="#LiberationSans-2e"/>
       <use x="83.3984375" xlink:href="#LiberationSans-30"/>
      </g>
     </g>
    </g>
    <g id="xtick_26">
     <g id="line2d_102">
      <path clip-path="url(#pb9cdb7c8ab)" d="
M524.258 395.3
L524.258 248" style="fill:none;stroke:#ffffff;stroke-linecap:round;"/>
     </g>
     <g id="line2d_103">
      <g>
       <use style="fill:#262626;stroke:#262626;" x="524.258184" xlink:href="#m219da94a98" y="395.3"/>
      </g>
     </g>
     <g id="line2d_104">
      <g>
       <use style="fill:#262626;stroke:#262626;" x="524.258184" xlink:href="#m219da94a98" y="248.0"/>
      </g>
     </g>
     <g id="text_38">
      <!-- 1.5 -->
      <g style="fill:#262626;" transform="translate(511.539434 416.79375)scale(0.2 -0.2)">
       <use xlink:href="#LiberationSans-31"/>
       <use x="55.615234375" xlink:href="#LiberationSans-2e"/>
       <use x="83.3984375" xlink:href="#LiberationSans-35"/>
      </g>
     </g>
    </g>
    <g id="xtick_27">
     <g id="text_39">
      <!-- 2.0 -->
      <g style="fill:#262626;" transform="translate(580.609799571 416.79375)scale(0.2 -0.2)">
       <use xlink:href="#LiberationSans-32"/>
       <use x="55.615234375" xlink:href="#LiberationSans-2e"/>
       <use x="83.3984375" xlink:href="#LiberationSans-30"/>
      </g>
     </g>
    </g>
   </g>
   <g id="matplotlib.axis_6">
    <g id="ytick_11">
     <g id="line2d_105">
      <path clip-path="url(#pb9cdb7c8ab)" d="
M38.7531 391.793
L593.477 391.793" style="fill:none;stroke:#ffffff;stroke-linecap:round;"/>
     </g>
     <g id="line2d_106">
      <g>
       <use style="fill:#262626;stroke:#262626;" x="38.753125" xlink:href="#m219da94a98" y="391.792857143"/>
      </g>
     </g>
     <g id="line2d_107">
      <g>
       <use style="fill:#262626;stroke:#262626;" x="593.47733384" xlink:href="#m219da94a98" y="391.792857143"/>
      </g>
     </g>
     <g id="text_40">
      <!-- −2 -->
      <g style="fill:#262626;" transform="translate(10.940625 396.964732143)scale(0.2 -0.2)">
       <use xlink:href="#LiberationSans-2212"/>
       <use x="58.3984375" xlink:href="#LiberationSans-32"/>
      </g>
     </g>
    </g>
    <g id="ytick_12">
     <g id="line2d_108">
      <path clip-path="url(#pb9cdb7c8ab)" d="
M38.7531 356.721
L593.477 356.721" style="fill:none;stroke:#ffffff;stroke-linecap:round;"/>
     </g>
     <g id="line2d_109">
      <g>
       <use style="fill:#262626;stroke:#262626;" x="38.753125" xlink:href="#m219da94a98" y="356.721428571"/>
      </g>
     </g>
     <g id="line2d_110">
      <g>
       <use style="fill:#262626;stroke:#262626;" x="593.47733384" xlink:href="#m219da94a98" y="356.721428571"/>
      </g>
     </g>
     <g id="text_41">
      <!-- −1 -->
      <g style="fill:#262626;" transform="translate(10.9125 361.893303571)scale(0.2 -0.2)">
       <use xlink:href="#LiberationSans-2212"/>
       <use x="58.3984375" xlink:href="#LiberationSans-31"/>
      </g>
     </g>
    </g>
    <g id="ytick_13">
     <g id="line2d_111">
      <path clip-path="url(#pb9cdb7c8ab)" d="
M38.7531 321.65
L593.477 321.65" style="fill:none;stroke:#ffffff;stroke-linecap:round;"/>
     </g>
     <g id="line2d_112">
      <g>
       <use style="fill:#262626;stroke:#262626;" x="38.753125" xlink:href="#m219da94a98" y="321.65"/>
      </g>
     </g>
     <g id="line2d_113">
      <g>
       <use style="fill:#262626;stroke:#262626;" x="593.47733384" xlink:href="#m219da94a98" y="321.65"/>
      </g>
     </g>
     <g id="text_42">
      <!-- 0 -->
      <g style="fill:#262626;" transform="translate(22.19375 326.821875)scale(0.2 -0.2)">
       <use xlink:href="#LiberationSans-30"/>
      </g>
     </g>
    </g>
    <g id="ytick_14">
     <g id="line2d_114">
      <path clip-path="url(#pb9cdb7c8ab)" d="
M38.7531 286.579
L593.477 286.579" style="fill:none;stroke:#ffffff;stroke-linecap:round;"/>
     </g>
     <g id="line2d_115">
      <g>
       <use style="fill:#262626;stroke:#262626;" x="38.753125" xlink:href="#m219da94a98" y="286.578571429"/>
      </g>
     </g>
     <g id="line2d_116">
      <g>
       <use style="fill:#262626;stroke:#262626;" x="593.47733384" xlink:href="#m219da94a98" y="286.578571429"/>
      </g>
     </g>
     <g id="text_43">
      <!-- 1 -->
      <g style="fill:#262626;" transform="translate(23.13125 291.750446429)scale(0.2 -0.2)">
       <use xlink:href="#LiberationSans-31"/>
      </g>
     </g>
    </g>
    <g id="ytick_15">
     <g id="line2d_117">
      <path clip-path="url(#pb9cdb7c8ab)" d="
M38.7531 251.507
L593.477 251.507" style="fill:none;stroke:#ffffff;stroke-linecap:round;"/>
     </g>
     <g id="line2d_118">
      <g>
       <use style="fill:#262626;stroke:#262626;" x="38.753125" xlink:href="#m219da94a98" y="251.507142857"/>
      </g>
     </g>
     <g id="line2d_119">
      <g>
       <use style="fill:#262626;stroke:#262626;" x="593.47733384" xlink:href="#m219da94a98" y="251.507142857"/>
      </g>
     </g>
     <g id="text_44">
      <!-- 2 -->
      <g style="fill:#262626;" transform="translate(22.640625 256.679017857)scale(0.2 -0.2)">
       <use xlink:href="#LiberationSans-32"/>
      </g>
     </g>
    </g>
   </g>
   <g id="line2d_120">
    <path clip-path="url(#pb9cdb7c8ab)" d="
M38.7531 321.65
L43.0533 308.331
L45.4115 301.755
L47.2148 297.323
L48.8794 293.804
L50.2665 291.351
L51.515 289.551
L52.6247 288.295
L53.7344 287.376
L54.7054 286.855
L55.6764 286.603
L56.5087 286.603
L57.341 286.803
L58.312 287.285
L59.2831 288.033
L60.3928 289.206
L61.5025 290.707
L62.7509 292.768
L64.1381 295.489
L65.8027 299.295
L67.606 303.987
L69.8254 310.394
L73.1546 320.769
L77.7322 334.969
L80.0904 341.545
L81.8937 345.977
L83.5583 349.496
L84.9455 351.949
L86.1939 353.749
L87.3036 355.005
L88.4134 355.924
L89.3844 356.445
L90.3554 356.697
L91.1877 356.697
L92.02 356.497
L92.991 356.015
L93.962 355.267
L95.0717 354.094
L96.1814 352.593
L97.4299 350.532
L98.817 347.811
L100.482 344.005
L102.285 339.313
L104.504 332.906
L107.834 322.531
L112.411 308.331
L114.769 301.755
L116.573 297.323
L118.237 293.804
L119.624 291.351
L120.873 289.551
L121.983 288.295
L123.092 287.376
L124.063 286.855
L125.034 286.603
L125.867 286.603
L126.699 286.803
L127.67 287.285
L128.641 288.033
L129.751 289.206
L130.86 290.707
L132.109 292.768
L133.496 295.489
L135.161 299.295
L136.964 303.987
L139.183 310.394
L142.512 320.769
L147.09 334.969
L149.448 341.545
L151.252 345.977
L152.916 349.496
L154.303 351.949
L155.552 353.749
L156.661 355.005
L157.771 355.924
L158.742 356.445
L159.713 356.697
L160.546 356.697
L161.378 356.497
L162.349 356.015
L163.32 355.267
L164.43 354.094
L165.539 352.593
L166.788 350.532
L168.175 347.811
L169.839 344.005
L171.643 339.313
L173.862 332.906
L177.191 322.531
L181.769 308.331
L184.127 301.755
L185.931 297.323
L187.595 293.804
L188.982 291.351
L190.231 289.551
L191.34 288.295
L192.45 287.376
L193.421 286.855
L194.392 286.603
L195.224 286.603
L196.057 286.803
L197.028 287.285
L197.999 288.033
L199.109 289.206
L200.218 290.707
L201.467 292.768
L202.854 295.489
L204.518 299.295
L206.322 303.987
L208.541 310.394
L211.87 320.769
L216.448 334.969
L218.806 341.545
L220.609 345.977
L222.274 349.496
L223.661 351.949
L224.91 353.749
L226.019 355.005
L227.129 355.924
L228.1 356.445
L229.071 356.697
L229.903 356.697
L230.736 356.497
L231.707 356.015
L232.678 355.267
L233.787 354.094
L234.897 352.593
L236.146 350.532
L237.533 347.811
L239.197 344.005
L241.001 339.313
L243.22 332.906
L246.549 322.531
L251.127 308.331
L253.485 301.755
L255.288 297.323
L256.953 293.804
L258.34 291.351
L259.589 289.551
L260.698 288.295
L261.808 287.376
L262.779 286.855
L263.75 286.603
L264.582 286.603
L265.415 286.803
L266.386 287.285
L267.357 288.033
L268.466 289.206
L269.576 290.707
L270.825 292.768
L272.212 295.489
L273.876 299.295
L275.68 303.987
L277.899 310.394
L281.228 320.769
L285.806 334.969
L288.164 341.545
L289.967 345.977
L291.632 349.496
L293.019 351.949
L294.268 353.749
L295.377 355.005
L296.487 355.924
L297.458 356.445
L298.429 356.697
L299.261 356.697
L300.094 356.497
L301.065 356.015
L302.036 355.267
L303.145 354.094
L304.255 352.593
L305.503 350.532
L306.891 347.811
L308.555 344.005
L310.359 339.313
L312.578 332.906
L315.907 322.531
L320.485 308.331
L322.843 301.755
L324.646 297.323
L326.311 293.804
L327.698 291.351
L328.946 289.551
L330.056 288.295
L331.166 287.376
L332.137 286.855
L333.108 286.603
L333.94 286.603
L334.772 286.803
L335.744 287.285
L336.715 288.033
L337.824 289.206
L338.934 290.707
L340.182 292.768
L341.57 295.489
L343.234 299.295
L345.037 303.987
L347.257 310.394
L350.586 320.769
L355.164 334.969
L357.522 341.545
L359.325 345.977
L360.99 349.496
L362.377 351.949
L363.625 353.749
L364.735 355.005
L365.845 355.924
L366.816 356.445
L367.787 356.697
L368.619 356.697
L369.451 356.497
L370.422 356.015
L371.393 355.267
L372.503 354.094
L373.613 352.593
L374.861 350.532
L376.248 347.811
L377.913 344.005
L379.716 339.313
L381.936 332.906
L385.265 322.531
L389.843 308.331
L392.201 301.755
L394.004 297.323
L395.669 293.804
L397.056 291.351
L398.304 289.551
L399.414 288.295
L400.524 287.376
L401.495 286.855
L402.466 286.603
L403.298 286.603
L404.13 286.803
L405.101 287.285
L406.072 288.033
L407.182 289.206
L408.292 290.707
L409.54 292.768
L410.927 295.489
L412.592 299.295
L414.395 303.987
L416.615 310.394
L419.944 320.769
L424.522 334.969
L426.88 341.545
L428.683 345.977
L430.348 349.496
L431.735 351.949
L432.983 353.749
L434.093 355.005
L435.203 355.924
L436.174 356.445
L437.145 356.697
L437.977 356.697
L438.809 356.497
L439.78 356.015
L440.751 355.267
L441.861 354.094
L442.971 352.593
L444.219 350.532
L445.606 347.811
L447.271 344.005
L449.074 339.313
L451.294 332.906
L454.623 322.531
L459.201 308.331
L461.559 301.755
L463.362 297.323
L465.027 293.804
L466.414 291.351
L467.662 289.551
L468.772 288.295
L469.882 287.376
L470.853 286.855
L471.824 286.603
L472.656 286.603
L473.488 286.803
L474.459 287.285
L475.43 288.033
L476.54 289.206
L477.65 290.707
L478.898 292.768
L480.285 295.489
L481.95 299.295
L483.753 303.987
L485.973 310.394
L489.302 320.769
L493.879 334.969
L496.238 341.545
L498.041 345.977
L499.705 349.496
L501.093 351.949
L502.341 353.749
L503.451 355.005
L504.561 355.924
L505.532 356.445
L506.503 356.697
L507.335 356.697
L508.167 356.497
L509.138 356.015
L510.109 355.267
L511.219 354.094
L512.329 352.593
L513.577 350.532
L514.964 347.811
L516.629 344.005
L518.432 339.313
L520.652 332.906
L523.981 322.531
L528.558 308.331
L530.917 301.755
L532.72 297.323
L534.384 293.804
L535.772 291.351
L537.02 289.551
L538.13 288.295
L539.239 287.376
L540.21 286.855
L541.182 286.603
L542.014 286.603
L542.846 286.803
L543.817 287.285
L544.788 288.033
L545.898 289.206
L547.008 290.707
L548.256 292.768
L549.643 295.489
L551.308 299.295
L553.111 303.987
L555.331 310.394
L558.66 320.769
L563.237 334.969
L565.595 341.545
L567.399 345.977
L569.063 349.496
L570.451 351.949
L571.699 353.749
L572.809 355.005
L573.918 355.924
L574.889 356.445
L575.86 356.697
L576.693 356.697
L577.525 356.497
L578.496 356.015
L579.467 355.267
L580.577 354.094
L581.686 352.593
L582.935 350.532
L584.322 347.811
L585.987 344.005
L587.79 339.313
L590.009 332.906
L593.339 322.531
L593.477 322.091
L593.477 322.091" style="fill:none;stroke:#4c72b0;stroke-linecap:round;stroke-width:1.75;"/>
   </g>
   <g id="patch_13">
    <path d="
M38.7531 248
L593.477 248" style="fill:none;"/>
   </g>
   <g id="patch_14">
    <path d="
M593.477 395.3
L593.477 248" style="fill:none;"/>
   </g>
   <g id="patch_15">
    <path d="
M38.7531 395.3
L593.477 395.3" style="fill:none;"/>
   </g>
   <g id="patch_16">
    <path d="
M38.7531 395.3
L38.7531 248" style="fill:none;"/>
   </g>
   <g id="text_45">
    <!-- $\sin(4\pi t)$ -->
    <defs>
     <path d="
M2.78125 16.5
L2.78125 20.0156
L33.6875 66.1094
Q34.0312 66.6094 34.7188 66.6094
L36.1875 66.6094
Q37.3125 66.6094 37.3125 65.4844
L37.3125 20.0156
L47.125 20.0156
L47.125 16.5
L37.3125 16.5
L37.3125 6.6875
Q37.3125 4.64062 40.2344 4.07812
Q43.1719 3.51562 47.0156 3.51562
L47.0156 0
L19.4844 0
L19.4844 3.51562
Q23.3438 3.51562 26.2656 4.07812
Q29.2031 4.64062 29.2031 6.6875
L29.2031 16.5
z

M6.10938 20.0156
L29.7812 20.0156
L29.7812 55.4219
z
" id="Cmr10-34"/>
    </defs>
    <g style="fill:#262626;" transform="translate(273.11522942 243.0)scale(0.25 -0.25)">
     <use xlink:href="#Cmr10-73"/>
     <use transform="translate(39.404296875 0.0)" xlink:href="#Cmr10-69"/>
     <use transform="translate(67.08984375 0.0)" xlink:href="#Cmr10-6e"/>
     <use transform="translate(122.607421875 0.0)" xlink:href="#Cmr10-28"/>
     <use transform="translate(161.42578125 0.0)" xlink:href="#Cmr10-34"/>
     <use transform="translate(211.42578125 0.0)" xlink:href="#Cmmi10-bc"/>
     <use transform="translate(268.408203125 0.0)" xlink:href="#Cmmi10-74"/>
     <use transform="translate(304.4921875 0.0)" xlink:href="#Cmr10-29"/>
    </g>
   </g>
  </g>
  <g id="axes_4">
   <g id="patch_17">
    <path d="
M645.353 395.3
L1200.08 395.3
L1200.08 248
L645.353 248
z
" style="fill:#eaeaf2;"/>
   </g>
   <g id="matplotlib.axis_7">
    <g id="xtick_28">
     <g id="line2d_121">
      <path clip-path="url(#p97c60d211f)" d="
M645.353 395.3
L645.353 248" style="fill:none;stroke:#ffffff;stroke-linecap:round;"/>
     </g>
     <g id="line2d_122">
      <g>
       <use style="fill:#262626;stroke:#262626;" x="645.353125" xlink:href="#m219da94a98" y="395.3"/>
      </g>
     </g>
     <g id="line2d_123">
      <g>
       <use style="fill:#262626;stroke:#262626;" x="645.353125" xlink:href="#m219da94a98" y="248.0"/>
      </g>
     </g>
     <g id="text_46">
      <!-- −2.0 -->
      <g style="fill:#262626;" transform="translate(626.496875 416.79375)scale(0.2 -0.2)">
       <use xlink:href="#LiberationSans-2212"/>
       <use x="58.3984375" xlink:href="#LiberationSans-32"/>
       <use x="114.013671875" xlink:href="#LiberationSans-2e"/>
       <use x="141.796875" xlink:href="#LiberationSans-30"/>
      </g>
     </g>
    </g>
    <g id="xtick_29">
     <g id="line2d_124">
      <path clip-path="url(#p97c60d211f)" d="
M714.711 395.3
L714.711 248" style="fill:none;stroke:#ffffff;stroke-linecap:round;"/>
     </g>
     <g id="line2d_125">
      <g>
       <use style="fill:#262626;stroke:#262626;" x="714.710990571" xlink:href="#m219da94a98" y="395.3"/>
      </g>
     </g>
     <g id="line2d_126">
      <g>
       <use style="fill:#262626;stroke:#262626;" x="714.710990571" xlink:href="#m219da94a98" y="248.0"/>
      </g>
     </g>
     <g id="text_47">
      <!-- −1.5 -->
      <g style="fill:#262626;" transform="translate(695.882865571 416.79375)scale(0.2 -0.2)">
       <use xlink:href="#LiberationSans-2212"/>
       <use x="58.3984375" xlink:href="#LiberationSans-31"/>
       <use x="114.013671875" xlink:href="#LiberationSans-2e"/>
       <use x="141.796875" xlink:href="#LiberationSans-35"/>
      </g>
     </g>
    </g>
    <g id="xtick_30">
     <g id="line2d_127">
      <path clip-path="url(#p97c60d211f)" d="
M784.069 395.3
L784.069 248" style="fill:none;stroke:#ffffff;stroke-linecap:round;"/>
     </g>
     <g id="line2d_128">
      <g>
       <use style="fill:#262626;stroke:#262626;" x="784.068856143" xlink:href="#m219da94a98" y="395.3"/>
      </g>
     </g>
     <g id="line2d_129">
      <g>
       <use style="fill:#262626;stroke:#262626;" x="784.068856143" xlink:href="#m219da94a98" y="248.0"/>
      </g>
     </g>
     <g id="text_48">
      <!-- −1.0 -->
      <g style="fill:#262626;" transform="translate(765.212606143 416.79375)scale(0.2 -0.2)">
       <use xlink:href="#LiberationSans-2212"/>
       <use x="58.3984375" xlink:href="#LiberationSans-31"/>
       <use x="114.013671875" xlink:href="#LiberationSans-2e"/>
       <use x="141.796875" xlink:href="#LiberationSans-30"/>
      </g>
     </g>
    </g>
    <g id="xtick_31">
     <g id="line2d_130">
      <path clip-path="url(#p97c60d211f)" d="
M853.427 395.3
L853.427 248" style="fill:none;stroke:#ffffff;stroke-linecap:round;"/>
     </g>
     <g id="line2d_131">
      <g>
       <use style="fill:#262626;stroke:#262626;" x="853.426721714" xlink:href="#m219da94a98" y="395.3"/>
      </g>
     </g>
     <g id="line2d_132">
      <g>
       <use style="fill:#262626;stroke:#262626;" x="853.426721714" xlink:href="#m219da94a98" y="248.0"/>
      </g>
     </g>
     <g id="text_49">
      <!-- −0.5 -->
      <g style="fill:#262626;" transform="translate(834.598596714 416.79375)scale(0.2 -0.2)">
       <use xlink:href="#LiberationSans-2212"/>
       <use x="58.3984375" xlink:href="#LiberationSans-30"/>
       <use x="114.013671875" xlink:href="#LiberationSans-2e"/>
       <use x="141.796875" xlink:href="#LiberationSans-35"/>
      </g>
     </g>
    </g>
    <g id="xtick_32">
     <g id="line2d_133">
      <path clip-path="url(#p97c60d211f)" d="
M922.785 395.3
L922.785 248" style="fill:none;stroke:#ffffff;stroke-linecap:round;"/>
     </g>
     <g id="line2d_134">
      <g>
       <use style="fill:#262626;stroke:#262626;" x="922.784587286" xlink:href="#m219da94a98" y="395.3"/>
      </g>
     </g>
     <g id="line2d_135">
      <g>
       <use style="fill:#262626;stroke:#262626;" x="922.784587286" xlink:href="#m219da94a98" y="248.0"/>
      </g>
     </g>
     <g id="text_50">
      <!-- 0.0 -->
      <g style="fill:#262626;" transform="translate(909.665837286 416.79375)scale(0.2 -0.2)">
       <use xlink:href="#LiberationSans-30"/>
       <use x="55.615234375" xlink:href="#LiberationSans-2e"/>
       <use x="83.3984375" xlink:href="#LiberationSans-30"/>
      </g>
     </g>
    </g>
    <g id="xtick_33">
     <g id="line2d_136">
      <path clip-path="url(#p97c60d211f)" d="
M992.142 395.3
L992.142 248" style="fill:none;stroke:#ffffff;stroke-linecap:round;"/>
     </g>
     <g id="line2d_137">
      <g>
       <use style="fill:#262626;stroke:#262626;" x="992.142452857" xlink:href="#m219da94a98" y="395.3"/>
      </g>
     </g>
     <g id="line2d_138">
      <g>
       <use style="fill:#262626;stroke:#262626;" x="992.142452857" xlink:href="#m219da94a98" y="248.0"/>
      </g>
     </g>
     <g id="text_51">
      <!-- 0.5 -->
      <g style="fill:#262626;" transform="translate(979.051827857 416.79375)scale(0.2 -0.2)">
       <use xlink:href="#LiberationSans-30"/>
       <use x="55.615234375" xlink:href="#LiberationSans-2e"/>
       <use x="83.3984375" xlink:href="#LiberationSans-35"/>
      </g>
     </g>
    </g>
    <g id="xtick_34">
     <g id="line2d_139">
      <path clip-path="url(#p97c60d211f)" d="
M1061.5 395.3
L1061.5 248" style="fill:none;stroke:#ffffff;stroke-linecap:round;"/>
     </g>
     <g id="line2d_140">
      <g>
       <use style="fill:#262626;stroke:#262626;" x="1061.50031843" xlink:href="#m219da94a98" y="395.3"/>
      </g>
     </g>
     <g id="line2d_141">
      <g>
       <use style="fill:#262626;stroke:#262626;" x="1061.50031843" xlink:href="#m219da94a98" y="248.0"/>
      </g>
     </g>
     <g id="text_52">
      <!-- 1.0 -->
      <g style="fill:#262626;" transform="translate(1048.75344343 416.79375)scale(0.2 -0.2)">
       <use xlink:href="#LiberationSans-31"/>
       <use x="55.615234375" xlink:href="#LiberationSans-2e"/>
       <use x="83.3984375" xlink:href="#LiberationSans-30"/>
      </g>
     </g>
    </g>
    <g id="xtick_35">
     <g id="line2d_142">
      <path clip-path="url(#p97c60d211f)" d="
M1130.86 395.3
L1130.86 248" style="fill:none;stroke:#ffffff;stroke-linecap:round;"/>
     </g>
     <g id="line2d_143">
      <g>
       <use style="fill:#262626;stroke:#262626;" x="1130.858184" xlink:href="#m219da94a98" y="395.3"/>
      </g>
     </g>
     <g id="line2d_144">
      <g>
       <use style="fill:#262626;stroke:#262626;" x="1130.858184" xlink:href="#m219da94a98" y="248.0"/>
      </g>
     </g>
     <g id="text_53">
      <!-- 1.5 -->
      <g style="fill:#262626;" transform="translate(1118.139434 416.79375)scale(0.2 -0.2)">
       <use xlink:href="#LiberationSans-31"/>
       <use x="55.615234375" xlink:href="#LiberationSans-2e"/>
       <use x="83.3984375" xlink:href="#LiberationSans-35"/>
      </g>
     </g>
    </g>
    <g id="xtick_36">
     <g id="text_54">
      <!-- 2.0 -->
      <g style="fill:#262626;" transform="translate(1187.20979957 416.79375)scale(0.2 -0.2)">
       <use xlink:href="#LiberationSans-32"/>
       <use x="55.615234375" xlink:href="#LiberationSans-2e"/>
       <use x="83.3984375" xlink:href="#LiberationSans-30"/>
      </g>
     </g>
    </g>
   </g>
   <g id="matplotlib.axis_8">
    <g id="ytick_16">
     <g id="line2d_145">
      <path clip-path="url(#p97c60d211f)" d="
M645.353 391.793
L1200.08 391.793" style="fill:none;stroke:#ffffff;stroke-linecap:round;"/>
     </g>
     <g id="line2d_146">
      <g>
       <use style="fill:#262626;stroke:#262626;" x="645.353125" xlink:href="#m219da94a98" y="391.792857143"/>
      </g>
     </g>
     <g id="line2d_147">
      <g>
       <use style="fill:#262626;stroke:#262626;" x="1200.07733384" xlink:href="#m219da94a98" y="391.792857143"/>
      </g>
     </g>
     <g id="text_55">
      <!-- −2 -->
      <g style="fill:#262626;" transform="translate(617.540625 396.964732143)scale(0.2 -0.2)">
       <use xlink:href="#LiberationSans-2212"/>
       <use x="58.3984375" xlink:href="#LiberationSans-32"/>
      </g>
     </g>
    </g>
    <g id="ytick_17">
     <g id="line2d_148">
      <path clip-path="url(#p97c60d211f)" d="
M645.353 356.721
L1200.08 356.721" style="fill:none;stroke:#ffffff;stroke-linecap:round;"/>
     </g>
     <g id="line2d_149">
      <g>
       <use style="fill:#262626;stroke:#262626;" x="645.353125" xlink:href="#m219da94a98" y="356.721428571"/>
      </g>
     </g>
     <g id="line2d_150">
      <g>
       <use style="fill:#262626;stroke:#262626;" x="1200.07733384" xlink:href="#m219da94a98" y="356.721428571"/>
      </g>
     </g>
     <g id="text_56">
      <!-- −1 -->
      <g style="fill:#262626;" transform="translate(617.5125 361.893303571)scale(0.2 -0.2)">
       <use xlink:href="#LiberationSans-2212"/>
       <use x="58.3984375" xlink:href="#LiberationSans-31"/>
      </g>
     </g>
    </g>
    <g id="ytick_18">
     <g id="line2d_151">
      <path clip-path="url(#p97c60d211f)" d="
M645.353 321.65
L1200.08 321.65" style="fill:none;stroke:#ffffff;stroke-linecap:round;"/>
     </g>
     <g id="line2d_152">
      <g>
       <use style="fill:#262626;stroke:#262626;" x="645.353125" xlink:href="#m219da94a98" y="321.65"/>
      </g>
     </g>
     <g id="line2d_153">
      <g>
       <use style="fill:#262626;stroke:#262626;" x="1200.07733384" xlink:href="#m219da94a98" y="321.65"/>
      </g>
     </g>
     <g id="text_57">
      <!-- 0 -->
      <g style="fill:#262626;" transform="translate(628.79375 326.821875)scale(0.2 -0.2)">
       <use xlink:href="#LiberationSans-30"/>
      </g>
     </g>
    </g>
    <g id="ytick_19">
     <g id="line2d_154">
      <path clip-path="url(#p97c60d211f)" d="
M645.353 286.579
L1200.08 286.579" style="fill:none;stroke:#ffffff;stroke-linecap:round;"/>
     </g>
     <g id="line2d_155">
      <g>
       <use style="fill:#262626;stroke:#262626;" x="645.353125" xlink:href="#m219da94a98" y="286.578571429"/>
      </g>
     </g>
     <g id="line2d_156">
      <g>
       <use style="fill:#262626;stroke:#262626;" x="1200.07733384" xlink:href="#m219da94a98" y="286.578571429"/>
      </g>
     </g>
     <g id="text_58">
      <!-- 1 -->
      <g style="fill:#262626;" transform="translate(629.73125 291.750446429)scale(0.2 -0.2)">
       <use xlink:href="#LiberationSans-31"/>
      </g>
     </g>
    </g>
    <g id="ytick_20">
     <g id="line2d_157">
      <path clip-path="url(#p97c60d211f)" d="
M645.353 251.507
L1200.08 251.507" style="fill:none;stroke:#ffffff;stroke-linecap:round;"/>
     </g>
     <g id="line2d_158">
      <g>
       <use style="fill:#262626;stroke:#262626;" x="645.353125" xlink:href="#m219da94a98" y="251.507142857"/>
      </g>
     </g>
     <g id="line2d_159">
      <g>
       <use style="fill:#262626;stroke:#262626;" x="1200.07733384" xlink:href="#m219da94a98" y="251.507142857"/>
      </g>
     </g>
     <g id="text_59">
      <!-- 2 -->
      <g style="fill:#262626;" transform="translate(629.240625 256.679017857)scale(0.2 -0.2)">
       <use xlink:href="#LiberationSans-32"/>
      </g>
     </g>
    </g>
   </g>
   <g id="line2d_160">
    <path clip-path="url(#p97c60d211f)" d="
M645.353 296.851
L647.85 294.21
L650.208 292.038
L652.428 290.302
L654.508 288.961
L656.45 287.971
L658.254 287.285
L660.057 286.828
L661.86 286.603
L663.664 286.612
L665.467 286.855
L667.27 287.33
L669.074 288.033
L671.016 289.041
L672.958 290.302
L675.038 291.921
L677.258 293.938
L679.616 296.388
L682.252 299.465
L685.165 303.231
L688.494 307.924
L692.516 313.999
L699.868 325.608
L705.278 333.944
L709.024 339.313
L712.075 343.319
L714.85 346.605
L717.347 349.226
L719.705 351.379
L721.924 353.096
L724.005 354.418
L725.947 355.39
L727.75 356.058
L729.554 356.497
L731.357 356.704
L733.16 356.677
L734.963 356.417
L736.767 355.924
L738.57 355.203
L740.512 354.177
L742.454 352.899
L744.535 351.262
L746.754 349.226
L749.112 346.759
L751.748 343.664
L754.661 339.881
L757.99 335.173
L762.152 328.87
L777.411 305.336
L780.601 301.036
L783.375 297.642
L786.011 294.768
L788.369 292.52
L790.588 290.707
L792.669 289.291
L794.611 288.228
L796.553 287.423
L798.357 286.913
L800.16 286.635
L801.963 286.59
L803.766 286.778
L805.57 287.2
L807.373 287.851
L809.315 288.804
L811.257 290.011
L813.338 291.575
L815.557 293.538
L817.915 295.934
L820.412 298.789
L823.187 302.303
L826.377 306.717
L830.261 312.502
L835.949 321.43
L843.3 332.906
L847.185 338.546
L850.375 342.796
L853.149 346.136
L855.646 348.813
L858.004 351.023
L860.224 352.798
L862.305 354.177
L864.247 355.203
L866.189 355.97
L867.992 356.445
L869.795 356.688
L871.598 356.697
L873.402 356.472
L875.205 356.015
L877.008 355.329
L878.95 354.339
L880.892 353.096
L882.973 351.496
L885.193 349.496
L887.551 347.065
L890.186 344.005
L893.099 340.256
L896.429 335.579
L900.451 329.515
L907.387 318.569
L913.074 309.77
L916.82 304.369
L920.01 300.154
L922.785 296.851
L925.281 294.21
L927.64 292.038
L929.859 290.302
L931.94 288.961
L933.882 287.971
L935.685 287.285
L937.488 286.828
L939.292 286.603
L941.095 286.612
L942.898 286.855
L944.702 287.33
L946.505 288.033
L948.447 289.041
L950.389 290.302
L952.47 291.921
L954.689 293.938
L957.047 296.388
L959.683 299.465
L962.596 303.231
L965.925 307.924
L969.948 313.999
L977.3 325.608
L982.71 333.944
L986.455 339.313
L989.507 343.319
L992.281 346.605
L994.778 349.226
L997.136 351.379
L999.356 353.096
L1001.44 354.418
L1003.38 355.39
L1005.18 356.058
L1006.99 356.497
L1008.79 356.704
L1010.59 356.677
L1012.39 356.417
L1014.2 355.924
L1016 355.203
L1017.94 354.177
L1019.89 352.899
L1021.97 351.262
L1024.19 349.226
L1026.54 346.759
L1029.18 343.664
L1032.09 339.881
L1035.42 335.173
L1039.58 328.87
L1054.84 305.336
L1058.03 301.036
L1060.81 297.642
L1063.44 294.768
L1065.8 292.52
L1068.02 290.707
L1070.1 289.291
L1072.04 288.228
L1073.98 287.423
L1075.79 286.913
L1077.59 286.635
L1079.39 286.59
L1081.2 286.778
L1083 287.2
L1084.8 287.851
L1086.75 288.804
L1088.69 290.011
L1090.77 291.575
L1092.99 293.538
L1095.35 295.934
L1097.84 298.789
L1100.62 302.303
L1103.81 306.717
L1107.69 312.502
L1113.38 321.43
L1120.73 332.906
L1124.62 338.546
L1127.81 342.796
L1130.58 346.136
L1133.08 348.813
L1135.44 351.023
L1137.66 352.798
L1139.74 354.177
L1141.68 355.203
L1143.62 355.97
L1145.42 356.445
L1147.23 356.688
L1149.03 356.697
L1150.83 356.472
L1152.64 356.015
L1154.44 355.329
L1156.38 354.339
L1158.32 353.096
L1160.4 351.496
L1162.62 349.496
L1164.98 347.065
L1167.62 344.005
L1170.53 340.256
L1173.86 335.579
L1177.88 329.515
L1184.82 318.569
L1190.51 309.77
L1194.25 304.369
L1197.44 300.154
L1200.08 297.007
L1200.08 297.007" style="fill:none;stroke:#4c72b0;stroke-linecap:round;stroke-width:1.75;"/>
   </g>
   <g id="patch_18">
    <path d="
M645.353 248
L1200.08 248" style="fill:none;"/>
   </g>
   <g id="patch_19">
    <path d="
M1200.08 395.3
L1200.08 248" style="fill:none;"/>
   </g>
   <g id="patch_20">
    <path d="
M645.353 395.3
L1200.08 395.3" style="fill:none;"/>
   </g>
   <g id="patch_21">
    <path d="
M645.353 395.3
L645.353 248" style="fill:none;"/>
   </g>
   <g id="text_60">
    <!-- $\sin(2\pi t + \pi/4)$ -->
    <defs>
     <path d="
M7.51562 23
Q6.6875 23 6.14062 23.625
Q5.60938 24.2656 5.60938 25
Q5.60938 25.7344 6.14062 26.3594
Q6.6875 27 7.51562 27
L36.9219 27
L36.9219 56.5
Q36.9219 57.2812 37.5 57.7812
Q38.0938 58.2969 38.9219 58.2969
Q39.6562 58.2969 40.2812 57.7812
Q40.9219 57.2812 40.9219 56.5
L40.9219 27
L70.3125 27
Q71.0469 27 71.5781 26.3594
Q72.125 25.7344 72.125 25
Q72.125 24.2656 71.5781 23.625
Q71.0469 23 70.3125 23
L40.9219 23
L40.9219 -6.5
Q40.9219 -7.28125 40.2812 -7.78125
Q39.6562 -8.29688 38.9219 -8.29688
Q38.0938 -8.29688 37.5 -7.78125
Q36.9219 -7.28125 36.9219 -6.5
L36.9219 23
z
" id="Cmr10-2b"/>
     <path d="
M5.60938 -23
Q5.60938 -22.7031 5.71875 -22.6094
L40.4844 73.7812
Q40.6719 74.3594 41.1562 74.6719
Q41.6562 75 42.2812 75
Q43.1719 75 43.7188 74.4531
Q44.2812 73.9219 44.2812 73
L44.2812 72.6094
L9.51562 -23.7812
Q8.9375 -25 7.625 -25
Q6.78125 -25 6.1875 -24.4062
Q5.60938 -23.8281 5.60938 -23" id="Cmmi10-3d"/>
    </defs>
    <g style="fill:#262626;" transform="translate(847.46522942 243.0)scale(0.25 -0.25)">
     <use xlink:href="#Cmr10-73"/>
     <use transform="translate(39.404296875 0.0)" xlink:href="#Cmr10-69"/>
     <use transform="translate(67.08984375 0.0)" xlink:href="#Cmr10-6e"/>
     <use transform="translate(122.607421875 0.0)" xlink:href="#Cmr10-28"/>
     <use transform="translate(161.42578125 0.0)" xlink:href="#Cmr10-32"/>
     <use transform="translate(211.42578125 0.0)" xlink:href="#Cmmi10-bc"/>
     <use transform="translate(268.408203125 0.0)" xlink:href="#Cmmi10-74"/>
     <use transform="translate(322.05078125 0.0)" xlink:href="#Cmr10-2b"/>
     <use transform="translate(406.109375 0.0)" xlink:href="#Cmmi10-bc"/>
     <use transform="translate(463.091796875 0.0)" xlink:href="#Cmmi10-3d"/>
     <use transform="translate(513.091796875 0.0)" xlink:href="#Cmr10-34"/>
     <use transform="translate(563.091796875 0.0)" xlink:href="#Cmr10-29"/>
    </g>
   </g>
  </g>
 </g>
 <defs>
  <clipPath id="pb9cdb7c8ab">
   <rect height="147.3" width="554.72420884" x="38.753125" y="248.0"/>
  </clipPath>
  <clipPath id="p97c60d211f">
   <rect height="147.3" width="554.72420884" x="645.353125" y="248.0"/>
  </clipPath>
  <clipPath id="pd6674b7c24">
   <rect height="147.3" width="554.72420884" x="645.353125" y="37.4"/>
  </clipPath>
  <clipPath id="p018a847e64">
   <rect height="147.3" width="554.72420884" x="38.753125" y="37.4"/>
  </clipPath>
 </defs>
</svg>
