<?xml version="1.0" encoding="utf-8" standalone="no"?>
<!DOCTYPE svg PUBLIC "-//W3C//DTD SVG 1.1//EN"
  "http://www.w3.org/Graphics/SVG/1.1/DTD/svg11.dtd">
<!-- Created with matplotlib (https://matplotlib.org/) -->
<svg height="432pt" version="1.1" viewBox="0 0 1296 432" width="1296pt" xmlns="http://www.w3.org/2000/svg" xmlns:xlink="http://www.w3.org/1999/xlink">
 <metadata>
  <rdf:RDF xmlns:cc="http://creativecommons.org/ns#" xmlns:dc="http://purl.org/dc/elements/1.1/" xmlns:rdf="http://www.w3.org/1999/02/22-rdf-syntax-ns#">
   <cc:Work>
    <dc:type rdf:resource="http://purl.org/dc/dcmitype/StillImage"/>
    <dc:date>2021-09-23T08:29:18.243969</dc:date>
    <dc:format>image/svg+xml</dc:format>
    <dc:creator>
     <cc:Agent>
      <dc:title>Matplotlib v3.3.4, https://matplotlib.org/</dc:title>
     </cc:Agent>
    </dc:creator>
   </cc:Work>
  </rdf:RDF>
 </metadata>
 <defs>
  <style type="text/css">*{stroke-linecap:butt;stroke-linejoin:round;}</style>
 </defs>
 <g id="figure_1">
  <g id="patch_1">
   <path d="M 0 432 
L 1296 432 
L 1296 0 
L 0 0 
z
" style="fill:none;"/>
  </g>
  <g id="axes_1">
   <g id="line2d_1">
    <path clip-path="url(#pa1da6584db)" d="M 10.8 208 
L 405.4 208 
" style="fill:none;stroke:#cccccc;stroke-linecap:square;"/>
   </g>
   <g id="line2d_2">
    <path clip-path="url(#pa1da6584db)" d="M 10.620636 189.462255 
L 13.311091 183.335163 
L 15.104727 179.790059 
L 16.539636 177.423743 
L 17.795182 175.767841 
L 18.871364 174.692253 
L 19.768182 174.054776 
L 20.665 173.662023 
L 21.561818 173.519405 
L 22.458636 173.629061 
L 23.355455 173.989886 
L 24.252273 174.597613 
L 25.328455 175.642301 
L 26.404636 177.0138 
L 27.660182 178.995344 
L 29.095091 181.706698 
L 30.888727 185.648637 
L 33.041091 190.959217 
L 41.112455 211.480995 
L 43.085455 215.660181 
L 44.879091 218.994687 
L 46.672727 221.885556 
L 48.466364 224.373211 
L 50.439364 226.735864 
L 53.129818 229.58141 
L 56.717091 233.398995 
L 58.690091 235.853902 
L 60.483727 238.465679 
L 62.098 241.193511 
L 63.891636 244.683295 
L 65.685273 248.658942 
L 67.837636 254.011803 
L 70.528091 261.363783 
L 76.088364 276.758793 
L 77.882 281.039633 
L 79.316909 283.980967 
L 80.572455 286.117373 
L 81.648636 287.575726 
L 82.724818 288.654557 
L 83.621636 289.242959 
L 84.518455 289.534308 
L 85.235909 289.546166 
L 85.953364 289.356811 
L 86.670818 288.963381 
L 87.567636 288.182359 
L 88.464455 287.079995 
L 89.540636 285.337599 
L 90.616818 283.148606 
L 91.872364 280.054617 
L 93.307273 275.854993 
L 94.921545 270.374598 
L 96.894545 262.773036 
L 99.405636 252.069783 
L 107.835727 215.204355 
L 109.988091 207.17104 
L 111.961091 200.65504 
L 113.754727 195.477899 
L 115.548364 191.002164 
L 117.162636 187.533751 
L 118.956273 184.228106 
L 120.749909 181.398425 
L 122.722909 178.692716 
L 125.413364 175.400235 
L 130.614909 169.101803 
L 133.484727 165.223613 
L 141.914818 153.49286 
L 143.529091 151.82457 
L 144.784636 150.816865 
L 145.860818 150.19421 
L 146.937 149.822821 
L 147.833818 149.722764 
L 148.730636 149.825988 
L 149.627455 150.142404 
L 150.524273 150.6796 
L 151.600455 151.622604 
L 152.676636 152.894269 
L 153.752818 154.492289 
L 155.008364 156.75759 
L 156.443273 159.845035 
L 158.057545 163.888934 
L 160.030545 169.504216 
L 162.721 177.938192 
L 167.384455 192.662289 
L 169.357455 198.122815 
L 170.971727 201.956714 
L 172.406636 204.774137 
L 173.662182 206.724432 
L 174.738364 207.984845 
L 175.635182 208.733369 
L 176.532 209.202134 
L 177.428818 209.389781 
L 178.325636 209.298487 
L 179.222455 208.933946 
L 180.119273 208.305307 
L 181.195455 207.220125 
L 182.271636 205.800331 
L 183.527182 203.766106 
L 184.962091 201.0204 
L 186.935091 196.7027 
L 193.930273 180.792119 
L 195.365182 178.255611 
L 196.620727 176.426733 
L 197.696909 175.188738 
L 198.773091 174.280813 
L 199.669909 173.789338 
L 200.566727 173.546226 
L 201.463545 173.554924 
L 202.360364 173.815619 
L 203.257182 174.325295 
L 204.154 175.077844 
L 205.230182 176.288546 
L 206.485727 178.098306 
L 207.920636 180.638547 
L 209.534909 184.007607 
L 211.507909 188.687615 
L 214.557091 196.603932 
L 218.682455 207.264827 
L 221.014182 212.671694 
L 222.987182 216.707928 
L 224.780818 219.907441 
L 226.574455 222.67136 
L 228.368091 225.051455 
L 230.520455 227.523663 
L 237.695 235.378432 
L 239.488636 237.909889 
L 241.102909 240.554256 
L 242.896545 243.945974 
L 244.690182 247.826218 
L 246.663182 252.62039 
L 249.174273 259.352776 
L 256.169455 278.540323 
L 257.963091 282.571443 
L 259.398 285.256117 
L 260.653545 287.130225 
L 261.729727 288.33898 
L 262.626545 289.042543 
L 263.523364 289.454171 
L 264.240818 289.565159 
L 264.958273 289.476849 
L 265.675727 289.185734 
L 266.572545 288.533394 
L 267.469364 287.559375 
L 268.366182 286.265494 
L 269.442364 284.297954 
L 270.697909 281.449773 
L 271.953455 278.039341 
L 273.388364 273.511427 
L 275.182 267.028846 
L 277.334364 258.297328 
L 280.383545 244.840891 
L 285.585091 221.778827 
L 288.096182 211.746983 
L 290.069182 204.703586 
L 291.862818 199.026834 
L 293.656455 194.063065 
L 295.450091 189.789781 
L 297.064364 186.485492 
L 298.858 183.334451 
L 300.651636 180.624702 
L 302.804 177.783294 
L 306.391273 173.499495 
L 309.978545 169.101803 
L 312.848364 165.223613 
L 321.278455 153.49286 
L 322.892727 151.82457 
L 324.148273 150.816865 
L 325.224455 150.19421 
L 326.300636 149.822821 
L 327.197455 149.722764 
L 328.094273 149.825988 
L 328.991091 150.142404 
L 329.887909 150.6796 
L 330.964091 151.622604 
L 332.040273 152.894269 
L 333.116455 154.492289 
L 334.372 156.75759 
L 335.806909 159.845035 
L 337.421182 163.888934 
L 339.394182 169.504216 
L 342.084636 177.938192 
L 346.748091 192.662289 
L 348.721091 198.122815 
L 350.335364 201.956714 
L 351.770273 204.774137 
L 353.025818 206.724432 
L 354.102 207.984845 
L 354.998818 208.733369 
L 355.895636 209.202134 
L 356.792455 209.389781 
L 357.689273 209.298487 
L 358.586091 208.933946 
L 359.482909 208.305307 
L 360.559091 207.220125 
L 361.635273 205.800331 
L 362.890818 203.766106 
L 364.325727 201.0204 
L 366.298727 196.7027 
L 373.293909 180.792119 
L 374.728818 178.255611 
L 375.984364 176.426733 
L 377.060545 175.188738 
L 378.136727 174.280813 
L 379.033545 173.789338 
L 379.930364 173.546226 
L 380.827182 173.554924 
L 381.724 173.815619 
L 382.620818 174.325295 
L 383.517636 175.077844 
L 384.593818 176.288546 
L 385.849364 178.098306 
L 387.284273 180.638547 
L 388.898545 184.007607 
L 390.871545 188.687615 
L 393.920727 196.603932 
L 398.046091 207.264827 
L 400.377818 212.671694 
L 402.350818 216.707928 
L 404.144455 219.907441 
L 405.4 221.885556 
L 405.4 221.885556 
" style="fill:none;stroke:#1f77b4;stroke-linecap:square;stroke-opacity:0.3;"/>
   </g>
   <g id="line2d_3">
    <path clip-path="url(#pa1da6584db)" d="M 118.418182 185.164704 
L 120.211818 182.204268 
L 122.184818 179.397349 
L 124.695909 176.252756 
L 131.332364 168.165117 
L 134.381545 163.946566 
L 141.018 154.565762 
L 142.811636 152.519475 
L 144.246545 151.214041 
L 145.502091 150.375128 
L 146.578273 149.917141 
L 147.654455 149.726868 
L 148.551273 149.788573 
L 149.448091 150.061666 
L 150.344909 150.554218 
L 151.241727 151.27181 
L 152.317909 152.433881 
L 153.394091 153.923746 
L 154.649636 156.067404 
L 156.084545 159.025766 
L 157.698818 162.942658 
L 159.492455 167.910825 
L 161.824182 175.063194 
L 168.101909 194.731862 
L 169.895545 199.472082 
L 171.330455 202.716582 
L 172.586 205.083258 
L 173.841545 206.961431 
L 174.917727 208.156747 
L 175.814545 208.849597 
L 176.711364 209.262135 
L 177.608182 209.393706 
L 178.505 209.247195 
L 179.401818 208.828994 
L 180.298636 208.148928 
L 181.374818 207.005895 
L 182.451 205.533443 
L 183.706545 203.445605 
L 185.320818 200.275401 
L 187.293818 195.870966 
L 193.392182 181.849215 
L 195.006455 178.848002 
L 196.441364 176.663548 
L 197.696909 175.188738 
L 198.773091 174.280813 
L 199.669909 173.789338 
L 200.566727 173.546226 
L 201.463545 173.554924 
L 202.360364 173.815619 
L 203.257182 174.325295 
L 204.154 175.077844 
L 205.230182 176.288546 
L 206.485727 178.098306 
L 207.920636 180.638547 
L 209.534909 184.007607 
L 211.507909 188.687615 
L 214.557091 196.603932 
L 218.682455 207.264827 
L 221.014182 212.671694 
L 222.987182 216.707928 
L 224.780818 219.907441 
L 226.574455 222.67136 
L 228.368091 225.051455 
L 230.520455 227.523663 
L 237.695 235.378432 
L 239.488636 237.909889 
L 241.102909 240.554256 
L 242.896545 243.945974 
L 244.690182 247.826218 
L 246.663182 252.62039 
L 249.174273 259.352776 
L 256.169455 278.540323 
L 257.963091 282.571443 
L 259.398 285.256117 
L 260.653545 287.130225 
L 261.729727 288.33898 
L 262.626545 289.042543 
L 263.523364 289.454171 
L 264.240818 289.565159 
L 264.958273 289.476849 
L 265.675727 289.185734 
L 266.572545 288.533394 
L 267.469364 287.559375 
L 268.366182 286.265494 
L 269.442364 284.297954 
L 270.697909 281.449773 
L 271.953455 278.039341 
L 273.388364 273.511427 
L 275.182 267.028846 
L 277.334364 258.297328 
L 280.383545 244.840891 
L 285.585091 221.778827 
L 288.096182 211.746983 
L 290.069182 204.703586 
L 291.862818 199.026834 
L 293.656455 194.063065 
L 295.450091 189.789781 
L 297.064364 186.485492 
L 297.602455 185.486971 
L 297.602455 185.486971 
" style="fill:none;stroke:#d62728;stroke-linecap:square;stroke-width:3;"/>
   </g>
  </g>
  <g id="axes_2">
   <g id="patch_2">
    <path d="M 450.7 144.48 
L 845.3 144.48 
L 845.3 30.8 
L 450.7 30.8 
z
" style="fill:#ffffff;"/>
   </g>
   <g id="matplotlib.axis_1">
    <g id="xtick_1">
     <g id="line2d_4">
      <path clip-path="url(#p627a13f621)" d="M 472.622222 144.48 
L 472.622222 30.8 
" style="fill:none;stroke:#cccccc;stroke-dasharray:1.85,0.8;stroke-dashoffset:0;stroke-width:0.5;"/>
     </g>
     <g id="line2d_5">
      <defs>
       <path d="M 0 0 
L 0 3.5 
" id="m1868689d8f" style="stroke:#000000;stroke-width:0.8;"/>
      </defs>
      <g>
       <use style="stroke:#000000;stroke-width:0.8;" x="472.622222" xlink:href="#m1868689d8f" y="144.48"/>
      </g>
     </g>
     <g id="text_1">
      <!-- −4 -->
      <g transform="translate(465.251128 159.078437)scale(0.1 -0.1)">
       <defs>
        <path d="M 10.59375 35.5 
L 73.1875 35.5 
L 73.1875 27.203125 
L 10.59375 27.203125 
z
" id="DejaVuSans-8722"/>
        <path d="M 37.796875 64.3125 
L 12.890625 25.390625 
L 37.796875 25.390625 
z
M 35.203125 72.90625 
L 47.609375 72.90625 
L 47.609375 25.390625 
L 58.015625 25.390625 
L 58.015625 17.1875 
L 47.609375 17.1875 
L 47.609375 0 
L 37.796875 0 
L 37.796875 17.1875 
L 4.890625 17.1875 
L 4.890625 26.703125 
z
" id="DejaVuSans-52"/>
       </defs>
       <use xlink:href="#DejaVuSans-8722"/>
       <use x="83.789062" xlink:href="#DejaVuSans-52"/>
      </g>
     </g>
    </g>
    <g id="xtick_2">
     <g id="line2d_6">
      <path clip-path="url(#p627a13f621)" d="M 516.466667 144.48 
L 516.466667 30.8 
" style="fill:none;stroke:#cccccc;stroke-dasharray:1.85,0.8;stroke-dashoffset:0;stroke-width:0.5;"/>
     </g>
     <g id="line2d_7">
      <g>
       <use style="stroke:#000000;stroke-width:0.8;" x="516.466667" xlink:href="#m1868689d8f" y="144.48"/>
      </g>
     </g>
     <g id="text_2">
      <!-- −3 -->
      <g transform="translate(509.095573 159.078437)scale(0.1 -0.1)">
       <defs>
        <path d="M 40.578125 39.3125 
Q 47.65625 37.796875 51.625 33 
Q 55.609375 28.21875 55.609375 21.1875 
Q 55.609375 10.40625 48.1875 4.484375 
Q 40.765625 -1.421875 27.09375 -1.421875 
Q 22.515625 -1.421875 17.65625 -0.515625 
Q 12.796875 0.390625 7.625 2.203125 
L 7.625 11.71875 
Q 11.71875 9.328125 16.59375 8.109375 
Q 21.484375 6.890625 26.8125 6.890625 
Q 36.078125 6.890625 40.9375 10.546875 
Q 45.796875 14.203125 45.796875 21.1875 
Q 45.796875 27.640625 41.28125 31.265625 
Q 36.765625 34.90625 28.71875 34.90625 
L 20.21875 34.90625 
L 20.21875 43.015625 
L 29.109375 43.015625 
Q 36.375 43.015625 40.234375 45.921875 
Q 44.09375 48.828125 44.09375 54.296875 
Q 44.09375 59.90625 40.109375 62.90625 
Q 36.140625 65.921875 28.71875 65.921875 
Q 24.65625 65.921875 20.015625 65.03125 
Q 15.375 64.15625 9.8125 62.3125 
L 9.8125 71.09375 
Q 15.4375 72.65625 20.34375 73.4375 
Q 25.25 74.21875 29.59375 74.21875 
Q 40.828125 74.21875 47.359375 69.109375 
Q 53.90625 64.015625 53.90625 55.328125 
Q 53.90625 49.265625 50.4375 45.09375 
Q 46.96875 40.921875 40.578125 39.3125 
z
" id="DejaVuSans-51"/>
       </defs>
       <use xlink:href="#DejaVuSans-8722"/>
       <use x="83.789062" xlink:href="#DejaVuSans-51"/>
      </g>
     </g>
    </g>
    <g id="xtick_3">
     <g id="line2d_8">
      <path clip-path="url(#p627a13f621)" d="M 560.311111 144.48 
L 560.311111 30.8 
" style="fill:none;stroke:#cccccc;stroke-dasharray:1.85,0.8;stroke-dashoffset:0;stroke-width:0.5;"/>
     </g>
     <g id="line2d_9">
      <g>
       <use style="stroke:#000000;stroke-width:0.8;" x="560.311111" xlink:href="#m1868689d8f" y="144.48"/>
      </g>
     </g>
     <g id="text_3">
      <!-- −2 -->
      <g transform="translate(552.940017 159.078437)scale(0.1 -0.1)">
       <defs>
        <path d="M 19.1875 8.296875 
L 53.609375 8.296875 
L 53.609375 0 
L 7.328125 0 
L 7.328125 8.296875 
Q 12.9375 14.109375 22.625 23.890625 
Q 32.328125 33.6875 34.8125 36.53125 
Q 39.546875 41.84375 41.421875 45.53125 
Q 43.3125 49.21875 43.3125 52.78125 
Q 43.3125 58.59375 39.234375 62.25 
Q 35.15625 65.921875 28.609375 65.921875 
Q 23.96875 65.921875 18.8125 64.3125 
Q 13.671875 62.703125 7.8125 59.421875 
L 7.8125 69.390625 
Q 13.765625 71.78125 18.9375 73 
Q 24.125 74.21875 28.421875 74.21875 
Q 39.75 74.21875 46.484375 68.546875 
Q 53.21875 62.890625 53.21875 53.421875 
Q 53.21875 48.921875 51.53125 44.890625 
Q 49.859375 40.875 45.40625 35.40625 
Q 44.1875 33.984375 37.640625 27.21875 
Q 31.109375 20.453125 19.1875 8.296875 
z
" id="DejaVuSans-50"/>
       </defs>
       <use xlink:href="#DejaVuSans-8722"/>
       <use x="83.789062" xlink:href="#DejaVuSans-50"/>
      </g>
     </g>
    </g>
    <g id="xtick_4">
     <g id="line2d_10">
      <path clip-path="url(#p627a13f621)" d="M 604.155556 144.48 
L 604.155556 30.8 
" style="fill:none;stroke:#cccccc;stroke-dasharray:1.85,0.8;stroke-dashoffset:0;stroke-width:0.5;"/>
     </g>
     <g id="line2d_11">
      <g>
       <use style="stroke:#000000;stroke-width:0.8;" x="604.155556" xlink:href="#m1868689d8f" y="144.48"/>
      </g>
     </g>
     <g id="text_4">
      <!-- −1 -->
      <g transform="translate(596.784462 159.078437)scale(0.1 -0.1)">
       <defs>
        <path d="M 12.40625 8.296875 
L 28.515625 8.296875 
L 28.515625 63.921875 
L 10.984375 60.40625 
L 10.984375 69.390625 
L 28.421875 72.90625 
L 38.28125 72.90625 
L 38.28125 8.296875 
L 54.390625 8.296875 
L 54.390625 0 
L 12.40625 0 
z
" id="DejaVuSans-49"/>
       </defs>
       <use xlink:href="#DejaVuSans-8722"/>
       <use x="83.789062" xlink:href="#DejaVuSans-49"/>
      </g>
     </g>
    </g>
    <g id="xtick_5">
     <g id="line2d_12">
      <path clip-path="url(#p627a13f621)" d="M 648 144.48 
L 648 30.8 
" style="fill:none;stroke:#cccccc;stroke-dasharray:1.85,0.8;stroke-dashoffset:0;stroke-width:0.5;"/>
     </g>
     <g id="line2d_13">
      <g>
       <use style="stroke:#000000;stroke-width:0.8;" x="648" xlink:href="#m1868689d8f" y="144.48"/>
      </g>
     </g>
     <g id="text_5">
      <!-- 0 -->
      <g transform="translate(644.81875 159.078437)scale(0.1 -0.1)">
       <defs>
        <path d="M 31.78125 66.40625 
Q 24.171875 66.40625 20.328125 58.90625 
Q 16.5 51.421875 16.5 36.375 
Q 16.5 21.390625 20.328125 13.890625 
Q 24.171875 6.390625 31.78125 6.390625 
Q 39.453125 6.390625 43.28125 13.890625 
Q 47.125 21.390625 47.125 36.375 
Q 47.125 51.421875 43.28125 58.90625 
Q 39.453125 66.40625 31.78125 66.40625 
z
M 31.78125 74.21875 
Q 44.046875 74.21875 50.515625 64.515625 
Q 56.984375 54.828125 56.984375 36.375 
Q 56.984375 17.96875 50.515625 8.265625 
Q 44.046875 -1.421875 31.78125 -1.421875 
Q 19.53125 -1.421875 13.0625 8.265625 
Q 6.59375 17.96875 6.59375 36.375 
Q 6.59375 54.828125 13.0625 64.515625 
Q 19.53125 74.21875 31.78125 74.21875 
z
" id="DejaVuSans-48"/>
       </defs>
       <use xlink:href="#DejaVuSans-48"/>
      </g>
     </g>
    </g>
    <g id="xtick_6">
     <g id="line2d_14">
      <path clip-path="url(#p627a13f621)" d="M 691.844444 144.48 
L 691.844444 30.8 
" style="fill:none;stroke:#cccccc;stroke-dasharray:1.85,0.8;stroke-dashoffset:0;stroke-width:0.5;"/>
     </g>
     <g id="line2d_15">
      <g>
       <use style="stroke:#000000;stroke-width:0.8;" x="691.844444" xlink:href="#m1868689d8f" y="144.48"/>
      </g>
     </g>
     <g id="text_6">
      <!-- 1 -->
      <g transform="translate(688.663194 159.078437)scale(0.1 -0.1)">
       <use xlink:href="#DejaVuSans-49"/>
      </g>
     </g>
    </g>
    <g id="xtick_7">
     <g id="line2d_16">
      <path clip-path="url(#p627a13f621)" d="M 735.688889 144.48 
L 735.688889 30.8 
" style="fill:none;stroke:#cccccc;stroke-dasharray:1.85,0.8;stroke-dashoffset:0;stroke-width:0.5;"/>
     </g>
     <g id="line2d_17">
      <g>
       <use style="stroke:#000000;stroke-width:0.8;" x="735.688889" xlink:href="#m1868689d8f" y="144.48"/>
      </g>
     </g>
     <g id="text_7">
      <!-- 2 -->
      <g transform="translate(732.507639 159.078437)scale(0.1 -0.1)">
       <use xlink:href="#DejaVuSans-50"/>
      </g>
     </g>
    </g>
    <g id="xtick_8">
     <g id="line2d_18">
      <path clip-path="url(#p627a13f621)" d="M 779.533333 144.48 
L 779.533333 30.8 
" style="fill:none;stroke:#cccccc;stroke-dasharray:1.85,0.8;stroke-dashoffset:0;stroke-width:0.5;"/>
     </g>
     <g id="line2d_19">
      <g>
       <use style="stroke:#000000;stroke-width:0.8;" x="779.533333" xlink:href="#m1868689d8f" y="144.48"/>
      </g>
     </g>
     <g id="text_8">
      <!-- 3 -->
      <g transform="translate(776.352083 159.078437)scale(0.1 -0.1)">
       <use xlink:href="#DejaVuSans-51"/>
      </g>
     </g>
    </g>
    <g id="xtick_9">
     <g id="line2d_20">
      <path clip-path="url(#p627a13f621)" d="M 823.377778 144.48 
L 823.377778 30.8 
" style="fill:none;stroke:#cccccc;stroke-dasharray:1.85,0.8;stroke-dashoffset:0;stroke-width:0.5;"/>
     </g>
     <g id="line2d_21">
      <g>
       <use style="stroke:#000000;stroke-width:0.8;" x="823.377778" xlink:href="#m1868689d8f" y="144.48"/>
      </g>
     </g>
     <g id="text_9">
      <!-- 4 -->
      <g transform="translate(820.196528 159.078437)scale(0.1 -0.1)">
       <use xlink:href="#DejaVuSans-52"/>
      </g>
     </g>
    </g>
    <g id="text_10">
     <!-- k -->
     <g transform="translate(643.3675 177.315625)scale(0.16 -0.16)">
      <defs>
       <path d="M 9.078125 75.984375 
L 18.109375 75.984375 
L 18.109375 31.109375 
L 44.921875 54.6875 
L 56.390625 54.6875 
L 27.390625 29.109375 
L 57.625 0 
L 45.90625 0 
L 18.109375 26.703125 
L 18.109375 0 
L 9.078125 0 
z
" id="DejaVuSans-107"/>
      </defs>
      <use xlink:href="#DejaVuSans-107"/>
     </g>
    </g>
   </g>
   <g id="matplotlib.axis_2">
    <g id="ytick_1">
     <g id="line2d_22">
      <path clip-path="url(#p627a13f621)" d="M 450.7 144.48 
L 845.3 144.48 
" style="fill:none;stroke:#cccccc;stroke-dasharray:1.85,0.8;stroke-dashoffset:0;stroke-width:0.5;"/>
     </g>
     <g id="line2d_23">
      <defs>
       <path d="M 0 0 
L -3.5 0 
" id="m2485c964d0" style="stroke:#000000;stroke-width:0.8;"/>
      </defs>
      <g>
       <use style="stroke:#000000;stroke-width:0.8;" x="450.7" xlink:href="#m2485c964d0" y="144.48"/>
      </g>
     </g>
     <g id="text_11">
      <!-- −1.0 -->
      <g transform="translate(419.417188 148.279219)scale(0.1 -0.1)">
       <defs>
        <path d="M 10.6875 12.40625 
L 21 12.40625 
L 21 0 
L 10.6875 0 
z
" id="DejaVuSans-46"/>
       </defs>
       <use xlink:href="#DejaVuSans-8722"/>
       <use x="83.789062" xlink:href="#DejaVuSans-49"/>
       <use x="147.412109" xlink:href="#DejaVuSans-46"/>
       <use x="179.199219" xlink:href="#DejaVuSans-48"/>
      </g>
     </g>
    </g>
    <g id="ytick_2">
     <g id="line2d_24">
      <path clip-path="url(#p627a13f621)" d="M 450.7 116.06 
L 845.3 116.06 
" style="fill:none;stroke:#cccccc;stroke-dasharray:1.85,0.8;stroke-dashoffset:0;stroke-width:0.5;"/>
     </g>
     <g id="line2d_25">
      <g>
       <use style="stroke:#000000;stroke-width:0.8;" x="450.7" xlink:href="#m2485c964d0" y="116.06"/>
      </g>
     </g>
     <g id="text_12">
      <!-- −0.5 -->
      <g transform="translate(419.417188 119.859219)scale(0.1 -0.1)">
       <defs>
        <path d="M 10.796875 72.90625 
L 49.515625 72.90625 
L 49.515625 64.59375 
L 19.828125 64.59375 
L 19.828125 46.734375 
Q 21.96875 47.46875 24.109375 47.828125 
Q 26.265625 48.1875 28.421875 48.1875 
Q 40.625 48.1875 47.75 41.5 
Q 54.890625 34.8125 54.890625 23.390625 
Q 54.890625 11.625 47.5625 5.09375 
Q 40.234375 -1.421875 26.90625 -1.421875 
Q 22.3125 -1.421875 17.546875 -0.640625 
Q 12.796875 0.140625 7.71875 1.703125 
L 7.71875 11.625 
Q 12.109375 9.234375 16.796875 8.0625 
Q 21.484375 6.890625 26.703125 6.890625 
Q 35.15625 6.890625 40.078125 11.328125 
Q 45.015625 15.765625 45.015625 23.390625 
Q 45.015625 31 40.078125 35.4375 
Q 35.15625 39.890625 26.703125 39.890625 
Q 22.75 39.890625 18.8125 39.015625 
Q 14.890625 38.140625 10.796875 36.28125 
z
" id="DejaVuSans-53"/>
       </defs>
       <use xlink:href="#DejaVuSans-8722"/>
       <use x="83.789062" xlink:href="#DejaVuSans-48"/>
       <use x="147.412109" xlink:href="#DejaVuSans-46"/>
       <use x="179.199219" xlink:href="#DejaVuSans-53"/>
      </g>
     </g>
    </g>
    <g id="ytick_3">
     <g id="line2d_26">
      <path clip-path="url(#p627a13f621)" d="M 450.7 87.64 
L 845.3 87.64 
" style="fill:none;stroke:#cccccc;stroke-dasharray:1.85,0.8;stroke-dashoffset:0;stroke-width:0.5;"/>
     </g>
     <g id="line2d_27">
      <g>
       <use style="stroke:#000000;stroke-width:0.8;" x="450.7" xlink:href="#m2485c964d0" y="87.64"/>
      </g>
     </g>
     <g id="text_13">
      <!-- 0.0 -->
      <g transform="translate(427.796875 91.439219)scale(0.1 -0.1)">
       <use xlink:href="#DejaVuSans-48"/>
       <use x="63.623047" xlink:href="#DejaVuSans-46"/>
       <use x="95.410156" xlink:href="#DejaVuSans-48"/>
      </g>
     </g>
    </g>
    <g id="ytick_4">
     <g id="line2d_28">
      <path clip-path="url(#p627a13f621)" d="M 450.7 59.22 
L 845.3 59.22 
" style="fill:none;stroke:#cccccc;stroke-dasharray:1.85,0.8;stroke-dashoffset:0;stroke-width:0.5;"/>
     </g>
     <g id="line2d_29">
      <g>
       <use style="stroke:#000000;stroke-width:0.8;" x="450.7" xlink:href="#m2485c964d0" y="59.22"/>
      </g>
     </g>
     <g id="text_14">
      <!-- 0.5 -->
      <g transform="translate(427.796875 63.019219)scale(0.1 -0.1)">
       <use xlink:href="#DejaVuSans-48"/>
       <use x="63.623047" xlink:href="#DejaVuSans-46"/>
       <use x="95.410156" xlink:href="#DejaVuSans-53"/>
      </g>
     </g>
    </g>
    <g id="ytick_5">
     <g id="line2d_30">
      <path clip-path="url(#p627a13f621)" d="M 450.7 30.8 
L 845.3 30.8 
" style="fill:none;stroke:#cccccc;stroke-dasharray:1.85,0.8;stroke-dashoffset:0;stroke-width:0.5;"/>
     </g>
     <g id="line2d_31">
      <g>
       <use style="stroke:#000000;stroke-width:0.8;" x="450.7" xlink:href="#m2485c964d0" y="30.8"/>
      </g>
     </g>
     <g id="text_15">
      <!-- 1.0 -->
      <g transform="translate(427.796875 34.599219)scale(0.1 -0.1)">
       <use xlink:href="#DejaVuSans-49"/>
       <use x="63.623047" xlink:href="#DejaVuSans-46"/>
       <use x="95.410156" xlink:href="#DejaVuSans-48"/>
      </g>
     </g>
    </g>
   </g>
   <g id="LineCollection_1">
    <path clip-path="url(#p627a13f621)" d="M 472.622222 87.64 
L 472.622222 81.956 
" style="fill:none;stroke:#1f77b4;stroke-width:1.5;"/>
    <path clip-path="url(#p627a13f621)" d="M 516.466667 87.64 
L 516.466667 86.219 
" style="fill:none;stroke:#1f77b4;stroke-width:1.5;"/>
    <path clip-path="url(#p627a13f621)" d="M 560.311111 87.64 
L 560.311111 73.43 
" style="fill:none;stroke:#1f77b4;stroke-width:1.5;"/>
    <path clip-path="url(#p627a13f621)" d="M 604.155556 87.64 
L 604.155556 64.904 
" style="fill:none;stroke:#1f77b4;stroke-width:1.5;"/>
    <path clip-path="url(#p627a13f621)" d="M 648 87.64 
L 648 87.64 
" style="fill:none;stroke:#1f77b4;stroke-width:1.5;"/>
    <path clip-path="url(#p627a13f621)" d="M 691.844444 87.64 
L 691.844444 64.904 
" style="fill:none;stroke:#1f77b4;stroke-width:1.5;"/>
    <path clip-path="url(#p627a13f621)" d="M 735.688889 87.64 
L 735.688889 73.43 
" style="fill:none;stroke:#1f77b4;stroke-width:1.5;"/>
    <path clip-path="url(#p627a13f621)" d="M 779.533333 87.64 
L 779.533333 86.219 
" style="fill:none;stroke:#1f77b4;stroke-width:1.5;"/>
    <path clip-path="url(#p627a13f621)" d="M 823.377778 87.64 
L 823.377778 81.956 
" style="fill:none;stroke:#1f77b4;stroke-width:1.5;"/>
   </g>
   <g id="line2d_32">
    <defs>
     <path d="M 0 3 
C 0.795609 3 1.55874 2.683901 2.12132 2.12132 
C 2.683901 1.55874 3 0.795609 3 0 
C 3 -0.795609 2.683901 -1.55874 2.12132 -2.12132 
C 1.55874 -2.683901 0.795609 -3 0 -3 
C -0.795609 -3 -1.55874 -2.683901 -2.12132 -2.12132 
C -2.683901 -1.55874 -3 -0.795609 -3 0 
C -3 0.795609 -2.683901 1.55874 -2.12132 2.12132 
C -1.55874 2.683901 -0.795609 3 0 3 
z
" id="m34285dc743" style="stroke:#1f77b4;"/>
    </defs>
    <g clip-path="url(#p627a13f621)">
     <use style="fill:#1f77b4;stroke:#1f77b4;" x="472.622222" xlink:href="#m34285dc743" y="81.956"/>
     <use style="fill:#1f77b4;stroke:#1f77b4;" x="516.466667" xlink:href="#m34285dc743" y="86.219"/>
     <use style="fill:#1f77b4;stroke:#1f77b4;" x="560.311111" xlink:href="#m34285dc743" y="73.43"/>
     <use style="fill:#1f77b4;stroke:#1f77b4;" x="604.155556" xlink:href="#m34285dc743" y="64.904"/>
     <use style="fill:#1f77b4;stroke:#1f77b4;" x="648" xlink:href="#m34285dc743" y="87.64"/>
     <use style="fill:#1f77b4;stroke:#1f77b4;" x="691.844444" xlink:href="#m34285dc743" y="64.904"/>
     <use style="fill:#1f77b4;stroke:#1f77b4;" x="735.688889" xlink:href="#m34285dc743" y="73.43"/>
     <use style="fill:#1f77b4;stroke:#1f77b4;" x="779.533333" xlink:href="#m34285dc743" y="86.219"/>
     <use style="fill:#1f77b4;stroke:#1f77b4;" x="823.377778" xlink:href="#m34285dc743" y="81.956"/>
    </g>
   </g>
   <g id="line2d_33">
    <path clip-path="url(#p627a13f621)" d="M 472.622222 87.64 
L 823.377778 87.64 
" style="fill:none;stroke:#d62728;stroke-linecap:square;stroke-width:1.5;"/>
   </g>
   <g id="patch_3">
    <path d="M 450.7 144.48 
L 450.7 30.8 
" style="fill:none;stroke:#000000;stroke-linecap:square;stroke-linejoin:miter;stroke-width:0.8;"/>
   </g>
   <g id="patch_4">
    <path d="M 845.3 144.48 
L 845.3 30.8 
" style="fill:none;stroke:#000000;stroke-linecap:square;stroke-linejoin:miter;stroke-width:0.8;"/>
   </g>
   <g id="patch_5">
    <path d="M 450.7 144.48 
L 845.3 144.48 
" style="fill:none;stroke:#000000;stroke-linecap:square;stroke-linejoin:miter;stroke-width:0.8;"/>
   </g>
   <g id="patch_6">
    <path d="M 450.7 30.8 
L 845.3 30.8 
" style="fill:none;stroke:#000000;stroke-linecap:square;stroke-linejoin:miter;stroke-width:0.8;"/>
   </g>
   <g id="text_16">
    <!-- $\vert c_k \vert$ -->
    <g transform="translate(634.72 24.8)scale(0.16 -0.16)">
     <defs>
      <path d="M 21 76.421875 
L 21 -23.578125 
L 12.703125 -23.578125 
L 12.703125 76.421875 
z
" id="DejaVuSans-124"/>
      <path d="M 53.609375 52.59375 
L 51.8125 43.703125 
Q 48.578125 46.046875 44.9375 47.21875 
Q 41.3125 48.390625 37.40625 48.390625 
Q 33.109375 48.390625 29.21875 46.875 
Q 25.34375 45.359375 22.703125 42.578125 
Q 18.5 38.328125 16.203125 32.609375 
Q 13.921875 26.90625 13.921875 20.796875 
Q 13.921875 13.421875 17.609375 9.8125 
Q 21.296875 6.203125 28.8125 6.203125 
Q 32.515625 6.203125 36.6875 7.328125 
Q 40.875 8.453125 45.40625 10.6875 
L 43.703125 1.8125 
Q 39.796875 0.203125 35.671875 -0.609375 
Q 31.546875 -1.421875 27.203125 -1.421875 
Q 16.3125 -1.421875 10.453125 4.015625 
Q 4.59375 9.46875 4.59375 19.578125 
Q 4.59375 28.078125 7.640625 35.234375 
Q 10.6875 42.390625 16.703125 48.09375 
Q 20.796875 52 26.3125 54 
Q 31.84375 56 38.375 56 
Q 42.1875 56 45.9375 55.140625 
Q 49.703125 54.296875 53.609375 52.59375 
z
" id="DejaVuSans-Oblique-99"/>
      <path d="M 18.3125 75.984375 
L 27.296875 75.984375 
L 18.703125 31.6875 
L 49.515625 54.6875 
L 61.1875 54.6875 
L 26.8125 28.515625 
L 51.90625 0 
L 41.015625 0 
L 17.671875 26.703125 
L 12.5 0 
L 3.515625 0 
z
" id="DejaVuSans-Oblique-107"/>
     </defs>
     <use transform="translate(0 0.578125)" xlink:href="#DejaVuSans-124"/>
     <use transform="translate(33.691406 0.578125)" xlink:href="#DejaVuSans-Oblique-99"/>
     <use transform="translate(88.671875 -15.828125)scale(0.7)" xlink:href="#DejaVuSans-Oblique-107"/>
     <use transform="translate(131.943359 0.578125)" xlink:href="#DejaVuSans-124"/>
    </g>
   </g>
  </g>
  <g id="axes_3">
   <g id="patch_7">
    <path d="M 450.7 385.2 
L 845.3 385.2 
L 845.3 271.52 
L 450.7 271.52 
z
" style="fill:#ffffff;"/>
   </g>
   <g id="matplotlib.axis_3">
    <g id="xtick_10">
     <g id="line2d_34">
      <path clip-path="url(#p5905ca61a5)" d="M 472.622222 385.2 
L 472.622222 271.52 
" style="fill:none;stroke:#cccccc;stroke-dasharray:1.85,0.8;stroke-dashoffset:0;stroke-width:0.5;"/>
     </g>
     <g id="line2d_35">
      <g>
       <use style="stroke:#000000;stroke-width:0.8;" x="472.622222" xlink:href="#m1868689d8f" y="385.2"/>
      </g>
     </g>
     <g id="text_17">
      <!-- −4 -->
      <g transform="translate(465.251128 399.798437)scale(0.1 -0.1)">
       <use xlink:href="#DejaVuSans-8722"/>
       <use x="83.789062" xlink:href="#DejaVuSans-52"/>
      </g>
     </g>
    </g>
    <g id="xtick_11">
     <g id="line2d_36">
      <path clip-path="url(#p5905ca61a5)" d="M 516.466667 385.2 
L 516.466667 271.52 
" style="fill:none;stroke:#cccccc;stroke-dasharray:1.85,0.8;stroke-dashoffset:0;stroke-width:0.5;"/>
     </g>
     <g id="line2d_37">
      <g>
       <use style="stroke:#000000;stroke-width:0.8;" x="516.466667" xlink:href="#m1868689d8f" y="385.2"/>
      </g>
     </g>
     <g id="text_18">
      <!-- −3 -->
      <g transform="translate(509.095573 399.798437)scale(0.1 -0.1)">
       <use xlink:href="#DejaVuSans-8722"/>
       <use x="83.789062" xlink:href="#DejaVuSans-51"/>
      </g>
     </g>
    </g>
    <g id="xtick_12">
     <g id="line2d_38">
      <path clip-path="url(#p5905ca61a5)" d="M 560.311111 385.2 
L 560.311111 271.52 
" style="fill:none;stroke:#cccccc;stroke-dasharray:1.85,0.8;stroke-dashoffset:0;stroke-width:0.5;"/>
     </g>
     <g id="line2d_39">
      <g>
       <use style="stroke:#000000;stroke-width:0.8;" x="560.311111" xlink:href="#m1868689d8f" y="385.2"/>
      </g>
     </g>
     <g id="text_19">
      <!-- −2 -->
      <g transform="translate(552.940017 399.798437)scale(0.1 -0.1)">
       <use xlink:href="#DejaVuSans-8722"/>
       <use x="83.789062" xlink:href="#DejaVuSans-50"/>
      </g>
     </g>
    </g>
    <g id="xtick_13">
     <g id="line2d_40">
      <path clip-path="url(#p5905ca61a5)" d="M 604.155556 385.2 
L 604.155556 271.52 
" style="fill:none;stroke:#cccccc;stroke-dasharray:1.85,0.8;stroke-dashoffset:0;stroke-width:0.5;"/>
     </g>
     <g id="line2d_41">
      <g>
       <use style="stroke:#000000;stroke-width:0.8;" x="604.155556" xlink:href="#m1868689d8f" y="385.2"/>
      </g>
     </g>
     <g id="text_20">
      <!-- −1 -->
      <g transform="translate(596.784462 399.798437)scale(0.1 -0.1)">
       <use xlink:href="#DejaVuSans-8722"/>
       <use x="83.789062" xlink:href="#DejaVuSans-49"/>
      </g>
     </g>
    </g>
    <g id="xtick_14">
     <g id="line2d_42">
      <path clip-path="url(#p5905ca61a5)" d="M 648 385.2 
L 648 271.52 
" style="fill:none;stroke:#cccccc;stroke-dasharray:1.85,0.8;stroke-dashoffset:0;stroke-width:0.5;"/>
     </g>
     <g id="line2d_43">
      <g>
       <use style="stroke:#000000;stroke-width:0.8;" x="648" xlink:href="#m1868689d8f" y="385.2"/>
      </g>
     </g>
     <g id="text_21">
      <!-- 0 -->
      <g transform="translate(644.81875 399.798437)scale(0.1 -0.1)">
       <use xlink:href="#DejaVuSans-48"/>
      </g>
     </g>
    </g>
    <g id="xtick_15">
     <g id="line2d_44">
      <path clip-path="url(#p5905ca61a5)" d="M 691.844444 385.2 
L 691.844444 271.52 
" style="fill:none;stroke:#cccccc;stroke-dasharray:1.85,0.8;stroke-dashoffset:0;stroke-width:0.5;"/>
     </g>
     <g id="line2d_45">
      <g>
       <use style="stroke:#000000;stroke-width:0.8;" x="691.844444" xlink:href="#m1868689d8f" y="385.2"/>
      </g>
     </g>
     <g id="text_22">
      <!-- 1 -->
      <g transform="translate(688.663194 399.798437)scale(0.1 -0.1)">
       <use xlink:href="#DejaVuSans-49"/>
      </g>
     </g>
    </g>
    <g id="xtick_16">
     <g id="line2d_46">
      <path clip-path="url(#p5905ca61a5)" d="M 735.688889 385.2 
L 735.688889 271.52 
" style="fill:none;stroke:#cccccc;stroke-dasharray:1.85,0.8;stroke-dashoffset:0;stroke-width:0.5;"/>
     </g>
     <g id="line2d_47">
      <g>
       <use style="stroke:#000000;stroke-width:0.8;" x="735.688889" xlink:href="#m1868689d8f" y="385.2"/>
      </g>
     </g>
     <g id="text_23">
      <!-- 2 -->
      <g transform="translate(732.507639 399.798437)scale(0.1 -0.1)">
       <use xlink:href="#DejaVuSans-50"/>
      </g>
     </g>
    </g>
    <g id="xtick_17">
     <g id="line2d_48">
      <path clip-path="url(#p5905ca61a5)" d="M 779.533333 385.2 
L 779.533333 271.52 
" style="fill:none;stroke:#cccccc;stroke-dasharray:1.85,0.8;stroke-dashoffset:0;stroke-width:0.5;"/>
     </g>
     <g id="line2d_49">
      <g>
       <use style="stroke:#000000;stroke-width:0.8;" x="779.533333" xlink:href="#m1868689d8f" y="385.2"/>
      </g>
     </g>
     <g id="text_24">
      <!-- 3 -->
      <g transform="translate(776.352083 399.798437)scale(0.1 -0.1)">
       <use xlink:href="#DejaVuSans-51"/>
      </g>
     </g>
    </g>
    <g id="xtick_18">
     <g id="line2d_50">
      <path clip-path="url(#p5905ca61a5)" d="M 823.377778 385.2 
L 823.377778 271.52 
" style="fill:none;stroke:#cccccc;stroke-dasharray:1.85,0.8;stroke-dashoffset:0;stroke-width:0.5;"/>
     </g>
     <g id="line2d_51">
      <g>
       <use style="stroke:#000000;stroke-width:0.8;" x="823.377778" xlink:href="#m1868689d8f" y="385.2"/>
      </g>
     </g>
     <g id="text_25">
      <!-- 4 -->
      <g transform="translate(820.196528 399.798437)scale(0.1 -0.1)">
       <use xlink:href="#DejaVuSans-52"/>
      </g>
     </g>
    </g>
    <g id="text_26">
     <!-- k -->
     <g transform="translate(643.3675 418.035625)scale(0.16 -0.16)">
      <use xlink:href="#DejaVuSans-107"/>
     </g>
    </g>
   </g>
   <g id="matplotlib.axis_4">
    <g id="ytick_6">
     <g id="line2d_52">
      <path clip-path="url(#p5905ca61a5)" d="M 450.7 359.937778 
L 845.3 359.937778 
" style="fill:none;stroke:#cccccc;stroke-dasharray:1.85,0.8;stroke-dashoffset:0;stroke-width:0.5;"/>
     </g>
     <g id="line2d_53">
      <g>
       <use style="stroke:#000000;stroke-width:0.8;" x="450.7" xlink:href="#m2485c964d0" y="359.937778"/>
      </g>
     </g>
     <g id="text_27">
      <!-- −100 -->
      <g transform="translate(416.232813 363.736997)scale(0.1 -0.1)">
       <use xlink:href="#DejaVuSans-8722"/>
       <use x="83.789062" xlink:href="#DejaVuSans-49"/>
       <use x="147.412109" xlink:href="#DejaVuSans-48"/>
       <use x="211.035156" xlink:href="#DejaVuSans-48"/>
      </g>
     </g>
    </g>
    <g id="ytick_7">
     <g id="line2d_54">
      <path clip-path="url(#p5905ca61a5)" d="M 450.7 328.36 
L 845.3 328.36 
" style="fill:none;stroke:#cccccc;stroke-dasharray:1.85,0.8;stroke-dashoffset:0;stroke-width:0.5;"/>
     </g>
     <g id="line2d_55">
      <g>
       <use style="stroke:#000000;stroke-width:0.8;" x="450.7" xlink:href="#m2485c964d0" y="328.36"/>
      </g>
     </g>
     <g id="text_28">
      <!-- 0 -->
      <g transform="translate(437.3375 332.159219)scale(0.1 -0.1)">
       <use xlink:href="#DejaVuSans-48"/>
      </g>
     </g>
    </g>
    <g id="ytick_8">
     <g id="line2d_56">
      <path clip-path="url(#p5905ca61a5)" d="M 450.7 296.782222 
L 845.3 296.782222 
" style="fill:none;stroke:#cccccc;stroke-dasharray:1.85,0.8;stroke-dashoffset:0;stroke-width:0.5;"/>
     </g>
     <g id="line2d_57">
      <g>
       <use style="stroke:#000000;stroke-width:0.8;" x="450.7" xlink:href="#m2485c964d0" y="296.782222"/>
      </g>
     </g>
     <g id="text_29">
      <!-- 100 -->
      <g transform="translate(424.6125 300.581441)scale(0.1 -0.1)">
       <use xlink:href="#DejaVuSans-49"/>
       <use x="63.623047" xlink:href="#DejaVuSans-48"/>
       <use x="127.246094" xlink:href="#DejaVuSans-48"/>
      </g>
     </g>
    </g>
   </g>
   <g id="LineCollection_2">
    <path clip-path="url(#p5905ca61a5)" d="M 472.622222 328.36 
L 472.622222 350.464444 
" style="fill:none;stroke:#1f77b4;stroke-width:1.5;"/>
    <path clip-path="url(#p5905ca61a5)" d="M 516.466667 328.36 
L 516.466667 285.73 
" style="fill:none;stroke:#1f77b4;stroke-width:1.5;"/>
    <path clip-path="url(#p5905ca61a5)" d="M 560.311111 328.36 
L 560.311111 314.15 
" style="fill:none;stroke:#1f77b4;stroke-width:1.5;"/>
    <path clip-path="url(#p5905ca61a5)" d="M 604.155556 328.36 
L 604.155556 299.94 
" style="fill:none;stroke:#1f77b4;stroke-width:1.5;"/>
    <path clip-path="url(#p5905ca61a5)" d="M 648 328.36 
L 648 328.36 
" style="fill:none;stroke:#1f77b4;stroke-width:1.5;"/>
    <path clip-path="url(#p5905ca61a5)" d="M 691.844444 328.36 
L 691.844444 356.78 
" style="fill:none;stroke:#1f77b4;stroke-width:1.5;"/>
    <path clip-path="url(#p5905ca61a5)" d="M 735.688889 328.36 
L 735.688889 342.57 
" style="fill:none;stroke:#1f77b4;stroke-width:1.5;"/>
    <path clip-path="url(#p5905ca61a5)" d="M 779.533333 328.36 
L 779.533333 370.99 
" style="fill:none;stroke:#1f77b4;stroke-width:1.5;"/>
    <path clip-path="url(#p5905ca61a5)" d="M 823.377778 328.36 
L 823.377778 306.255556 
" style="fill:none;stroke:#1f77b4;stroke-width:1.5;"/>
   </g>
   <g id="line2d_58">
    <g clip-path="url(#p5905ca61a5)">
     <use style="fill:#1f77b4;stroke:#1f77b4;" x="472.622222" xlink:href="#m34285dc743" y="350.464444"/>
     <use style="fill:#1f77b4;stroke:#1f77b4;" x="516.466667" xlink:href="#m34285dc743" y="285.73"/>
     <use style="fill:#1f77b4;stroke:#1f77b4;" x="560.311111" xlink:href="#m34285dc743" y="314.15"/>
     <use style="fill:#1f77b4;stroke:#1f77b4;" x="604.155556" xlink:href="#m34285dc743" y="299.94"/>
     <use style="fill:#1f77b4;stroke:#1f77b4;" x="648" xlink:href="#m34285dc743" y="328.36"/>
     <use style="fill:#1f77b4;stroke:#1f77b4;" x="691.844444" xlink:href="#m34285dc743" y="356.78"/>
     <use style="fill:#1f77b4;stroke:#1f77b4;" x="735.688889" xlink:href="#m34285dc743" y="342.57"/>
     <use style="fill:#1f77b4;stroke:#1f77b4;" x="779.533333" xlink:href="#m34285dc743" y="370.99"/>
     <use style="fill:#1f77b4;stroke:#1f77b4;" x="823.377778" xlink:href="#m34285dc743" y="306.255556"/>
    </g>
   </g>
   <g id="line2d_59">
    <path clip-path="url(#p5905ca61a5)" d="M 472.622222 328.36 
L 823.377778 328.36 
" style="fill:none;stroke:#d62728;stroke-linecap:square;stroke-width:1.5;"/>
   </g>
   <g id="patch_8">
    <path d="M 450.7 385.2 
L 450.7 271.52 
" style="fill:none;stroke:#000000;stroke-linecap:square;stroke-linejoin:miter;stroke-width:0.8;"/>
   </g>
   <g id="patch_9">
    <path d="M 845.3 385.2 
L 845.3 271.52 
" style="fill:none;stroke:#000000;stroke-linecap:square;stroke-linejoin:miter;stroke-width:0.8;"/>
   </g>
   <g id="patch_10">
    <path d="M 450.7 385.2 
L 845.3 385.2 
" style="fill:none;stroke:#000000;stroke-linecap:square;stroke-linejoin:miter;stroke-width:0.8;"/>
   </g>
   <g id="patch_11">
    <path d="M 450.7 271.52 
L 845.3 271.52 
" style="fill:none;stroke:#000000;stroke-linecap:square;stroke-linejoin:miter;stroke-width:0.8;"/>
   </g>
   <g id="text_30">
    <!-- $\arg \, c_k$ -->
    <g transform="translate(625.52 265.52)scale(0.16 -0.16)">
     <defs>
      <path d="M 34.28125 27.484375 
Q 23.390625 27.484375 19.1875 25 
Q 14.984375 22.515625 14.984375 16.5 
Q 14.984375 11.71875 18.140625 8.90625 
Q 21.296875 6.109375 26.703125 6.109375 
Q 34.1875 6.109375 38.703125 11.40625 
Q 43.21875 16.703125 43.21875 25.484375 
L 43.21875 27.484375 
z
M 52.203125 31.203125 
L 52.203125 0 
L 43.21875 0 
L 43.21875 8.296875 
Q 40.140625 3.328125 35.546875 0.953125 
Q 30.953125 -1.421875 24.3125 -1.421875 
Q 15.921875 -1.421875 10.953125 3.296875 
Q 6 8.015625 6 15.921875 
Q 6 25.140625 12.171875 29.828125 
Q 18.359375 34.515625 30.609375 34.515625 
L 43.21875 34.515625 
L 43.21875 35.40625 
Q 43.21875 41.609375 39.140625 45 
Q 35.0625 48.390625 27.6875 48.390625 
Q 23 48.390625 18.546875 47.265625 
Q 14.109375 46.140625 10.015625 43.890625 
L 10.015625 52.203125 
Q 14.9375 54.109375 19.578125 55.046875 
Q 24.21875 56 28.609375 56 
Q 40.484375 56 46.34375 49.84375 
Q 52.203125 43.703125 52.203125 31.203125 
z
" id="DejaVuSans-97"/>
      <path d="M 41.109375 46.296875 
Q 39.59375 47.171875 37.8125 47.578125 
Q 36.03125 48 33.890625 48 
Q 26.265625 48 22.1875 43.046875 
Q 18.109375 38.09375 18.109375 28.8125 
L 18.109375 0 
L 9.078125 0 
L 9.078125 54.6875 
L 18.109375 54.6875 
L 18.109375 46.1875 
Q 20.953125 51.171875 25.484375 53.578125 
Q 30.03125 56 36.53125 56 
Q 37.453125 56 38.578125 55.875 
Q 39.703125 55.765625 41.0625 55.515625 
z
" id="DejaVuSans-114"/>
      <path d="M 45.40625 27.984375 
Q 45.40625 37.75 41.375 43.109375 
Q 37.359375 48.484375 30.078125 48.484375 
Q 22.859375 48.484375 18.828125 43.109375 
Q 14.796875 37.75 14.796875 27.984375 
Q 14.796875 18.265625 18.828125 12.890625 
Q 22.859375 7.515625 30.078125 7.515625 
Q 37.359375 7.515625 41.375 12.890625 
Q 45.40625 18.265625 45.40625 27.984375 
z
M 54.390625 6.78125 
Q 54.390625 -7.171875 48.1875 -13.984375 
Q 42 -20.796875 29.203125 -20.796875 
Q 24.46875 -20.796875 20.265625 -20.09375 
Q 16.0625 -19.390625 12.109375 -17.921875 
L 12.109375 -9.1875 
Q 16.0625 -11.328125 19.921875 -12.34375 
Q 23.78125 -13.375 27.78125 -13.375 
Q 36.625 -13.375 41.015625 -8.765625 
Q 45.40625 -4.15625 45.40625 5.171875 
L 45.40625 9.625 
Q 42.625 4.78125 38.28125 2.390625 
Q 33.9375 0 27.875 0 
Q 17.828125 0 11.671875 7.65625 
Q 5.515625 15.328125 5.515625 27.984375 
Q 5.515625 40.671875 11.671875 48.328125 
Q 17.828125 56 27.875 56 
Q 33.9375 56 38.28125 53.609375 
Q 42.625 51.21875 45.40625 46.390625 
L 45.40625 54.6875 
L 54.390625 54.6875 
z
" id="DejaVuSans-103"/>
     </defs>
     <use xlink:href="#DejaVuSans-97"/>
     <use transform="translate(61.279297 0)" xlink:href="#DejaVuSans-114"/>
     <use transform="translate(102.392578 0)" xlink:href="#DejaVuSans-103"/>
     <use transform="translate(182.104817 0)" xlink:href="#DejaVuSans-Oblique-99"/>
     <use transform="translate(237.085286 -16.40625)scale(0.7)" xlink:href="#DejaVuSans-Oblique-107"/>
    </g>
   </g>
  </g>
  <g id="axes_4">
   <g id="line2d_60">
    <path clip-path="url(#p9ca46116bd)" d="M 890.6 46.909091 
L 1285.2 46.909091 
" style="fill:none;stroke:#cccccc;stroke-linecap:square;"/>
   </g>
   <g id="line2d_61">
    <path clip-path="url(#p9ca46116bd)" d="M 890.271167 46.909091 
L 1285.2 46.909091 
L 1285.2 46.909091 
" style="fill:none;stroke:#1f77b4;stroke-linecap:square;stroke-width:1.5;"/>
   </g>
   <g id="line2d_62">
    <path clip-path="url(#p9ca46116bd)" d="M 890.6 124.856425 
L 1285.2 124.856425 
" style="fill:none;stroke:#cccccc;stroke-linecap:square;"/>
   </g>
   <g id="line2d_63">
    <path clip-path="url(#p9ca46116bd)" d="M 890.271167 149.502616 
L 895.861333 145.793004 
L 902.109167 141.366622 
L 909.3435 135.952051 
L 918.879667 128.508567 
L 939.267333 112.507839 
L 946.501667 107.155966 
L 952.7495 102.802061 
L 958.339667 99.17082 
L 963.601 96.019931 
L 968.5335 93.329871 
L 973.137167 91.071175 
L 977.412 89.207403 
L 981.686833 87.581343 
L 985.961667 86.203839 
L 989.907667 85.160881 
L 993.853667 84.34348 
L 997.799667 83.756282 
L 1001.745667 83.402623 
L 1005.691667 83.284514 
L 1009.637667 83.402623 
L 1013.583667 83.756282 
L 1017.529667 84.34348 
L 1021.475667 85.160881 
L 1025.421667 86.203839 
L 1029.367667 87.46643 
L 1033.6425 89.073734 
L 1037.917333 90.919642 
L 1042.521 93.160232 
L 1047.124667 95.645923 
L 1052.057167 98.559274 
L 1057.3185 101.923452 
L 1063.2375 105.983172 
L 1069.814167 110.774442 
L 1077.706167 116.810204 
L 1090.8595 127.206009 
L 1102.6975 136.454619 
L 1110.260667 142.08281 
L 1116.5085 146.466226 
L 1122.098667 150.12925 
L 1127.36 153.314357 
L 1132.2925 156.039976 
L 1136.896167 158.334613 
L 1141.171 160.233892 
L 1145.445833 161.89727 
L 1149.720667 163.313653 
L 1153.666667 164.393662 
L 1157.612667 165.249014 
L 1161.558667 165.874846 
L 1165.504667 166.267603 
L 1169.450667 166.425054 
L 1173.396667 166.346304 
L 1177.342667 166.0318 
L 1181.288667 165.483329 
L 1185.234667 164.704008 
L 1189.180667 163.698265 
L 1193.126667 162.471815 
L 1197.4015 160.902212 
L 1201.676333 159.092249 
L 1206.28 156.888133 
L 1210.883667 154.436323 
L 1215.816167 151.556096 
L 1221.0775 148.223306 
L 1226.9965 144.193645 
L 1233.573167 139.428807 
L 1241.465167 133.414527 
L 1253.632 123.811719 
L 1266.785333 113.509291 
L 1274.3485 107.868102 
L 1280.596333 103.47019 
L 1285.2 100.421069 
L 1285.2 100.421069 
" style="fill:none;stroke:#ff7f0e;stroke-linecap:square;stroke-width:1.5;"/>
   </g>
   <g id="line2d_64">
    <path clip-path="url(#p9ca46116bd)" d="M 890.6 202.803759 
L 1285.2 202.803759 
" style="fill:none;stroke:#cccccc;stroke-linecap:square;"/>
   </g>
   <g id="line2d_65">
    <path clip-path="url(#p9ca46116bd)" d="M 890.271167 214.889521 
L 894.546 210.987879 
L 900.465 205.248923 
L 912.303 193.696021 
L 916.577833 189.859692 
L 920.195 186.878936 
L 923.483333 184.431396 
L 926.442833 182.475333 
L 929.402333 180.779014 
L 932.033 179.506833 
L 934.663667 178.469904 
L 937.294333 177.678697 
L 939.925 177.141202 
L 942.226833 176.883347 
L 944.528667 176.82593 
L 946.8305 176.969394 
L 949.132333 177.312629 
L 951.763 177.946041 
L 954.393667 178.830466 
L 957.024333 179.956972 
L 959.655 181.314184 
L 962.6145 183.099663 
L 965.574 185.136908 
L 968.862333 187.664036 
L 972.4795 190.717997 
L 976.754333 194.619639 
L 982.673333 200.358595 
L 994.511333 211.911498 
L 998.786167 215.747826 
L 1002.403333 218.728583 
L 1005.691667 221.176122 
L 1008.651167 223.132185 
L 1011.610667 224.828504 
L 1014.241333 226.100685 
L 1016.872 227.137615 
L 1019.502667 227.928822 
L 1022.133333 228.466317 
L 1024.435167 228.724171 
L 1026.737 228.781588 
L 1029.038833 228.638125 
L 1031.340667 228.294889 
L 1033.971333 227.661477 
L 1036.602 226.777053 
L 1039.232667 225.650547 
L 1041.863333 224.293335 
L 1044.822833 222.507856 
L 1047.782333 220.47061 
L 1051.070667 217.943482 
L 1054.687833 214.889521 
L 1058.962667 210.987879 
L 1064.881667 205.248923 
L 1076.719667 193.696021 
L 1080.9945 189.859692 
L 1084.611667 186.878936 
L 1087.9 184.431396 
L 1090.8595 182.475333 
L 1093.819 180.779014 
L 1096.449667 179.506833 
L 1099.080333 178.469904 
L 1101.711 177.678697 
L 1104.341667 177.141202 
L 1106.6435 176.883347 
L 1108.945333 176.82593 
L 1111.247167 176.969394 
L 1113.549 177.312629 
L 1116.179667 177.946041 
L 1118.810333 178.830466 
L 1121.441 179.956972 
L 1124.071667 181.314184 
L 1127.031167 183.099663 
L 1129.990667 185.136908 
L 1133.279 187.664036 
L 1136.896167 190.717997 
L 1141.171 194.619639 
L 1147.09 200.358595 
L 1158.928 211.911498 
L 1163.202833 215.747826 
L 1166.82 218.728583 
L 1170.108333 221.176122 
L 1173.067833 223.132185 
L 1176.027333 224.828504 
L 1178.658 226.100685 
L 1181.288667 227.137615 
L 1183.919333 227.928822 
L 1186.55 228.466317 
L 1188.851833 228.724171 
L 1191.153667 228.781588 
L 1193.4555 228.638125 
L 1195.757333 228.294889 
L 1198.388 227.661477 
L 1201.018667 226.777053 
L 1203.649333 225.650547 
L 1206.28 224.293335 
L 1209.2395 222.507856 
L 1212.199 220.47061 
L 1215.487333 217.943482 
L 1219.1045 214.889521 
L 1223.379333 210.987879 
L 1229.298333 205.248923 
L 1241.136333 193.696021 
L 1245.411167 189.859692 
L 1249.028333 186.878936 
L 1252.316667 184.431396 
L 1255.276167 182.475333 
L 1258.235667 180.779014 
L 1260.866333 179.506833 
L 1263.497 178.469904 
L 1266.127667 177.678697 
L 1268.758333 177.141202 
L 1271.060167 176.883347 
L 1273.362 176.82593 
L 1275.663833 176.969394 
L 1277.965667 177.312629 
L 1280.596333 177.946041 
L 1283.227 178.830466 
L 1285.2 179.653231 
L 1285.2 179.653231 
" style="fill:none;stroke:#2ca02c;stroke-linecap:square;stroke-width:1.5;"/>
   </g>
   <g id="line2d_66">
    <path clip-path="url(#p9ca46116bd)" d="M 890.6 280.751093 
L 1285.2 280.751093 
" style="fill:none;stroke:#cccccc;stroke-linecap:square;"/>
   </g>
   <g id="line2d_67">
    <path clip-path="url(#p9ca46116bd)" d="M 890.271167 281.886827 
L 897.176667 282.700065 
L 902.766833 283.142081 
L 908.028167 283.336219 
L 913.2895 283.296996 
L 918.550833 283.027952 
L 924.141 282.517779 
L 931.0465 281.64656 
L 952.420667 278.759557 
L 958.010833 278.335307 
L 963.272167 278.160231 
L 968.5335 278.219034 
L 973.794833 278.506409 
L 979.385 279.032844 
L 986.2905 279.917203 
L 1006.349333 282.65627 
L 1011.9395 283.115771 
L 1017.200833 283.32885 
L 1022.462167 283.309232 
L 1027.7235 283.058689 
L 1033.313667 282.565098 
L 1039.890333 281.752935 
L 1062.908667 278.678228 
L 1068.498833 278.2903 
L 1073.760167 278.15367 
L 1079.0215 278.25151 
L 1084.282833 278.574991 
L 1090.201833 279.171542 
L 1097.436167 280.136611 
L 1114.5355 282.505773 
L 1120.4545 283.043502 
L 1125.715833 283.303316 
L 1130.977167 283.332739 
L 1136.2385 283.129114 
L 1141.828667 282.67832 
L 1148.0765 281.945194 
L 1157.9415 280.522835 
L 1167.8065 279.171542 
L 1174.054333 278.548619 
L 1179.315667 278.238587 
L 1184.577 278.155362 
L 1189.838333 278.306455 
L 1195.099667 278.678228 
L 1201.018667 279.317783 
L 1208.910667 280.409257 
L 1222.721667 282.343576 
L 1228.9695 282.962185 
L 1234.230833 283.267709 
L 1239.492167 283.346056 
L 1244.7535 283.190153 
L 1250.014833 282.814075 
L 1255.933833 282.17076 
L 1264.154667 281.028095 
L 1277.308 279.184535 
L 1283.555833 278.557323 
L 1285.2 278.436041 
L 1285.2 278.436041 
" style="fill:none;stroke:#d62728;stroke-linecap:square;stroke-width:1.5;"/>
   </g>
   <g id="line2d_68">
    <path clip-path="url(#p9ca46116bd)" d="M 890.6 358.698428 
L 1285.2 358.698428 
" style="fill:none;stroke:#cccccc;stroke-linecap:square;"/>
   </g>
   <g id="line2d_69">
    <path clip-path="url(#p9ca46116bd)" d="M 890.271167 356.085698 
L 893.888333 353.43923 
L 896.519 351.754959 
L 898.820833 350.508649 
L 901.122667 349.515169 
L 903.095667 348.888327 
L 905.068667 348.484139 
L 907.041667 348.311781 
L 909.014667 348.375163 
L 910.987667 348.672847 
L 912.960667 349.198077 
L 914.933667 349.938931 
L 917.2355 351.0531 
L 919.866167 352.613092 
L 922.825667 354.657613 
L 926.771667 357.684251 
L 933.677167 363.031421 
L 936.636667 365.039653 
L 939.267333 366.556371 
L 941.569167 367.625579 
L 943.542167 368.323719 
L 945.515167 368.803399 
L 947.488167 369.053731 
L 949.461167 369.069035 
L 951.434167 368.848961 
L 953.407167 368.398506 
L 955.380167 367.727893 
L 957.682 366.687824 
L 959.983833 365.401112 
L 962.6145 363.679831 
L 965.902833 361.254935 
L 976.754333 352.995478 
L 979.385 351.37518 
L 981.686833 350.197502 
L 983.988667 349.282259 
L 985.961667 348.728299 
L 987.934667 348.400625 
L 989.907667 348.306676 
L 991.880667 348.448583 
L 993.853667 348.823125 
L 995.826667 349.421803 
L 997.799667 350.231028 
L 1000.1015 351.416481 
L 1002.732167 353.044093 
L 1005.691667 355.14382 
L 1010.295333 358.72745 
L 1015.8855 363.031421 
L 1018.845 365.039653 
L 1021.475667 366.556371 
L 1023.7775 367.625579 
L 1025.7505 368.323719 
L 1027.7235 368.803399 
L 1029.6965 369.053731 
L 1031.6695 369.069035 
L 1033.6425 368.848961 
L 1035.6155 368.398506 
L 1037.5885 367.727893 
L 1039.890333 366.687824 
L 1042.192167 365.401112 
L 1044.822833 363.679831 
L 1048.111167 361.254935 
L 1058.962667 352.995478 
L 1061.593333 351.37518 
L 1063.895167 350.197502 
L 1066.197 349.282259 
L 1068.17 348.728299 
L 1070.143 348.400625 
L 1072.116 348.306676 
L 1074.089 348.448583 
L 1076.062 348.823125 
L 1078.035 349.421803 
L 1080.008 350.231028 
L 1082.309833 351.416481 
L 1084.9405 353.044093 
L 1087.9 355.14382 
L 1092.503667 358.72745 
L 1098.093833 363.031421 
L 1101.053333 365.039653 
L 1103.684 366.556371 
L 1105.985833 367.625579 
L 1107.958833 368.323719 
L 1109.931833 368.803399 
L 1111.904833 369.053731 
L 1113.877833 369.069035 
L 1115.850833 368.848961 
L 1117.823833 368.398506 
L 1119.796833 367.727893 
L 1122.098667 366.687824 
L 1124.4005 365.401112 
L 1127.031167 363.679831 
L 1130.3195 361.254935 
L 1141.171 352.995478 
L 1143.801667 351.37518 
L 1146.1035 350.197502 
L 1148.405333 349.282259 
L 1150.378333 348.728299 
L 1152.351333 348.400625 
L 1154.324333 348.306676 
L 1156.297333 348.448583 
L 1158.270333 348.823125 
L 1160.243333 349.421803 
L 1162.216333 350.231028 
L 1164.518167 351.416481 
L 1167.148833 353.044093 
L 1170.108333 355.14382 
L 1174.712 358.72745 
L 1180.302167 363.031421 
L 1183.261667 365.039653 
L 1185.892333 366.556371 
L 1188.194167 367.625579 
L 1190.167167 368.323719 
L 1192.140167 368.803399 
L 1194.113167 369.053731 
L 1196.086167 369.069035 
L 1198.059167 368.848961 
L 1200.032167 368.398506 
L 1202.005167 367.727893 
L 1204.307 366.687824 
L 1206.608833 365.401112 
L 1209.2395 363.679831 
L 1212.527833 361.254935 
L 1223.379333 352.995478 
L 1226.01 351.37518 
L 1228.311833 350.197502 
L 1230.613667 349.282259 
L 1232.586667 348.728299 
L 1234.559667 348.400625 
L 1236.532667 348.306676 
L 1238.505667 348.448583 
L 1240.478667 348.823125 
L 1242.451667 349.421803 
L 1244.424667 350.231028 
L 1246.7265 351.416481 
L 1249.357167 353.044093 
L 1252.316667 355.14382 
L 1256.920333 358.72745 
L 1262.5105 363.031421 
L 1265.47 365.039653 
L 1268.100667 366.556371 
L 1270.4025 367.625579 
L 1272.3755 368.323719 
L 1274.3485 368.803399 
L 1276.3215 369.053731 
L 1278.2945 369.069035 
L 1280.2675 368.848961 
L 1282.2405 368.398506 
L 1284.2135 367.727893 
L 1285.2 367.314597 
L 1285.2 367.314597 
" style="fill:none;stroke:#9467bd;stroke-linecap:square;stroke-width:1.5;"/>
   </g>
   <g id="line2d_70">
    <path clip-path="url(#p9ca46116bd)" d="M 923.483333 385.2 
L 923.483333 30.8 
" style="fill:none;stroke:#000000;stroke-dasharray:3.7,1.6;stroke-dashoffset:0;stroke-opacity:0.5;"/>
   </g>
   <g id="line2d_71">
    <path clip-path="url(#p9ca46116bd)" d="M 1252.316667 385.2 
L 1252.316667 30.8 
" style="fill:none;stroke:#000000;stroke-dasharray:3.7,1.6;stroke-dashoffset:0;stroke-opacity:0.5;"/>
   </g>
  </g>
 </g>
 <defs>
  <clipPath id="pa1da6584db">
   <rect height="354.4" width="394.6" x="10.8" y="30.8"/>
  </clipPath>
  <clipPath id="p627a13f621">
   <rect height="113.68" width="394.6" x="450.7" y="30.8"/>
  </clipPath>
  <clipPath id="p5905ca61a5">
   <rect height="113.68" width="394.6" x="450.7" y="271.52"/>
  </clipPath>
  <clipPath id="p9ca46116bd">
   <rect height="354.4" width="394.6" x="890.6" y="30.8"/>
  </clipPath>
 </defs>
</svg>
