<?xml version="1.0" encoding="utf-8" standalone="no"?>
<!DOCTYPE svg PUBLIC "-//W3C//DTD SVG 1.1//EN"
  "http://www.w3.org/Graphics/SVG/1.1/DTD/svg11.dtd">
<!-- Created with matplotlib (https://matplotlib.org/) -->
<svg height="432pt" version="1.1" viewBox="0 0 1296 432" width="1296pt" xmlns="http://www.w3.org/2000/svg" xmlns:xlink="http://www.w3.org/1999/xlink">
 <metadata>
  <rdf:RDF xmlns:cc="http://creativecommons.org/ns#" xmlns:dc="http://purl.org/dc/elements/1.1/" xmlns:rdf="http://www.w3.org/1999/02/22-rdf-syntax-ns#">
   <cc:Work>
    <dc:type rdf:resource="http://purl.org/dc/dcmitype/StillImage"/>
    <dc:date>2021-09-23T08:29:02.347523</dc:date>
    <dc:format>image/svg+xml</dc:format>
    <dc:creator>
     <cc:Agent>
      <dc:title>Matplotlib v3.3.4, https://matplotlib.org/</dc:title>
     </cc:Agent>
    </dc:creator>
   </cc:Work>
  </rdf:RDF>
 </metadata>
 <defs>
  <style type="text/css">*{stroke-linecap:butt;stroke-linejoin:round;}</style>
 </defs>
 <g id="figure_1">
  <g id="patch_1">
   <path d="M 0 432 
L 1296 432 
L 1296 0 
L 0 0 
z
" style="fill:none;"/>
  </g>
  <g id="axes_1">
   <g id="line2d_1">
    <path clip-path="url(#pcdec674825)" d="M 10.8 208 
L 405.4 208 
" style="fill:none;stroke:#cccccc;stroke-linecap:square;"/>
   </g>
   <g id="line2d_2">
    <path clip-path="url(#pcdec674825)" d="M 10.620636 211.726127 
L 11.517455 212.371963 
L 12.414273 213.281197 
L 13.490455 214.706454 
L 14.746 216.801234 
L 16.180909 219.708196 
L 17.795182 223.53172 
L 19.768182 228.803246 
L 23.355455 239.189277 
L 26.404636 247.737103 
L 28.377636 252.64685 
L 29.991909 256.128075 
L 31.426818 258.746845 
L 32.682364 260.640588 
L 33.937909 262.150086 
L 35.014091 263.137134 
L 36.090273 263.846797 
L 37.166455 264.290332 
L 38.242636 264.484041 
L 39.318818 264.448709 
L 40.395 264.208946 
L 41.650545 263.707915 
L 43.085455 262.902231 
L 45.058455 261.521142 
L 50.798091 257.316317 
L 52.591727 256.344604 
L 54.385364 255.636962 
L 56.179 255.191502 
L 58.152 254.952028 
L 64.250364 254.446503 
L 65.685273 253.958904 
L 66.940818 253.280028 
L 68.196364 252.309571 
L 69.272545 251.208034 
L 70.528091 249.569239 
L 71.783636 247.514336 
L 73.039182 245.014793 
L 74.474091 241.590386 
L 75.909 237.551105 
L 77.523273 232.284538 
L 79.316909 225.589318 
L 81.289909 217.323685 
L 83.801 205.755536 
L 92.589818 164.122515 
L 94.562818 156.382083 
L 96.177091 150.89412 
L 97.612 146.738519 
L 98.867545 143.699023 
L 100.123091 141.23595 
L 101.199273 139.588575 
L 102.275455 138.366442 
L 103.172273 137.666369 
L 104.069091 137.246859 
L 104.965909 137.096821 
L 105.862727 137.202745 
L 106.759545 137.548953 
L 107.656364 138.11788 
L 108.732545 139.067539 
L 109.988091 140.498572 
L 111.423 142.487551 
L 113.216636 145.371984 
L 115.907091 150.177106 
L 120.929273 159.182743 
L 123.440364 163.198474 
L 125.951455 166.797269 
L 129.18 170.994686 
L 133.126 176.151775 
L 135.278364 179.356926 
L 137.072 182.406791 
L 138.865636 185.887772 
L 140.659273 189.85186 
L 142.632273 194.789834 
L 144.784636 200.827783 
L 147.295727 208.567172 
L 155.367091 234.064081 
L 157.160727 238.711831 
L 158.595636 241.885536 
L 159.851182 244.198666 
L 161.106727 246.033817 
L 162.182909 247.201251 
L 163.079727 247.876931 
L 163.976545 248.277166 
L 164.873364 248.40039 
L 165.770182 248.248351 
L 166.667 247.826134 
L 167.563818 247.142145 
L 168.64 245.992461 
L 169.716182 244.508876 
L 170.971727 242.399268 
L 172.406636 239.563827 
L 174.379636 235.113204 
L 181.374818 218.67746 
L 182.809727 216.051642 
L 184.065273 214.162027 
L 185.141455 212.889182 
L 186.217636 211.965868 
L 187.114455 211.47878 
L 188.011273 211.257556 
L 188.908091 211.307189 
L 189.804909 211.629165 
L 190.701727 212.22148 
L 191.598545 213.078685 
L 192.674727 214.444393 
L 193.930273 216.475002 
L 195.185818 218.934187 
L 196.800091 222.637849 
L 198.773091 227.807034 
L 201.822273 236.567593 
L 205.588909 247.260986 
L 207.561909 252.228099 
L 209.176182 255.768161 
L 210.611091 258.445507 
L 212.046 260.640588 
L 213.301545 262.150086 
L 214.377727 263.137134 
L 215.453909 263.846797 
L 216.530091 264.290332 
L 217.606273 264.484041 
L 218.682455 264.448709 
L 219.758636 264.208946 
L 221.014182 263.707915 
L 222.449091 262.902231 
L 224.422091 261.521142 
L 230.161727 257.316317 
L 231.955364 256.344604 
L 233.749 255.636962 
L 235.542636 255.191502 
L 237.515636 254.952028 
L 243.614 254.446503 
L 245.048909 253.958904 
L 246.304455 253.280028 
L 247.56 252.309571 
L 248.636182 251.208034 
L 249.891727 249.569239 
L 251.147273 247.514336 
L 252.402818 245.014793 
L 253.837727 241.590386 
L 255.272636 237.551105 
L 256.886909 232.284538 
L 258.680545 225.589318 
L 260.653545 217.323685 
L 263.164636 205.755536 
L 271.953455 164.122515 
L 273.926455 156.382083 
L 275.540727 150.89412 
L 276.975636 146.738519 
L 278.231182 143.699023 
L 279.486727 141.23595 
L 280.562909 139.588575 
L 281.639091 138.366442 
L 282.535909 137.666369 
L 283.432727 137.246859 
L 284.329545 137.096821 
L 285.226364 137.202745 
L 286.123182 137.548953 
L 287.02 138.11788 
L 288.096182 139.067539 
L 289.351727 140.498572 
L 290.786636 142.487551 
L 292.580273 145.371984 
L 295.270727 150.177106 
L 300.292909 159.182743 
L 302.804 163.198474 
L 305.315091 166.797269 
L 308.543636 170.994686 
L 312.489636 176.151775 
L 314.642 179.356926 
L 316.435636 182.406791 
L 318.229273 185.887772 
L 320.022909 189.85186 
L 321.995909 194.789834 
L 324.148273 200.827783 
L 326.659364 208.567172 
L 334.730727 234.064081 
L 336.524364 238.711831 
L 337.959273 241.885536 
L 339.214818 244.198666 
L 340.470364 246.033817 
L 341.546545 247.201251 
L 342.443364 247.876931 
L 343.340182 248.277166 
L 344.237 248.40039 
L 345.133818 248.248351 
L 346.030636 247.826134 
L 346.927455 247.142145 
L 348.003636 245.992461 
L 349.079818 244.508876 
L 350.335364 242.399268 
L 351.770273 239.563827 
L 353.743273 235.113204 
L 360.738455 218.67746 
L 362.173364 216.051642 
L 363.428909 214.162027 
L 364.505091 212.889182 
L 365.581273 211.965868 
L 366.478091 211.47878 
L 367.374909 211.257556 
L 368.271727 211.307189 
L 369.168545 211.629165 
L 370.065364 212.22148 
L 370.962182 213.078685 
L 372.038364 214.444393 
L 373.293909 216.475002 
L 374.549455 218.934187 
L 376.163727 222.637849 
L 378.136727 227.807034 
L 381.185909 236.567593 
L 384.952545 247.260986 
L 386.925545 252.228099 
L 388.539818 255.768161 
L 389.974727 258.445507 
L 391.409636 260.640588 
L 392.665182 262.150086 
L 393.741364 263.137134 
L 394.817545 263.846797 
L 395.893727 264.290332 
L 396.969909 264.484041 
L 398.046091 264.448709 
L 399.122273 264.208946 
L 400.377818 263.707915 
L 401.812727 262.902231 
L 403.785727 261.521142 
L 405.4 260.278122 
L 405.4 260.278122 
" style="fill:none;stroke:#1f77b4;stroke-linecap:square;stroke-opacity:0.3;"/>
   </g>
   <g id="line2d_3">
    <path clip-path="url(#pcdec674825)" d="M 118.418182 154.782693 
L 121.467364 160.078954 
L 123.978455 164.003124 
L 126.489545 167.521982 
L 130.435545 172.586942 
L 133.484727 176.658002 
L 135.457727 179.644612 
L 137.251364 182.734386 
L 139.045 186.261866 
L 140.838636 190.275832 
L 142.811636 195.268102 
L 144.964 201.358491 
L 147.654455 209.717424 
L 155.008364 233.057486 
L 156.802 237.838371 
L 158.416273 241.518446 
L 159.671818 243.896588 
L 160.927364 245.802274 
L 162.003545 247.033428 
L 162.900364 247.763723 
L 163.797182 248.219277 
L 164.694 248.39787 
L 165.590818 248.300584 
L 166.487636 247.931836 
L 167.384455 247.299371 
L 168.281273 246.414208 
L 169.357455 245.038638 
L 170.613 243.040542 
L 172.047909 240.310021 
L 173.841545 236.376061 
L 176.711364 229.415553 
L 179.939909 221.707502 
L 181.733545 217.979073 
L 183.168455 215.470025 
L 184.424 213.70048 
L 185.500182 212.541398 
L 186.397 211.847538 
L 187.293818 211.413056 
L 188.190636 211.245716 
L 189.087455 211.349811 
L 189.984273 211.726127 
L 190.881091 212.371963 
L 191.777909 213.281197 
L 192.854091 214.706454 
L 194.109636 216.801234 
L 195.544545 219.708196 
L 197.158818 223.53172 
L 199.131818 228.803246 
L 202.719091 239.189277 
L 205.768273 247.737103 
L 207.741273 252.64685 
L 209.355545 256.128075 
L 210.790455 258.746845 
L 212.046 260.640588 
L 213.301545 262.150086 
L 214.377727 263.137134 
L 215.453909 263.846797 
L 216.530091 264.290332 
L 217.606273 264.484041 
L 218.682455 264.448709 
L 219.758636 264.208946 
L 221.014182 263.707915 
L 222.449091 262.902231 
L 224.422091 261.521142 
L 230.161727 257.316317 
L 231.955364 256.344604 
L 233.749 255.636962 
L 235.542636 255.191502 
L 237.515636 254.952028 
L 243.614 254.446503 
L 245.048909 253.958904 
L 246.304455 253.280028 
L 247.56 252.309571 
L 248.636182 251.208034 
L 249.891727 249.569239 
L 251.147273 247.514336 
L 252.402818 245.014793 
L 253.837727 241.590386 
L 255.272636 237.551105 
L 256.886909 232.284538 
L 258.680545 225.589318 
L 260.653545 217.323685 
L 263.164636 205.755536 
L 271.953455 164.122515 
L 273.926455 156.382083 
L 275.540727 150.89412 
L 276.975636 146.738519 
L 278.231182 143.699023 
L 279.486727 141.23595 
L 280.562909 139.588575 
L 281.639091 138.366442 
L 282.535909 137.666369 
L 283.432727 137.246859 
L 284.329545 137.096821 
L 285.226364 137.202745 
L 286.123182 137.548953 
L 287.02 138.11788 
L 288.096182 139.067539 
L 289.351727 140.498572 
L 290.786636 142.487551 
L 292.580273 145.371984 
L 295.270727 150.177106 
L 297.602455 154.457547 
L 297.602455 154.457547 
" style="fill:none;stroke:#d62728;stroke-linecap:square;stroke-width:3;"/>
   </g>
  </g>
  <g id="axes_2">
   <g id="patch_2">
    <path d="M 450.7 144.48 
L 845.3 144.48 
L 845.3 30.8 
L 450.7 30.8 
z
" style="fill:#ffffff;"/>
   </g>
   <g id="matplotlib.axis_1">
    <g id="xtick_1">
     <g id="line2d_4">
      <path clip-path="url(#pe809c83dd9)" d="M 472.622222 144.48 
L 472.622222 30.8 
" style="fill:none;stroke:#cccccc;stroke-dasharray:1.85,0.8;stroke-dashoffset:0;stroke-width:0.5;"/>
     </g>
     <g id="line2d_5">
      <defs>
       <path d="M 0 0 
L 0 3.5 
" id="mf91b38d0f0" style="stroke:#000000;stroke-width:0.8;"/>
      </defs>
      <g>
       <use style="stroke:#000000;stroke-width:0.8;" x="472.622222" xlink:href="#mf91b38d0f0" y="144.48"/>
      </g>
     </g>
     <g id="text_1">
      <!-- −4 -->
      <g transform="translate(465.251128 159.078437)scale(0.1 -0.1)">
       <defs>
        <path d="M 10.59375 35.5 
L 73.1875 35.5 
L 73.1875 27.203125 
L 10.59375 27.203125 
z
" id="DejaVuSans-8722"/>
        <path d="M 37.796875 64.3125 
L 12.890625 25.390625 
L 37.796875 25.390625 
z
M 35.203125 72.90625 
L 47.609375 72.90625 
L 47.609375 25.390625 
L 58.015625 25.390625 
L 58.015625 17.1875 
L 47.609375 17.1875 
L 47.609375 0 
L 37.796875 0 
L 37.796875 17.1875 
L 4.890625 17.1875 
L 4.890625 26.703125 
z
" id="DejaVuSans-52"/>
       </defs>
       <use xlink:href="#DejaVuSans-8722"/>
       <use x="83.789062" xlink:href="#DejaVuSans-52"/>
      </g>
     </g>
    </g>
    <g id="xtick_2">
     <g id="line2d_6">
      <path clip-path="url(#pe809c83dd9)" d="M 516.466667 144.48 
L 516.466667 30.8 
" style="fill:none;stroke:#cccccc;stroke-dasharray:1.85,0.8;stroke-dashoffset:0;stroke-width:0.5;"/>
     </g>
     <g id="line2d_7">
      <g>
       <use style="stroke:#000000;stroke-width:0.8;" x="516.466667" xlink:href="#mf91b38d0f0" y="144.48"/>
      </g>
     </g>
     <g id="text_2">
      <!-- −3 -->
      <g transform="translate(509.095573 159.078437)scale(0.1 -0.1)">
       <defs>
        <path d="M 40.578125 39.3125 
Q 47.65625 37.796875 51.625 33 
Q 55.609375 28.21875 55.609375 21.1875 
Q 55.609375 10.40625 48.1875 4.484375 
Q 40.765625 -1.421875 27.09375 -1.421875 
Q 22.515625 -1.421875 17.65625 -0.515625 
Q 12.796875 0.390625 7.625 2.203125 
L 7.625 11.71875 
Q 11.71875 9.328125 16.59375 8.109375 
Q 21.484375 6.890625 26.8125 6.890625 
Q 36.078125 6.890625 40.9375 10.546875 
Q 45.796875 14.203125 45.796875 21.1875 
Q 45.796875 27.640625 41.28125 31.265625 
Q 36.765625 34.90625 28.71875 34.90625 
L 20.21875 34.90625 
L 20.21875 43.015625 
L 29.109375 43.015625 
Q 36.375 43.015625 40.234375 45.921875 
Q 44.09375 48.828125 44.09375 54.296875 
Q 44.09375 59.90625 40.109375 62.90625 
Q 36.140625 65.921875 28.71875 65.921875 
Q 24.65625 65.921875 20.015625 65.03125 
Q 15.375 64.15625 9.8125 62.3125 
L 9.8125 71.09375 
Q 15.4375 72.65625 20.34375 73.4375 
Q 25.25 74.21875 29.59375 74.21875 
Q 40.828125 74.21875 47.359375 69.109375 
Q 53.90625 64.015625 53.90625 55.328125 
Q 53.90625 49.265625 50.4375 45.09375 
Q 46.96875 40.921875 40.578125 39.3125 
z
" id="DejaVuSans-51"/>
       </defs>
       <use xlink:href="#DejaVuSans-8722"/>
       <use x="83.789062" xlink:href="#DejaVuSans-51"/>
      </g>
     </g>
    </g>
    <g id="xtick_3">
     <g id="line2d_8">
      <path clip-path="url(#pe809c83dd9)" d="M 560.311111 144.48 
L 560.311111 30.8 
" style="fill:none;stroke:#cccccc;stroke-dasharray:1.85,0.8;stroke-dashoffset:0;stroke-width:0.5;"/>
     </g>
     <g id="line2d_9">
      <g>
       <use style="stroke:#000000;stroke-width:0.8;" x="560.311111" xlink:href="#mf91b38d0f0" y="144.48"/>
      </g>
     </g>
     <g id="text_3">
      <!-- −2 -->
      <g transform="translate(552.940017 159.078437)scale(0.1 -0.1)">
       <defs>
        <path d="M 19.1875 8.296875 
L 53.609375 8.296875 
L 53.609375 0 
L 7.328125 0 
L 7.328125 8.296875 
Q 12.9375 14.109375 22.625 23.890625 
Q 32.328125 33.6875 34.8125 36.53125 
Q 39.546875 41.84375 41.421875 45.53125 
Q 43.3125 49.21875 43.3125 52.78125 
Q 43.3125 58.59375 39.234375 62.25 
Q 35.15625 65.921875 28.609375 65.921875 
Q 23.96875 65.921875 18.8125 64.3125 
Q 13.671875 62.703125 7.8125 59.421875 
L 7.8125 69.390625 
Q 13.765625 71.78125 18.9375 73 
Q 24.125 74.21875 28.421875 74.21875 
Q 39.75 74.21875 46.484375 68.546875 
Q 53.21875 62.890625 53.21875 53.421875 
Q 53.21875 48.921875 51.53125 44.890625 
Q 49.859375 40.875 45.40625 35.40625 
Q 44.1875 33.984375 37.640625 27.21875 
Q 31.109375 20.453125 19.1875 8.296875 
z
" id="DejaVuSans-50"/>
       </defs>
       <use xlink:href="#DejaVuSans-8722"/>
       <use x="83.789062" xlink:href="#DejaVuSans-50"/>
      </g>
     </g>
    </g>
    <g id="xtick_4">
     <g id="line2d_10">
      <path clip-path="url(#pe809c83dd9)" d="M 604.155556 144.48 
L 604.155556 30.8 
" style="fill:none;stroke:#cccccc;stroke-dasharray:1.85,0.8;stroke-dashoffset:0;stroke-width:0.5;"/>
     </g>
     <g id="line2d_11">
      <g>
       <use style="stroke:#000000;stroke-width:0.8;" x="604.155556" xlink:href="#mf91b38d0f0" y="144.48"/>
      </g>
     </g>
     <g id="text_4">
      <!-- −1 -->
      <g transform="translate(596.784462 159.078437)scale(0.1 -0.1)">
       <defs>
        <path d="M 12.40625 8.296875 
L 28.515625 8.296875 
L 28.515625 63.921875 
L 10.984375 60.40625 
L 10.984375 69.390625 
L 28.421875 72.90625 
L 38.28125 72.90625 
L 38.28125 8.296875 
L 54.390625 8.296875 
L 54.390625 0 
L 12.40625 0 
z
" id="DejaVuSans-49"/>
       </defs>
       <use xlink:href="#DejaVuSans-8722"/>
       <use x="83.789062" xlink:href="#DejaVuSans-49"/>
      </g>
     </g>
    </g>
    <g id="xtick_5">
     <g id="line2d_12">
      <path clip-path="url(#pe809c83dd9)" d="M 648 144.48 
L 648 30.8 
" style="fill:none;stroke:#cccccc;stroke-dasharray:1.85,0.8;stroke-dashoffset:0;stroke-width:0.5;"/>
     </g>
     <g id="line2d_13">
      <g>
       <use style="stroke:#000000;stroke-width:0.8;" x="648" xlink:href="#mf91b38d0f0" y="144.48"/>
      </g>
     </g>
     <g id="text_5">
      <!-- 0 -->
      <g transform="translate(644.81875 159.078437)scale(0.1 -0.1)">
       <defs>
        <path d="M 31.78125 66.40625 
Q 24.171875 66.40625 20.328125 58.90625 
Q 16.5 51.421875 16.5 36.375 
Q 16.5 21.390625 20.328125 13.890625 
Q 24.171875 6.390625 31.78125 6.390625 
Q 39.453125 6.390625 43.28125 13.890625 
Q 47.125 21.390625 47.125 36.375 
Q 47.125 51.421875 43.28125 58.90625 
Q 39.453125 66.40625 31.78125 66.40625 
z
M 31.78125 74.21875 
Q 44.046875 74.21875 50.515625 64.515625 
Q 56.984375 54.828125 56.984375 36.375 
Q 56.984375 17.96875 50.515625 8.265625 
Q 44.046875 -1.421875 31.78125 -1.421875 
Q 19.53125 -1.421875 13.0625 8.265625 
Q 6.59375 17.96875 6.59375 36.375 
Q 6.59375 54.828125 13.0625 64.515625 
Q 19.53125 74.21875 31.78125 74.21875 
z
" id="DejaVuSans-48"/>
       </defs>
       <use xlink:href="#DejaVuSans-48"/>
      </g>
     </g>
    </g>
    <g id="xtick_6">
     <g id="line2d_14">
      <path clip-path="url(#pe809c83dd9)" d="M 691.844444 144.48 
L 691.844444 30.8 
" style="fill:none;stroke:#cccccc;stroke-dasharray:1.85,0.8;stroke-dashoffset:0;stroke-width:0.5;"/>
     </g>
     <g id="line2d_15">
      <g>
       <use style="stroke:#000000;stroke-width:0.8;" x="691.844444" xlink:href="#mf91b38d0f0" y="144.48"/>
      </g>
     </g>
     <g id="text_6">
      <!-- 1 -->
      <g transform="translate(688.663194 159.078437)scale(0.1 -0.1)">
       <use xlink:href="#DejaVuSans-49"/>
      </g>
     </g>
    </g>
    <g id="xtick_7">
     <g id="line2d_16">
      <path clip-path="url(#pe809c83dd9)" d="M 735.688889 144.48 
L 735.688889 30.8 
" style="fill:none;stroke:#cccccc;stroke-dasharray:1.85,0.8;stroke-dashoffset:0;stroke-width:0.5;"/>
     </g>
     <g id="line2d_17">
      <g>
       <use style="stroke:#000000;stroke-width:0.8;" x="735.688889" xlink:href="#mf91b38d0f0" y="144.48"/>
      </g>
     </g>
     <g id="text_7">
      <!-- 2 -->
      <g transform="translate(732.507639 159.078437)scale(0.1 -0.1)">
       <use xlink:href="#DejaVuSans-50"/>
      </g>
     </g>
    </g>
    <g id="xtick_8">
     <g id="line2d_18">
      <path clip-path="url(#pe809c83dd9)" d="M 779.533333 144.48 
L 779.533333 30.8 
" style="fill:none;stroke:#cccccc;stroke-dasharray:1.85,0.8;stroke-dashoffset:0;stroke-width:0.5;"/>
     </g>
     <g id="line2d_19">
      <g>
       <use style="stroke:#000000;stroke-width:0.8;" x="779.533333" xlink:href="#mf91b38d0f0" y="144.48"/>
      </g>
     </g>
     <g id="text_8">
      <!-- 3 -->
      <g transform="translate(776.352083 159.078437)scale(0.1 -0.1)">
       <use xlink:href="#DejaVuSans-51"/>
      </g>
     </g>
    </g>
    <g id="xtick_9">
     <g id="line2d_20">
      <path clip-path="url(#pe809c83dd9)" d="M 823.377778 144.48 
L 823.377778 30.8 
" style="fill:none;stroke:#cccccc;stroke-dasharray:1.85,0.8;stroke-dashoffset:0;stroke-width:0.5;"/>
     </g>
     <g id="line2d_21">
      <g>
       <use style="stroke:#000000;stroke-width:0.8;" x="823.377778" xlink:href="#mf91b38d0f0" y="144.48"/>
      </g>
     </g>
     <g id="text_9">
      <!-- 4 -->
      <g transform="translate(820.196528 159.078437)scale(0.1 -0.1)">
       <use xlink:href="#DejaVuSans-52"/>
      </g>
     </g>
    </g>
    <g id="text_10">
     <!-- k -->
     <g transform="translate(643.3675 177.315625)scale(0.16 -0.16)">
      <defs>
       <path d="M 9.078125 75.984375 
L 18.109375 75.984375 
L 18.109375 31.109375 
L 44.921875 54.6875 
L 56.390625 54.6875 
L 27.390625 29.109375 
L 57.625 0 
L 45.90625 0 
L 18.109375 26.703125 
L 18.109375 0 
L 9.078125 0 
z
" id="DejaVuSans-107"/>
      </defs>
      <use xlink:href="#DejaVuSans-107"/>
     </g>
    </g>
   </g>
   <g id="matplotlib.axis_2">
    <g id="ytick_1">
     <g id="line2d_22">
      <path clip-path="url(#pe809c83dd9)" d="M 450.7 133.112 
L 845.3 133.112 
" style="fill:none;stroke:#cccccc;stroke-dasharray:1.85,0.8;stroke-dashoffset:0;stroke-width:0.5;"/>
     </g>
     <g id="line2d_23">
      <defs>
       <path d="M 0 0 
L -3.5 0 
" id="m57e1c77021" style="stroke:#000000;stroke-width:0.8;"/>
      </defs>
      <g>
       <use style="stroke:#000000;stroke-width:0.8;" x="450.7" xlink:href="#m57e1c77021" y="133.112"/>
      </g>
     </g>
     <g id="text_11">
      <!-- −0.4 -->
      <g transform="translate(419.417188 136.911219)scale(0.1 -0.1)">
       <defs>
        <path d="M 10.6875 12.40625 
L 21 12.40625 
L 21 0 
L 10.6875 0 
z
" id="DejaVuSans-46"/>
       </defs>
       <use xlink:href="#DejaVuSans-8722"/>
       <use x="83.789062" xlink:href="#DejaVuSans-48"/>
       <use x="147.412109" xlink:href="#DejaVuSans-46"/>
       <use x="179.199219" xlink:href="#DejaVuSans-52"/>
      </g>
     </g>
    </g>
    <g id="ytick_2">
     <g id="line2d_24">
      <path clip-path="url(#pe809c83dd9)" d="M 450.7 110.376 
L 845.3 110.376 
" style="fill:none;stroke:#cccccc;stroke-dasharray:1.85,0.8;stroke-dashoffset:0;stroke-width:0.5;"/>
     </g>
     <g id="line2d_25">
      <g>
       <use style="stroke:#000000;stroke-width:0.8;" x="450.7" xlink:href="#m57e1c77021" y="110.376"/>
      </g>
     </g>
     <g id="text_12">
      <!-- −0.2 -->
      <g transform="translate(419.417188 114.175219)scale(0.1 -0.1)">
       <use xlink:href="#DejaVuSans-8722"/>
       <use x="83.789062" xlink:href="#DejaVuSans-48"/>
       <use x="147.412109" xlink:href="#DejaVuSans-46"/>
       <use x="179.199219" xlink:href="#DejaVuSans-50"/>
      </g>
     </g>
    </g>
    <g id="ytick_3">
     <g id="line2d_26">
      <path clip-path="url(#pe809c83dd9)" d="M 450.7 87.64 
L 845.3 87.64 
" style="fill:none;stroke:#cccccc;stroke-dasharray:1.85,0.8;stroke-dashoffset:0;stroke-width:0.5;"/>
     </g>
     <g id="line2d_27">
      <g>
       <use style="stroke:#000000;stroke-width:0.8;" x="450.7" xlink:href="#m57e1c77021" y="87.64"/>
      </g>
     </g>
     <g id="text_13">
      <!-- 0.0 -->
      <g transform="translate(427.796875 91.439219)scale(0.1 -0.1)">
       <use xlink:href="#DejaVuSans-48"/>
       <use x="63.623047" xlink:href="#DejaVuSans-46"/>
       <use x="95.410156" xlink:href="#DejaVuSans-48"/>
      </g>
     </g>
    </g>
    <g id="ytick_4">
     <g id="line2d_28">
      <path clip-path="url(#pe809c83dd9)" d="M 450.7 64.904 
L 845.3 64.904 
" style="fill:none;stroke:#cccccc;stroke-dasharray:1.85,0.8;stroke-dashoffset:0;stroke-width:0.5;"/>
     </g>
     <g id="line2d_29">
      <g>
       <use style="stroke:#000000;stroke-width:0.8;" x="450.7" xlink:href="#m57e1c77021" y="64.904"/>
      </g>
     </g>
     <g id="text_14">
      <!-- 0.2 -->
      <g transform="translate(427.796875 68.703219)scale(0.1 -0.1)">
       <use xlink:href="#DejaVuSans-48"/>
       <use x="63.623047" xlink:href="#DejaVuSans-46"/>
       <use x="95.410156" xlink:href="#DejaVuSans-50"/>
      </g>
     </g>
    </g>
    <g id="ytick_5">
     <g id="line2d_30">
      <path clip-path="url(#pe809c83dd9)" d="M 450.7 42.168 
L 845.3 42.168 
" style="fill:none;stroke:#cccccc;stroke-dasharray:1.85,0.8;stroke-dashoffset:0;stroke-width:0.5;"/>
     </g>
     <g id="line2d_31">
      <g>
       <use style="stroke:#000000;stroke-width:0.8;" x="450.7" xlink:href="#m57e1c77021" y="42.168"/>
      </g>
     </g>
     <g id="text_15">
      <!-- 0.4 -->
      <g transform="translate(427.796875 45.967219)scale(0.1 -0.1)">
       <use xlink:href="#DejaVuSans-48"/>
       <use x="63.623047" xlink:href="#DejaVuSans-46"/>
       <use x="95.410156" xlink:href="#DejaVuSans-52"/>
      </g>
     </g>
    </g>
   </g>
   <g id="LineCollection_1">
    <path clip-path="url(#pe809c83dd9)" d="M 472.622222 87.64 
L 472.622222 76.272 
" style="fill:none;stroke:#1f77b4;stroke-width:1.5;"/>
    <path clip-path="url(#pe809c83dd9)" d="M 516.466667 87.64 
L 516.466667 84.798 
" style="fill:none;stroke:#1f77b4;stroke-width:1.5;"/>
    <path clip-path="url(#pe809c83dd9)" d="M 560.311111 87.64 
L 560.311111 59.22 
" style="fill:none;stroke:#1f77b4;stroke-width:1.5;"/>
    <path clip-path="url(#pe809c83dd9)" d="M 604.155556 87.64 
L 604.155556 42.168 
" style="fill:none;stroke:#1f77b4;stroke-width:1.5;"/>
    <path clip-path="url(#pe809c83dd9)" d="M 648 87.64 
L 648 99.008 
" style="fill:none;stroke:#1f77b4;stroke-width:1.5;"/>
    <path clip-path="url(#pe809c83dd9)" d="M 691.844444 87.64 
L 691.844444 42.168 
" style="fill:none;stroke:#1f77b4;stroke-width:1.5;"/>
    <path clip-path="url(#pe809c83dd9)" d="M 735.688889 87.64 
L 735.688889 59.22 
" style="fill:none;stroke:#1f77b4;stroke-width:1.5;"/>
    <path clip-path="url(#pe809c83dd9)" d="M 779.533333 87.64 
L 779.533333 84.798 
" style="fill:none;stroke:#1f77b4;stroke-width:1.5;"/>
    <path clip-path="url(#pe809c83dd9)" d="M 823.377778 87.64 
L 823.377778 76.272 
" style="fill:none;stroke:#1f77b4;stroke-width:1.5;"/>
   </g>
   <g id="line2d_32">
    <defs>
     <path d="M 0 3 
C 0.795609 3 1.55874 2.683901 2.12132 2.12132 
C 2.683901 1.55874 3 0.795609 3 0 
C 3 -0.795609 2.683901 -1.55874 2.12132 -2.12132 
C 1.55874 -2.683901 0.795609 -3 0 -3 
C -0.795609 -3 -1.55874 -2.683901 -2.12132 -2.12132 
C -2.683901 -1.55874 -3 -0.795609 -3 0 
C -3 0.795609 -2.683901 1.55874 -2.12132 2.12132 
C -1.55874 2.683901 -0.795609 3 0 3 
z
" id="m4dc30b3a32" style="stroke:#1f77b4;"/>
    </defs>
    <g clip-path="url(#pe809c83dd9)">
     <use style="fill:#1f77b4;stroke:#1f77b4;" x="472.622222" xlink:href="#m4dc30b3a32" y="76.272"/>
     <use style="fill:#1f77b4;stroke:#1f77b4;" x="516.466667" xlink:href="#m4dc30b3a32" y="84.798"/>
     <use style="fill:#1f77b4;stroke:#1f77b4;" x="560.311111" xlink:href="#m4dc30b3a32" y="59.22"/>
     <use style="fill:#1f77b4;stroke:#1f77b4;" x="604.155556" xlink:href="#m4dc30b3a32" y="42.168"/>
     <use style="fill:#1f77b4;stroke:#1f77b4;" x="648" xlink:href="#m4dc30b3a32" y="99.008"/>
     <use style="fill:#1f77b4;stroke:#1f77b4;" x="691.844444" xlink:href="#m4dc30b3a32" y="42.168"/>
     <use style="fill:#1f77b4;stroke:#1f77b4;" x="735.688889" xlink:href="#m4dc30b3a32" y="59.22"/>
     <use style="fill:#1f77b4;stroke:#1f77b4;" x="779.533333" xlink:href="#m4dc30b3a32" y="84.798"/>
     <use style="fill:#1f77b4;stroke:#1f77b4;" x="823.377778" xlink:href="#m4dc30b3a32" y="76.272"/>
    </g>
   </g>
   <g id="line2d_33">
    <path clip-path="url(#pe809c83dd9)" d="M 472.622222 87.64 
L 823.377778 87.64 
" style="fill:none;stroke:#d62728;stroke-linecap:square;stroke-width:1.5;"/>
   </g>
   <g id="patch_3">
    <path d="M 450.7 144.48 
L 450.7 30.8 
" style="fill:none;stroke:#000000;stroke-linecap:square;stroke-linejoin:miter;stroke-width:0.8;"/>
   </g>
   <g id="patch_4">
    <path d="M 845.3 144.48 
L 845.3 30.8 
" style="fill:none;stroke:#000000;stroke-linecap:square;stroke-linejoin:miter;stroke-width:0.8;"/>
   </g>
   <g id="patch_5">
    <path d="M 450.7 144.48 
L 845.3 144.48 
" style="fill:none;stroke:#000000;stroke-linecap:square;stroke-linejoin:miter;stroke-width:0.8;"/>
   </g>
   <g id="patch_6">
    <path d="M 450.7 30.8 
L 845.3 30.8 
" style="fill:none;stroke:#000000;stroke-linecap:square;stroke-linejoin:miter;stroke-width:0.8;"/>
   </g>
   <g id="text_16">
    <!-- $\vert c_k \vert$ -->
    <g transform="translate(634.72 24.8)scale(0.16 -0.16)">
     <defs>
      <path d="M 21 76.421875 
L 21 -23.578125 
L 12.703125 -23.578125 
L 12.703125 76.421875 
z
" id="DejaVuSans-124"/>
      <path d="M 53.609375 52.59375 
L 51.8125 43.703125 
Q 48.578125 46.046875 44.9375 47.21875 
Q 41.3125 48.390625 37.40625 48.390625 
Q 33.109375 48.390625 29.21875 46.875 
Q 25.34375 45.359375 22.703125 42.578125 
Q 18.5 38.328125 16.203125 32.609375 
Q 13.921875 26.90625 13.921875 20.796875 
Q 13.921875 13.421875 17.609375 9.8125 
Q 21.296875 6.203125 28.8125 6.203125 
Q 32.515625 6.203125 36.6875 7.328125 
Q 40.875 8.453125 45.40625 10.6875 
L 43.703125 1.8125 
Q 39.796875 0.203125 35.671875 -0.609375 
Q 31.546875 -1.421875 27.203125 -1.421875 
Q 16.3125 -1.421875 10.453125 4.015625 
Q 4.59375 9.46875 4.59375 19.578125 
Q 4.59375 28.078125 7.640625 35.234375 
Q 10.6875 42.390625 16.703125 48.09375 
Q 20.796875 52 26.3125 54 
Q 31.84375 56 38.375 56 
Q 42.1875 56 45.9375 55.140625 
Q 49.703125 54.296875 53.609375 52.59375 
z
" id="DejaVuSans-Oblique-99"/>
      <path d="M 18.3125 75.984375 
L 27.296875 75.984375 
L 18.703125 31.6875 
L 49.515625 54.6875 
L 61.1875 54.6875 
L 26.8125 28.515625 
L 51.90625 0 
L 41.015625 0 
L 17.671875 26.703125 
L 12.5 0 
L 3.515625 0 
z
" id="DejaVuSans-Oblique-107"/>
     </defs>
     <use transform="translate(0 0.578125)" xlink:href="#DejaVuSans-124"/>
     <use transform="translate(33.691406 0.578125)" xlink:href="#DejaVuSans-Oblique-99"/>
     <use transform="translate(88.671875 -15.828125)scale(0.7)" xlink:href="#DejaVuSans-Oblique-107"/>
     <use transform="translate(131.943359 0.578125)" xlink:href="#DejaVuSans-124"/>
    </g>
   </g>
  </g>
  <g id="axes_3">
   <g id="patch_7">
    <path d="M 450.7 385.2 
L 845.3 385.2 
L 845.3 271.52 
L 450.7 271.52 
z
" style="fill:#ffffff;"/>
   </g>
   <g id="matplotlib.axis_3">
    <g id="xtick_10">
     <g id="line2d_34">
      <path clip-path="url(#peb9392dbc7)" d="M 472.622222 385.2 
L 472.622222 271.52 
" style="fill:none;stroke:#cccccc;stroke-dasharray:1.85,0.8;stroke-dashoffset:0;stroke-width:0.5;"/>
     </g>
     <g id="line2d_35">
      <g>
       <use style="stroke:#000000;stroke-width:0.8;" x="472.622222" xlink:href="#mf91b38d0f0" y="385.2"/>
      </g>
     </g>
     <g id="text_17">
      <!-- −4 -->
      <g transform="translate(465.251128 399.798437)scale(0.1 -0.1)">
       <use xlink:href="#DejaVuSans-8722"/>
       <use x="83.789062" xlink:href="#DejaVuSans-52"/>
      </g>
     </g>
    </g>
    <g id="xtick_11">
     <g id="line2d_36">
      <path clip-path="url(#peb9392dbc7)" d="M 516.466667 385.2 
L 516.466667 271.52 
" style="fill:none;stroke:#cccccc;stroke-dasharray:1.85,0.8;stroke-dashoffset:0;stroke-width:0.5;"/>
     </g>
     <g id="line2d_37">
      <g>
       <use style="stroke:#000000;stroke-width:0.8;" x="516.466667" xlink:href="#mf91b38d0f0" y="385.2"/>
      </g>
     </g>
     <g id="text_18">
      <!-- −3 -->
      <g transform="translate(509.095573 399.798437)scale(0.1 -0.1)">
       <use xlink:href="#DejaVuSans-8722"/>
       <use x="83.789062" xlink:href="#DejaVuSans-51"/>
      </g>
     </g>
    </g>
    <g id="xtick_12">
     <g id="line2d_38">
      <path clip-path="url(#peb9392dbc7)" d="M 560.311111 385.2 
L 560.311111 271.52 
" style="fill:none;stroke:#cccccc;stroke-dasharray:1.85,0.8;stroke-dashoffset:0;stroke-width:0.5;"/>
     </g>
     <g id="line2d_39">
      <g>
       <use style="stroke:#000000;stroke-width:0.8;" x="560.311111" xlink:href="#mf91b38d0f0" y="385.2"/>
      </g>
     </g>
     <g id="text_19">
      <!-- −2 -->
      <g transform="translate(552.940017 399.798437)scale(0.1 -0.1)">
       <use xlink:href="#DejaVuSans-8722"/>
       <use x="83.789062" xlink:href="#DejaVuSans-50"/>
      </g>
     </g>
    </g>
    <g id="xtick_13">
     <g id="line2d_40">
      <path clip-path="url(#peb9392dbc7)" d="M 604.155556 385.2 
L 604.155556 271.52 
" style="fill:none;stroke:#cccccc;stroke-dasharray:1.85,0.8;stroke-dashoffset:0;stroke-width:0.5;"/>
     </g>
     <g id="line2d_41">
      <g>
       <use style="stroke:#000000;stroke-width:0.8;" x="604.155556" xlink:href="#mf91b38d0f0" y="385.2"/>
      </g>
     </g>
     <g id="text_20">
      <!-- −1 -->
      <g transform="translate(596.784462 399.798437)scale(0.1 -0.1)">
       <use xlink:href="#DejaVuSans-8722"/>
       <use x="83.789062" xlink:href="#DejaVuSans-49"/>
      </g>
     </g>
    </g>
    <g id="xtick_14">
     <g id="line2d_42">
      <path clip-path="url(#peb9392dbc7)" d="M 648 385.2 
L 648 271.52 
" style="fill:none;stroke:#cccccc;stroke-dasharray:1.85,0.8;stroke-dashoffset:0;stroke-width:0.5;"/>
     </g>
     <g id="line2d_43">
      <g>
       <use style="stroke:#000000;stroke-width:0.8;" x="648" xlink:href="#mf91b38d0f0" y="385.2"/>
      </g>
     </g>
     <g id="text_21">
      <!-- 0 -->
      <g transform="translate(644.81875 399.798437)scale(0.1 -0.1)">
       <use xlink:href="#DejaVuSans-48"/>
      </g>
     </g>
    </g>
    <g id="xtick_15">
     <g id="line2d_44">
      <path clip-path="url(#peb9392dbc7)" d="M 691.844444 385.2 
L 691.844444 271.52 
" style="fill:none;stroke:#cccccc;stroke-dasharray:1.85,0.8;stroke-dashoffset:0;stroke-width:0.5;"/>
     </g>
     <g id="line2d_45">
      <g>
       <use style="stroke:#000000;stroke-width:0.8;" x="691.844444" xlink:href="#mf91b38d0f0" y="385.2"/>
      </g>
     </g>
     <g id="text_22">
      <!-- 1 -->
      <g transform="translate(688.663194 399.798437)scale(0.1 -0.1)">
       <use xlink:href="#DejaVuSans-49"/>
      </g>
     </g>
    </g>
    <g id="xtick_16">
     <g id="line2d_46">
      <path clip-path="url(#peb9392dbc7)" d="M 735.688889 385.2 
L 735.688889 271.52 
" style="fill:none;stroke:#cccccc;stroke-dasharray:1.85,0.8;stroke-dashoffset:0;stroke-width:0.5;"/>
     </g>
     <g id="line2d_47">
      <g>
       <use style="stroke:#000000;stroke-width:0.8;" x="735.688889" xlink:href="#mf91b38d0f0" y="385.2"/>
      </g>
     </g>
     <g id="text_23">
      <!-- 2 -->
      <g transform="translate(732.507639 399.798437)scale(0.1 -0.1)">
       <use xlink:href="#DejaVuSans-50"/>
      </g>
     </g>
    </g>
    <g id="xtick_17">
     <g id="line2d_48">
      <path clip-path="url(#peb9392dbc7)" d="M 779.533333 385.2 
L 779.533333 271.52 
" style="fill:none;stroke:#cccccc;stroke-dasharray:1.85,0.8;stroke-dashoffset:0;stroke-width:0.5;"/>
     </g>
     <g id="line2d_49">
      <g>
       <use style="stroke:#000000;stroke-width:0.8;" x="779.533333" xlink:href="#mf91b38d0f0" y="385.2"/>
      </g>
     </g>
     <g id="text_24">
      <!-- 3 -->
      <g transform="translate(776.352083 399.798437)scale(0.1 -0.1)">
       <use xlink:href="#DejaVuSans-51"/>
      </g>
     </g>
    </g>
    <g id="xtick_18">
     <g id="line2d_50">
      <path clip-path="url(#peb9392dbc7)" d="M 823.377778 385.2 
L 823.377778 271.52 
" style="fill:none;stroke:#cccccc;stroke-dasharray:1.85,0.8;stroke-dashoffset:0;stroke-width:0.5;"/>
     </g>
     <g id="line2d_51">
      <g>
       <use style="stroke:#000000;stroke-width:0.8;" x="823.377778" xlink:href="#mf91b38d0f0" y="385.2"/>
      </g>
     </g>
     <g id="text_25">
      <!-- 4 -->
      <g transform="translate(820.196528 399.798437)scale(0.1 -0.1)">
       <use xlink:href="#DejaVuSans-52"/>
      </g>
     </g>
    </g>
    <g id="text_26">
     <!-- k -->
     <g transform="translate(643.3675 418.035625)scale(0.16 -0.16)">
      <use xlink:href="#DejaVuSans-107"/>
     </g>
    </g>
   </g>
   <g id="matplotlib.axis_4">
    <g id="ytick_6">
     <g id="line2d_52">
      <path clip-path="url(#peb9392dbc7)" d="M 450.7 359.937778 
L 845.3 359.937778 
" style="fill:none;stroke:#cccccc;stroke-dasharray:1.85,0.8;stroke-dashoffset:0;stroke-width:0.5;"/>
     </g>
     <g id="line2d_53">
      <g>
       <use style="stroke:#000000;stroke-width:0.8;" x="450.7" xlink:href="#m57e1c77021" y="359.937778"/>
      </g>
     </g>
     <g id="text_27">
      <!-- −100 -->
      <g transform="translate(416.232813 363.736997)scale(0.1 -0.1)">
       <use xlink:href="#DejaVuSans-8722"/>
       <use x="83.789062" xlink:href="#DejaVuSans-49"/>
       <use x="147.412109" xlink:href="#DejaVuSans-48"/>
       <use x="211.035156" xlink:href="#DejaVuSans-48"/>
      </g>
     </g>
    </g>
    <g id="ytick_7">
     <g id="line2d_54">
      <path clip-path="url(#peb9392dbc7)" d="M 450.7 328.36 
L 845.3 328.36 
" style="fill:none;stroke:#cccccc;stroke-dasharray:1.85,0.8;stroke-dashoffset:0;stroke-width:0.5;"/>
     </g>
     <g id="line2d_55">
      <g>
       <use style="stroke:#000000;stroke-width:0.8;" x="450.7" xlink:href="#m57e1c77021" y="328.36"/>
      </g>
     </g>
     <g id="text_28">
      <!-- 0 -->
      <g transform="translate(437.3375 332.159219)scale(0.1 -0.1)">
       <use xlink:href="#DejaVuSans-48"/>
      </g>
     </g>
    </g>
    <g id="ytick_8">
     <g id="line2d_56">
      <path clip-path="url(#peb9392dbc7)" d="M 450.7 296.782222 
L 845.3 296.782222 
" style="fill:none;stroke:#cccccc;stroke-dasharray:1.85,0.8;stroke-dashoffset:0;stroke-width:0.5;"/>
     </g>
     <g id="line2d_57">
      <g>
       <use style="stroke:#000000;stroke-width:0.8;" x="450.7" xlink:href="#m57e1c77021" y="296.782222"/>
      </g>
     </g>
     <g id="text_29">
      <!-- 100 -->
      <g transform="translate(424.6125 300.581441)scale(0.1 -0.1)">
       <use xlink:href="#DejaVuSans-49"/>
       <use x="63.623047" xlink:href="#DejaVuSans-48"/>
       <use x="127.246094" xlink:href="#DejaVuSans-48"/>
      </g>
     </g>
    </g>
   </g>
   <g id="LineCollection_2">
    <path clip-path="url(#peb9392dbc7)" d="M 472.622222 328.36 
L 472.622222 378.884444 
" style="fill:none;stroke:#1f77b4;stroke-width:1.5;"/>
    <path clip-path="url(#peb9392dbc7)" d="M 516.466667 328.36 
L 516.466667 314.15 
" style="fill:none;stroke:#1f77b4;stroke-width:1.5;"/>
    <path clip-path="url(#peb9392dbc7)" d="M 560.311111 328.36 
L 560.311111 342.57 
" style="fill:none;stroke:#1f77b4;stroke-width:1.5;"/>
    <path clip-path="url(#peb9392dbc7)" d="M 604.155556 328.36 
L 604.155556 328.36 
" style="fill:none;stroke:#1f77b4;stroke-width:1.5;"/>
    <path clip-path="url(#peb9392dbc7)" d="M 648 328.36 
L 648 328.36 
" style="fill:none;stroke:#1f77b4;stroke-width:1.5;"/>
    <path clip-path="url(#peb9392dbc7)" d="M 691.844444 328.36 
L 691.844444 328.36 
" style="fill:none;stroke:#1f77b4;stroke-width:1.5;"/>
    <path clip-path="url(#peb9392dbc7)" d="M 735.688889 328.36 
L 735.688889 314.15 
" style="fill:none;stroke:#1f77b4;stroke-width:1.5;"/>
    <path clip-path="url(#peb9392dbc7)" d="M 779.533333 328.36 
L 779.533333 342.57 
" style="fill:none;stroke:#1f77b4;stroke-width:1.5;"/>
    <path clip-path="url(#peb9392dbc7)" d="M 823.377778 328.36 
L 823.377778 277.835556 
" style="fill:none;stroke:#1f77b4;stroke-width:1.5;"/>
   </g>
   <g id="line2d_58">
    <g clip-path="url(#peb9392dbc7)">
     <use style="fill:#1f77b4;stroke:#1f77b4;" x="472.622222" xlink:href="#m4dc30b3a32" y="378.884444"/>
     <use style="fill:#1f77b4;stroke:#1f77b4;" x="516.466667" xlink:href="#m4dc30b3a32" y="314.15"/>
     <use style="fill:#1f77b4;stroke:#1f77b4;" x="560.311111" xlink:href="#m4dc30b3a32" y="342.57"/>
     <use style="fill:#1f77b4;stroke:#1f77b4;" x="604.155556" xlink:href="#m4dc30b3a32" y="328.36"/>
     <use style="fill:#1f77b4;stroke:#1f77b4;" x="648" xlink:href="#m4dc30b3a32" y="328.36"/>
     <use style="fill:#1f77b4;stroke:#1f77b4;" x="691.844444" xlink:href="#m4dc30b3a32" y="328.36"/>
     <use style="fill:#1f77b4;stroke:#1f77b4;" x="735.688889" xlink:href="#m4dc30b3a32" y="314.15"/>
     <use style="fill:#1f77b4;stroke:#1f77b4;" x="779.533333" xlink:href="#m4dc30b3a32" y="342.57"/>
     <use style="fill:#1f77b4;stroke:#1f77b4;" x="823.377778" xlink:href="#m4dc30b3a32" y="277.835556"/>
    </g>
   </g>
   <g id="line2d_59">
    <path clip-path="url(#peb9392dbc7)" d="M 472.622222 328.36 
L 823.377778 328.36 
" style="fill:none;stroke:#d62728;stroke-linecap:square;stroke-width:1.5;"/>
   </g>
   <g id="patch_8">
    <path d="M 450.7 385.2 
L 450.7 271.52 
" style="fill:none;stroke:#000000;stroke-linecap:square;stroke-linejoin:miter;stroke-width:0.8;"/>
   </g>
   <g id="patch_9">
    <path d="M 845.3 385.2 
L 845.3 271.52 
" style="fill:none;stroke:#000000;stroke-linecap:square;stroke-linejoin:miter;stroke-width:0.8;"/>
   </g>
   <g id="patch_10">
    <path d="M 450.7 385.2 
L 845.3 385.2 
" style="fill:none;stroke:#000000;stroke-linecap:square;stroke-linejoin:miter;stroke-width:0.8;"/>
   </g>
   <g id="patch_11">
    <path d="M 450.7 271.52 
L 845.3 271.52 
" style="fill:none;stroke:#000000;stroke-linecap:square;stroke-linejoin:miter;stroke-width:0.8;"/>
   </g>
   <g id="text_30">
    <!-- $\arg \, c_k$ -->
    <g transform="translate(625.52 265.52)scale(0.16 -0.16)">
     <defs>
      <path d="M 34.28125 27.484375 
Q 23.390625 27.484375 19.1875 25 
Q 14.984375 22.515625 14.984375 16.5 
Q 14.984375 11.71875 18.140625 8.90625 
Q 21.296875 6.109375 26.703125 6.109375 
Q 34.1875 6.109375 38.703125 11.40625 
Q 43.21875 16.703125 43.21875 25.484375 
L 43.21875 27.484375 
z
M 52.203125 31.203125 
L 52.203125 0 
L 43.21875 0 
L 43.21875 8.296875 
Q 40.140625 3.328125 35.546875 0.953125 
Q 30.953125 -1.421875 24.3125 -1.421875 
Q 15.921875 -1.421875 10.953125 3.296875 
Q 6 8.015625 6 15.921875 
Q 6 25.140625 12.171875 29.828125 
Q 18.359375 34.515625 30.609375 34.515625 
L 43.21875 34.515625 
L 43.21875 35.40625 
Q 43.21875 41.609375 39.140625 45 
Q 35.0625 48.390625 27.6875 48.390625 
Q 23 48.390625 18.546875 47.265625 
Q 14.109375 46.140625 10.015625 43.890625 
L 10.015625 52.203125 
Q 14.9375 54.109375 19.578125 55.046875 
Q 24.21875 56 28.609375 56 
Q 40.484375 56 46.34375 49.84375 
Q 52.203125 43.703125 52.203125 31.203125 
z
" id="DejaVuSans-97"/>
      <path d="M 41.109375 46.296875 
Q 39.59375 47.171875 37.8125 47.578125 
Q 36.03125 48 33.890625 48 
Q 26.265625 48 22.1875 43.046875 
Q 18.109375 38.09375 18.109375 28.8125 
L 18.109375 0 
L 9.078125 0 
L 9.078125 54.6875 
L 18.109375 54.6875 
L 18.109375 46.1875 
Q 20.953125 51.171875 25.484375 53.578125 
Q 30.03125 56 36.53125 56 
Q 37.453125 56 38.578125 55.875 
Q 39.703125 55.765625 41.0625 55.515625 
z
" id="DejaVuSans-114"/>
      <path d="M 45.40625 27.984375 
Q 45.40625 37.75 41.375 43.109375 
Q 37.359375 48.484375 30.078125 48.484375 
Q 22.859375 48.484375 18.828125 43.109375 
Q 14.796875 37.75 14.796875 27.984375 
Q 14.796875 18.265625 18.828125 12.890625 
Q 22.859375 7.515625 30.078125 7.515625 
Q 37.359375 7.515625 41.375 12.890625 
Q 45.40625 18.265625 45.40625 27.984375 
z
M 54.390625 6.78125 
Q 54.390625 -7.171875 48.1875 -13.984375 
Q 42 -20.796875 29.203125 -20.796875 
Q 24.46875 -20.796875 20.265625 -20.09375 
Q 16.0625 -19.390625 12.109375 -17.921875 
L 12.109375 -9.1875 
Q 16.0625 -11.328125 19.921875 -12.34375 
Q 23.78125 -13.375 27.78125 -13.375 
Q 36.625 -13.375 41.015625 -8.765625 
Q 45.40625 -4.15625 45.40625 5.171875 
L 45.40625 9.625 
Q 42.625 4.78125 38.28125 2.390625 
Q 33.9375 0 27.875 0 
Q 17.828125 0 11.671875 7.65625 
Q 5.515625 15.328125 5.515625 27.984375 
Q 5.515625 40.671875 11.671875 48.328125 
Q 17.828125 56 27.875 56 
Q 33.9375 56 38.28125 53.609375 
Q 42.625 51.21875 45.40625 46.390625 
L 45.40625 54.6875 
L 54.390625 54.6875 
z
" id="DejaVuSans-103"/>
     </defs>
     <use xlink:href="#DejaVuSans-97"/>
     <use transform="translate(61.279297 0)" xlink:href="#DejaVuSans-114"/>
     <use transform="translate(102.392578 0)" xlink:href="#DejaVuSans-103"/>
     <use transform="translate(182.104817 0)" xlink:href="#DejaVuSans-Oblique-99"/>
     <use transform="translate(237.085286 -16.40625)scale(0.7)" xlink:href="#DejaVuSans-Oblique-107"/>
    </g>
   </g>
  </g>
  <g id="axes_4">
   <g id="line2d_60">
    <path clip-path="url(#p256278a4a6)" d="M 890.6 46.909091 
L 1285.2 46.909091 
" style="fill:none;stroke:#cccccc;stroke-linecap:square;"/>
   </g>
   <g id="line2d_61">
    <path clip-path="url(#p256278a4a6)" d="M 890.271167 52.105573 
L 1285.2 52.105573 
L 1285.2 52.105573 
" style="fill:none;stroke:#1f77b4;stroke-linecap:square;stroke-width:1.5;"/>
   </g>
   <g id="line2d_62">
    <path clip-path="url(#p256278a4a6)" d="M 890.6 124.856315 
L 1285.2 124.856315 
" style="fill:none;stroke:#cccccc;stroke-linecap:square;"/>
   </g>
   <g id="line2d_63">
    <path clip-path="url(#p256278a4a6)" d="M 890.271167 91.378174 
L 894.546 89.478898 
L 898.820833 87.815523 
L 903.095667 86.399141 
L 907.041667 85.319133 
L 910.987667 84.463783 
L 914.933667 83.837952 
L 918.879667 83.445195 
L 922.825667 83.287744 
L 926.771667 83.366495 
L 930.717667 83.680998 
L 934.663667 84.229468 
L 938.609667 85.008788 
L 942.555667 86.01453 
L 946.501667 87.240978 
L 950.7765 88.810579 
L 955.051333 90.620539 
L 959.655 92.824652 
L 964.258667 95.276458 
L 969.191167 98.156682 
L 974.4525 101.489467 
L 980.3715 105.519123 
L 986.948167 110.283954 
L 994.840167 116.298225 
L 1007.007 125.901019 
L 1020.160333 136.203432 
L 1027.7235 141.844614 
L 1033.971333 146.242519 
L 1039.5615 149.921213 
L 1044.822833 153.123237 
L 1049.755333 155.86647 
L 1054.359 158.178939 
L 1058.962667 160.233732 
L 1063.2375 161.897107 
L 1067.512333 163.313488 
L 1071.458333 164.393496 
L 1075.404333 165.248846 
L 1079.350333 165.874678 
L 1083.296333 166.267434 
L 1087.242333 166.424885 
L 1091.188333 166.346135 
L 1095.134333 166.031631 
L 1099.080333 165.483161 
L 1103.026333 164.703841 
L 1106.972333 163.6981 
L 1110.918333 162.471652 
L 1115.193167 160.90205 
L 1119.468 159.092091 
L 1124.071667 156.887978 
L 1128.675333 154.436171 
L 1133.607833 151.555948 
L 1138.869167 148.223162 
L 1144.788167 144.193507 
L 1151.364833 139.428676 
L 1159.256833 133.414405 
L 1171.423667 123.81161 
L 1184.577 113.509197 
L 1192.140167 107.868016 
L 1198.388 103.47011 
L 1203.978167 99.791417 
L 1209.2395 96.589393 
L 1214.172 93.846159 
L 1218.775667 91.53369 
L 1223.379333 89.478898 
L 1227.654167 87.815523 
L 1231.929 86.399141 
L 1235.875 85.319133 
L 1239.821 84.463783 
L 1243.767 83.837952 
L 1247.713 83.445195 
L 1251.659 83.287744 
L 1255.605 83.366495 
L 1259.551 83.680998 
L 1263.497 84.229468 
L 1267.443 85.008788 
L 1271.389 86.01453 
L 1275.335 87.240978 
L 1279.609833 88.810579 
L 1283.884667 90.620539 
L 1285.2 91.223979 
L 1285.2 91.223979 
" style="fill:none;stroke:#ff7f0e;stroke-linecap:square;stroke-width:1.5;"/>
   </g>
   <g id="line2d_64">
    <path clip-path="url(#p256278a4a6)" d="M 890.6 202.803539 
L 1285.2 202.803539 
" style="fill:none;stroke:#cccccc;stroke-linecap:square;"/>
   </g>
   <g id="line2d_65">
    <path clip-path="url(#p256278a4a6)" d="M 890.271167 179.803098 
L 892.901833 178.70628 
L 895.5325 177.852796 
L 898.163167 177.251264 
L 900.465 176.936442 
L 902.766833 176.821644 
L 905.068667 176.907758 
L 907.3705 177.194119 
L 910.001167 177.763677 
L 912.631833 178.586087 
L 915.2625 179.653044 
L 917.893167 180.953773 
L 920.852667 182.680084 
L 923.812167 184.66352 
L 927.1005 187.137977 
L 930.717667 190.143607 
L 934.9925 194.002312 
L 940.582667 199.38518 
L 954.064833 212.519899 
L 958.339667 216.309645 
L 961.956833 219.239235 
L 965.245167 221.631772 
L 968.204667 223.532159 
L 971.164167 225.167689 
L 973.794833 226.382169 
L 976.4255 227.358553 
L 979.056167 228.086981 
L 981.686833 228.560098 
L 983.988667 228.76082 
L 986.2905 228.76082 
L 988.592333 228.560098 
L 990.894167 228.160206 
L 993.524833 227.463342 
L 996.1555 226.517464 
L 998.786167 225.332123 
L 1001.416833 223.91929 
L 1004.376333 222.075776 
L 1007.664667 219.739748 
L 1011.281833 216.863172 
L 1015.227833 213.421226 
L 1020.160333 208.789611 
L 1028.381167 200.683618 
L 1035.286667 194.002312 
L 1039.890333 189.85949 
L 1043.5075 186.878738 
L 1046.795833 184.431202 
L 1049.755333 182.475141 
L 1052.714833 180.778825 
L 1055.3455 179.506645 
L 1057.976167 178.469717 
L 1060.606833 177.678512 
L 1063.2375 177.141017 
L 1065.539333 176.883164 
L 1067.841167 176.825746 
L 1070.143 176.96921 
L 1072.444833 177.312445 
L 1075.0755 177.945856 
L 1077.706167 178.830279 
L 1080.336833 179.956784 
L 1082.9675 181.313994 
L 1085.927 183.09947 
L 1088.8865 185.136713 
L 1092.174833 187.663837 
L 1095.792 190.717794 
L 1100.066833 194.61943 
L 1105.985833 200.358378 
L 1117.823833 211.911264 
L 1122.098667 215.747587 
L 1125.715833 218.72834 
L 1129.004167 221.175876 
L 1131.963667 223.131936 
L 1134.923167 224.828253 
L 1137.553833 226.100432 
L 1140.1845 227.13736 
L 1142.815167 227.928566 
L 1145.445833 228.46606 
L 1147.747667 228.723914 
L 1150.0495 228.781331 
L 1152.351333 228.637867 
L 1154.653167 228.294633 
L 1157.283833 227.661221 
L 1159.9145 226.776798 
L 1162.545167 225.650294 
L 1165.175833 224.293084 
L 1168.135333 222.507607 
L 1171.094833 220.470365 
L 1174.383167 217.94324 
L 1178.000333 214.889284 
L 1182.275167 210.987647 
L 1188.194167 205.248699 
L 1200.032167 193.695813 
L 1204.307 189.85949 
L 1207.924167 186.878738 
L 1211.2125 184.431202 
L 1214.172 182.475141 
L 1217.1315 180.778825 
L 1219.762167 179.506645 
L 1222.392833 178.469717 
L 1225.0235 177.678512 
L 1227.654167 177.141017 
L 1229.956 176.883164 
L 1232.257833 176.825746 
L 1234.559667 176.96921 
L 1236.8615 177.312445 
L 1239.492167 177.945856 
L 1242.122833 178.830279 
L 1244.7535 179.956784 
L 1247.384167 181.313994 
L 1250.343667 183.09947 
L 1253.303167 185.136713 
L 1256.5915 187.663837 
L 1260.208667 190.717794 
L 1264.4835 194.61943 
L 1270.4025 200.358378 
L 1282.2405 211.911264 
L 1285.2 214.599305 
L 1285.2 214.599305 
" style="fill:none;stroke:#2ca02c;stroke-linecap:square;stroke-width:1.5;"/>
   </g>
   <g id="line2d_66">
    <path clip-path="url(#p256278a4a6)" d="M 890.6 280.750763 
L 1285.2 280.750763 
" style="fill:none;stroke:#cccccc;stroke-linecap:square;"/>
   </g>
   <g id="line2d_67">
    <path clip-path="url(#p256278a4a6)" d="M 890.271167 283.087634 
L 895.861333 282.610938 
L 902.438 281.812531 
L 914.604833 280.041568 
L 922.496833 279.020303 
L 928.415833 278.473907 
L 933.677167 278.204863 
L 938.9385 278.16564 
L 944.199833 278.359779 
L 949.79 278.801793 
L 956.037833 279.52776 
L 965.574 280.897611 
L 975.767833 282.304264 
L 982.015667 282.935739 
L 987.277 283.254749 
L 992.538333 283.347721 
L 997.799667 283.206264 
L 1003.061 282.843146 
L 1008.98 282.211191 
L 1016.872 281.124937 
L 1031.011833 279.145414 
L 1036.930833 278.556995 
L 1042.192167 278.242469 
L 1047.4535 278.154368 
L 1052.714833 278.300646 
L 1057.976167 278.668099 
L 1063.895167 279.303866 
L 1071.787167 280.39275 
L 1085.927 282.368915 
L 1091.846 282.953234 
L 1097.107333 283.263265 
L 1102.368667 283.346491 
L 1107.63 283.195397 
L 1112.891333 282.823625 
L 1118.810333 282.184071 
L 1126.702333 281.092598 
L 1140.513333 279.158282 
L 1146.761167 278.539674 
L 1152.0225 278.23415 
L 1157.283833 278.155803 
L 1162.545167 278.311706 
L 1167.8065 278.687784 
L 1173.7255 279.331098 
L 1181.946333 280.473761 
L 1195.099667 282.317319 
L 1201.3475 282.94453 
L 1206.608833 283.259057 
L 1211.870167 283.347157 
L 1217.1315 283.200879 
L 1222.392833 282.833427 
L 1228.311833 282.197659 
L 1236.203833 281.108775 
L 1250.343667 279.13261 
L 1256.262667 278.548291 
L 1261.524 278.23826 
L 1266.785333 278.155034 
L 1272.046667 278.306128 
L 1277.308 278.6779 
L 1283.227 279.317454 
L 1285.2 279.571186 
L 1285.2 279.571186 
" style="fill:none;stroke:#d62728;stroke-linecap:square;stroke-width:1.5;"/>
   </g>
   <g id="line2d_68">
    <path clip-path="url(#p256278a4a6)" d="M 890.6 358.697986 
L 1285.2 358.697986 
" style="fill:none;stroke:#cccccc;stroke-linecap:square;"/>
   </g>
   <g id="line2d_69">
    <path clip-path="url(#p256278a4a6)" d="M 890.271167 348.638794 
L 892.244167 349.145447 
L 894.217167 349.868909 
L 896.519 350.964807 
L 898.820833 352.299439 
L 901.780333 354.299156 
L 905.3975 357.036347 
L 913.947167 363.615582 
L 916.906667 365.543722 
L 919.2085 366.806702 
L 921.510333 367.819356 
L 923.483333 368.464177 
L 925.456333 368.88734 
L 927.429333 369.079241 
L 929.402333 369.035523 
L 931.375333 368.757179 
L 933.348333 368.250526 
L 935.321333 367.527064 
L 937.623167 366.431166 
L 939.925 365.096533 
L 942.8845 363.096817 
L 946.501667 360.359626 
L 955.051333 353.78039 
L 958.010833 351.852251 
L 960.312667 350.589271 
L 962.6145 349.576617 
L 964.5875 348.931796 
L 966.5605 348.508633 
L 968.5335 348.316732 
L 970.5065 348.36045 
L 972.4795 348.638794 
L 974.4525 349.145447 
L 976.4255 349.868909 
L 978.727333 350.964807 
L 981.029167 352.299439 
L 983.988667 354.299156 
L 987.605833 357.036347 
L 996.1555 363.615582 
L 999.115 365.543722 
L 1001.416833 366.806702 
L 1003.718667 367.819356 
L 1005.691667 368.464177 
L 1007.664667 368.88734 
L 1009.637667 369.079241 
L 1011.610667 369.035523 
L 1013.583667 368.757179 
L 1015.556667 368.250526 
L 1017.529667 367.527064 
L 1019.8315 366.431166 
L 1022.133333 365.096533 
L 1025.092833 363.096817 
L 1028.71 360.359626 
L 1037.259667 353.78039 
L 1040.219167 351.852251 
L 1042.521 350.589271 
L 1044.822833 349.576617 
L 1046.795833 348.931796 
L 1048.768833 348.508633 
L 1050.741833 348.316732 
L 1052.714833 348.36045 
L 1054.687833 348.638794 
L 1056.660833 349.145447 
L 1058.633833 349.868909 
L 1060.935667 350.964807 
L 1063.2375 352.299439 
L 1066.197 354.299156 
L 1069.814167 357.036347 
L 1078.363833 363.615582 
L 1081.323333 365.543722 
L 1083.625167 366.806702 
L 1085.927 367.819356 
L 1087.9 368.464177 
L 1089.873 368.88734 
L 1091.846 369.079241 
L 1093.819 369.035523 
L 1095.792 368.757179 
L 1097.765 368.250526 
L 1099.738 367.527064 
L 1102.039833 366.431166 
L 1104.341667 365.096533 
L 1107.301167 363.096817 
L 1110.918333 360.359626 
L 1119.468 353.78039 
L 1122.4275 351.852251 
L 1124.729333 350.589271 
L 1127.031167 349.576617 
L 1129.004167 348.931796 
L 1130.977167 348.508633 
L 1132.950167 348.316732 
L 1134.923167 348.36045 
L 1136.896167 348.638794 
L 1138.869167 349.145447 
L 1140.842167 349.868909 
L 1143.144 350.964807 
L 1145.445833 352.299439 
L 1148.405333 354.299156 
L 1152.0225 357.036347 
L 1160.572167 363.615582 
L 1163.531667 365.543722 
L 1165.8335 366.806702 
L 1168.135333 367.819356 
L 1170.108333 368.464177 
L 1172.081333 368.88734 
L 1174.054333 369.079241 
L 1176.027333 369.035523 
L 1178.000333 368.757179 
L 1179.973333 368.250526 
L 1181.946333 367.527064 
L 1184.248167 366.431166 
L 1186.55 365.096533 
L 1189.5095 363.096817 
L 1193.126667 360.359626 
L 1201.676333 353.78039 
L 1204.635833 351.852251 
L 1206.937667 350.589271 
L 1209.2395 349.576617 
L 1211.2125 348.931796 
L 1213.1855 348.508633 
L 1215.1585 348.316732 
L 1217.1315 348.36045 
L 1219.1045 348.638794 
L 1221.0775 349.145447 
L 1223.0505 349.868909 
L 1225.352333 350.964807 
L 1227.654167 352.299439 
L 1230.613667 354.299156 
L 1234.230833 357.036347 
L 1242.7805 363.615582 
L 1245.74 365.543722 
L 1248.041833 366.806702 
L 1250.343667 367.819356 
L 1252.316667 368.464177 
L 1254.289667 368.88734 
L 1256.262667 369.079241 
L 1258.235667 369.035523 
L 1260.208667 368.757179 
L 1262.181667 368.250526 
L 1264.154667 367.527064 
L 1266.4565 366.431166 
L 1268.758333 365.096533 
L 1271.717833 363.096817 
L 1275.335 360.359626 
L 1283.884667 353.78039 
L 1285.2 352.886315 
L 1285.2 352.886315 
" style="fill:none;stroke:#9467bd;stroke-linecap:square;stroke-width:1.5;"/>
   </g>
   <g id="line2d_70">
    <path clip-path="url(#p256278a4a6)" d="M 923.483333 385.2 
L 923.483333 30.8 
" style="fill:none;stroke:#000000;stroke-dasharray:3.7,1.6;stroke-dashoffset:0;stroke-opacity:0.5;"/>
   </g>
   <g id="line2d_71">
    <path clip-path="url(#p256278a4a6)" d="M 1252.316667 385.2 
L 1252.316667 30.8 
" style="fill:none;stroke:#000000;stroke-dasharray:3.7,1.6;stroke-dashoffset:0;stroke-opacity:0.5;"/>
   </g>
  </g>
 </g>
 <defs>
  <clipPath id="pcdec674825">
   <rect height="354.4" width="394.6" x="10.8" y="30.8"/>
  </clipPath>
  <clipPath id="pe809c83dd9">
   <rect height="113.68" width="394.6" x="450.7" y="30.8"/>
  </clipPath>
  <clipPath id="peb9392dbc7">
   <rect height="113.68" width="394.6" x="450.7" y="271.52"/>
  </clipPath>
  <clipPath id="p256278a4a6">
   <rect height="354.4" width="394.6" x="890.6" y="30.8"/>
  </clipPath>
 </defs>
</svg>
