<?xml version="1.0" encoding="utf-8" standalone="no"?>
<!DOCTYPE svg PUBLIC "-//W3C//DTD SVG 1.1//EN"
  "http://www.w3.org/Graphics/SVG/1.1/DTD/svg11.dtd">
<!-- Created with matplotlib (https://matplotlib.org/) -->
<svg height="360pt" version="1.1" viewBox="0 0 720 360" width="720pt" xmlns="http://www.w3.org/2000/svg" xmlns:xlink="http://www.w3.org/1999/xlink">
 <metadata>
  <rdf:RDF xmlns:cc="http://creativecommons.org/ns#" xmlns:dc="http://purl.org/dc/elements/1.1/" xmlns:rdf="http://www.w3.org/1999/02/22-rdf-syntax-ns#">
   <cc:Work>
    <dc:type rdf:resource="http://purl.org/dc/dcmitype/StillImage"/>
    <dc:date>2021-09-23T13:00:21.261325</dc:date>
    <dc:format>image/svg+xml</dc:format>
    <dc:creator>
     <cc:Agent>
      <dc:title>Matplotlib v3.3.4, https://matplotlib.org/</dc:title>
     </cc:Agent>
    </dc:creator>
   </cc:Work>
  </rdf:RDF>
 </metadata>
 <defs>
  <style type="text/css">*{stroke-linecap:butt;stroke-linejoin:round;}</style>
 </defs>
 <g id="figure_1">
  <g id="patch_1">
   <path d="M 0 360 
L 720 360 
L 720 0 
L 0 0 
z
" style="fill:none;"/>
  </g>
  <g id="axes_1">
   <g id="patch_2">
    <path d="M 53.3 305.2 
L 709.2 305.2 
L 709.2 31.8 
L 53.3 31.8 
z
" style="fill:#ffffff;"/>
   </g>
   <g id="matplotlib.axis_1">
    <g id="xtick_1">
     <g id="line2d_1">
      <path clip-path="url(#p1f92fe3e8e)" d="M 142.740909 305.2 
L 142.740909 31.8 
" style="fill:none;stroke:#cccccc;stroke-linecap:square;stroke-width:0.5;"/>
     </g>
     <g id="line2d_2">
      <defs>
       <path d="M 0 0 
L 0 3.5 
" id="m5e99b6cbce" style="stroke:#000000;stroke-width:0.8;"/>
      </defs>
      <g>
       <use style="stroke:#000000;stroke-width:0.8;" x="142.740909" xlink:href="#m5e99b6cbce" y="305.2"/>
      </g>
     </g>
     <g id="text_1">
      <!-- −4 -->
      <g transform="translate(130.947159 324.3575)scale(0.16 -0.16)">
       <defs>
        <path d="M 10.59375 35.5 
L 73.1875 35.5 
L 73.1875 27.203125 
L 10.59375 27.203125 
z
" id="DejaVuSans-8722"/>
        <path d="M 37.796875 64.3125 
L 12.890625 25.390625 
L 37.796875 25.390625 
z
M 35.203125 72.90625 
L 47.609375 72.90625 
L 47.609375 25.390625 
L 58.015625 25.390625 
L 58.015625 17.1875 
L 47.609375 17.1875 
L 47.609375 0 
L 37.796875 0 
L 37.796875 17.1875 
L 4.890625 17.1875 
L 4.890625 26.703125 
z
" id="DejaVuSans-52"/>
       </defs>
       <use xlink:href="#DejaVuSans-8722"/>
       <use x="83.789062" xlink:href="#DejaVuSans-52"/>
      </g>
     </g>
    </g>
    <g id="xtick_2">
     <g id="line2d_3">
      <path clip-path="url(#p1f92fe3e8e)" d="M 261.995455 305.2 
L 261.995455 31.8 
" style="fill:none;stroke:#cccccc;stroke-linecap:square;stroke-width:0.5;"/>
     </g>
     <g id="line2d_4">
      <g>
       <use style="stroke:#000000;stroke-width:0.8;" x="261.995455" xlink:href="#m5e99b6cbce" y="305.2"/>
      </g>
     </g>
     <g id="text_2">
      <!-- −2 -->
      <g transform="translate(250.201705 324.3575)scale(0.16 -0.16)">
       <defs>
        <path d="M 19.1875 8.296875 
L 53.609375 8.296875 
L 53.609375 0 
L 7.328125 0 
L 7.328125 8.296875 
Q 12.9375 14.109375 22.625 23.890625 
Q 32.328125 33.6875 34.8125 36.53125 
Q 39.546875 41.84375 41.421875 45.53125 
Q 43.3125 49.21875 43.3125 52.78125 
Q 43.3125 58.59375 39.234375 62.25 
Q 35.15625 65.921875 28.609375 65.921875 
Q 23.96875 65.921875 18.8125 64.3125 
Q 13.671875 62.703125 7.8125 59.421875 
L 7.8125 69.390625 
Q 13.765625 71.78125 18.9375 73 
Q 24.125 74.21875 28.421875 74.21875 
Q 39.75 74.21875 46.484375 68.546875 
Q 53.21875 62.890625 53.21875 53.421875 
Q 53.21875 48.921875 51.53125 44.890625 
Q 49.859375 40.875 45.40625 35.40625 
Q 44.1875 33.984375 37.640625 27.21875 
Q 31.109375 20.453125 19.1875 8.296875 
z
" id="DejaVuSans-50"/>
       </defs>
       <use xlink:href="#DejaVuSans-8722"/>
       <use x="83.789062" xlink:href="#DejaVuSans-50"/>
      </g>
     </g>
    </g>
    <g id="xtick_3">
     <g id="line2d_5">
      <path clip-path="url(#p1f92fe3e8e)" d="M 381.25 305.2 
L 381.25 31.8 
" style="fill:none;stroke:#cccccc;stroke-linecap:square;stroke-width:0.5;"/>
     </g>
     <g id="line2d_6">
      <g>
       <use style="stroke:#000000;stroke-width:0.8;" x="381.25" xlink:href="#m5e99b6cbce" y="305.2"/>
      </g>
     </g>
     <g id="text_3">
      <!-- 0 -->
      <g transform="translate(376.16 324.3575)scale(0.16 -0.16)">
       <defs>
        <path d="M 31.78125 66.40625 
Q 24.171875 66.40625 20.328125 58.90625 
Q 16.5 51.421875 16.5 36.375 
Q 16.5 21.390625 20.328125 13.890625 
Q 24.171875 6.390625 31.78125 6.390625 
Q 39.453125 6.390625 43.28125 13.890625 
Q 47.125 21.390625 47.125 36.375 
Q 47.125 51.421875 43.28125 58.90625 
Q 39.453125 66.40625 31.78125 66.40625 
z
M 31.78125 74.21875 
Q 44.046875 74.21875 50.515625 64.515625 
Q 56.984375 54.828125 56.984375 36.375 
Q 56.984375 17.96875 50.515625 8.265625 
Q 44.046875 -1.421875 31.78125 -1.421875 
Q 19.53125 -1.421875 13.0625 8.265625 
Q 6.59375 17.96875 6.59375 36.375 
Q 6.59375 54.828125 13.0625 64.515625 
Q 19.53125 74.21875 31.78125 74.21875 
z
" id="DejaVuSans-48"/>
       </defs>
       <use xlink:href="#DejaVuSans-48"/>
      </g>
     </g>
    </g>
    <g id="xtick_4">
     <g id="line2d_7">
      <path clip-path="url(#p1f92fe3e8e)" d="M 500.504545 305.2 
L 500.504545 31.8 
" style="fill:none;stroke:#cccccc;stroke-linecap:square;stroke-width:0.5;"/>
     </g>
     <g id="line2d_8">
      <g>
       <use style="stroke:#000000;stroke-width:0.8;" x="500.504545" xlink:href="#m5e99b6cbce" y="305.2"/>
      </g>
     </g>
     <g id="text_4">
      <!-- 2 -->
      <g transform="translate(495.414545 324.3575)scale(0.16 -0.16)">
       <use xlink:href="#DejaVuSans-50"/>
      </g>
     </g>
    </g>
    <g id="xtick_5">
     <g id="line2d_9">
      <path clip-path="url(#p1f92fe3e8e)" d="M 619.759091 305.2 
L 619.759091 31.8 
" style="fill:none;stroke:#cccccc;stroke-linecap:square;stroke-width:0.5;"/>
     </g>
     <g id="line2d_10">
      <g>
       <use style="stroke:#000000;stroke-width:0.8;" x="619.759091" xlink:href="#m5e99b6cbce" y="305.2"/>
      </g>
     </g>
     <g id="text_5">
      <!-- 4 -->
      <g transform="translate(614.669091 324.3575)scale(0.16 -0.16)">
       <use xlink:href="#DejaVuSans-52"/>
      </g>
     </g>
    </g>
    <g id="text_6">
     <!-- Frequency (Hz) -->
     <g transform="translate(313.381563 345.362188)scale(0.18 -0.18)">
      <defs>
       <path d="M 9.8125 72.90625 
L 51.703125 72.90625 
L 51.703125 64.59375 
L 19.671875 64.59375 
L 19.671875 43.109375 
L 48.578125 43.109375 
L 48.578125 34.8125 
L 19.671875 34.8125 
L 19.671875 0 
L 9.8125 0 
z
" id="DejaVuSans-70"/>
       <path d="M 41.109375 46.296875 
Q 39.59375 47.171875 37.8125 47.578125 
Q 36.03125 48 33.890625 48 
Q 26.265625 48 22.1875 43.046875 
Q 18.109375 38.09375 18.109375 28.8125 
L 18.109375 0 
L 9.078125 0 
L 9.078125 54.6875 
L 18.109375 54.6875 
L 18.109375 46.1875 
Q 20.953125 51.171875 25.484375 53.578125 
Q 30.03125 56 36.53125 56 
Q 37.453125 56 38.578125 55.875 
Q 39.703125 55.765625 41.0625 55.515625 
z
" id="DejaVuSans-114"/>
       <path d="M 56.203125 29.59375 
L 56.203125 25.203125 
L 14.890625 25.203125 
Q 15.484375 15.921875 20.484375 11.0625 
Q 25.484375 6.203125 34.421875 6.203125 
Q 39.59375 6.203125 44.453125 7.46875 
Q 49.3125 8.734375 54.109375 11.28125 
L 54.109375 2.78125 
Q 49.265625 0.734375 44.1875 -0.34375 
Q 39.109375 -1.421875 33.890625 -1.421875 
Q 20.796875 -1.421875 13.15625 6.1875 
Q 5.515625 13.8125 5.515625 26.8125 
Q 5.515625 40.234375 12.765625 48.109375 
Q 20.015625 56 32.328125 56 
Q 43.359375 56 49.78125 48.890625 
Q 56.203125 41.796875 56.203125 29.59375 
z
M 47.21875 32.234375 
Q 47.125 39.59375 43.09375 43.984375 
Q 39.0625 48.390625 32.421875 48.390625 
Q 24.90625 48.390625 20.390625 44.140625 
Q 15.875 39.890625 15.1875 32.171875 
z
" id="DejaVuSans-101"/>
       <path d="M 14.796875 27.296875 
Q 14.796875 17.390625 18.875 11.75 
Q 22.953125 6.109375 30.078125 6.109375 
Q 37.203125 6.109375 41.296875 11.75 
Q 45.40625 17.390625 45.40625 27.296875 
Q 45.40625 37.203125 41.296875 42.84375 
Q 37.203125 48.484375 30.078125 48.484375 
Q 22.953125 48.484375 18.875 42.84375 
Q 14.796875 37.203125 14.796875 27.296875 
z
M 45.40625 8.203125 
Q 42.578125 3.328125 38.25 0.953125 
Q 33.9375 -1.421875 27.875 -1.421875 
Q 17.96875 -1.421875 11.734375 6.484375 
Q 5.515625 14.40625 5.515625 27.296875 
Q 5.515625 40.1875 11.734375 48.09375 
Q 17.96875 56 27.875 56 
Q 33.9375 56 38.25 53.625 
Q 42.578125 51.265625 45.40625 46.390625 
L 45.40625 54.6875 
L 54.390625 54.6875 
L 54.390625 -20.796875 
L 45.40625 -20.796875 
z
" id="DejaVuSans-113"/>
       <path d="M 8.5 21.578125 
L 8.5 54.6875 
L 17.484375 54.6875 
L 17.484375 21.921875 
Q 17.484375 14.15625 20.5 10.265625 
Q 23.53125 6.390625 29.59375 6.390625 
Q 36.859375 6.390625 41.078125 11.03125 
Q 45.3125 15.671875 45.3125 23.6875 
L 45.3125 54.6875 
L 54.296875 54.6875 
L 54.296875 0 
L 45.3125 0 
L 45.3125 8.40625 
Q 42.046875 3.421875 37.71875 1 
Q 33.40625 -1.421875 27.6875 -1.421875 
Q 18.265625 -1.421875 13.375 4.4375 
Q 8.5 10.296875 8.5 21.578125 
z
M 31.109375 56 
z
" id="DejaVuSans-117"/>
       <path d="M 54.890625 33.015625 
L 54.890625 0 
L 45.90625 0 
L 45.90625 32.71875 
Q 45.90625 40.484375 42.875 44.328125 
Q 39.84375 48.1875 33.796875 48.1875 
Q 26.515625 48.1875 22.3125 43.546875 
Q 18.109375 38.921875 18.109375 30.90625 
L 18.109375 0 
L 9.078125 0 
L 9.078125 54.6875 
L 18.109375 54.6875 
L 18.109375 46.1875 
Q 21.34375 51.125 25.703125 53.5625 
Q 30.078125 56 35.796875 56 
Q 45.21875 56 50.046875 50.171875 
Q 54.890625 44.34375 54.890625 33.015625 
z
" id="DejaVuSans-110"/>
       <path d="M 48.78125 52.59375 
L 48.78125 44.1875 
Q 44.96875 46.296875 41.140625 47.34375 
Q 37.3125 48.390625 33.40625 48.390625 
Q 24.65625 48.390625 19.8125 42.84375 
Q 14.984375 37.3125 14.984375 27.296875 
Q 14.984375 17.28125 19.8125 11.734375 
Q 24.65625 6.203125 33.40625 6.203125 
Q 37.3125 6.203125 41.140625 7.25 
Q 44.96875 8.296875 48.78125 10.40625 
L 48.78125 2.09375 
Q 45.015625 0.34375 40.984375 -0.53125 
Q 36.96875 -1.421875 32.421875 -1.421875 
Q 20.0625 -1.421875 12.78125 6.34375 
Q 5.515625 14.109375 5.515625 27.296875 
Q 5.515625 40.671875 12.859375 48.328125 
Q 20.21875 56 33.015625 56 
Q 37.15625 56 41.109375 55.140625 
Q 45.0625 54.296875 48.78125 52.59375 
z
" id="DejaVuSans-99"/>
       <path d="M 32.171875 -5.078125 
Q 28.375 -14.84375 24.75 -17.8125 
Q 21.140625 -20.796875 15.09375 -20.796875 
L 7.90625 -20.796875 
L 7.90625 -13.28125 
L 13.1875 -13.28125 
Q 16.890625 -13.28125 18.9375 -11.515625 
Q 21 -9.765625 23.484375 -3.21875 
L 25.09375 0.875 
L 2.984375 54.6875 
L 12.5 54.6875 
L 29.59375 11.921875 
L 46.6875 54.6875 
L 56.203125 54.6875 
z
" id="DejaVuSans-121"/>
       <path id="DejaVuSans-32"/>
       <path d="M 31 75.875 
Q 24.46875 64.65625 21.28125 53.65625 
Q 18.109375 42.671875 18.109375 31.390625 
Q 18.109375 20.125 21.3125 9.0625 
Q 24.515625 -2 31 -13.1875 
L 23.1875 -13.1875 
Q 15.875 -1.703125 12.234375 9.375 
Q 8.59375 20.453125 8.59375 31.390625 
Q 8.59375 42.28125 12.203125 53.3125 
Q 15.828125 64.359375 23.1875 75.875 
z
" id="DejaVuSans-40"/>
       <path d="M 9.8125 72.90625 
L 19.671875 72.90625 
L 19.671875 43.015625 
L 55.515625 43.015625 
L 55.515625 72.90625 
L 65.375 72.90625 
L 65.375 0 
L 55.515625 0 
L 55.515625 34.71875 
L 19.671875 34.71875 
L 19.671875 0 
L 9.8125 0 
z
" id="DejaVuSans-72"/>
       <path d="M 5.515625 54.6875 
L 48.1875 54.6875 
L 48.1875 46.484375 
L 14.40625 7.171875 
L 48.1875 7.171875 
L 48.1875 0 
L 4.296875 0 
L 4.296875 8.203125 
L 38.09375 47.515625 
L 5.515625 47.515625 
z
" id="DejaVuSans-122"/>
       <path d="M 8.015625 75.875 
L 15.828125 75.875 
Q 23.140625 64.359375 26.78125 53.3125 
Q 30.421875 42.28125 30.421875 31.390625 
Q 30.421875 20.453125 26.78125 9.375 
Q 23.140625 -1.703125 15.828125 -13.1875 
L 8.015625 -13.1875 
Q 14.5 -2 17.703125 9.0625 
Q 20.90625 20.125 20.90625 31.390625 
Q 20.90625 42.671875 17.703125 53.65625 
Q 14.5 64.65625 8.015625 75.875 
z
" id="DejaVuSans-41"/>
      </defs>
      <use xlink:href="#DejaVuSans-70"/>
      <use x="50.269531" xlink:href="#DejaVuSans-114"/>
      <use x="89.132812" xlink:href="#DejaVuSans-101"/>
      <use x="150.65625" xlink:href="#DejaVuSans-113"/>
      <use x="214.132812" xlink:href="#DejaVuSans-117"/>
      <use x="277.511719" xlink:href="#DejaVuSans-101"/>
      <use x="339.035156" xlink:href="#DejaVuSans-110"/>
      <use x="402.414062" xlink:href="#DejaVuSans-99"/>
      <use x="457.394531" xlink:href="#DejaVuSans-121"/>
      <use x="516.574219" xlink:href="#DejaVuSans-32"/>
      <use x="548.361328" xlink:href="#DejaVuSans-40"/>
      <use x="587.375" xlink:href="#DejaVuSans-72"/>
      <use x="662.570312" xlink:href="#DejaVuSans-122"/>
      <use x="715.060547" xlink:href="#DejaVuSans-41"/>
     </g>
    </g>
   </g>
   <g id="matplotlib.axis_2">
    <g id="ytick_1">
     <g id="line2d_11">
      <path clip-path="url(#p1f92fe3e8e)" d="M 53.3 292.772727 
L 709.2 292.772727 
" style="fill:none;stroke:#cccccc;stroke-linecap:square;stroke-width:0.5;"/>
     </g>
     <g id="line2d_12">
      <defs>
       <path d="M 0 0 
L -3.5 0 
" id="m875dcaf1d1" style="stroke:#000000;stroke-width:0.8;"/>
      </defs>
      <g>
       <use style="stroke:#000000;stroke-width:0.8;" x="53.3" xlink:href="#m875dcaf1d1" y="292.772727"/>
      </g>
     </g>
     <g id="text_7">
      <!-- 0.00 -->
      <g transform="translate(10.675 298.851477)scale(0.16 -0.16)">
       <defs>
        <path d="M 10.6875 12.40625 
L 21 12.40625 
L 21 0 
L 10.6875 0 
z
" id="DejaVuSans-46"/>
       </defs>
       <use xlink:href="#DejaVuSans-48"/>
       <use x="63.623047" xlink:href="#DejaVuSans-46"/>
       <use x="95.410156" xlink:href="#DejaVuSans-48"/>
       <use x="159.033203" xlink:href="#DejaVuSans-48"/>
      </g>
     </g>
    </g>
    <g id="ytick_2">
     <g id="line2d_13">
      <path clip-path="url(#p1f92fe3e8e)" d="M 53.3 243.063636 
L 709.2 243.063636 
" style="fill:none;stroke:#cccccc;stroke-linecap:square;stroke-width:0.5;"/>
     </g>
     <g id="line2d_14">
      <g>
       <use style="stroke:#000000;stroke-width:0.8;" x="53.3" xlink:href="#m875dcaf1d1" y="243.063636"/>
      </g>
     </g>
     <g id="text_8">
      <!-- 0.05 -->
      <g transform="translate(10.675 249.142386)scale(0.16 -0.16)">
       <defs>
        <path d="M 10.796875 72.90625 
L 49.515625 72.90625 
L 49.515625 64.59375 
L 19.828125 64.59375 
L 19.828125 46.734375 
Q 21.96875 47.46875 24.109375 47.828125 
Q 26.265625 48.1875 28.421875 48.1875 
Q 40.625 48.1875 47.75 41.5 
Q 54.890625 34.8125 54.890625 23.390625 
Q 54.890625 11.625 47.5625 5.09375 
Q 40.234375 -1.421875 26.90625 -1.421875 
Q 22.3125 -1.421875 17.546875 -0.640625 
Q 12.796875 0.140625 7.71875 1.703125 
L 7.71875 11.625 
Q 12.109375 9.234375 16.796875 8.0625 
Q 21.484375 6.890625 26.703125 6.890625 
Q 35.15625 6.890625 40.078125 11.328125 
Q 45.015625 15.765625 45.015625 23.390625 
Q 45.015625 31 40.078125 35.4375 
Q 35.15625 39.890625 26.703125 39.890625 
Q 22.75 39.890625 18.8125 39.015625 
Q 14.890625 38.140625 10.796875 36.28125 
z
" id="DejaVuSans-53"/>
       </defs>
       <use xlink:href="#DejaVuSans-48"/>
       <use x="63.623047" xlink:href="#DejaVuSans-46"/>
       <use x="95.410156" xlink:href="#DejaVuSans-48"/>
       <use x="159.033203" xlink:href="#DejaVuSans-53"/>
      </g>
     </g>
    </g>
    <g id="ytick_3">
     <g id="line2d_15">
      <path clip-path="url(#p1f92fe3e8e)" d="M 53.3 193.354545 
L 709.2 193.354545 
" style="fill:none;stroke:#cccccc;stroke-linecap:square;stroke-width:0.5;"/>
     </g>
     <g id="line2d_16">
      <g>
       <use style="stroke:#000000;stroke-width:0.8;" x="53.3" xlink:href="#m875dcaf1d1" y="193.354545"/>
      </g>
     </g>
     <g id="text_9">
      <!-- 0.10 -->
      <g transform="translate(10.675 199.433295)scale(0.16 -0.16)">
       <defs>
        <path d="M 12.40625 8.296875 
L 28.515625 8.296875 
L 28.515625 63.921875 
L 10.984375 60.40625 
L 10.984375 69.390625 
L 28.421875 72.90625 
L 38.28125 72.90625 
L 38.28125 8.296875 
L 54.390625 8.296875 
L 54.390625 0 
L 12.40625 0 
z
" id="DejaVuSans-49"/>
       </defs>
       <use xlink:href="#DejaVuSans-48"/>
       <use x="63.623047" xlink:href="#DejaVuSans-46"/>
       <use x="95.410156" xlink:href="#DejaVuSans-49"/>
       <use x="159.033203" xlink:href="#DejaVuSans-48"/>
      </g>
     </g>
    </g>
    <g id="ytick_4">
     <g id="line2d_17">
      <path clip-path="url(#p1f92fe3e8e)" d="M 53.3 143.645455 
L 709.2 143.645455 
" style="fill:none;stroke:#cccccc;stroke-linecap:square;stroke-width:0.5;"/>
     </g>
     <g id="line2d_18">
      <g>
       <use style="stroke:#000000;stroke-width:0.8;" x="53.3" xlink:href="#m875dcaf1d1" y="143.645455"/>
      </g>
     </g>
     <g id="text_10">
      <!-- 0.15 -->
      <g transform="translate(10.675 149.724205)scale(0.16 -0.16)">
       <use xlink:href="#DejaVuSans-48"/>
       <use x="63.623047" xlink:href="#DejaVuSans-46"/>
       <use x="95.410156" xlink:href="#DejaVuSans-49"/>
       <use x="159.033203" xlink:href="#DejaVuSans-53"/>
      </g>
     </g>
    </g>
    <g id="ytick_5">
     <g id="line2d_19">
      <path clip-path="url(#p1f92fe3e8e)" d="M 53.3 93.936364 
L 709.2 93.936364 
" style="fill:none;stroke:#cccccc;stroke-linecap:square;stroke-width:0.5;"/>
     </g>
     <g id="line2d_20">
      <g>
       <use style="stroke:#000000;stroke-width:0.8;" x="53.3" xlink:href="#m875dcaf1d1" y="93.936364"/>
      </g>
     </g>
     <g id="text_11">
      <!-- 0.20 -->
      <g transform="translate(10.675 100.015114)scale(0.16 -0.16)">
       <use xlink:href="#DejaVuSans-48"/>
       <use x="63.623047" xlink:href="#DejaVuSans-46"/>
       <use x="95.410156" xlink:href="#DejaVuSans-50"/>
       <use x="159.033203" xlink:href="#DejaVuSans-48"/>
      </g>
     </g>
    </g>
    <g id="ytick_6">
     <g id="line2d_21">
      <path clip-path="url(#p1f92fe3e8e)" d="M 53.3 44.227273 
L 709.2 44.227273 
" style="fill:none;stroke:#cccccc;stroke-linecap:square;stroke-width:0.5;"/>
     </g>
     <g id="line2d_22">
      <g>
       <use style="stroke:#000000;stroke-width:0.8;" x="53.3" xlink:href="#m875dcaf1d1" y="44.227273"/>
      </g>
     </g>
     <g id="text_12">
      <!-- 0.25 -->
      <g transform="translate(10.675 50.306023)scale(0.16 -0.16)">
       <use xlink:href="#DejaVuSans-48"/>
       <use x="63.623047" xlink:href="#DejaVuSans-46"/>
       <use x="95.410156" xlink:href="#DejaVuSans-50"/>
       <use x="159.033203" xlink:href="#DejaVuSans-53"/>
      </g>
     </g>
    </g>
   </g>
   <g id="LineCollection_1">
    <path clip-path="url(#p1f92fe3e8e)" style="fill:none;stroke:#000000;"/>
    <path clip-path="url(#p1f92fe3e8e)" style="fill:none;stroke:#000000;"/>
    <path clip-path="url(#p1f92fe3e8e)" style="fill:none;stroke:#000000;"/>
    <path clip-path="url(#p1f92fe3e8e)" style="fill:none;stroke:#000000;"/>
    <path clip-path="url(#p1f92fe3e8e)" d="M 23.486364 292.772727 
L 23.486364 292.772727 
" style="fill:none;stroke:#000000;"/>
    <path clip-path="url(#p1f92fe3e8e)" d="M 83.113636 292.772727 
L 83.113636 288.74346 
" style="fill:none;stroke:#000000;"/>
    <path clip-path="url(#p1f92fe3e8e)" d="M 142.740909 292.772727 
L 142.740909 292.772727 
" style="fill:none;stroke:#000000;"/>
    <path clip-path="url(#p1f92fe3e8e)" d="M 202.368182 292.772727 
L 202.368182 281.580319 
" style="fill:none;stroke:#000000;"/>
    <path clip-path="url(#p1f92fe3e8e)" d="M 261.995455 292.772727 
L 261.995455 292.772727 
" style="fill:none;stroke:#000000;"/>
    <path clip-path="url(#p1f92fe3e8e)" d="M 321.622727 292.772727 
L 321.622727 192.041049 
" style="fill:none;stroke:#000000;"/>
    <path clip-path="url(#p1f92fe3e8e)" d="M 381.25 292.772727 
L 381.25 44.227273 
" style="fill:none;stroke:#000000;"/>
    <path clip-path="url(#p1f92fe3e8e)" d="M 440.877273 292.772727 
L 440.877273 192.041049 
" style="fill:none;stroke:#000000;"/>
    <path clip-path="url(#p1f92fe3e8e)" d="M 500.504545 292.772727 
L 500.504545 292.772727 
" style="fill:none;stroke:#000000;"/>
    <path clip-path="url(#p1f92fe3e8e)" d="M 560.131818 292.772727 
L 560.131818 281.580319 
" style="fill:none;stroke:#000000;"/>
    <path clip-path="url(#p1f92fe3e8e)" d="M 619.759091 292.772727 
L 619.759091 292.772727 
" style="fill:none;stroke:#000000;"/>
    <path clip-path="url(#p1f92fe3e8e)" d="M 679.386364 292.772727 
L 679.386364 288.74346 
" style="fill:none;stroke:#000000;"/>
    <path clip-path="url(#p1f92fe3e8e)" style="fill:none;stroke:#000000;"/>
    <path clip-path="url(#p1f92fe3e8e)" style="fill:none;stroke:#000000;"/>
    <path clip-path="url(#p1f92fe3e8e)" style="fill:none;stroke:#000000;"/>
    <path clip-path="url(#p1f92fe3e8e)" style="fill:none;stroke:#000000;"/>
    <path clip-path="url(#p1f92fe3e8e)" style="fill:none;stroke:#000000;"/>
   </g>
   <g id="line2d_23">
    <path clip-path="url(#p1f92fe3e8e)" d="M 53.3 291.107741 
L 73.573273 289.223445 
L 80.728545 288.822798 
L 87.287545 288.678133 
L 93.250273 288.755485 
L 99.809273 289.070925 
L 106.964545 289.656955 
L 116.504909 290.696586 
L 129.622909 292.123691 
L 136.181909 292.596456 
L 141.548364 292.766577 
L 146.318545 292.715259 
L 151.088727 292.45101 
L 155.858909 291.963799 
L 160.629091 291.256179 
L 165.995545 290.217113 
L 171.958273 288.813035 
L 180.306091 286.576624 
L 190.442727 283.875007 
L 195.809182 282.665916 
L 200.579364 281.8252 
L 204.753273 281.321106 
L 208.330909 281.088233 
L 211.908545 281.056084 
L 215.486182 281.234325 
L 219.063818 281.625691 
L 222.641455 282.225245 
L 226.815364 283.16979 
L 230.989273 284.343599 
L 236.355727 286.103881 
L 250.07 290.785327 
L 253.647636 291.726028 
L 256.629 292.314899 
L 259.610364 292.677295 
L 261.995455 292.772727 
L 264.380545 292.669346 
L 266.765636 292.343491 
L 269.150727 291.772029 
L 271.535818 290.932605 
L 273.920909 289.803894 
L 276.306 288.365857 
L 278.691091 286.599984 
L 281.076182 284.489538 
L 283.461273 282.019787 
L 285.846364 279.17822 
L 288.231455 275.954753 
L 290.616545 272.341918 
L 293.001636 268.335028 
L 295.386727 263.932326 
L 297.771818 259.135105 
L 300.753182 252.590861 
L 303.734545 245.45312 
L 306.715909 237.745613 
L 310.293545 227.789713 
L 313.871182 217.129121 
L 318.045091 203.915873 
L 322.815273 187.991081 
L 329.374273 165.160994 
L 341.299727 123.46077 
L 346.069909 107.718259 
L 349.647545 96.597279 
L 353.225182 86.226801 
L 356.206545 78.25819 
L 359.187909 70.981986 
L 361.573 65.706234 
L 363.958091 60.95036 
L 366.343182 56.743723 
L 368.132 53.965018 
L 369.920818 51.519763 
L 371.709636 49.41656 
L 373.498455 47.662828 
L 375.287273 46.264764 
L 377.076091 45.22732 
L 378.268636 44.737904 
L 379.461182 44.411197 
L 380.653727 44.247714 
L 381.846273 44.247714 
L 383.038818 44.411197 
L 384.231364 44.737904 
L 385.423909 45.22732 
L 387.212727 46.264764 
L 389.001545 47.662828 
L 390.790364 49.41656 
L 392.579182 51.519763 
L 394.368 53.965018 
L 396.156818 56.743723 
L 398.541909 60.95036 
L 400.927 65.706234 
L 403.312091 70.981986 
L 405.697182 76.745255 
L 408.678545 84.581207 
L 411.659909 93.050049 
L 415.237545 103.936757 
L 419.411455 117.453951 
L 424.181636 133.686629 
L 432.529455 163.056376 
L 440.281 190.021145 
L 445.051182 205.849235 
L 449.225091 218.951387 
L 452.802727 229.500047 
L 456.380364 239.331288 
L 459.361727 246.927124 
L 462.343091 253.947808 
L 465.324455 260.371208 
L 468.305818 266.183145 
L 470.690909 270.38791 
L 473.076 274.197366 
L 475.461091 277.614754 
L 477.846182 280.64617 
L 480.231273 283.300412 
L 482.616364 285.588803 
L 485.001455 287.52499 
L 487.386545 289.124737 
L 489.771636 290.405696 
L 492.156727 291.387172 
L 494.541818 292.08988 
L 496.926909 292.535689 
L 499.312 292.747376 
L 501.697091 292.74837 
L 504.678455 292.489647 
L 507.659818 291.985778 
L 511.237455 291.122918 
L 515.411364 289.858789 
L 521.970364 287.580055 
L 530.318182 284.714193 
L 535.088364 283.32448 
L 539.262273 282.34461 
L 542.839909 281.71141 
L 546.417545 281.284788 
L 549.995182 281.071016 
L 553.572818 281.068594 
L 557.150455 281.268953 
L 561.324364 281.738969 
L 565.498273 282.432258 
L 570.268455 283.446549 
L 576.231182 284.947594 
L 595.311909 289.955072 
L 600.678364 291.04641 
L 605.448545 291.807166 
L 610.218727 292.350234 
L 614.988909 292.669754 
L 619.759091 292.772727 
L 625.125545 292.653177 
L 631.088273 292.276647 
L 638.243545 291.585393 
L 660.901909 289.195928 
L 667.460909 288.818185 
L 674.019909 288.677347 
L 680.578909 288.779446 
L 687.137909 289.102488 
L 694.889455 289.706194 
L 709.2 291.107741 
L 709.796273 291.165888 
L 709.796273 291.165888 
" style="fill:none;stroke:#d62728;stroke-linecap:square;stroke-opacity:0.5;"/>
   </g>
   <g id="line2d_24">
    <defs>
     <path d="M 0 1.5 
C 0.397805 1.5 0.77937 1.341951 1.06066 1.06066 
C 1.341951 0.77937 1.5 0.397805 1.5 0 
C 1.5 -0.397805 1.341951 -0.77937 1.06066 -1.06066 
C 0.77937 -1.341951 0.397805 -1.5 0 -1.5 
C -0.397805 -1.5 -0.77937 -1.341951 -1.06066 -1.06066 
C -1.341951 -0.77937 -1.5 -0.397805 -1.5 0 
C -1.5 0.397805 -1.341951 0.77937 -1.06066 1.06066 
C -0.77937 1.341951 -0.397805 1.5 0 1.5 
z
" id="m9518b713e7" style="stroke:#000000;"/>
    </defs>
    <g clip-path="url(#p1f92fe3e8e)">
     <use style="stroke:#000000;" x="-1" xlink:href="#m9518b713e7" y="291.92852"/>
     <use style="stroke:#000000;" x="23.486364" xlink:href="#m9518b713e7" y="292.772727"/>
     <use style="stroke:#000000;" x="83.113636" xlink:href="#m9518b713e7" y="288.74346"/>
     <use style="stroke:#000000;" x="142.740909" xlink:href="#m9518b713e7" y="292.772727"/>
     <use style="stroke:#000000;" x="202.368182" xlink:href="#m9518b713e7" y="281.580319"/>
     <use style="stroke:#000000;" x="261.995455" xlink:href="#m9518b713e7" y="292.772727"/>
     <use style="stroke:#000000;" x="321.622727" xlink:href="#m9518b713e7" y="192.041049"/>
     <use style="stroke:#000000;" x="381.25" xlink:href="#m9518b713e7" y="44.227273"/>
     <use style="stroke:#000000;" x="440.877273" xlink:href="#m9518b713e7" y="192.041049"/>
     <use style="stroke:#000000;" x="500.504545" xlink:href="#m9518b713e7" y="292.772727"/>
     <use style="stroke:#000000;" x="560.131818" xlink:href="#m9518b713e7" y="281.580319"/>
     <use style="stroke:#000000;" x="619.759091" xlink:href="#m9518b713e7" y="292.772727"/>
     <use style="stroke:#000000;" x="679.386364" xlink:href="#m9518b713e7" y="288.74346"/>
     <use style="stroke:#000000;" x="739.013636" xlink:href="#m9518b713e7" y="292.772727"/>
     <use style="stroke:#000000;" x="798.640909" xlink:href="#m9518b713e7" y="290.716979"/>
     <use style="stroke:#000000;" x="858.268182" xlink:href="#m9518b713e7" y="292.772727"/>
     <use style="stroke:#000000;" x="917.895455" xlink:href="#m9518b713e7" y="291.529126"/>
     <use style="stroke:#000000;" x="977.522727" xlink:href="#m9518b713e7" y="292.772727"/>
    </g>
   </g>
   <g id="line2d_25"/>
   <g id="patch_3">
    <path d="M 53.3 305.2 
L 53.3 31.8 
" style="fill:none;stroke:#000000;stroke-linecap:square;stroke-linejoin:miter;stroke-width:0.8;"/>
   </g>
   <g id="patch_4">
    <path d="M 709.2 305.2 
L 709.2 31.8 
" style="fill:none;stroke:#000000;stroke-linecap:square;stroke-linejoin:miter;stroke-width:0.8;"/>
   </g>
   <g id="patch_5">
    <path d="M 53.3 305.2 
L 709.2 305.2 
" style="fill:none;stroke:#000000;stroke-linecap:square;stroke-linejoin:miter;stroke-width:0.8;"/>
   </g>
   <g id="patch_6">
    <path d="M 53.3 31.8 
L 709.2 31.8 
" style="fill:none;stroke:#000000;stroke-linecap:square;stroke-linejoin:miter;stroke-width:0.8;"/>
   </g>
   <g id="text_13">
    <!-- Power Spectral Density of the Periodic Square Wave -->
    <g transform="translate(121.317188 25.8)scale(0.2 -0.2)">
     <defs>
      <path d="M 19.671875 64.796875 
L 19.671875 37.40625 
L 32.078125 37.40625 
Q 38.96875 37.40625 42.71875 40.96875 
Q 46.484375 44.53125 46.484375 51.125 
Q 46.484375 57.671875 42.71875 61.234375 
Q 38.96875 64.796875 32.078125 64.796875 
z
M 9.8125 72.90625 
L 32.078125 72.90625 
Q 44.34375 72.90625 50.609375 67.359375 
Q 56.890625 61.8125 56.890625 51.125 
Q 56.890625 40.328125 50.609375 34.8125 
Q 44.34375 29.296875 32.078125 29.296875 
L 19.671875 29.296875 
L 19.671875 0 
L 9.8125 0 
z
" id="DejaVuSans-80"/>
      <path d="M 30.609375 48.390625 
Q 23.390625 48.390625 19.1875 42.75 
Q 14.984375 37.109375 14.984375 27.296875 
Q 14.984375 17.484375 19.15625 11.84375 
Q 23.34375 6.203125 30.609375 6.203125 
Q 37.796875 6.203125 41.984375 11.859375 
Q 46.1875 17.53125 46.1875 27.296875 
Q 46.1875 37.015625 41.984375 42.703125 
Q 37.796875 48.390625 30.609375 48.390625 
z
M 30.609375 56 
Q 42.328125 56 49.015625 48.375 
Q 55.71875 40.765625 55.71875 27.296875 
Q 55.71875 13.875 49.015625 6.21875 
Q 42.328125 -1.421875 30.609375 -1.421875 
Q 18.84375 -1.421875 12.171875 6.21875 
Q 5.515625 13.875 5.515625 27.296875 
Q 5.515625 40.765625 12.171875 48.375 
Q 18.84375 56 30.609375 56 
z
" id="DejaVuSans-111"/>
      <path d="M 4.203125 54.6875 
L 13.1875 54.6875 
L 24.421875 12.015625 
L 35.59375 54.6875 
L 46.1875 54.6875 
L 57.421875 12.015625 
L 68.609375 54.6875 
L 77.59375 54.6875 
L 63.28125 0 
L 52.6875 0 
L 40.921875 44.828125 
L 29.109375 0 
L 18.5 0 
z
" id="DejaVuSans-119"/>
      <path d="M 53.515625 70.515625 
L 53.515625 60.890625 
Q 47.90625 63.578125 42.921875 64.890625 
Q 37.9375 66.21875 33.296875 66.21875 
Q 25.25 66.21875 20.875 63.09375 
Q 16.5 59.96875 16.5 54.203125 
Q 16.5 49.359375 19.40625 46.890625 
Q 22.3125 44.4375 30.421875 42.921875 
L 36.375 41.703125 
Q 47.40625 39.59375 52.65625 34.296875 
Q 57.90625 29 57.90625 20.125 
Q 57.90625 9.515625 50.796875 4.046875 
Q 43.703125 -1.421875 29.984375 -1.421875 
Q 24.8125 -1.421875 18.96875 -0.25 
Q 13.140625 0.921875 6.890625 3.21875 
L 6.890625 13.375 
Q 12.890625 10.015625 18.65625 8.296875 
Q 24.421875 6.59375 29.984375 6.59375 
Q 38.421875 6.59375 43.015625 9.90625 
Q 47.609375 13.234375 47.609375 19.390625 
Q 47.609375 24.75 44.3125 27.78125 
Q 41.015625 30.8125 33.5 32.328125 
L 27.484375 33.5 
Q 16.453125 35.6875 11.515625 40.375 
Q 6.59375 45.0625 6.59375 53.421875 
Q 6.59375 63.09375 13.40625 68.65625 
Q 20.21875 74.21875 32.171875 74.21875 
Q 37.3125 74.21875 42.625 73.28125 
Q 47.953125 72.359375 53.515625 70.515625 
z
" id="DejaVuSans-83"/>
      <path d="M 18.109375 8.203125 
L 18.109375 -20.796875 
L 9.078125 -20.796875 
L 9.078125 54.6875 
L 18.109375 54.6875 
L 18.109375 46.390625 
Q 20.953125 51.265625 25.265625 53.625 
Q 29.59375 56 35.59375 56 
Q 45.5625 56 51.78125 48.09375 
Q 58.015625 40.1875 58.015625 27.296875 
Q 58.015625 14.40625 51.78125 6.484375 
Q 45.5625 -1.421875 35.59375 -1.421875 
Q 29.59375 -1.421875 25.265625 0.953125 
Q 20.953125 3.328125 18.109375 8.203125 
z
M 48.6875 27.296875 
Q 48.6875 37.203125 44.609375 42.84375 
Q 40.53125 48.484375 33.40625 48.484375 
Q 26.265625 48.484375 22.1875 42.84375 
Q 18.109375 37.203125 18.109375 27.296875 
Q 18.109375 17.390625 22.1875 11.75 
Q 26.265625 6.109375 33.40625 6.109375 
Q 40.53125 6.109375 44.609375 11.75 
Q 48.6875 17.390625 48.6875 27.296875 
z
" id="DejaVuSans-112"/>
      <path d="M 18.3125 70.21875 
L 18.3125 54.6875 
L 36.8125 54.6875 
L 36.8125 47.703125 
L 18.3125 47.703125 
L 18.3125 18.015625 
Q 18.3125 11.328125 20.140625 9.421875 
Q 21.96875 7.515625 27.59375 7.515625 
L 36.8125 7.515625 
L 36.8125 0 
L 27.59375 0 
Q 17.1875 0 13.234375 3.875 
Q 9.28125 7.765625 9.28125 18.015625 
L 9.28125 47.703125 
L 2.6875 47.703125 
L 2.6875 54.6875 
L 9.28125 54.6875 
L 9.28125 70.21875 
z
" id="DejaVuSans-116"/>
      <path d="M 34.28125 27.484375 
Q 23.390625 27.484375 19.1875 25 
Q 14.984375 22.515625 14.984375 16.5 
Q 14.984375 11.71875 18.140625 8.90625 
Q 21.296875 6.109375 26.703125 6.109375 
Q 34.1875 6.109375 38.703125 11.40625 
Q 43.21875 16.703125 43.21875 25.484375 
L 43.21875 27.484375 
z
M 52.203125 31.203125 
L 52.203125 0 
L 43.21875 0 
L 43.21875 8.296875 
Q 40.140625 3.328125 35.546875 0.953125 
Q 30.953125 -1.421875 24.3125 -1.421875 
Q 15.921875 -1.421875 10.953125 3.296875 
Q 6 8.015625 6 15.921875 
Q 6 25.140625 12.171875 29.828125 
Q 18.359375 34.515625 30.609375 34.515625 
L 43.21875 34.515625 
L 43.21875 35.40625 
Q 43.21875 41.609375 39.140625 45 
Q 35.0625 48.390625 27.6875 48.390625 
Q 23 48.390625 18.546875 47.265625 
Q 14.109375 46.140625 10.015625 43.890625 
L 10.015625 52.203125 
Q 14.9375 54.109375 19.578125 55.046875 
Q 24.21875 56 28.609375 56 
Q 40.484375 56 46.34375 49.84375 
Q 52.203125 43.703125 52.203125 31.203125 
z
" id="DejaVuSans-97"/>
      <path d="M 9.421875 75.984375 
L 18.40625 75.984375 
L 18.40625 0 
L 9.421875 0 
z
" id="DejaVuSans-108"/>
      <path d="M 19.671875 64.796875 
L 19.671875 8.109375 
L 31.59375 8.109375 
Q 46.6875 8.109375 53.6875 14.9375 
Q 60.6875 21.78125 60.6875 36.53125 
Q 60.6875 51.171875 53.6875 57.984375 
Q 46.6875 64.796875 31.59375 64.796875 
z
M 9.8125 72.90625 
L 30.078125 72.90625 
Q 51.265625 72.90625 61.171875 64.09375 
Q 71.09375 55.28125 71.09375 36.53125 
Q 71.09375 17.671875 61.125 8.828125 
Q 51.171875 0 30.078125 0 
L 9.8125 0 
z
" id="DejaVuSans-68"/>
      <path d="M 44.28125 53.078125 
L 44.28125 44.578125 
Q 40.484375 46.53125 36.375 47.5 
Q 32.28125 48.484375 27.875 48.484375 
Q 21.1875 48.484375 17.84375 46.4375 
Q 14.5 44.390625 14.5 40.28125 
Q 14.5 37.15625 16.890625 35.375 
Q 19.28125 33.59375 26.515625 31.984375 
L 29.59375 31.296875 
Q 39.15625 29.25 43.1875 25.515625 
Q 47.21875 21.78125 47.21875 15.09375 
Q 47.21875 7.46875 41.1875 3.015625 
Q 35.15625 -1.421875 24.609375 -1.421875 
Q 20.21875 -1.421875 15.453125 -0.5625 
Q 10.6875 0.296875 5.421875 2 
L 5.421875 11.28125 
Q 10.40625 8.6875 15.234375 7.390625 
Q 20.0625 6.109375 24.8125 6.109375 
Q 31.15625 6.109375 34.5625 8.28125 
Q 37.984375 10.453125 37.984375 14.40625 
Q 37.984375 18.0625 35.515625 20.015625 
Q 33.0625 21.96875 24.703125 23.78125 
L 21.578125 24.515625 
Q 13.234375 26.265625 9.515625 29.90625 
Q 5.8125 33.546875 5.8125 39.890625 
Q 5.8125 47.609375 11.28125 51.796875 
Q 16.75 56 26.8125 56 
Q 31.78125 56 36.171875 55.265625 
Q 40.578125 54.546875 44.28125 53.078125 
z
" id="DejaVuSans-115"/>
      <path d="M 9.421875 54.6875 
L 18.40625 54.6875 
L 18.40625 0 
L 9.421875 0 
z
M 9.421875 75.984375 
L 18.40625 75.984375 
L 18.40625 64.59375 
L 9.421875 64.59375 
z
" id="DejaVuSans-105"/>
      <path d="M 37.109375 75.984375 
L 37.109375 68.5 
L 28.515625 68.5 
Q 23.6875 68.5 21.796875 66.546875 
Q 19.921875 64.59375 19.921875 59.515625 
L 19.921875 54.6875 
L 34.71875 54.6875 
L 34.71875 47.703125 
L 19.921875 47.703125 
L 19.921875 0 
L 10.890625 0 
L 10.890625 47.703125 
L 2.296875 47.703125 
L 2.296875 54.6875 
L 10.890625 54.6875 
L 10.890625 58.5 
Q 10.890625 67.625 15.140625 71.796875 
Q 19.390625 75.984375 28.609375 75.984375 
z
" id="DejaVuSans-102"/>
      <path d="M 54.890625 33.015625 
L 54.890625 0 
L 45.90625 0 
L 45.90625 32.71875 
Q 45.90625 40.484375 42.875 44.328125 
Q 39.84375 48.1875 33.796875 48.1875 
Q 26.515625 48.1875 22.3125 43.546875 
Q 18.109375 38.921875 18.109375 30.90625 
L 18.109375 0 
L 9.078125 0 
L 9.078125 75.984375 
L 18.109375 75.984375 
L 18.109375 46.1875 
Q 21.34375 51.125 25.703125 53.5625 
Q 30.078125 56 35.796875 56 
Q 45.21875 56 50.046875 50.171875 
Q 54.890625 44.34375 54.890625 33.015625 
z
" id="DejaVuSans-104"/>
      <path d="M 45.40625 46.390625 
L 45.40625 75.984375 
L 54.390625 75.984375 
L 54.390625 0 
L 45.40625 0 
L 45.40625 8.203125 
Q 42.578125 3.328125 38.25 0.953125 
Q 33.9375 -1.421875 27.875 -1.421875 
Q 17.96875 -1.421875 11.734375 6.484375 
Q 5.515625 14.40625 5.515625 27.296875 
Q 5.515625 40.1875 11.734375 48.09375 
Q 17.96875 56 27.875 56 
Q 33.9375 56 38.25 53.625 
Q 42.578125 51.265625 45.40625 46.390625 
z
M 14.796875 27.296875 
Q 14.796875 17.390625 18.875 11.75 
Q 22.953125 6.109375 30.078125 6.109375 
Q 37.203125 6.109375 41.296875 11.75 
Q 45.40625 17.390625 45.40625 27.296875 
Q 45.40625 37.203125 41.296875 42.84375 
Q 37.203125 48.484375 30.078125 48.484375 
Q 22.953125 48.484375 18.875 42.84375 
Q 14.796875 37.203125 14.796875 27.296875 
z
" id="DejaVuSans-100"/>
      <path d="M 3.328125 72.90625 
L 13.28125 72.90625 
L 28.609375 11.28125 
L 43.890625 72.90625 
L 54.984375 72.90625 
L 70.3125 11.28125 
L 85.59375 72.90625 
L 95.609375 72.90625 
L 77.296875 0 
L 64.890625 0 
L 49.515625 63.28125 
L 33.984375 0 
L 21.578125 0 
z
" id="DejaVuSans-87"/>
      <path d="M 2.984375 54.6875 
L 12.5 54.6875 
L 29.59375 8.796875 
L 46.6875 54.6875 
L 56.203125 54.6875 
L 35.6875 0 
L 23.484375 0 
z
" id="DejaVuSans-118"/>
     </defs>
     <use xlink:href="#DejaVuSans-80"/>
     <use x="56.677734" xlink:href="#DejaVuSans-111"/>
     <use x="117.859375" xlink:href="#DejaVuSans-119"/>
     <use x="199.646484" xlink:href="#DejaVuSans-101"/>
     <use x="261.169922" xlink:href="#DejaVuSans-114"/>
     <use x="302.283203" xlink:href="#DejaVuSans-32"/>
     <use x="334.070312" xlink:href="#DejaVuSans-83"/>
     <use x="397.546875" xlink:href="#DejaVuSans-112"/>
     <use x="461.023438" xlink:href="#DejaVuSans-101"/>
     <use x="522.546875" xlink:href="#DejaVuSans-99"/>
     <use x="577.527344" xlink:href="#DejaVuSans-116"/>
     <use x="616.736328" xlink:href="#DejaVuSans-114"/>
     <use x="657.849609" xlink:href="#DejaVuSans-97"/>
     <use x="719.128906" xlink:href="#DejaVuSans-108"/>
     <use x="746.912109" xlink:href="#DejaVuSans-32"/>
     <use x="778.699219" xlink:href="#DejaVuSans-68"/>
     <use x="855.701172" xlink:href="#DejaVuSans-101"/>
     <use x="917.224609" xlink:href="#DejaVuSans-110"/>
     <use x="980.603516" xlink:href="#DejaVuSans-115"/>
     <use x="1032.703125" xlink:href="#DejaVuSans-105"/>
     <use x="1060.486328" xlink:href="#DejaVuSans-116"/>
     <use x="1099.695312" xlink:href="#DejaVuSans-121"/>
     <use x="1158.875" xlink:href="#DejaVuSans-32"/>
     <use x="1190.662109" xlink:href="#DejaVuSans-111"/>
     <use x="1251.84375" xlink:href="#DejaVuSans-102"/>
     <use x="1287.048828" xlink:href="#DejaVuSans-32"/>
     <use x="1318.835938" xlink:href="#DejaVuSans-116"/>
     <use x="1358.044922" xlink:href="#DejaVuSans-104"/>
     <use x="1421.423828" xlink:href="#DejaVuSans-101"/>
     <use x="1482.947266" xlink:href="#DejaVuSans-32"/>
     <use x="1514.734375" xlink:href="#DejaVuSans-80"/>
     <use x="1571.412109" xlink:href="#DejaVuSans-101"/>
     <use x="1632.935547" xlink:href="#DejaVuSans-114"/>
     <use x="1674.048828" xlink:href="#DejaVuSans-105"/>
     <use x="1701.832031" xlink:href="#DejaVuSans-111"/>
     <use x="1763.013672" xlink:href="#DejaVuSans-100"/>
     <use x="1826.490234" xlink:href="#DejaVuSans-105"/>
     <use x="1854.273438" xlink:href="#DejaVuSans-99"/>
     <use x="1909.253906" xlink:href="#DejaVuSans-32"/>
     <use x="1941.041016" xlink:href="#DejaVuSans-83"/>
     <use x="2004.517578" xlink:href="#DejaVuSans-113"/>
     <use x="2067.994141" xlink:href="#DejaVuSans-117"/>
     <use x="2131.373047" xlink:href="#DejaVuSans-97"/>
     <use x="2192.652344" xlink:href="#DejaVuSans-114"/>
     <use x="2231.515625" xlink:href="#DejaVuSans-101"/>
     <use x="2293.039062" xlink:href="#DejaVuSans-32"/>
     <use x="2324.826172" xlink:href="#DejaVuSans-87"/>
     <use x="2417.328125" xlink:href="#DejaVuSans-97"/>
     <use x="2478.607422" xlink:href="#DejaVuSans-118"/>
     <use x="2537.787109" xlink:href="#DejaVuSans-101"/>
    </g>
   </g>
   <g id="legend_1"/>
  </g>
 </g>
 <defs>
  <clipPath id="p1f92fe3e8e">
   <rect height="273.4" width="655.9" x="53.3" y="31.8"/>
  </clipPath>
 </defs>
</svg>
