<?xml version="1.0" encoding="utf-8" standalone="no"?>
<!DOCTYPE svg PUBLIC "-//W3C//DTD SVG 1.1//EN"
  "http://www.w3.org/Graphics/SVG/1.1/DTD/svg11.dtd">
<!-- Created with matplotlib (https://matplotlib.org/) -->
<svg height="360pt" version="1.1" viewBox="0 0 720 360" width="720pt" xmlns="http://www.w3.org/2000/svg" xmlns:xlink="http://www.w3.org/1999/xlink">
 <metadata>
  <rdf:RDF xmlns:cc="http://creativecommons.org/ns#" xmlns:dc="http://purl.org/dc/elements/1.1/" xmlns:rdf="http://www.w3.org/1999/02/22-rdf-syntax-ns#">
   <cc:Work>
    <dc:type rdf:resource="http://purl.org/dc/dcmitype/StillImage"/>
    <dc:date>2021-09-23T12:24:22.303343</dc:date>
    <dc:format>image/svg+xml</dc:format>
    <dc:creator>
     <cc:Agent>
      <dc:title>Matplotlib v3.3.4, https://matplotlib.org/</dc:title>
     </cc:Agent>
    </dc:creator>
   </cc:Work>
  </rdf:RDF>
 </metadata>
 <defs>
  <style type="text/css">*{stroke-linecap:butt;stroke-linejoin:round;}</style>
 </defs>
 <g id="figure_1">
  <g id="patch_1">
   <path d="M 0 360 
L 720 360 
L 720 0 
L 0 0 
z
" style="fill:none;"/>
  </g>
  <g id="axes_1">
   <g id="patch_2">
    <path d="M 43.175 305.2 
L 709.2 305.2 
L 709.2 31.8 
L 43.175 31.8 
z
" style="fill:#ffffff;"/>
   </g>
   <g id="matplotlib.axis_1">
    <g id="xtick_1">
     <g id="line2d_1">
      <path clip-path="url(#p798b6c029c)" d="M 76.47625 305.2 
L 76.47625 31.8 
" style="fill:none;stroke:#cccccc;stroke-dasharray:1.85,0.8;stroke-dashoffset:0;stroke-width:0.5;"/>
     </g>
     <g id="line2d_2">
      <defs>
       <path d="M 0 0 
L 0 3.5 
" id="m88017c7281" style="stroke:#000000;stroke-width:0.8;"/>
      </defs>
      <g>
       <use style="stroke:#000000;stroke-width:0.8;" x="76.47625" xlink:href="#m88017c7281" y="305.2"/>
      </g>
     </g>
     <g id="text_1">
      <!-- −0.2 -->
      <g transform="translate(57.05 324.3575)scale(0.16 -0.16)">
       <defs>
        <path d="M 10.59375 35.5 
L 73.1875 35.5 
L 73.1875 27.203125 
L 10.59375 27.203125 
z
" id="DejaVuSans-8722"/>
        <path d="M 31.78125 66.40625 
Q 24.171875 66.40625 20.328125 58.90625 
Q 16.5 51.421875 16.5 36.375 
Q 16.5 21.390625 20.328125 13.890625 
Q 24.171875 6.390625 31.78125 6.390625 
Q 39.453125 6.390625 43.28125 13.890625 
Q 47.125 21.390625 47.125 36.375 
Q 47.125 51.421875 43.28125 58.90625 
Q 39.453125 66.40625 31.78125 66.40625 
z
M 31.78125 74.21875 
Q 44.046875 74.21875 50.515625 64.515625 
Q 56.984375 54.828125 56.984375 36.375 
Q 56.984375 17.96875 50.515625 8.265625 
Q 44.046875 -1.421875 31.78125 -1.421875 
Q 19.53125 -1.421875 13.0625 8.265625 
Q 6.59375 17.96875 6.59375 36.375 
Q 6.59375 54.828125 13.0625 64.515625 
Q 19.53125 74.21875 31.78125 74.21875 
z
" id="DejaVuSans-48"/>
        <path d="M 10.6875 12.40625 
L 21 12.40625 
L 21 0 
L 10.6875 0 
z
" id="DejaVuSans-46"/>
        <path d="M 19.1875 8.296875 
L 53.609375 8.296875 
L 53.609375 0 
L 7.328125 0 
L 7.328125 8.296875 
Q 12.9375 14.109375 22.625 23.890625 
Q 32.328125 33.6875 34.8125 36.53125 
Q 39.546875 41.84375 41.421875 45.53125 
Q 43.3125 49.21875 43.3125 52.78125 
Q 43.3125 58.59375 39.234375 62.25 
Q 35.15625 65.921875 28.609375 65.921875 
Q 23.96875 65.921875 18.8125 64.3125 
Q 13.671875 62.703125 7.8125 59.421875 
L 7.8125 69.390625 
Q 13.765625 71.78125 18.9375 73 
Q 24.125 74.21875 28.421875 74.21875 
Q 39.75 74.21875 46.484375 68.546875 
Q 53.21875 62.890625 53.21875 53.421875 
Q 53.21875 48.921875 51.53125 44.890625 
Q 49.859375 40.875 45.40625 35.40625 
Q 44.1875 33.984375 37.640625 27.21875 
Q 31.109375 20.453125 19.1875 8.296875 
z
" id="DejaVuSans-50"/>
       </defs>
       <use xlink:href="#DejaVuSans-8722"/>
       <use x="83.789062" xlink:href="#DejaVuSans-48"/>
       <use x="147.412109" xlink:href="#DejaVuSans-46"/>
       <use x="179.199219" xlink:href="#DejaVuSans-50"/>
      </g>
     </g>
    </g>
    <g id="xtick_2">
     <g id="line2d_3">
      <path clip-path="url(#p798b6c029c)" d="M 209.68125 305.2 
L 209.68125 31.8 
" style="fill:none;stroke:#cccccc;stroke-dasharray:1.85,0.8;stroke-dashoffset:0;stroke-width:0.5;"/>
     </g>
     <g id="line2d_4">
      <g>
       <use style="stroke:#000000;stroke-width:0.8;" x="209.68125" xlink:href="#m88017c7281" y="305.2"/>
      </g>
     </g>
     <g id="text_2">
      <!-- 0.0 -->
      <g transform="translate(196.95875 324.3575)scale(0.16 -0.16)">
       <use xlink:href="#DejaVuSans-48"/>
       <use x="63.623047" xlink:href="#DejaVuSans-46"/>
       <use x="95.410156" xlink:href="#DejaVuSans-48"/>
      </g>
     </g>
    </g>
    <g id="xtick_3">
     <g id="line2d_5">
      <path clip-path="url(#p798b6c029c)" d="M 342.88625 305.2 
L 342.88625 31.8 
" style="fill:none;stroke:#cccccc;stroke-dasharray:1.85,0.8;stroke-dashoffset:0;stroke-width:0.5;"/>
     </g>
     <g id="line2d_6">
      <g>
       <use style="stroke:#000000;stroke-width:0.8;" x="342.88625" xlink:href="#m88017c7281" y="305.2"/>
      </g>
     </g>
     <g id="text_3">
      <!-- 0.2 -->
      <g transform="translate(330.16375 324.3575)scale(0.16 -0.16)">
       <use xlink:href="#DejaVuSans-48"/>
       <use x="63.623047" xlink:href="#DejaVuSans-46"/>
       <use x="95.410156" xlink:href="#DejaVuSans-50"/>
      </g>
     </g>
    </g>
    <g id="xtick_4">
     <g id="line2d_7">
      <path clip-path="url(#p798b6c029c)" d="M 476.09125 305.2 
L 476.09125 31.8 
" style="fill:none;stroke:#cccccc;stroke-dasharray:1.85,0.8;stroke-dashoffset:0;stroke-width:0.5;"/>
     </g>
     <g id="line2d_8">
      <g>
       <use style="stroke:#000000;stroke-width:0.8;" x="476.09125" xlink:href="#m88017c7281" y="305.2"/>
      </g>
     </g>
     <g id="text_4">
      <!-- 0.4 -->
      <g transform="translate(463.36875 324.3575)scale(0.16 -0.16)">
       <defs>
        <path d="M 37.796875 64.3125 
L 12.890625 25.390625 
L 37.796875 25.390625 
z
M 35.203125 72.90625 
L 47.609375 72.90625 
L 47.609375 25.390625 
L 58.015625 25.390625 
L 58.015625 17.1875 
L 47.609375 17.1875 
L 47.609375 0 
L 37.796875 0 
L 37.796875 17.1875 
L 4.890625 17.1875 
L 4.890625 26.703125 
z
" id="DejaVuSans-52"/>
       </defs>
       <use xlink:href="#DejaVuSans-48"/>
       <use x="63.623047" xlink:href="#DejaVuSans-46"/>
       <use x="95.410156" xlink:href="#DejaVuSans-52"/>
      </g>
     </g>
    </g>
    <g id="xtick_5">
     <g id="line2d_9">
      <path clip-path="url(#p798b6c029c)" d="M 609.29625 305.2 
L 609.29625 31.8 
" style="fill:none;stroke:#cccccc;stroke-dasharray:1.85,0.8;stroke-dashoffset:0;stroke-width:0.5;"/>
     </g>
     <g id="line2d_10">
      <g>
       <use style="stroke:#000000;stroke-width:0.8;" x="609.29625" xlink:href="#m88017c7281" y="305.2"/>
      </g>
     </g>
     <g id="text_5">
      <!-- 0.6 -->
      <g transform="translate(596.57375 324.3575)scale(0.16 -0.16)">
       <defs>
        <path d="M 33.015625 40.375 
Q 26.375 40.375 22.484375 35.828125 
Q 18.609375 31.296875 18.609375 23.390625 
Q 18.609375 15.53125 22.484375 10.953125 
Q 26.375 6.390625 33.015625 6.390625 
Q 39.65625 6.390625 43.53125 10.953125 
Q 47.40625 15.53125 47.40625 23.390625 
Q 47.40625 31.296875 43.53125 35.828125 
Q 39.65625 40.375 33.015625 40.375 
z
M 52.59375 71.296875 
L 52.59375 62.3125 
Q 48.875 64.0625 45.09375 64.984375 
Q 41.3125 65.921875 37.59375 65.921875 
Q 27.828125 65.921875 22.671875 59.328125 
Q 17.53125 52.734375 16.796875 39.40625 
Q 19.671875 43.65625 24.015625 45.921875 
Q 28.375 48.1875 33.59375 48.1875 
Q 44.578125 48.1875 50.953125 41.515625 
Q 57.328125 34.859375 57.328125 23.390625 
Q 57.328125 12.15625 50.6875 5.359375 
Q 44.046875 -1.421875 33.015625 -1.421875 
Q 20.359375 -1.421875 13.671875 8.265625 
Q 6.984375 17.96875 6.984375 36.375 
Q 6.984375 53.65625 15.1875 63.9375 
Q 23.390625 74.21875 37.203125 74.21875 
Q 40.921875 74.21875 44.703125 73.484375 
Q 48.484375 72.75 52.59375 71.296875 
z
" id="DejaVuSans-54"/>
       </defs>
       <use xlink:href="#DejaVuSans-48"/>
       <use x="63.623047" xlink:href="#DejaVuSans-46"/>
       <use x="95.410156" xlink:href="#DejaVuSans-54"/>
      </g>
     </g>
    </g>
    <g id="text_6">
     <!-- Time (sec) -->
     <g transform="translate(329.109062 345.362188)scale(0.18 -0.18)">
      <defs>
       <path d="M -0.296875 72.90625 
L 61.375 72.90625 
L 61.375 64.59375 
L 35.5 64.59375 
L 35.5 0 
L 25.59375 0 
L 25.59375 64.59375 
L -0.296875 64.59375 
z
" id="DejaVuSans-84"/>
       <path d="M 9.421875 54.6875 
L 18.40625 54.6875 
L 18.40625 0 
L 9.421875 0 
z
M 9.421875 75.984375 
L 18.40625 75.984375 
L 18.40625 64.59375 
L 9.421875 64.59375 
z
" id="DejaVuSans-105"/>
       <path d="M 52 44.1875 
Q 55.375 50.25 60.0625 53.125 
Q 64.75 56 71.09375 56 
Q 79.640625 56 84.28125 50.015625 
Q 88.921875 44.046875 88.921875 33.015625 
L 88.921875 0 
L 79.890625 0 
L 79.890625 32.71875 
Q 79.890625 40.578125 77.09375 44.375 
Q 74.3125 48.1875 68.609375 48.1875 
Q 61.625 48.1875 57.5625 43.546875 
Q 53.515625 38.921875 53.515625 30.90625 
L 53.515625 0 
L 44.484375 0 
L 44.484375 32.71875 
Q 44.484375 40.625 41.703125 44.40625 
Q 38.921875 48.1875 33.109375 48.1875 
Q 26.21875 48.1875 22.15625 43.53125 
Q 18.109375 38.875 18.109375 30.90625 
L 18.109375 0 
L 9.078125 0 
L 9.078125 54.6875 
L 18.109375 54.6875 
L 18.109375 46.1875 
Q 21.1875 51.21875 25.484375 53.609375 
Q 29.78125 56 35.6875 56 
Q 41.65625 56 45.828125 52.96875 
Q 50 49.953125 52 44.1875 
z
" id="DejaVuSans-109"/>
       <path d="M 56.203125 29.59375 
L 56.203125 25.203125 
L 14.890625 25.203125 
Q 15.484375 15.921875 20.484375 11.0625 
Q 25.484375 6.203125 34.421875 6.203125 
Q 39.59375 6.203125 44.453125 7.46875 
Q 49.3125 8.734375 54.109375 11.28125 
L 54.109375 2.78125 
Q 49.265625 0.734375 44.1875 -0.34375 
Q 39.109375 -1.421875 33.890625 -1.421875 
Q 20.796875 -1.421875 13.15625 6.1875 
Q 5.515625 13.8125 5.515625 26.8125 
Q 5.515625 40.234375 12.765625 48.109375 
Q 20.015625 56 32.328125 56 
Q 43.359375 56 49.78125 48.890625 
Q 56.203125 41.796875 56.203125 29.59375 
z
M 47.21875 32.234375 
Q 47.125 39.59375 43.09375 43.984375 
Q 39.0625 48.390625 32.421875 48.390625 
Q 24.90625 48.390625 20.390625 44.140625 
Q 15.875 39.890625 15.1875 32.171875 
z
" id="DejaVuSans-101"/>
       <path id="DejaVuSans-32"/>
       <path d="M 31 75.875 
Q 24.46875 64.65625 21.28125 53.65625 
Q 18.109375 42.671875 18.109375 31.390625 
Q 18.109375 20.125 21.3125 9.0625 
Q 24.515625 -2 31 -13.1875 
L 23.1875 -13.1875 
Q 15.875 -1.703125 12.234375 9.375 
Q 8.59375 20.453125 8.59375 31.390625 
Q 8.59375 42.28125 12.203125 53.3125 
Q 15.828125 64.359375 23.1875 75.875 
z
" id="DejaVuSans-40"/>
       <path d="M 44.28125 53.078125 
L 44.28125 44.578125 
Q 40.484375 46.53125 36.375 47.5 
Q 32.28125 48.484375 27.875 48.484375 
Q 21.1875 48.484375 17.84375 46.4375 
Q 14.5 44.390625 14.5 40.28125 
Q 14.5 37.15625 16.890625 35.375 
Q 19.28125 33.59375 26.515625 31.984375 
L 29.59375 31.296875 
Q 39.15625 29.25 43.1875 25.515625 
Q 47.21875 21.78125 47.21875 15.09375 
Q 47.21875 7.46875 41.1875 3.015625 
Q 35.15625 -1.421875 24.609375 -1.421875 
Q 20.21875 -1.421875 15.453125 -0.5625 
Q 10.6875 0.296875 5.421875 2 
L 5.421875 11.28125 
Q 10.40625 8.6875 15.234375 7.390625 
Q 20.0625 6.109375 24.8125 6.109375 
Q 31.15625 6.109375 34.5625 8.28125 
Q 37.984375 10.453125 37.984375 14.40625 
Q 37.984375 18.0625 35.515625 20.015625 
Q 33.0625 21.96875 24.703125 23.78125 
L 21.578125 24.515625 
Q 13.234375 26.265625 9.515625 29.90625 
Q 5.8125 33.546875 5.8125 39.890625 
Q 5.8125 47.609375 11.28125 51.796875 
Q 16.75 56 26.8125 56 
Q 31.78125 56 36.171875 55.265625 
Q 40.578125 54.546875 44.28125 53.078125 
z
" id="DejaVuSans-115"/>
       <path d="M 48.78125 52.59375 
L 48.78125 44.1875 
Q 44.96875 46.296875 41.140625 47.34375 
Q 37.3125 48.390625 33.40625 48.390625 
Q 24.65625 48.390625 19.8125 42.84375 
Q 14.984375 37.3125 14.984375 27.296875 
Q 14.984375 17.28125 19.8125 11.734375 
Q 24.65625 6.203125 33.40625 6.203125 
Q 37.3125 6.203125 41.140625 7.25 
Q 44.96875 8.296875 48.78125 10.40625 
L 48.78125 2.09375 
Q 45.015625 0.34375 40.984375 -0.53125 
Q 36.96875 -1.421875 32.421875 -1.421875 
Q 20.0625 -1.421875 12.78125 6.34375 
Q 5.515625 14.109375 5.515625 27.296875 
Q 5.515625 40.671875 12.859375 48.328125 
Q 20.21875 56 33.015625 56 
Q 37.15625 56 41.109375 55.140625 
Q 45.0625 54.296875 48.78125 52.59375 
z
" id="DejaVuSans-99"/>
       <path d="M 8.015625 75.875 
L 15.828125 75.875 
Q 23.140625 64.359375 26.78125 53.3125 
Q 30.421875 42.28125 30.421875 31.390625 
Q 30.421875 20.453125 26.78125 9.375 
Q 23.140625 -1.703125 15.828125 -13.1875 
L 8.015625 -13.1875 
Q 14.5 -2 17.703125 9.0625 
Q 20.90625 20.125 20.90625 31.390625 
Q 20.90625 42.671875 17.703125 53.65625 
Q 14.5 64.65625 8.015625 75.875 
z
" id="DejaVuSans-41"/>
      </defs>
      <use xlink:href="#DejaVuSans-84"/>
      <use x="57.958984" xlink:href="#DejaVuSans-105"/>
      <use x="85.742188" xlink:href="#DejaVuSans-109"/>
      <use x="183.154297" xlink:href="#DejaVuSans-101"/>
      <use x="244.677734" xlink:href="#DejaVuSans-32"/>
      <use x="276.464844" xlink:href="#DejaVuSans-40"/>
      <use x="315.478516" xlink:href="#DejaVuSans-115"/>
      <use x="367.578125" xlink:href="#DejaVuSans-101"/>
      <use x="429.101562" xlink:href="#DejaVuSans-99"/>
      <use x="484.082031" xlink:href="#DejaVuSans-41"/>
     </g>
    </g>
   </g>
   <g id="matplotlib.axis_2">
    <g id="ytick_1">
     <g id="line2d_11">
      <path clip-path="url(#p798b6c029c)" d="M 43.175 292.772727 
L 709.2 292.772727 
" style="fill:none;stroke:#cccccc;stroke-dasharray:1.85,0.8;stroke-dashoffset:0;stroke-width:0.5;"/>
     </g>
     <g id="line2d_12">
      <defs>
       <path d="M 0 0 
L -3.5 0 
" id="mf4f06325c8" style="stroke:#000000;stroke-width:0.8;"/>
      </defs>
      <g>
       <use style="stroke:#000000;stroke-width:0.8;" x="43.175" xlink:href="#mf4f06325c8" y="292.772727"/>
      </g>
     </g>
     <g id="text_7">
      <!-- 0.0 -->
      <g transform="translate(10.73 298.851477)scale(0.16 -0.16)">
       <use xlink:href="#DejaVuSans-48"/>
       <use x="63.623047" xlink:href="#DejaVuSans-46"/>
       <use x="95.410156" xlink:href="#DejaVuSans-48"/>
      </g>
     </g>
    </g>
    <g id="ytick_2">
     <g id="line2d_13">
      <path clip-path="url(#p798b6c029c)" d="M 43.175 242.984817 
L 709.2 242.984817 
" style="fill:none;stroke:#cccccc;stroke-dasharray:1.85,0.8;stroke-dashoffset:0;stroke-width:0.5;"/>
     </g>
     <g id="line2d_14">
      <g>
       <use style="stroke:#000000;stroke-width:0.8;" x="43.175" xlink:href="#mf4f06325c8" y="242.984817"/>
      </g>
     </g>
     <g id="text_8">
      <!-- 0.2 -->
      <g transform="translate(10.73 249.063567)scale(0.16 -0.16)">
       <use xlink:href="#DejaVuSans-48"/>
       <use x="63.623047" xlink:href="#DejaVuSans-46"/>
       <use x="95.410156" xlink:href="#DejaVuSans-50"/>
      </g>
     </g>
    </g>
    <g id="ytick_3">
     <g id="line2d_15">
      <path clip-path="url(#p798b6c029c)" d="M 43.175 193.196906 
L 709.2 193.196906 
" style="fill:none;stroke:#cccccc;stroke-dasharray:1.85,0.8;stroke-dashoffset:0;stroke-width:0.5;"/>
     </g>
     <g id="line2d_16">
      <g>
       <use style="stroke:#000000;stroke-width:0.8;" x="43.175" xlink:href="#mf4f06325c8" y="193.196906"/>
      </g>
     </g>
     <g id="text_9">
      <!-- 0.4 -->
      <g transform="translate(10.73 199.275656)scale(0.16 -0.16)">
       <use xlink:href="#DejaVuSans-48"/>
       <use x="63.623047" xlink:href="#DejaVuSans-46"/>
       <use x="95.410156" xlink:href="#DejaVuSans-52"/>
      </g>
     </g>
    </g>
    <g id="ytick_4">
     <g id="line2d_17">
      <path clip-path="url(#p798b6c029c)" d="M 43.175 143.408995 
L 709.2 143.408995 
" style="fill:none;stroke:#cccccc;stroke-dasharray:1.85,0.8;stroke-dashoffset:0;stroke-width:0.5;"/>
     </g>
     <g id="line2d_18">
      <g>
       <use style="stroke:#000000;stroke-width:0.8;" x="43.175" xlink:href="#mf4f06325c8" y="143.408995"/>
      </g>
     </g>
     <g id="text_10">
      <!-- 0.6 -->
      <g transform="translate(10.73 149.487745)scale(0.16 -0.16)">
       <use xlink:href="#DejaVuSans-48"/>
       <use x="63.623047" xlink:href="#DejaVuSans-46"/>
       <use x="95.410156" xlink:href="#DejaVuSans-54"/>
      </g>
     </g>
    </g>
    <g id="ytick_5">
     <g id="line2d_19">
      <path clip-path="url(#p798b6c029c)" d="M 43.175 93.621084 
L 709.2 93.621084 
" style="fill:none;stroke:#cccccc;stroke-dasharray:1.85,0.8;stroke-dashoffset:0;stroke-width:0.5;"/>
     </g>
     <g id="line2d_20">
      <g>
       <use style="stroke:#000000;stroke-width:0.8;" x="43.175" xlink:href="#mf4f06325c8" y="93.621084"/>
      </g>
     </g>
     <g id="text_11">
      <!-- 0.8 -->
      <g transform="translate(10.73 99.699834)scale(0.16 -0.16)">
       <defs>
        <path d="M 31.78125 34.625 
Q 24.75 34.625 20.71875 30.859375 
Q 16.703125 27.09375 16.703125 20.515625 
Q 16.703125 13.921875 20.71875 10.15625 
Q 24.75 6.390625 31.78125 6.390625 
Q 38.8125 6.390625 42.859375 10.171875 
Q 46.921875 13.96875 46.921875 20.515625 
Q 46.921875 27.09375 42.890625 30.859375 
Q 38.875 34.625 31.78125 34.625 
z
M 21.921875 38.8125 
Q 15.578125 40.375 12.03125 44.71875 
Q 8.5 49.078125 8.5 55.328125 
Q 8.5 64.0625 14.71875 69.140625 
Q 20.953125 74.21875 31.78125 74.21875 
Q 42.671875 74.21875 48.875 69.140625 
Q 55.078125 64.0625 55.078125 55.328125 
Q 55.078125 49.078125 51.53125 44.71875 
Q 48 40.375 41.703125 38.8125 
Q 48.828125 37.15625 52.796875 32.3125 
Q 56.78125 27.484375 56.78125 20.515625 
Q 56.78125 9.90625 50.3125 4.234375 
Q 43.84375 -1.421875 31.78125 -1.421875 
Q 19.734375 -1.421875 13.25 4.234375 
Q 6.78125 9.90625 6.78125 20.515625 
Q 6.78125 27.484375 10.78125 32.3125 
Q 14.796875 37.15625 21.921875 38.8125 
z
M 18.3125 54.390625 
Q 18.3125 48.734375 21.84375 45.5625 
Q 25.390625 42.390625 31.78125 42.390625 
Q 38.140625 42.390625 41.71875 45.5625 
Q 45.3125 48.734375 45.3125 54.390625 
Q 45.3125 60.0625 41.71875 63.234375 
Q 38.140625 66.40625 31.78125 66.40625 
Q 25.390625 66.40625 21.84375 63.234375 
Q 18.3125 60.0625 18.3125 54.390625 
z
" id="DejaVuSans-56"/>
       </defs>
       <use xlink:href="#DejaVuSans-48"/>
       <use x="63.623047" xlink:href="#DejaVuSans-46"/>
       <use x="95.410156" xlink:href="#DejaVuSans-56"/>
      </g>
     </g>
    </g>
    <g id="ytick_6">
     <g id="line2d_21">
      <path clip-path="url(#p798b6c029c)" d="M 43.175 43.833174 
L 709.2 43.833174 
" style="fill:none;stroke:#cccccc;stroke-dasharray:1.85,0.8;stroke-dashoffset:0;stroke-width:0.5;"/>
     </g>
     <g id="line2d_22">
      <g>
       <use style="stroke:#000000;stroke-width:0.8;" x="43.175" xlink:href="#mf4f06325c8" y="43.833174"/>
      </g>
     </g>
     <g id="text_12">
      <!-- 1.0 -->
      <g transform="translate(10.73 49.911924)scale(0.16 -0.16)">
       <defs>
        <path d="M 12.40625 8.296875 
L 28.515625 8.296875 
L 28.515625 63.921875 
L 10.984375 60.40625 
L 10.984375 69.390625 
L 28.421875 72.90625 
L 38.28125 72.90625 
L 38.28125 8.296875 
L 54.390625 8.296875 
L 54.390625 0 
L 12.40625 0 
z
" id="DejaVuSans-49"/>
       </defs>
       <use xlink:href="#DejaVuSans-49"/>
       <use x="63.623047" xlink:href="#DejaVuSans-46"/>
       <use x="95.410156" xlink:href="#DejaVuSans-48"/>
      </g>
     </g>
    </g>
   </g>
   <g id="line2d_23">
    <path clip-path="url(#p798b6c029c)" d="M 43.175 292.772727 
L 709.2 292.772727 
" style="fill:none;stroke:#cccccc;stroke-linecap:square;"/>
   </g>
   <g id="line2d_24">
    <path clip-path="url(#p798b6c029c)" d="M 43.175 168.30295 
L 709.2 168.30295 
L 709.2 168.30295 
" style="fill:none;stroke:#000000;stroke-linecap:square;"/>
   </g>
   <g id="line2d_25">
    <path clip-path="url(#p798b6c029c)" d="M 43.175 168.30295 
L 65.153825 189.072717 
L 77.142275 200.082382 
L 87.13265 208.952745 
L 95.790975 216.35129 
L 103.783275 222.897432 
L 111.10955 228.626422 
L 118.435825 234.067368 
L 125.096075 238.741838 
L 131.756325 243.138317 
L 137.75055 246.843103 
L 143.744775 250.296803 
L 149.739 253.488378 
L 155.733225 256.407623 
L 161.061425 258.766321 
L 166.389625 260.8965 
L 171.717825 262.792781 
L 177.046025 264.450371 
L 182.374225 265.865085 
L 187.702425 267.033349 
L 193.030625 267.952211 
L 198.358825 268.61935 
L 203.687025 269.033082 
L 208.3492 269.186385 
L 213.011375 269.144568 
L 217.67355 268.907709 
L 223.00175 268.398793 
L 228.32995 267.637025 
L 233.65815 266.624332 
L 238.98635 265.36327 
L 244.31455 263.857025 
L 249.64275 262.109403 
L 254.97095 260.124817 
L 260.29915 257.908281 
L 265.62735 255.465394 
L 271.621575 252.454292 
L 277.6158 249.174167 
L 283.610025 245.635504 
L 289.60425 241.849617 
L 296.2645 237.367867 
L 302.92475 232.61355 
L 310.251025 227.091409 
L 317.5773 221.288555 
L 325.5696 214.670606 
L 334.227925 207.20506 
L 343.552275 198.876603 
L 354.8747 188.45197 
L 370.193275 174.005185 
L 399.498375 146.294173 
L 410.8208 135.9225 
L 420.811175 127.073773 
L 429.4695 119.698147 
L 437.4618 113.176459 
L 444.788075 107.472544 
L 452.11435 102.059094 
L 458.7746 97.411611 
L 465.43485 93.043903 
L 471.429075 89.366446 
L 477.4233 85.94134 
L 483.417525 82.779536 
L 489.41175 79.891142 
L 494.73995 77.560695 
L 500.06815 75.45947 
L 505.39635 73.592777 
L 510.72455 71.965329 
L 516.05275 70.581238 
L 521.38095 69.444002 
L 526.70915 68.556491 
L 532.03735 67.920949 
L 537.36555 67.53898 
L 542.027725 67.413541 
L 546.6899 67.483236 
L 551.352075 67.747929 
L 556.680275 68.288535 
L 562.008475 69.081786 
L 567.336675 70.125679 
L 572.664875 71.417575 
L 577.993075 72.954213 
L 583.321275 74.73171 
L 588.649475 76.745576 
L 593.977675 78.990723 
L 599.305875 81.461482 
L 605.3001 84.502967 
L 611.294325 87.812352 
L 617.28855 91.379057 
L 623.282775 95.191681 
L 629.943025 99.701502 
L 636.603275 104.482061 
L 643.92955 110.030831 
L 651.255825 115.857851 
L 659.248125 122.499213 
L 667.90645 129.986506 
L 677.896825 138.939904 
L 689.21925 149.397787 
L 705.20385 164.500335 
L 709.2 168.30295 
L 709.2 168.30295 
" style="fill:none;stroke:#1f77b4;stroke-linecap:square;"/>
   </g>
   <g id="line2d_26">
    <path clip-path="url(#p798b6c029c)" d="M 43.175 168.30295 
L 59.825625 178.996539 
L 69.149975 185.260637 
L 77.142275 190.890591 
L 84.46855 196.303453 
L 91.794825 201.975271 
L 99.787125 208.456228 
L 108.44545 215.79059 
L 118.435825 224.564767 
L 145.74285 248.739117 
L 152.4031 254.25677 
L 158.397325 258.950275 
L 163.725525 262.852338 
L 168.3877 266.022646 
L 173.049875 268.936163 
L 177.71205 271.566875 
L 181.7082 273.578472 
L 185.70435 275.351015 
L 189.7005 276.872335 
L 193.69665 278.131883 
L 197.6928 279.120858 
L 201.022925 279.733242 
L 204.35305 280.149861 
L 207.683175 280.368665 
L 211.0133 280.388576 
L 214.343425 280.209496 
L 217.67355 279.832307 
L 221.003675 279.258866 
L 224.3338 278.491987 
L 228.32995 277.321741 
L 232.3261 275.886591 
L 236.32225 274.196514 
L 240.3184 272.263155 
L 244.31455 270.099688 
L 248.976725 267.304299 
L 253.6389 264.240742 
L 258.9671 260.4459 
L 264.2953 256.378721 
L 270.289525 251.532644 
L 277.6158 245.310666 
L 287.606175 236.4923 
L 310.91705 215.79059 
L 319.575375 208.456228 
L 327.567675 201.975271 
L 334.89395 196.303453 
L 342.220225 190.890591 
L 350.212525 185.260637 
L 358.87085 179.434978 
L 370.193275 172.112535 
L 394.8362 156.290323 
L 403.494525 150.425318 
L 411.486825 144.749879 
L 418.8131 139.290686 
L 426.139375 133.571353 
L 434.131675 127.041242 
L 442.79 119.661965 
L 453.4464 110.25937 
L 476.757275 89.571658 
L 484.08355 83.429751 
L 490.077775 78.672853 
L 495.405975 74.70269 
L 500.734175 71.021064 
L 505.39635 68.069226 
L 510.058525 65.396596 
L 514.054675 63.346445 
L 518.050825 61.533173 
L 522.046975 59.969205 
L 526.043125 58.665368 
L 530.039275 57.630764 
L 533.3694 56.979557 
L 536.699525 56.52359 
L 540.02965 56.265106 
L 543.359775 56.205377 
L 546.6899 56.344698 
L 550.020025 56.682383 
L 553.35015 57.216768 
L 556.680275 57.94523 
L 560.676425 59.070478 
L 564.672575 60.462124 
L 568.668725 62.110478 
L 572.664875 64.004166 
L 576.661025 66.130258 
L 581.3232 68.885233 
L 585.985375 71.912096 
L 591.313575 75.669861 
L 596.641775 79.705389 
L 602.636 84.522528 
L 609.962275 90.718775 
L 619.286625 98.924236 
L 645.2616 121.962534 
L 653.919925 129.250292 
L 661.912225 135.681331 
L 669.2385 141.305601 
L 677.2308 147.148425 
L 685.2231 152.712477 
L 694.54745 158.917739 
L 707.201925 167.034887 
L 709.2 168.30295 
L 709.2 168.30295 
" style="fill:none;stroke:#d62728;stroke-linecap:square;stroke-opacity:0.5;"/>
   </g>
   <g id="line2d_27">
    <path clip-path="url(#p798b6c029c)" d="M 43.175 168.30295 
L 56.4955 177.606868 
L 64.4878 183.46862 
L 72.4801 189.614199 
L 82.470475 197.607041 
L 98.455075 210.413177 
L 105.78135 215.983268 
L 113.107625 221.270384 
L 121.099925 226.755933 
L 140.41465 239.864826 
L 146.408875 244.268758 
L 152.4031 248.954766 
L 158.397325 253.925586 
L 166.389625 260.884403 
L 177.71205 270.76104 
L 182.374225 274.542383 
L 186.370375 277.519145 
L 189.7005 279.756488 
L 193.030625 281.728943 
L 195.694725 283.090902 
L 198.358825 284.242303 
L 201.022925 285.168496 
L 203.687025 285.857517 
L 206.351125 286.300363 
L 209.015225 286.491206 
L 211.679325 286.427521 
L 214.343425 286.110152 
L 217.007525 285.543288 
L 219.671625 284.734365 
L 222.335725 283.693897 
L 224.999825 282.43523 
L 228.32995 280.579444 
L 231.660075 278.443315 
L 235.656225 275.565933 
L 239.652375 272.41532 
L 244.980575 267.919062 
L 266.9594 248.954766 
L 272.953625 244.268758 
L 278.94785 239.864826 
L 286.274125 234.783333 
L 309.585 218.90217 
L 316.911275 213.485258 
L 324.903575 207.270667 
L 336.892025 197.607041 
L 348.21445 188.571235 
L 356.20675 182.472006 
L 364.19905 176.655585 
L 374.189425 169.679911 
L 389.508 158.999032 
L 397.5003 153.137281 
L 405.4926 146.991702 
L 415.482975 138.99886 
L 431.467575 126.192724 
L 438.79385 120.622633 
L 446.120125 115.335517 
L 454.112425 109.849968 
L 473.42715 96.741075 
L 479.421375 92.337143 
L 485.4156 87.651135 
L 491.409825 82.680315 
L 499.402125 75.721498 
L 510.72455 65.844861 
L 515.386725 62.063518 
L 519.382875 59.086756 
L 522.713 56.849413 
L 526.043125 54.876958 
L 528.707225 53.514999 
L 531.371325 52.363598 
L 534.035425 51.437405 
L 536.699525 50.748384 
L 539.363625 50.305538 
L 542.027725 50.114695 
L 544.691825 50.17838 
L 547.355925 50.495749 
L 550.020025 51.062613 
L 552.684125 51.871536 
L 555.348225 52.912004 
L 558.012325 54.170671 
L 561.34245 56.026457 
L 564.672575 58.162586 
L 568.668725 61.039968 
L 572.664875 64.190581 
L 577.993075 68.686839 
L 599.9719 87.651135 
L 605.966125 92.337143 
L 611.96035 96.741075 
L 619.286625 101.822568 
L 642.5975 117.703731 
L 649.923775 123.120643 
L 657.916075 129.335234 
L 669.904525 138.99886 
L 681.22695 148.034666 
L 689.21925 154.133895 
L 697.21155 159.950316 
L 707.201925 166.92599 
L 709.2 168.30295 
L 709.2 168.30295 
" style="fill:none;stroke:#2ca02c;stroke-linecap:square;"/>
   </g>
   <g id="line2d_28">
    <path clip-path="url(#p798b6c029c)" d="M 43.175 168.30295 
L 53.8314 176.073486 
L 62.489725 182.701378 
L 75.1442 192.402574 
L 83.802525 198.694889 
L 95.12495 206.917899 
L 103.11725 213.044175 
L 116.43775 223.316828 
L 123.764025 228.621916 
L 136.4185 237.707239 
L 143.07875 242.839127 
L 157.7313 254.324582 
L 163.0595 258.135394 
L 178.378075 268.803018 
L 182.374225 271.980287 
L 187.0364 275.965418 
L 195.0287 282.861269 
L 197.6928 284.900502 
L 200.3569 286.665855 
L 202.354975 287.759839 
L 204.35305 288.622314 
L 206.351125 289.228421 
L 208.3492 289.560297 
L 210.347275 289.608026 
L 212.34535 289.370177 
L 214.343425 288.853872 
L 216.3415 288.074412 
L 218.339575 287.054454 
L 220.33765 285.822813 
L 223.00175 283.909637 
L 226.331875 281.205257 
L 233.65815 274.803624 
L 238.320325 270.893539 
L 242.316475 267.799021 
L 246.97865 264.468461 
L 262.297225 253.829645 
L 268.29145 249.207841 
L 282.944 237.707239 
L 289.60425 232.862333 
L 304.2568 222.321692 
L 312.2491 216.170844 
L 324.23755 206.917899 
L 332.22985 201.079288 
L 345.55035 191.408105 
L 354.208675 184.772785 
L 366.197125 175.575736 
L 374.85545 169.259507 
L 386.8439 160.532415 
L 395.502225 153.904523 
L 408.1567 144.203327 
L 416.815025 137.911012 
L 428.13745 129.688002 
L 436.12975 123.561726 
L 449.45025 113.289073 
L 456.776525 107.983985 
L 469.431 98.898662 
L 476.09125 93.766774 
L 490.7438 82.281319 
L 496.072 78.470507 
L 511.390575 67.802883 
L 515.386725 64.625614 
L 520.0489 60.640483 
L 528.0412 53.744632 
L 530.7053 51.705399 
L 533.3694 49.940046 
L 535.367475 48.846062 
L 537.36555 47.983587 
L 539.363625 47.37748 
L 541.3617 47.045604 
L 543.359775 46.997875 
L 545.35785 47.235724 
L 547.355925 47.752029 
L 549.354 48.531489 
L 551.352075 49.551447 
L 553.35015 50.783088 
L 556.01425 52.696264 
L 559.344375 55.400644 
L 566.67065 61.802277 
L 571.332825 65.712362 
L 575.328975 68.80688 
L 579.99115 72.13744 
L 595.309725 82.776256 
L 601.30395 87.39806 
L 615.9565 98.898662 
L 622.61675 103.743568 
L 637.2693 114.284209 
L 645.2616 120.435057 
L 657.25005 129.688002 
L 665.24235 135.526613 
L 678.56285 145.197796 
L 687.221175 151.833116 
L 699.209625 161.030165 
L 707.86795 167.346394 
L 709.2 168.30295 
L 709.2 168.30295 
" style="fill:none;stroke:#a52a2a;stroke-linecap:square;"/>
   </g>
   <g id="line2d_29">
    <path clip-path="url(#p798b6c029c)" d="M 43.175 168.30295 
L 52.49935 175.257688 
L 63.15575 183.251184 
L 73.146125 190.689546 
L 83.802525 198.68803 
L 93.7929 206.120492 
L 104.4493 214.125773 
L 114.439675 221.550001 
L 124.43005 229.07936 
L 135.08645 236.977058 
L 145.076825 244.524102 
L 155.0672 251.885305 
L 165.7236 259.977014 
L 175.04795 266.770758 
L 186.370375 275.449075 
L 194.362675 281.047647 
L 197.6928 283.790841 
L 203.021 288.340448 
L 205.019075 289.717982 
L 206.351125 290.422102 
L 207.683175 290.912908 
L 209.015225 291.164983 
L 210.347275 291.164983 
L 211.679325 290.912908 
L 213.011375 290.422102 
L 214.343425 289.717982 
L 216.3415 288.340448 
L 219.0056 286.127987 
L 224.3338 281.570294 
L 227.663925 279.086166 
L 237.6543 272.029347 
L 249.64275 262.820636 
L 258.301075 256.527468 
L 271.621575 246.448702 
L 279.613875 240.560614 
L 292.26835 231.01758 
L 300.926675 224.608804 
L 312.915125 215.58432 
L 322.9055 208.155651 
L 333.5619 200.150031 
L 343.552275 192.721298 
L 354.8747 184.226926 
L 364.865075 176.780695 
L 375.521475 168.791001 
L 385.51185 161.348213 
L 396.16825 153.354717 
L 406.158625 145.916355 
L 416.815025 137.917871 
L 426.8054 130.485409 
L 437.4618 122.480128 
L 447.452175 115.0559 
L 457.44255 107.526541 
L 468.09895 99.628843 
L 478.089325 92.081799 
L 488.0797 84.720596 
L 498.7361 76.628887 
L 508.06045 69.835143 
L 519.382875 61.156826 
L 527.375175 55.558254 
L 530.7053 52.81506 
L 536.0335 48.265453 
L 538.031575 46.887919 
L 539.363625 46.183799 
L 540.695675 45.692993 
L 542.027725 45.440918 
L 543.359775 45.440918 
L 544.691825 45.692993 
L 546.023875 46.183799 
L 547.355925 46.887919 
L 549.354 48.265453 
L 552.0181 50.477914 
L 557.3463 55.035607 
L 560.676425 57.519735 
L 570.6668 64.576554 
L 582.65525 73.785265 
L 591.313575 80.078433 
L 604.634075 90.157199 
L 612.626375 96.045287 
L 625.28085 105.588321 
L 633.939175 111.997097 
L 645.927625 121.02158 
L 655.918 128.45025 
L 666.5744 136.45587 
L 676.564775 143.884603 
L 687.8872 152.378975 
L 697.877575 159.825206 
L 708.533975 167.8149 
L 709.2 168.30295 
L 709.2 168.30295 
" style="fill:none;stroke:#000000;stroke-linecap:square;"/>
   </g>
   <g id="line2d_30">
    <path clip-path="url(#p798b6c029c)" d="M 43.175 168.30295 
L 60.49165 181.258536 
L 107.1134 216.087404 
L 141.080675 241.480757 
L 155.733225 252.466966 
L 173.049875 265.387929 
L 178.378075 269.370298 
L 183.04025 272.84509 
L 188.36845 276.849858 
L 193.030625 280.293182 
L 197.6928 283.877591 
L 202.354975 287.171974 
L 207.683175 291.433539 
L 209.015225 291.921134 
L 209.68125 291.984577 
L 210.347275 291.921134 
L 211.679325 291.433539 
L 213.011375 290.556495 
L 215.675475 288.282116 
L 217.67355 286.656169 
L 221.003675 284.3399 
L 223.667775 282.400467 
L 230.328025 277.322945 
L 234.9902 273.880194 
L 240.3184 269.851517 
L 246.312625 265.387929 
L 251.640825 261.410369 
L 257.63505 256.909256 
L 270.289525 247.444979 
L 288.2722 234.01774 
L 302.258725 223.557448 
L 318.90935 211.121182 
L 334.89395 199.173944 
L 351.544575 186.715214 
L 385.51185 161.325159 
L 405.4926 146.384608 
L 435.463725 123.977933 
L 512.722625 66.270779 
L 517.3848 62.725707 
L 521.38095 59.756043 
L 526.043125 56.312719 
L 530.7053 52.72831 
L 535.367475 49.433927 
L 540.695675 45.172361 
L 542.027725 44.684767 
L 542.69375 44.621324 
L 543.359775 44.684767 
L 544.691825 45.172361 
L 546.023875 46.049406 
L 548.687975 48.323785 
L 550.68605 49.949732 
L 554.016175 52.266 
L 556.680275 54.205434 
L 563.340525 59.282956 
L 568.0027 62.725707 
L 573.3309 66.754384 
L 579.325125 71.217972 
L 584.653325 75.195532 
L 590.64755 79.696645 
L 603.302025 89.160922 
L 621.2847 102.588161 
L 635.271225 113.048453 
L 651.92185 125.484719 
L 667.90645 137.431957 
L 684.557075 149.890687 
L 709.2 168.30295 
L 709.2 168.30295 
" style="fill:none;stroke:#000000;stroke-linecap:square;stroke-opacity:0.4;"/>
   </g>
   <g id="line2d_31">
    <path clip-path="url(#p798b6c029c)" d="M 43.175 168.30295 
L 83.802525 198.67667 
L 134.420425 236.51353 
L 163.725525 258.412582 
L 207.01715 290.818877 
L 208.3492 291.903604 
L 209.015225 292.253432 
L 209.68125 292.378628 
L 210.347275 292.253432 
L 211.0133 291.903604 
L 212.34535 290.818877 
L 214.343425 289.235147 
L 217.007525 287.32633 
L 220.33765 284.811223 
L 223.667775 282.297049 
L 314.247175 214.607769 
L 372.857375 170.79472 
L 416.815025 137.929231 
L 467.432925 100.092371 
L 496.738025 78.193319 
L 540.02965 45.787024 
L 541.3617 44.702297 
L 542.027725 44.352469 
L 542.69375 44.227273 
L 543.359775 44.352469 
L 544.0258 44.702297 
L 545.35785 45.787024 
L 547.355925 47.370754 
L 550.020025 49.279571 
L 553.35015 51.794678 
L 556.680275 54.308852 
L 647.259675 121.998132 
L 705.869875 165.811181 
L 709.2 168.30295 
L 709.2 168.30295 
" style="fill:none;stroke:#ff0000;stroke-linecap:square;"/>
   </g>
   <g id="patch_3">
    <path d="M 43.175 305.2 
L 43.175 31.8 
" style="fill:none;stroke:#000000;stroke-linecap:square;stroke-linejoin:miter;stroke-width:0.8;"/>
   </g>
   <g id="patch_4">
    <path d="M 709.2 305.2 
L 709.2 31.8 
" style="fill:none;stroke:#000000;stroke-linecap:square;stroke-linejoin:miter;stroke-width:0.8;"/>
   </g>
   <g id="patch_5">
    <path d="M 43.175 305.2 
L 709.2 305.2 
" style="fill:none;stroke:#000000;stroke-linecap:square;stroke-linejoin:miter;stroke-width:0.8;"/>
   </g>
   <g id="patch_6">
    <path d="M 43.175 31.8 
L 709.2 31.8 
" style="fill:none;stroke:#000000;stroke-linecap:square;stroke-linejoin:miter;stroke-width:0.8;"/>
   </g>
   <g id="text_13">
    <!-- Reconstruction of a Triangular Wave from Fourier Series Coefficients -->
    <g transform="translate(35.029687 25.8)scale(0.2 -0.2)">
     <defs>
      <path d="M 44.390625 34.1875 
Q 47.5625 33.109375 50.5625 29.59375 
Q 53.5625 26.078125 56.59375 19.921875 
L 66.609375 0 
L 56 0 
L 46.6875 18.703125 
Q 43.0625 26.03125 39.671875 28.421875 
Q 36.28125 30.8125 30.421875 30.8125 
L 19.671875 30.8125 
L 19.671875 0 
L 9.8125 0 
L 9.8125 72.90625 
L 32.078125 72.90625 
Q 44.578125 72.90625 50.734375 67.671875 
Q 56.890625 62.453125 56.890625 51.90625 
Q 56.890625 45.015625 53.6875 40.46875 
Q 50.484375 35.9375 44.390625 34.1875 
z
M 19.671875 64.796875 
L 19.671875 38.921875 
L 32.078125 38.921875 
Q 39.203125 38.921875 42.84375 42.21875 
Q 46.484375 45.515625 46.484375 51.90625 
Q 46.484375 58.296875 42.84375 61.546875 
Q 39.203125 64.796875 32.078125 64.796875 
z
" id="DejaVuSans-82"/>
      <path d="M 30.609375 48.390625 
Q 23.390625 48.390625 19.1875 42.75 
Q 14.984375 37.109375 14.984375 27.296875 
Q 14.984375 17.484375 19.15625 11.84375 
Q 23.34375 6.203125 30.609375 6.203125 
Q 37.796875 6.203125 41.984375 11.859375 
Q 46.1875 17.53125 46.1875 27.296875 
Q 46.1875 37.015625 41.984375 42.703125 
Q 37.796875 48.390625 30.609375 48.390625 
z
M 30.609375 56 
Q 42.328125 56 49.015625 48.375 
Q 55.71875 40.765625 55.71875 27.296875 
Q 55.71875 13.875 49.015625 6.21875 
Q 42.328125 -1.421875 30.609375 -1.421875 
Q 18.84375 -1.421875 12.171875 6.21875 
Q 5.515625 13.875 5.515625 27.296875 
Q 5.515625 40.765625 12.171875 48.375 
Q 18.84375 56 30.609375 56 
z
" id="DejaVuSans-111"/>
      <path d="M 54.890625 33.015625 
L 54.890625 0 
L 45.90625 0 
L 45.90625 32.71875 
Q 45.90625 40.484375 42.875 44.328125 
Q 39.84375 48.1875 33.796875 48.1875 
Q 26.515625 48.1875 22.3125 43.546875 
Q 18.109375 38.921875 18.109375 30.90625 
L 18.109375 0 
L 9.078125 0 
L 9.078125 54.6875 
L 18.109375 54.6875 
L 18.109375 46.1875 
Q 21.34375 51.125 25.703125 53.5625 
Q 30.078125 56 35.796875 56 
Q 45.21875 56 50.046875 50.171875 
Q 54.890625 44.34375 54.890625 33.015625 
z
" id="DejaVuSans-110"/>
      <path d="M 18.3125 70.21875 
L 18.3125 54.6875 
L 36.8125 54.6875 
L 36.8125 47.703125 
L 18.3125 47.703125 
L 18.3125 18.015625 
Q 18.3125 11.328125 20.140625 9.421875 
Q 21.96875 7.515625 27.59375 7.515625 
L 36.8125 7.515625 
L 36.8125 0 
L 27.59375 0 
Q 17.1875 0 13.234375 3.875 
Q 9.28125 7.765625 9.28125 18.015625 
L 9.28125 47.703125 
L 2.6875 47.703125 
L 2.6875 54.6875 
L 9.28125 54.6875 
L 9.28125 70.21875 
z
" id="DejaVuSans-116"/>
      <path d="M 41.109375 46.296875 
Q 39.59375 47.171875 37.8125 47.578125 
Q 36.03125 48 33.890625 48 
Q 26.265625 48 22.1875 43.046875 
Q 18.109375 38.09375 18.109375 28.8125 
L 18.109375 0 
L 9.078125 0 
L 9.078125 54.6875 
L 18.109375 54.6875 
L 18.109375 46.1875 
Q 20.953125 51.171875 25.484375 53.578125 
Q 30.03125 56 36.53125 56 
Q 37.453125 56 38.578125 55.875 
Q 39.703125 55.765625 41.0625 55.515625 
z
" id="DejaVuSans-114"/>
      <path d="M 8.5 21.578125 
L 8.5 54.6875 
L 17.484375 54.6875 
L 17.484375 21.921875 
Q 17.484375 14.15625 20.5 10.265625 
Q 23.53125 6.390625 29.59375 6.390625 
Q 36.859375 6.390625 41.078125 11.03125 
Q 45.3125 15.671875 45.3125 23.6875 
L 45.3125 54.6875 
L 54.296875 54.6875 
L 54.296875 0 
L 45.3125 0 
L 45.3125 8.40625 
Q 42.046875 3.421875 37.71875 1 
Q 33.40625 -1.421875 27.6875 -1.421875 
Q 18.265625 -1.421875 13.375 4.4375 
Q 8.5 10.296875 8.5 21.578125 
z
M 31.109375 56 
z
" id="DejaVuSans-117"/>
      <path d="M 37.109375 75.984375 
L 37.109375 68.5 
L 28.515625 68.5 
Q 23.6875 68.5 21.796875 66.546875 
Q 19.921875 64.59375 19.921875 59.515625 
L 19.921875 54.6875 
L 34.71875 54.6875 
L 34.71875 47.703125 
L 19.921875 47.703125 
L 19.921875 0 
L 10.890625 0 
L 10.890625 47.703125 
L 2.296875 47.703125 
L 2.296875 54.6875 
L 10.890625 54.6875 
L 10.890625 58.5 
Q 10.890625 67.625 15.140625 71.796875 
Q 19.390625 75.984375 28.609375 75.984375 
z
" id="DejaVuSans-102"/>
      <path d="M 34.28125 27.484375 
Q 23.390625 27.484375 19.1875 25 
Q 14.984375 22.515625 14.984375 16.5 
Q 14.984375 11.71875 18.140625 8.90625 
Q 21.296875 6.109375 26.703125 6.109375 
Q 34.1875 6.109375 38.703125 11.40625 
Q 43.21875 16.703125 43.21875 25.484375 
L 43.21875 27.484375 
z
M 52.203125 31.203125 
L 52.203125 0 
L 43.21875 0 
L 43.21875 8.296875 
Q 40.140625 3.328125 35.546875 0.953125 
Q 30.953125 -1.421875 24.3125 -1.421875 
Q 15.921875 -1.421875 10.953125 3.296875 
Q 6 8.015625 6 15.921875 
Q 6 25.140625 12.171875 29.828125 
Q 18.359375 34.515625 30.609375 34.515625 
L 43.21875 34.515625 
L 43.21875 35.40625 
Q 43.21875 41.609375 39.140625 45 
Q 35.0625 48.390625 27.6875 48.390625 
Q 23 48.390625 18.546875 47.265625 
Q 14.109375 46.140625 10.015625 43.890625 
L 10.015625 52.203125 
Q 14.9375 54.109375 19.578125 55.046875 
Q 24.21875 56 28.609375 56 
Q 40.484375 56 46.34375 49.84375 
Q 52.203125 43.703125 52.203125 31.203125 
z
" id="DejaVuSans-97"/>
      <path d="M 45.40625 27.984375 
Q 45.40625 37.75 41.375 43.109375 
Q 37.359375 48.484375 30.078125 48.484375 
Q 22.859375 48.484375 18.828125 43.109375 
Q 14.796875 37.75 14.796875 27.984375 
Q 14.796875 18.265625 18.828125 12.890625 
Q 22.859375 7.515625 30.078125 7.515625 
Q 37.359375 7.515625 41.375 12.890625 
Q 45.40625 18.265625 45.40625 27.984375 
z
M 54.390625 6.78125 
Q 54.390625 -7.171875 48.1875 -13.984375 
Q 42 -20.796875 29.203125 -20.796875 
Q 24.46875 -20.796875 20.265625 -20.09375 
Q 16.0625 -19.390625 12.109375 -17.921875 
L 12.109375 -9.1875 
Q 16.0625 -11.328125 19.921875 -12.34375 
Q 23.78125 -13.375 27.78125 -13.375 
Q 36.625 -13.375 41.015625 -8.765625 
Q 45.40625 -4.15625 45.40625 5.171875 
L 45.40625 9.625 
Q 42.625 4.78125 38.28125 2.390625 
Q 33.9375 0 27.875 0 
Q 17.828125 0 11.671875 7.65625 
Q 5.515625 15.328125 5.515625 27.984375 
Q 5.515625 40.671875 11.671875 48.328125 
Q 17.828125 56 27.875 56 
Q 33.9375 56 38.28125 53.609375 
Q 42.625 51.21875 45.40625 46.390625 
L 45.40625 54.6875 
L 54.390625 54.6875 
z
" id="DejaVuSans-103"/>
      <path d="M 9.421875 75.984375 
L 18.40625 75.984375 
L 18.40625 0 
L 9.421875 0 
z
" id="DejaVuSans-108"/>
      <path d="M 3.328125 72.90625 
L 13.28125 72.90625 
L 28.609375 11.28125 
L 43.890625 72.90625 
L 54.984375 72.90625 
L 70.3125 11.28125 
L 85.59375 72.90625 
L 95.609375 72.90625 
L 77.296875 0 
L 64.890625 0 
L 49.515625 63.28125 
L 33.984375 0 
L 21.578125 0 
z
" id="DejaVuSans-87"/>
      <path d="M 2.984375 54.6875 
L 12.5 54.6875 
L 29.59375 8.796875 
L 46.6875 54.6875 
L 56.203125 54.6875 
L 35.6875 0 
L 23.484375 0 
z
" id="DejaVuSans-118"/>
      <path d="M 9.8125 72.90625 
L 51.703125 72.90625 
L 51.703125 64.59375 
L 19.671875 64.59375 
L 19.671875 43.109375 
L 48.578125 43.109375 
L 48.578125 34.8125 
L 19.671875 34.8125 
L 19.671875 0 
L 9.8125 0 
z
" id="DejaVuSans-70"/>
      <path d="M 53.515625 70.515625 
L 53.515625 60.890625 
Q 47.90625 63.578125 42.921875 64.890625 
Q 37.9375 66.21875 33.296875 66.21875 
Q 25.25 66.21875 20.875 63.09375 
Q 16.5 59.96875 16.5 54.203125 
Q 16.5 49.359375 19.40625 46.890625 
Q 22.3125 44.4375 30.421875 42.921875 
L 36.375 41.703125 
Q 47.40625 39.59375 52.65625 34.296875 
Q 57.90625 29 57.90625 20.125 
Q 57.90625 9.515625 50.796875 4.046875 
Q 43.703125 -1.421875 29.984375 -1.421875 
Q 24.8125 -1.421875 18.96875 -0.25 
Q 13.140625 0.921875 6.890625 3.21875 
L 6.890625 13.375 
Q 12.890625 10.015625 18.65625 8.296875 
Q 24.421875 6.59375 29.984375 6.59375 
Q 38.421875 6.59375 43.015625 9.90625 
Q 47.609375 13.234375 47.609375 19.390625 
Q 47.609375 24.75 44.3125 27.78125 
Q 41.015625 30.8125 33.5 32.328125 
L 27.484375 33.5 
Q 16.453125 35.6875 11.515625 40.375 
Q 6.59375 45.0625 6.59375 53.421875 
Q 6.59375 63.09375 13.40625 68.65625 
Q 20.21875 74.21875 32.171875 74.21875 
Q 37.3125 74.21875 42.625 73.28125 
Q 47.953125 72.359375 53.515625 70.515625 
z
" id="DejaVuSans-83"/>
      <path d="M 64.40625 67.28125 
L 64.40625 56.890625 
Q 59.421875 61.53125 53.78125 63.8125 
Q 48.140625 66.109375 41.796875 66.109375 
Q 29.296875 66.109375 22.65625 58.46875 
Q 16.015625 50.828125 16.015625 36.375 
Q 16.015625 21.96875 22.65625 14.328125 
Q 29.296875 6.6875 41.796875 6.6875 
Q 48.140625 6.6875 53.78125 8.984375 
Q 59.421875 11.28125 64.40625 15.921875 
L 64.40625 5.609375 
Q 59.234375 2.09375 53.4375 0.328125 
Q 47.65625 -1.421875 41.21875 -1.421875 
Q 24.65625 -1.421875 15.125 8.703125 
Q 5.609375 18.84375 5.609375 36.375 
Q 5.609375 53.953125 15.125 64.078125 
Q 24.65625 74.21875 41.21875 74.21875 
Q 47.75 74.21875 53.53125 72.484375 
Q 59.328125 70.75 64.40625 67.28125 
z
" id="DejaVuSans-67"/>
     </defs>
     <use xlink:href="#DejaVuSans-82"/>
     <use x="64.982422" xlink:href="#DejaVuSans-101"/>
     <use x="126.505859" xlink:href="#DejaVuSans-99"/>
     <use x="181.486328" xlink:href="#DejaVuSans-111"/>
     <use x="242.667969" xlink:href="#DejaVuSans-110"/>
     <use x="306.046875" xlink:href="#DejaVuSans-115"/>
     <use x="358.146484" xlink:href="#DejaVuSans-116"/>
     <use x="397.355469" xlink:href="#DejaVuSans-114"/>
     <use x="438.46875" xlink:href="#DejaVuSans-117"/>
     <use x="501.847656" xlink:href="#DejaVuSans-99"/>
     <use x="556.828125" xlink:href="#DejaVuSans-116"/>
     <use x="596.037109" xlink:href="#DejaVuSans-105"/>
     <use x="623.820312" xlink:href="#DejaVuSans-111"/>
     <use x="685.001953" xlink:href="#DejaVuSans-110"/>
     <use x="748.380859" xlink:href="#DejaVuSans-32"/>
     <use x="780.167969" xlink:href="#DejaVuSans-111"/>
     <use x="841.349609" xlink:href="#DejaVuSans-102"/>
     <use x="876.554688" xlink:href="#DejaVuSans-32"/>
     <use x="908.341797" xlink:href="#DejaVuSans-97"/>
     <use x="969.621094" xlink:href="#DejaVuSans-32"/>
     <use x="1001.408203" xlink:href="#DejaVuSans-84"/>
     <use x="1047.742188" xlink:href="#DejaVuSans-114"/>
     <use x="1088.855469" xlink:href="#DejaVuSans-105"/>
     <use x="1116.638672" xlink:href="#DejaVuSans-97"/>
     <use x="1177.917969" xlink:href="#DejaVuSans-110"/>
     <use x="1241.296875" xlink:href="#DejaVuSans-103"/>
     <use x="1304.773438" xlink:href="#DejaVuSans-117"/>
     <use x="1368.152344" xlink:href="#DejaVuSans-108"/>
     <use x="1395.935547" xlink:href="#DejaVuSans-97"/>
     <use x="1457.214844" xlink:href="#DejaVuSans-114"/>
     <use x="1498.328125" xlink:href="#DejaVuSans-32"/>
     <use x="1530.115234" xlink:href="#DejaVuSans-87"/>
     <use x="1622.617188" xlink:href="#DejaVuSans-97"/>
     <use x="1683.896484" xlink:href="#DejaVuSans-118"/>
     <use x="1743.076172" xlink:href="#DejaVuSans-101"/>
     <use x="1804.599609" xlink:href="#DejaVuSans-32"/>
     <use x="1836.386719" xlink:href="#DejaVuSans-102"/>
     <use x="1871.591797" xlink:href="#DejaVuSans-114"/>
     <use x="1910.455078" xlink:href="#DejaVuSans-111"/>
     <use x="1971.636719" xlink:href="#DejaVuSans-109"/>
     <use x="2069.048828" xlink:href="#DejaVuSans-32"/>
     <use x="2100.835938" xlink:href="#DejaVuSans-70"/>
     <use x="2154.730469" xlink:href="#DejaVuSans-111"/>
     <use x="2215.912109" xlink:href="#DejaVuSans-117"/>
     <use x="2279.291016" xlink:href="#DejaVuSans-114"/>
     <use x="2320.404297" xlink:href="#DejaVuSans-105"/>
     <use x="2348.1875" xlink:href="#DejaVuSans-101"/>
     <use x="2409.710938" xlink:href="#DejaVuSans-114"/>
     <use x="2450.824219" xlink:href="#DejaVuSans-32"/>
     <use x="2482.611328" xlink:href="#DejaVuSans-83"/>
     <use x="2546.087891" xlink:href="#DejaVuSans-101"/>
     <use x="2607.611328" xlink:href="#DejaVuSans-114"/>
     <use x="2648.724609" xlink:href="#DejaVuSans-105"/>
     <use x="2676.507812" xlink:href="#DejaVuSans-101"/>
     <use x="2738.03125" xlink:href="#DejaVuSans-115"/>
     <use x="2790.130859" xlink:href="#DejaVuSans-32"/>
     <use x="2821.917969" xlink:href="#DejaVuSans-67"/>
     <use x="2891.742188" xlink:href="#DejaVuSans-111"/>
     <use x="2952.923828" xlink:href="#DejaVuSans-101"/>
     <use x="3014.447266" xlink:href="#DejaVuSans-102"/>
     <use x="3049.652344" xlink:href="#DejaVuSans-102"/>
     <use x="3084.857422" xlink:href="#DejaVuSans-105"/>
     <use x="3112.640625" xlink:href="#DejaVuSans-99"/>
     <use x="3167.621094" xlink:href="#DejaVuSans-105"/>
     <use x="3195.404297" xlink:href="#DejaVuSans-101"/>
     <use x="3256.927734" xlink:href="#DejaVuSans-110"/>
     <use x="3320.306641" xlink:href="#DejaVuSans-116"/>
     <use x="3359.515625" xlink:href="#DejaVuSans-115"/>
    </g>
   </g>
   <g id="legend_1">
    <g id="line2d_32">
     <path d="M 55.775 50.137813 
L 83.775 50.137813 
" style="fill:none;stroke:#000000;stroke-linecap:square;"/>
    </g>
    <g id="line2d_33"/>
    <g id="text_14">
     <!-- $S_{1}$ -->
     <g transform="translate(94.975 55.037813)scale(0.14 -0.14)">
      <defs>
       <path d="M 60.296875 70.515625 
L 58.40625 60.890625 
Q 53.46875 63.53125 48.609375 64.875 
Q 43.75 66.21875 39.203125 66.21875 
Q 30.375 66.21875 25.140625 62.359375 
Q 19.921875 58.5 19.921875 52.09375 
Q 19.921875 48.578125 21.84375 46.703125 
Q 23.78125 44.828125 31.78125 42.671875 
L 37.703125 41.21875 
Q 47.703125 38.625 51.609375 34.640625 
Q 55.515625 30.671875 55.515625 23.484375 
Q 55.515625 12.453125 46.84375 5.515625 
Q 38.1875 -1.421875 24.03125 -1.421875 
Q 18.21875 -1.421875 12.359375 -0.265625 
Q 6.5 0.875 0.59375 3.21875 
L 2.59375 13.375 
Q 8.015625 10.015625 13.453125 8.296875 
Q 18.890625 6.59375 24.3125 6.59375 
Q 33.546875 6.59375 39.109375 10.6875 
Q 44.671875 14.796875 44.671875 21.390625 
Q 44.671875 25.78125 42.453125 28.046875 
Q 40.234375 30.328125 32.90625 32.171875 
L 27 33.6875 
Q 16.890625 36.328125 13.203125 39.765625 
Q 9.515625 43.21875 9.515625 49.421875 
Q 9.515625 60.296875 17.890625 67.25 
Q 26.265625 74.21875 39.703125 74.21875 
Q 44.921875 74.21875 50.046875 73.28125 
Q 55.171875 72.359375 60.296875 70.515625 
z
" id="DejaVuSans-Oblique-83"/>
      </defs>
      <use transform="translate(0 0.78125)" xlink:href="#DejaVuSans-Oblique-83"/>
      <use transform="translate(63.476562 -15.625)scale(0.7)" xlink:href="#DejaVuSans-49"/>
     </g>
    </g>
    <g id="line2d_34">
     <path d="M 55.775 70.687188 
L 83.775 70.687188 
" style="fill:none;stroke:#1f77b4;stroke-linecap:square;"/>
    </g>
    <g id="line2d_35"/>
    <g id="text_15">
     <!-- $S_{2}$ -->
     <g transform="translate(94.975 75.587188)scale(0.14 -0.14)">
      <use transform="translate(0 0.78125)" xlink:href="#DejaVuSans-Oblique-83"/>
      <use transform="translate(63.476562 -15.625)scale(0.7)" xlink:href="#DejaVuSans-50"/>
     </g>
    </g>
    <g id="line2d_36">
     <path d="M 55.775 91.236563 
L 83.775 91.236563 
" style="fill:none;stroke:#d62728;stroke-linecap:square;stroke-opacity:0.5;"/>
    </g>
    <g id="line2d_37"/>
    <g id="text_16">
     <!-- $S_{4}$ -->
     <g transform="translate(94.975 96.136563)scale(0.14 -0.14)">
      <use transform="translate(0 0.78125)" xlink:href="#DejaVuSans-Oblique-83"/>
      <use transform="translate(63.476562 -15.625)scale(0.7)" xlink:href="#DejaVuSans-52"/>
     </g>
    </g>
    <g id="line2d_38">
     <path d="M 55.775 111.785938 
L 83.775 111.785938 
" style="fill:none;stroke:#2ca02c;stroke-linecap:square;"/>
    </g>
    <g id="line2d_39"/>
    <g id="text_17">
     <!-- $S_{8}$ -->
     <g transform="translate(94.975 116.685938)scale(0.14 -0.14)">
      <use transform="translate(0 0.78125)" xlink:href="#DejaVuSans-Oblique-83"/>
      <use transform="translate(63.476562 -15.625)scale(0.7)" xlink:href="#DejaVuSans-56"/>
     </g>
    </g>
    <g id="line2d_40">
     <path d="M 138.515 50.137813 
L 166.515 50.137813 
" style="fill:none;stroke:#a52a2a;stroke-linecap:square;"/>
    </g>
    <g id="line2d_41"/>
    <g id="text_18">
     <!-- $S_{16}$ -->
     <g transform="translate(177.715 55.037813)scale(0.14 -0.14)">
      <use transform="translate(0 0.78125)" xlink:href="#DejaVuSans-Oblique-83"/>
      <use transform="translate(63.476562 -15.625)scale(0.7)" xlink:href="#DejaVuSans-49"/>
      <use transform="translate(108.012695 -15.625)scale(0.7)" xlink:href="#DejaVuSans-54"/>
     </g>
    </g>
    <g id="line2d_42">
     <path d="M 138.515 70.687188 
L 166.515 70.687188 
" style="fill:none;stroke:#000000;stroke-linecap:square;"/>
    </g>
    <g id="line2d_43"/>
    <g id="text_19">
     <!-- $S_{32}$ -->
     <g transform="translate(177.715 75.587188)scale(0.14 -0.14)">
      <defs>
       <path d="M 40.578125 39.3125 
Q 47.65625 37.796875 51.625 33 
Q 55.609375 28.21875 55.609375 21.1875 
Q 55.609375 10.40625 48.1875 4.484375 
Q 40.765625 -1.421875 27.09375 -1.421875 
Q 22.515625 -1.421875 17.65625 -0.515625 
Q 12.796875 0.390625 7.625 2.203125 
L 7.625 11.71875 
Q 11.71875 9.328125 16.59375 8.109375 
Q 21.484375 6.890625 26.8125 6.890625 
Q 36.078125 6.890625 40.9375 10.546875 
Q 45.796875 14.203125 45.796875 21.1875 
Q 45.796875 27.640625 41.28125 31.265625 
Q 36.765625 34.90625 28.71875 34.90625 
L 20.21875 34.90625 
L 20.21875 43.015625 
L 29.109375 43.015625 
Q 36.375 43.015625 40.234375 45.921875 
Q 44.09375 48.828125 44.09375 54.296875 
Q 44.09375 59.90625 40.109375 62.90625 
Q 36.140625 65.921875 28.71875 65.921875 
Q 24.65625 65.921875 20.015625 65.03125 
Q 15.375 64.15625 9.8125 62.3125 
L 9.8125 71.09375 
Q 15.4375 72.65625 20.34375 73.4375 
Q 25.25 74.21875 29.59375 74.21875 
Q 40.828125 74.21875 47.359375 69.109375 
Q 53.90625 64.015625 53.90625 55.328125 
Q 53.90625 49.265625 50.4375 45.09375 
Q 46.96875 40.921875 40.578125 39.3125 
z
" id="DejaVuSans-51"/>
      </defs>
      <use transform="translate(0 0.78125)" xlink:href="#DejaVuSans-Oblique-83"/>
      <use transform="translate(63.476562 -15.625)scale(0.7)" xlink:href="#DejaVuSans-51"/>
      <use transform="translate(108.012695 -15.625)scale(0.7)" xlink:href="#DejaVuSans-50"/>
     </g>
    </g>
    <g id="line2d_44">
     <path d="M 138.515 91.236563 
L 166.515 91.236563 
" style="fill:none;stroke:#000000;stroke-linecap:square;stroke-opacity:0.4;"/>
    </g>
    <g id="line2d_45"/>
    <g id="text_20">
     <!-- $S_{64}$ -->
     <g transform="translate(177.715 96.136563)scale(0.14 -0.14)">
      <use transform="translate(0 0.78125)" xlink:href="#DejaVuSans-Oblique-83"/>
      <use transform="translate(63.476562 -15.625)scale(0.7)" xlink:href="#DejaVuSans-54"/>
      <use transform="translate(108.012695 -15.625)scale(0.7)" xlink:href="#DejaVuSans-52"/>
     </g>
    </g>
    <g id="line2d_46">
     <path d="M 138.515 111.785938 
L 166.515 111.785938 
" style="fill:none;stroke:#ff0000;stroke-linecap:square;"/>
    </g>
    <g id="line2d_47"/>
    <g id="text_21">
     <!-- $S_{128}$ -->
     <g transform="translate(177.715 116.685938)scale(0.14 -0.14)">
      <use transform="translate(0 0.78125)" xlink:href="#DejaVuSans-Oblique-83"/>
      <use transform="translate(63.476562 -15.625)scale(0.7)" xlink:href="#DejaVuSans-49"/>
      <use transform="translate(108.012695 -15.625)scale(0.7)" xlink:href="#DejaVuSans-50"/>
      <use transform="translate(152.548828 -15.625)scale(0.7)" xlink:href="#DejaVuSans-56"/>
     </g>
    </g>
   </g>
  </g>
 </g>
 <defs>
  <clipPath id="p798b6c029c">
   <rect height="273.4" width="666.025" x="43.175" y="31.8"/>
  </clipPath>
 </defs>
</svg>
