<?xml version="1.0" encoding="UTF-8" standalone="no"?>
<!-- Created with matplotlib (https://matplotlib.org/) -->

<svg
   xmlns:dc="http://purl.org/dc/elements/1.1/"
   xmlns:cc="http://creativecommons.org/ns#"
   xmlns:rdf="http://www.w3.org/1999/02/22-rdf-syntax-ns#"
   xmlns:svg="http://www.w3.org/2000/svg"
   xmlns="http://www.w3.org/2000/svg"
   xmlns:sodipodi="http://sodipodi.sourceforge.net/DTD/sodipodi-0.dtd"
   xmlns:inkscape="http://www.inkscape.org/namespaces/inkscape"
   height="271.79999pt"
   version="1.1"
   viewBox="0 0 853.05048 271.79999"
   width="853.05048pt"
   id="svg45"
   sodipodi:docname="sinesums.svg"
   inkscape:version="0.92.4 (5da689c313, 2019-01-14)">
  <sodipodi:namedview
     pagecolor="#ffffff"
     bordercolor="#666666"
     borderopacity="1"
     objecttolerance="10"
     gridtolerance="10"
     guidetolerance="10"
     inkscape:pageopacity="0"
     inkscape:pageshadow="2"
     inkscape:window-width="1920"
     inkscape:window-height="1027"
     id="namedview47"
     showgrid="false"
     inkscape:zoom="0.73958333"
     inkscape:cx="312.33835"
     inkscape:cy="204.53132"
     inkscape:window-x="-8"
     inkscape:window-y="-8"
     inkscape:window-maximized="1"
     inkscape:current-layer="figure_1"
     fit-margin-top="0"
     fit-margin-left="0"
     fit-margin-right="0"
     fit-margin-bottom="0" />
  <metadata
     id="metadata2">
    <rdf:RDF>
      <cc:Work>
        <dc:type
           rdf:resource="http://purl.org/dc/dcmitype/StillImage" />
        <dc:date>2021-09-21T09:31:29.966941</dc:date>
        <dc:format>image/svg+xml</dc:format>
        <dc:creator>
          <cc:Agent>
            <dc:title>Matplotlib v3.3.4, https://matplotlib.org/</dc:title>
          </cc:Agent>
        </dc:creator>
        <dc:title></dc:title>
      </cc:Work>
    </rdf:RDF>
  </metadata>
  <defs
     id="defs6"
     style="stroke-linecap:butt;stroke-linejoin:round">
    <style
       type="text/css"
       id="style4">*{stroke-linecap:butt;stroke-linejoin:round;}</style>
    <clipPath
       id="peb3a1a3486-6"
       style="stroke-linecap:butt;stroke-linejoin:round">
      <rect
         height="271.79999"
         width="892.79999"
         x="144"
         y="43.200001"
         id="rect40-6"
         style="stroke-linecap:butt;stroke-linejoin:round" />
    </clipPath>
  </defs>
  <g
     id="figure_1"
     style="stroke-linecap:butt;stroke-linejoin:round"
     transform="translate(-9.02406,-10.63522)">
    <g
       transform="translate(-134.97594,-32.564781)"
       id="axes_1"
       style="stroke-linecap:butt;stroke-linejoin:round">
      <g
         id="line2d_1"
         style="stroke-linecap:butt;stroke-linejoin:round">
        <path
           inkscape:connector-curvature="0"
           clip-path="url(#peb3a1a3486-6)"
           d="m 144,110.99609 2.11025,4.65036 1.7856,3.4371 1.62328,2.66945 1.46094,1.99557 1.29862,1.42853 1.21746,1.03058 1.13629,0.68403 1.05512,0.39017 1.05513,0.15153 1.05513,-0.0881 1.05512,-0.32716 1.05513,-0.56404 1.13629,-0.86798 1.21746,-1.2223 1.29862,-1.62504 1.46094,-2.20434 1.62327,-2.88307 1.7856,-3.64586 2.0291,-4.6601 2.51607,-6.37518 3.5712,-9.732303 5.60029,-15.24158 2.51607,-6.191737 2.11026,-4.62781 1.7856,-3.414527 1.62327,-2.646537 1.46094,-1.973289 1.29862,-1.407667 1.21746,-1.010293 1.13629,-0.664631 1.05512,-0.371882 1.05513,-0.133115 1.05513,0.106539 1.05513,0.345483 1.05512,0.582123 1.13629,0.887059 1.21746,1.242115 1.29862,1.645272 1.46094,2.225744 1.62328,2.904829 1.7856,3.66696 2.11025,4.877006 2.51607,6.410678 3.73353,10.206087 5.19447,14.129346 2.59724,6.40129 2.11025,4.62781 1.7856,3.41453 1.62328,2.64654 1.46094,1.97329 1.29862,1.40766 1.21745,1.0103 1.1363,0.66463 1.05512,0.37188 1.05513,0.13312 1.05513,-0.10654 1.05512,-0.34549 1.05513,-0.58212 1.13629,-0.88706 1.21746,-1.24211 1.29862,-1.64528 1.46094,-2.22574 1.62327,-2.90483 1.7856,-3.66696 2.11026,-4.877 2.51607,-6.41068 3.73353,-10.206089 5.19447,-14.129351 2.59724,-6.40129 2.11025,-4.62781 1.7856,-3.414527 1.62328,-2.646537 1.46094,-1.973289 1.29862,-1.407667 1.21745,-1.010293 1.13629,-0.664631 1.05513,-0.371882 1.05513,-0.133115 1.05513,0.106539 1.05512,0.345483 1.05513,0.582123 1.13629,0.887059 1.21746,1.242115 1.29861,1.645272 1.46095,2.225744 1.62327,2.904829 1.7856,3.66696 2.11026,4.877006 2.51607,6.410678 3.73353,10.206087 5.19447,14.129346 2.59724,6.40129 2.11025,4.62781 1.7856,3.41453 1.62327,2.64654 1.46095,1.97329 1.29862,1.40766 1.21745,1.0103 1.13629,0.66463 1.05513,0.37188 1.05513,0.13312 1.05512,-0.10654 1.05513,-0.34549 1.05513,-0.58212 1.13629,-0.88706 1.21745,-1.24211 1.29862,-1.64528 1.46095,-2.22574 1.62327,-2.90483 1.7856,-3.66696 2.11025,-4.877 2.51608,-6.41068 3.73353,-10.206089 5.19447,-14.129351 2.59723,-6.40129 2.11026,-4.62781 1.7856,-3.414527 1.62327,-2.646537 1.46095,-1.973289 1.29861,-1.407667 1.21746,-1.010293 1.13629,-0.664631 1.05513,-0.371882 1.05512,-0.133115 1.05513,0.106539 1.05513,0.345483 1.05513,0.582123 1.13629,0.887059 1.21745,1.242115 1.29862,1.645272 1.46095,2.225744 1.62327,2.904829 1.7856,3.66696 2.11025,4.877006 2.51608,6.410678 3.73352,10.206087 5.19448,14.129346 2.59723,6.40129 2.11026,4.62781 1.7856,3.41453 1.62327,2.64654 1.46094,1.97329 1.29862,1.40766 1.21746,1.0103 1.13629,0.66463 1.05513,0.37188 1.05512,0.13312 1.05513,-0.10654 1.05513,-0.34549 1.05512,-0.58212 1.1363,-0.88706 1.21745,-1.24211 1.29862,-1.64528 1.46094,-2.22574 1.62328,-2.90483 1.7856,-3.66696 2.11025,-4.877 2.51607,-6.41068 3.73353,-10.206089 5.19447,-14.129351 2.59724,-6.40129 2.11025,-4.62781 1.7856,-3.414527 1.62328,-2.646537 1.46094,-1.973289 1.29862,-1.407667 1.21746,-1.010293 1.13629,-0.664631 1.05512,-0.371882 1.05513,-0.133115 1.05513,0.106539 1.05513,0.345483 1.05512,0.582123 1.1363,0.887059 1.21745,1.242115 1.29862,1.645272 1.46094,2.225744 1.62327,2.904829 1.7856,3.66696 2.11026,4.877006 2.51607,6.410678 3.73353,10.206087 5.19447,14.129346 2.59724,6.40129 2.11025,4.62781 1.7856,3.41453 1.62328,2.64654 1.46094,1.97329 1.29862,1.40766 1.21745,1.0103 1.1363,0.66463 1.05512,0.37188 1.05513,0.13312 1.05513,-0.10654 1.05513,-0.34549 1.05512,-0.58212 1.13629,-0.88706 1.21746,-1.24211 1.29862,-1.64528 1.46094,-2.22574 1.62327,-2.90483 1.7856,-3.66696 2.11026,-4.877 2.51607,-6.41068 3.73353,-10.206089 5.19447,-14.129351 2.59724,-6.40129 2.11025,-4.62781 1.7856,-3.414527 1.62327,-2.646537 1.46095,-1.973289 1.29862,-1.407667 1.21745,-1.010293 1.13629,-0.664631 1.05513,-0.371882 1.05513,-0.133115 1.05513,0.106539 1.05512,0.345483 1.05513,0.582123 1.13629,0.887059 1.21745,1.242115 1.29862,1.645272 1.46095,2.225744 1.62327,2.904829 1.7856,3.66696 2.11026,4.877006 2.51607,6.410678 3.73353,10.206087 5.19447,14.129346 2.43491,6.02192 v 0"
           style="fill:none;stroke:#1f77b4;stroke-width:1.5;stroke-linecap:square;stroke-linejoin:round"
           id="path11" />
      </g>
      <g
         id="line2d_2"
         style="stroke-linecap:butt;stroke-linejoin:round">
        <path
           inkscape:connector-curvature="0"
           clip-path="url(#peb3a1a3486-6)"
           d="m 144,138.28179 1.13629,-2.7244 0.97396,-1.76465 0.81164,-1.03685 0.73047,-0.5812 0.64931,-0.23025 0.56815,0.0217 0.56814,0.22981 0.64931,0.51516 0.73047,0.8951 0.81164,1.37272 0.97396,2.14255 1.05513,2.87668 1.29862,4.22162 1.62327,6.08552 2.92189,12.03298 2.43491,9.5985 1.54211,5.20729 1.21746,3.39193 1.05512,2.32285 0.8928,1.46885 0.81164,0.91466 0.64931,0.4329 0.64931,0.16235 0.56814,-0.0812 0.56815,-0.28902 0.64931,-0.58183 0.73047,-0.968 0.81164,-1.45004 0.97396,-2.22858 1.13629,-3.20842 1.37978,-4.63822 1.78561,-6.87985 5.60028,-22.26041 1.37979,-4.30038 1.13629,-2.86849 0.97396,-1.90125 0.81164,-1.15756 0.73047,-0.69352 0.64931,-0.33181 0.56814,-0.0677 0.56815,0.14073 0.64931,0.41457 0.64931,0.68112 0.81163,1.21551 0.8928,1.78242 1.05513,2.66206 1.21746,3.72998 1.46094,5.22626 2.11026,8.47086 3.81469,15.38456 1.54211,5.25408 1.21745,3.43907 1.05513,2.36961 0.8928,1.51172 0.81163,0.95554 0.64931,0.46647 0.64931,0.19632 0.56815,-0.0514 0.56814,-0.25944 0.64931,-0.54853 0.73048,-0.93163 0.81163,-1.41149 0.97397,-2.18574 1.13629,-3.16439 1.29861,-4.30533 1.70444,-6.48173 6.16844,-24.32408 1.29862,-3.88656 1.13629,-2.7244 0.97396,-1.76465 0.81164,-1.03685 0.73047,-0.5812 0.64931,-0.23025 0.56814,0.0217 0.56815,0.22981 0.64931,0.51516 0.73047,0.8951 0.81164,1.37272 0.97396,2.14255 1.05513,2.87668 1.29862,4.22162 1.62327,6.08552 2.92189,12.03298 2.43491,9.5985 1.54211,5.20729 1.21745,3.39193 1.05513,2.32285 0.8928,1.46885 0.81164,0.91466 0.64931,0.4329 0.6493,0.16235 0.56815,-0.0812 0.56815,-0.28902 0.6493,-0.58183 0.73048,-0.968 0.81163,-1.45004 0.97397,-2.22858 1.13629,-3.20842 1.37978,-4.63822 1.7856,-6.87985 5.60029,-22.26041 1.37978,-4.30038 1.1363,-2.86849 0.97396,-1.90125 0.81163,-1.15756 0.73048,-0.69352 0.64931,-0.33181 0.56814,-0.0677 0.56815,0.14073 0.64931,0.41457 0.6493,0.68112 0.81164,1.21551 0.8928,1.78242 1.05513,2.66206 1.21745,3.72998 1.46095,5.22626 2.11025,8.47086 3.81469,15.38456 1.54211,5.25408 1.21746,3.43907 1.05512,2.36961 0.8928,1.51172 0.81164,0.95554 0.64931,0.46647 0.64931,0.19632 0.56814,-0.0514 0.56815,-0.25944 0.64931,-0.54853 0.73047,-0.93163 0.81164,-1.41149 0.97396,-2.18574 1.13629,-3.16439 1.29862,-4.30533 1.70444,-6.48173 6.16844,-24.32408 1.29861,-3.88656 1.13629,-2.7244 0.97397,-1.76465 0.81163,-1.03685 0.73048,-0.5812 0.6493,-0.23025 0.56815,0.0217 0.56815,0.22981 0.6493,0.51516 0.73048,0.8951 0.81163,1.37272 0.97397,2.14255 1.05512,2.87668 1.29862,4.22162 1.62328,6.08552 2.92189,12.03298 2.43491,9.5985 1.54211,5.20729 1.21745,3.39193 1.05513,2.32285 0.8928,1.46885 0.81163,0.91466 0.64931,0.4329 0.64931,0.16235 0.56815,-0.0812 0.56814,-0.28902 0.64931,-0.58183 0.73047,-0.968 0.81164,-1.45004 0.97396,-2.22858 1.1363,-3.20842 1.37978,-4.63822 1.7856,-6.87985 5.60029,-22.26041 1.37978,-4.30038 1.13629,-2.86849 0.97396,-1.90125 0.81164,-1.15756 0.73047,-0.69352 0.64931,-0.33181 0.56815,-0.0677 0.56814,0.14073 0.64931,0.41457 0.64931,0.68112 0.81164,1.21551 0.8928,1.78242 1.05512,2.66206 1.21746,3.72998 1.46094,5.22626 2.11026,8.47086 3.81469,15.38456 1.54211,5.25408 1.21745,3.43907 1.05513,2.36961 0.8928,1.51172 0.81164,0.95554 0.64931,0.46647 0.64931,0.19632 0.56814,-0.0514 0.56815,-0.25944 0.64931,-0.54853 0.73047,-0.93163 0.81164,-1.41149 0.97396,-2.18574 1.13629,-3.16439 1.29862,-4.30533 1.70444,-6.48173 6.16843,-24.32408 1.29862,-3.88656 1.13629,-2.7244 0.97396,-1.76465 0.81164,-1.03685 0.73047,-0.5812 0.64931,-0.23025 0.56815,0.0217 0.56814,0.22981 0.64931,0.51516 0.73047,0.8951 0.81164,1.37272 0.97396,2.14255 1.05513,2.87668 1.29862,4.22162 1.62327,6.08552 2.92189,12.03298 2.43491,9.5985 1.54211,5.20729 1.21746,3.39193 1.05512,2.32285 0.8928,1.46885 0.81164,0.91466 0.64931,0.4329 0.64931,0.16235 0.56814,-0.0812 0.56815,-0.28902 0.64931,-0.58183 0.73047,-0.968 0.81164,-1.45004 0.97396,-2.22858 1.13629,-3.20842 1.37978,-4.63822 1.7856,-6.87985 5.60029,-22.26041 1.37979,-4.30038 1.13629,-2.86849 0.97396,-1.90125 0.81164,-1.15756 0.73047,-0.69352 0.64931,-0.33181 0.56814,-0.0677 0.56815,0.14073 0.64931,0.41457 0.64931,0.68112 0.81163,1.21551 0.89281,1.78242 1.05512,2.66206 1.21746,3.72998 1.46094,5.22626 2.11026,8.47086 3.81469,15.38456 1.54211,5.25408 1.21745,3.43907 1.05513,2.36961 0.8928,1.51172 0.81163,0.95554 0.64931,0.46647 0.64931,0.19632 0.56815,-0.0514 0.56814,-0.25944 0.64931,-0.54853 0.73047,-0.93163 0.81164,-1.41149 0.97396,-2.18574 1.1363,-3.16439 1.29861,-4.30533 1.70444,-6.48173 6.16844,-24.32408 1.29861,-3.88656 1.1363,-2.7244 0.97396,-1.76465 0.81164,-1.03685 0.73047,-0.5812 0.64931,-0.23025 0.56814,0.0217 0.56815,0.22981 0.64931,0.51516 0.73047,0.8951 0.81164,1.37272 0.97396,2.14255 1.05513,2.87668 1.29862,4.22162 1.62327,6.08552 2.92189,12.03298 2.43491,9.5985 1.54211,5.20729 1.21745,3.39193 1.05513,2.32285 0.8928,1.46885 0.81164,0.91466 0.64931,0.4329 0.6493,0.16235 0.56815,-0.0812 0.56814,-0.28902 0.64932,-0.58183 0.73047,-0.968 0.81163,-1.45004 0.97397,-2.22858 1.13629,-3.20842 1.37978,-4.63822 1.7856,-6.87985 5.60029,-22.26041 1.37978,-4.30038 1.13629,-2.86849 0.97397,-1.90125 0.81163,-1.15756 0.73048,-0.69352 0.6493,-0.33181 0.56815,-0.0677 0.56815,0.14073 0.64931,0.41457 0.64931,0.68112 0.81163,1.21551 0.8928,1.78242 1.05513,2.66206 1.21745,3.72998 1.46095,5.22626 2.11025,8.47086 3.81469,15.38456 1.54211,5.25408 1.21746,3.43907 1.05513,2.36961 0.89279,1.51172 0.81164,0.95554 0.64931,0.46647 0.64931,0.19632 0.56814,-0.0514 0.56815,-0.25944 0.64931,-0.54853 0.73047,-0.93163 0.81164,-1.41149 0.97396,-2.18574 1.13629,-3.16439 1.29862,-4.30533 1.70444,-6.48173 6.16843,-24.32408 1.21746,-3.6665 v 0"
           style="fill:none;stroke:#ff7f0e;stroke-width:1.5;stroke-linecap:square;stroke-linejoin:round"
           id="path14" />
      </g>
      <g
         id="line2d_3"
         style="stroke-linecap:butt;stroke-linejoin:round">
        <path
           inkscape:connector-curvature="0"
           clip-path="url(#peb3a1a3486-6)"
           d="m 144,218.69565 4.86982,23.48446 0.97396,3.15148 0.81164,1.88985 0.64931,0.97989 0.48698,0.40907 0.48698,0.12365 0.40582,-0.11624 0.48698,-0.40109 0.56815,-0.82177 0.6493,-1.3877 0.81164,-2.35983 0.97396,-3.63538 1.21746,-5.50336 2.19142,-11.22655 1.86676,-9.07575 1.13629,-4.52456 0.8928,-2.76228 0.73047,-1.64765 0.64931,-0.95952 0.48699,-0.39332 0.48698,-0.10771 0.40582,0.12952 0.48698,0.41683 0.56814,0.83964 0.64931,1.40705 0.81164,2.38184 0.97396,3.65751 1.21746,5.5229 2.19141,11.2349 1.86677,9.05474 1.13629,4.50057 0.8928,2.73873 0.73047,1.62607 0.64931,0.9391 0.48698,0.37756 0.48698,0.0918 0.40582,-0.14279 0.48698,-0.43256 0.56815,-0.85747 0.64931,-1.42636 0.81164,-2.40374 0.97396,-3.6795 1.21745,-5.54222 2.27259,-11.66112 1.7856,-8.61507 1.13629,-4.47641 0.8928,-2.71507 0.73047,-1.60441 0.64931,-0.91866 0.48698,-0.36177 0.48698,-0.0758 0.40582,0.15605 0.48698,0.44828 0.56815,0.87525 0.64931,1.44562 0.81163,2.42554 0.97397,3.70135 1.21745,5.56133 2.43491,12.49969 1.70444,8.1128 1.13629,4.37801 0.8928,2.61937 0.73047,1.51717 0.56815,0.75913 0.48698,0.34597 0.40582,0.0698 0.40581,-0.12951 0.48699,-0.41684 0.56814,-0.83963 0.64931,-1.40706 0.81164,-2.38183 0.97396,-3.65752 1.21745,-5.5229 2.19142,-11.2349 1.86677,-9.05474 1.13629,-4.50057 0.8928,-2.73873 0.73047,-1.62607 0.64931,-0.9391 0.48698,-0.37755 0.48698,-0.0918 0.40582,0.14279 0.48698,0.43257 0.56815,0.85746 0.64931,1.42637 0.81163,2.40373 0.97397,3.6795 1.21745,5.54223 2.27258,11.66111 1.7856,8.61507 1.13629,4.47641 0.8928,2.71507 0.73048,1.60441 0.64931,0.91866 0.48698,0.36177 0.48698,0.0758 0.40582,-0.15606 0.48698,-0.44827 0.56815,-0.87526 0.6493,-1.44562 0.81164,-2.42554 0.97396,-3.70135 1.21746,-5.56133 2.43491,-12.49969 1.70444,-8.1128 1.13629,-4.37801 0.8928,-2.61937 0.73047,-1.51717 0.56814,-0.75912 0.48699,-0.34598 0.40581,-0.0698 0.40582,0.12952 0.48698,0.41683 0.56815,0.83964 0.64931,1.40705 0.81163,2.38184 0.97397,3.65751 1.21745,5.5229 2.19142,11.2349 1.86676,9.05474 1.1363,4.50057 0.8928,2.73873 0.73047,1.62607 0.64931,0.9391 0.48698,0.37756 0.48698,0.0918 0.40582,-0.14279 0.48698,-0.43256 0.56815,-0.85747 0.64931,-1.42636 0.81163,-2.40374 0.97397,-3.6795 1.21745,-5.54222 2.27258,-11.66112 1.7856,-8.61507 1.13629,-4.47641 0.8928,-2.71507 0.73048,-1.60441 0.6493,-0.91866 0.48699,-0.36177 0.48698,-0.0758 0.40582,0.15605 0.48698,0.44828 0.56814,0.87525 0.64931,1.44562 0.81164,2.42554 0.97396,3.70135 1.21746,5.56133 2.43491,12.49969 1.70443,8.1128 1.13629,4.37801 0.8928,2.61937 0.73048,1.51717 0.56814,0.75913 0.48699,0.34597 0.40581,0.0698 0.40582,-0.12951 0.48698,-0.41684 0.56815,-0.83963 0.64931,-1.40706 0.81163,-2.38183 0.97397,-3.65752 1.21745,-5.5229 2.19142,-11.2349 1.86676,-9.05474 1.13629,-4.50057 0.89281,-2.73873 0.73047,-1.62607 0.64931,-0.9391 0.48698,-0.37755 0.48698,-0.0918 0.40582,0.14279 0.48698,0.43257 0.56815,0.85746 0.64931,1.42637 0.81163,2.40373 0.97397,3.6795 1.21745,5.54223 2.27258,11.66111 1.7856,8.61507 1.13629,4.47641 0.8928,2.71507 0.73047,1.60441 0.64931,0.91866 0.48699,0.36177 0.48698,0.0758 0.40581,-0.15606 0.48699,-0.44827 0.56814,-0.87526 0.64931,-1.44562 0.81164,-2.42554 0.97396,-3.70135 1.21746,-5.56133 2.4349,-12.49969 1.70444,-8.1128 1.13629,-4.37801 0.8928,-2.61937 0.73047,-1.51717 0.56815,-0.75912 0.48698,-0.34598 0.40582,-0.0698 0.40582,0.12952 0.48698,0.41683 0.56815,0.83964 0.64931,1.40705 0.81163,2.38184 0.97397,3.65751 1.21745,5.5229 2.19142,11.2349 1.86676,9.05474 1.13629,4.50057 0.8928,2.73873 0.73047,1.62607 0.64931,0.9391 0.48699,0.37756 0.48698,0.0918 0.40582,-0.14279 0.48698,-0.43256 0.56814,-0.85747 0.64931,-1.42636 0.81164,-2.40374 0.97396,-3.6795 1.21746,-5.54222 2.27258,-11.66112 1.7856,-8.61507 1.13629,-4.47641 0.8928,-2.71507 0.73047,-1.60441 0.64931,-0.91866 0.48698,-0.36177 0.48698,-0.0758 0.40582,0.15605 0.48698,0.44828 0.56815,0.87525 0.64931,1.44562 0.81164,2.42554 0.97396,3.70135 1.21745,5.56133 2.43491,12.49969 1.70444,8.1128 1.13629,4.37801 0.8928,2.61937 0.73047,1.51717 0.56815,0.75913 0.48698,0.34597 0.40582,0.0698 0.40582,-0.12951 0.48698,-0.41684 0.56814,-0.83963 0.64931,-1.40706 0.81164,-2.38183 0.97396,-3.65752 1.21746,-5.5229 2.19142,-11.2349 1.86676,-9.05474 1.13629,-4.50057 0.8928,-2.73873 0.73047,-1.62607 0.64931,-0.9391 0.48699,-0.37755 0.48698,-0.0918 0.40581,0.14279 0.48699,0.43257 0.56814,0.85746 0.64931,1.42637 0.81164,2.40373 0.97396,3.6795 1.21745,5.54223 2.27259,11.66111 1.7856,8.61507 1.13629,4.47641 0.8928,2.71507 0.73047,1.60441 0.64931,0.91866 0.48698,0.36177 0.48698,0.0758 0.40582,-0.15606 0.48698,-0.44827 0.56815,-0.87526 0.64931,-1.44562 0.81163,-2.42554 0.97397,-3.70135 1.21745,-5.56133 2.43491,-12.49969 1.70444,-8.1128 1.13629,-4.37801 0.8928,-2.61937 0.73047,-1.51717 0.56815,-0.75912 0.48698,-0.34598 0.40582,-0.0698 0.40581,0.12952 0.48699,0.41683 0.56814,0.83964 0.64931,1.40705 0.81164,2.38184 0.97396,3.65751 1.21746,5.5229 2.19141,11.2349 1.86677,9.05474 1.13629,4.50057 0.8928,2.73873 0.73047,1.62607 0.64931,0.9391 0.48698,0.37756 0.48699,0.0918 0.40581,-0.14279 0.48698,-0.43256 0.56815,-0.85747 0.64931,-1.42636 0.81163,-2.40374 0.97397,-3.6795 1.21745,-5.54222 2.27258,-11.66112 1.7856,-8.61507 1.1363,-4.47641 0.8928,-2.71507 0.73047,-1.60441 0.64931,-0.91866 0.48698,-0.36177 0.48698,-0.0758 0.40582,0.15605 0.48698,0.44828 0.56815,0.87525 0.64931,1.44562 0.81163,2.42554 0.97397,3.70135 1.21745,5.56133 2.43491,12.49969 1.70444,8.1128 1.13629,4.37801 0.8928,2.61937 0.73047,1.51717 0.56814,0.75913 0.48699,0.34597 0.40582,0.0698 0.40581,-0.12951 0.48698,-0.41684 0.56815,-0.83963 0.64931,-1.40706 0.81164,-2.38183 0.97396,-3.65752 1.21745,-5.5229 2.19142,-11.2349 1.86677,-9.05474 1.13629,-4.50057 0.8928,-2.73873 0.73047,-1.62607 0.64931,-0.9391 0.48698,-0.37755 0.48698,-0.0918 0.40582,0.14279 0.48698,0.43257 0.56815,0.85746 0.64931,1.42637 0.81163,2.40373 0.97397,3.6795 1.21745,5.54223 2.27258,11.66111 1.7856,8.61507 1.13629,4.47641 0.89281,2.71507 0.73047,1.60441 0.64931,0.91866 0.48698,0.36177 0.48698,0.0758 0.40582,-0.15606 0.48698,-0.44827 0.56814,-0.87526 0.64932,-1.44562 0.81163,-2.42554 0.97396,-3.70135 1.21746,-5.56133 2.43491,-12.49969 1.70444,-8.1128 1.13628,-4.37801 0.89281,-2.61937 0.73047,-1.51717 0.56814,-0.75912 0.48698,-0.34598 0.40582,-0.0698 0.40582,0.12952 0.48698,0.41683 0.56815,0.83964 0.64931,1.40705 0.81163,2.38184 0.97397,3.65751 1.21745,5.5229 2.19142,11.2349 1.86677,9.05474 1.13628,4.50057 0.89281,2.73873 0.73047,1.62607 0.64931,0.9391 0.48698,0.37756 0.48698,0.0918 0.40582,-0.14279 0.48698,-0.43256 0.56815,-0.85747 0.64931,-1.42636 0.81163,-2.40374 0.97396,-3.6795 1.21746,-5.54222 2.27258,-11.66112 1.7856,-8.61507 1.13629,-4.47641 0.8928,-2.71507 0.73047,-1.60441 0.64931,-0.91866 0.48699,-0.36177 0.48698,-0.0758 0.40582,0.15605 0.48698,0.44828 0.56814,0.87525 0.64931,1.44562 0.81164,2.42554 0.97396,3.70135 1.21746,5.56133 2.43491,12.49969 1.70443,8.1128 1.13629,4.37801 0.8928,2.61937 0.73048,1.51717 0.56814,0.75913 0.48698,0.34597 0.40582,0.0698 0.40582,-0.12951 0.48698,-0.41684 0.56815,-0.83963 0.64931,-1.40706 0.81163,-2.38183 0.97397,-3.65752 1.21745,-5.5229 2.19142,-11.2349 1.86676,-9.05474 1.13629,-4.50057 0.8928,-2.73873 0.73048,-1.62607 0.64931,-0.9391 0.48698,-0.37755 0.48698,-0.0918 0.40582,0.14279 0.48698,0.43257 0.56814,0.85746 0.64931,1.42637 0.81164,2.40373 0.97396,3.6795 1.21746,5.54223 v 0"
           style="fill:none;stroke:#2ca02c;stroke-width:1.5;stroke-linecap:square;stroke-linejoin:round"
           id="path17" />
      </g>
      <g
         id="line2d_4"
         style="stroke-linecap:butt;stroke-linejoin:round">
        <path
           inkscape:connector-curvature="0"
           clip-path="url(#peb3a1a3486-6)"
           d="m 144,284.67735 0.48698,0.0727 0.56815,0.3401 0.56814,0.60468 0.73047,1.13527 0.8928,1.8528 1.21746,3.10329 2.84073,7.4504 0.97396,1.8411 0.73047,0.94834 0.64931,0.48619 0.56815,0.13319 0.48698,-0.1067 0.56814,-0.37873 0.64931,-0.75308 0.73048,-1.21828 0.97396,-2.12849 1.37978,-3.6418 2.19142,-5.78771 0.97396,-1.98458 0.81164,-1.17612 0.64931,-0.57284 0.56814,-0.21205 0.48699,0.0387 0.48698,0.24159 0.56814,0.53063 0.64931,0.91375 0.81164,1.54753 1.05513,2.53007 3.89585,9.89628 0.81164,1.27114 0.64931,0.65804 0.56814,0.29039 0.48698,0.0293 0.48699,-0.17436 0.56814,-0.45526 0.64931,-0.83447 0.81164,-1.46335 0.97396,-2.24752 1.70444,-4.61788 1.70443,-4.39452 0.97397,-1.93797 0.73047,-1.03722 0.64931,-0.57284 0.56814,-0.21205 0.48699,0.0387 0.48698,0.24159 0.56814,0.53063 0.64931,0.91375 0.81164,1.54753 1.05513,2.53007 3.89585,9.89628 0.81164,1.27114 0.64931,0.65804 0.56814,0.29039 0.48698,0.0293 0.48698,-0.17436 0.56815,-0.45526 0.64931,-0.83447 0.81164,-1.46335 0.97396,-2.24752 1.70444,-4.61788 1.70443,-4.39452 0.97397,-1.93797 0.73047,-1.03722 0.64931,-0.57284 0.56814,-0.21205 0.48698,0.0387 0.48699,0.24159 0.56814,0.53063 0.64931,0.91375 0.81164,1.54753 1.05513,2.53007 3.89585,9.89628 0.81164,1.27114 0.6493,0.65804 0.56815,0.29039 0.48698,0.0293 0.48699,-0.17436 0.56814,-0.45526 0.64931,-0.83447 0.81163,-1.46335 0.97397,-2.24752 1.70443,-4.61788 1.70444,-4.39452 0.97396,-1.93797 0.73048,-1.03722 0.64931,-0.57284 0.56814,-0.21205 0.48698,0.0387 0.48699,0.24159 0.56814,0.53063 0.64931,0.91375 0.81164,1.54753 1.05512,2.53007 3.89586,9.89628 0.81163,1.27114 0.64931,0.65804 0.56815,0.29039 0.48698,0.0293 0.48698,-0.17436 0.56815,-0.45526 0.64931,-0.83447 0.81163,-1.46335 0.97397,-2.24752 1.70443,-4.61788 1.70444,-4.39452 0.97396,-1.93797 0.73048,-1.03722 0.64931,-0.57284 0.56814,-0.21205 0.48698,0.0387 0.48698,0.24159 0.56815,0.53063 0.64931,0.91375 0.81164,1.54753 1.05512,2.53007 3.89586,9.89628 0.81164,1.27114 0.6493,0.65804 0.56815,0.29039 0.48698,0.0293 0.48698,-0.17436 0.56815,-0.45526 0.64931,-0.83447 0.81163,-1.46335 0.97397,-2.24752 1.70443,-4.61788 1.70444,-4.39452 0.97396,-1.93797 0.73048,-1.03722 0.6493,-0.57284 0.56815,-0.21205 0.48698,0.0387 0.48699,0.24159 0.56814,0.53063 0.64931,0.91375 0.81163,1.54753 1.05513,2.53007 3.89586,9.89628 0.81163,1.27114 0.64931,0.65804 0.56815,0.29039 0.48698,0.0293 0.48698,-0.17436 0.56815,-0.45526 0.64931,-0.83447 0.81163,-1.46335 0.97397,-2.24752 1.70443,-4.61788 1.70444,-4.39452 0.97396,-1.93797 0.73048,-1.03722 0.6493,-0.57284 0.56815,-0.21205 0.48698,0.0387 0.48698,0.24159 0.56815,0.53063 0.64931,0.91375 0.81163,1.54753 1.05513,2.53007 3.89586,9.89628 0.81163,1.27114 0.64931,0.65804 0.56815,0.29039 0.48698,0.0293 0.48698,-0.17436 0.56815,-0.45526 0.64931,-0.83447 0.81163,-1.46335 0.97396,-2.24752 1.70444,-4.61788 1.70444,-4.39452 0.97396,-1.93797 0.73048,-1.03722 0.6493,-0.57284 0.56815,-0.21205 0.48698,0.0387 0.48698,0.24159 0.56815,0.53063 0.64931,0.91375 0.81163,1.54753 1.05513,2.53007 3.89586,9.89628 0.81163,1.27114 0.64931,0.65804 0.56815,0.29039 0.48698,0.0293 0.48698,-0.17436 0.56814,-0.45526 0.64931,-0.83447 0.81164,-1.46335 0.97396,-2.24752 1.70444,-4.61788 1.70444,-4.39452 0.97396,-1.93797 0.73047,-1.03722 0.64931,-0.57284 0.56815,-0.21205 0.48698,0.0387 0.48698,0.24159 0.56815,0.53063 0.64931,0.91375 0.81163,1.54753 1.05513,2.53007 3.89586,9.89628 0.81163,1.27114 0.64931,0.65804 0.56815,0.29039 0.48698,0.0293 0.48698,-0.17436 0.56814,-0.45526 0.64931,-0.83447 0.81164,-1.46335 0.97396,-2.24752 1.70444,-4.61788 1.70444,-4.39452 0.97396,-1.93797 0.73047,-1.03722 0.64931,-0.57284 0.56815,-0.21205 0.48698,0.0387 0.48698,0.24159 0.56815,0.53063 0.6493,0.91375 0.81164,1.54753 1.05513,2.53007 3.89585,9.89628 0.81164,1.27114 0.64931,0.65804 0.56814,0.29039 0.48699,0.0293 0.48698,-0.17436 0.56814,-0.45526 0.64931,-0.83447 0.81164,-1.46335 0.97396,-2.24752 1.70444,-4.61788 1.70444,-4.39452 0.97396,-1.93797 0.73047,-1.03722 0.64931,-0.57284 0.56815,-0.21205 0.48698,0.0387 0.48698,0.24159 0.56815,0.53063 0.6493,0.91375 0.81164,1.54753 1.05513,2.53007 3.89585,9.89628 0.81164,1.27114 0.64931,0.65804 0.56814,0.29039 0.48699,0.0293 0.48698,-0.17436 0.56814,-0.45526 0.64931,-0.83447 0.81164,-1.46335 0.97396,-2.24752 1.70444,-4.61788 1.70444,-4.39452 0.97396,-1.93797 0.73047,-1.03722 0.64931,-0.57284 0.56814,-0.21205 0.48699,0.0387 0.48698,0.24159 0.56815,0.53063 0.6493,0.91375 0.81164,1.54753 1.05513,2.53007 3.89585,9.89628 0.81164,1.27114 0.64931,0.65804 0.56814,0.29039 0.48699,0.0293 0.48698,-0.17436 0.56814,-0.45526 0.64931,-0.83447 0.81164,-1.46335 0.97396,-2.24752 1.70444,-4.61788 1.70443,-4.39452 0.97397,-1.93797 0.73047,-1.03722 0.64931,-0.57284 0.56814,-0.21205 0.48699,0.0387 0.48698,0.24159 0.56814,0.53063 0.64931,0.91375 0.81164,1.54753 1.05513,2.53007 3.89585,9.89628 0.81164,1.27114 0.64931,0.65804 0.56814,0.29039 0.48698,0.0293 0.48698,-0.17436 0.56815,-0.45526 0.64931,-0.83447 0.81164,-1.46335 0.97396,-2.24752 1.70444,-4.61788 1.70443,-4.39452 0.97397,-1.93797 0.73047,-1.03722 0.64931,-0.57284 0.56814,-0.21205 0.48698,0.0387 0.48699,0.24159 0.56814,0.53063 0.64931,0.91375 0.81164,1.54753 1.05512,2.53007 3.89586,9.89628 0.81164,1.27114 0.6493,0.65804 0.56815,0.29039 0.48698,0.0293 0.48698,-0.17436 0.56815,-0.45526 0.64931,-0.83447 0.81164,-1.46335 0.97396,-2.24752 1.70443,-4.61788 1.70444,-4.39452 0.97396,-1.93797 0.73048,-1.03722 0.64931,-0.57284 0.56814,-0.21205 0.48698,0.0387 0.48699,0.24159 0.56814,0.53063 0.64931,0.91375 0.81164,1.54753 1.05513,2.53007 3.89585,9.89628 0.81163,1.27114 0.64931,0.65804 0.56815,0.29039 0.48698,0.0293 0.48698,-0.17436 0.56815,-0.45526 0.64931,-0.83447 0.81164,-1.46335 0.97396,-2.24752 1.70443,-4.61788 1.70444,-4.39452 0.97396,-1.93797 0.73048,-1.03722 0.64931,-0.57284 0.56814,-0.21205 0.48698,0.0387 0.48698,0.24159 0.56815,0.53063 0.64931,0.91375 0.81164,1.54753 1.05512,2.53007 3.89586,9.89628 0.81163,1.27114 0.64931,0.65804 0.56815,0.29039 0.48698,0.0293 0.48698,-0.17436 0.56815,-0.45526 0.64931,-0.83447 0.81163,-1.46335 0.97397,-2.24752 1.70443,-4.61788 1.70444,-4.39452 0.97396,-1.93797 0.73048,-1.03722 0.64931,-0.57284 0.56814,-0.21205 0.48698,0.0387 0.48698,0.24159 0.56815,0.53063 0.64931,0.91375 0.81163,1.54753 1.05513,2.53007 3.89586,9.89628 0.81163,1.27114 0.64931,0.65804 0.56815,0.29039 0.48698,0.0293 0.48698,-0.17436 0.56815,-0.45526 0.64931,-0.83447 0.81163,-1.46335 0.97397,-2.24752 1.70443,-4.61788 1.70444,-4.39452 0.97396,-1.93797 0.73047,-1.03722 0.64932,-0.57284 0.56814,-0.21205 0.48698,0.0387 0.48698,0.24159 0.56815,0.53063 0.64931,0.91375 0.81164,1.54753 1.05512,2.53007 3.89586,9.89628 0.81163,1.27114 0.64931,0.65804 0.56815,0.29039 0.48698,0.0293 0.48698,-0.17436 0.56815,-0.45526 0.6493,-0.83447 0.81164,-1.46335 0.97397,-2.24752 1.70443,-4.61788 1.70444,-4.39452 0.97396,-1.93797 0.73047,-1.03722 0.64931,-0.57284 0.56815,-0.21205 0.48698,0.0387 0.48698,0.24159 0.56815,0.53063 0.64931,0.91375 0.81163,1.54753 1.05513,2.53007 3.89585,9.89628 0.81164,1.27114 0.64931,0.65804 0.56815,0.29039 0.48698,0.0293 0.48698,-0.17436 0.56815,-0.45526 0.64931,-0.83447 0.81163,-1.46335 0.97396,-2.24752 1.70444,-4.61788 1.70444,-4.39452 0.97396,-1.93797 0.73047,-1.03722 0.64931,-0.57284 0.56815,-0.21205 v 0"
           style="fill:none;stroke:#d62728;stroke-width:1.5;stroke-linecap:square;stroke-linejoin:round"
           id="path20" />
      </g>
      <g
         id="line2d_5"
         style="stroke-linecap:butt;stroke-linejoin:round">
        <path
           inkscape:connector-curvature="0"
           clip-path="url(#peb3a1a3486-6)"
           d="m 590.4,174.91782 0.81164,4.17152 0.97396,6.23866 1.29862,9.87468 4.05818,31.99596 1.05513,6.0129 0.81163,3.45848 0.64931,1.96451 0.56815,1.11489 0.48698,0.50716 0.40582,0.11276 0.40582,-0.15954 0.40581,-0.41948 0.48699,-0.82442 0.64931,-1.5897 0.81163,-2.64408 1.13629,-4.54827 2.84073,-11.75142 0.8928,-2.68896 0.73047,-1.55529 0.56815,-0.75401 0.48698,-0.31048 0.40582,-0.0175 0.40582,0.20103 0.48698,0.52316 0.56814,0.98014 0.73048,1.78978 0.8928,2.85254 1.37978,5.28922 1.86676,7.06296 0.8928,2.56653 0.64931,1.29207 0.48698,0.58153 0.40582,0.20079 0.32466,-0.0385 0.40581,-0.3101 0.40582,-0.61301 0.48698,-1.1486 0.56815,-1.92138 0.64931,-2.96564 0.81163,-4.83528 0.97397,-7.34559 1.13629,-10.39708 1.54211,-16.3579 4.05818,-44.18175 1.21745,-10.50146 1.05513,-7.27844 0.8928,-4.68442 0.73047,-2.78608 0.64931,-1.68324 0.56815,-0.87105 0.40582,-0.28772 0.40581,-0.018 0.40582,0.24234 0.48699,0.61936 0.56814,1.14983 0.64931,1.83475 0.81164,2.99394 0.97396,4.47546 1.21746,6.68118 1.62327,10.24915 2.59723,18.0672 3.5712,24.61615 1.62328,9.70178 1.29861,6.46635 0.97397,3.85405 0.81163,2.44064 0.73048,1.53113 0.56814,0.72562 0.48699,0.28512 0.40581,-0.005 0.40582,-0.22665 0.48698,-0.56452 0.56815,-1.05625 0.64931,-1.71363 0.81163,-2.8499 0.97397,-4.32453 1.29862,-6.90707 3.57119,-19.74118 0.97397,-3.88101 0.73047,-2.08833 0.56815,-1.05805 0.48698,-0.47888 0.40582,-0.0828 0.32465,0.14633 0.40582,0.45237 0.48698,0.93968 0.56815,1.63814 0.64931,2.56392 0.81163,4.17152 0.97397,6.23866 1.29862,9.87468 4.05818,31.99596 1.05512,6.0129 0.81164,3.45848 0.64931,1.96451 0.56814,1.11489 0.48699,0.50716 0.40581,0.11276 0.40582,-0.15954 0.40582,-0.41948 0.48698,-0.82442 0.64931,-1.5897 0.81164,-2.64408 1.13629,-4.54827 2.84073,-11.75142 0.8928,-2.68896 0.73047,-1.55529 0.56814,-0.75401 0.48699,-0.31048 0.40582,-0.0175 0.40581,0.20103 0.48698,0.52316 0.56815,0.98014 0.73047,1.78978 0.8928,2.85254 1.37978,5.28922 1.86677,7.06296 0.8928,2.56653 0.64931,1.29207 0.48698,0.58153 0.40582,0.20079 0.32465,-0.0385 0.40582,-0.3101 0.40582,-0.61301 0.48698,-1.1486 0.56815,-1.92138 0.64931,-2.96564 0.81163,-4.83528 0.97396,-7.34559 1.1363,-10.39708 1.5421,-16.3579 4.05819,-44.18175 1.21745,-10.50146 1.05513,-7.27844 0.8928,-4.68442 0.73047,-2.78608 0.64931,-1.68324 0.56815,-0.87105 0.40581,-0.28772 0.40582,-0.018 0.40582,0.24234 0.48698,0.61936 0.56815,1.14983 0.64931,1.83475 0.81163,2.99394 0.97397,4.47546 1.21745,6.68118 1.62327,10.24915 2.59724,18.0672 3.5712,24.61615 1.62327,9.70178 1.29862,6.46635 0.97396,3.85405 0.81164,2.44064 0.73047,1.53113 0.56815,0.72562 0.48698,0.28512 0.40582,-0.005 0.40582,-0.22665 0.48698,-0.56452 0.56815,-1.05625 0.6493,-1.71363 0.81164,-2.8499 0.97396,-4.32453 1.29862,-6.90707 3.5712,-19.74118 0.97397,-3.88101 0.73047,-2.08833 0.56814,-1.05805 0.48698,-0.47888 0.40582,-0.0828 0.32466,0.14633 0.40582,0.45237 0.48698,0.93968 0.56814,1.63814 0.64931,2.56392 0.81164,4.17152 0.97396,6.23866 1.29862,9.87468 4.05818,31.99596 1.05513,6.0129 0.81164,3.45848 0.64931,1.96451 0.56814,1.11489 0.48698,0.50716 0.40582,0.11276 0.40582,-0.15954 0.40582,-0.41948 0.48698,-0.82442 0.64931,-1.5897 0.81164,-2.64408 1.13628,-4.54827 2.84073,-11.75142 0.8928,-2.68896 0.73047,-1.55529 0.56815,-0.75401 0.48698,-0.31048 0.40582,-0.0175 0.40582,0.20103 0.48698,0.52316 0.56815,0.98014 0.73047,1.78978 0.8928,2.85254 1.37978,5.28922 1.86676,7.06296 0.89281,2.56653 0.6493,1.29207 0.48698,0.58153 0.40582,0.20079 0.32466,-0.0385 0.40582,-0.3101 0.40581,-0.61301 0.48699,-1.1486 0.56814,-1.92138 0.64931,-2.96564 0.81164,-4.83528 0.97396,-7.34559 1.13629,-10.39708 1.54211,-16.3579 4.05818,-44.18175 1.21746,-10.50146 1.05513,-7.27844 0.89279,-4.68442 0.73048,-2.78608 0.64931,-1.68324 0.56814,-0.87105 0.40582,-0.28772 0.40582,-0.018 0.40582,0.24234 0.48698,0.61936 0.56814,1.14983 0.64931,1.83475 0.81164,2.99394 0.97396,4.47546 1.21746,6.68118 1.62327,10.24915 2.59724,18.0672 3.5712,24.61615 1.62327,9.70178 1.29862,6.46635 0.97396,3.85405 0.81164,2.44064 0.73047,1.53113 0.56815,0.72562 0.48698,0.28512 0.40581,-0.005 0.40582,-0.22665 0.48698,-0.56452 0.56815,-1.05625 0.64931,-1.71363 0.81164,-2.8499 0.97396,-4.32453 1.29862,-6.90707 3.5712,-19.74118 0.97396,-3.88101 0.73047,-2.08833 0.56815,-1.05805 0.48698,-0.47888 0.40582,-0.0828 0.32466,0.14633 0.40581,0.45237 0.48698,0.93968 0.56815,1.63814 0.64931,2.56392 0.81163,4.17152 0.97397,6.23866 1.29862,9.87468 4.05818,31.99596 1.05513,6.0129 0.81163,3.45848 0.64931,1.96451 0.56815,1.11489 0.48698,0.50716 0.40582,0.11276 0.40582,-0.15954 0.40581,-0.41948 0.48698,-0.82442 0.64931,-1.5897 0.81164,-2.64408 1.13629,-4.54827 2.84073,-11.75142 0.8928,-2.68896 0.73047,-1.55529 0.56815,-0.75401 0.48698,-0.31048 0.40582,-0.0175 0.40581,0.20103 0.48699,0.52316 0.56814,0.98014 0.73048,1.78978 0.89279,2.85254 1.37979,5.28922 1.86676,7.06296 0.8928,2.56653 0.64931,1.29207 0.48698,0.58153 0.40582,0.20079 0.32466,-0.0385 0.40581,-0.3101 0.40582,-0.61301 0.48698,-1.1486 0.56815,-1.92138 0.64931,-2.96564 0.81163,-4.83528 0.97397,-7.34559 1.13629,-10.39708 1.54211,-16.3579 4.05818,-44.18175 1.21745,-10.50146 1.05513,-7.27844 0.8928,-4.68442 0.73047,-2.78608 0.64931,-1.68324 0.56815,-0.87105 0.40582,-0.28772 0.40581,-0.018 0.40582,0.24234 0.48699,0.61936 0.56814,1.14983 0.64931,1.83475 0.81164,2.99394 0.97396,4.47546 1.21745,6.68118 1.62328,10.24915 2.59723,18.0672 3.5712,24.61615 1.62328,9.70178 1.29861,6.46635 0.97397,3.85405 0.81163,2.44064 0.73048,1.53113 0.56814,0.72562 0.48698,0.28512 0.40582,-0.005 0.40582,-0.22665 0.48698,-0.56452 0.56815,-1.05625 0.64931,-1.71363 0.81163,-2.8499 0.97397,-4.32453 1.29862,-6.90707 3.57119,-19.74118 0.97397,-3.88101 0.73047,-2.08833 0.56815,-1.05805 0.48698,-0.47888 0.40582,-0.0828 0.32465,0.14633 0.40582,0.45237 0.48698,0.93968 0.56815,1.63814 0.6493,2.56392 0.81164,4.17152 0.97396,6.23866 1.29862,9.87468 4.05819,31.99596 1.05512,6.0129 0.81164,3.45848 0.64931,1.96451 0.56814,1.11489 0.48698,0.50716 0.40582,0.11276 0.40582,-0.15954 0.40582,-0.41948 0.48698,-0.82442 0.64931,-1.5897 0.81164,-2.64408 1.13629,-4.54827 2.84072,-11.75142 0.89281,-2.68896 0.73047,-1.55529 0.56814,-0.75401 0.48698,-0.31048 0.40582,-0.0175 0.40582,0.20103 0.48698,0.52316 0.56815,0.98014 0.73047,1.78978 0.8928,2.85254 1.37978,5.28922 1.86677,7.06296 0.8928,2.56653 0.64931,1.29207 0.48698,0.58153 0.40582,0.20079 0.32465,-0.0385 0.40582,-0.3101 0.40582,-0.61301 0.48698,-1.1486 0.56815,-1.92138 0.6493,-2.96564 0.81164,-4.83528 0.97396,-7.34559 1.13629,-10.39708 1.54211,-16.3579 4.05818,-44.18175 1.21746,-10.50146 1.05513,-7.27844 0.8928,-4.68442 0.73047,-2.78608 0.64931,-1.68324 0.56815,-0.87105 0.40581,-0.28772 0.40582,-0.018 0.40582,0.24234 0.48698,0.61936 0.56815,1.14983 0.6493,1.83475 0.81164,2.99394 0.97397,4.47546 1.21745,6.68118 1.62327,10.24915 2.59724,18.0672 3.5712,24.61615 1.62327,9.70178 1.29862,6.46635 0.97396,3.85405 0.81164,2.44064 0.73047,1.53113 0.56815,0.72562 0.48698,0.28512 0.40582,-0.005 0.40582,-0.22665 0.48698,-0.56452 0.56814,-1.05625 0.64931,-1.71363 0.81164,-2.8499 0.97396,-4.32453 1.29862,-6.90707 3.5712,-19.74118 0.97396,-3.88101 0.73048,-2.08833 0.56814,-1.05805 0.48699,-0.47888 0.40581,-0.0828 0.32466,0.14633 0.40581,0.45237 0.48699,0.93968 0.56814,1.63814 0.56815,2.20439 v 0"
           style="fill:none;stroke:#9467bd;stroke-width:1.5;stroke-linecap:square;stroke-linejoin:round"
           id="path23" />
      </g>
      <g
         id="line2d_6"
         style="stroke-linecap:butt;stroke-linejoin:round">
        <path
           inkscape:connector-curvature="0"
           clip-path="url(#peb3a1a3486-6)"
           d="M 225.16364,315 V 43.2"
           style="fill:none;stroke:#000000;stroke-linecap:butt;stroke-linejoin:round;stroke-dasharray:3.7, 1.6;stroke-dashoffset:0;stroke-opacity:0.5"
           id="path26" />
      </g>
      <g
         id="line2d_7"
         style="stroke-linecap:butt;stroke-linejoin:round">
        <path
           inkscape:connector-curvature="0"
           clip-path="url(#peb3a1a3486-6)"
           d="M 306.32727,315 V 43.2"
           style="fill:none;stroke:#000000;stroke-linecap:butt;stroke-linejoin:round;stroke-dasharray:3.7, 1.6;stroke-dashoffset:0;stroke-opacity:0.5"
           id="path29" />
      </g>
      <g
         id="line2d_8"
         style="stroke-linecap:butt;stroke-linejoin:round">
        <path
           inkscape:connector-curvature="0"
           clip-path="url(#peb3a1a3486-6)"
           d="M 671.56364,315 V 43.2"
           style="fill:none;stroke:#000000;stroke-linecap:butt;stroke-linejoin:round;stroke-dasharray:3.7, 1.6;stroke-dashoffset:0;stroke-opacity:0.5"
           id="path32" />
      </g>
      <g
         id="line2d_9"
         style="stroke-linecap:butt;stroke-linejoin:round">
        <path
           inkscape:connector-curvature="0"
           clip-path="url(#peb3a1a3486-6)"
           d="M 752.72727,315 V 43.2"
           style="fill:none;stroke:#000000;stroke-linecap:butt;stroke-linejoin:round;stroke-dasharray:3.7, 1.6;stroke-dashoffset:0;stroke-opacity:0.5"
           id="path35" />
      </g>
    </g>
  </g>
  <defs
     id="defs43" />
</svg>
