<?xml version="1.0" encoding="utf-8" standalone="no"?>
<!DOCTYPE svg PUBLIC "-//W3C//DTD SVG 1.1//EN"
  "http://www.w3.org/Graphics/SVG/1.1/DTD/svg11.dtd">
<!-- Created with matplotlib (https://matplotlib.org/) -->
<svg height="216pt" version="1.1" viewBox="0 0 1152 216" width="1152pt" xmlns="http://www.w3.org/2000/svg" xmlns:xlink="http://www.w3.org/1999/xlink">
 <metadata>
  <rdf:RDF xmlns:cc="http://creativecommons.org/ns#" xmlns:dc="http://purl.org/dc/elements/1.1/" xmlns:rdf="http://www.w3.org/1999/02/22-rdf-syntax-ns#">
   <cc:Work>
    <dc:type rdf:resource="http://purl.org/dc/dcmitype/StillImage"/>
    <dc:date>2021-10-30T13:05:14.252381</dc:date>
    <dc:format>image/svg+xml</dc:format>
    <dc:creator>
     <cc:Agent>
      <dc:title>Matplotlib v3.3.4, https://matplotlib.org/</dc:title>
     </cc:Agent>
    </dc:creator>
   </cc:Work>
  </rdf:RDF>
 </metadata>
 <defs>
  <style type="text/css">*{stroke-linecap:butt;stroke-linejoin:round;}</style>
 </defs>
 <g id="figure_1">
  <g id="patch_1">
   <path d="M 0 216 
L 1152 216 
L 1152 0 
L 0 0 
z
" style="fill:none;"/>
  </g>
  <g id="axes_1">
   <g id="patch_2">
    <path d="M 43.175 153.61 
L 526 153.61 
L 526 49.175 
L 43.175 49.175 
z
" style="fill:#ffffff;"/>
   </g>
   <g id="matplotlib.axis_1">
    <g id="xtick_1">
     <g id="line2d_1">
      <path clip-path="url(#pe170d98215)" d="M 69.998611 153.61 
L 69.998611 49.175 
" style="fill:none;stroke:#cccccc;stroke-dasharray:1.85,0.8;stroke-dashoffset:0;stroke-width:0.5;"/>
     </g>
     <g id="line2d_2">
      <defs>
       <path d="M 0 0 
L 0 3.5 
" id="m7da2ae171d" style="stroke:#000000;stroke-width:0.8;"/>
      </defs>
      <g>
       <use style="stroke:#000000;stroke-width:0.8;" x="69.998611" xlink:href="#m7da2ae171d" y="153.61"/>
      </g>
     </g>
     <g id="text_1">
      <!-- −4 -->
      <g transform="translate(58.204861 172.7675)scale(0.16 -0.16)">
       <defs>
        <path d="M 10.59375 35.5 
L 73.1875 35.5 
L 73.1875 27.203125 
L 10.59375 27.203125 
z
" id="DejaVuSans-8722"/>
        <path d="M 37.796875 64.3125 
L 12.890625 25.390625 
L 37.796875 25.390625 
z
M 35.203125 72.90625 
L 47.609375 72.90625 
L 47.609375 25.390625 
L 58.015625 25.390625 
L 58.015625 17.1875 
L 47.609375 17.1875 
L 47.609375 0 
L 37.796875 0 
L 37.796875 17.1875 
L 4.890625 17.1875 
L 4.890625 26.703125 
z
" id="DejaVuSans-52"/>
       </defs>
       <use xlink:href="#DejaVuSans-8722"/>
       <use x="83.789062" xlink:href="#DejaVuSans-52"/>
      </g>
     </g>
    </g>
    <g id="xtick_2">
     <g id="line2d_3">
      <path clip-path="url(#pe170d98215)" d="M 123.645833 153.61 
L 123.645833 49.175 
" style="fill:none;stroke:#cccccc;stroke-dasharray:1.85,0.8;stroke-dashoffset:0;stroke-width:0.5;"/>
     </g>
     <g id="line2d_4">
      <g>
       <use style="stroke:#000000;stroke-width:0.8;" x="123.645833" xlink:href="#m7da2ae171d" y="153.61"/>
      </g>
     </g>
     <g id="text_2">
      <!-- −3 -->
      <g transform="translate(111.852083 172.7675)scale(0.16 -0.16)">
       <defs>
        <path d="M 40.578125 39.3125 
Q 47.65625 37.796875 51.625 33 
Q 55.609375 28.21875 55.609375 21.1875 
Q 55.609375 10.40625 48.1875 4.484375 
Q 40.765625 -1.421875 27.09375 -1.421875 
Q 22.515625 -1.421875 17.65625 -0.515625 
Q 12.796875 0.390625 7.625 2.203125 
L 7.625 11.71875 
Q 11.71875 9.328125 16.59375 8.109375 
Q 21.484375 6.890625 26.8125 6.890625 
Q 36.078125 6.890625 40.9375 10.546875 
Q 45.796875 14.203125 45.796875 21.1875 
Q 45.796875 27.640625 41.28125 31.265625 
Q 36.765625 34.90625 28.71875 34.90625 
L 20.21875 34.90625 
L 20.21875 43.015625 
L 29.109375 43.015625 
Q 36.375 43.015625 40.234375 45.921875 
Q 44.09375 48.828125 44.09375 54.296875 
Q 44.09375 59.90625 40.109375 62.90625 
Q 36.140625 65.921875 28.71875 65.921875 
Q 24.65625 65.921875 20.015625 65.03125 
Q 15.375 64.15625 9.8125 62.3125 
L 9.8125 71.09375 
Q 15.4375 72.65625 20.34375 73.4375 
Q 25.25 74.21875 29.59375 74.21875 
Q 40.828125 74.21875 47.359375 69.109375 
Q 53.90625 64.015625 53.90625 55.328125 
Q 53.90625 49.265625 50.4375 45.09375 
Q 46.96875 40.921875 40.578125 39.3125 
z
" id="DejaVuSans-51"/>
       </defs>
       <use xlink:href="#DejaVuSans-8722"/>
       <use x="83.789062" xlink:href="#DejaVuSans-51"/>
      </g>
     </g>
    </g>
    <g id="xtick_3">
     <g id="line2d_5">
      <path clip-path="url(#pe170d98215)" d="M 177.293056 153.61 
L 177.293056 49.175 
" style="fill:none;stroke:#cccccc;stroke-dasharray:1.85,0.8;stroke-dashoffset:0;stroke-width:0.5;"/>
     </g>
     <g id="line2d_6">
      <g>
       <use style="stroke:#000000;stroke-width:0.8;" x="177.293056" xlink:href="#m7da2ae171d" y="153.61"/>
      </g>
     </g>
     <g id="text_3">
      <!-- −2 -->
      <g transform="translate(165.499306 172.7675)scale(0.16 -0.16)">
       <defs>
        <path d="M 19.1875 8.296875 
L 53.609375 8.296875 
L 53.609375 0 
L 7.328125 0 
L 7.328125 8.296875 
Q 12.9375 14.109375 22.625 23.890625 
Q 32.328125 33.6875 34.8125 36.53125 
Q 39.546875 41.84375 41.421875 45.53125 
Q 43.3125 49.21875 43.3125 52.78125 
Q 43.3125 58.59375 39.234375 62.25 
Q 35.15625 65.921875 28.609375 65.921875 
Q 23.96875 65.921875 18.8125 64.3125 
Q 13.671875 62.703125 7.8125 59.421875 
L 7.8125 69.390625 
Q 13.765625 71.78125 18.9375 73 
Q 24.125 74.21875 28.421875 74.21875 
Q 39.75 74.21875 46.484375 68.546875 
Q 53.21875 62.890625 53.21875 53.421875 
Q 53.21875 48.921875 51.53125 44.890625 
Q 49.859375 40.875 45.40625 35.40625 
Q 44.1875 33.984375 37.640625 27.21875 
Q 31.109375 20.453125 19.1875 8.296875 
z
" id="DejaVuSans-50"/>
       </defs>
       <use xlink:href="#DejaVuSans-8722"/>
       <use x="83.789062" xlink:href="#DejaVuSans-50"/>
      </g>
     </g>
    </g>
    <g id="xtick_4">
     <g id="line2d_7">
      <path clip-path="url(#pe170d98215)" d="M 230.940278 153.61 
L 230.940278 49.175 
" style="fill:none;stroke:#cccccc;stroke-dasharray:1.85,0.8;stroke-dashoffset:0;stroke-width:0.5;"/>
     </g>
     <g id="line2d_8">
      <g>
       <use style="stroke:#000000;stroke-width:0.8;" x="230.940278" xlink:href="#m7da2ae171d" y="153.61"/>
      </g>
     </g>
     <g id="text_4">
      <!-- −1 -->
      <g transform="translate(219.146528 172.7675)scale(0.16 -0.16)">
       <defs>
        <path d="M 12.40625 8.296875 
L 28.515625 8.296875 
L 28.515625 63.921875 
L 10.984375 60.40625 
L 10.984375 69.390625 
L 28.421875 72.90625 
L 38.28125 72.90625 
L 38.28125 8.296875 
L 54.390625 8.296875 
L 54.390625 0 
L 12.40625 0 
z
" id="DejaVuSans-49"/>
       </defs>
       <use xlink:href="#DejaVuSans-8722"/>
       <use x="83.789062" xlink:href="#DejaVuSans-49"/>
      </g>
     </g>
    </g>
    <g id="xtick_5">
     <g id="line2d_9">
      <path clip-path="url(#pe170d98215)" d="M 284.5875 153.61 
L 284.5875 49.175 
" style="fill:none;stroke:#cccccc;stroke-dasharray:1.85,0.8;stroke-dashoffset:0;stroke-width:0.5;"/>
     </g>
     <g id="line2d_10">
      <g>
       <use style="stroke:#000000;stroke-width:0.8;" x="284.5875" xlink:href="#m7da2ae171d" y="153.61"/>
      </g>
     </g>
     <g id="text_5">
      <!-- 0 -->
      <g transform="translate(279.4975 172.7675)scale(0.16 -0.16)">
       <defs>
        <path d="M 31.78125 66.40625 
Q 24.171875 66.40625 20.328125 58.90625 
Q 16.5 51.421875 16.5 36.375 
Q 16.5 21.390625 20.328125 13.890625 
Q 24.171875 6.390625 31.78125 6.390625 
Q 39.453125 6.390625 43.28125 13.890625 
Q 47.125 21.390625 47.125 36.375 
Q 47.125 51.421875 43.28125 58.90625 
Q 39.453125 66.40625 31.78125 66.40625 
z
M 31.78125 74.21875 
Q 44.046875 74.21875 50.515625 64.515625 
Q 56.984375 54.828125 56.984375 36.375 
Q 56.984375 17.96875 50.515625 8.265625 
Q 44.046875 -1.421875 31.78125 -1.421875 
Q 19.53125 -1.421875 13.0625 8.265625 
Q 6.59375 17.96875 6.59375 36.375 
Q 6.59375 54.828125 13.0625 64.515625 
Q 19.53125 74.21875 31.78125 74.21875 
z
" id="DejaVuSans-48"/>
       </defs>
       <use xlink:href="#DejaVuSans-48"/>
      </g>
     </g>
    </g>
    <g id="xtick_6">
     <g id="line2d_11">
      <path clip-path="url(#pe170d98215)" d="M 338.234722 153.61 
L 338.234722 49.175 
" style="fill:none;stroke:#cccccc;stroke-dasharray:1.85,0.8;stroke-dashoffset:0;stroke-width:0.5;"/>
     </g>
     <g id="line2d_12">
      <g>
       <use style="stroke:#000000;stroke-width:0.8;" x="338.234722" xlink:href="#m7da2ae171d" y="153.61"/>
      </g>
     </g>
     <g id="text_6">
      <!-- 1 -->
      <g transform="translate(333.144722 172.7675)scale(0.16 -0.16)">
       <use xlink:href="#DejaVuSans-49"/>
      </g>
     </g>
    </g>
    <g id="xtick_7">
     <g id="line2d_13">
      <path clip-path="url(#pe170d98215)" d="M 391.881944 153.61 
L 391.881944 49.175 
" style="fill:none;stroke:#cccccc;stroke-dasharray:1.85,0.8;stroke-dashoffset:0;stroke-width:0.5;"/>
     </g>
     <g id="line2d_14">
      <g>
       <use style="stroke:#000000;stroke-width:0.8;" x="391.881944" xlink:href="#m7da2ae171d" y="153.61"/>
      </g>
     </g>
     <g id="text_7">
      <!-- 2 -->
      <g transform="translate(386.791944 172.7675)scale(0.16 -0.16)">
       <use xlink:href="#DejaVuSans-50"/>
      </g>
     </g>
    </g>
    <g id="xtick_8">
     <g id="line2d_15">
      <path clip-path="url(#pe170d98215)" d="M 445.529167 153.61 
L 445.529167 49.175 
" style="fill:none;stroke:#cccccc;stroke-dasharray:1.85,0.8;stroke-dashoffset:0;stroke-width:0.5;"/>
     </g>
     <g id="line2d_16">
      <g>
       <use style="stroke:#000000;stroke-width:0.8;" x="445.529167" xlink:href="#m7da2ae171d" y="153.61"/>
      </g>
     </g>
     <g id="text_8">
      <!-- 3 -->
      <g transform="translate(440.439167 172.7675)scale(0.16 -0.16)">
       <use xlink:href="#DejaVuSans-51"/>
      </g>
     </g>
    </g>
    <g id="xtick_9">
     <g id="line2d_17">
      <path clip-path="url(#pe170d98215)" d="M 499.176389 153.61 
L 499.176389 49.175 
" style="fill:none;stroke:#cccccc;stroke-dasharray:1.85,0.8;stroke-dashoffset:0;stroke-width:0.5;"/>
     </g>
     <g id="line2d_18">
      <g>
       <use style="stroke:#000000;stroke-width:0.8;" x="499.176389" xlink:href="#m7da2ae171d" y="153.61"/>
      </g>
     </g>
     <g id="text_9">
      <!-- 4 -->
      <g transform="translate(494.086389 172.7675)scale(0.16 -0.16)">
       <use xlink:href="#DejaVuSans-52"/>
      </g>
     </g>
    </g>
    <g id="text_10">
     <!-- $\frac{\omega}{2\pi T_s}$ (1/sec) -->
     <g transform="translate(240.9075 193.535)scale(0.16 -0.16)">
      <defs>
       <path d="M 21.390625 -1.421875 
Q 1.125 -1.421875 6.78125 27.59375 
Q 8.984375 39.0625 19.625 54.6875 
L 29.296875 54.6875 
Q 19.234375 39.0625 17 27.34375 
Q 12.796875 6.203125 23.734375 6.203125 
Q 33.84375 6.203125 38.71875 32.46875 
L 47.015625 32.46875 
Q 41.703125 6.0625 51.8125 6.203125 
Q 62.703125 6.296875 66.796875 27.34375 
Q 69.046875 39.0625 65.140625 54.6875 
L 74.8125 54.6875 
Q 79.296875 39.0625 77.09375 27.59375 
Q 71.53125 -1.46875 51.21875 -1.421875 
Q 37.9375 -1.375 39.109375 13.1875 
Q 34.28125 -1.421875 21.390625 -1.421875 
z
" id="DejaVuSans-Oblique-969"/>
       <path d="M 9.125 54.6875 
L 61.53125 54.6875 
L 59.765625 45.703125 
L 52.875 45.703125 
L 46.34375 12.109375 
Q 45.65625 8.59375 46.578125 7.03125 
Q 47.46875 5.515625 50.140625 5.515625 
Q 50.875 5.515625 51.953125 5.671875 
Q 53.078125 5.765625 53.421875 5.8125 
L 52.15625 -0.6875 
Q 50.34375 -1.3125 48.484375 -1.609375 
Q 46.578125 -1.90625 44.78125 -1.90625 
Q 38.921875 -1.90625 37.3125 1.265625 
Q 35.6875 4.5 37.359375 13.09375 
L 43.703125 45.703125 
L 23.53125 45.703125 
L 14.65625 0 
L 5.46875 0 
L 14.359375 45.703125 
L 7.375 45.703125 
z
" id="DejaVuSans-Oblique-960"/>
       <path d="M 5.90625 72.90625 
L 67.578125 72.90625 
L 66.015625 64.59375 
L 39.984375 64.59375 
L 27.484375 0 
L 17.578125 0 
L 30.078125 64.59375 
L 4.296875 64.59375 
z
" id="DejaVuSans-Oblique-84"/>
       <path d="M 50 53.078125 
L 48.296875 44.578125 
Q 44.734375 46.53125 40.765625 47.5 
Q 36.8125 48.484375 32.625 48.484375 
Q 25.53125 48.484375 21.453125 46.0625 
Q 17.390625 43.65625 17.390625 39.5 
Q 17.390625 34.671875 26.859375 32.078125 
Q 27.59375 31.890625 27.9375 31.78125 
L 30.8125 30.90625 
Q 39.796875 28.421875 42.796875 25.6875 
Q 45.796875 22.953125 45.796875 18.21875 
Q 45.796875 9.515625 38.890625 4.046875 
Q 31.984375 -1.421875 20.796875 -1.421875 
Q 16.453125 -1.421875 11.671875 -0.578125 
Q 6.890625 0.25 1.125 2 
L 2.875 11.28125 
Q 7.8125 8.734375 12.59375 7.421875 
Q 17.390625 6.109375 21.78125 6.109375 
Q 28.375 6.109375 32.5 8.9375 
Q 36.625 11.765625 36.625 16.109375 
Q 36.625 20.796875 25.78125 23.6875 
L 24.859375 23.921875 
L 21.78125 24.703125 
Q 14.9375 26.515625 11.765625 29.46875 
Q 8.59375 32.421875 8.59375 37.015625 
Q 8.59375 45.75 15.15625 50.875 
Q 21.734375 56 33.015625 56 
Q 37.453125 56 41.671875 55.265625 
Q 45.90625 54.546875 50 53.078125 
z
" id="DejaVuSans-Oblique-115"/>
       <path id="DejaVuSans-32"/>
       <path d="M 31 75.875 
Q 24.46875 64.65625 21.28125 53.65625 
Q 18.109375 42.671875 18.109375 31.390625 
Q 18.109375 20.125 21.3125 9.0625 
Q 24.515625 -2 31 -13.1875 
L 23.1875 -13.1875 
Q 15.875 -1.703125 12.234375 9.375 
Q 8.59375 20.453125 8.59375 31.390625 
Q 8.59375 42.28125 12.203125 53.3125 
Q 15.828125 64.359375 23.1875 75.875 
z
" id="DejaVuSans-40"/>
       <path d="M 25.390625 72.90625 
L 33.6875 72.90625 
L 8.296875 -9.28125 
L 0 -9.28125 
z
" id="DejaVuSans-47"/>
       <path d="M 44.28125 53.078125 
L 44.28125 44.578125 
Q 40.484375 46.53125 36.375 47.5 
Q 32.28125 48.484375 27.875 48.484375 
Q 21.1875 48.484375 17.84375 46.4375 
Q 14.5 44.390625 14.5 40.28125 
Q 14.5 37.15625 16.890625 35.375 
Q 19.28125 33.59375 26.515625 31.984375 
L 29.59375 31.296875 
Q 39.15625 29.25 43.1875 25.515625 
Q 47.21875 21.78125 47.21875 15.09375 
Q 47.21875 7.46875 41.1875 3.015625 
Q 35.15625 -1.421875 24.609375 -1.421875 
Q 20.21875 -1.421875 15.453125 -0.5625 
Q 10.6875 0.296875 5.421875 2 
L 5.421875 11.28125 
Q 10.40625 8.6875 15.234375 7.390625 
Q 20.0625 6.109375 24.8125 6.109375 
Q 31.15625 6.109375 34.5625 8.28125 
Q 37.984375 10.453125 37.984375 14.40625 
Q 37.984375 18.0625 35.515625 20.015625 
Q 33.0625 21.96875 24.703125 23.78125 
L 21.578125 24.515625 
Q 13.234375 26.265625 9.515625 29.90625 
Q 5.8125 33.546875 5.8125 39.890625 
Q 5.8125 47.609375 11.28125 51.796875 
Q 16.75 56 26.8125 56 
Q 31.78125 56 36.171875 55.265625 
Q 40.578125 54.546875 44.28125 53.078125 
z
" id="DejaVuSans-115"/>
       <path d="M 56.203125 29.59375 
L 56.203125 25.203125 
L 14.890625 25.203125 
Q 15.484375 15.921875 20.484375 11.0625 
Q 25.484375 6.203125 34.421875 6.203125 
Q 39.59375 6.203125 44.453125 7.46875 
Q 49.3125 8.734375 54.109375 11.28125 
L 54.109375 2.78125 
Q 49.265625 0.734375 44.1875 -0.34375 
Q 39.109375 -1.421875 33.890625 -1.421875 
Q 20.796875 -1.421875 13.15625 6.1875 
Q 5.515625 13.8125 5.515625 26.8125 
Q 5.515625 40.234375 12.765625 48.109375 
Q 20.015625 56 32.328125 56 
Q 43.359375 56 49.78125 48.890625 
Q 56.203125 41.796875 56.203125 29.59375 
z
M 47.21875 32.234375 
Q 47.125 39.59375 43.09375 43.984375 
Q 39.0625 48.390625 32.421875 48.390625 
Q 24.90625 48.390625 20.390625 44.140625 
Q 15.875 39.890625 15.1875 32.171875 
z
" id="DejaVuSans-101"/>
       <path d="M 48.78125 52.59375 
L 48.78125 44.1875 
Q 44.96875 46.296875 41.140625 47.34375 
Q 37.3125 48.390625 33.40625 48.390625 
Q 24.65625 48.390625 19.8125 42.84375 
Q 14.984375 37.3125 14.984375 27.296875 
Q 14.984375 17.28125 19.8125 11.734375 
Q 24.65625 6.203125 33.40625 6.203125 
Q 37.3125 6.203125 41.140625 7.25 
Q 44.96875 8.296875 48.78125 10.40625 
L 48.78125 2.09375 
Q 45.015625 0.34375 40.984375 -0.53125 
Q 36.96875 -1.421875 32.421875 -1.421875 
Q 20.0625 -1.421875 12.78125 6.34375 
Q 5.515625 14.109375 5.515625 27.296875 
Q 5.515625 40.671875 12.859375 48.328125 
Q 20.21875 56 33.015625 56 
Q 37.15625 56 41.109375 55.140625 
Q 45.0625 54.296875 48.78125 52.59375 
z
" id="DejaVuSans-99"/>
       <path d="M 8.015625 75.875 
L 15.828125 75.875 
Q 23.140625 64.359375 26.78125 53.3125 
Q 30.421875 42.28125 30.421875 31.390625 
Q 30.421875 20.453125 26.78125 9.375 
Q 23.140625 -1.703125 15.828125 -13.1875 
L 8.015625 -13.1875 
Q 14.5 -2 17.703125 9.0625 
Q 20.90625 20.125 20.90625 31.390625 
Q 20.90625 42.671875 17.703125 53.65625 
Q 14.5 64.65625 8.015625 75.875 
z
" id="DejaVuSans-41"/>
      </defs>
      <use transform="translate(49 45.71875)scale(0.7)" xlink:href="#DejaVuSans-Oblique-969"/>
      <use transform="translate(0 -38.5125)scale(0.7)" xlink:href="#DejaVuSans-50"/>
      <use transform="translate(44.536133 -38.5125)scale(0.7)" xlink:href="#DejaVuSans-Oblique-960"/>
      <use transform="translate(86.679688 -38.5125)scale(0.7)" xlink:href="#DejaVuSans-Oblique-84"/>
      <use transform="translate(129.438477 -49.996875)scale(0.49)" xlink:href="#DejaVuSans-Oblique-115"/>
      <use transform="translate(169.381348 0.89375)" xlink:href="#DejaVuSans-32"/>
      <use transform="translate(201.168457 0.89375)" xlink:href="#DejaVuSans-40"/>
      <use transform="translate(240.182129 0.89375)" xlink:href="#DejaVuSans-49"/>
      <use transform="translate(303.805176 0.89375)" xlink:href="#DejaVuSans-47"/>
      <use transform="translate(337.496582 0.89375)" xlink:href="#DejaVuSans-115"/>
      <use transform="translate(389.596191 0.89375)" xlink:href="#DejaVuSans-101"/>
      <use transform="translate(451.119629 0.89375)" xlink:href="#DejaVuSans-99"/>
      <use transform="translate(506.100098 0.89375)" xlink:href="#DejaVuSans-41"/>
      <path d="M 0 19.690625 
L 0 25.940625 
L 156.881348 25.940625 
L 156.881348 19.690625 
L 0 19.690625 
z
"/>
     </g>
    </g>
   </g>
   <g id="matplotlib.axis_2">
    <g id="ytick_1">
     <g id="line2d_19">
      <path clip-path="url(#pe170d98215)" d="M 43.175 149.330736 
L 526 149.330736 
" style="fill:none;stroke:#cccccc;stroke-dasharray:1.85,0.8;stroke-dashoffset:0;stroke-width:0.5;"/>
     </g>
     <g id="line2d_20">
      <defs>
       <path d="M 0 0 
L -3.5 0 
" id="m5c522f729e" style="stroke:#000000;stroke-width:0.8;"/>
      </defs>
      <g>
       <use style="stroke:#000000;stroke-width:0.8;" x="43.175" xlink:href="#m5c522f729e" y="149.330736"/>
      </g>
     </g>
     <g id="text_11">
      <!-- 0.00 -->
      <g transform="translate(0.55 155.409486)scale(0.16 -0.16)">
       <defs>
        <path d="M 10.6875 12.40625 
L 21 12.40625 
L 21 0 
L 10.6875 0 
z
" id="DejaVuSans-46"/>
       </defs>
       <use xlink:href="#DejaVuSans-48"/>
       <use x="63.623047" xlink:href="#DejaVuSans-46"/>
       <use x="95.410156" xlink:href="#DejaVuSans-48"/>
       <use x="159.033203" xlink:href="#DejaVuSans-48"/>
      </g>
     </g>
    </g>
    <g id="ytick_2">
     <g id="line2d_21">
      <path clip-path="url(#pe170d98215)" d="M 43.175 125.478563 
L 526 125.478563 
" style="fill:none;stroke:#cccccc;stroke-dasharray:1.85,0.8;stroke-dashoffset:0;stroke-width:0.5;"/>
     </g>
     <g id="line2d_22">
      <g>
       <use style="stroke:#000000;stroke-width:0.8;" x="43.175" xlink:href="#m5c522f729e" y="125.478563"/>
      </g>
     </g>
     <g id="text_12">
      <!-- 0.25 -->
      <g transform="translate(0.55 131.557313)scale(0.16 -0.16)">
       <defs>
        <path d="M 10.796875 72.90625 
L 49.515625 72.90625 
L 49.515625 64.59375 
L 19.828125 64.59375 
L 19.828125 46.734375 
Q 21.96875 47.46875 24.109375 47.828125 
Q 26.265625 48.1875 28.421875 48.1875 
Q 40.625 48.1875 47.75 41.5 
Q 54.890625 34.8125 54.890625 23.390625 
Q 54.890625 11.625 47.5625 5.09375 
Q 40.234375 -1.421875 26.90625 -1.421875 
Q 22.3125 -1.421875 17.546875 -0.640625 
Q 12.796875 0.140625 7.71875 1.703125 
L 7.71875 11.625 
Q 12.109375 9.234375 16.796875 8.0625 
Q 21.484375 6.890625 26.703125 6.890625 
Q 35.15625 6.890625 40.078125 11.328125 
Q 45.015625 15.765625 45.015625 23.390625 
Q 45.015625 31 40.078125 35.4375 
Q 35.15625 39.890625 26.703125 39.890625 
Q 22.75 39.890625 18.8125 39.015625 
Q 14.890625 38.140625 10.796875 36.28125 
z
" id="DejaVuSans-53"/>
       </defs>
       <use xlink:href="#DejaVuSans-48"/>
       <use x="63.623047" xlink:href="#DejaVuSans-46"/>
       <use x="95.410156" xlink:href="#DejaVuSans-50"/>
       <use x="159.033203" xlink:href="#DejaVuSans-53"/>
      </g>
     </g>
    </g>
    <g id="ytick_3">
     <g id="line2d_23">
      <path clip-path="url(#pe170d98215)" d="M 43.175 101.626391 
L 526 101.626391 
" style="fill:none;stroke:#cccccc;stroke-dasharray:1.85,0.8;stroke-dashoffset:0;stroke-width:0.5;"/>
     </g>
     <g id="line2d_24">
      <g>
       <use style="stroke:#000000;stroke-width:0.8;" x="43.175" xlink:href="#m5c522f729e" y="101.626391"/>
      </g>
     </g>
     <g id="text_13">
      <!-- 0.50 -->
      <g transform="translate(0.55 107.705141)scale(0.16 -0.16)">
       <use xlink:href="#DejaVuSans-48"/>
       <use x="63.623047" xlink:href="#DejaVuSans-46"/>
       <use x="95.410156" xlink:href="#DejaVuSans-53"/>
       <use x="159.033203" xlink:href="#DejaVuSans-48"/>
      </g>
     </g>
    </g>
    <g id="ytick_4">
     <g id="line2d_25">
      <path clip-path="url(#pe170d98215)" d="M 43.175 77.774218 
L 526 77.774218 
" style="fill:none;stroke:#cccccc;stroke-dasharray:1.85,0.8;stroke-dashoffset:0;stroke-width:0.5;"/>
     </g>
     <g id="line2d_26">
      <g>
       <use style="stroke:#000000;stroke-width:0.8;" x="43.175" xlink:href="#m5c522f729e" y="77.774218"/>
      </g>
     </g>
     <g id="text_14">
      <!-- 0.75 -->
      <g transform="translate(0.55 83.852968)scale(0.16 -0.16)">
       <defs>
        <path d="M 8.203125 72.90625 
L 55.078125 72.90625 
L 55.078125 68.703125 
L 28.609375 0 
L 18.3125 0 
L 43.21875 64.59375 
L 8.203125 64.59375 
z
" id="DejaVuSans-55"/>
       </defs>
       <use xlink:href="#DejaVuSans-48"/>
       <use x="63.623047" xlink:href="#DejaVuSans-46"/>
       <use x="95.410156" xlink:href="#DejaVuSans-55"/>
       <use x="159.033203" xlink:href="#DejaVuSans-53"/>
      </g>
     </g>
    </g>
    <g id="ytick_5">
     <g id="line2d_27">
      <path clip-path="url(#pe170d98215)" d="M 43.175 53.922045 
L 526 53.922045 
" style="fill:none;stroke:#cccccc;stroke-dasharray:1.85,0.8;stroke-dashoffset:0;stroke-width:0.5;"/>
     </g>
     <g id="line2d_28">
      <g>
       <use style="stroke:#000000;stroke-width:0.8;" x="43.175" xlink:href="#m5c522f729e" y="53.922045"/>
      </g>
     </g>
     <g id="text_15">
      <!-- 1.00 -->
      <g transform="translate(0.55 60.000795)scale(0.16 -0.16)">
       <use xlink:href="#DejaVuSans-49"/>
       <use x="63.623047" xlink:href="#DejaVuSans-46"/>
       <use x="95.410156" xlink:href="#DejaVuSans-48"/>
       <use x="159.033203" xlink:href="#DejaVuSans-48"/>
      </g>
     </g>
    </g>
   </g>
   <g id="line2d_29">
    <path clip-path="url(#pe170d98215)" d="M 43.175 144.030253 
L 75.899806 143.199072 
L 102.186944 142.315391 
L 123.645833 141.380012 
L 141.349417 140.397338 
L 156.370639 139.350747 
L 169.245972 138.236702 
L 179.975417 137.098853 
L 189.631917 135.854932 
L 197.679 134.607173 
L 205.189611 133.214403 
L 211.627278 131.792374 
L 216.992 130.40044 
L 221.82025 128.944264 
L 226.112028 127.448009 
L 230.403806 125.714723 
L 234.159111 123.956084 
L 237.377944 122.225994 
L 240.596778 120.242721 
L 243.279139 118.353888 
L 245.9615 116.202718 
L 248.643861 113.730478 
L 250.78975 111.470144 
L 252.935639 108.903325 
L 255.081528 105.963149 
L 257.227417 102.56177 
L 258.836833 99.63871 
L 260.44625 96.325908 
L 262.055667 92.539849 
L 263.665083 88.171319 
L 265.2745 83.074701 
L 266.883917 77.051425 
L 268.493333 69.823494 
L 269.566278 64.144405 
L 270.639222 57.59161 
L 271.175694 53.922045 
L 297.999306 53.922045 
L 299.07225 60.989356 
L 300.681667 69.823494 
L 302.291083 77.051425 
L 303.9005 83.074701 
L 305.509917 88.171319 
L 307.119333 92.539849 
L 308.72875 96.325908 
L 310.338167 99.63871 
L 312.484056 103.461173 
L 314.629944 106.737571 
L 316.775833 109.577115 
L 318.921722 112.061716 
L 321.067611 114.254011 
L 323.749972 116.656527 
L 326.432333 118.751027 
L 329.114694 120.593179 
L 332.333528 122.530542 
L 335.552361 124.223186 
L 339.307667 125.946253 
L 343.599444 127.646943 
L 348.427694 129.286893 
L 353.255944 130.696226 
L 359.157139 132.1709 
L 365.594806 133.534595 
L 372.568944 134.786728 
L 380.616028 136.0055 
L 389.736056 137.16126 
L 400.4655 138.288063 
L 412.804361 139.350747 
L 427.289111 140.363754 
L 443.91975 141.299701 
L 463.769222 142.189367 
L 487.374 143.020637 
L 516.3435 143.8094 
L 526.536472 144.042006 
L 526.536472 144.042006 
" style="fill:none;stroke:#000000;stroke-linecap:square;stroke-width:3;"/>
   </g>
   <g id="patch_3">
    <path d="M 43.175 153.61 
L 43.175 49.175 
" style="fill:none;stroke:#000000;stroke-linecap:square;stroke-linejoin:miter;stroke-width:0.8;"/>
   </g>
   <g id="patch_4">
    <path d="M 43.175 153.61 
L 526 153.61 
" style="fill:none;stroke:#000000;stroke-linecap:square;stroke-linejoin:miter;stroke-width:0.8;"/>
   </g>
   <g id="text_16">
    <!-- $X(\omega)$ -->
    <g transform="translate(263.7975 43.175)scale(0.18 -0.18)">
     <defs>
      <path d="M 13.71875 72.90625 
L 23.6875 72.90625 
L 36.1875 46.578125 
L 58.796875 72.90625 
L 70.3125 72.90625 
L 40.28125 38.09375 
L 58.40625 0 
L 48.484375 0 
L 33.796875 30.71875 
L 7.171875 0 
L -4.296875 0 
L 29.78125 39.203125 
z
" id="DejaVuSans-Oblique-88"/>
     </defs>
     <use transform="translate(0 0.125)" xlink:href="#DejaVuSans-Oblique-88"/>
     <use transform="translate(68.505859 0.125)" xlink:href="#DejaVuSans-40"/>
     <use transform="translate(107.519531 0.125)" xlink:href="#DejaVuSans-Oblique-969"/>
     <use transform="translate(191.259766 0.125)" xlink:href="#DejaVuSans-41"/>
    </g>
   </g>
  </g>
  <g id="axes_2">
   <g id="patch_5">
    <path d="M 658.375 153.61 
L 1141.2 153.61 
L 1141.2 49.175 
L 658.375 49.175 
z
" style="fill:#ffffff;"/>
   </g>
   <g id="matplotlib.axis_3">
    <g id="xtick_10">
     <g id="line2d_30">
      <path clip-path="url(#p4278d885c2)" d="M 685.198611 153.61 
L 685.198611 49.175 
" style="fill:none;stroke:#cccccc;stroke-dasharray:1.85,0.8;stroke-dashoffset:0;stroke-width:0.5;"/>
     </g>
     <g id="line2d_31">
      <g>
       <use style="stroke:#000000;stroke-width:0.8;" x="685.198611" xlink:href="#m7da2ae171d" y="153.61"/>
      </g>
     </g>
     <g id="text_17">
      <!-- −4 -->
      <g transform="translate(673.404861 172.7675)scale(0.16 -0.16)">
       <use xlink:href="#DejaVuSans-8722"/>
       <use x="83.789062" xlink:href="#DejaVuSans-52"/>
      </g>
     </g>
    </g>
    <g id="xtick_11">
     <g id="line2d_32">
      <path clip-path="url(#p4278d885c2)" d="M 738.845833 153.61 
L 738.845833 49.175 
" style="fill:none;stroke:#cccccc;stroke-dasharray:1.85,0.8;stroke-dashoffset:0;stroke-width:0.5;"/>
     </g>
     <g id="line2d_33">
      <g>
       <use style="stroke:#000000;stroke-width:0.8;" x="738.845833" xlink:href="#m7da2ae171d" y="153.61"/>
      </g>
     </g>
     <g id="text_18">
      <!-- −3 -->
      <g transform="translate(727.052083 172.7675)scale(0.16 -0.16)">
       <use xlink:href="#DejaVuSans-8722"/>
       <use x="83.789062" xlink:href="#DejaVuSans-51"/>
      </g>
     </g>
    </g>
    <g id="xtick_12">
     <g id="line2d_34">
      <path clip-path="url(#p4278d885c2)" d="M 792.493056 153.61 
L 792.493056 49.175 
" style="fill:none;stroke:#cccccc;stroke-dasharray:1.85,0.8;stroke-dashoffset:0;stroke-width:0.5;"/>
     </g>
     <g id="line2d_35">
      <g>
       <use style="stroke:#000000;stroke-width:0.8;" x="792.493056" xlink:href="#m7da2ae171d" y="153.61"/>
      </g>
     </g>
     <g id="text_19">
      <!-- −2 -->
      <g transform="translate(780.699306 172.7675)scale(0.16 -0.16)">
       <use xlink:href="#DejaVuSans-8722"/>
       <use x="83.789062" xlink:href="#DejaVuSans-50"/>
      </g>
     </g>
    </g>
    <g id="xtick_13">
     <g id="line2d_36">
      <path clip-path="url(#p4278d885c2)" d="M 846.140278 153.61 
L 846.140278 49.175 
" style="fill:none;stroke:#cccccc;stroke-dasharray:1.85,0.8;stroke-dashoffset:0;stroke-width:0.5;"/>
     </g>
     <g id="line2d_37">
      <g>
       <use style="stroke:#000000;stroke-width:0.8;" x="846.140278" xlink:href="#m7da2ae171d" y="153.61"/>
      </g>
     </g>
     <g id="text_20">
      <!-- −1 -->
      <g transform="translate(834.346528 172.7675)scale(0.16 -0.16)">
       <use xlink:href="#DejaVuSans-8722"/>
       <use x="83.789062" xlink:href="#DejaVuSans-49"/>
      </g>
     </g>
    </g>
    <g id="xtick_14">
     <g id="line2d_38">
      <path clip-path="url(#p4278d885c2)" d="M 899.7875 153.61 
L 899.7875 49.175 
" style="fill:none;stroke:#cccccc;stroke-dasharray:1.85,0.8;stroke-dashoffset:0;stroke-width:0.5;"/>
     </g>
     <g id="line2d_39">
      <g>
       <use style="stroke:#000000;stroke-width:0.8;" x="899.7875" xlink:href="#m7da2ae171d" y="153.61"/>
      </g>
     </g>
     <g id="text_21">
      <!-- 0 -->
      <g transform="translate(894.6975 172.7675)scale(0.16 -0.16)">
       <use xlink:href="#DejaVuSans-48"/>
      </g>
     </g>
    </g>
    <g id="xtick_15">
     <g id="line2d_40">
      <path clip-path="url(#p4278d885c2)" d="M 953.434722 153.61 
L 953.434722 49.175 
" style="fill:none;stroke:#cccccc;stroke-dasharray:1.85,0.8;stroke-dashoffset:0;stroke-width:0.5;"/>
     </g>
     <g id="line2d_41">
      <g>
       <use style="stroke:#000000;stroke-width:0.8;" x="953.434722" xlink:href="#m7da2ae171d" y="153.61"/>
      </g>
     </g>
     <g id="text_22">
      <!-- 1 -->
      <g transform="translate(948.344722 172.7675)scale(0.16 -0.16)">
       <use xlink:href="#DejaVuSans-49"/>
      </g>
     </g>
    </g>
    <g id="xtick_16">
     <g id="line2d_42">
      <path clip-path="url(#p4278d885c2)" d="M 1007.081944 153.61 
L 1007.081944 49.175 
" style="fill:none;stroke:#cccccc;stroke-dasharray:1.85,0.8;stroke-dashoffset:0;stroke-width:0.5;"/>
     </g>
     <g id="line2d_43">
      <g>
       <use style="stroke:#000000;stroke-width:0.8;" x="1007.081944" xlink:href="#m7da2ae171d" y="153.61"/>
      </g>
     </g>
     <g id="text_23">
      <!-- 2 -->
      <g transform="translate(1001.991944 172.7675)scale(0.16 -0.16)">
       <use xlink:href="#DejaVuSans-50"/>
      </g>
     </g>
    </g>
    <g id="xtick_17">
     <g id="line2d_44">
      <path clip-path="url(#p4278d885c2)" d="M 1060.729167 153.61 
L 1060.729167 49.175 
" style="fill:none;stroke:#cccccc;stroke-dasharray:1.85,0.8;stroke-dashoffset:0;stroke-width:0.5;"/>
     </g>
     <g id="line2d_45">
      <g>
       <use style="stroke:#000000;stroke-width:0.8;" x="1060.729167" xlink:href="#m7da2ae171d" y="153.61"/>
      </g>
     </g>
     <g id="text_24">
      <!-- 3 -->
      <g transform="translate(1055.639167 172.7675)scale(0.16 -0.16)">
       <use xlink:href="#DejaVuSans-51"/>
      </g>
     </g>
    </g>
    <g id="xtick_18">
     <g id="line2d_46">
      <path clip-path="url(#p4278d885c2)" d="M 1114.376389 153.61 
L 1114.376389 49.175 
" style="fill:none;stroke:#cccccc;stroke-dasharray:1.85,0.8;stroke-dashoffset:0;stroke-width:0.5;"/>
     </g>
     <g id="line2d_47">
      <g>
       <use style="stroke:#000000;stroke-width:0.8;" x="1114.376389" xlink:href="#m7da2ae171d" y="153.61"/>
      </g>
     </g>
     <g id="text_25">
      <!-- 4 -->
      <g transform="translate(1109.286389 172.7675)scale(0.16 -0.16)">
       <use xlink:href="#DejaVuSans-52"/>
      </g>
     </g>
    </g>
    <g id="text_26">
     <!-- $\frac{\omega}{2\pi T_s}$ (1/sec) -->
     <g transform="translate(856.1075 193.535)scale(0.16 -0.16)">
      <use transform="translate(49 45.71875)scale(0.7)" xlink:href="#DejaVuSans-Oblique-969"/>
      <use transform="translate(0 -38.5125)scale(0.7)" xlink:href="#DejaVuSans-50"/>
      <use transform="translate(44.536133 -38.5125)scale(0.7)" xlink:href="#DejaVuSans-Oblique-960"/>
      <use transform="translate(86.679688 -38.5125)scale(0.7)" xlink:href="#DejaVuSans-Oblique-84"/>
      <use transform="translate(129.438477 -49.996875)scale(0.49)" xlink:href="#DejaVuSans-Oblique-115"/>
      <use transform="translate(169.381348 0.89375)" xlink:href="#DejaVuSans-32"/>
      <use transform="translate(201.168457 0.89375)" xlink:href="#DejaVuSans-40"/>
      <use transform="translate(240.182129 0.89375)" xlink:href="#DejaVuSans-49"/>
      <use transform="translate(303.805176 0.89375)" xlink:href="#DejaVuSans-47"/>
      <use transform="translate(337.496582 0.89375)" xlink:href="#DejaVuSans-115"/>
      <use transform="translate(389.596191 0.89375)" xlink:href="#DejaVuSans-101"/>
      <use transform="translate(451.119629 0.89375)" xlink:href="#DejaVuSans-99"/>
      <use transform="translate(506.100098 0.89375)" xlink:href="#DejaVuSans-41"/>
      <path d="M 0 19.690625 
L 0 25.940625 
L 156.881348 25.940625 
L 156.881348 19.690625 
L 0 19.690625 
z
"/>
     </g>
    </g>
   </g>
   <g id="matplotlib.axis_4">
    <g id="ytick_6">
     <g id="line2d_48">
      <path clip-path="url(#p4278d885c2)" d="M 658.375 148.874324 
L 1141.2 148.874324 
" style="fill:none;stroke:#cccccc;stroke-dasharray:1.85,0.8;stroke-dashoffset:0;stroke-width:0.5;"/>
     </g>
     <g id="line2d_49">
      <g>
       <use style="stroke:#000000;stroke-width:0.8;" x="658.375" xlink:href="#m5c522f729e" y="148.874324"/>
      </g>
     </g>
     <g id="text_27">
      <!-- 0.00 -->
      <g transform="translate(615.75 154.953074)scale(0.16 -0.16)">
       <use xlink:href="#DejaVuSans-48"/>
       <use x="63.623047" xlink:href="#DejaVuSans-46"/>
       <use x="95.410156" xlink:href="#DejaVuSans-48"/>
       <use x="159.033203" xlink:href="#DejaVuSans-48"/>
      </g>
     </g>
    </g>
    <g id="ytick_7">
     <g id="line2d_50">
      <path clip-path="url(#p4278d885c2)" d="M 658.375 125.555726 
L 1141.2 125.555726 
" style="fill:none;stroke:#cccccc;stroke-dasharray:1.85,0.8;stroke-dashoffset:0;stroke-width:0.5;"/>
     </g>
     <g id="line2d_51">
      <g>
       <use style="stroke:#000000;stroke-width:0.8;" x="658.375" xlink:href="#m5c522f729e" y="125.555726"/>
      </g>
     </g>
     <g id="text_28">
      <!-- 0.25 -->
      <g transform="translate(615.75 131.634476)scale(0.16 -0.16)">
       <use xlink:href="#DejaVuSans-48"/>
       <use x="63.623047" xlink:href="#DejaVuSans-46"/>
       <use x="95.410156" xlink:href="#DejaVuSans-50"/>
       <use x="159.033203" xlink:href="#DejaVuSans-53"/>
      </g>
     </g>
    </g>
    <g id="ytick_8">
     <g id="line2d_52">
      <path clip-path="url(#p4278d885c2)" d="M 658.375 102.237129 
L 1141.2 102.237129 
" style="fill:none;stroke:#cccccc;stroke-dasharray:1.85,0.8;stroke-dashoffset:0;stroke-width:0.5;"/>
     </g>
     <g id="line2d_53">
      <g>
       <use style="stroke:#000000;stroke-width:0.8;" x="658.375" xlink:href="#m5c522f729e" y="102.237129"/>
      </g>
     </g>
     <g id="text_29">
      <!-- 0.50 -->
      <g transform="translate(615.75 108.315879)scale(0.16 -0.16)">
       <use xlink:href="#DejaVuSans-48"/>
       <use x="63.623047" xlink:href="#DejaVuSans-46"/>
       <use x="95.410156" xlink:href="#DejaVuSans-53"/>
       <use x="159.033203" xlink:href="#DejaVuSans-48"/>
      </g>
     </g>
    </g>
    <g id="ytick_9">
     <g id="line2d_54">
      <path clip-path="url(#p4278d885c2)" d="M 658.375 78.918531 
L 1141.2 78.918531 
" style="fill:none;stroke:#cccccc;stroke-dasharray:1.85,0.8;stroke-dashoffset:0;stroke-width:0.5;"/>
     </g>
     <g id="line2d_55">
      <g>
       <use style="stroke:#000000;stroke-width:0.8;" x="658.375" xlink:href="#m5c522f729e" y="78.918531"/>
      </g>
     </g>
     <g id="text_30">
      <!-- 0.75 -->
      <g transform="translate(615.75 84.997281)scale(0.16 -0.16)">
       <use xlink:href="#DejaVuSans-48"/>
       <use x="63.623047" xlink:href="#DejaVuSans-46"/>
       <use x="95.410156" xlink:href="#DejaVuSans-55"/>
       <use x="159.033203" xlink:href="#DejaVuSans-53"/>
      </g>
     </g>
    </g>
    <g id="ytick_10">
     <g id="line2d_56">
      <path clip-path="url(#p4278d885c2)" d="M 658.375 55.599934 
L 1141.2 55.599934 
" style="fill:none;stroke:#cccccc;stroke-dasharray:1.85,0.8;stroke-dashoffset:0;stroke-width:0.5;"/>
     </g>
     <g id="line2d_57">
      <g>
       <use style="stroke:#000000;stroke-width:0.8;" x="658.375" xlink:href="#m5c522f729e" y="55.599934"/>
      </g>
     </g>
     <g id="text_31">
      <!-- 1.00 -->
      <g transform="translate(615.75 61.678684)scale(0.16 -0.16)">
       <use xlink:href="#DejaVuSans-49"/>
       <use x="63.623047" xlink:href="#DejaVuSans-46"/>
       <use x="95.410156" xlink:href="#DejaVuSans-48"/>
       <use x="159.033203" xlink:href="#DejaVuSans-48"/>
      </g>
     </g>
    </g>
   </g>
   <g id="line2d_58">
    <path clip-path="url(#p4278d885c2)" d="M 658.375 148.862638 
L 1141.736472 148.862691 
L 1141.736472 148.862691 
" style="fill:none;stroke:#d62728;stroke-linecap:square;stroke-opacity:0.4;"/>
   </g>
   <g id="line2d_59">
    <path clip-path="url(#p4278d885c2)" d="M 658.375 148.862022 
L 1141.736472 148.86208 
L 1141.736472 148.86208 
" style="fill:none;stroke:#d62728;stroke-linecap:square;stroke-opacity:0.4;"/>
   </g>
   <g id="line2d_60">
    <path clip-path="url(#p4278d885c2)" d="M 658.375 148.861337 
L 1141.736472 148.861402 
L 1141.736472 148.861402 
" style="fill:none;stroke:#d62728;stroke-linecap:square;stroke-opacity:0.4;"/>
   </g>
   <g id="line2d_61">
    <path clip-path="url(#p4278d885c2)" d="M 658.375 148.860571 
L 1141.736472 148.860643 
L 1141.736472 148.860643 
" style="fill:none;stroke:#d62728;stroke-linecap:square;stroke-opacity:0.4;"/>
   </g>
   <g id="line2d_62">
    <path clip-path="url(#p4278d885c2)" d="M 658.375 148.859709 
L 1141.736472 148.859791 
L 1141.736472 148.859791 
" style="fill:none;stroke:#d62728;stroke-linecap:square;stroke-opacity:0.4;"/>
   </g>
   <g id="line2d_63">
    <path clip-path="url(#p4278d885c2)" d="M 658.375 148.858731 
L 1141.736472 148.858825 
L 1141.736472 148.858825 
" style="fill:none;stroke:#d62728;stroke-linecap:square;stroke-opacity:0.4;"/>
   </g>
   <g id="line2d_64">
    <path clip-path="url(#p4278d885c2)" d="M 658.375 148.857614 
L 1141.736472 148.857721 
L 1141.736472 148.857721 
" style="fill:none;stroke:#d62728;stroke-linecap:square;stroke-opacity:0.4;"/>
   </g>
   <g id="line2d_65">
    <path clip-path="url(#p4278d885c2)" d="M 658.375 148.856324 
L 1141.736472 148.856449 
L 1141.736472 148.856449 
" style="fill:none;stroke:#d62728;stroke-linecap:square;stroke-opacity:0.4;"/>
   </g>
   <g id="line2d_66">
    <path clip-path="url(#p4278d885c2)" d="M 658.375 148.854819 
L 1141.736472 148.854965 
L 1141.736472 148.854965 
" style="fill:none;stroke:#d62728;stroke-linecap:square;stroke-opacity:0.4;"/>
   </g>
   <g id="line2d_67">
    <path clip-path="url(#p4278d885c2)" d="M 658.375 148.853038 
L 1141.736472 148.853212 
L 1141.736472 148.853212 
" style="fill:none;stroke:#d62728;stroke-linecap:square;stroke-opacity:0.4;"/>
   </g>
   <g id="line2d_68">
    <path clip-path="url(#p4278d885c2)" d="M 658.375 148.8509 
L 1141.736472 148.85111 
L 1141.736472 148.85111 
" style="fill:none;stroke:#d62728;stroke-linecap:square;stroke-opacity:0.4;"/>
   </g>
   <g id="line2d_69">
    <path clip-path="url(#p4278d885c2)" d="M 658.375 148.848284 
L 1141.736472 148.848544 
L 1141.736472 148.848544 
" style="fill:none;stroke:#d62728;stroke-linecap:square;stroke-opacity:0.4;"/>
   </g>
   <g id="line2d_70">
    <path clip-path="url(#p4278d885c2)" d="M 658.375 148.845011 
L 1141.736472 148.845339 
L 1141.736472 148.845339 
" style="fill:none;stroke:#d62728;stroke-linecap:square;stroke-opacity:0.4;"/>
   </g>
   <g id="line2d_71">
    <path clip-path="url(#p4278d885c2)" d="M 658.375 148.840796 
L 1141.736472 148.841225 
L 1141.736472 148.841225 
" style="fill:none;stroke:#d62728;stroke-linecap:square;stroke-opacity:0.4;"/>
   </g>
   <g id="line2d_72">
    <path clip-path="url(#p4278d885c2)" d="M 658.375 148.835166 
L 1141.736472 148.83575 
L 1141.736472 148.83575 
" style="fill:none;stroke:#d62728;stroke-linecap:square;stroke-opacity:0.4;"/>
   </g>
   <g id="line2d_73">
    <path clip-path="url(#p4278d885c2)" d="M 658.375 148.827263 
L 1141.736472 148.828104 
L 1141.736472 148.828104 
" style="fill:none;stroke:#d62728;stroke-linecap:square;stroke-opacity:0.4;"/>
   </g>
   <g id="line2d_74">
    <path clip-path="url(#p4278d885c2)" d="M 658.375 148.815364 
L 1141.736472 148.816677 
L 1141.736472 148.816677 
" style="fill:none;stroke:#d62728;stroke-linecap:square;stroke-opacity:0.4;"/>
   </g>
   <g id="line2d_75">
    <path clip-path="url(#p4278d885c2)" d="M 658.375 148.795412 
L 1141.736472 148.797747 
L 1141.736472 148.797747 
" style="fill:none;stroke:#d62728;stroke-linecap:square;stroke-opacity:0.4;"/>
   </g>
   <g id="line2d_76">
    <path clip-path="url(#p4278d885c2)" d="M 658.375 148.755047 
L 1141.736472 148.760302 
L 1141.736472 148.760302 
" style="fill:none;stroke:#d62728;stroke-linecap:square;stroke-opacity:0.4;"/>
   </g>
   <g id="line2d_77">
    <path clip-path="url(#p4278d885c2)" d="M 658.375 148.63015 
L 1141.736472 148.651201 
L 1141.736472 148.651201 
" style="fill:none;stroke:#d62728;stroke-linecap:square;stroke-opacity:0.4;"/>
   </g>
   <g id="line2d_78">
    <path clip-path="url(#p4278d885c2)" d="M 658.375 143.692413 
L 691.099806 142.879826 
L 717.386944 142.015913 
L 739.382306 141.075462 
L 757.622361 140.074853 
L 772.643583 139.035253 
L 785.518917 137.926626 
L 796.248361 136.792149 
L 805.904861 135.549411 
L 813.951944 134.300201 
L 820.926083 133.011332 
L 827.36375 131.601289 
L 832.728472 130.219446 
L 837.556722 128.772085 
L 841.8485 127.28303 
L 846.140278 125.555726 
L 849.895583 123.800563 
L 853.114417 122.071338 
L 856.33325 120.085932 
L 859.015611 118.191959 
L 861.697972 116.031229 
L 864.380333 113.543116 
L 866.526222 111.263683 
L 868.672111 108.669845 
L 870.818 105.691736 
L 872.963889 102.237129 
L 874.573306 99.260287 
L 876.182722 95.877511 
L 877.792139 91.999696 
L 879.401556 87.509594 
L 881.010972 82.24976 
L 882.620389 76.003707 
L 884.229806 68.465367 
L 885.30275 62.509148 
L 886.375694 55.599934 
L 913.199306 55.599934 
L 914.27225 62.509148 
L 915.881667 71.145666 
L 917.491083 78.211907 
L 919.1005 84.100442 
L 920.709917 89.083048 
L 922.319333 93.353854 
L 923.92875 97.055218 
L 925.538167 100.293912 
L 927.684056 104.030867 
L 929.829944 107.233971 
L 931.975833 110.009995 
L 934.121722 112.439015 
L 936.267611 114.582269 
L 938.949972 116.93104 
L 941.632333 118.978686 
L 944.851167 121.114089 
L 948.07 122.964771 
L 951.825306 124.834533 
L 955.580611 126.452596 
L 959.872389 128.054148 
L 964.700639 129.602756 
L 970.065361 131.073868 
L 975.966556 132.452776 
L 982.404222 133.732378 
L 989.914833 134.994206 
L 998.498389 136.201173 
L 1008.154889 137.330464 
L 1019.420806 138.417554 
L 1032.296139 139.433596 
L 1047.317361 140.394834 
L 1065.020944 141.303351 
L 1086.479833 142.173578 
L 1112.2305 142.985789 
L 1141.736472 143.703903 
L 1141.736472 143.703903 
" style="fill:none;stroke:#d62728;stroke-linecap:square;stroke-opacity:0.4;"/>
   </g>
   <g id="line2d_79">
    <path clip-path="url(#p4278d885c2)" d="M 658.375 148.65118 
L 1141.736472 148.630125 
L 1141.736472 148.630125 
" style="fill:none;stroke:#d62728;stroke-linecap:square;stroke-opacity:0.4;"/>
   </g>
   <g id="line2d_80">
    <path clip-path="url(#p4278d885c2)" d="M 658.375 148.760297 
L 1141.736472 148.755041 
L 1141.736472 148.755041 
" style="fill:none;stroke:#d62728;stroke-linecap:square;stroke-opacity:0.4;"/>
   </g>
   <g id="line2d_81">
    <path clip-path="url(#p4278d885c2)" d="M 658.375 148.797744 
L 1141.736472 148.795409 
L 1141.736472 148.795409 
" style="fill:none;stroke:#d62728;stroke-linecap:square;stroke-opacity:0.4;"/>
   </g>
   <g id="line2d_82">
    <path clip-path="url(#p4278d885c2)" d="M 658.375 148.816676 
L 1141.736472 148.815363 
L 1141.736472 148.815363 
" style="fill:none;stroke:#d62728;stroke-linecap:square;stroke-opacity:0.4;"/>
   </g>
   <g id="line2d_83">
    <path clip-path="url(#p4278d885c2)" d="M 658.375 148.828103 
L 1141.736472 148.827262 
L 1141.736472 148.827262 
" style="fill:none;stroke:#d62728;stroke-linecap:square;stroke-opacity:0.4;"/>
   </g>
   <g id="line2d_84">
    <path clip-path="url(#p4278d885c2)" d="M 658.375 148.835749 
L 1141.736472 148.835165 
L 1141.736472 148.835165 
" style="fill:none;stroke:#d62728;stroke-linecap:square;stroke-opacity:0.4;"/>
   </g>
   <g id="line2d_85">
    <path clip-path="url(#p4278d885c2)" d="M 658.375 148.841224 
L 1141.736472 148.840796 
L 1141.736472 148.840796 
" style="fill:none;stroke:#d62728;stroke-linecap:square;stroke-opacity:0.4;"/>
   </g>
   <g id="line2d_86">
    <path clip-path="url(#p4278d885c2)" d="M 658.375 148.845339 
L 1141.736472 148.84501 
L 1141.736472 148.84501 
" style="fill:none;stroke:#d62728;stroke-linecap:square;stroke-opacity:0.4;"/>
   </g>
   <g id="line2d_87">
    <path clip-path="url(#p4278d885c2)" d="M 658.375 148.848543 
L 1141.736472 148.848284 
L 1141.736472 148.848284 
" style="fill:none;stroke:#d62728;stroke-linecap:square;stroke-opacity:0.4;"/>
   </g>
   <g id="line2d_88">
    <path clip-path="url(#p4278d885c2)" d="M 658.375 148.85111 
L 1141.736472 148.8509 
L 1141.736472 148.8509 
" style="fill:none;stroke:#d62728;stroke-linecap:square;stroke-opacity:0.4;"/>
   </g>
   <g id="line2d_89">
    <path clip-path="url(#p4278d885c2)" d="M 658.375 148.853212 
L 1141.736472 148.853038 
L 1141.736472 148.853038 
" style="fill:none;stroke:#d62728;stroke-linecap:square;stroke-opacity:0.4;"/>
   </g>
   <g id="line2d_90">
    <path clip-path="url(#p4278d885c2)" d="M 658.375 148.854964 
L 1141.736472 148.854819 
L 1141.736472 148.854819 
" style="fill:none;stroke:#d62728;stroke-linecap:square;stroke-opacity:0.4;"/>
   </g>
   <g id="line2d_91">
    <path clip-path="url(#p4278d885c2)" d="M 658.375 148.856448 
L 1141.736472 148.856324 
L 1141.736472 148.856324 
" style="fill:none;stroke:#d62728;stroke-linecap:square;stroke-opacity:0.4;"/>
   </g>
   <g id="line2d_92">
    <path clip-path="url(#p4278d885c2)" d="M 658.375 148.857721 
L 1141.736472 148.857614 
L 1141.736472 148.857614 
" style="fill:none;stroke:#d62728;stroke-linecap:square;stroke-opacity:0.4;"/>
   </g>
   <g id="line2d_93">
    <path clip-path="url(#p4278d885c2)" d="M 658.375 148.858825 
L 1141.736472 148.858731 
L 1141.736472 148.858731 
" style="fill:none;stroke:#d62728;stroke-linecap:square;stroke-opacity:0.4;"/>
   </g>
   <g id="line2d_94">
    <path clip-path="url(#p4278d885c2)" d="M 658.375 148.859791 
L 1141.736472 148.859709 
L 1141.736472 148.859709 
" style="fill:none;stroke:#d62728;stroke-linecap:square;stroke-opacity:0.4;"/>
   </g>
   <g id="line2d_95">
    <path clip-path="url(#p4278d885c2)" d="M 658.375 148.860643 
L 1141.736472 148.860571 
L 1141.736472 148.860571 
" style="fill:none;stroke:#d62728;stroke-linecap:square;stroke-opacity:0.4;"/>
   </g>
   <g id="line2d_96">
    <path clip-path="url(#p4278d885c2)" d="M 658.375 148.861402 
L 1141.736472 148.861337 
L 1141.736472 148.861337 
" style="fill:none;stroke:#d62728;stroke-linecap:square;stroke-opacity:0.4;"/>
   </g>
   <g id="line2d_97">
    <path clip-path="url(#p4278d885c2)" d="M 658.375 148.86208 
L 1141.736472 148.862022 
L 1141.736472 148.862022 
" style="fill:none;stroke:#d62728;stroke-linecap:square;stroke-opacity:0.4;"/>
   </g>
   <g id="line2d_98">
    <path clip-path="url(#p4278d885c2)" d="M 658.375 148.862691 
L 1141.736472 148.862638 
L 1141.736472 148.862638 
" style="fill:none;stroke:#d62728;stroke-linecap:square;stroke-opacity:0.4;"/>
   </g>
   <g id="line2d_99">
    <path clip-path="url(#p4278d885c2)" d="M 658.375 142.013392 
L 691.099806 141.201092 
L 717.386944 140.33738 
L 739.382306 139.397076 
L 757.622361 138.396575 
L 772.643583 137.357054 
L 785.518917 136.248487 
L 796.248361 135.114056 
L 805.904861 133.871355 
L 813.951944 132.622172 
L 820.926083 131.333327 
L 827.36375 129.923302 
L 832.728472 128.541474 
L 837.556722 127.094124 
L 841.8485 125.60508 
L 846.140278 123.877786 
L 849.895583 122.12263 
L 853.114417 120.393411 
L 856.33325 118.40801 
L 859.015611 116.514042 
L 861.697972 114.353316 
L 864.380333 111.865206 
L 866.526222 109.585776 
L 868.672111 106.991942 
L 870.818 104.013835 
L 872.963889 100.55923 
L 874.573306 97.582389 
L 876.182722 94.199616 
L 877.792139 90.321802 
L 879.401556 85.831701 
L 881.010972 80.571868 
L 882.620389 74.325816 
L 884.229806 66.787477 
L 885.30275 60.831259 
L 886.375694 53.922045 
L 913.199306 53.922045 
L 914.27225 60.831259 
L 915.881667 69.467776 
L 917.491083 76.534016 
L 919.1005 82.42255 
L 920.709917 87.405155 
L 922.319333 91.675959 
L 923.92875 95.377322 
L 925.538167 98.616015 
L 927.684056 102.352967 
L 929.829944 105.556069 
L 931.975833 108.33209 
L 934.121722 110.761108 
L 936.267611 112.904358 
L 938.949972 115.253125 
L 941.632333 117.300767 
L 944.851167 119.436164 
L 948.07 121.286841 
L 951.825306 123.156595 
L 955.580611 124.77465 
L 959.872389 126.376192 
L 964.700639 127.924789 
L 970.065361 129.395887 
L 975.966556 130.774779 
L 982.404222 132.05436 
L 989.914833 133.316163 
L 998.498389 134.523099 
L 1008.154889 135.65235 
L 1019.420806 136.73939 
L 1032.296139 137.75537 
L 1047.317361 138.716525 
L 1065.020944 139.624934 
L 1086.479833 140.495014 
L 1112.2305 141.307025 
L 1141.736472 142.024877 
L 1141.736472 142.024877 
" style="fill:none;stroke:#000000;stroke-linecap:square;"/>
   </g>
   <g id="patch_6">
    <path d="M 658.375 153.61 
L 658.375 49.175 
" style="fill:none;stroke:#000000;stroke-linecap:square;stroke-linejoin:miter;stroke-width:0.8;"/>
   </g>
   <g id="patch_7">
    <path d="M 658.375 153.61 
L 1141.2 153.61 
" style="fill:none;stroke:#000000;stroke-linecap:square;stroke-linejoin:miter;stroke-width:0.8;"/>
   </g>
   <g id="text_32">
    <!-- Fourier Transform of Impulse Train $X(\omega) * \frac{2\pi}{T_s} \sum_{n} \delta( \omega - n\cdot \omega_s) $ -->
    <g transform="translate(640.4975 37.115)scale(0.18 -0.18)">
     <defs>
      <path d="M 9.8125 72.90625 
L 51.703125 72.90625 
L 51.703125 64.59375 
L 19.671875 64.59375 
L 19.671875 43.109375 
L 48.578125 43.109375 
L 48.578125 34.8125 
L 19.671875 34.8125 
L 19.671875 0 
L 9.8125 0 
z
" id="DejaVuSans-70"/>
      <path d="M 30.609375 48.390625 
Q 23.390625 48.390625 19.1875 42.75 
Q 14.984375 37.109375 14.984375 27.296875 
Q 14.984375 17.484375 19.15625 11.84375 
Q 23.34375 6.203125 30.609375 6.203125 
Q 37.796875 6.203125 41.984375 11.859375 
Q 46.1875 17.53125 46.1875 27.296875 
Q 46.1875 37.015625 41.984375 42.703125 
Q 37.796875 48.390625 30.609375 48.390625 
z
M 30.609375 56 
Q 42.328125 56 49.015625 48.375 
Q 55.71875 40.765625 55.71875 27.296875 
Q 55.71875 13.875 49.015625 6.21875 
Q 42.328125 -1.421875 30.609375 -1.421875 
Q 18.84375 -1.421875 12.171875 6.21875 
Q 5.515625 13.875 5.515625 27.296875 
Q 5.515625 40.765625 12.171875 48.375 
Q 18.84375 56 30.609375 56 
z
" id="DejaVuSans-111"/>
      <path d="M 8.5 21.578125 
L 8.5 54.6875 
L 17.484375 54.6875 
L 17.484375 21.921875 
Q 17.484375 14.15625 20.5 10.265625 
Q 23.53125 6.390625 29.59375 6.390625 
Q 36.859375 6.390625 41.078125 11.03125 
Q 45.3125 15.671875 45.3125 23.6875 
L 45.3125 54.6875 
L 54.296875 54.6875 
L 54.296875 0 
L 45.3125 0 
L 45.3125 8.40625 
Q 42.046875 3.421875 37.71875 1 
Q 33.40625 -1.421875 27.6875 -1.421875 
Q 18.265625 -1.421875 13.375 4.4375 
Q 8.5 10.296875 8.5 21.578125 
z
M 31.109375 56 
z
" id="DejaVuSans-117"/>
      <path d="M 41.109375 46.296875 
Q 39.59375 47.171875 37.8125 47.578125 
Q 36.03125 48 33.890625 48 
Q 26.265625 48 22.1875 43.046875 
Q 18.109375 38.09375 18.109375 28.8125 
L 18.109375 0 
L 9.078125 0 
L 9.078125 54.6875 
L 18.109375 54.6875 
L 18.109375 46.1875 
Q 20.953125 51.171875 25.484375 53.578125 
Q 30.03125 56 36.53125 56 
Q 37.453125 56 38.578125 55.875 
Q 39.703125 55.765625 41.0625 55.515625 
z
" id="DejaVuSans-114"/>
      <path d="M 9.421875 54.6875 
L 18.40625 54.6875 
L 18.40625 0 
L 9.421875 0 
z
M 9.421875 75.984375 
L 18.40625 75.984375 
L 18.40625 64.59375 
L 9.421875 64.59375 
z
" id="DejaVuSans-105"/>
      <path d="M -0.296875 72.90625 
L 61.375 72.90625 
L 61.375 64.59375 
L 35.5 64.59375 
L 35.5 0 
L 25.59375 0 
L 25.59375 64.59375 
L -0.296875 64.59375 
z
" id="DejaVuSans-84"/>
      <path d="M 34.28125 27.484375 
Q 23.390625 27.484375 19.1875 25 
Q 14.984375 22.515625 14.984375 16.5 
Q 14.984375 11.71875 18.140625 8.90625 
Q 21.296875 6.109375 26.703125 6.109375 
Q 34.1875 6.109375 38.703125 11.40625 
Q 43.21875 16.703125 43.21875 25.484375 
L 43.21875 27.484375 
z
M 52.203125 31.203125 
L 52.203125 0 
L 43.21875 0 
L 43.21875 8.296875 
Q 40.140625 3.328125 35.546875 0.953125 
Q 30.953125 -1.421875 24.3125 -1.421875 
Q 15.921875 -1.421875 10.953125 3.296875 
Q 6 8.015625 6 15.921875 
Q 6 25.140625 12.171875 29.828125 
Q 18.359375 34.515625 30.609375 34.515625 
L 43.21875 34.515625 
L 43.21875 35.40625 
Q 43.21875 41.609375 39.140625 45 
Q 35.0625 48.390625 27.6875 48.390625 
Q 23 48.390625 18.546875 47.265625 
Q 14.109375 46.140625 10.015625 43.890625 
L 10.015625 52.203125 
Q 14.9375 54.109375 19.578125 55.046875 
Q 24.21875 56 28.609375 56 
Q 40.484375 56 46.34375 49.84375 
Q 52.203125 43.703125 52.203125 31.203125 
z
" id="DejaVuSans-97"/>
      <path d="M 54.890625 33.015625 
L 54.890625 0 
L 45.90625 0 
L 45.90625 32.71875 
Q 45.90625 40.484375 42.875 44.328125 
Q 39.84375 48.1875 33.796875 48.1875 
Q 26.515625 48.1875 22.3125 43.546875 
Q 18.109375 38.921875 18.109375 30.90625 
L 18.109375 0 
L 9.078125 0 
L 9.078125 54.6875 
L 18.109375 54.6875 
L 18.109375 46.1875 
Q 21.34375 51.125 25.703125 53.5625 
Q 30.078125 56 35.796875 56 
Q 45.21875 56 50.046875 50.171875 
Q 54.890625 44.34375 54.890625 33.015625 
z
" id="DejaVuSans-110"/>
      <path d="M 37.109375 75.984375 
L 37.109375 68.5 
L 28.515625 68.5 
Q 23.6875 68.5 21.796875 66.546875 
Q 19.921875 64.59375 19.921875 59.515625 
L 19.921875 54.6875 
L 34.71875 54.6875 
L 34.71875 47.703125 
L 19.921875 47.703125 
L 19.921875 0 
L 10.890625 0 
L 10.890625 47.703125 
L 2.296875 47.703125 
L 2.296875 54.6875 
L 10.890625 54.6875 
L 10.890625 58.5 
Q 10.890625 67.625 15.140625 71.796875 
Q 19.390625 75.984375 28.609375 75.984375 
z
" id="DejaVuSans-102"/>
      <path d="M 52 44.1875 
Q 55.375 50.25 60.0625 53.125 
Q 64.75 56 71.09375 56 
Q 79.640625 56 84.28125 50.015625 
Q 88.921875 44.046875 88.921875 33.015625 
L 88.921875 0 
L 79.890625 0 
L 79.890625 32.71875 
Q 79.890625 40.578125 77.09375 44.375 
Q 74.3125 48.1875 68.609375 48.1875 
Q 61.625 48.1875 57.5625 43.546875 
Q 53.515625 38.921875 53.515625 30.90625 
L 53.515625 0 
L 44.484375 0 
L 44.484375 32.71875 
Q 44.484375 40.625 41.703125 44.40625 
Q 38.921875 48.1875 33.109375 48.1875 
Q 26.21875 48.1875 22.15625 43.53125 
Q 18.109375 38.875 18.109375 30.90625 
L 18.109375 0 
L 9.078125 0 
L 9.078125 54.6875 
L 18.109375 54.6875 
L 18.109375 46.1875 
Q 21.1875 51.21875 25.484375 53.609375 
Q 29.78125 56 35.6875 56 
Q 41.65625 56 45.828125 52.96875 
Q 50 49.953125 52 44.1875 
z
" id="DejaVuSans-109"/>
      <path d="M 9.8125 72.90625 
L 19.671875 72.90625 
L 19.671875 0 
L 9.8125 0 
z
" id="DejaVuSans-73"/>
      <path d="M 18.109375 8.203125 
L 18.109375 -20.796875 
L 9.078125 -20.796875 
L 9.078125 54.6875 
L 18.109375 54.6875 
L 18.109375 46.390625 
Q 20.953125 51.265625 25.265625 53.625 
Q 29.59375 56 35.59375 56 
Q 45.5625 56 51.78125 48.09375 
Q 58.015625 40.1875 58.015625 27.296875 
Q 58.015625 14.40625 51.78125 6.484375 
Q 45.5625 -1.421875 35.59375 -1.421875 
Q 29.59375 -1.421875 25.265625 0.953125 
Q 20.953125 3.328125 18.109375 8.203125 
z
M 48.6875 27.296875 
Q 48.6875 37.203125 44.609375 42.84375 
Q 40.53125 48.484375 33.40625 48.484375 
Q 26.265625 48.484375 22.1875 42.84375 
Q 18.109375 37.203125 18.109375 27.296875 
Q 18.109375 17.390625 22.1875 11.75 
Q 26.265625 6.109375 33.40625 6.109375 
Q 40.53125 6.109375 44.609375 11.75 
Q 48.6875 17.390625 48.6875 27.296875 
z
" id="DejaVuSans-112"/>
      <path d="M 9.421875 75.984375 
L 18.40625 75.984375 
L 18.40625 0 
L 9.421875 0 
z
" id="DejaVuSans-108"/>
      <path d="M 47.015625 60.890625 
L 29.5 51.421875 
L 47.015625 41.890625 
L 44.1875 37.109375 
L 27.78125 47.015625 
L 27.78125 28.609375 
L 22.21875 28.609375 
L 22.21875 47.015625 
L 5.8125 37.109375 
L 2.984375 41.890625 
L 20.515625 51.421875 
L 2.984375 60.890625 
L 5.8125 65.71875 
L 22.21875 55.8125 
L 22.21875 74.21875 
L 27.78125 74.21875 
L 27.78125 55.8125 
L 44.1875 65.71875 
z
" id="DejaVuSans-42"/>
      <path d="M 3.8125 101.703125 
L 90.671875 101.703125 
L 90.671875 88.375 
L 24.46875 88.375 
L 70.84375 38.875 
L 22.953125 -13.875 
L 92.484375 -13.875 
L 92.484375 -27.15625 
L 1.703125 -27.15625 
L 1.703125 -16.84375 
L 51.8125 38.484375 
L 3.8125 89.5 
z
" id="DejaVuSansDisplay-8721"/>
      <path d="M 55.71875 33.015625 
L 49.3125 0 
L 40.28125 0 
L 46.6875 32.671875 
Q 47.125 34.96875 47.359375 36.71875 
Q 47.609375 38.484375 47.609375 39.5 
Q 47.609375 43.609375 45.015625 45.890625 
Q 42.4375 48.1875 37.796875 48.1875 
Q 30.5625 48.1875 25.34375 43.375 
Q 20.125 38.578125 18.5 30.328125 
L 12.5 0 
L 3.515625 0 
L 14.109375 54.6875 
L 23.09375 54.6875 
L 21.296875 46.09375 
Q 25.046875 50.828125 30.3125 53.40625 
Q 35.59375 56 41.40625 56 
Q 48.640625 56 52.609375 52.09375 
Q 56.59375 48.1875 56.59375 41.109375 
Q 56.59375 39.359375 56.375 37.359375 
Q 56.15625 35.359375 55.71875 33.015625 
z
" id="DejaVuSans-Oblique-110"/>
      <path d="M 54.25 63.328125 
Q 49.953125 66.75 38.28125 66.75 
Q 25.921875 66.75 24.8125 61.03125 
Q 23.921875 56.546875 36.375 54.203125 
Q 46.140625 52.390625 50.828125 46.921875 
Q 56.5 40.328125 53.859375 26.8125 
Q 51.3125 13.875 43.171875 6.25 
Q 34.96875 -1.421875 23.25 -1.421875 
Q 11.578125 -1.421875 6.34375 6.25 
Q 1.125 13.875 3.765625 27.296875 
Q 5.671875 37.25 13.921875 45.3125 
Q 17.140625 48.4375 21.140625 50.203125 
Q 14.265625 54.046875 15.625 60.9375 
Q 18.21875 74.21875 39.75 74.21875 
Q 50.53125 74.21875 55.71875 70.796875 
z
M 27.390625 47.75 
Q 23.828125 46.34375 20.40625 42.78125 
Q 15.140625 37.25 13.234375 27.296875 
Q 11.28125 17.390625 14.359375 11.8125 
Q 17.484375 6.203125 24.75 6.203125 
Q 31.9375 6.203125 37.203125 11.859375 
Q 42.53125 17.53125 44.34375 26.8125 
Q 46.1875 36.53125 42.671875 41.21875 
Q 38.921875 46.234375 32.859375 46.78125 
Q 29.78125 47.078125 27.390625 47.75 
z
" id="DejaVuSans-Oblique-948"/>
      <path d="M 10.6875 40.921875 
L 21 40.921875 
L 21 28.515625 
L 10.6875 28.515625 
z
" id="DejaVuSans-8901"/>
     </defs>
     <use transform="translate(0 0.546875)" xlink:href="#DejaVuSans-70"/>
     <use transform="translate(57.519531 0.546875)" xlink:href="#DejaVuSans-111"/>
     <use transform="translate(118.701172 0.546875)" xlink:href="#DejaVuSans-117"/>
     <use transform="translate(182.080078 0.546875)" xlink:href="#DejaVuSans-114"/>
     <use transform="translate(223.193359 0.546875)" xlink:href="#DejaVuSans-105"/>
     <use transform="translate(250.976562 0.546875)" xlink:href="#DejaVuSans-101"/>
     <use transform="translate(312.5 0.546875)" xlink:href="#DejaVuSans-114"/>
     <use transform="translate(353.613281 0.546875)" xlink:href="#DejaVuSans-32"/>
     <use transform="translate(385.400391 0.546875)" xlink:href="#DejaVuSans-84"/>
     <use transform="translate(446.484375 0.546875)" xlink:href="#DejaVuSans-114"/>
     <use transform="translate(487.597656 0.546875)" xlink:href="#DejaVuSans-97"/>
     <use transform="translate(548.876953 0.546875)" xlink:href="#DejaVuSans-110"/>
     <use transform="translate(612.255859 0.546875)" xlink:href="#DejaVuSans-115"/>
     <use transform="translate(664.355469 0.546875)" xlink:href="#DejaVuSans-102"/>
     <use transform="translate(699.560547 0.546875)" xlink:href="#DejaVuSans-111"/>
     <use transform="translate(760.742188 0.546875)" xlink:href="#DejaVuSans-114"/>
     <use transform="translate(801.855469 0.546875)" xlink:href="#DejaVuSans-109"/>
     <use transform="translate(899.267578 0.546875)" xlink:href="#DejaVuSans-32"/>
     <use transform="translate(931.054688 0.546875)" xlink:href="#DejaVuSans-111"/>
     <use transform="translate(992.236328 0.546875)" xlink:href="#DejaVuSans-102"/>
     <use transform="translate(1027.441406 0.546875)" xlink:href="#DejaVuSans-32"/>
     <use transform="translate(1059.228516 0.546875)" xlink:href="#DejaVuSans-73"/>
     <use transform="translate(1085.095703 0.546875)" xlink:href="#DejaVuSans-109"/>
     <use transform="translate(1182.507812 0.546875)" xlink:href="#DejaVuSans-112"/>
     <use transform="translate(1245.984375 0.546875)" xlink:href="#DejaVuSans-117"/>
     <use transform="translate(1309.363281 0.546875)" xlink:href="#DejaVuSans-108"/>
     <use transform="translate(1337.146484 0.546875)" xlink:href="#DejaVuSans-115"/>
     <use transform="translate(1389.246094 0.546875)" xlink:href="#DejaVuSans-101"/>
     <use transform="translate(1450.769531 0.546875)" xlink:href="#DejaVuSans-32"/>
     <use transform="translate(1482.556641 0.546875)" xlink:href="#DejaVuSans-84"/>
     <use transform="translate(1543.640625 0.546875)" xlink:href="#DejaVuSans-114"/>
     <use transform="translate(1584.753906 0.546875)" xlink:href="#DejaVuSans-97"/>
     <use transform="translate(1646.033203 0.546875)" xlink:href="#DejaVuSans-105"/>
     <use transform="translate(1673.816406 0.546875)" xlink:href="#DejaVuSans-110"/>
     <use transform="translate(1737.195312 0.546875)" xlink:href="#DejaVuSans-32"/>
     <use transform="translate(1768.982422 0.546875)" xlink:href="#DejaVuSans-Oblique-88"/>
     <use transform="translate(1837.488281 0.546875)" xlink:href="#DejaVuSans-40"/>
     <use transform="translate(1876.501953 0.546875)" xlink:href="#DejaVuSans-Oblique-969"/>
     <use transform="translate(1960.242188 0.546875)" xlink:href="#DejaVuSans-41"/>
     <use transform="translate(2018.738281 0.546875)" xlink:href="#DejaVuSans-42"/>
     <use transform="translate(2088.220703 45.678125)scale(0.7)" xlink:href="#DejaVuSans-50"/>
     <use transform="translate(2132.756836 45.678125)scale(0.7)" xlink:href="#DejaVuSans-Oblique-960"/>
     <use transform="translate(2096.220703 -37.940625)scale(0.7)" xlink:href="#DejaVuSans-Oblique-84"/>
     <use transform="translate(2138.979492 -49.425)scale(0.49)" xlink:href="#DejaVuSans-Oblique-115"/>
     <use transform="translate(2187.400391 19.296875)" xlink:href="#DejaVuSansDisplay-8721"/>
     <use transform="translate(2210.400391 -65.809375)scale(0.7)" xlink:href="#DejaVuSans-Oblique-110"/>
     <use transform="translate(2278.166016 0.546875)" xlink:href="#DejaVuSans-Oblique-948"/>
     <use transform="translate(2339.347656 0.546875)" xlink:href="#DejaVuSans-40"/>
     <use transform="translate(2378.361328 0.546875)" xlink:href="#DejaVuSans-Oblique-969"/>
     <use transform="translate(2481.583984 0.546875)" xlink:href="#DejaVuSans-8722"/>
     <use transform="translate(2584.855469 0.546875)" xlink:href="#DejaVuSans-Oblique-110"/>
     <use transform="translate(2667.716797 0.546875)" xlink:href="#DejaVuSans-8901"/>
     <use transform="translate(2718.986328 0.546875)" xlink:href="#DejaVuSans-Oblique-969"/>
     <use transform="translate(2802.726562 -15.859375)scale(0.7)" xlink:href="#DejaVuSans-Oblique-115"/>
     <use transform="translate(2841.930664 0.546875)" xlink:href="#DejaVuSans-41"/>
     <path d="M 2088.220703 19.34375 
L 2088.220703 25.59375 
L 2174.900391 25.59375 
L 2174.900391 19.34375 
L 2088.220703 19.34375 
z
"/>
    </g>
   </g>
  </g>
 </g>
 <defs>
  <clipPath id="pe170d98215">
   <rect height="104.435" width="482.825" x="43.175" y="49.175"/>
  </clipPath>
  <clipPath id="p4278d885c2">
   <rect height="104.435" width="482.825" x="658.375" y="49.175"/>
  </clipPath>
 </defs>
</svg>
