<?xml version="1.0" encoding="utf-8" standalone="no"?>
<!DOCTYPE svg PUBLIC "-//W3C//DTD SVG 1.1//EN"
  "http://www.w3.org/Graphics/SVG/1.1/DTD/svg11.dtd">
<!-- Created with matplotlib (https://matplotlib.org/) -->
<svg height="216pt" version="1.1" viewBox="0 0 1152 216" width="1152pt" xmlns="http://www.w3.org/2000/svg" xmlns:xlink="http://www.w3.org/1999/xlink">
 <metadata>
  <rdf:RDF xmlns:cc="http://creativecommons.org/ns#" xmlns:dc="http://purl.org/dc/elements/1.1/" xmlns:rdf="http://www.w3.org/1999/02/22-rdf-syntax-ns#">
   <cc:Work>
    <dc:type rdf:resource="http://purl.org/dc/dcmitype/StillImage"/>
    <dc:date>2021-10-30T13:00:51.172331</dc:date>
    <dc:format>image/svg+xml</dc:format>
    <dc:creator>
     <cc:Agent>
      <dc:title>Matplotlib v3.3.4, https://matplotlib.org/</dc:title>
     </cc:Agent>
    </dc:creator>
   </cc:Work>
  </rdf:RDF>
 </metadata>
 <defs>
  <style type="text/css">*{stroke-linecap:butt;stroke-linejoin:round;}</style>
 </defs>
 <g id="figure_1">
  <g id="patch_1">
   <path d="M 0 216 
L 1152 216 
L 1152 0 
L 0 0 
z
" style="fill:none;"/>
  </g>
  <g id="axes_1">
   <g id="patch_2">
    <path d="M 43.175 153.61 
L 520.9375 153.61 
L 520.9375 49.175 
L 43.175 49.175 
z
" style="fill:#ffffff;"/>
   </g>
   <g id="matplotlib.axis_1">
    <g id="xtick_1">
     <g id="line2d_1">
      <path clip-path="url(#pb04b250d2b)" d="M 69.717361 153.61 
L 69.717361 49.175 
" style="fill:none;stroke:#cccccc;stroke-dasharray:1.85,0.8;stroke-dashoffset:0;stroke-width:0.5;"/>
     </g>
     <g id="line2d_2">
      <defs>
       <path d="M 0 0 
L 0 3.5 
" id="m07ff394c49" style="stroke:#000000;stroke-width:0.8;"/>
      </defs>
      <g>
       <use style="stroke:#000000;stroke-width:0.8;" x="69.717361" xlink:href="#m07ff394c49" y="153.61"/>
      </g>
     </g>
     <g id="text_1">
      <!-- −4 -->
      <g transform="translate(57.923611 172.7675)scale(0.16 -0.16)">
       <defs>
        <path d="M 10.59375 35.5 
L 73.1875 35.5 
L 73.1875 27.203125 
L 10.59375 27.203125 
z
" id="DejaVuSans-8722"/>
        <path d="M 37.796875 64.3125 
L 12.890625 25.390625 
L 37.796875 25.390625 
z
M 35.203125 72.90625 
L 47.609375 72.90625 
L 47.609375 25.390625 
L 58.015625 25.390625 
L 58.015625 17.1875 
L 47.609375 17.1875 
L 47.609375 0 
L 37.796875 0 
L 37.796875 17.1875 
L 4.890625 17.1875 
L 4.890625 26.703125 
z
" id="DejaVuSans-52"/>
       </defs>
       <use xlink:href="#DejaVuSans-8722"/>
       <use x="83.789062" xlink:href="#DejaVuSans-52"/>
      </g>
     </g>
    </g>
    <g id="xtick_2">
     <g id="line2d_3">
      <path clip-path="url(#pb04b250d2b)" d="M 122.802083 153.61 
L 122.802083 49.175 
" style="fill:none;stroke:#cccccc;stroke-dasharray:1.85,0.8;stroke-dashoffset:0;stroke-width:0.5;"/>
     </g>
     <g id="line2d_4">
      <g>
       <use style="stroke:#000000;stroke-width:0.8;" x="122.802083" xlink:href="#m07ff394c49" y="153.61"/>
      </g>
     </g>
     <g id="text_2">
      <!-- −3 -->
      <g transform="translate(111.008333 172.7675)scale(0.16 -0.16)">
       <defs>
        <path d="M 40.578125 39.3125 
Q 47.65625 37.796875 51.625 33 
Q 55.609375 28.21875 55.609375 21.1875 
Q 55.609375 10.40625 48.1875 4.484375 
Q 40.765625 -1.421875 27.09375 -1.421875 
Q 22.515625 -1.421875 17.65625 -0.515625 
Q 12.796875 0.390625 7.625 2.203125 
L 7.625 11.71875 
Q 11.71875 9.328125 16.59375 8.109375 
Q 21.484375 6.890625 26.8125 6.890625 
Q 36.078125 6.890625 40.9375 10.546875 
Q 45.796875 14.203125 45.796875 21.1875 
Q 45.796875 27.640625 41.28125 31.265625 
Q 36.765625 34.90625 28.71875 34.90625 
L 20.21875 34.90625 
L 20.21875 43.015625 
L 29.109375 43.015625 
Q 36.375 43.015625 40.234375 45.921875 
Q 44.09375 48.828125 44.09375 54.296875 
Q 44.09375 59.90625 40.109375 62.90625 
Q 36.140625 65.921875 28.71875 65.921875 
Q 24.65625 65.921875 20.015625 65.03125 
Q 15.375 64.15625 9.8125 62.3125 
L 9.8125 71.09375 
Q 15.4375 72.65625 20.34375 73.4375 
Q 25.25 74.21875 29.59375 74.21875 
Q 40.828125 74.21875 47.359375 69.109375 
Q 53.90625 64.015625 53.90625 55.328125 
Q 53.90625 49.265625 50.4375 45.09375 
Q 46.96875 40.921875 40.578125 39.3125 
z
" id="DejaVuSans-51"/>
       </defs>
       <use xlink:href="#DejaVuSans-8722"/>
       <use x="83.789062" xlink:href="#DejaVuSans-51"/>
      </g>
     </g>
    </g>
    <g id="xtick_3">
     <g id="line2d_5">
      <path clip-path="url(#pb04b250d2b)" d="M 175.886806 153.61 
L 175.886806 49.175 
" style="fill:none;stroke:#cccccc;stroke-dasharray:1.85,0.8;stroke-dashoffset:0;stroke-width:0.5;"/>
     </g>
     <g id="line2d_6">
      <g>
       <use style="stroke:#000000;stroke-width:0.8;" x="175.886806" xlink:href="#m07ff394c49" y="153.61"/>
      </g>
     </g>
     <g id="text_3">
      <!-- −2 -->
      <g transform="translate(164.093056 172.7675)scale(0.16 -0.16)">
       <defs>
        <path d="M 19.1875 8.296875 
L 53.609375 8.296875 
L 53.609375 0 
L 7.328125 0 
L 7.328125 8.296875 
Q 12.9375 14.109375 22.625 23.890625 
Q 32.328125 33.6875 34.8125 36.53125 
Q 39.546875 41.84375 41.421875 45.53125 
Q 43.3125 49.21875 43.3125 52.78125 
Q 43.3125 58.59375 39.234375 62.25 
Q 35.15625 65.921875 28.609375 65.921875 
Q 23.96875 65.921875 18.8125 64.3125 
Q 13.671875 62.703125 7.8125 59.421875 
L 7.8125 69.390625 
Q 13.765625 71.78125 18.9375 73 
Q 24.125 74.21875 28.421875 74.21875 
Q 39.75 74.21875 46.484375 68.546875 
Q 53.21875 62.890625 53.21875 53.421875 
Q 53.21875 48.921875 51.53125 44.890625 
Q 49.859375 40.875 45.40625 35.40625 
Q 44.1875 33.984375 37.640625 27.21875 
Q 31.109375 20.453125 19.1875 8.296875 
z
" id="DejaVuSans-50"/>
       </defs>
       <use xlink:href="#DejaVuSans-8722"/>
       <use x="83.789062" xlink:href="#DejaVuSans-50"/>
      </g>
     </g>
    </g>
    <g id="xtick_4">
     <g id="line2d_7">
      <path clip-path="url(#pb04b250d2b)" d="M 228.971528 153.61 
L 228.971528 49.175 
" style="fill:none;stroke:#cccccc;stroke-dasharray:1.85,0.8;stroke-dashoffset:0;stroke-width:0.5;"/>
     </g>
     <g id="line2d_8">
      <g>
       <use style="stroke:#000000;stroke-width:0.8;" x="228.971528" xlink:href="#m07ff394c49" y="153.61"/>
      </g>
     </g>
     <g id="text_4">
      <!-- −1 -->
      <g transform="translate(217.177778 172.7675)scale(0.16 -0.16)">
       <defs>
        <path d="M 12.40625 8.296875 
L 28.515625 8.296875 
L 28.515625 63.921875 
L 10.984375 60.40625 
L 10.984375 69.390625 
L 28.421875 72.90625 
L 38.28125 72.90625 
L 38.28125 8.296875 
L 54.390625 8.296875 
L 54.390625 0 
L 12.40625 0 
z
" id="DejaVuSans-49"/>
       </defs>
       <use xlink:href="#DejaVuSans-8722"/>
       <use x="83.789062" xlink:href="#DejaVuSans-49"/>
      </g>
     </g>
    </g>
    <g id="xtick_5">
     <g id="line2d_9">
      <path clip-path="url(#pb04b250d2b)" d="M 282.05625 153.61 
L 282.05625 49.175 
" style="fill:none;stroke:#cccccc;stroke-dasharray:1.85,0.8;stroke-dashoffset:0;stroke-width:0.5;"/>
     </g>
     <g id="line2d_10">
      <g>
       <use style="stroke:#000000;stroke-width:0.8;" x="282.05625" xlink:href="#m07ff394c49" y="153.61"/>
      </g>
     </g>
     <g id="text_5">
      <!-- 0 -->
      <g transform="translate(276.96625 172.7675)scale(0.16 -0.16)">
       <defs>
        <path d="M 31.78125 66.40625 
Q 24.171875 66.40625 20.328125 58.90625 
Q 16.5 51.421875 16.5 36.375 
Q 16.5 21.390625 20.328125 13.890625 
Q 24.171875 6.390625 31.78125 6.390625 
Q 39.453125 6.390625 43.28125 13.890625 
Q 47.125 21.390625 47.125 36.375 
Q 47.125 51.421875 43.28125 58.90625 
Q 39.453125 66.40625 31.78125 66.40625 
z
M 31.78125 74.21875 
Q 44.046875 74.21875 50.515625 64.515625 
Q 56.984375 54.828125 56.984375 36.375 
Q 56.984375 17.96875 50.515625 8.265625 
Q 44.046875 -1.421875 31.78125 -1.421875 
Q 19.53125 -1.421875 13.0625 8.265625 
Q 6.59375 17.96875 6.59375 36.375 
Q 6.59375 54.828125 13.0625 64.515625 
Q 19.53125 74.21875 31.78125 74.21875 
z
" id="DejaVuSans-48"/>
       </defs>
       <use xlink:href="#DejaVuSans-48"/>
      </g>
     </g>
    </g>
    <g id="xtick_6">
     <g id="line2d_11">
      <path clip-path="url(#pb04b250d2b)" d="M 335.140972 153.61 
L 335.140972 49.175 
" style="fill:none;stroke:#cccccc;stroke-dasharray:1.85,0.8;stroke-dashoffset:0;stroke-width:0.5;"/>
     </g>
     <g id="line2d_12">
      <g>
       <use style="stroke:#000000;stroke-width:0.8;" x="335.140972" xlink:href="#m07ff394c49" y="153.61"/>
      </g>
     </g>
     <g id="text_6">
      <!-- 1 -->
      <g transform="translate(330.050972 172.7675)scale(0.16 -0.16)">
       <use xlink:href="#DejaVuSans-49"/>
      </g>
     </g>
    </g>
    <g id="xtick_7">
     <g id="line2d_13">
      <path clip-path="url(#pb04b250d2b)" d="M 388.225694 153.61 
L 388.225694 49.175 
" style="fill:none;stroke:#cccccc;stroke-dasharray:1.85,0.8;stroke-dashoffset:0;stroke-width:0.5;"/>
     </g>
     <g id="line2d_14">
      <g>
       <use style="stroke:#000000;stroke-width:0.8;" x="388.225694" xlink:href="#m07ff394c49" y="153.61"/>
      </g>
     </g>
     <g id="text_7">
      <!-- 2 -->
      <g transform="translate(383.135694 172.7675)scale(0.16 -0.16)">
       <use xlink:href="#DejaVuSans-50"/>
      </g>
     </g>
    </g>
    <g id="xtick_8">
     <g id="line2d_15">
      <path clip-path="url(#pb04b250d2b)" d="M 441.310417 153.61 
L 441.310417 49.175 
" style="fill:none;stroke:#cccccc;stroke-dasharray:1.85,0.8;stroke-dashoffset:0;stroke-width:0.5;"/>
     </g>
     <g id="line2d_16">
      <g>
       <use style="stroke:#000000;stroke-width:0.8;" x="441.310417" xlink:href="#m07ff394c49" y="153.61"/>
      </g>
     </g>
     <g id="text_8">
      <!-- 3 -->
      <g transform="translate(436.220417 172.7675)scale(0.16 -0.16)">
       <use xlink:href="#DejaVuSans-51"/>
      </g>
     </g>
    </g>
    <g id="xtick_9">
     <g id="line2d_17">
      <path clip-path="url(#pb04b250d2b)" d="M 494.395139 153.61 
L 494.395139 49.175 
" style="fill:none;stroke:#cccccc;stroke-dasharray:1.85,0.8;stroke-dashoffset:0;stroke-width:0.5;"/>
     </g>
     <g id="line2d_18">
      <g>
       <use style="stroke:#000000;stroke-width:0.8;" x="494.395139" xlink:href="#m07ff394c49" y="153.61"/>
      </g>
     </g>
     <g id="text_9">
      <!-- 4 -->
      <g transform="translate(489.305139 172.7675)scale(0.16 -0.16)">
       <use xlink:href="#DejaVuSans-52"/>
      </g>
     </g>
    </g>
    <g id="text_10">
     <!-- $\frac{\omega}{2\pi T_s}$ (1/sec) -->
     <g transform="translate(238.37625 193.535)scale(0.16 -0.16)">
      <defs>
       <path d="M 21.390625 -1.421875 
Q 1.125 -1.421875 6.78125 27.59375 
Q 8.984375 39.0625 19.625 54.6875 
L 29.296875 54.6875 
Q 19.234375 39.0625 17 27.34375 
Q 12.796875 6.203125 23.734375 6.203125 
Q 33.84375 6.203125 38.71875 32.46875 
L 47.015625 32.46875 
Q 41.703125 6.0625 51.8125 6.203125 
Q 62.703125 6.296875 66.796875 27.34375 
Q 69.046875 39.0625 65.140625 54.6875 
L 74.8125 54.6875 
Q 79.296875 39.0625 77.09375 27.59375 
Q 71.53125 -1.46875 51.21875 -1.421875 
Q 37.9375 -1.375 39.109375 13.1875 
Q 34.28125 -1.421875 21.390625 -1.421875 
z
" id="DejaVuSans-Oblique-969"/>
       <path d="M 9.125 54.6875 
L 61.53125 54.6875 
L 59.765625 45.703125 
L 52.875 45.703125 
L 46.34375 12.109375 
Q 45.65625 8.59375 46.578125 7.03125 
Q 47.46875 5.515625 50.140625 5.515625 
Q 50.875 5.515625 51.953125 5.671875 
Q 53.078125 5.765625 53.421875 5.8125 
L 52.15625 -0.6875 
Q 50.34375 -1.3125 48.484375 -1.609375 
Q 46.578125 -1.90625 44.78125 -1.90625 
Q 38.921875 -1.90625 37.3125 1.265625 
Q 35.6875 4.5 37.359375 13.09375 
L 43.703125 45.703125 
L 23.53125 45.703125 
L 14.65625 0 
L 5.46875 0 
L 14.359375 45.703125 
L 7.375 45.703125 
z
" id="DejaVuSans-Oblique-960"/>
       <path d="M 5.90625 72.90625 
L 67.578125 72.90625 
L 66.015625 64.59375 
L 39.984375 64.59375 
L 27.484375 0 
L 17.578125 0 
L 30.078125 64.59375 
L 4.296875 64.59375 
z
" id="DejaVuSans-Oblique-84"/>
       <path d="M 50 53.078125 
L 48.296875 44.578125 
Q 44.734375 46.53125 40.765625 47.5 
Q 36.8125 48.484375 32.625 48.484375 
Q 25.53125 48.484375 21.453125 46.0625 
Q 17.390625 43.65625 17.390625 39.5 
Q 17.390625 34.671875 26.859375 32.078125 
Q 27.59375 31.890625 27.9375 31.78125 
L 30.8125 30.90625 
Q 39.796875 28.421875 42.796875 25.6875 
Q 45.796875 22.953125 45.796875 18.21875 
Q 45.796875 9.515625 38.890625 4.046875 
Q 31.984375 -1.421875 20.796875 -1.421875 
Q 16.453125 -1.421875 11.671875 -0.578125 
Q 6.890625 0.25 1.125 2 
L 2.875 11.28125 
Q 7.8125 8.734375 12.59375 7.421875 
Q 17.390625 6.109375 21.78125 6.109375 
Q 28.375 6.109375 32.5 8.9375 
Q 36.625 11.765625 36.625 16.109375 
Q 36.625 20.796875 25.78125 23.6875 
L 24.859375 23.921875 
L 21.78125 24.703125 
Q 14.9375 26.515625 11.765625 29.46875 
Q 8.59375 32.421875 8.59375 37.015625 
Q 8.59375 45.75 15.15625 50.875 
Q 21.734375 56 33.015625 56 
Q 37.453125 56 41.671875 55.265625 
Q 45.90625 54.546875 50 53.078125 
z
" id="DejaVuSans-Oblique-115"/>
       <path id="DejaVuSans-32"/>
       <path d="M 31 75.875 
Q 24.46875 64.65625 21.28125 53.65625 
Q 18.109375 42.671875 18.109375 31.390625 
Q 18.109375 20.125 21.3125 9.0625 
Q 24.515625 -2 31 -13.1875 
L 23.1875 -13.1875 
Q 15.875 -1.703125 12.234375 9.375 
Q 8.59375 20.453125 8.59375 31.390625 
Q 8.59375 42.28125 12.203125 53.3125 
Q 15.828125 64.359375 23.1875 75.875 
z
" id="DejaVuSans-40"/>
       <path d="M 25.390625 72.90625 
L 33.6875 72.90625 
L 8.296875 -9.28125 
L 0 -9.28125 
z
" id="DejaVuSans-47"/>
       <path d="M 44.28125 53.078125 
L 44.28125 44.578125 
Q 40.484375 46.53125 36.375 47.5 
Q 32.28125 48.484375 27.875 48.484375 
Q 21.1875 48.484375 17.84375 46.4375 
Q 14.5 44.390625 14.5 40.28125 
Q 14.5 37.15625 16.890625 35.375 
Q 19.28125 33.59375 26.515625 31.984375 
L 29.59375 31.296875 
Q 39.15625 29.25 43.1875 25.515625 
Q 47.21875 21.78125 47.21875 15.09375 
Q 47.21875 7.46875 41.1875 3.015625 
Q 35.15625 -1.421875 24.609375 -1.421875 
Q 20.21875 -1.421875 15.453125 -0.5625 
Q 10.6875 0.296875 5.421875 2 
L 5.421875 11.28125 
Q 10.40625 8.6875 15.234375 7.390625 
Q 20.0625 6.109375 24.8125 6.109375 
Q 31.15625 6.109375 34.5625 8.28125 
Q 37.984375 10.453125 37.984375 14.40625 
Q 37.984375 18.0625 35.515625 20.015625 
Q 33.0625 21.96875 24.703125 23.78125 
L 21.578125 24.515625 
Q 13.234375 26.265625 9.515625 29.90625 
Q 5.8125 33.546875 5.8125 39.890625 
Q 5.8125 47.609375 11.28125 51.796875 
Q 16.75 56 26.8125 56 
Q 31.78125 56 36.171875 55.265625 
Q 40.578125 54.546875 44.28125 53.078125 
z
" id="DejaVuSans-115"/>
       <path d="M 56.203125 29.59375 
L 56.203125 25.203125 
L 14.890625 25.203125 
Q 15.484375 15.921875 20.484375 11.0625 
Q 25.484375 6.203125 34.421875 6.203125 
Q 39.59375 6.203125 44.453125 7.46875 
Q 49.3125 8.734375 54.109375 11.28125 
L 54.109375 2.78125 
Q 49.265625 0.734375 44.1875 -0.34375 
Q 39.109375 -1.421875 33.890625 -1.421875 
Q 20.796875 -1.421875 13.15625 6.1875 
Q 5.515625 13.8125 5.515625 26.8125 
Q 5.515625 40.234375 12.765625 48.109375 
Q 20.015625 56 32.328125 56 
Q 43.359375 56 49.78125 48.890625 
Q 56.203125 41.796875 56.203125 29.59375 
z
M 47.21875 32.234375 
Q 47.125 39.59375 43.09375 43.984375 
Q 39.0625 48.390625 32.421875 48.390625 
Q 24.90625 48.390625 20.390625 44.140625 
Q 15.875 39.890625 15.1875 32.171875 
z
" id="DejaVuSans-101"/>
       <path d="M 48.78125 52.59375 
L 48.78125 44.1875 
Q 44.96875 46.296875 41.140625 47.34375 
Q 37.3125 48.390625 33.40625 48.390625 
Q 24.65625 48.390625 19.8125 42.84375 
Q 14.984375 37.3125 14.984375 27.296875 
Q 14.984375 17.28125 19.8125 11.734375 
Q 24.65625 6.203125 33.40625 6.203125 
Q 37.3125 6.203125 41.140625 7.25 
Q 44.96875 8.296875 48.78125 10.40625 
L 48.78125 2.09375 
Q 45.015625 0.34375 40.984375 -0.53125 
Q 36.96875 -1.421875 32.421875 -1.421875 
Q 20.0625 -1.421875 12.78125 6.34375 
Q 5.515625 14.109375 5.515625 27.296875 
Q 5.515625 40.671875 12.859375 48.328125 
Q 20.21875 56 33.015625 56 
Q 37.15625 56 41.109375 55.140625 
Q 45.0625 54.296875 48.78125 52.59375 
z
" id="DejaVuSans-99"/>
       <path d="M 8.015625 75.875 
L 15.828125 75.875 
Q 23.140625 64.359375 26.78125 53.3125 
Q 30.421875 42.28125 30.421875 31.390625 
Q 30.421875 20.453125 26.78125 9.375 
Q 23.140625 -1.703125 15.828125 -13.1875 
L 8.015625 -13.1875 
Q 14.5 -2 17.703125 9.0625 
Q 20.90625 20.125 20.90625 31.390625 
Q 20.90625 42.671875 17.703125 53.65625 
Q 14.5 64.65625 8.015625 75.875 
z
" id="DejaVuSans-41"/>
      </defs>
      <use transform="translate(49 45.71875)scale(0.7)" xlink:href="#DejaVuSans-Oblique-969"/>
      <use transform="translate(0 -38.5125)scale(0.7)" xlink:href="#DejaVuSans-50"/>
      <use transform="translate(44.536133 -38.5125)scale(0.7)" xlink:href="#DejaVuSans-Oblique-960"/>
      <use transform="translate(86.679688 -38.5125)scale(0.7)" xlink:href="#DejaVuSans-Oblique-84"/>
      <use transform="translate(129.438477 -49.996875)scale(0.49)" xlink:href="#DejaVuSans-Oblique-115"/>
      <use transform="translate(169.381348 0.89375)" xlink:href="#DejaVuSans-32"/>
      <use transform="translate(201.168457 0.89375)" xlink:href="#DejaVuSans-40"/>
      <use transform="translate(240.182129 0.89375)" xlink:href="#DejaVuSans-49"/>
      <use transform="translate(303.805176 0.89375)" xlink:href="#DejaVuSans-47"/>
      <use transform="translate(337.496582 0.89375)" xlink:href="#DejaVuSans-115"/>
      <use transform="translate(389.596191 0.89375)" xlink:href="#DejaVuSans-101"/>
      <use transform="translate(451.119629 0.89375)" xlink:href="#DejaVuSans-99"/>
      <use transform="translate(506.100098 0.89375)" xlink:href="#DejaVuSans-41"/>
      <path d="M 0 19.690625 
L 0 25.940625 
L 156.881348 25.940625 
L 156.881348 19.690625 
L 0 19.690625 
z
"/>
     </g>
    </g>
   </g>
   <g id="matplotlib.axis_2">
    <g id="ytick_1">
     <g id="line2d_19">
      <path clip-path="url(#pb04b250d2b)" d="M 43.175 149.330736 
L 520.9375 149.330736 
" style="fill:none;stroke:#cccccc;stroke-dasharray:1.85,0.8;stroke-dashoffset:0;stroke-width:0.5;"/>
     </g>
     <g id="line2d_20">
      <defs>
       <path d="M 0 0 
L -3.5 0 
" id="mdd221c780f" style="stroke:#000000;stroke-width:0.8;"/>
      </defs>
      <g>
       <use style="stroke:#000000;stroke-width:0.8;" x="43.175" xlink:href="#mdd221c780f" y="149.330736"/>
      </g>
     </g>
     <g id="text_11">
      <!-- 0.00 -->
      <g transform="translate(0.55 155.409486)scale(0.16 -0.16)">
       <defs>
        <path d="M 10.6875 12.40625 
L 21 12.40625 
L 21 0 
L 10.6875 0 
z
" id="DejaVuSans-46"/>
       </defs>
       <use xlink:href="#DejaVuSans-48"/>
       <use x="63.623047" xlink:href="#DejaVuSans-46"/>
       <use x="95.410156" xlink:href="#DejaVuSans-48"/>
       <use x="159.033203" xlink:href="#DejaVuSans-48"/>
      </g>
     </g>
    </g>
    <g id="ytick_2">
     <g id="line2d_21">
      <path clip-path="url(#pb04b250d2b)" d="M 43.175 125.478563 
L 520.9375 125.478563 
" style="fill:none;stroke:#cccccc;stroke-dasharray:1.85,0.8;stroke-dashoffset:0;stroke-width:0.5;"/>
     </g>
     <g id="line2d_22">
      <g>
       <use style="stroke:#000000;stroke-width:0.8;" x="43.175" xlink:href="#mdd221c780f" y="125.478563"/>
      </g>
     </g>
     <g id="text_12">
      <!-- 0.25 -->
      <g transform="translate(0.55 131.557313)scale(0.16 -0.16)">
       <defs>
        <path d="M 10.796875 72.90625 
L 49.515625 72.90625 
L 49.515625 64.59375 
L 19.828125 64.59375 
L 19.828125 46.734375 
Q 21.96875 47.46875 24.109375 47.828125 
Q 26.265625 48.1875 28.421875 48.1875 
Q 40.625 48.1875 47.75 41.5 
Q 54.890625 34.8125 54.890625 23.390625 
Q 54.890625 11.625 47.5625 5.09375 
Q 40.234375 -1.421875 26.90625 -1.421875 
Q 22.3125 -1.421875 17.546875 -0.640625 
Q 12.796875 0.140625 7.71875 1.703125 
L 7.71875 11.625 
Q 12.109375 9.234375 16.796875 8.0625 
Q 21.484375 6.890625 26.703125 6.890625 
Q 35.15625 6.890625 40.078125 11.328125 
Q 45.015625 15.765625 45.015625 23.390625 
Q 45.015625 31 40.078125 35.4375 
Q 35.15625 39.890625 26.703125 39.890625 
Q 22.75 39.890625 18.8125 39.015625 
Q 14.890625 38.140625 10.796875 36.28125 
z
" id="DejaVuSans-53"/>
       </defs>
       <use xlink:href="#DejaVuSans-48"/>
       <use x="63.623047" xlink:href="#DejaVuSans-46"/>
       <use x="95.410156" xlink:href="#DejaVuSans-50"/>
       <use x="159.033203" xlink:href="#DejaVuSans-53"/>
      </g>
     </g>
    </g>
    <g id="ytick_3">
     <g id="line2d_23">
      <path clip-path="url(#pb04b250d2b)" d="M 43.175 101.626391 
L 520.9375 101.626391 
" style="fill:none;stroke:#cccccc;stroke-dasharray:1.85,0.8;stroke-dashoffset:0;stroke-width:0.5;"/>
     </g>
     <g id="line2d_24">
      <g>
       <use style="stroke:#000000;stroke-width:0.8;" x="43.175" xlink:href="#mdd221c780f" y="101.626391"/>
      </g>
     </g>
     <g id="text_13">
      <!-- 0.50 -->
      <g transform="translate(0.55 107.705141)scale(0.16 -0.16)">
       <use xlink:href="#DejaVuSans-48"/>
       <use x="63.623047" xlink:href="#DejaVuSans-46"/>
       <use x="95.410156" xlink:href="#DejaVuSans-53"/>
       <use x="159.033203" xlink:href="#DejaVuSans-48"/>
      </g>
     </g>
    </g>
    <g id="ytick_4">
     <g id="line2d_25">
      <path clip-path="url(#pb04b250d2b)" d="M 43.175 77.774218 
L 520.9375 77.774218 
" style="fill:none;stroke:#cccccc;stroke-dasharray:1.85,0.8;stroke-dashoffset:0;stroke-width:0.5;"/>
     </g>
     <g id="line2d_26">
      <g>
       <use style="stroke:#000000;stroke-width:0.8;" x="43.175" xlink:href="#mdd221c780f" y="77.774218"/>
      </g>
     </g>
     <g id="text_14">
      <!-- 0.75 -->
      <g transform="translate(0.55 83.852968)scale(0.16 -0.16)">
       <defs>
        <path d="M 8.203125 72.90625 
L 55.078125 72.90625 
L 55.078125 68.703125 
L 28.609375 0 
L 18.3125 0 
L 43.21875 64.59375 
L 8.203125 64.59375 
z
" id="DejaVuSans-55"/>
       </defs>
       <use xlink:href="#DejaVuSans-48"/>
       <use x="63.623047" xlink:href="#DejaVuSans-46"/>
       <use x="95.410156" xlink:href="#DejaVuSans-55"/>
       <use x="159.033203" xlink:href="#DejaVuSans-53"/>
      </g>
     </g>
    </g>
    <g id="ytick_5">
     <g id="line2d_27">
      <path clip-path="url(#pb04b250d2b)" d="M 43.175 53.922045 
L 520.9375 53.922045 
" style="fill:none;stroke:#cccccc;stroke-dasharray:1.85,0.8;stroke-dashoffset:0;stroke-width:0.5;"/>
     </g>
     <g id="line2d_28">
      <g>
       <use style="stroke:#000000;stroke-width:0.8;" x="43.175" xlink:href="#mdd221c780f" y="53.922045"/>
      </g>
     </g>
     <g id="text_15">
      <!-- 1.00 -->
      <g transform="translate(0.55 60.000795)scale(0.16 -0.16)">
       <use xlink:href="#DejaVuSans-49"/>
       <use x="63.623047" xlink:href="#DejaVuSans-46"/>
       <use x="95.410156" xlink:href="#DejaVuSans-48"/>
       <use x="159.033203" xlink:href="#DejaVuSans-48"/>
      </g>
     </g>
    </g>
   </g>
   <g id="line2d_29">
    <path clip-path="url(#pb04b250d2b)" d="M 43.175 144.030253 
L 75.556681 143.199072 
L 101.568194 142.315391 
L 122.802083 141.380012 
L 140.320042 140.397338 
L 155.183764 139.350747 
L 167.924097 138.236702 
L 178.541042 137.098853 
L 188.096292 135.854932 
L 196.059 134.607173 
L 203.490861 133.214403 
L 209.861028 131.792374 
L 215.700347 130.248998 
L 220.477972 128.768518 
L 224.72475 127.245391 
L 228.971528 125.478563 
L 232.687458 123.683238 
L 235.872542 121.914446 
L 239.057625 119.883609 
L 241.711861 117.946298 
L 244.366097 115.736127 
L 247.020333 113.19108 
L 249.143722 110.85949 
L 251.267111 108.2063 
L 253.3905 105.160046 
L 255.513889 101.626391 
L 257.106431 98.581432 
L 258.698972 95.121253 
L 260.291514 91.154705 
L 261.884056 86.561861 
L 263.476597 81.181671 
L 265.069139 74.792696 
L 266.661681 67.081865 
L 267.723375 60.989356 
L 268.785069 53.922045 
L 295.327431 53.922045 
L 296.389125 60.989356 
L 297.981667 69.823494 
L 299.574208 77.051425 
L 301.16675 83.074701 
L 302.759292 88.171319 
L 304.351833 92.539849 
L 305.944375 96.325908 
L 307.536917 99.63871 
L 309.660306 103.461173 
L 311.783694 106.737571 
L 313.907083 109.577115 
L 316.030472 112.061716 
L 318.153861 114.254011 
L 320.808097 116.656527 
L 323.462333 118.751027 
L 326.116569 120.593179 
L 329.301653 122.530542 
L 332.486736 124.223186 
L 336.202667 125.946253 
L 340.449444 127.646943 
L 345.227069 129.286893 
L 350.004694 130.696226 
L 355.844014 132.1709 
L 362.214181 133.534595 
L 369.115194 134.786728 
L 377.077903 136.0055 
L 386.102306 137.16126 
L 396.71925 138.288063 
L 408.928736 139.350747 
L 423.261611 140.363754 
L 439.717875 141.299701 
L 459.359222 142.189367 
L 482.7165 143.020637 
L 511.38225 143.8094 
L 521.468347 144.042006 
L 521.468347 144.042006 
" style="fill:none;stroke:#000000;stroke-linecap:square;stroke-width:3;"/>
   </g>
   <g id="patch_3">
    <path d="M 43.175 153.61 
L 43.175 49.175 
" style="fill:none;stroke:#000000;stroke-linecap:square;stroke-linejoin:miter;stroke-width:0.8;"/>
   </g>
   <g id="patch_4">
    <path d="M 43.175 153.61 
L 520.9375 153.61 
" style="fill:none;stroke:#000000;stroke-linecap:square;stroke-linejoin:miter;stroke-width:0.8;"/>
   </g>
   <g id="text_16">
    <!-- $X(\omega)$ -->
    <g transform="translate(261.26625 43.175)scale(0.18 -0.18)">
     <defs>
      <path d="M 13.71875 72.90625 
L 23.6875 72.90625 
L 36.1875 46.578125 
L 58.796875 72.90625 
L 70.3125 72.90625 
L 40.28125 38.09375 
L 58.40625 0 
L 48.484375 0 
L 33.796875 30.71875 
L 7.171875 0 
L -4.296875 0 
L 29.78125 39.203125 
z
" id="DejaVuSans-Oblique-88"/>
     </defs>
     <use transform="translate(0 0.125)" xlink:href="#DejaVuSans-Oblique-88"/>
     <use transform="translate(68.505859 0.125)" xlink:href="#DejaVuSans-40"/>
     <use transform="translate(107.519531 0.125)" xlink:href="#DejaVuSans-Oblique-969"/>
     <use transform="translate(191.259766 0.125)" xlink:href="#DejaVuSans-41"/>
    </g>
   </g>
  </g>
  <g id="axes_2">
   <g id="patch_5">
    <path d="M 663.4375 153.61 
L 1141.2 153.61 
L 1141.2 49.175 
L 663.4375 49.175 
z
" style="fill:#ffffff;"/>
   </g>
   <g id="matplotlib.axis_3">
    <g id="xtick_10">
     <g id="line2d_30">
      <path clip-path="url(#pb8e4a9f69e)" d="M 689.979861 153.61 
L 689.979861 49.175 
" style="fill:none;stroke:#cccccc;stroke-dasharray:1.85,0.8;stroke-dashoffset:0;stroke-width:0.5;"/>
     </g>
     <g id="line2d_31">
      <g>
       <use style="stroke:#000000;stroke-width:0.8;" x="689.979861" xlink:href="#m07ff394c49" y="153.61"/>
      </g>
     </g>
     <g id="text_17">
      <!-- −4 -->
      <g transform="translate(678.186111 172.7675)scale(0.16 -0.16)">
       <use xlink:href="#DejaVuSans-8722"/>
       <use x="83.789062" xlink:href="#DejaVuSans-52"/>
      </g>
     </g>
    </g>
    <g id="xtick_11">
     <g id="line2d_32">
      <path clip-path="url(#pb8e4a9f69e)" d="M 743.064583 153.61 
L 743.064583 49.175 
" style="fill:none;stroke:#cccccc;stroke-dasharray:1.85,0.8;stroke-dashoffset:0;stroke-width:0.5;"/>
     </g>
     <g id="line2d_33">
      <g>
       <use style="stroke:#000000;stroke-width:0.8;" x="743.064583" xlink:href="#m07ff394c49" y="153.61"/>
      </g>
     </g>
     <g id="text_18">
      <!-- −3 -->
      <g transform="translate(731.270833 172.7675)scale(0.16 -0.16)">
       <use xlink:href="#DejaVuSans-8722"/>
       <use x="83.789062" xlink:href="#DejaVuSans-51"/>
      </g>
     </g>
    </g>
    <g id="xtick_12">
     <g id="line2d_34">
      <path clip-path="url(#pb8e4a9f69e)" d="M 796.149306 153.61 
L 796.149306 49.175 
" style="fill:none;stroke:#cccccc;stroke-dasharray:1.85,0.8;stroke-dashoffset:0;stroke-width:0.5;"/>
     </g>
     <g id="line2d_35">
      <g>
       <use style="stroke:#000000;stroke-width:0.8;" x="796.149306" xlink:href="#m07ff394c49" y="153.61"/>
      </g>
     </g>
     <g id="text_19">
      <!-- −2 -->
      <g transform="translate(784.355556 172.7675)scale(0.16 -0.16)">
       <use xlink:href="#DejaVuSans-8722"/>
       <use x="83.789062" xlink:href="#DejaVuSans-50"/>
      </g>
     </g>
    </g>
    <g id="xtick_13">
     <g id="line2d_36">
      <path clip-path="url(#pb8e4a9f69e)" d="M 849.234028 153.61 
L 849.234028 49.175 
" style="fill:none;stroke:#cccccc;stroke-dasharray:1.85,0.8;stroke-dashoffset:0;stroke-width:0.5;"/>
     </g>
     <g id="line2d_37">
      <g>
       <use style="stroke:#000000;stroke-width:0.8;" x="849.234028" xlink:href="#m07ff394c49" y="153.61"/>
      </g>
     </g>
     <g id="text_20">
      <!-- −1 -->
      <g transform="translate(837.440278 172.7675)scale(0.16 -0.16)">
       <use xlink:href="#DejaVuSans-8722"/>
       <use x="83.789062" xlink:href="#DejaVuSans-49"/>
      </g>
     </g>
    </g>
    <g id="xtick_14">
     <g id="line2d_38">
      <path clip-path="url(#pb8e4a9f69e)" d="M 902.31875 153.61 
L 902.31875 49.175 
" style="fill:none;stroke:#cccccc;stroke-dasharray:1.85,0.8;stroke-dashoffset:0;stroke-width:0.5;"/>
     </g>
     <g id="line2d_39">
      <g>
       <use style="stroke:#000000;stroke-width:0.8;" x="902.31875" xlink:href="#m07ff394c49" y="153.61"/>
      </g>
     </g>
     <g id="text_21">
      <!-- 0 -->
      <g transform="translate(897.22875 172.7675)scale(0.16 -0.16)">
       <use xlink:href="#DejaVuSans-48"/>
      </g>
     </g>
    </g>
    <g id="xtick_15">
     <g id="line2d_40">
      <path clip-path="url(#pb8e4a9f69e)" d="M 955.403472 153.61 
L 955.403472 49.175 
" style="fill:none;stroke:#cccccc;stroke-dasharray:1.85,0.8;stroke-dashoffset:0;stroke-width:0.5;"/>
     </g>
     <g id="line2d_41">
      <g>
       <use style="stroke:#000000;stroke-width:0.8;" x="955.403472" xlink:href="#m07ff394c49" y="153.61"/>
      </g>
     </g>
     <g id="text_22">
      <!-- 1 -->
      <g transform="translate(950.313472 172.7675)scale(0.16 -0.16)">
       <use xlink:href="#DejaVuSans-49"/>
      </g>
     </g>
    </g>
    <g id="xtick_16">
     <g id="line2d_42">
      <path clip-path="url(#pb8e4a9f69e)" d="M 1008.488194 153.61 
L 1008.488194 49.175 
" style="fill:none;stroke:#cccccc;stroke-dasharray:1.85,0.8;stroke-dashoffset:0;stroke-width:0.5;"/>
     </g>
     <g id="line2d_43">
      <g>
       <use style="stroke:#000000;stroke-width:0.8;" x="1008.488194" xlink:href="#m07ff394c49" y="153.61"/>
      </g>
     </g>
     <g id="text_23">
      <!-- 2 -->
      <g transform="translate(1003.398194 172.7675)scale(0.16 -0.16)">
       <use xlink:href="#DejaVuSans-50"/>
      </g>
     </g>
    </g>
    <g id="xtick_17">
     <g id="line2d_44">
      <path clip-path="url(#pb8e4a9f69e)" d="M 1061.572917 153.61 
L 1061.572917 49.175 
" style="fill:none;stroke:#cccccc;stroke-dasharray:1.85,0.8;stroke-dashoffset:0;stroke-width:0.5;"/>
     </g>
     <g id="line2d_45">
      <g>
       <use style="stroke:#000000;stroke-width:0.8;" x="1061.572917" xlink:href="#m07ff394c49" y="153.61"/>
      </g>
     </g>
     <g id="text_24">
      <!-- 3 -->
      <g transform="translate(1056.482917 172.7675)scale(0.16 -0.16)">
       <use xlink:href="#DejaVuSans-51"/>
      </g>
     </g>
    </g>
    <g id="xtick_18">
     <g id="line2d_46">
      <path clip-path="url(#pb8e4a9f69e)" d="M 1114.657639 153.61 
L 1114.657639 49.175 
" style="fill:none;stroke:#cccccc;stroke-dasharray:1.85,0.8;stroke-dashoffset:0;stroke-width:0.5;"/>
     </g>
     <g id="line2d_47">
      <g>
       <use style="stroke:#000000;stroke-width:0.8;" x="1114.657639" xlink:href="#m07ff394c49" y="153.61"/>
      </g>
     </g>
     <g id="text_25">
      <!-- 4 -->
      <g transform="translate(1109.567639 172.7675)scale(0.16 -0.16)">
       <use xlink:href="#DejaVuSans-52"/>
      </g>
     </g>
    </g>
    <g id="text_26">
     <!-- $\frac{\omega}{2\pi T_s}$ (1/sec) -->
     <g transform="translate(858.63875 193.535)scale(0.16 -0.16)">
      <use transform="translate(49 45.71875)scale(0.7)" xlink:href="#DejaVuSans-Oblique-969"/>
      <use transform="translate(0 -38.5125)scale(0.7)" xlink:href="#DejaVuSans-50"/>
      <use transform="translate(44.536133 -38.5125)scale(0.7)" xlink:href="#DejaVuSans-Oblique-960"/>
      <use transform="translate(86.679688 -38.5125)scale(0.7)" xlink:href="#DejaVuSans-Oblique-84"/>
      <use transform="translate(129.438477 -49.996875)scale(0.49)" xlink:href="#DejaVuSans-Oblique-115"/>
      <use transform="translate(169.381348 0.89375)" xlink:href="#DejaVuSans-32"/>
      <use transform="translate(201.168457 0.89375)" xlink:href="#DejaVuSans-40"/>
      <use transform="translate(240.182129 0.89375)" xlink:href="#DejaVuSans-49"/>
      <use transform="translate(303.805176 0.89375)" xlink:href="#DejaVuSans-47"/>
      <use transform="translate(337.496582 0.89375)" xlink:href="#DejaVuSans-115"/>
      <use transform="translate(389.596191 0.89375)" xlink:href="#DejaVuSans-101"/>
      <use transform="translate(451.119629 0.89375)" xlink:href="#DejaVuSans-99"/>
      <use transform="translate(506.100098 0.89375)" xlink:href="#DejaVuSans-41"/>
      <path d="M 0 19.690625 
L 0 25.940625 
L 156.881348 25.940625 
L 156.881348 19.690625 
L 0 19.690625 
z
"/>
     </g>
    </g>
   </g>
   <g id="matplotlib.axis_4">
    <g id="ytick_6">
     <g id="line2d_48">
      <path clip-path="url(#pb8e4a9f69e)" d="M 663.4375 148.999637 
L 1141.2 148.999637 
" style="fill:none;stroke:#cccccc;stroke-dasharray:1.85,0.8;stroke-dashoffset:0;stroke-width:0.5;"/>
     </g>
     <g id="line2d_49">
      <g>
       <use style="stroke:#000000;stroke-width:0.8;" x="663.4375" xlink:href="#mdd221c780f" y="148.999637"/>
      </g>
     </g>
     <g id="text_27">
      <!-- 0.0 -->
      <g transform="translate(630.9925 155.078387)scale(0.16 -0.16)">
       <use xlink:href="#DejaVuSans-48"/>
       <use x="63.623047" xlink:href="#DejaVuSans-46"/>
       <use x="95.410156" xlink:href="#DejaVuSans-48"/>
      </g>
     </g>
    </g>
    <g id="ytick_7">
     <g id="line2d_50">
      <path clip-path="url(#pb8e4a9f69e)" d="M 663.4375 121.392432 
L 1141.2 121.392432 
" style="fill:none;stroke:#cccccc;stroke-dasharray:1.85,0.8;stroke-dashoffset:0;stroke-width:0.5;"/>
     </g>
     <g id="line2d_51">
      <g>
       <use style="stroke:#000000;stroke-width:0.8;" x="663.4375" xlink:href="#mdd221c780f" y="121.392432"/>
      </g>
     </g>
     <g id="text_28">
      <!-- 0.5 -->
      <g transform="translate(630.9925 127.471182)scale(0.16 -0.16)">
       <use xlink:href="#DejaVuSans-48"/>
       <use x="63.623047" xlink:href="#DejaVuSans-46"/>
       <use x="95.410156" xlink:href="#DejaVuSans-53"/>
      </g>
     </g>
    </g>
    <g id="ytick_8">
     <g id="line2d_52">
      <path clip-path="url(#pb8e4a9f69e)" d="M 663.4375 93.785227 
L 1141.2 93.785227 
" style="fill:none;stroke:#cccccc;stroke-dasharray:1.85,0.8;stroke-dashoffset:0;stroke-width:0.5;"/>
     </g>
     <g id="line2d_53">
      <g>
       <use style="stroke:#000000;stroke-width:0.8;" x="663.4375" xlink:href="#mdd221c780f" y="93.785227"/>
      </g>
     </g>
     <g id="text_29">
      <!-- 1.0 -->
      <g transform="translate(630.9925 99.863977)scale(0.16 -0.16)">
       <use xlink:href="#DejaVuSans-49"/>
       <use x="63.623047" xlink:href="#DejaVuSans-46"/>
       <use x="95.410156" xlink:href="#DejaVuSans-48"/>
      </g>
     </g>
    </g>
    <g id="ytick_9">
     <g id="line2d_54">
      <path clip-path="url(#pb8e4a9f69e)" d="M 663.4375 66.178022 
L 1141.2 66.178022 
" style="fill:none;stroke:#cccccc;stroke-dasharray:1.85,0.8;stroke-dashoffset:0;stroke-width:0.5;"/>
     </g>
     <g id="line2d_55">
      <g>
       <use style="stroke:#000000;stroke-width:0.8;" x="663.4375" xlink:href="#mdd221c780f" y="66.178022"/>
      </g>
     </g>
     <g id="text_30">
      <!-- 1.5 -->
      <g transform="translate(630.9925 72.256772)scale(0.16 -0.16)">
       <use xlink:href="#DejaVuSans-49"/>
       <use x="63.623047" xlink:href="#DejaVuSans-46"/>
       <use x="95.410156" xlink:href="#DejaVuSans-53"/>
      </g>
     </g>
    </g>
   </g>
   <g id="line2d_56">
    <path clip-path="url(#pb8e4a9f69e)" d="M 663.4375 148.696262 
L 1141.730847 148.746407 
L 1141.730847 148.746407 
" style="fill:none;stroke:#d62728;stroke-linecap:square;stroke-opacity:0.4;"/>
   </g>
   <g id="line2d_57">
    <path clip-path="url(#pb8e4a9f69e)" d="M 663.4375 148.678623 
L 1141.730847 148.734235 
L 1141.730847 148.734235 
" style="fill:none;stroke:#d62728;stroke-linecap:square;stroke-opacity:0.4;"/>
   </g>
   <g id="line2d_58">
    <path clip-path="url(#pb8e4a9f69e)" d="M 663.4375 148.658808 
L 1141.730847 148.720833 
L 1141.730847 148.720833 
" style="fill:none;stroke:#d62728;stroke-linecap:square;stroke-opacity:0.4;"/>
   </g>
   <g id="line2d_59">
    <path clip-path="url(#pb8e4a9f69e)" d="M 663.4375 148.636385 
L 1141.730847 148.706006 
L 1141.730847 148.706006 
" style="fill:none;stroke:#d62728;stroke-linecap:square;stroke-opacity:0.4;"/>
   </g>
   <g id="line2d_60">
    <path clip-path="url(#pb8e4a9f69e)" d="M 663.4375 148.610804 
L 1141.730847 148.689514 
L 1141.730847 148.689514 
" style="fill:none;stroke:#d62728;stroke-linecap:square;stroke-opacity:0.4;"/>
   </g>
   <g id="line2d_61">
    <path clip-path="url(#pb8e4a9f69e)" d="M 663.4375 148.581346 
L 1141.730847 148.671058 
L 1141.730847 148.671058 
" style="fill:none;stroke:#d62728;stroke-linecap:square;stroke-opacity:0.4;"/>
   </g>
   <g id="line2d_62">
    <path clip-path="url(#pb8e4a9f69e)" d="M 663.4375 148.54706 
L 1141.730847 148.650268 
L 1141.730847 148.650268 
" style="fill:none;stroke:#d62728;stroke-linecap:square;stroke-opacity:0.4;"/>
   </g>
   <g id="line2d_63">
    <path clip-path="url(#pb8e4a9f69e)" d="M 663.4375 148.506652 
L 1141.730847 148.626668 
L 1141.730847 148.626668 
" style="fill:none;stroke:#d62728;stroke-linecap:square;stroke-opacity:0.4;"/>
   </g>
   <g id="line2d_64">
    <path clip-path="url(#pb8e4a9f69e)" d="M 663.4375 148.45832 
L 1141.730847 148.599649 
L 1141.730847 148.599649 
" style="fill:none;stroke:#d62728;stroke-linecap:square;stroke-opacity:0.4;"/>
   </g>
   <g id="line2d_65">
    <path clip-path="url(#pb8e4a9f69e)" d="M 663.4375 148.399481 
L 1141.730847 148.56841 
L 1141.730847 148.56841 
" style="fill:none;stroke:#d62728;stroke-linecap:square;stroke-opacity:0.4;"/>
   </g>
   <g id="line2d_66">
    <path clip-path="url(#pb8e4a9f69e)" d="M 663.4375 148.326291 
L 1141.730847 148.531877 
L 1141.730847 148.531877 
" style="fill:none;stroke:#d62728;stroke-linecap:square;stroke-opacity:0.4;"/>
   </g>
   <g id="line2d_67">
    <path clip-path="url(#pb8e4a9f69e)" d="M 663.4375 148.232771 
L 1102.979 148.474386 
L 1141.730847 148.488582 
L 1141.730847 148.488582 
" style="fill:none;stroke:#d62728;stroke-linecap:square;stroke-opacity:0.4;"/>
   </g>
   <g id="line2d_68">
    <path clip-path="url(#pb8e4a9f69e)" d="M 663.4375 148.109082 
L 1010.080736 148.373055 
L 1141.730847 148.436455 
L 1141.730847 148.436455 
" style="fill:none;stroke:#d62728;stroke-linecap:square;stroke-opacity:0.4;"/>
   </g>
   <g id="line2d_69">
    <path clip-path="url(#pb8e4a9f69e)" d="M 663.4375 147.937822 
L 925.676028 148.230206 
L 1141.730847 148.372486 
L 1141.730847 148.372486 
" style="fill:none;stroke:#d62728;stroke-linecap:square;stroke-opacity:0.4;"/>
   </g>
   <g id="line2d_70">
    <path clip-path="url(#pb8e4a9f69e)" d="M 663.4375 147.685009 
L 850.826569 148.015774 
L 1141.730847 148.292123 
L 1141.730847 148.292123 
" style="fill:none;stroke:#d62728;stroke-linecap:square;stroke-opacity:0.4;"/>
   </g>
   <g id="line2d_71">
    <path clip-path="url(#pb8e4a9f69e)" d="M 663.4375 147.274187 
L 786.063208 147.660782 
L 968.143806 147.995008 
L 1141.730847 148.188138 
L 1141.730847 148.188138 
" style="fill:none;stroke:#d62728;stroke-linecap:square;stroke-opacity:0.4;"/>
   </g>
   <g id="line2d_72">
    <path clip-path="url(#pb8e4a9f69e)" d="M 663.4375 146.489891 
L 731.916792 146.966706 
L 826.938444 147.390826 
L 963.366181 147.761646 
L 1141.730847 148.048321 
L 1141.730847 148.048321 
" style="fill:none;stroke:#d62728;stroke-linecap:square;stroke-opacity:0.4;"/>
   </g>
   <g id="line2d_73">
    <path clip-path="url(#pb8e4a9f69e)" d="M 663.4375 144.398437 
L 690.510708 145.066987 
L 724.484931 145.673468 
L 768.54525 146.22783 
L 826.938444 146.729308 
L 906.565528 147.178582 
L 1019.105139 147.576586 
L 1141.730847 147.850295 
L 1141.730847 147.850295 
" style="fill:none;stroke:#d62728;stroke-linecap:square;stroke-opacity:0.4;"/>
   </g>
   <g id="line2d_74">
    <path clip-path="url(#pb8e4a9f69e)" d="M 663.4375 121.392432 
L 665.560889 123.43741 
L 667.684278 125.200323 
L 670.338514 127.089157 
L 672.99275 128.700222 
L 676.177833 130.34612 
L 679.362917 131.745134 
L 683.078847 133.133428 
L 687.325625 134.469529 
L 692.10325 135.726943 
L 697.411722 136.891214 
L 703.781889 138.044397 
L 711.21375 139.139921 
L 719.707306 140.151174 
L 729.793403 141.111864 
L 741.472042 141.992733 
L 755.804917 142.837315 
L 772.792028 143.607605 
L 794.025917 144.336258 
L 820.037431 144.998593 
L 853.480806 145.616401 
L 896.479431 146.176815 
L 953.280083 146.683597 
L 1030.783778 147.139314 
L 1139.607458 147.542024 
L 1141.730847 147.548154 
L 1141.730847 147.548154 
" style="fill:none;stroke:#d62728;stroke-linecap:square;stroke-opacity:0.4;"/>
   </g>
   <g id="line2d_75">
    <path clip-path="url(#pb8e4a9f69e)" d="M 663.4375 142.097836 
L 676.177833 141.156681 
L 686.794778 140.151174 
L 695.819181 139.068988 
L 703.251042 137.956755 
L 709.621208 136.78406 
L 714.929681 135.598081 
L 719.707306 134.314954 
L 723.954083 132.948937 
L 727.670014 131.526723 
L 730.855097 130.090593 
L 734.040181 128.397245 
L 736.694417 126.735762 
L 739.348653 124.782791 
L 741.472042 122.955104 
L 743.595431 120.82902 
L 745.718819 118.324965 
L 747.311361 116.133917 
L 748.903903 113.605785 
L 750.496444 110.656297 
L 752.088986 107.170539 
L 753.681528 102.987629 
L 754.743222 99.701057 
L 755.804917 95.908858 
L 756.335764 93.785227 
L 782.878125 93.785227 
L 784.470667 99.701057 
L 786.063208 104.471887 
L 787.65575 108.400806 
L 789.248292 111.692603 
L 790.840833 114.490631 
L 792.433375 116.898236 
L 794.556764 119.63027 
L 796.680153 121.93375 
L 798.803542 123.902178 
L 800.926931 125.603701 
L 803.581167 127.431508 
L 806.235403 128.994416 
L 809.420486 130.594834 
L 812.605569 131.958153 
L 816.3215 133.313725 
L 820.568278 134.620885 
L 825.345903 135.853349 
L 830.654375 136.996505 
L 837.024542 138.130659 
L 844.456403 139.209848 
L 852.949958 140.207534 
L 863.036056 141.156681 
L 874.714694 142.028121 
L 889.047569 142.864703 
L 906.565528 143.649404 
L 927.799417 144.367556 
L 954.341778 145.033085 
L 987.785153 145.641097 
L 1031.314625 146.199718 
L 1089.176972 146.70668 
L 1141.730847 147.030507 
L 1141.730847 147.030507 
" style="fill:none;stroke:#d62728;stroke-linecap:square;stroke-opacity:0.4;"/>
   </g>
   <g id="line2d_76">
    <path clip-path="url(#pb8e4a9f69e)" d="M 663.4375 145.93217 
L 704.843583 145.288992 
L 736.163569 144.589541 
L 760.582542 143.829749 
L 779.693042 143.024052 
L 795.087611 142.166171 
L 807.827944 141.244804 
L 818.444889 140.26318 
L 827.469292 139.209848 
L 834.901153 138.130659 
L 841.271319 136.996505 
L 847.110639 135.726943 
L 851.888264 134.469529 
L 856.135042 133.133428 
L 859.850972 131.745134 
L 863.036056 130.34612 
L 866.221139 128.700222 
L 868.875375 127.089157 
L 871.529611 125.200323 
L 873.653 123.43741 
L 875.776389 121.392432 
L 877.899778 118.991806 
L 879.492319 116.898236 
L 881.084861 114.490631 
L 882.677403 111.692603 
L 884.269944 108.400806 
L 885.862486 104.471887 
L 887.455028 99.701057 
L 888.516722 95.908858 
L 889.047569 93.785227 
L 915.589931 93.785227 
L 917.182472 99.701057 
L 918.775014 104.471887 
L 920.367556 108.400806 
L 921.960097 111.692603 
L 923.552639 114.490631 
L 925.145181 116.898236 
L 927.268569 119.63027 
L 929.391958 121.93375 
L 931.515347 123.902178 
L 933.638736 125.603701 
L 936.292972 127.431508 
L 938.947208 128.994416 
L 942.132292 130.594834 
L 945.317375 131.958153 
L 949.033306 133.313725 
L 953.280083 134.620885 
L 958.057708 135.853349 
L 963.366181 136.996505 
L 969.736347 138.130659 
L 977.168208 139.209848 
L 985.661764 140.207534 
L 995.747861 141.156681 
L 1007.4265 142.028121 
L 1021.759375 142.864703 
L 1039.277333 143.649404 
L 1060.511222 144.367556 
L 1087.053583 145.033085 
L 1120.496958 145.641097 
L 1141.730847 145.938972 
L 1141.730847 145.938972 
" style="fill:none;stroke:#d62728;stroke-linecap:square;stroke-opacity:0.4;"/>
   </g>
   <g id="line2d_77">
    <path clip-path="url(#pb8e4a9f69e)" d="M 663.4375 147.027694 
L 741.472042 146.503507 
L 797.211 145.918476 
L 838.086236 145.27899 
L 869.406222 144.575406 
L 893.825194 143.810313 
L 912.935694 142.998071 
L 928.330264 142.132173 
L 941.070597 141.200992 
L 951.687542 140.207534 
L 960.711944 139.139921 
L 968.143806 138.044397 
L 974.513972 136.891214 
L 979.822444 135.726943 
L 984.600069 134.469529 
L 988.846847 133.133428 
L 992.562778 131.745134 
L 995.747861 130.34612 
L 998.932944 128.700222 
L 1001.587181 127.089157 
L 1004.241417 125.200323 
L 1006.364806 123.43741 
L 1008.488194 121.392432 
L 1010.611583 118.991806 
L 1012.204125 116.898236 
L 1013.796667 114.490631 
L 1015.389208 111.692603 
L 1016.98175 108.400806 
L 1018.574292 104.471887 
L 1020.166833 99.701057 
L 1021.228528 95.908858 
L 1021.759375 93.785227 
L 1048.301736 93.785227 
L 1049.894278 99.701057 
L 1051.486819 104.471887 
L 1053.079361 108.400806 
L 1054.671903 111.692603 
L 1056.264444 114.490631 
L 1057.856986 116.898236 
L 1059.980375 119.63027 
L 1062.103764 121.93375 
L 1064.227153 123.902178 
L 1066.350542 125.603701 
L 1069.004778 127.431508 
L 1071.659014 128.994416 
L 1074.844097 130.594834 
L 1078.029181 131.958153 
L 1081.745111 133.313725 
L 1085.991889 134.620885 
L 1090.769514 135.853349 
L 1096.077986 136.996505 
L 1102.448153 138.130659 
L 1109.880014 139.209848 
L 1118.373569 140.207534 
L 1128.459667 141.156681 
L 1140.138306 142.028121 
L 1141.730847 142.132173 
L 1141.730847 142.132173 
" style="fill:none;stroke:#d62728;stroke-linecap:square;stroke-opacity:0.4;"/>
   </g>
   <g id="line2d_78">
    <path clip-path="url(#pb8e4a9f69e)" d="M 663.4375 147.546627 
L 785.001514 147.085129 
L 866.751986 146.56514 
L 924.614333 145.98575 
L 967.082111 145.347891 
L 998.932944 144.658882 
L 1023.882764 143.906057 
L 1043.524111 143.100662 
L 1059.449528 142.233166 
L 1072.189861 141.330969 
L 1082.806806 140.372386 
L 1091.831208 139.346768 
L 1099.793917 138.215573 
L 1106.164083 137.09998 
L 1112.003403 135.853349 
L 1116.781028 134.620885 
L 1121.027806 133.313725 
L 1124.743736 131.958153 
L 1127.928819 130.594834 
L 1131.113903 128.994416 
L 1133.768139 127.431508 
L 1136.422375 125.603701 
L 1138.545764 123.902178 
L 1140.669153 121.93375 
L 1141.730847 120.82902 
L 1141.730847 120.82902 
" style="fill:none;stroke:#d62728;stroke-linecap:square;stroke-opacity:0.4;"/>
   </g>
   <g id="line2d_79">
    <path clip-path="url(#pb8e4a9f69e)" d="M 663.4375 147.849337 
L 832.777764 147.432827 
L 941.601444 146.957684 
L 1015.920056 146.424338 
L 1069.004778 145.833674 
L 1108.287472 145.186488 
L 1138.545764 144.473866 
L 1141.730847 144.383048 
L 1141.730847 144.383048 
" style="fill:none;stroke:#d62728;stroke-linecap:square;stroke-opacity:0.4;"/>
   </g>
   <g id="line2d_80">
    <path clip-path="url(#pb8e4a9f69e)" d="M 663.4375 148.047665 
L 885.331639 147.662079 
L 1021.759375 147.218527 
L 1112.53425 146.714273 
L 1141.730847 146.48532 
L 1141.730847 146.48532 
" style="fill:none;stroke:#d62728;stroke-linecap:square;stroke-opacity:0.4;"/>
   </g>
   <g id="line2d_81">
    <path clip-path="url(#pb8e4a9f69e)" d="M 663.4375 148.187661 
L 941.070597 147.826859 
L 1106.164083 147.405688 
L 1141.730847 147.272028 
L 1141.730847 147.272028 
" style="fill:none;stroke:#d62728;stroke-linecap:square;stroke-opacity:0.4;"/>
   </g>
   <g id="line2d_82">
    <path clip-path="url(#pb8e4a9f69e)" d="M 663.4375 148.29176 
L 999.994639 147.950731 
L 1141.730847 147.683755 
L 1141.730847 147.683755 
" style="fill:none;stroke:#d62728;stroke-linecap:square;stroke-opacity:0.4;"/>
   </g>
   <g id="line2d_83">
    <path clip-path="url(#pb8e4a9f69e)" d="M 663.4375 148.372201 
L 1062.103764 148.047008 
L 1141.730847 147.937004 
L 1141.730847 147.937004 
" style="fill:none;stroke:#d62728;stroke-linecap:square;stroke-opacity:0.4;"/>
   </g>
   <g id="line2d_84">
    <path clip-path="url(#pb8e4a9f69e)" d="M 663.4375 148.436225 
L 1126.867125 148.12433 
L 1141.730847 148.108507 
L 1141.730847 148.108507 
" style="fill:none;stroke:#d62728;stroke-linecap:square;stroke-opacity:0.4;"/>
   </g>
   <g id="line2d_85">
    <path clip-path="url(#pb8e4a9f69e)" d="M 663.4375 148.488393 
L 1141.730847 148.232344 
L 1141.730847 148.232344 
" style="fill:none;stroke:#d62728;stroke-linecap:square;stroke-opacity:0.4;"/>
   </g>
   <g id="line2d_86">
    <path clip-path="url(#pb8e4a9f69e)" d="M 663.4375 148.531719 
L 1141.730847 148.325962 
L 1141.730847 148.325962 
" style="fill:none;stroke:#d62728;stroke-linecap:square;stroke-opacity:0.4;"/>
   </g>
   <g id="line2d_87">
    <path clip-path="url(#pb8e4a9f69e)" d="M 663.4375 148.568275 
L 1141.730847 148.39922 
L 1141.730847 148.39922 
" style="fill:none;stroke:#d62728;stroke-linecap:square;stroke-opacity:0.4;"/>
   </g>
   <g id="line2d_88">
    <path clip-path="url(#pb8e4a9f69e)" d="M 663.4375 148.599533 
L 1141.730847 148.458107 
L 1141.730847 148.458107 
" style="fill:none;stroke:#d62728;stroke-linecap:square;stroke-opacity:0.4;"/>
   </g>
   <g id="line2d_89">
    <path clip-path="url(#pb8e4a9f69e)" d="M 663.4375 148.626567 
L 1141.730847 148.506475 
L 1141.730847 148.506475 
" style="fill:none;stroke:#d62728;stroke-linecap:square;stroke-opacity:0.4;"/>
   </g>
   <g id="line2d_90">
    <path clip-path="url(#pb8e4a9f69e)" d="M 663.4375 148.650179 
L 1141.730847 148.546912 
L 1141.730847 148.546912 
" style="fill:none;stroke:#d62728;stroke-linecap:square;stroke-opacity:0.4;"/>
   </g>
   <g id="line2d_91">
    <path clip-path="url(#pb8e4a9f69e)" d="M 663.4375 148.67098 
L 1141.730847 148.58122 
L 1141.730847 148.58122 
" style="fill:none;stroke:#d62728;stroke-linecap:square;stroke-opacity:0.4;"/>
   </g>
   <g id="line2d_92">
    <path clip-path="url(#pb8e4a9f69e)" d="M 663.4375 148.689444 
L 1141.730847 148.610694 
L 1141.730847 148.610694 
" style="fill:none;stroke:#d62728;stroke-linecap:square;stroke-opacity:0.4;"/>
   </g>
   <g id="line2d_93">
    <path clip-path="url(#pb8e4a9f69e)" d="M 663.4375 148.705944 
L 1141.730847 148.636289 
L 1141.730847 148.636289 
" style="fill:none;stroke:#d62728;stroke-linecap:square;stroke-opacity:0.4;"/>
   </g>
   <g id="line2d_94">
    <path clip-path="url(#pb8e4a9f69e)" d="M 663.4375 148.720777 
L 1141.730847 148.658724 
L 1141.730847 148.658724 
" style="fill:none;stroke:#d62728;stroke-linecap:square;stroke-opacity:0.4;"/>
   </g>
   <g id="line2d_95">
    <path clip-path="url(#pb8e4a9f69e)" d="M 663.4375 148.734184 
L 1141.730847 148.678549 
L 1141.730847 148.678549 
" style="fill:none;stroke:#d62728;stroke-linecap:square;stroke-opacity:0.4;"/>
   </g>
   <g id="line2d_96">
    <path clip-path="url(#pb8e4a9f69e)" d="M 663.4375 148.74636 
L 1141.730847 148.696195 
L 1141.730847 148.696195 
" style="fill:none;stroke:#d62728;stroke-linecap:square;stroke-opacity:0.4;"/>
   </g>
   <g id="line2d_97">
    <path clip-path="url(#pb8e4a9f69e)" d="M 663.4375 81.155695 
L 665.560889 83.104513 
L 667.684278 84.762629 
L 670.338514 86.507825 
L 672.99275 87.960534 
L 675.646986 89.177021 
L 678.832069 90.382679 
L 682.017153 91.360043 
L 685.733083 92.261788 
L 689.449014 92.947013 
L 693.695792 93.502648 
L 697.942569 93.843181 
L 702.720194 93.989833 
L 707.497819 93.894384 
L 711.744597 93.602029 
L 715.991375 93.09984 
L 720.238153 92.361979 
L 723.954083 91.491218 
L 727.139167 90.54599 
L 730.32425 89.379669 
L 732.978486 88.203477 
L 735.632722 86.800377 
L 738.286958 85.117507 
L 740.410347 83.521722 
L 742.533736 81.650316 
L 744.657125 79.435442 
L 746.249667 77.494078 
L 747.842208 75.25519 
L 749.43475 72.649467 
L 751.027292 69.583791 
L 752.619833 65.930089 
L 754.212375 61.507253 
L 755.274069 58.005506 
L 756.335764 53.937825 
L 768.54525 54.06832 
L 780.754736 53.972604 
L 782.878125 53.93256 
L 783.939819 57.99982 
L 785.532361 63.074835 
L 787.124903 67.2162 
L 788.717444 70.656234 
L 790.309986 73.555745 
L 791.902528 76.02957 
L 793.495069 78.161891 
L 795.618458 80.580604 
L 797.741847 82.613066 
L 799.865236 84.33857 
L 801.988625 85.8155 
L 804.642861 87.377961 
L 807.297097 88.68378 
L 810.482181 89.976974 
L 813.667264 91.026241 
L 817.383194 91.997783 
L 821.099125 92.742085 
L 825.345903 93.356353 
L 829.592681 93.749494 
L 834.370306 93.951593 
L 839.147931 93.910874 
L 843.925556 93.624904 
L 848.172333 93.150938 
L 852.419111 92.445268 
L 856.135042 91.607625 
L 859.850972 90.524408 
L 863.036056 89.358721 
L 865.690292 88.183057 
L 868.344528 86.780485 
L 870.998764 85.098142 
L 873.122153 83.502779 
L 875.245542 81.631795 
L 877.368931 79.417343 
L 878.961472 77.476296 
L 880.554014 75.237724 
L 882.146556 72.632317 
L 883.739097 69.566957 
L 885.331639 65.913572 
L 886.924181 61.491052 
L 887.985875 57.989516 
L 889.047569 53.922045 
L 901.257056 54.054963 
L 913.466542 53.961668 
L 915.589931 53.922045 
L 916.651625 57.989516 
L 918.244167 63.064847 
L 919.836708 67.206527 
L 921.42925 70.646876 
L 923.021792 73.546703 
L 924.614333 76.020843 
L 926.206875 78.153481 
L 928.330264 80.572614 
L 930.453653 82.605497 
L 932.577042 84.331421 
L 934.700431 85.808772 
L 937.354667 87.371759 
L 940.008903 88.678103 
L 943.193986 89.971928 
L 946.379069 91.021826 
L 950.095 91.994104 
L 953.810931 92.739142 
L 958.057708 93.354251 
L 962.304486 93.748233 
L 967.082111 93.951278 
L 971.859736 93.911504 
L 976.637361 93.62648 
L 980.884139 93.153356 
L 985.130917 92.448527 
L 988.846847 91.61162 
L 992.562778 90.529139 
L 995.747861 89.364082 
L 998.402097 88.188944 
L 1001.056333 86.786898 
L 1003.710569 85.10508 
L 1005.833958 83.510138 
L 1007.957347 81.639575 
L 1010.080736 79.425544 
L 1011.673278 77.484812 
L 1013.265819 75.246556 
L 1014.858361 72.641464 
L 1016.450903 69.57642 
L 1018.043444 65.92335 
L 1019.635986 61.501145 
L 1020.697681 57.99982 
L 1021.759375 53.93256 
L 1033.968861 54.067899 
L 1046.178347 53.977026 
L 1048.301736 53.937825 
L 1049.363431 58.005506 
L 1050.955972 63.081153 
L 1052.548514 67.22315 
L 1054.141056 70.663815 
L 1055.733597 73.563958 
L 1057.326139 76.038415 
L 1058.918681 78.171369 
L 1061.042069 80.590924 
L 1063.165458 82.624229 
L 1065.288847 84.350575 
L 1067.412236 85.828347 
L 1070.066472 87.391863 
L 1072.720708 88.698735 
L 1075.905792 89.993193 
L 1079.090875 91.043725 
L 1082.806806 92.016742 
L 1086.522736 92.76252 
L 1090.769514 93.378475 
L 1095.016292 93.773303 
L 1099.793917 93.9773 
L 1104.571542 93.938479 
L 1109.349167 93.654408 
L 1113.595944 93.182132 
L 1117.842722 92.478151 
L 1121.558653 91.641986 
L 1125.274583 90.560249 
L 1128.459667 89.395828 
L 1131.113903 88.221222 
L 1133.768139 86.819707 
L 1136.422375 85.138421 
L 1138.545764 83.543904 
L 1140.669153 81.673766 
L 1141.730847 80.615008 
L 1141.730847 80.615008 
" style="fill:none;stroke:#000000;stroke-linecap:square;stroke-width:3;"/>
   </g>
   <g id="patch_6">
    <path d="M 663.4375 153.61 
L 663.4375 49.175 
" style="fill:none;stroke:#000000;stroke-linecap:square;stroke-linejoin:miter;stroke-width:0.8;"/>
   </g>
   <g id="patch_7">
    <path d="M 663.4375 153.61 
L 1141.2 153.61 
" style="fill:none;stroke:#000000;stroke-linecap:square;stroke-linejoin:miter;stroke-width:0.8;"/>
   </g>
   <g id="text_31">
    <!-- Fourier Transform of Impulse Train $X(\omega) * \frac{2\pi}{T_s} \sum_{n} \delta( \omega - n\cdot \omega_s) $ -->
    <g transform="translate(643.02875 37.115)scale(0.18 -0.18)">
     <defs>
      <path d="M 9.8125 72.90625 
L 51.703125 72.90625 
L 51.703125 64.59375 
L 19.671875 64.59375 
L 19.671875 43.109375 
L 48.578125 43.109375 
L 48.578125 34.8125 
L 19.671875 34.8125 
L 19.671875 0 
L 9.8125 0 
z
" id="DejaVuSans-70"/>
      <path d="M 30.609375 48.390625 
Q 23.390625 48.390625 19.1875 42.75 
Q 14.984375 37.109375 14.984375 27.296875 
Q 14.984375 17.484375 19.15625 11.84375 
Q 23.34375 6.203125 30.609375 6.203125 
Q 37.796875 6.203125 41.984375 11.859375 
Q 46.1875 17.53125 46.1875 27.296875 
Q 46.1875 37.015625 41.984375 42.703125 
Q 37.796875 48.390625 30.609375 48.390625 
z
M 30.609375 56 
Q 42.328125 56 49.015625 48.375 
Q 55.71875 40.765625 55.71875 27.296875 
Q 55.71875 13.875 49.015625 6.21875 
Q 42.328125 -1.421875 30.609375 -1.421875 
Q 18.84375 -1.421875 12.171875 6.21875 
Q 5.515625 13.875 5.515625 27.296875 
Q 5.515625 40.765625 12.171875 48.375 
Q 18.84375 56 30.609375 56 
z
" id="DejaVuSans-111"/>
      <path d="M 8.5 21.578125 
L 8.5 54.6875 
L 17.484375 54.6875 
L 17.484375 21.921875 
Q 17.484375 14.15625 20.5 10.265625 
Q 23.53125 6.390625 29.59375 6.390625 
Q 36.859375 6.390625 41.078125 11.03125 
Q 45.3125 15.671875 45.3125 23.6875 
L 45.3125 54.6875 
L 54.296875 54.6875 
L 54.296875 0 
L 45.3125 0 
L 45.3125 8.40625 
Q 42.046875 3.421875 37.71875 1 
Q 33.40625 -1.421875 27.6875 -1.421875 
Q 18.265625 -1.421875 13.375 4.4375 
Q 8.5 10.296875 8.5 21.578125 
z
M 31.109375 56 
z
" id="DejaVuSans-117"/>
      <path d="M 41.109375 46.296875 
Q 39.59375 47.171875 37.8125 47.578125 
Q 36.03125 48 33.890625 48 
Q 26.265625 48 22.1875 43.046875 
Q 18.109375 38.09375 18.109375 28.8125 
L 18.109375 0 
L 9.078125 0 
L 9.078125 54.6875 
L 18.109375 54.6875 
L 18.109375 46.1875 
Q 20.953125 51.171875 25.484375 53.578125 
Q 30.03125 56 36.53125 56 
Q 37.453125 56 38.578125 55.875 
Q 39.703125 55.765625 41.0625 55.515625 
z
" id="DejaVuSans-114"/>
      <path d="M 9.421875 54.6875 
L 18.40625 54.6875 
L 18.40625 0 
L 9.421875 0 
z
M 9.421875 75.984375 
L 18.40625 75.984375 
L 18.40625 64.59375 
L 9.421875 64.59375 
z
" id="DejaVuSans-105"/>
      <path d="M -0.296875 72.90625 
L 61.375 72.90625 
L 61.375 64.59375 
L 35.5 64.59375 
L 35.5 0 
L 25.59375 0 
L 25.59375 64.59375 
L -0.296875 64.59375 
z
" id="DejaVuSans-84"/>
      <path d="M 34.28125 27.484375 
Q 23.390625 27.484375 19.1875 25 
Q 14.984375 22.515625 14.984375 16.5 
Q 14.984375 11.71875 18.140625 8.90625 
Q 21.296875 6.109375 26.703125 6.109375 
Q 34.1875 6.109375 38.703125 11.40625 
Q 43.21875 16.703125 43.21875 25.484375 
L 43.21875 27.484375 
z
M 52.203125 31.203125 
L 52.203125 0 
L 43.21875 0 
L 43.21875 8.296875 
Q 40.140625 3.328125 35.546875 0.953125 
Q 30.953125 -1.421875 24.3125 -1.421875 
Q 15.921875 -1.421875 10.953125 3.296875 
Q 6 8.015625 6 15.921875 
Q 6 25.140625 12.171875 29.828125 
Q 18.359375 34.515625 30.609375 34.515625 
L 43.21875 34.515625 
L 43.21875 35.40625 
Q 43.21875 41.609375 39.140625 45 
Q 35.0625 48.390625 27.6875 48.390625 
Q 23 48.390625 18.546875 47.265625 
Q 14.109375 46.140625 10.015625 43.890625 
L 10.015625 52.203125 
Q 14.9375 54.109375 19.578125 55.046875 
Q 24.21875 56 28.609375 56 
Q 40.484375 56 46.34375 49.84375 
Q 52.203125 43.703125 52.203125 31.203125 
z
" id="DejaVuSans-97"/>
      <path d="M 54.890625 33.015625 
L 54.890625 0 
L 45.90625 0 
L 45.90625 32.71875 
Q 45.90625 40.484375 42.875 44.328125 
Q 39.84375 48.1875 33.796875 48.1875 
Q 26.515625 48.1875 22.3125 43.546875 
Q 18.109375 38.921875 18.109375 30.90625 
L 18.109375 0 
L 9.078125 0 
L 9.078125 54.6875 
L 18.109375 54.6875 
L 18.109375 46.1875 
Q 21.34375 51.125 25.703125 53.5625 
Q 30.078125 56 35.796875 56 
Q 45.21875 56 50.046875 50.171875 
Q 54.890625 44.34375 54.890625 33.015625 
z
" id="DejaVuSans-110"/>
      <path d="M 37.109375 75.984375 
L 37.109375 68.5 
L 28.515625 68.5 
Q 23.6875 68.5 21.796875 66.546875 
Q 19.921875 64.59375 19.921875 59.515625 
L 19.921875 54.6875 
L 34.71875 54.6875 
L 34.71875 47.703125 
L 19.921875 47.703125 
L 19.921875 0 
L 10.890625 0 
L 10.890625 47.703125 
L 2.296875 47.703125 
L 2.296875 54.6875 
L 10.890625 54.6875 
L 10.890625 58.5 
Q 10.890625 67.625 15.140625 71.796875 
Q 19.390625 75.984375 28.609375 75.984375 
z
" id="DejaVuSans-102"/>
      <path d="M 52 44.1875 
Q 55.375 50.25 60.0625 53.125 
Q 64.75 56 71.09375 56 
Q 79.640625 56 84.28125 50.015625 
Q 88.921875 44.046875 88.921875 33.015625 
L 88.921875 0 
L 79.890625 0 
L 79.890625 32.71875 
Q 79.890625 40.578125 77.09375 44.375 
Q 74.3125 48.1875 68.609375 48.1875 
Q 61.625 48.1875 57.5625 43.546875 
Q 53.515625 38.921875 53.515625 30.90625 
L 53.515625 0 
L 44.484375 0 
L 44.484375 32.71875 
Q 44.484375 40.625 41.703125 44.40625 
Q 38.921875 48.1875 33.109375 48.1875 
Q 26.21875 48.1875 22.15625 43.53125 
Q 18.109375 38.875 18.109375 30.90625 
L 18.109375 0 
L 9.078125 0 
L 9.078125 54.6875 
L 18.109375 54.6875 
L 18.109375 46.1875 
Q 21.1875 51.21875 25.484375 53.609375 
Q 29.78125 56 35.6875 56 
Q 41.65625 56 45.828125 52.96875 
Q 50 49.953125 52 44.1875 
z
" id="DejaVuSans-109"/>
      <path d="M 9.8125 72.90625 
L 19.671875 72.90625 
L 19.671875 0 
L 9.8125 0 
z
" id="DejaVuSans-73"/>
      <path d="M 18.109375 8.203125 
L 18.109375 -20.796875 
L 9.078125 -20.796875 
L 9.078125 54.6875 
L 18.109375 54.6875 
L 18.109375 46.390625 
Q 20.953125 51.265625 25.265625 53.625 
Q 29.59375 56 35.59375 56 
Q 45.5625 56 51.78125 48.09375 
Q 58.015625 40.1875 58.015625 27.296875 
Q 58.015625 14.40625 51.78125 6.484375 
Q 45.5625 -1.421875 35.59375 -1.421875 
Q 29.59375 -1.421875 25.265625 0.953125 
Q 20.953125 3.328125 18.109375 8.203125 
z
M 48.6875 27.296875 
Q 48.6875 37.203125 44.609375 42.84375 
Q 40.53125 48.484375 33.40625 48.484375 
Q 26.265625 48.484375 22.1875 42.84375 
Q 18.109375 37.203125 18.109375 27.296875 
Q 18.109375 17.390625 22.1875 11.75 
Q 26.265625 6.109375 33.40625 6.109375 
Q 40.53125 6.109375 44.609375 11.75 
Q 48.6875 17.390625 48.6875 27.296875 
z
" id="DejaVuSans-112"/>
      <path d="M 9.421875 75.984375 
L 18.40625 75.984375 
L 18.40625 0 
L 9.421875 0 
z
" id="DejaVuSans-108"/>
      <path d="M 47.015625 60.890625 
L 29.5 51.421875 
L 47.015625 41.890625 
L 44.1875 37.109375 
L 27.78125 47.015625 
L 27.78125 28.609375 
L 22.21875 28.609375 
L 22.21875 47.015625 
L 5.8125 37.109375 
L 2.984375 41.890625 
L 20.515625 51.421875 
L 2.984375 60.890625 
L 5.8125 65.71875 
L 22.21875 55.8125 
L 22.21875 74.21875 
L 27.78125 74.21875 
L 27.78125 55.8125 
L 44.1875 65.71875 
z
" id="DejaVuSans-42"/>
      <path d="M 3.8125 101.703125 
L 90.671875 101.703125 
L 90.671875 88.375 
L 24.46875 88.375 
L 70.84375 38.875 
L 22.953125 -13.875 
L 92.484375 -13.875 
L 92.484375 -27.15625 
L 1.703125 -27.15625 
L 1.703125 -16.84375 
L 51.8125 38.484375 
L 3.8125 89.5 
z
" id="DejaVuSansDisplay-8721"/>
      <path d="M 55.71875 33.015625 
L 49.3125 0 
L 40.28125 0 
L 46.6875 32.671875 
Q 47.125 34.96875 47.359375 36.71875 
Q 47.609375 38.484375 47.609375 39.5 
Q 47.609375 43.609375 45.015625 45.890625 
Q 42.4375 48.1875 37.796875 48.1875 
Q 30.5625 48.1875 25.34375 43.375 
Q 20.125 38.578125 18.5 30.328125 
L 12.5 0 
L 3.515625 0 
L 14.109375 54.6875 
L 23.09375 54.6875 
L 21.296875 46.09375 
Q 25.046875 50.828125 30.3125 53.40625 
Q 35.59375 56 41.40625 56 
Q 48.640625 56 52.609375 52.09375 
Q 56.59375 48.1875 56.59375 41.109375 
Q 56.59375 39.359375 56.375 37.359375 
Q 56.15625 35.359375 55.71875 33.015625 
z
" id="DejaVuSans-Oblique-110"/>
      <path d="M 54.25 63.328125 
Q 49.953125 66.75 38.28125 66.75 
Q 25.921875 66.75 24.8125 61.03125 
Q 23.921875 56.546875 36.375 54.203125 
Q 46.140625 52.390625 50.828125 46.921875 
Q 56.5 40.328125 53.859375 26.8125 
Q 51.3125 13.875 43.171875 6.25 
Q 34.96875 -1.421875 23.25 -1.421875 
Q 11.578125 -1.421875 6.34375 6.25 
Q 1.125 13.875 3.765625 27.296875 
Q 5.671875 37.25 13.921875 45.3125 
Q 17.140625 48.4375 21.140625 50.203125 
Q 14.265625 54.046875 15.625 60.9375 
Q 18.21875 74.21875 39.75 74.21875 
Q 50.53125 74.21875 55.71875 70.796875 
z
M 27.390625 47.75 
Q 23.828125 46.34375 20.40625 42.78125 
Q 15.140625 37.25 13.234375 27.296875 
Q 11.28125 17.390625 14.359375 11.8125 
Q 17.484375 6.203125 24.75 6.203125 
Q 31.9375 6.203125 37.203125 11.859375 
Q 42.53125 17.53125 44.34375 26.8125 
Q 46.1875 36.53125 42.671875 41.21875 
Q 38.921875 46.234375 32.859375 46.78125 
Q 29.78125 47.078125 27.390625 47.75 
z
" id="DejaVuSans-Oblique-948"/>
      <path d="M 10.6875 40.921875 
L 21 40.921875 
L 21 28.515625 
L 10.6875 28.515625 
z
" id="DejaVuSans-8901"/>
     </defs>
     <use transform="translate(0 0.546875)" xlink:href="#DejaVuSans-70"/>
     <use transform="translate(57.519531 0.546875)" xlink:href="#DejaVuSans-111"/>
     <use transform="translate(118.701172 0.546875)" xlink:href="#DejaVuSans-117"/>
     <use transform="translate(182.080078 0.546875)" xlink:href="#DejaVuSans-114"/>
     <use transform="translate(223.193359 0.546875)" xlink:href="#DejaVuSans-105"/>
     <use transform="translate(250.976562 0.546875)" xlink:href="#DejaVuSans-101"/>
     <use transform="translate(312.5 0.546875)" xlink:href="#DejaVuSans-114"/>
     <use transform="translate(353.613281 0.546875)" xlink:href="#DejaVuSans-32"/>
     <use transform="translate(385.400391 0.546875)" xlink:href="#DejaVuSans-84"/>
     <use transform="translate(446.484375 0.546875)" xlink:href="#DejaVuSans-114"/>
     <use transform="translate(487.597656 0.546875)" xlink:href="#DejaVuSans-97"/>
     <use transform="translate(548.876953 0.546875)" xlink:href="#DejaVuSans-110"/>
     <use transform="translate(612.255859 0.546875)" xlink:href="#DejaVuSans-115"/>
     <use transform="translate(664.355469 0.546875)" xlink:href="#DejaVuSans-102"/>
     <use transform="translate(699.560547 0.546875)" xlink:href="#DejaVuSans-111"/>
     <use transform="translate(760.742188 0.546875)" xlink:href="#DejaVuSans-114"/>
     <use transform="translate(801.855469 0.546875)" xlink:href="#DejaVuSans-109"/>
     <use transform="translate(899.267578 0.546875)" xlink:href="#DejaVuSans-32"/>
     <use transform="translate(931.054688 0.546875)" xlink:href="#DejaVuSans-111"/>
     <use transform="translate(992.236328 0.546875)" xlink:href="#DejaVuSans-102"/>
     <use transform="translate(1027.441406 0.546875)" xlink:href="#DejaVuSans-32"/>
     <use transform="translate(1059.228516 0.546875)" xlink:href="#DejaVuSans-73"/>
     <use transform="translate(1085.095703 0.546875)" xlink:href="#DejaVuSans-109"/>
     <use transform="translate(1182.507812 0.546875)" xlink:href="#DejaVuSans-112"/>
     <use transform="translate(1245.984375 0.546875)" xlink:href="#DejaVuSans-117"/>
     <use transform="translate(1309.363281 0.546875)" xlink:href="#DejaVuSans-108"/>
     <use transform="translate(1337.146484 0.546875)" xlink:href="#DejaVuSans-115"/>
     <use transform="translate(1389.246094 0.546875)" xlink:href="#DejaVuSans-101"/>
     <use transform="translate(1450.769531 0.546875)" xlink:href="#DejaVuSans-32"/>
     <use transform="translate(1482.556641 0.546875)" xlink:href="#DejaVuSans-84"/>
     <use transform="translate(1543.640625 0.546875)" xlink:href="#DejaVuSans-114"/>
     <use transform="translate(1584.753906 0.546875)" xlink:href="#DejaVuSans-97"/>
     <use transform="translate(1646.033203 0.546875)" xlink:href="#DejaVuSans-105"/>
     <use transform="translate(1673.816406 0.546875)" xlink:href="#DejaVuSans-110"/>
     <use transform="translate(1737.195312 0.546875)" xlink:href="#DejaVuSans-32"/>
     <use transform="translate(1768.982422 0.546875)" xlink:href="#DejaVuSans-Oblique-88"/>
     <use transform="translate(1837.488281 0.546875)" xlink:href="#DejaVuSans-40"/>
     <use transform="translate(1876.501953 0.546875)" xlink:href="#DejaVuSans-Oblique-969"/>
     <use transform="translate(1960.242188 0.546875)" xlink:href="#DejaVuSans-41"/>
     <use transform="translate(2018.738281 0.546875)" xlink:href="#DejaVuSans-42"/>
     <use transform="translate(2088.220703 45.678125)scale(0.7)" xlink:href="#DejaVuSans-50"/>
     <use transform="translate(2132.756836 45.678125)scale(0.7)" xlink:href="#DejaVuSans-Oblique-960"/>
     <use transform="translate(2096.220703 -37.940625)scale(0.7)" xlink:href="#DejaVuSans-Oblique-84"/>
     <use transform="translate(2138.979492 -49.425)scale(0.49)" xlink:href="#DejaVuSans-Oblique-115"/>
     <use transform="translate(2187.400391 19.296875)" xlink:href="#DejaVuSansDisplay-8721"/>
     <use transform="translate(2210.400391 -65.809375)scale(0.7)" xlink:href="#DejaVuSans-Oblique-110"/>
     <use transform="translate(2278.166016 0.546875)" xlink:href="#DejaVuSans-Oblique-948"/>
     <use transform="translate(2339.347656 0.546875)" xlink:href="#DejaVuSans-40"/>
     <use transform="translate(2378.361328 0.546875)" xlink:href="#DejaVuSans-Oblique-969"/>
     <use transform="translate(2481.583984 0.546875)" xlink:href="#DejaVuSans-8722"/>
     <use transform="translate(2584.855469 0.546875)" xlink:href="#DejaVuSans-Oblique-110"/>
     <use transform="translate(2667.716797 0.546875)" xlink:href="#DejaVuSans-8901"/>
     <use transform="translate(2718.986328 0.546875)" xlink:href="#DejaVuSans-Oblique-969"/>
     <use transform="translate(2802.726562 -15.859375)scale(0.7)" xlink:href="#DejaVuSans-Oblique-115"/>
     <use transform="translate(2841.930664 0.546875)" xlink:href="#DejaVuSans-41"/>
     <path d="M 2088.220703 19.34375 
L 2088.220703 25.59375 
L 2174.900391 25.59375 
L 2174.900391 19.34375 
L 2088.220703 19.34375 
z
"/>
    </g>
   </g>
  </g>
 </g>
 <defs>
  <clipPath id="pb04b250d2b">
   <rect height="104.435" width="477.7625" x="43.175" y="49.175"/>
  </clipPath>
  <clipPath id="pb8e4a9f69e">
   <rect height="104.435" width="477.7625" x="663.4375" y="49.175"/>
  </clipPath>
 </defs>
</svg>
