<?xml version="1.0" encoding="utf-8" standalone="no"?>
<!DOCTYPE svg PUBLIC "-//W3C//DTD SVG 1.1//EN"
  "http://www.w3.org/Graphics/SVG/1.1/DTD/svg11.dtd">
<!-- Created with matplotlib (https://matplotlib.org/) -->
<svg height="216pt" version="1.1" viewBox="0 0 1152 216" width="1152pt" xmlns="http://www.w3.org/2000/svg" xmlns:xlink="http://www.w3.org/1999/xlink">
 <metadata>
  <rdf:RDF xmlns:cc="http://creativecommons.org/ns#" xmlns:dc="http://purl.org/dc/elements/1.1/" xmlns:rdf="http://www.w3.org/1999/02/22-rdf-syntax-ns#">
   <cc:Work>
    <dc:type rdf:resource="http://purl.org/dc/dcmitype/StillImage"/>
    <dc:date>2021-10-30T12:59:11.072126</dc:date>
    <dc:format>image/svg+xml</dc:format>
    <dc:creator>
     <cc:Agent>
      <dc:title>Matplotlib v3.3.4, https://matplotlib.org/</dc:title>
     </cc:Agent>
    </dc:creator>
   </cc:Work>
  </rdf:RDF>
 </metadata>
 <defs>
  <style type="text/css">*{stroke-linecap:butt;stroke-linejoin:round;}</style>
 </defs>
 <g id="figure_1">
  <g id="patch_1">
   <path d="M 0 216 
L 1152 216 
L 1152 0 
L 0 0 
z
" style="fill:none;"/>
  </g>
  <g id="axes_1">
   <g id="patch_2">
    <path d="M 56.55 153.61 
L 526.34375 153.61 
L 526.34375 49.175 
L 56.55 49.175 
z
" style="fill:#ffffff;"/>
   </g>
   <g id="patch_3">
    <path clip-path="url(#pd2165c0e57)" d="M -491.542708 74.312266 
L -488.932743 76.821998 
L -490.890217 76.821998 
L -490.890217 118.974967 
L -492.1952 118.974967 
L -492.1952 76.821998 
L -494.152674 76.821998 
z
" style="stroke:#000000;stroke-linejoin:miter;"/>
   </g>
   <g id="patch_4">
    <path clip-path="url(#pd2165c0e57)" d="M -465.443056 80.386542 
L -462.83309 82.896274 
L -464.790564 82.896274 
L -464.790564 118.974967 
L -466.095547 118.974967 
L -466.095547 82.896274 
L -468.053021 82.896274 
z
" style="stroke:#000000;stroke-linejoin:miter;"/>
   </g>
   <g id="patch_5">
    <path clip-path="url(#pd2165c0e57)" d="M -439.343403 65.751457 
L -436.733437 68.261189 
L -438.690911 68.261189 
L -438.690911 118.974967 
L -439.995894 118.974967 
L -439.995894 68.261189 
L -441.953368 68.261189 
z
" style="stroke:#000000;stroke-linejoin:miter;"/>
   </g>
   <g id="patch_6">
    <path clip-path="url(#pd2165c0e57)" d="M -413.24375 53.950732 
L -410.633785 56.460464 
L -412.591259 56.460464 
L -412.591259 118.974967 
L -413.896241 118.974967 
L -413.896241 56.460464 
L -415.853715 56.460464 
z
" style="stroke:#000000;stroke-linejoin:miter;"/>
   </g>
   <g id="patch_7">
    <path clip-path="url(#pd2165c0e57)" d="M -387.144097 71.083821 
L -384.534132 73.593553 
L -386.491606 73.593553 
L -386.491606 118.974967 
L -387.796589 118.974967 
L -387.796589 73.593553 
L -389.754062 73.593553 
z
" style="stroke:#000000;stroke-linejoin:miter;"/>
   </g>
   <g id="patch_8">
    <path clip-path="url(#pd2165c0e57)" d="M -361.044444 98.356048 
L -358.434479 100.86578 
L -360.391953 100.86578 
L -360.391953 118.974967 
L -361.696936 118.974967 
L -361.696936 100.86578 
L -363.65441 100.86578 
z
" style="stroke:#000000;stroke-linejoin:miter;"/>
   </g>
   <g id="patch_9">
    <path clip-path="url(#pd2165c0e57)" d="M -334.944792 97.310595 
L -332.334826 99.820327 
L -334.2923 99.820327 
L -334.2923 118.974967 
L -335.597283 118.974967 
L -335.597283 99.820327 
L -337.554757 99.820327 
z
" style="stroke:#000000;stroke-linejoin:miter;"/>
   </g>
   <g id="patch_10">
    <path clip-path="url(#pd2165c0e57)" d="M -308.845139 72.133399 
L -306.235174 74.643131 
L -308.192648 74.643131 
L -308.192648 118.974967 
L -309.49763 118.974967 
L -309.49763 74.643131 
L -311.455104 74.643131 
z
" style="stroke:#000000;stroke-linejoin:miter;"/>
   </g>
   <g id="patch_11">
    <path clip-path="url(#pd2165c0e57)" d="M -282.745486 66.588635 
L -280.135521 69.098367 
L -282.092995 69.098367 
L -282.092995 118.974967 
L -283.397977 118.974967 
L -283.397977 69.098367 
L -285.355451 69.098367 
z
" style="stroke:#000000;stroke-linejoin:miter;"/>
   </g>
   <g id="patch_12">
    <path clip-path="url(#pd2165c0e57)" d="M -256.645833 96.225891 
L -254.035868 98.735623 
L -255.993342 98.735623 
L -255.993342 118.974967 
L -257.298325 118.974967 
L -257.298325 98.735623 
L -259.255799 98.735623 
z
" style="stroke:#000000;stroke-linejoin:miter;"/>
   </g>
   <g id="patch_13">
    <path clip-path="url(#pd2165c0e57)" d="M -230.546181 125.961593 
L -233.156146 123.451861 
L -231.198672 123.451861 
L -231.198672 121.484699 
L -229.893689 121.484699 
L -229.893689 123.451861 
L -227.936215 123.451861 
z
" style="stroke:#000000;stroke-linejoin:miter;"/>
   </g>
   <g id="patch_14">
    <path clip-path="url(#pd2165c0e57)" d="M -204.446528 115.899091 
L -201.836562 118.408823 
L -203.794036 118.408823 
L -203.794036 118.974967 
L -205.099019 118.974967 
L -205.099019 118.408823 
L -207.056493 118.408823 
z
" style="stroke:#000000;stroke-linejoin:miter;"/>
   </g>
   <g id="patch_15">
    <path clip-path="url(#pd2165c0e57)" d="M -178.346875 94.928244 
L -175.73691 97.437976 
L -177.694384 97.437976 
L -177.694384 118.974967 
L -178.999366 118.974967 
L -178.999366 97.437976 
L -180.95684 97.437976 
z
" style="stroke:#000000;stroke-linejoin:miter;"/>
   </g>
   <g id="patch_16">
    <path clip-path="url(#pd2165c0e57)" d="M -152.247222 98.887489 
L -149.637257 101.397221 
L -151.594731 101.397221 
L -151.594731 118.974967 
L -152.899714 118.974967 
L -152.899714 101.397221 
L -154.857188 101.397221 
z
" style="stroke:#000000;stroke-linejoin:miter;"/>
   </g>
   <g id="patch_17">
    <path clip-path="url(#pd2165c0e57)" d="M -126.147569 126.177541 
L -128.757535 123.667809 
L -126.800061 123.667809 
L -126.800061 121.484699 
L -125.495078 121.484699 
L -125.495078 123.667809 
L -123.537604 123.667809 
z
" style="stroke:#000000;stroke-linejoin:miter;"/>
   </g>
   <g id="patch_18">
    <path clip-path="url(#pd2165c0e57)" d="M -100.047917 137.40865 
L -102.657882 134.898918 
L -100.700408 134.898918 
L -100.700408 121.484699 
L -99.395425 121.484699 
L -99.395425 134.898918 
L -97.437951 134.898918 
z
" style="stroke:#000000;stroke-linejoin:miter;"/>
   </g>
   <g id="patch_19">
    <path clip-path="url(#pd2165c0e57)" d="M -73.948264 127.772874 
L -76.558229 125.263142 
L -74.600755 125.263142 
L -74.600755 121.484699 
L -73.295773 121.484699 
L -73.295773 125.263142 
L -71.338299 125.263142 
z
" style="stroke:#000000;stroke-linejoin:miter;"/>
   </g>
   <g id="patch_20">
    <path clip-path="url(#pd2165c0e57)" d="M -47.848611 123.292813 
L -50.458576 120.783081 
L -48.501102 120.783081 
L -48.501102 121.484699 
L -47.19612 121.484699 
L -47.19612 120.783081 
L -45.238646 120.783081 
z
" style="stroke:#000000;stroke-linejoin:miter;"/>
   </g>
   <g id="patch_21">
    <path clip-path="url(#pd2165c0e57)" d="M -21.748958 134.436795 
L -24.358924 131.927063 
L -22.40145 131.927063 
L -22.40145 121.484699 
L -21.096467 121.484699 
L -21.096467 131.927063 
L -19.138993 131.927063 
z
" style="stroke:#000000;stroke-linejoin:miter;"/>
   </g>
   <g id="patch_22">
    <path clip-path="url(#pd2165c0e57)" d="M 4.350694 139.844204 
L 1.740729 137.334472 
L 3.698203 137.334472 
L 3.698203 121.484699 
L 5.003186 121.484699 
L 5.003186 137.334472 
L 6.96066 137.334472 
z
" style="stroke:#000000;stroke-linejoin:miter;"/>
   </g>
   <g id="patch_23">
    <path clip-path="url(#pd2165c0e57)" d="M 30.450347 128.501421 
L 27.840382 125.991689 
L 29.797856 125.991689 
L 29.797856 121.484699 
L 31.102839 121.484699 
L 31.102839 125.991689 
L 33.060313 125.991689 
z
" style="stroke:#000000;stroke-linejoin:miter;"/>
   </g>
   <g id="patch_24">
    <path clip-path="url(#pd2165c0e57)" d="M 56.55 122.427144 
L 53.940035 119.917412 
L 55.897509 119.917412 
L 55.897509 121.484699 
L 57.202491 121.484699 
L 57.202491 119.917412 
L 59.159965 119.917412 
z
" style="stroke:#000000;stroke-linejoin:miter;"/>
   </g>
   <g id="patch_25">
    <path clip-path="url(#pd2165c0e57)" d="M 82.649653 137.062229 
L 80.039687 134.552497 
L 81.997161 134.552497 
L 81.997161 121.484699 
L 83.302144 121.484699 
L 83.302144 134.552497 
L 85.259618 134.552497 
z
" style="stroke:#000000;stroke-linejoin:miter;"/>
   </g>
   <g id="patch_26">
    <path clip-path="url(#pd2165c0e57)" d="M 108.749306 148.862955 
L 106.13934 146.353223 
L 108.096814 146.353223 
L 108.096814 121.484699 
L 109.401797 121.484699 
L 109.401797 146.353223 
L 111.359271 146.353223 
z
" style="stroke:#000000;stroke-linejoin:miter;"/>
   </g>
   <g id="patch_27">
    <path clip-path="url(#pd2165c0e57)" d="M 134.848958 131.729865 
L 132.238993 129.220133 
L 134.196467 129.220133 
L 134.196467 121.484699 
L 135.50145 121.484699 
L 135.50145 129.220133 
L 137.458924 129.220133 
z
" style="stroke:#000000;stroke-linejoin:miter;"/>
   </g>
   <g id="patch_28">
    <path clip-path="url(#pd2165c0e57)" d="M 160.948611 101.947906 
L 163.558576 104.457638 
L 161.601102 104.457638 
L 161.601102 118.974967 
L 160.29612 118.974967 
L 160.29612 104.457638 
L 158.338646 104.457638 
z
" style="stroke:#000000;stroke-linejoin:miter;"/>
   </g>
   <g id="patch_29">
    <path clip-path="url(#pd2165c0e57)" d="M 187.048264 102.993359 
L 189.658229 105.503091 
L 187.700755 105.503091 
L 187.700755 118.974967 
L 186.395773 118.974967 
L 186.395773 105.503091 
L 184.438299 105.503091 
z
" style="stroke:#000000;stroke-linejoin:miter;"/>
   </g>
   <g id="patch_30">
    <path clip-path="url(#pd2165c0e57)" d="M 213.147917 130.680287 
L 210.537951 128.170555 
L 212.495425 128.170555 
L 212.495425 121.484699 
L 213.800408 121.484699 
L 213.800408 128.170555 
L 215.757882 128.170555 
z
" style="stroke:#000000;stroke-linejoin:miter;"/>
   </g>
   <g id="patch_31">
    <path clip-path="url(#pd2165c0e57)" d="M 239.247569 136.225051 
L 236.637604 133.715319 
L 238.595078 133.715319 
L 238.595078 121.484699 
L 239.900061 121.484699 
L 239.900061 133.715319 
L 241.857535 133.715319 
z
" style="stroke:#000000;stroke-linejoin:miter;"/>
   </g>
   <g id="patch_32">
    <path clip-path="url(#pd2165c0e57)" d="M 265.347222 104.078063 
L 267.957187 106.587795 
L 265.999714 106.587795 
L 265.999714 118.974967 
L 264.694731 118.974967 
L 264.694731 106.587795 
L 262.737257 106.587795 
z
" style="stroke:#000000;stroke-linejoin:miter;"/>
   </g>
   <g id="patch_33">
    <path clip-path="url(#pd2165c0e57)" d="M 291.446875 76.852093 
L 294.05684 79.361825 
L 292.099366 79.361825 
L 292.099366 118.974967 
L 290.794384 118.974967 
L 290.794384 79.361825 
L 288.83691 79.361825 
z
" style="stroke:#000000;stroke-linejoin:miter;"/>
   </g>
   <g id="patch_34">
    <path clip-path="url(#pd2165c0e57)" d="M 317.546528 84.404863 
L 320.156493 86.914595 
L 318.199019 86.914595 
L 318.199019 118.974967 
L 316.894036 118.974967 
L 316.894036 86.914595 
L 314.936562 86.914595 
z
" style="stroke:#000000;stroke-linejoin:miter;"/>
   </g>
   <g id="patch_35">
    <path clip-path="url(#pd2165c0e57)" d="M 343.646181 105.37571 
L 346.256146 107.885442 
L 344.298672 107.885442 
L 344.298672 118.974967 
L 342.993689 118.974967 
L 342.993689 107.885442 
L 341.036215 107.885442 
z
" style="stroke:#000000;stroke-linejoin:miter;"/>
   </g>
   <g id="patch_36">
    <path clip-path="url(#pd2165c0e57)" d="M 369.745833 101.416465 
L 372.355799 103.926197 
L 370.398325 103.926197 
L 370.398325 118.974967 
L 369.093342 118.974967 
L 369.093342 103.926197 
L 367.135868 103.926197 
z
" style="stroke:#000000;stroke-linejoin:miter;"/>
   </g>
   <g id="patch_37">
    <path clip-path="url(#pd2165c0e57)" d="M 395.845486 76.636145 
L 398.455451 79.145877 
L 396.497977 79.145877 
L 396.497977 118.974967 
L 395.192995 118.974967 
L 395.192995 79.145877 
L 393.235521 79.145877 
z
" style="stroke:#000000;stroke-linejoin:miter;"/>
   </g>
   <g id="patch_38">
    <path clip-path="url(#pd2165c0e57)" d="M 421.945139 65.405036 
L 424.555104 67.914768 
L 422.59763 67.914768 
L 422.59763 118.974967 
L 421.292648 118.974967 
L 421.292648 67.914768 
L 419.335174 67.914768 
z
" style="stroke:#000000;stroke-linejoin:miter;"/>
   </g>
   <g id="patch_39">
    <path clip-path="url(#pd2165c0e57)" d="M 448.044792 75.040813 
L 450.654757 77.550545 
L 448.697283 77.550545 
L 448.697283 118.974967 
L 447.3923 118.974967 
L 447.3923 77.550545 
L 445.434826 77.550545 
z
" style="stroke:#000000;stroke-linejoin:miter;"/>
   </g>
   <g id="patch_40">
    <path clip-path="url(#pd2165c0e57)" d="M 474.144444 79.520873 
L 476.75441 82.030605 
L 474.796936 82.030605 
L 474.796936 118.974967 
L 473.491953 118.974967 
L 473.491953 82.030605 
L 471.534479 82.030605 
z
" style="stroke:#000000;stroke-linejoin:miter;"/>
   </g>
   <g id="patch_41">
    <path clip-path="url(#pd2165c0e57)" d="M 500.244097 68.376891 
L 502.854062 70.886623 
L 500.896589 70.886623 
L 500.896589 118.974967 
L 499.591606 118.974967 
L 499.591606 70.886623 
L 497.634132 70.886623 
z
" style="stroke:#000000;stroke-linejoin:miter;"/>
   </g>
   <g id="patch_42">
    <path clip-path="url(#pd2165c0e57)" d="M 526.34375 62.969482 
L 528.953715 65.479214 
L 526.996241 65.479214 
L 526.996241 118.974967 
L 525.691259 118.974967 
L 525.691259 65.479214 
L 523.733785 65.479214 
z
" style="stroke:#000000;stroke-linejoin:miter;"/>
   </g>
   <g id="patch_43">
    <path clip-path="url(#pd2165c0e57)" d="M 552.443403 74.312266 
L 555.053368 76.821998 
L 553.095894 76.821998 
L 553.095894 118.974967 
L 551.790911 118.974967 
L 551.790911 76.821998 
L 549.833437 76.821998 
z
" style="stroke:#000000;stroke-linejoin:miter;"/>
   </g>
   <g id="patch_44">
    <path clip-path="url(#pd2165c0e57)" d="M 578.543056 80.386542 
L 581.153021 82.896274 
L 579.195547 82.896274 
L 579.195547 118.974967 
L 577.890564 118.974967 
L 577.890564 82.896274 
L 575.93309 82.896274 
z
" style="stroke:#000000;stroke-linejoin:miter;"/>
   </g>
   <g id="patch_45">
    <path clip-path="url(#pd2165c0e57)" d="M 604.642708 65.751457 
L 607.252674 68.261189 
L 605.2952 68.261189 
L 605.2952 118.974967 
L 603.990217 118.974967 
L 603.990217 68.261189 
L 602.032743 68.261189 
z
" style="stroke:#000000;stroke-linejoin:miter;"/>
   </g>
   <g id="patch_46">
    <path clip-path="url(#pd2165c0e57)" d="M 630.742361 53.950732 
L 633.352326 56.460464 
L 631.394852 56.460464 
L 631.394852 118.974967 
L 630.08987 118.974967 
L 630.08987 56.460464 
L 628.132396 56.460464 
z
" style="stroke:#000000;stroke-linejoin:miter;"/>
   </g>
   <g id="patch_47">
    <path clip-path="url(#pd2165c0e57)" d="M 656.842014 71.083821 
L 659.451979 73.593553 
L 657.494505 73.593553 
L 657.494505 118.974967 
L 656.189523 118.974967 
L 656.189523 73.593553 
L 654.232049 73.593553 
z
" style="stroke:#000000;stroke-linejoin:miter;"/>
   </g>
   <g id="patch_48">
    <path clip-path="url(#pd2165c0e57)" d="M 682.941667 98.356048 
L 685.551632 100.86578 
L 683.594158 100.86578 
L 683.594158 118.974967 
L 682.289175 118.974967 
L 682.289175 100.86578 
L 680.331701 100.86578 
z
" style="stroke:#000000;stroke-linejoin:miter;"/>
   </g>
   <g id="patch_49">
    <path clip-path="url(#pd2165c0e57)" d="M 709.041319 97.310595 
L 711.651285 99.820327 
L 709.693811 99.820327 
L 709.693811 118.974967 
L 708.388828 118.974967 
L 708.388828 99.820327 
L 706.431354 99.820327 
z
" style="stroke:#000000;stroke-linejoin:miter;"/>
   </g>
   <g id="patch_50">
    <path clip-path="url(#pd2165c0e57)" d="M 735.140972 72.133399 
L 737.750937 74.643131 
L 735.793464 74.643131 
L 735.793464 118.974967 
L 734.488481 118.974967 
L 734.488481 74.643131 
L 732.531007 74.643131 
z
" style="stroke:#000000;stroke-linejoin:miter;"/>
   </g>
   <g id="patch_51">
    <path clip-path="url(#pd2165c0e57)" d="M 761.240625 66.588635 
L 763.85059 69.098367 
L 761.893116 69.098367 
L 761.893116 118.974967 
L 760.588134 118.974967 
L 760.588134 69.098367 
L 758.63066 69.098367 
z
" style="stroke:#000000;stroke-linejoin:miter;"/>
   </g>
   <g id="patch_52">
    <path clip-path="url(#pd2165c0e57)" d="M 787.340278 96.225891 
L 789.950243 98.735623 
L 787.992769 98.735623 
L 787.992769 118.974967 
L 786.687786 118.974967 
L 786.687786 98.735623 
L 784.730312 98.735623 
z
" style="stroke:#000000;stroke-linejoin:miter;"/>
   </g>
   <g id="patch_53">
    <path clip-path="url(#pd2165c0e57)" d="M 813.439931 125.961593 
L 810.829965 123.451861 
L 812.787439 123.451861 
L 812.787439 121.484699 
L 814.092422 121.484699 
L 814.092422 123.451861 
L 816.049896 123.451861 
z
" style="stroke:#000000;stroke-linejoin:miter;"/>
   </g>
   <g id="patch_54">
    <path clip-path="url(#pd2165c0e57)" d="M 839.539583 115.899091 
L 842.149549 118.408823 
L 840.192075 118.408823 
L 840.192075 118.974967 
L 838.887092 118.974967 
L 838.887092 118.408823 
L 836.929618 118.408823 
z
" style="stroke:#000000;stroke-linejoin:miter;"/>
   </g>
   <g id="patch_55">
    <path clip-path="url(#pd2165c0e57)" d="M 865.639236 94.928244 
L 868.249201 97.437976 
L 866.291727 97.437976 
L 866.291727 118.974967 
L 864.986745 118.974967 
L 864.986745 97.437976 
L 863.029271 97.437976 
z
" style="stroke:#000000;stroke-linejoin:miter;"/>
   </g>
   <g id="patch_56">
    <path clip-path="url(#pd2165c0e57)" d="M 891.738889 98.887489 
L 894.348854 101.397221 
L 892.39138 101.397221 
L 892.39138 118.974967 
L 891.086398 118.974967 
L 891.086398 101.397221 
L 889.128924 101.397221 
z
" style="stroke:#000000;stroke-linejoin:miter;"/>
   </g>
   <g id="patch_57">
    <path clip-path="url(#pd2165c0e57)" d="M 917.838542 126.177541 
L 915.228576 123.667809 
L 917.18605 123.667809 
L 917.18605 121.484699 
L 918.491033 121.484699 
L 918.491033 123.667809 
L 920.448507 123.667809 
z
" style="stroke:#000000;stroke-linejoin:miter;"/>
   </g>
   <g id="patch_58">
    <path clip-path="url(#pd2165c0e57)" d="M 943.938194 137.40865 
L 941.328229 134.898918 
L 943.285703 134.898918 
L 943.285703 121.484699 
L 944.590686 121.484699 
L 944.590686 134.898918 
L 946.54816 134.898918 
z
" style="stroke:#000000;stroke-linejoin:miter;"/>
   </g>
   <g id="patch_59">
    <path clip-path="url(#pd2165c0e57)" d="M 970.037847 127.772874 
L 967.427882 125.263142 
L 969.385356 125.263142 
L 969.385356 121.484699 
L 970.690339 121.484699 
L 970.690339 125.263142 
L 972.647812 125.263142 
z
" style="stroke:#000000;stroke-linejoin:miter;"/>
   </g>
   <g id="patch_60">
    <path clip-path="url(#pd2165c0e57)" d="M 996.1375 123.292813 
L 993.527535 120.783081 
L 995.485009 120.783081 
L 995.485009 121.484699 
L 996.789991 121.484699 
L 996.789991 120.783081 
L 998.747465 120.783081 
z
" style="stroke:#000000;stroke-linejoin:miter;"/>
   </g>
   <g id="patch_61">
    <path clip-path="url(#pd2165c0e57)" d="M 1022.237153 134.436795 
L 1019.627187 131.927063 
L 1021.584661 131.927063 
L 1021.584661 121.484699 
L 1022.889644 121.484699 
L 1022.889644 131.927063 
L 1024.847118 131.927063 
z
" style="stroke:#000000;stroke-linejoin:miter;"/>
   </g>
   <g id="patch_62">
    <path clip-path="url(#pd2165c0e57)" d="M 1048.336806 139.844204 
L 1045.72684 137.334472 
L 1047.684314 137.334472 
L 1047.684314 121.484699 
L 1048.989297 121.484699 
L 1048.989297 137.334472 
L 1050.946771 137.334472 
z
" style="stroke:#000000;stroke-linejoin:miter;"/>
   </g>
   <g id="patch_63">
    <path clip-path="url(#pd2165c0e57)" d="M 1074.436458 128.501421 
L 1071.826493 125.991689 
L 1073.783967 125.991689 
L 1073.783967 121.484699 
L 1075.08895 121.484699 
L 1075.08895 125.991689 
L 1077.046424 125.991689 
z
" style="stroke:#000000;stroke-linejoin:miter;"/>
   </g>
   <g id="matplotlib.axis_1">
    <g id="xtick_1">
     <g id="line2d_1">
      <path clip-path="url(#pd2165c0e57)" d="M 82.649653 153.61 
L 82.649653 49.175 
" style="fill:none;stroke:#cccccc;stroke-dasharray:1.85,0.8;stroke-dashoffset:0;stroke-width:0.5;"/>
     </g>
     <g id="line2d_2">
      <defs>
       <path d="M 0 0 
L 0 3.5 
" id="mdbcf2a6efd" style="stroke:#000000;stroke-width:0.8;"/>
      </defs>
      <g>
       <use style="stroke:#000000;stroke-width:0.8;" x="82.649653" xlink:href="#mdbcf2a6efd" y="153.61"/>
      </g>
     </g>
     <g id="text_1">
      <!-- −4 -->
      <g transform="translate(70.855903 172.7675)scale(0.16 -0.16)">
       <defs>
        <path d="M 10.59375 35.5 
L 73.1875 35.5 
L 73.1875 27.203125 
L 10.59375 27.203125 
z
" id="DejaVuSans-8722"/>
        <path d="M 37.796875 64.3125 
L 12.890625 25.390625 
L 37.796875 25.390625 
z
M 35.203125 72.90625 
L 47.609375 72.90625 
L 47.609375 25.390625 
L 58.015625 25.390625 
L 58.015625 17.1875 
L 47.609375 17.1875 
L 47.609375 0 
L 37.796875 0 
L 37.796875 17.1875 
L 4.890625 17.1875 
L 4.890625 26.703125 
z
" id="DejaVuSans-52"/>
       </defs>
       <use xlink:href="#DejaVuSans-8722"/>
       <use x="83.789062" xlink:href="#DejaVuSans-52"/>
      </g>
     </g>
    </g>
    <g id="xtick_2">
     <g id="line2d_3">
      <path clip-path="url(#pd2165c0e57)" d="M 134.848958 153.61 
L 134.848958 49.175 
" style="fill:none;stroke:#cccccc;stroke-dasharray:1.85,0.8;stroke-dashoffset:0;stroke-width:0.5;"/>
     </g>
     <g id="line2d_4">
      <g>
       <use style="stroke:#000000;stroke-width:0.8;" x="134.848958" xlink:href="#mdbcf2a6efd" y="153.61"/>
      </g>
     </g>
     <g id="text_2">
      <!-- −3 -->
      <g transform="translate(123.055208 172.7675)scale(0.16 -0.16)">
       <defs>
        <path d="M 40.578125 39.3125 
Q 47.65625 37.796875 51.625 33 
Q 55.609375 28.21875 55.609375 21.1875 
Q 55.609375 10.40625 48.1875 4.484375 
Q 40.765625 -1.421875 27.09375 -1.421875 
Q 22.515625 -1.421875 17.65625 -0.515625 
Q 12.796875 0.390625 7.625 2.203125 
L 7.625 11.71875 
Q 11.71875 9.328125 16.59375 8.109375 
Q 21.484375 6.890625 26.8125 6.890625 
Q 36.078125 6.890625 40.9375 10.546875 
Q 45.796875 14.203125 45.796875 21.1875 
Q 45.796875 27.640625 41.28125 31.265625 
Q 36.765625 34.90625 28.71875 34.90625 
L 20.21875 34.90625 
L 20.21875 43.015625 
L 29.109375 43.015625 
Q 36.375 43.015625 40.234375 45.921875 
Q 44.09375 48.828125 44.09375 54.296875 
Q 44.09375 59.90625 40.109375 62.90625 
Q 36.140625 65.921875 28.71875 65.921875 
Q 24.65625 65.921875 20.015625 65.03125 
Q 15.375 64.15625 9.8125 62.3125 
L 9.8125 71.09375 
Q 15.4375 72.65625 20.34375 73.4375 
Q 25.25 74.21875 29.59375 74.21875 
Q 40.828125 74.21875 47.359375 69.109375 
Q 53.90625 64.015625 53.90625 55.328125 
Q 53.90625 49.265625 50.4375 45.09375 
Q 46.96875 40.921875 40.578125 39.3125 
z
" id="DejaVuSans-51"/>
       </defs>
       <use xlink:href="#DejaVuSans-8722"/>
       <use x="83.789062" xlink:href="#DejaVuSans-51"/>
      </g>
     </g>
    </g>
    <g id="xtick_3">
     <g id="line2d_5">
      <path clip-path="url(#pd2165c0e57)" d="M 187.048264 153.61 
L 187.048264 49.175 
" style="fill:none;stroke:#cccccc;stroke-dasharray:1.85,0.8;stroke-dashoffset:0;stroke-width:0.5;"/>
     </g>
     <g id="line2d_6">
      <g>
       <use style="stroke:#000000;stroke-width:0.8;" x="187.048264" xlink:href="#mdbcf2a6efd" y="153.61"/>
      </g>
     </g>
     <g id="text_3">
      <!-- −2 -->
      <g transform="translate(175.254514 172.7675)scale(0.16 -0.16)">
       <defs>
        <path d="M 19.1875 8.296875 
L 53.609375 8.296875 
L 53.609375 0 
L 7.328125 0 
L 7.328125 8.296875 
Q 12.9375 14.109375 22.625 23.890625 
Q 32.328125 33.6875 34.8125 36.53125 
Q 39.546875 41.84375 41.421875 45.53125 
Q 43.3125 49.21875 43.3125 52.78125 
Q 43.3125 58.59375 39.234375 62.25 
Q 35.15625 65.921875 28.609375 65.921875 
Q 23.96875 65.921875 18.8125 64.3125 
Q 13.671875 62.703125 7.8125 59.421875 
L 7.8125 69.390625 
Q 13.765625 71.78125 18.9375 73 
Q 24.125 74.21875 28.421875 74.21875 
Q 39.75 74.21875 46.484375 68.546875 
Q 53.21875 62.890625 53.21875 53.421875 
Q 53.21875 48.921875 51.53125 44.890625 
Q 49.859375 40.875 45.40625 35.40625 
Q 44.1875 33.984375 37.640625 27.21875 
Q 31.109375 20.453125 19.1875 8.296875 
z
" id="DejaVuSans-50"/>
       </defs>
       <use xlink:href="#DejaVuSans-8722"/>
       <use x="83.789062" xlink:href="#DejaVuSans-50"/>
      </g>
     </g>
    </g>
    <g id="xtick_4">
     <g id="line2d_7">
      <path clip-path="url(#pd2165c0e57)" d="M 239.247569 153.61 
L 239.247569 49.175 
" style="fill:none;stroke:#cccccc;stroke-dasharray:1.85,0.8;stroke-dashoffset:0;stroke-width:0.5;"/>
     </g>
     <g id="line2d_8">
      <g>
       <use style="stroke:#000000;stroke-width:0.8;" x="239.247569" xlink:href="#mdbcf2a6efd" y="153.61"/>
      </g>
     </g>
     <g id="text_4">
      <!-- −1 -->
      <g transform="translate(227.453819 172.7675)scale(0.16 -0.16)">
       <defs>
        <path d="M 12.40625 8.296875 
L 28.515625 8.296875 
L 28.515625 63.921875 
L 10.984375 60.40625 
L 10.984375 69.390625 
L 28.421875 72.90625 
L 38.28125 72.90625 
L 38.28125 8.296875 
L 54.390625 8.296875 
L 54.390625 0 
L 12.40625 0 
z
" id="DejaVuSans-49"/>
       </defs>
       <use xlink:href="#DejaVuSans-8722"/>
       <use x="83.789062" xlink:href="#DejaVuSans-49"/>
      </g>
     </g>
    </g>
    <g id="xtick_5">
     <g id="line2d_9">
      <path clip-path="url(#pd2165c0e57)" d="M 291.446875 153.61 
L 291.446875 49.175 
" style="fill:none;stroke:#cccccc;stroke-dasharray:1.85,0.8;stroke-dashoffset:0;stroke-width:0.5;"/>
     </g>
     <g id="line2d_10">
      <g>
       <use style="stroke:#000000;stroke-width:0.8;" x="291.446875" xlink:href="#mdbcf2a6efd" y="153.61"/>
      </g>
     </g>
     <g id="text_5">
      <!-- 0 -->
      <g transform="translate(286.356875 172.7675)scale(0.16 -0.16)">
       <defs>
        <path d="M 31.78125 66.40625 
Q 24.171875 66.40625 20.328125 58.90625 
Q 16.5 51.421875 16.5 36.375 
Q 16.5 21.390625 20.328125 13.890625 
Q 24.171875 6.390625 31.78125 6.390625 
Q 39.453125 6.390625 43.28125 13.890625 
Q 47.125 21.390625 47.125 36.375 
Q 47.125 51.421875 43.28125 58.90625 
Q 39.453125 66.40625 31.78125 66.40625 
z
M 31.78125 74.21875 
Q 44.046875 74.21875 50.515625 64.515625 
Q 56.984375 54.828125 56.984375 36.375 
Q 56.984375 17.96875 50.515625 8.265625 
Q 44.046875 -1.421875 31.78125 -1.421875 
Q 19.53125 -1.421875 13.0625 8.265625 
Q 6.59375 17.96875 6.59375 36.375 
Q 6.59375 54.828125 13.0625 64.515625 
Q 19.53125 74.21875 31.78125 74.21875 
z
" id="DejaVuSans-48"/>
       </defs>
       <use xlink:href="#DejaVuSans-48"/>
      </g>
     </g>
    </g>
    <g id="xtick_6">
     <g id="line2d_11">
      <path clip-path="url(#pd2165c0e57)" d="M 343.646181 153.61 
L 343.646181 49.175 
" style="fill:none;stroke:#cccccc;stroke-dasharray:1.85,0.8;stroke-dashoffset:0;stroke-width:0.5;"/>
     </g>
     <g id="line2d_12">
      <g>
       <use style="stroke:#000000;stroke-width:0.8;" x="343.646181" xlink:href="#mdbcf2a6efd" y="153.61"/>
      </g>
     </g>
     <g id="text_6">
      <!-- 1 -->
      <g transform="translate(338.556181 172.7675)scale(0.16 -0.16)">
       <use xlink:href="#DejaVuSans-49"/>
      </g>
     </g>
    </g>
    <g id="xtick_7">
     <g id="line2d_13">
      <path clip-path="url(#pd2165c0e57)" d="M 395.845486 153.61 
L 395.845486 49.175 
" style="fill:none;stroke:#cccccc;stroke-dasharray:1.85,0.8;stroke-dashoffset:0;stroke-width:0.5;"/>
     </g>
     <g id="line2d_14">
      <g>
       <use style="stroke:#000000;stroke-width:0.8;" x="395.845486" xlink:href="#mdbcf2a6efd" y="153.61"/>
      </g>
     </g>
     <g id="text_7">
      <!-- 2 -->
      <g transform="translate(390.755486 172.7675)scale(0.16 -0.16)">
       <use xlink:href="#DejaVuSans-50"/>
      </g>
     </g>
    </g>
    <g id="xtick_8">
     <g id="line2d_15">
      <path clip-path="url(#pd2165c0e57)" d="M 448.044792 153.61 
L 448.044792 49.175 
" style="fill:none;stroke:#cccccc;stroke-dasharray:1.85,0.8;stroke-dashoffset:0;stroke-width:0.5;"/>
     </g>
     <g id="line2d_16">
      <g>
       <use style="stroke:#000000;stroke-width:0.8;" x="448.044792" xlink:href="#mdbcf2a6efd" y="153.61"/>
      </g>
     </g>
     <g id="text_8">
      <!-- 3 -->
      <g transform="translate(442.954792 172.7675)scale(0.16 -0.16)">
       <use xlink:href="#DejaVuSans-51"/>
      </g>
     </g>
    </g>
    <g id="xtick_9">
     <g id="line2d_17">
      <path clip-path="url(#pd2165c0e57)" d="M 500.244097 153.61 
L 500.244097 49.175 
" style="fill:none;stroke:#cccccc;stroke-dasharray:1.85,0.8;stroke-dashoffset:0;stroke-width:0.5;"/>
     </g>
     <g id="line2d_18">
      <g>
       <use style="stroke:#000000;stroke-width:0.8;" x="500.244097" xlink:href="#mdbcf2a6efd" y="153.61"/>
      </g>
     </g>
     <g id="text_9">
      <!-- 4 -->
      <g transform="translate(495.154097 172.7675)scale(0.16 -0.16)">
       <use xlink:href="#DejaVuSans-52"/>
      </g>
     </g>
    </g>
    <g id="text_10">
     <!-- Time (s) -->
     <g transform="translate(258.920625 192.2525)scale(0.16 -0.16)">
      <defs>
       <path d="M -0.296875 72.90625 
L 61.375 72.90625 
L 61.375 64.59375 
L 35.5 64.59375 
L 35.5 0 
L 25.59375 0 
L 25.59375 64.59375 
L -0.296875 64.59375 
z
" id="DejaVuSans-84"/>
       <path d="M 9.421875 54.6875 
L 18.40625 54.6875 
L 18.40625 0 
L 9.421875 0 
z
M 9.421875 75.984375 
L 18.40625 75.984375 
L 18.40625 64.59375 
L 9.421875 64.59375 
z
" id="DejaVuSans-105"/>
       <path d="M 52 44.1875 
Q 55.375 50.25 60.0625 53.125 
Q 64.75 56 71.09375 56 
Q 79.640625 56 84.28125 50.015625 
Q 88.921875 44.046875 88.921875 33.015625 
L 88.921875 0 
L 79.890625 0 
L 79.890625 32.71875 
Q 79.890625 40.578125 77.09375 44.375 
Q 74.3125 48.1875 68.609375 48.1875 
Q 61.625 48.1875 57.5625 43.546875 
Q 53.515625 38.921875 53.515625 30.90625 
L 53.515625 0 
L 44.484375 0 
L 44.484375 32.71875 
Q 44.484375 40.625 41.703125 44.40625 
Q 38.921875 48.1875 33.109375 48.1875 
Q 26.21875 48.1875 22.15625 43.53125 
Q 18.109375 38.875 18.109375 30.90625 
L 18.109375 0 
L 9.078125 0 
L 9.078125 54.6875 
L 18.109375 54.6875 
L 18.109375 46.1875 
Q 21.1875 51.21875 25.484375 53.609375 
Q 29.78125 56 35.6875 56 
Q 41.65625 56 45.828125 52.96875 
Q 50 49.953125 52 44.1875 
z
" id="DejaVuSans-109"/>
       <path d="M 56.203125 29.59375 
L 56.203125 25.203125 
L 14.890625 25.203125 
Q 15.484375 15.921875 20.484375 11.0625 
Q 25.484375 6.203125 34.421875 6.203125 
Q 39.59375 6.203125 44.453125 7.46875 
Q 49.3125 8.734375 54.109375 11.28125 
L 54.109375 2.78125 
Q 49.265625 0.734375 44.1875 -0.34375 
Q 39.109375 -1.421875 33.890625 -1.421875 
Q 20.796875 -1.421875 13.15625 6.1875 
Q 5.515625 13.8125 5.515625 26.8125 
Q 5.515625 40.234375 12.765625 48.109375 
Q 20.015625 56 32.328125 56 
Q 43.359375 56 49.78125 48.890625 
Q 56.203125 41.796875 56.203125 29.59375 
z
M 47.21875 32.234375 
Q 47.125 39.59375 43.09375 43.984375 
Q 39.0625 48.390625 32.421875 48.390625 
Q 24.90625 48.390625 20.390625 44.140625 
Q 15.875 39.890625 15.1875 32.171875 
z
" id="DejaVuSans-101"/>
       <path id="DejaVuSans-32"/>
       <path d="M 31 75.875 
Q 24.46875 64.65625 21.28125 53.65625 
Q 18.109375 42.671875 18.109375 31.390625 
Q 18.109375 20.125 21.3125 9.0625 
Q 24.515625 -2 31 -13.1875 
L 23.1875 -13.1875 
Q 15.875 -1.703125 12.234375 9.375 
Q 8.59375 20.453125 8.59375 31.390625 
Q 8.59375 42.28125 12.203125 53.3125 
Q 15.828125 64.359375 23.1875 75.875 
z
" id="DejaVuSans-40"/>
       <path d="M 44.28125 53.078125 
L 44.28125 44.578125 
Q 40.484375 46.53125 36.375 47.5 
Q 32.28125 48.484375 27.875 48.484375 
Q 21.1875 48.484375 17.84375 46.4375 
Q 14.5 44.390625 14.5 40.28125 
Q 14.5 37.15625 16.890625 35.375 
Q 19.28125 33.59375 26.515625 31.984375 
L 29.59375 31.296875 
Q 39.15625 29.25 43.1875 25.515625 
Q 47.21875 21.78125 47.21875 15.09375 
Q 47.21875 7.46875 41.1875 3.015625 
Q 35.15625 -1.421875 24.609375 -1.421875 
Q 20.21875 -1.421875 15.453125 -0.5625 
Q 10.6875 0.296875 5.421875 2 
L 5.421875 11.28125 
Q 10.40625 8.6875 15.234375 7.390625 
Q 20.0625 6.109375 24.8125 6.109375 
Q 31.15625 6.109375 34.5625 8.28125 
Q 37.984375 10.453125 37.984375 14.40625 
Q 37.984375 18.0625 35.515625 20.015625 
Q 33.0625 21.96875 24.703125 23.78125 
L 21.578125 24.515625 
Q 13.234375 26.265625 9.515625 29.90625 
Q 5.8125 33.546875 5.8125 39.890625 
Q 5.8125 47.609375 11.28125 51.796875 
Q 16.75 56 26.8125 56 
Q 31.78125 56 36.171875 55.265625 
Q 40.578125 54.546875 44.28125 53.078125 
z
" id="DejaVuSans-115"/>
       <path d="M 8.015625 75.875 
L 15.828125 75.875 
Q 23.140625 64.359375 26.78125 53.3125 
Q 30.421875 42.28125 30.421875 31.390625 
Q 30.421875 20.453125 26.78125 9.375 
Q 23.140625 -1.703125 15.828125 -13.1875 
L 8.015625 -13.1875 
Q 14.5 -2 17.703125 9.0625 
Q 20.90625 20.125 20.90625 31.390625 
Q 20.90625 42.671875 17.703125 53.65625 
Q 14.5 64.65625 8.015625 75.875 
z
" id="DejaVuSans-41"/>
      </defs>
      <use xlink:href="#DejaVuSans-84"/>
      <use x="57.958984" xlink:href="#DejaVuSans-105"/>
      <use x="85.742188" xlink:href="#DejaVuSans-109"/>
      <use x="183.154297" xlink:href="#DejaVuSans-101"/>
      <use x="244.677734" xlink:href="#DejaVuSans-32"/>
      <use x="276.464844" xlink:href="#DejaVuSans-40"/>
      <use x="315.478516" xlink:href="#DejaVuSans-115"/>
      <use x="367.578125" xlink:href="#DejaVuSans-41"/>
     </g>
    </g>
   </g>
   <g id="matplotlib.axis_2">
    <g id="ytick_1">
     <g id="line2d_19">
      <path clip-path="url(#pd2165c0e57)" d="M 56.55 150.346616 
L 526.34375 150.346616 
" style="fill:none;stroke:#cccccc;stroke-dasharray:1.85,0.8;stroke-dashoffset:0;stroke-width:0.5;"/>
     </g>
     <g id="line2d_20">
      <defs>
       <path d="M 0 0 
L -3.5 0 
" id="mfc30caf1fb" style="stroke:#000000;stroke-width:0.8;"/>
      </defs>
      <g>
       <use style="stroke:#000000;stroke-width:0.8;" x="56.55" xlink:href="#mfc30caf1fb" y="150.346616"/>
      </g>
     </g>
     <g id="text_11">
      <!-- −1 -->
      <g transform="translate(25.9625 156.425366)scale(0.16 -0.16)">
       <use xlink:href="#DejaVuSans-8722"/>
       <use x="83.789062" xlink:href="#DejaVuSans-49"/>
      </g>
     </g>
    </g>
    <g id="ytick_2">
     <g id="line2d_21">
      <path clip-path="url(#pd2165c0e57)" d="M 56.55 118.974967 
L 526.34375 118.974967 
" style="fill:none;stroke:#cccccc;stroke-dasharray:1.85,0.8;stroke-dashoffset:0;stroke-width:0.5;"/>
     </g>
     <g id="line2d_22">
      <g>
       <use style="stroke:#000000;stroke-width:0.8;" x="56.55" xlink:href="#mfc30caf1fb" y="118.974967"/>
      </g>
     </g>
     <g id="text_12">
      <!-- 0 -->
      <g transform="translate(39.37 125.053717)scale(0.16 -0.16)">
       <use xlink:href="#DejaVuSans-48"/>
      </g>
     </g>
    </g>
    <g id="ytick_3">
     <g id="line2d_23">
      <path clip-path="url(#pd2165c0e57)" d="M 56.55 87.603317 
L 526.34375 87.603317 
" style="fill:none;stroke:#cccccc;stroke-dasharray:1.85,0.8;stroke-dashoffset:0;stroke-width:0.5;"/>
     </g>
     <g id="line2d_24">
      <g>
       <use style="stroke:#000000;stroke-width:0.8;" x="56.55" xlink:href="#mfc30caf1fb" y="87.603317"/>
      </g>
     </g>
     <g id="text_13">
      <!-- 1 -->
      <g transform="translate(39.37 93.682067)scale(0.16 -0.16)">
       <use xlink:href="#DejaVuSans-49"/>
      </g>
     </g>
    </g>
    <g id="ytick_4">
     <g id="line2d_25">
      <path clip-path="url(#pd2165c0e57)" d="M 56.55 56.231668 
L 526.34375 56.231668 
" style="fill:none;stroke:#cccccc;stroke-dasharray:1.85,0.8;stroke-dashoffset:0;stroke-width:0.5;"/>
     </g>
     <g id="line2d_26">
      <g>
       <use style="stroke:#000000;stroke-width:0.8;" x="56.55" xlink:href="#mfc30caf1fb" y="56.231668"/>
      </g>
     </g>
     <g id="text_14">
      <!-- 2 -->
      <g transform="translate(39.37 62.310418)scale(0.16 -0.16)">
       <use xlink:href="#DejaVuSans-50"/>
      </g>
     </g>
    </g>
   </g>
   <g id="line2d_27">
    <path clip-path="url(#pd2165c0e57)" d="M 56.55 119.917412 
L 59.159965 120.539717 
L 61.769931 121.404924 
L 64.379896 122.500575 
L 67.511854 124.094159 
L 70.643812 125.953509 
L 74.297764 128.391956 
L 78.995701 131.808435 
L 88.391576 138.723619 
L 92.045528 141.112298 
L 95.177486 142.8946 
L 97.787451 144.143887 
L 100.397417 145.143093 
L 103.007382 145.863183 
L 105.095354 146.221809 
L 107.183326 146.376181 
L 109.271299 146.318646 
L 111.359271 146.044018 
L 113.447243 145.549669 
L 115.535215 144.835594 
L 117.623187 143.904441 
L 119.71116 142.761508 
L 122.321125 141.047331 
L 124.93109 139.035835 
L 127.541056 136.753945 
L 130.673014 133.704695 
L 134.326965 129.801775 
L 139.024903 124.4206 
L 148.942771 112.921111 
L 152.596722 109.060603 
L 155.728681 106.071298 
L 158.338646 103.86165 
L 160.948611 101.947906 
L 163.036583 100.651791 
L 165.124556 99.57963 
L 167.212528 98.742729 
L 169.3005 98.149691 
L 171.388472 97.806297 
L 173.476444 97.715417 
L 175.564417 97.876955 
L 177.652389 98.287834 
L 179.740361 98.942016 
L 181.828333 99.830551 
L 183.916306 100.941671 
L 186.526271 102.621302 
L 189.136236 104.592161 
L 192.268194 107.285807 
L 195.922146 110.782903 
L 200.620083 115.628153 
L 208.971972 124.285166 
L 212.625924 127.712392 
L 215.757882 130.318043 
L 218.367847 132.193449 
L 220.977812 133.755338 
L 223.065785 134.754721 
L 225.153757 135.514646 
L 227.241729 136.02216 
L 229.329701 136.267155 
L 231.417674 136.242497 
L 233.505646 135.944106 
L 235.593618 135.371012 
L 237.68159 134.525369 
L 239.769562 133.412427 
L 241.857535 132.040477 
L 243.945507 130.420756 
L 246.555472 128.069332 
L 249.165437 125.386112 
L 252.297396 121.783641 
L 255.429354 117.836999 
L 259.605299 112.188524 
L 273.699111 92.695885 
L 276.831069 88.865811 
L 279.963028 85.403709 
L 282.572993 82.850342 
L 285.182958 80.635282 
L 287.270931 79.125778 
L 289.358903 77.861949 
L 291.446875 76.852093 
L 293.534847 76.101539 
L 295.622819 75.612599 
L 297.710792 75.384558 
L 299.798764 75.413699 
L 301.886736 75.693364 
L 303.974708 76.214052 
L 306.062681 76.963544 
L 308.150653 77.927071 
L 310.760618 79.406157 
L 313.370583 81.154637 
L 316.502542 83.548189 
L 320.156493 86.645699 
L 325.898417 91.859492 
L 332.162333 97.46292 
L 335.816285 100.427021 
L 338.948243 102.671887 
L 341.558208 104.282244 
L 344.168174 105.620048 
L 346.256146 106.47517 
L 348.344118 107.12647 
L 350.43209 107.565058 
L 352.520062 107.784706 
L 354.608035 107.781903 
L 356.696007 107.555872 
L 358.783979 107.108542 
L 360.871951 106.444507 
L 362.959924 105.570934 
L 365.569889 104.19919 
L 368.179854 102.53909 
L 370.789819 100.619576 
L 373.921778 98.021059 
L 377.575729 94.665128 
L 382.273667 90.011776 
L 393.235521 79.023832 
L 396.889472 75.725639 
L 400.021431 73.17392 
L 403.153389 70.929914 
L 405.763354 69.324483 
L 408.373319 67.978704 
L 410.983285 66.904712 
L 413.59325 66.108961 
L 416.203215 65.592179 
L 418.813181 65.349463 
L 421.423146 65.370465 
L 424.033111 65.639708 
L 426.643076 66.136985 
L 429.253042 66.83787 
L 432.385 67.907954 
L 436.038951 69.403297 
L 441.258882 71.822343 
L 450.132764 75.963466 
L 453.786715 77.423961 
L 456.918674 78.471553 
L 460.050632 79.288648 
L 463.18259 79.844563 
L 465.792556 80.092792 
L 468.402521 80.137971 
L 471.012486 79.978248 
L 473.622451 79.616761 
L 476.232417 79.06152 
L 479.364375 78.157603 
L 482.496333 77.023149 
L 486.150285 75.459205 
L 490.848222 73.179463 
L 503.376056 66.90271 
L 507.030007 65.375134 
L 510.161965 64.282136 
L 513.293924 63.429322 
L 515.903889 62.924185 
L 518.513854 62.61982 
L 521.123819 62.524455 
L 523.733785 62.64151 
L 526.34375 62.969482 
L 526.865743 63.059907 
L 526.865743 63.059907 
" style="fill:none;stroke:#d62728;stroke-dasharray:3.7,1.6;stroke-dashoffset:0;stroke-opacity:0.5;"/>
   </g>
   <g id="line2d_28">
    <path clip-path="url(#pd2165c0e57)" d="M 56.55 118.974967 
L 526.34375 118.974967 
" style="fill:none;stroke:#000000;stroke-linecap:square;stroke-width:2;"/>
   </g>
   <g id="patch_64">
    <path d="M 56.55 153.61 
L 56.55 49.175 
" style="fill:none;stroke:#000000;stroke-linecap:square;stroke-linejoin:miter;stroke-width:0.8;"/>
   </g>
   <g id="patch_65">
    <path d="M 56.55 153.61 
L 526.34375 153.61 
" style="fill:none;stroke:#000000;stroke-linecap:square;stroke-linejoin:miter;stroke-width:0.8;"/>
   </g>
   <g id="text_15">
    <!-- Modulated Impulse Train $x(t) \cdot \sum_{n} \delta( t - n\cdot T_s) $ -->
    <g transform="translate(98.576875 37.115)scale(0.18 -0.18)">
     <defs>
      <path d="M 9.8125 72.90625 
L 24.515625 72.90625 
L 43.109375 23.296875 
L 61.8125 72.90625 
L 76.515625 72.90625 
L 76.515625 0 
L 66.890625 0 
L 66.890625 64.015625 
L 48.09375 14.015625 
L 38.1875 14.015625 
L 19.390625 64.015625 
L 19.390625 0 
L 9.8125 0 
z
" id="DejaVuSans-77"/>
      <path d="M 30.609375 48.390625 
Q 23.390625 48.390625 19.1875 42.75 
Q 14.984375 37.109375 14.984375 27.296875 
Q 14.984375 17.484375 19.15625 11.84375 
Q 23.34375 6.203125 30.609375 6.203125 
Q 37.796875 6.203125 41.984375 11.859375 
Q 46.1875 17.53125 46.1875 27.296875 
Q 46.1875 37.015625 41.984375 42.703125 
Q 37.796875 48.390625 30.609375 48.390625 
z
M 30.609375 56 
Q 42.328125 56 49.015625 48.375 
Q 55.71875 40.765625 55.71875 27.296875 
Q 55.71875 13.875 49.015625 6.21875 
Q 42.328125 -1.421875 30.609375 -1.421875 
Q 18.84375 -1.421875 12.171875 6.21875 
Q 5.515625 13.875 5.515625 27.296875 
Q 5.515625 40.765625 12.171875 48.375 
Q 18.84375 56 30.609375 56 
z
" id="DejaVuSans-111"/>
      <path d="M 45.40625 46.390625 
L 45.40625 75.984375 
L 54.390625 75.984375 
L 54.390625 0 
L 45.40625 0 
L 45.40625 8.203125 
Q 42.578125 3.328125 38.25 0.953125 
Q 33.9375 -1.421875 27.875 -1.421875 
Q 17.96875 -1.421875 11.734375 6.484375 
Q 5.515625 14.40625 5.515625 27.296875 
Q 5.515625 40.1875 11.734375 48.09375 
Q 17.96875 56 27.875 56 
Q 33.9375 56 38.25 53.625 
Q 42.578125 51.265625 45.40625 46.390625 
z
M 14.796875 27.296875 
Q 14.796875 17.390625 18.875 11.75 
Q 22.953125 6.109375 30.078125 6.109375 
Q 37.203125 6.109375 41.296875 11.75 
Q 45.40625 17.390625 45.40625 27.296875 
Q 45.40625 37.203125 41.296875 42.84375 
Q 37.203125 48.484375 30.078125 48.484375 
Q 22.953125 48.484375 18.875 42.84375 
Q 14.796875 37.203125 14.796875 27.296875 
z
" id="DejaVuSans-100"/>
      <path d="M 8.5 21.578125 
L 8.5 54.6875 
L 17.484375 54.6875 
L 17.484375 21.921875 
Q 17.484375 14.15625 20.5 10.265625 
Q 23.53125 6.390625 29.59375 6.390625 
Q 36.859375 6.390625 41.078125 11.03125 
Q 45.3125 15.671875 45.3125 23.6875 
L 45.3125 54.6875 
L 54.296875 54.6875 
L 54.296875 0 
L 45.3125 0 
L 45.3125 8.40625 
Q 42.046875 3.421875 37.71875 1 
Q 33.40625 -1.421875 27.6875 -1.421875 
Q 18.265625 -1.421875 13.375 4.4375 
Q 8.5 10.296875 8.5 21.578125 
z
M 31.109375 56 
z
" id="DejaVuSans-117"/>
      <path d="M 9.421875 75.984375 
L 18.40625 75.984375 
L 18.40625 0 
L 9.421875 0 
z
" id="DejaVuSans-108"/>
      <path d="M 34.28125 27.484375 
Q 23.390625 27.484375 19.1875 25 
Q 14.984375 22.515625 14.984375 16.5 
Q 14.984375 11.71875 18.140625 8.90625 
Q 21.296875 6.109375 26.703125 6.109375 
Q 34.1875 6.109375 38.703125 11.40625 
Q 43.21875 16.703125 43.21875 25.484375 
L 43.21875 27.484375 
z
M 52.203125 31.203125 
L 52.203125 0 
L 43.21875 0 
L 43.21875 8.296875 
Q 40.140625 3.328125 35.546875 0.953125 
Q 30.953125 -1.421875 24.3125 -1.421875 
Q 15.921875 -1.421875 10.953125 3.296875 
Q 6 8.015625 6 15.921875 
Q 6 25.140625 12.171875 29.828125 
Q 18.359375 34.515625 30.609375 34.515625 
L 43.21875 34.515625 
L 43.21875 35.40625 
Q 43.21875 41.609375 39.140625 45 
Q 35.0625 48.390625 27.6875 48.390625 
Q 23 48.390625 18.546875 47.265625 
Q 14.109375 46.140625 10.015625 43.890625 
L 10.015625 52.203125 
Q 14.9375 54.109375 19.578125 55.046875 
Q 24.21875 56 28.609375 56 
Q 40.484375 56 46.34375 49.84375 
Q 52.203125 43.703125 52.203125 31.203125 
z
" id="DejaVuSans-97"/>
      <path d="M 18.3125 70.21875 
L 18.3125 54.6875 
L 36.8125 54.6875 
L 36.8125 47.703125 
L 18.3125 47.703125 
L 18.3125 18.015625 
Q 18.3125 11.328125 20.140625 9.421875 
Q 21.96875 7.515625 27.59375 7.515625 
L 36.8125 7.515625 
L 36.8125 0 
L 27.59375 0 
Q 17.1875 0 13.234375 3.875 
Q 9.28125 7.765625 9.28125 18.015625 
L 9.28125 47.703125 
L 2.6875 47.703125 
L 2.6875 54.6875 
L 9.28125 54.6875 
L 9.28125 70.21875 
z
" id="DejaVuSans-116"/>
      <path d="M 9.8125 72.90625 
L 19.671875 72.90625 
L 19.671875 0 
L 9.8125 0 
z
" id="DejaVuSans-73"/>
      <path d="M 18.109375 8.203125 
L 18.109375 -20.796875 
L 9.078125 -20.796875 
L 9.078125 54.6875 
L 18.109375 54.6875 
L 18.109375 46.390625 
Q 20.953125 51.265625 25.265625 53.625 
Q 29.59375 56 35.59375 56 
Q 45.5625 56 51.78125 48.09375 
Q 58.015625 40.1875 58.015625 27.296875 
Q 58.015625 14.40625 51.78125 6.484375 
Q 45.5625 -1.421875 35.59375 -1.421875 
Q 29.59375 -1.421875 25.265625 0.953125 
Q 20.953125 3.328125 18.109375 8.203125 
z
M 48.6875 27.296875 
Q 48.6875 37.203125 44.609375 42.84375 
Q 40.53125 48.484375 33.40625 48.484375 
Q 26.265625 48.484375 22.1875 42.84375 
Q 18.109375 37.203125 18.109375 27.296875 
Q 18.109375 17.390625 22.1875 11.75 
Q 26.265625 6.109375 33.40625 6.109375 
Q 40.53125 6.109375 44.609375 11.75 
Q 48.6875 17.390625 48.6875 27.296875 
z
" id="DejaVuSans-112"/>
      <path d="M 41.109375 46.296875 
Q 39.59375 47.171875 37.8125 47.578125 
Q 36.03125 48 33.890625 48 
Q 26.265625 48 22.1875 43.046875 
Q 18.109375 38.09375 18.109375 28.8125 
L 18.109375 0 
L 9.078125 0 
L 9.078125 54.6875 
L 18.109375 54.6875 
L 18.109375 46.1875 
Q 20.953125 51.171875 25.484375 53.578125 
Q 30.03125 56 36.53125 56 
Q 37.453125 56 38.578125 55.875 
Q 39.703125 55.765625 41.0625 55.515625 
z
" id="DejaVuSans-114"/>
      <path d="M 54.890625 33.015625 
L 54.890625 0 
L 45.90625 0 
L 45.90625 32.71875 
Q 45.90625 40.484375 42.875 44.328125 
Q 39.84375 48.1875 33.796875 48.1875 
Q 26.515625 48.1875 22.3125 43.546875 
Q 18.109375 38.921875 18.109375 30.90625 
L 18.109375 0 
L 9.078125 0 
L 9.078125 54.6875 
L 18.109375 54.6875 
L 18.109375 46.1875 
Q 21.34375 51.125 25.703125 53.5625 
Q 30.078125 56 35.796875 56 
Q 45.21875 56 50.046875 50.171875 
Q 54.890625 44.34375 54.890625 33.015625 
z
" id="DejaVuSans-110"/>
      <path d="M 60.015625 54.6875 
L 34.90625 27.875 
L 50.296875 0 
L 39.984375 0 
L 28.421875 21.6875 
L 8.296875 0 
L -2.59375 0 
L 24.3125 28.8125 
L 10.015625 54.6875 
L 20.3125 54.6875 
L 30.8125 34.90625 
L 49.125 54.6875 
z
" id="DejaVuSans-Oblique-120"/>
      <path d="M 42.28125 54.6875 
L 40.921875 47.703125 
L 23 47.703125 
L 17.1875 18.015625 
Q 16.890625 16.359375 16.75 15.234375 
Q 16.609375 14.109375 16.609375 13.484375 
Q 16.609375 10.359375 18.484375 8.9375 
Q 20.359375 7.515625 24.515625 7.515625 
L 33.59375 7.515625 
L 32.078125 0 
L 23.484375 0 
Q 15.484375 0 11.546875 3.125 
Q 7.625 6.25 7.625 12.59375 
Q 7.625 13.71875 7.765625 15.0625 
Q 7.90625 16.40625 8.203125 18.015625 
L 14.015625 47.703125 
L 6.390625 47.703125 
L 7.8125 54.6875 
L 15.28125 54.6875 
L 18.3125 70.21875 
L 27.296875 70.21875 
L 24.3125 54.6875 
z
" id="DejaVuSans-Oblique-116"/>
      <path d="M 10.6875 40.921875 
L 21 40.921875 
L 21 28.515625 
L 10.6875 28.515625 
z
" id="DejaVuSans-8901"/>
      <path d="M 3.8125 101.703125 
L 90.671875 101.703125 
L 90.671875 88.375 
L 24.46875 88.375 
L 70.84375 38.875 
L 22.953125 -13.875 
L 92.484375 -13.875 
L 92.484375 -27.15625 
L 1.703125 -27.15625 
L 1.703125 -16.84375 
L 51.8125 38.484375 
L 3.8125 89.5 
z
" id="DejaVuSansDisplay-8721"/>
      <path d="M 55.71875 33.015625 
L 49.3125 0 
L 40.28125 0 
L 46.6875 32.671875 
Q 47.125 34.96875 47.359375 36.71875 
Q 47.609375 38.484375 47.609375 39.5 
Q 47.609375 43.609375 45.015625 45.890625 
Q 42.4375 48.1875 37.796875 48.1875 
Q 30.5625 48.1875 25.34375 43.375 
Q 20.125 38.578125 18.5 30.328125 
L 12.5 0 
L 3.515625 0 
L 14.109375 54.6875 
L 23.09375 54.6875 
L 21.296875 46.09375 
Q 25.046875 50.828125 30.3125 53.40625 
Q 35.59375 56 41.40625 56 
Q 48.640625 56 52.609375 52.09375 
Q 56.59375 48.1875 56.59375 41.109375 
Q 56.59375 39.359375 56.375 37.359375 
Q 56.15625 35.359375 55.71875 33.015625 
z
" id="DejaVuSans-Oblique-110"/>
      <path d="M 54.25 63.328125 
Q 49.953125 66.75 38.28125 66.75 
Q 25.921875 66.75 24.8125 61.03125 
Q 23.921875 56.546875 36.375 54.203125 
Q 46.140625 52.390625 50.828125 46.921875 
Q 56.5 40.328125 53.859375 26.8125 
Q 51.3125 13.875 43.171875 6.25 
Q 34.96875 -1.421875 23.25 -1.421875 
Q 11.578125 -1.421875 6.34375 6.25 
Q 1.125 13.875 3.765625 27.296875 
Q 5.671875 37.25 13.921875 45.3125 
Q 17.140625 48.4375 21.140625 50.203125 
Q 14.265625 54.046875 15.625 60.9375 
Q 18.21875 74.21875 39.75 74.21875 
Q 50.53125 74.21875 55.71875 70.796875 
z
M 27.390625 47.75 
Q 23.828125 46.34375 20.40625 42.78125 
Q 15.140625 37.25 13.234375 27.296875 
Q 11.28125 17.390625 14.359375 11.8125 
Q 17.484375 6.203125 24.75 6.203125 
Q 31.9375 6.203125 37.203125 11.859375 
Q 42.53125 17.53125 44.34375 26.8125 
Q 46.1875 36.53125 42.671875 41.21875 
Q 38.921875 46.234375 32.859375 46.78125 
Q 29.78125 47.078125 27.390625 47.75 
z
" id="DejaVuSans-Oblique-948"/>
      <path d="M 5.90625 72.90625 
L 67.578125 72.90625 
L 66.015625 64.59375 
L 39.984375 64.59375 
L 27.484375 0 
L 17.578125 0 
L 30.078125 64.59375 
L 4.296875 64.59375 
z
" id="DejaVuSans-Oblique-84"/>
      <path d="M 50 53.078125 
L 48.296875 44.578125 
Q 44.734375 46.53125 40.765625 47.5 
Q 36.8125 48.484375 32.625 48.484375 
Q 25.53125 48.484375 21.453125 46.0625 
Q 17.390625 43.65625 17.390625 39.5 
Q 17.390625 34.671875 26.859375 32.078125 
Q 27.59375 31.890625 27.9375 31.78125 
L 30.8125 30.90625 
Q 39.796875 28.421875 42.796875 25.6875 
Q 45.796875 22.953125 45.796875 18.21875 
Q 45.796875 9.515625 38.890625 4.046875 
Q 31.984375 -1.421875 20.796875 -1.421875 
Q 16.453125 -1.421875 11.671875 -0.578125 
Q 6.890625 0.25 1.125 2 
L 2.875 11.28125 
Q 7.8125 8.734375 12.59375 7.421875 
Q 17.390625 6.109375 21.78125 6.109375 
Q 28.375 6.109375 32.5 8.9375 
Q 36.625 11.765625 36.625 16.109375 
Q 36.625 20.796875 25.78125 23.6875 
L 24.859375 23.921875 
L 21.78125 24.703125 
Q 14.9375 26.515625 11.765625 29.46875 
Q 8.59375 32.421875 8.59375 37.015625 
Q 8.59375 45.75 15.15625 50.875 
Q 21.734375 56 33.015625 56 
Q 37.453125 56 41.671875 55.265625 
Q 45.90625 54.546875 50 53.078125 
z
" id="DejaVuSans-Oblique-115"/>
     </defs>
     <use transform="translate(0 0.546875)" xlink:href="#DejaVuSans-77"/>
     <use transform="translate(86.279297 0.546875)" xlink:href="#DejaVuSans-111"/>
     <use transform="translate(147.460938 0.546875)" xlink:href="#DejaVuSans-100"/>
     <use transform="translate(210.9375 0.546875)" xlink:href="#DejaVuSans-117"/>
     <use transform="translate(274.316406 0.546875)" xlink:href="#DejaVuSans-108"/>
     <use transform="translate(302.099609 0.546875)" xlink:href="#DejaVuSans-97"/>
     <use transform="translate(363.378906 0.546875)" xlink:href="#DejaVuSans-116"/>
     <use transform="translate(402.587891 0.546875)" xlink:href="#DejaVuSans-101"/>
     <use transform="translate(464.111328 0.546875)" xlink:href="#DejaVuSans-100"/>
     <use transform="translate(527.587891 0.546875)" xlink:href="#DejaVuSans-32"/>
     <use transform="translate(559.375 0.546875)" xlink:href="#DejaVuSans-73"/>
     <use transform="translate(585.242188 0.546875)" xlink:href="#DejaVuSans-109"/>
     <use transform="translate(682.654297 0.546875)" xlink:href="#DejaVuSans-112"/>
     <use transform="translate(746.130859 0.546875)" xlink:href="#DejaVuSans-117"/>
     <use transform="translate(809.509766 0.546875)" xlink:href="#DejaVuSans-108"/>
     <use transform="translate(837.292969 0.546875)" xlink:href="#DejaVuSans-115"/>
     <use transform="translate(889.392578 0.546875)" xlink:href="#DejaVuSans-101"/>
     <use transform="translate(950.916016 0.546875)" xlink:href="#DejaVuSans-32"/>
     <use transform="translate(982.703125 0.546875)" xlink:href="#DejaVuSans-84"/>
     <use transform="translate(1043.787109 0.546875)" xlink:href="#DejaVuSans-114"/>
     <use transform="translate(1084.900391 0.546875)" xlink:href="#DejaVuSans-97"/>
     <use transform="translate(1146.179688 0.546875)" xlink:href="#DejaVuSans-105"/>
     <use transform="translate(1173.962891 0.546875)" xlink:href="#DejaVuSans-110"/>
     <use transform="translate(1237.341797 0.546875)" xlink:href="#DejaVuSans-32"/>
     <use transform="translate(1269.128906 0.546875)" xlink:href="#DejaVuSans-Oblique-120"/>
     <use transform="translate(1328.308594 0.546875)" xlink:href="#DejaVuSans-40"/>
     <use transform="translate(1367.322266 0.546875)" xlink:href="#DejaVuSans-Oblique-116"/>
     <use transform="translate(1406.53125 0.546875)" xlink:href="#DejaVuSans-41"/>
     <use transform="translate(1465.027344 0.546875)" xlink:href="#DejaVuSans-8901"/>
     <use transform="translate(1516.296875 19.296875)" xlink:href="#DejaVuSansDisplay-8721"/>
     <use transform="translate(1539.296875 -65.809375)scale(0.7)" xlink:href="#DejaVuSans-Oblique-110"/>
     <use transform="translate(1607.0625 0.546875)" xlink:href="#DejaVuSans-Oblique-948"/>
     <use transform="translate(1668.244141 0.546875)" xlink:href="#DejaVuSans-40"/>
     <use transform="translate(1707.257812 0.546875)" xlink:href="#DejaVuSans-Oblique-116"/>
     <use transform="translate(1765.949219 0.546875)" xlink:href="#DejaVuSans-8722"/>
     <use transform="translate(1869.220703 0.546875)" xlink:href="#DejaVuSans-Oblique-110"/>
     <use transform="translate(1952.082031 0.546875)" xlink:href="#DejaVuSans-8901"/>
     <use transform="translate(2003.351562 0.546875)" xlink:href="#DejaVuSans-Oblique-84"/>
     <use transform="translate(2064.435547 -15.859375)scale(0.7)" xlink:href="#DejaVuSans-Oblique-115"/>
     <use transform="translate(2103.639648 0.546875)" xlink:href="#DejaVuSans-41"/>
    </g>
   </g>
  </g>
  <g id="axes_2">
   <g id="patch_66">
    <path d="M 658.71875 153.61 
L 1128.5125 153.61 
L 1128.5125 49.175 
L 658.71875 49.175 
z
" style="fill:#ffffff;"/>
   </g>
   <g id="matplotlib.axis_3">
    <g id="xtick_10">
     <g id="line2d_29">
      <path clip-path="url(#pbb1852f301)" d="M 658.71875 153.61 
L 658.71875 49.175 
" style="fill:none;stroke:#cccccc;stroke-dasharray:1.85,0.8;stroke-dashoffset:0;stroke-width:0.5;"/>
     </g>
     <g id="line2d_30">
      <g>
       <use style="stroke:#000000;stroke-width:0.8;" x="658.71875" xlink:href="#mdbcf2a6efd" y="153.61"/>
      </g>
     </g>
     <g id="text_16">
      <!-- −2.0 -->
      <g transform="translate(639.2925 172.7675)scale(0.16 -0.16)">
       <defs>
        <path d="M 10.6875 12.40625 
L 21 12.40625 
L 21 0 
L 10.6875 0 
z
" id="DejaVuSans-46"/>
       </defs>
       <use xlink:href="#DejaVuSans-8722"/>
       <use x="83.789062" xlink:href="#DejaVuSans-50"/>
       <use x="147.412109" xlink:href="#DejaVuSans-46"/>
       <use x="179.199219" xlink:href="#DejaVuSans-48"/>
      </g>
     </g>
    </g>
    <g id="xtick_11">
     <g id="line2d_31">
      <path clip-path="url(#pbb1852f301)" d="M 717.442969 153.61 
L 717.442969 49.175 
" style="fill:none;stroke:#cccccc;stroke-dasharray:1.85,0.8;stroke-dashoffset:0;stroke-width:0.5;"/>
     </g>
     <g id="line2d_32">
      <g>
       <use style="stroke:#000000;stroke-width:0.8;" x="717.442969" xlink:href="#mdbcf2a6efd" y="153.61"/>
      </g>
     </g>
     <g id="text_17">
      <!-- −1.5 -->
      <g transform="translate(698.016719 172.7675)scale(0.16 -0.16)">
       <defs>
        <path d="M 10.796875 72.90625 
L 49.515625 72.90625 
L 49.515625 64.59375 
L 19.828125 64.59375 
L 19.828125 46.734375 
Q 21.96875 47.46875 24.109375 47.828125 
Q 26.265625 48.1875 28.421875 48.1875 
Q 40.625 48.1875 47.75 41.5 
Q 54.890625 34.8125 54.890625 23.390625 
Q 54.890625 11.625 47.5625 5.09375 
Q 40.234375 -1.421875 26.90625 -1.421875 
Q 22.3125 -1.421875 17.546875 -0.640625 
Q 12.796875 0.140625 7.71875 1.703125 
L 7.71875 11.625 
Q 12.109375 9.234375 16.796875 8.0625 
Q 21.484375 6.890625 26.703125 6.890625 
Q 35.15625 6.890625 40.078125 11.328125 
Q 45.015625 15.765625 45.015625 23.390625 
Q 45.015625 31 40.078125 35.4375 
Q 35.15625 39.890625 26.703125 39.890625 
Q 22.75 39.890625 18.8125 39.015625 
Q 14.890625 38.140625 10.796875 36.28125 
z
" id="DejaVuSans-53"/>
       </defs>
       <use xlink:href="#DejaVuSans-8722"/>
       <use x="83.789062" xlink:href="#DejaVuSans-49"/>
       <use x="147.412109" xlink:href="#DejaVuSans-46"/>
       <use x="179.199219" xlink:href="#DejaVuSans-53"/>
      </g>
     </g>
    </g>
    <g id="xtick_12">
     <g id="line2d_33">
      <path clip-path="url(#pbb1852f301)" d="M 776.167187 153.61 
L 776.167187 49.175 
" style="fill:none;stroke:#cccccc;stroke-dasharray:1.85,0.8;stroke-dashoffset:0;stroke-width:0.5;"/>
     </g>
     <g id="line2d_34">
      <g>
       <use style="stroke:#000000;stroke-width:0.8;" x="776.167187" xlink:href="#mdbcf2a6efd" y="153.61"/>
      </g>
     </g>
     <g id="text_18">
      <!-- −1.0 -->
      <g transform="translate(756.740937 172.7675)scale(0.16 -0.16)">
       <use xlink:href="#DejaVuSans-8722"/>
       <use x="83.789062" xlink:href="#DejaVuSans-49"/>
       <use x="147.412109" xlink:href="#DejaVuSans-46"/>
       <use x="179.199219" xlink:href="#DejaVuSans-48"/>
      </g>
     </g>
    </g>
    <g id="xtick_13">
     <g id="line2d_35">
      <path clip-path="url(#pbb1852f301)" d="M 834.891406 153.61 
L 834.891406 49.175 
" style="fill:none;stroke:#cccccc;stroke-dasharray:1.85,0.8;stroke-dashoffset:0;stroke-width:0.5;"/>
     </g>
     <g id="line2d_36">
      <g>
       <use style="stroke:#000000;stroke-width:0.8;" x="834.891406" xlink:href="#mdbcf2a6efd" y="153.61"/>
      </g>
     </g>
     <g id="text_19">
      <!-- −0.5 -->
      <g transform="translate(815.465156 172.7675)scale(0.16 -0.16)">
       <use xlink:href="#DejaVuSans-8722"/>
       <use x="83.789062" xlink:href="#DejaVuSans-48"/>
       <use x="147.412109" xlink:href="#DejaVuSans-46"/>
       <use x="179.199219" xlink:href="#DejaVuSans-53"/>
      </g>
     </g>
    </g>
    <g id="xtick_14">
     <g id="line2d_37">
      <path clip-path="url(#pbb1852f301)" d="M 893.615625 153.61 
L 893.615625 49.175 
" style="fill:none;stroke:#cccccc;stroke-dasharray:1.85,0.8;stroke-dashoffset:0;stroke-width:0.5;"/>
     </g>
     <g id="line2d_38">
      <g>
       <use style="stroke:#000000;stroke-width:0.8;" x="893.615625" xlink:href="#mdbcf2a6efd" y="153.61"/>
      </g>
     </g>
     <g id="text_20">
      <!-- 0.0 -->
      <g transform="translate(880.893125 172.7675)scale(0.16 -0.16)">
       <use xlink:href="#DejaVuSans-48"/>
       <use x="63.623047" xlink:href="#DejaVuSans-46"/>
       <use x="95.410156" xlink:href="#DejaVuSans-48"/>
      </g>
     </g>
    </g>
    <g id="xtick_15">
     <g id="line2d_39">
      <path clip-path="url(#pbb1852f301)" d="M 952.339844 153.61 
L 952.339844 49.175 
" style="fill:none;stroke:#cccccc;stroke-dasharray:1.85,0.8;stroke-dashoffset:0;stroke-width:0.5;"/>
     </g>
     <g id="line2d_40">
      <g>
       <use style="stroke:#000000;stroke-width:0.8;" x="952.339844" xlink:href="#mdbcf2a6efd" y="153.61"/>
      </g>
     </g>
     <g id="text_21">
      <!-- 0.5 -->
      <g transform="translate(939.617344 172.7675)scale(0.16 -0.16)">
       <use xlink:href="#DejaVuSans-48"/>
       <use x="63.623047" xlink:href="#DejaVuSans-46"/>
       <use x="95.410156" xlink:href="#DejaVuSans-53"/>
      </g>
     </g>
    </g>
    <g id="xtick_16">
     <g id="line2d_41">
      <path clip-path="url(#pbb1852f301)" d="M 1011.064062 153.61 
L 1011.064062 49.175 
" style="fill:none;stroke:#cccccc;stroke-dasharray:1.85,0.8;stroke-dashoffset:0;stroke-width:0.5;"/>
     </g>
     <g id="line2d_42">
      <g>
       <use style="stroke:#000000;stroke-width:0.8;" x="1011.064062" xlink:href="#mdbcf2a6efd" y="153.61"/>
      </g>
     </g>
     <g id="text_22">
      <!-- 1.0 -->
      <g transform="translate(998.341562 172.7675)scale(0.16 -0.16)">
       <use xlink:href="#DejaVuSans-49"/>
       <use x="63.623047" xlink:href="#DejaVuSans-46"/>
       <use x="95.410156" xlink:href="#DejaVuSans-48"/>
      </g>
     </g>
    </g>
    <g id="xtick_17">
     <g id="line2d_43">
      <path clip-path="url(#pbb1852f301)" d="M 1069.788281 153.61 
L 1069.788281 49.175 
" style="fill:none;stroke:#cccccc;stroke-dasharray:1.85,0.8;stroke-dashoffset:0;stroke-width:0.5;"/>
     </g>
     <g id="line2d_44">
      <g>
       <use style="stroke:#000000;stroke-width:0.8;" x="1069.788281" xlink:href="#mdbcf2a6efd" y="153.61"/>
      </g>
     </g>
     <g id="text_23">
      <!-- 1.5 -->
      <g transform="translate(1057.065781 172.7675)scale(0.16 -0.16)">
       <use xlink:href="#DejaVuSans-49"/>
       <use x="63.623047" xlink:href="#DejaVuSans-46"/>
       <use x="95.410156" xlink:href="#DejaVuSans-53"/>
      </g>
     </g>
    </g>
    <g id="xtick_18">
     <g id="line2d_45">
      <path clip-path="url(#pbb1852f301)" d="M 1128.5125 153.61 
L 1128.5125 49.175 
" style="fill:none;stroke:#cccccc;stroke-dasharray:1.85,0.8;stroke-dashoffset:0;stroke-width:0.5;"/>
     </g>
     <g id="line2d_46">
      <g>
       <use style="stroke:#000000;stroke-width:0.8;" x="1128.5125" xlink:href="#mdbcf2a6efd" y="153.61"/>
      </g>
     </g>
     <g id="text_24">
      <!-- 2.0 -->
      <g transform="translate(1115.79 172.7675)scale(0.16 -0.16)">
       <use xlink:href="#DejaVuSans-50"/>
       <use x="63.623047" xlink:href="#DejaVuSans-46"/>
       <use x="95.410156" xlink:href="#DejaVuSans-48"/>
      </g>
     </g>
    </g>
    <g id="text_25">
     <!-- $\frac{\omega}{2\pi T_s}$ (1/sec) -->
     <g transform="translate(849.935625 193.535)scale(0.16 -0.16)">
      <defs>
       <path d="M 21.390625 -1.421875 
Q 1.125 -1.421875 6.78125 27.59375 
Q 8.984375 39.0625 19.625 54.6875 
L 29.296875 54.6875 
Q 19.234375 39.0625 17 27.34375 
Q 12.796875 6.203125 23.734375 6.203125 
Q 33.84375 6.203125 38.71875 32.46875 
L 47.015625 32.46875 
Q 41.703125 6.0625 51.8125 6.203125 
Q 62.703125 6.296875 66.796875 27.34375 
Q 69.046875 39.0625 65.140625 54.6875 
L 74.8125 54.6875 
Q 79.296875 39.0625 77.09375 27.59375 
Q 71.53125 -1.46875 51.21875 -1.421875 
Q 37.9375 -1.375 39.109375 13.1875 
Q 34.28125 -1.421875 21.390625 -1.421875 
z
" id="DejaVuSans-Oblique-969"/>
       <path d="M 9.125 54.6875 
L 61.53125 54.6875 
L 59.765625 45.703125 
L 52.875 45.703125 
L 46.34375 12.109375 
Q 45.65625 8.59375 46.578125 7.03125 
Q 47.46875 5.515625 50.140625 5.515625 
Q 50.875 5.515625 51.953125 5.671875 
Q 53.078125 5.765625 53.421875 5.8125 
L 52.15625 -0.6875 
Q 50.34375 -1.3125 48.484375 -1.609375 
Q 46.578125 -1.90625 44.78125 -1.90625 
Q 38.921875 -1.90625 37.3125 1.265625 
Q 35.6875 4.5 37.359375 13.09375 
L 43.703125 45.703125 
L 23.53125 45.703125 
L 14.65625 0 
L 5.46875 0 
L 14.359375 45.703125 
L 7.375 45.703125 
z
" id="DejaVuSans-Oblique-960"/>
       <path d="M 25.390625 72.90625 
L 33.6875 72.90625 
L 8.296875 -9.28125 
L 0 -9.28125 
z
" id="DejaVuSans-47"/>
       <path d="M 48.78125 52.59375 
L 48.78125 44.1875 
Q 44.96875 46.296875 41.140625 47.34375 
Q 37.3125 48.390625 33.40625 48.390625 
Q 24.65625 48.390625 19.8125 42.84375 
Q 14.984375 37.3125 14.984375 27.296875 
Q 14.984375 17.28125 19.8125 11.734375 
Q 24.65625 6.203125 33.40625 6.203125 
Q 37.3125 6.203125 41.140625 7.25 
Q 44.96875 8.296875 48.78125 10.40625 
L 48.78125 2.09375 
Q 45.015625 0.34375 40.984375 -0.53125 
Q 36.96875 -1.421875 32.421875 -1.421875 
Q 20.0625 -1.421875 12.78125 6.34375 
Q 5.515625 14.109375 5.515625 27.296875 
Q 5.515625 40.671875 12.859375 48.328125 
Q 20.21875 56 33.015625 56 
Q 37.15625 56 41.109375 55.140625 
Q 45.0625 54.296875 48.78125 52.59375 
z
" id="DejaVuSans-99"/>
      </defs>
      <use transform="translate(49 45.71875)scale(0.7)" xlink:href="#DejaVuSans-Oblique-969"/>
      <use transform="translate(0 -38.5125)scale(0.7)" xlink:href="#DejaVuSans-50"/>
      <use transform="translate(44.536133 -38.5125)scale(0.7)" xlink:href="#DejaVuSans-Oblique-960"/>
      <use transform="translate(86.679688 -38.5125)scale(0.7)" xlink:href="#DejaVuSans-Oblique-84"/>
      <use transform="translate(129.438477 -49.996875)scale(0.49)" xlink:href="#DejaVuSans-Oblique-115"/>
      <use transform="translate(169.381348 0.89375)" xlink:href="#DejaVuSans-32"/>
      <use transform="translate(201.168457 0.89375)" xlink:href="#DejaVuSans-40"/>
      <use transform="translate(240.182129 0.89375)" xlink:href="#DejaVuSans-49"/>
      <use transform="translate(303.805176 0.89375)" xlink:href="#DejaVuSans-47"/>
      <use transform="translate(337.496582 0.89375)" xlink:href="#DejaVuSans-115"/>
      <use transform="translate(389.596191 0.89375)" xlink:href="#DejaVuSans-101"/>
      <use transform="translate(451.119629 0.89375)" xlink:href="#DejaVuSans-99"/>
      <use transform="translate(506.100098 0.89375)" xlink:href="#DejaVuSans-41"/>
      <path d="M 0 19.690625 
L 0 25.940625 
L 156.881348 25.940625 
L 156.881348 19.690625 
L 0 19.690625 
z
"/>
     </g>
    </g>
   </g>
   <g id="matplotlib.axis_4">
    <g id="ytick_5">
     <g id="line2d_47">
      <path clip-path="url(#pbb1852f301)" d="M 658.71875 148.862955 
L 1128.5125 148.862955 
" style="fill:none;stroke:#cccccc;stroke-dasharray:1.85,0.8;stroke-dashoffset:0;stroke-width:0.5;"/>
     </g>
     <g id="line2d_48">
      <g>
       <use style="stroke:#000000;stroke-width:0.8;" x="658.71875" xlink:href="#mfc30caf1fb" y="148.862955"/>
      </g>
     </g>
     <g id="text_26">
      <!-- 0.00 -->
      <g transform="translate(616.09375 154.941705)scale(0.16 -0.16)">
       <use xlink:href="#DejaVuSans-48"/>
       <use x="63.623047" xlink:href="#DejaVuSans-46"/>
       <use x="95.410156" xlink:href="#DejaVuSans-48"/>
       <use x="159.033203" xlink:href="#DejaVuSans-48"/>
      </g>
     </g>
    </g>
    <g id="ytick_6">
     <g id="line2d_49">
      <path clip-path="url(#pbb1852f301)" d="M 658.71875 125.127727 
L 1128.5125 125.127727 
" style="fill:none;stroke:#cccccc;stroke-dasharray:1.85,0.8;stroke-dashoffset:0;stroke-width:0.5;"/>
     </g>
     <g id="line2d_50">
      <g>
       <use style="stroke:#000000;stroke-width:0.8;" x="658.71875" xlink:href="#mfc30caf1fb" y="125.127727"/>
      </g>
     </g>
     <g id="text_27">
      <!-- 0.25 -->
      <g transform="translate(616.09375 131.206477)scale(0.16 -0.16)">
       <use xlink:href="#DejaVuSans-48"/>
       <use x="63.623047" xlink:href="#DejaVuSans-46"/>
       <use x="95.410156" xlink:href="#DejaVuSans-50"/>
       <use x="159.033203" xlink:href="#DejaVuSans-53"/>
      </g>
     </g>
    </g>
    <g id="ytick_7">
     <g id="line2d_51">
      <path clip-path="url(#pbb1852f301)" d="M 658.71875 101.3925 
L 1128.5125 101.3925 
" style="fill:none;stroke:#cccccc;stroke-dasharray:1.85,0.8;stroke-dashoffset:0;stroke-width:0.5;"/>
     </g>
     <g id="line2d_52">
      <g>
       <use style="stroke:#000000;stroke-width:0.8;" x="658.71875" xlink:href="#mfc30caf1fb" y="101.3925"/>
      </g>
     </g>
     <g id="text_28">
      <!-- 0.50 -->
      <g transform="translate(616.09375 107.47125)scale(0.16 -0.16)">
       <use xlink:href="#DejaVuSans-48"/>
       <use x="63.623047" xlink:href="#DejaVuSans-46"/>
       <use x="95.410156" xlink:href="#DejaVuSans-53"/>
       <use x="159.033203" xlink:href="#DejaVuSans-48"/>
      </g>
     </g>
    </g>
    <g id="ytick_8">
     <g id="line2d_53">
      <path clip-path="url(#pbb1852f301)" d="M 658.71875 77.657273 
L 1128.5125 77.657273 
" style="fill:none;stroke:#cccccc;stroke-dasharray:1.85,0.8;stroke-dashoffset:0;stroke-width:0.5;"/>
     </g>
     <g id="line2d_54">
      <g>
       <use style="stroke:#000000;stroke-width:0.8;" x="658.71875" xlink:href="#mfc30caf1fb" y="77.657273"/>
      </g>
     </g>
     <g id="text_29">
      <!-- 0.75 -->
      <g transform="translate(616.09375 83.736023)scale(0.16 -0.16)">
       <defs>
        <path d="M 8.203125 72.90625 
L 55.078125 72.90625 
L 55.078125 68.703125 
L 28.609375 0 
L 18.3125 0 
L 43.21875 64.59375 
L 8.203125 64.59375 
z
" id="DejaVuSans-55"/>
       </defs>
       <use xlink:href="#DejaVuSans-48"/>
       <use x="63.623047" xlink:href="#DejaVuSans-46"/>
       <use x="95.410156" xlink:href="#DejaVuSans-55"/>
       <use x="159.033203" xlink:href="#DejaVuSans-53"/>
      </g>
     </g>
    </g>
    <g id="ytick_9">
     <g id="line2d_55">
      <path clip-path="url(#pbb1852f301)" d="M 658.71875 53.922045 
L 1128.5125 53.922045 
" style="fill:none;stroke:#cccccc;stroke-dasharray:1.85,0.8;stroke-dashoffset:0;stroke-width:0.5;"/>
     </g>
     <g id="line2d_56">
      <g>
       <use style="stroke:#000000;stroke-width:0.8;" x="658.71875" xlink:href="#mfc30caf1fb" y="53.922045"/>
      </g>
     </g>
     <g id="text_30">
      <!-- 1.00 -->
      <g transform="translate(616.09375 60.000795)scale(0.16 -0.16)">
       <use xlink:href="#DejaVuSans-49"/>
       <use x="63.623047" xlink:href="#DejaVuSans-46"/>
       <use x="95.410156" xlink:href="#DejaVuSans-48"/>
       <use x="159.033203" xlink:href="#DejaVuSans-48"/>
      </g>
     </g>
    </g>
   </g>
   <g id="line2d_57">
    <path clip-path="url(#pbb1852f301)" d="M 658.71875 148.862955 
L 1129.686984 148.862955 
L 1129.686984 148.862955 
" style="fill:none;stroke:#d62728;stroke-linecap:square;stroke-opacity:0.4;"/>
   </g>
   <g id="line2d_58">
    <path clip-path="url(#pbb1852f301)" d="M 658.71875 148.862955 
L 1129.686984 148.862955 
L 1129.686984 148.862955 
" style="fill:none;stroke:#d62728;stroke-linecap:square;stroke-opacity:0.4;"/>
   </g>
   <g id="line2d_59">
    <path clip-path="url(#pbb1852f301)" d="M 658.71875 148.862955 
L 1129.686984 148.862955 
L 1129.686984 148.862955 
" style="fill:none;stroke:#d62728;stroke-linecap:square;stroke-opacity:0.4;"/>
   </g>
   <g id="line2d_60">
    <path clip-path="url(#pbb1852f301)" d="M 658.71875 148.862955 
L 1129.686984 148.862955 
L 1129.686984 148.862955 
" style="fill:none;stroke:#d62728;stroke-linecap:square;stroke-opacity:0.4;"/>
   </g>
   <g id="line2d_61">
    <path clip-path="url(#pbb1852f301)" d="M 658.71875 148.862955 
L 1129.686984 148.862955 
L 1129.686984 148.862955 
" style="fill:none;stroke:#d62728;stroke-linecap:square;stroke-opacity:0.4;"/>
   </g>
   <g id="line2d_62">
    <path clip-path="url(#pbb1852f301)" d="M 658.71875 148.862955 
L 1129.686984 148.862955 
L 1129.686984 148.862955 
" style="fill:none;stroke:#d62728;stroke-linecap:square;stroke-opacity:0.4;"/>
   </g>
   <g id="line2d_63">
    <path clip-path="url(#pbb1852f301)" d="M 658.71875 148.862955 
L 1129.686984 148.862955 
L 1129.686984 148.862955 
" style="fill:none;stroke:#d62728;stroke-linecap:square;stroke-opacity:0.4;"/>
   </g>
   <g id="line2d_64">
    <path clip-path="url(#pbb1852f301)" d="M 658.71875 148.862955 
L 1129.686984 148.862955 
L 1129.686984 148.862955 
" style="fill:none;stroke:#d62728;stroke-linecap:square;stroke-opacity:0.4;"/>
   </g>
   <g id="line2d_65">
    <path clip-path="url(#pbb1852f301)" d="M 658.71875 148.862955 
L 1129.686984 148.862955 
L 1129.686984 148.862955 
" style="fill:none;stroke:#d62728;stroke-linecap:square;stroke-opacity:0.4;"/>
   </g>
   <g id="line2d_66">
    <path clip-path="url(#pbb1852f301)" d="M 658.71875 148.862955 
L 1129.686984 148.862955 
L 1129.686984 148.862955 
" style="fill:none;stroke:#d62728;stroke-linecap:square;stroke-opacity:0.4;"/>
   </g>
   <g id="line2d_67">
    <path clip-path="url(#pbb1852f301)" d="M 658.71875 148.862955 
L 1129.686984 148.862955 
L 1129.686984 148.862955 
" style="fill:none;stroke:#d62728;stroke-linecap:square;stroke-opacity:0.4;"/>
   </g>
   <g id="line2d_68">
    <path clip-path="url(#pbb1852f301)" d="M 658.71875 148.862955 
L 1129.686984 148.862955 
L 1129.686984 148.862955 
" style="fill:none;stroke:#d62728;stroke-linecap:square;stroke-opacity:0.4;"/>
   </g>
   <g id="line2d_69">
    <path clip-path="url(#pbb1852f301)" d="M 658.71875 148.862955 
L 1129.686984 148.862955 
L 1129.686984 148.862955 
" style="fill:none;stroke:#d62728;stroke-linecap:square;stroke-opacity:0.4;"/>
   </g>
   <g id="line2d_70">
    <path clip-path="url(#pbb1852f301)" d="M 658.71875 148.862955 
L 1129.686984 148.862955 
L 1129.686984 148.862955 
" style="fill:none;stroke:#d62728;stroke-linecap:square;stroke-opacity:0.4;"/>
   </g>
   <g id="line2d_71">
    <path clip-path="url(#pbb1852f301)" d="M 658.71875 148.862955 
L 1129.686984 148.862955 
L 1129.686984 148.862955 
" style="fill:none;stroke:#d62728;stroke-linecap:square;stroke-opacity:0.4;"/>
   </g>
   <g id="line2d_72">
    <path clip-path="url(#pbb1852f301)" d="M 658.71875 148.862955 
L 1129.686984 148.862955 
L 1129.686984 148.862955 
" style="fill:none;stroke:#d62728;stroke-linecap:square;stroke-opacity:0.4;"/>
   </g>
   <g id="line2d_73">
    <path clip-path="url(#pbb1852f301)" d="M 658.71875 148.862955 
L 1129.686984 148.862955 
L 1129.686984 148.862955 
" style="fill:none;stroke:#d62728;stroke-linecap:square;stroke-opacity:0.4;"/>
   </g>
   <g id="line2d_74">
    <path clip-path="url(#pbb1852f301)" d="M 658.71875 148.862955 
L 1129.686984 148.862955 
L 1129.686984 148.862955 
" style="fill:none;stroke:#d62728;stroke-linecap:square;stroke-opacity:0.4;"/>
   </g>
   <g id="line2d_75">
    <path clip-path="url(#pbb1852f301)" d="M 658.71875 148.862955 
L 1129.686984 148.862955 
L 1129.686984 148.862955 
" style="fill:none;stroke:#d62728;stroke-linecap:square;stroke-opacity:0.4;"/>
   </g>
   <g id="line2d_76">
    <path clip-path="url(#pbb1852f301)" d="M 658.71875 53.922045 
L 688.080859 148.862955 
L 1129.686984 148.862955 
L 1129.686984 148.862955 
" style="fill:none;stroke:#d62728;stroke-linecap:square;stroke-opacity:0.4;"/>
   </g>
   <g id="line2d_77">
    <path clip-path="url(#pbb1852f301)" d="M 658.71875 148.862955 
L 864.253516 148.862955 
L 893.615625 53.922045 
L 922.977734 148.862955 
L 1129.686984 148.862955 
L 1129.686984 148.862955 
" style="fill:none;stroke:#d62728;stroke-linecap:square;stroke-opacity:0.4;"/>
   </g>
   <g id="line2d_78">
    <path clip-path="url(#pbb1852f301)" d="M 658.71875 148.862955 
L 1099.150391 148.862955 
L 1128.5125 53.922045 
L 1129.686984 57.719682 
L 1129.686984 57.719682 
" style="fill:none;stroke:#d62728;stroke-linecap:square;stroke-opacity:0.4;"/>
   </g>
   <g id="line2d_79">
    <path clip-path="url(#pbb1852f301)" d="M 658.71875 148.862955 
L 1129.686984 148.862955 
L 1129.686984 148.862955 
" style="fill:none;stroke:#d62728;stroke-linecap:square;stroke-opacity:0.4;"/>
   </g>
   <g id="line2d_80">
    <path clip-path="url(#pbb1852f301)" d="M 658.71875 148.862955 
L 1129.686984 148.862955 
L 1129.686984 148.862955 
" style="fill:none;stroke:#d62728;stroke-linecap:square;stroke-opacity:0.4;"/>
   </g>
   <g id="line2d_81">
    <path clip-path="url(#pbb1852f301)" d="M 658.71875 148.862955 
L 1129.686984 148.862955 
L 1129.686984 148.862955 
" style="fill:none;stroke:#d62728;stroke-linecap:square;stroke-opacity:0.4;"/>
   </g>
   <g id="line2d_82">
    <path clip-path="url(#pbb1852f301)" d="M 658.71875 148.862955 
L 1129.686984 148.862955 
L 1129.686984 148.862955 
" style="fill:none;stroke:#d62728;stroke-linecap:square;stroke-opacity:0.4;"/>
   </g>
   <g id="line2d_83">
    <path clip-path="url(#pbb1852f301)" d="M 658.71875 148.862955 
L 1129.686984 148.862955 
L 1129.686984 148.862955 
" style="fill:none;stroke:#d62728;stroke-linecap:square;stroke-opacity:0.4;"/>
   </g>
   <g id="line2d_84">
    <path clip-path="url(#pbb1852f301)" d="M 658.71875 148.862955 
L 1129.686984 148.862955 
L 1129.686984 148.862955 
" style="fill:none;stroke:#d62728;stroke-linecap:square;stroke-opacity:0.4;"/>
   </g>
   <g id="line2d_85">
    <path clip-path="url(#pbb1852f301)" d="M 658.71875 148.862955 
L 1129.686984 148.862955 
L 1129.686984 148.862955 
" style="fill:none;stroke:#d62728;stroke-linecap:square;stroke-opacity:0.4;"/>
   </g>
   <g id="line2d_86">
    <path clip-path="url(#pbb1852f301)" d="M 658.71875 148.862955 
L 1129.686984 148.862955 
L 1129.686984 148.862955 
" style="fill:none;stroke:#d62728;stroke-linecap:square;stroke-opacity:0.4;"/>
   </g>
   <g id="line2d_87">
    <path clip-path="url(#pbb1852f301)" d="M 658.71875 148.862955 
L 1129.686984 148.862955 
L 1129.686984 148.862955 
" style="fill:none;stroke:#d62728;stroke-linecap:square;stroke-opacity:0.4;"/>
   </g>
   <g id="line2d_88">
    <path clip-path="url(#pbb1852f301)" d="M 658.71875 148.862955 
L 1129.686984 148.862955 
L 1129.686984 148.862955 
" style="fill:none;stroke:#d62728;stroke-linecap:square;stroke-opacity:0.4;"/>
   </g>
   <g id="line2d_89">
    <path clip-path="url(#pbb1852f301)" d="M 658.71875 148.862955 
L 1129.686984 148.862955 
L 1129.686984 148.862955 
" style="fill:none;stroke:#d62728;stroke-linecap:square;stroke-opacity:0.4;"/>
   </g>
   <g id="line2d_90">
    <path clip-path="url(#pbb1852f301)" d="M 658.71875 148.862955 
L 1129.686984 148.862955 
L 1129.686984 148.862955 
" style="fill:none;stroke:#d62728;stroke-linecap:square;stroke-opacity:0.4;"/>
   </g>
   <g id="line2d_91">
    <path clip-path="url(#pbb1852f301)" d="M 658.71875 148.862955 
L 1129.686984 148.862955 
L 1129.686984 148.862955 
" style="fill:none;stroke:#d62728;stroke-linecap:square;stroke-opacity:0.4;"/>
   </g>
   <g id="line2d_92">
    <path clip-path="url(#pbb1852f301)" d="M 658.71875 148.862955 
L 1129.686984 148.862955 
L 1129.686984 148.862955 
" style="fill:none;stroke:#d62728;stroke-linecap:square;stroke-opacity:0.4;"/>
   </g>
   <g id="line2d_93">
    <path clip-path="url(#pbb1852f301)" d="M 658.71875 148.862955 
L 1129.686984 148.862955 
L 1129.686984 148.862955 
" style="fill:none;stroke:#d62728;stroke-linecap:square;stroke-opacity:0.4;"/>
   </g>
   <g id="line2d_94">
    <path clip-path="url(#pbb1852f301)" d="M 658.71875 148.862955 
L 1129.686984 148.862955 
L 1129.686984 148.862955 
" style="fill:none;stroke:#d62728;stroke-linecap:square;stroke-opacity:0.4;"/>
   </g>
   <g id="line2d_95">
    <path clip-path="url(#pbb1852f301)" d="M 658.71875 148.862955 
L 1129.686984 148.862955 
L 1129.686984 148.862955 
" style="fill:none;stroke:#d62728;stroke-linecap:square;stroke-opacity:0.4;"/>
   </g>
   <g id="line2d_96">
    <path clip-path="url(#pbb1852f301)" d="M 658.71875 148.862955 
L 1129.686984 148.862955 
L 1129.686984 148.862955 
" style="fill:none;stroke:#d62728;stroke-linecap:square;stroke-opacity:0.4;"/>
   </g>
   <g id="line2d_97">
    <path clip-path="url(#pbb1852f301)" d="M 658.71875 148.862955 
L 1129.686984 148.862955 
L 1129.686984 148.862955 
" style="fill:none;stroke:#d62728;stroke-linecap:square;stroke-opacity:0.4;"/>
   </g>
   <g id="line2d_98">
    <path clip-path="url(#pbb1852f301)" d="M 658.71875 53.922045 
L 688.080859 148.862955 
L 864.253516 148.862955 
L 893.615625 53.922045 
L 922.977734 148.862955 
L 1099.150391 148.862955 
L 1128.5125 53.922045 
L 1129.686984 57.719682 
L 1129.686984 57.719682 
" style="fill:none;stroke:#000000;stroke-linecap:square;stroke-width:3;"/>
   </g>
   <g id="patch_67">
    <path d="M 658.71875 153.61 
L 658.71875 49.175 
" style="fill:none;stroke:#000000;stroke-linecap:square;stroke-linejoin:miter;stroke-width:0.8;"/>
   </g>
   <g id="patch_68">
    <path d="M 658.71875 153.61 
L 1128.5125 153.61 
" style="fill:none;stroke:#000000;stroke-linecap:square;stroke-linejoin:miter;stroke-width:0.8;"/>
   </g>
   <g id="text_31">
    <!-- Fourier Transform of Impulse Train $X(\omega) * \frac{2\pi}{T_s} \sum_{n} \delta( \omega - n\cdot \omega_s) $ -->
    <g transform="translate(634.325625 37.115)scale(0.18 -0.18)">
     <defs>
      <path d="M 9.8125 72.90625 
L 51.703125 72.90625 
L 51.703125 64.59375 
L 19.671875 64.59375 
L 19.671875 43.109375 
L 48.578125 43.109375 
L 48.578125 34.8125 
L 19.671875 34.8125 
L 19.671875 0 
L 9.8125 0 
z
" id="DejaVuSans-70"/>
      <path d="M 37.109375 75.984375 
L 37.109375 68.5 
L 28.515625 68.5 
Q 23.6875 68.5 21.796875 66.546875 
Q 19.921875 64.59375 19.921875 59.515625 
L 19.921875 54.6875 
L 34.71875 54.6875 
L 34.71875 47.703125 
L 19.921875 47.703125 
L 19.921875 0 
L 10.890625 0 
L 10.890625 47.703125 
L 2.296875 47.703125 
L 2.296875 54.6875 
L 10.890625 54.6875 
L 10.890625 58.5 
Q 10.890625 67.625 15.140625 71.796875 
Q 19.390625 75.984375 28.609375 75.984375 
z
" id="DejaVuSans-102"/>
      <path d="M 13.71875 72.90625 
L 23.6875 72.90625 
L 36.1875 46.578125 
L 58.796875 72.90625 
L 70.3125 72.90625 
L 40.28125 38.09375 
L 58.40625 0 
L 48.484375 0 
L 33.796875 30.71875 
L 7.171875 0 
L -4.296875 0 
L 29.78125 39.203125 
z
" id="DejaVuSans-Oblique-88"/>
      <path d="M 47.015625 60.890625 
L 29.5 51.421875 
L 47.015625 41.890625 
L 44.1875 37.109375 
L 27.78125 47.015625 
L 27.78125 28.609375 
L 22.21875 28.609375 
L 22.21875 47.015625 
L 5.8125 37.109375 
L 2.984375 41.890625 
L 20.515625 51.421875 
L 2.984375 60.890625 
L 5.8125 65.71875 
L 22.21875 55.8125 
L 22.21875 74.21875 
L 27.78125 74.21875 
L 27.78125 55.8125 
L 44.1875 65.71875 
z
" id="DejaVuSans-42"/>
     </defs>
     <use transform="translate(0 0.546875)" xlink:href="#DejaVuSans-70"/>
     <use transform="translate(57.519531 0.546875)" xlink:href="#DejaVuSans-111"/>
     <use transform="translate(118.701172 0.546875)" xlink:href="#DejaVuSans-117"/>
     <use transform="translate(182.080078 0.546875)" xlink:href="#DejaVuSans-114"/>
     <use transform="translate(223.193359 0.546875)" xlink:href="#DejaVuSans-105"/>
     <use transform="translate(250.976562 0.546875)" xlink:href="#DejaVuSans-101"/>
     <use transform="translate(312.5 0.546875)" xlink:href="#DejaVuSans-114"/>
     <use transform="translate(353.613281 0.546875)" xlink:href="#DejaVuSans-32"/>
     <use transform="translate(385.400391 0.546875)" xlink:href="#DejaVuSans-84"/>
     <use transform="translate(446.484375 0.546875)" xlink:href="#DejaVuSans-114"/>
     <use transform="translate(487.597656 0.546875)" xlink:href="#DejaVuSans-97"/>
     <use transform="translate(548.876953 0.546875)" xlink:href="#DejaVuSans-110"/>
     <use transform="translate(612.255859 0.546875)" xlink:href="#DejaVuSans-115"/>
     <use transform="translate(664.355469 0.546875)" xlink:href="#DejaVuSans-102"/>
     <use transform="translate(699.560547 0.546875)" xlink:href="#DejaVuSans-111"/>
     <use transform="translate(760.742188 0.546875)" xlink:href="#DejaVuSans-114"/>
     <use transform="translate(801.855469 0.546875)" xlink:href="#DejaVuSans-109"/>
     <use transform="translate(899.267578 0.546875)" xlink:href="#DejaVuSans-32"/>
     <use transform="translate(931.054688 0.546875)" xlink:href="#DejaVuSans-111"/>
     <use transform="translate(992.236328 0.546875)" xlink:href="#DejaVuSans-102"/>
     <use transform="translate(1027.441406 0.546875)" xlink:href="#DejaVuSans-32"/>
     <use transform="translate(1059.228516 0.546875)" xlink:href="#DejaVuSans-73"/>
     <use transform="translate(1085.095703 0.546875)" xlink:href="#DejaVuSans-109"/>
     <use transform="translate(1182.507812 0.546875)" xlink:href="#DejaVuSans-112"/>
     <use transform="translate(1245.984375 0.546875)" xlink:href="#DejaVuSans-117"/>
     <use transform="translate(1309.363281 0.546875)" xlink:href="#DejaVuSans-108"/>
     <use transform="translate(1337.146484 0.546875)" xlink:href="#DejaVuSans-115"/>
     <use transform="translate(1389.246094 0.546875)" xlink:href="#DejaVuSans-101"/>
     <use transform="translate(1450.769531 0.546875)" xlink:href="#DejaVuSans-32"/>
     <use transform="translate(1482.556641 0.546875)" xlink:href="#DejaVuSans-84"/>
     <use transform="translate(1543.640625 0.546875)" xlink:href="#DejaVuSans-114"/>
     <use transform="translate(1584.753906 0.546875)" xlink:href="#DejaVuSans-97"/>
     <use transform="translate(1646.033203 0.546875)" xlink:href="#DejaVuSans-105"/>
     <use transform="translate(1673.816406 0.546875)" xlink:href="#DejaVuSans-110"/>
     <use transform="translate(1737.195312 0.546875)" xlink:href="#DejaVuSans-32"/>
     <use transform="translate(1768.982422 0.546875)" xlink:href="#DejaVuSans-Oblique-88"/>
     <use transform="translate(1837.488281 0.546875)" xlink:href="#DejaVuSans-40"/>
     <use transform="translate(1876.501953 0.546875)" xlink:href="#DejaVuSans-Oblique-969"/>
     <use transform="translate(1960.242188 0.546875)" xlink:href="#DejaVuSans-41"/>
     <use transform="translate(2018.738281 0.546875)" xlink:href="#DejaVuSans-42"/>
     <use transform="translate(2088.220703 45.678125)scale(0.7)" xlink:href="#DejaVuSans-50"/>
     <use transform="translate(2132.756836 45.678125)scale(0.7)" xlink:href="#DejaVuSans-Oblique-960"/>
     <use transform="translate(2096.220703 -37.940625)scale(0.7)" xlink:href="#DejaVuSans-Oblique-84"/>
     <use transform="translate(2138.979492 -49.425)scale(0.49)" xlink:href="#DejaVuSans-Oblique-115"/>
     <use transform="translate(2187.400391 19.296875)" xlink:href="#DejaVuSansDisplay-8721"/>
     <use transform="translate(2210.400391 -65.809375)scale(0.7)" xlink:href="#DejaVuSans-Oblique-110"/>
     <use transform="translate(2278.166016 0.546875)" xlink:href="#DejaVuSans-Oblique-948"/>
     <use transform="translate(2339.347656 0.546875)" xlink:href="#DejaVuSans-40"/>
     <use transform="translate(2378.361328 0.546875)" xlink:href="#DejaVuSans-Oblique-969"/>
     <use transform="translate(2481.583984 0.546875)" xlink:href="#DejaVuSans-8722"/>
     <use transform="translate(2584.855469 0.546875)" xlink:href="#DejaVuSans-Oblique-110"/>
     <use transform="translate(2667.716797 0.546875)" xlink:href="#DejaVuSans-8901"/>
     <use transform="translate(2718.986328 0.546875)" xlink:href="#DejaVuSans-Oblique-969"/>
     <use transform="translate(2802.726562 -15.859375)scale(0.7)" xlink:href="#DejaVuSans-Oblique-115"/>
     <use transform="translate(2841.930664 0.546875)" xlink:href="#DejaVuSans-41"/>
     <path d="M 2088.220703 19.34375 
L 2088.220703 25.59375 
L 2174.900391 25.59375 
L 2174.900391 19.34375 
L 2088.220703 19.34375 
z
"/>
    </g>
   </g>
  </g>
 </g>
 <defs>
  <clipPath id="pd2165c0e57">
   <rect height="104.435" width="469.79375" x="56.55" y="49.175"/>
  </clipPath>
  <clipPath id="pbb1852f301">
   <rect height="104.435" width="469.79375" x="658.71875" y="49.175"/>
  </clipPath>
 </defs>
</svg>
