<?xml version="1.0" encoding="utf-8" standalone="no"?>
<!DOCTYPE svg PUBLIC "-//W3C//DTD SVG 1.1//EN"
  "http://www.w3.org/Graphics/SVG/1.1/DTD/svg11.dtd">
<!-- Created with matplotlib (https://matplotlib.org/) -->
<svg height="216pt" version="1.1" viewBox="0 0 1152 216" width="1152pt" xmlns="http://www.w3.org/2000/svg" xmlns:xlink="http://www.w3.org/1999/xlink">
 <metadata>
  <rdf:RDF xmlns:cc="http://creativecommons.org/ns#" xmlns:dc="http://purl.org/dc/elements/1.1/" xmlns:rdf="http://www.w3.org/1999/02/22-rdf-syntax-ns#">
   <cc:Work>
    <dc:type rdf:resource="http://purl.org/dc/dcmitype/StillImage"/>
    <dc:date>2021-10-30T09:38:42.450623</dc:date>
    <dc:format>image/svg+xml</dc:format>
    <dc:creator>
     <cc:Agent>
      <dc:title>Matplotlib v3.3.4, https://matplotlib.org/</dc:title>
     </cc:Agent>
    </dc:creator>
   </cc:Work>
  </rdf:RDF>
 </metadata>
 <defs>
  <style type="text/css">*{stroke-linecap:butt;stroke-linejoin:round;}</style>
 </defs>
 <g id="figure_1">
  <g id="patch_1">
   <path d="M 0 216 
L 1152 216 
L 1152 0 
L 0 0 
z
" style="fill:none;"/>
  </g>
  <g id="axes_1">
   <g id="patch_2">
    <path d="M 43.175 153.61 
L 533.625 153.61 
L 533.625 49.175 
L 43.175 49.175 
z
" style="fill:#ffffff;"/>
   </g>
   <g id="patch_3">
    <path clip-path="url(#pbba4fc08c5)" d="M -256.544444 53.922045 
L -253.819722 61.517318 
L -255.863264 61.517318 
L -255.863264 148.862955 
L -257.225625 148.862955 
L -257.225625 61.517318 
L -259.269167 61.517318 
z
" style="stroke:#000000;stroke-linejoin:miter;"/>
   </g>
   <g id="patch_4">
    <path clip-path="url(#pbba4fc08c5)" d="M -202.05 53.922045 
L -199.325278 61.517318 
L -201.368819 61.517318 
L -201.368819 148.862955 
L -202.731181 148.862955 
L -202.731181 61.517318 
L -204.774722 61.517318 
z
" style="stroke:#000000;stroke-linejoin:miter;"/>
   </g>
   <g id="patch_5">
    <path clip-path="url(#pbba4fc08c5)" d="M -147.555556 53.922045 
L -144.830833 61.517318 
L -146.874375 61.517318 
L -146.874375 148.862955 
L -148.236736 148.862955 
L -148.236736 61.517318 
L -150.280278 61.517318 
z
" style="stroke:#000000;stroke-linejoin:miter;"/>
   </g>
   <g id="patch_6">
    <path clip-path="url(#pbba4fc08c5)" d="M -93.061111 53.922045 
L -90.336389 61.517318 
L -92.379931 61.517318 
L -92.379931 148.862955 
L -93.742292 148.862955 
L -93.742292 61.517318 
L -95.785833 61.517318 
z
" style="stroke:#000000;stroke-linejoin:miter;"/>
   </g>
   <g id="patch_7">
    <path clip-path="url(#pbba4fc08c5)" d="M -38.566667 53.922045 
L -35.841944 61.517318 
L -37.885486 61.517318 
L -37.885486 148.862955 
L -39.247847 148.862955 
L -39.247847 61.517318 
L -41.291389 61.517318 
z
" style="stroke:#000000;stroke-linejoin:miter;"/>
   </g>
   <g id="patch_8">
    <path clip-path="url(#pbba4fc08c5)" d="M 15.927778 53.922045 
L 18.6525 61.517318 
L 16.608958 61.517318 
L 16.608958 148.862955 
L 15.246597 148.862955 
L 15.246597 61.517318 
L 13.203056 61.517318 
z
" style="stroke:#000000;stroke-linejoin:miter;"/>
   </g>
   <g id="patch_9">
    <path clip-path="url(#pbba4fc08c5)" d="M 70.422222 53.922045 
L 73.146944 61.517318 
L 71.103403 61.517318 
L 71.103403 148.862955 
L 69.741042 148.862955 
L 69.741042 61.517318 
L 67.6975 61.517318 
z
" style="stroke:#000000;stroke-linejoin:miter;"/>
   </g>
   <g id="patch_10">
    <path clip-path="url(#pbba4fc08c5)" d="M 124.916667 53.922045 
L 127.641389 61.517318 
L 125.597847 61.517318 
L 125.597847 148.862955 
L 124.235486 148.862955 
L 124.235486 61.517318 
L 122.191944 61.517318 
z
" style="stroke:#000000;stroke-linejoin:miter;"/>
   </g>
   <g id="patch_11">
    <path clip-path="url(#pbba4fc08c5)" d="M 179.411111 53.922045 
L 182.135833 61.517318 
L 180.092292 61.517318 
L 180.092292 148.862955 
L 178.729931 148.862955 
L 178.729931 61.517318 
L 176.686389 61.517318 
z
" style="stroke:#000000;stroke-linejoin:miter;"/>
   </g>
   <g id="patch_12">
    <path clip-path="url(#pbba4fc08c5)" d="M 233.905556 53.922045 
L 236.630278 61.517318 
L 234.586736 61.517318 
L 234.586736 148.862955 
L 233.224375 148.862955 
L 233.224375 61.517318 
L 231.180833 61.517318 
z
" style="stroke:#000000;stroke-linejoin:miter;"/>
   </g>
   <g id="patch_13">
    <path clip-path="url(#pbba4fc08c5)" d="M 288.4 53.922045 
L 291.124722 61.517318 
L 289.081181 61.517318 
L 289.081181 148.862955 
L 287.718819 148.862955 
L 287.718819 61.517318 
L 285.675278 61.517318 
z
" style="stroke:#000000;stroke-linejoin:miter;"/>
   </g>
   <g id="patch_14">
    <path clip-path="url(#pbba4fc08c5)" d="M 342.894444 53.922045 
L 345.619167 61.517318 
L 343.575625 61.517318 
L 343.575625 148.862955 
L 342.213264 148.862955 
L 342.213264 61.517318 
L 340.169722 61.517318 
z
" style="stroke:#000000;stroke-linejoin:miter;"/>
   </g>
   <g id="patch_15">
    <path clip-path="url(#pbba4fc08c5)" d="M 397.388889 53.922045 
L 400.113611 61.517318 
L 398.070069 61.517318 
L 398.070069 148.862955 
L 396.707708 148.862955 
L 396.707708 61.517318 
L 394.664167 61.517318 
z
" style="stroke:#000000;stroke-linejoin:miter;"/>
   </g>
   <g id="patch_16">
    <path clip-path="url(#pbba4fc08c5)" d="M 451.883333 53.922045 
L 454.608056 61.517318 
L 452.564514 61.517318 
L 452.564514 148.862955 
L 451.202153 148.862955 
L 451.202153 61.517318 
L 449.158611 61.517318 
z
" style="stroke:#000000;stroke-linejoin:miter;"/>
   </g>
   <g id="patch_17">
    <path clip-path="url(#pbba4fc08c5)" d="M 506.377778 53.922045 
L 509.1025 61.517318 
L 507.058958 61.517318 
L 507.058958 148.862955 
L 505.696597 148.862955 
L 505.696597 61.517318 
L 503.653056 61.517318 
z
" style="stroke:#000000;stroke-linejoin:miter;"/>
   </g>
   <g id="patch_18">
    <path clip-path="url(#pbba4fc08c5)" d="M 560.872222 53.922045 
L 563.596944 61.517318 
L 561.553403 61.517318 
L 561.553403 148.862955 
L 560.191042 148.862955 
L 560.191042 61.517318 
L 558.1475 61.517318 
z
" style="stroke:#000000;stroke-linejoin:miter;"/>
   </g>
   <g id="patch_19">
    <path clip-path="url(#pbba4fc08c5)" d="M 615.366667 53.922045 
L 618.091389 61.517318 
L 616.047847 61.517318 
L 616.047847 148.862955 
L 614.685486 148.862955 
L 614.685486 61.517318 
L 612.641944 61.517318 
z
" style="stroke:#000000;stroke-linejoin:miter;"/>
   </g>
   <g id="patch_20">
    <path clip-path="url(#pbba4fc08c5)" d="M 669.861111 53.922045 
L 672.585833 61.517318 
L 670.542292 61.517318 
L 670.542292 148.862955 
L 669.179931 148.862955 
L 669.179931 61.517318 
L 667.136389 61.517318 
z
" style="stroke:#000000;stroke-linejoin:miter;"/>
   </g>
   <g id="patch_21">
    <path clip-path="url(#pbba4fc08c5)" d="M 724.355556 53.922045 
L 727.080278 61.517318 
L 725.036736 61.517318 
L 725.036736 148.862955 
L 723.674375 148.862955 
L 723.674375 61.517318 
L 721.630833 61.517318 
z
" style="stroke:#000000;stroke-linejoin:miter;"/>
   </g>
   <g id="patch_22">
    <path clip-path="url(#pbba4fc08c5)" d="M 778.85 53.922045 
L 781.574722 61.517318 
L 779.531181 61.517318 
L 779.531181 148.862955 
L 778.168819 148.862955 
L 778.168819 61.517318 
L 776.125278 61.517318 
z
" style="stroke:#000000;stroke-linejoin:miter;"/>
   </g>
   <g id="patch_23">
    <path clip-path="url(#pbba4fc08c5)" d="M 833.344444 53.922045 
L 836.069167 61.517318 
L 834.025625 61.517318 
L 834.025625 148.862955 
L 832.663264 148.862955 
L 832.663264 61.517318 
L 830.619722 61.517318 
z
" style="stroke:#000000;stroke-linejoin:miter;"/>
   </g>
   <g id="matplotlib.axis_1">
    <g id="xtick_1">
     <g id="line2d_1">
      <path clip-path="url(#pbba4fc08c5)" d="M 70.422222 153.61 
L 70.422222 49.175 
" style="fill:none;stroke:#cccccc;stroke-dasharray:1.85,0.8;stroke-dashoffset:0;stroke-width:0.5;"/>
     </g>
     <g id="line2d_2">
      <defs>
       <path d="M 0 0 
L 0 3.5 
" id="ma69f620db1" style="stroke:#000000;stroke-width:0.8;"/>
      </defs>
      <g>
       <use style="stroke:#000000;stroke-width:0.8;" x="70.422222" xlink:href="#ma69f620db1" y="153.61"/>
      </g>
     </g>
     <g id="text_1">
      <!-- −4 -->
      <g transform="translate(58.628472 172.7675)scale(0.16 -0.16)">
       <defs>
        <path d="M 10.59375 35.5 
L 73.1875 35.5 
L 73.1875 27.203125 
L 10.59375 27.203125 
z
" id="DejaVuSans-8722"/>
        <path d="M 37.796875 64.3125 
L 12.890625 25.390625 
L 37.796875 25.390625 
z
M 35.203125 72.90625 
L 47.609375 72.90625 
L 47.609375 25.390625 
L 58.015625 25.390625 
L 58.015625 17.1875 
L 47.609375 17.1875 
L 47.609375 0 
L 37.796875 0 
L 37.796875 17.1875 
L 4.890625 17.1875 
L 4.890625 26.703125 
z
" id="DejaVuSans-52"/>
       </defs>
       <use xlink:href="#DejaVuSans-8722"/>
       <use x="83.789062" xlink:href="#DejaVuSans-52"/>
      </g>
     </g>
    </g>
    <g id="xtick_2">
     <g id="line2d_3">
      <path clip-path="url(#pbba4fc08c5)" d="M 124.916667 153.61 
L 124.916667 49.175 
" style="fill:none;stroke:#cccccc;stroke-dasharray:1.85,0.8;stroke-dashoffset:0;stroke-width:0.5;"/>
     </g>
     <g id="line2d_4">
      <g>
       <use style="stroke:#000000;stroke-width:0.8;" x="124.916667" xlink:href="#ma69f620db1" y="153.61"/>
      </g>
     </g>
     <g id="text_2">
      <!-- −3 -->
      <g transform="translate(113.122917 172.7675)scale(0.16 -0.16)">
       <defs>
        <path d="M 40.578125 39.3125 
Q 47.65625 37.796875 51.625 33 
Q 55.609375 28.21875 55.609375 21.1875 
Q 55.609375 10.40625 48.1875 4.484375 
Q 40.765625 -1.421875 27.09375 -1.421875 
Q 22.515625 -1.421875 17.65625 -0.515625 
Q 12.796875 0.390625 7.625 2.203125 
L 7.625 11.71875 
Q 11.71875 9.328125 16.59375 8.109375 
Q 21.484375 6.890625 26.8125 6.890625 
Q 36.078125 6.890625 40.9375 10.546875 
Q 45.796875 14.203125 45.796875 21.1875 
Q 45.796875 27.640625 41.28125 31.265625 
Q 36.765625 34.90625 28.71875 34.90625 
L 20.21875 34.90625 
L 20.21875 43.015625 
L 29.109375 43.015625 
Q 36.375 43.015625 40.234375 45.921875 
Q 44.09375 48.828125 44.09375 54.296875 
Q 44.09375 59.90625 40.109375 62.90625 
Q 36.140625 65.921875 28.71875 65.921875 
Q 24.65625 65.921875 20.015625 65.03125 
Q 15.375 64.15625 9.8125 62.3125 
L 9.8125 71.09375 
Q 15.4375 72.65625 20.34375 73.4375 
Q 25.25 74.21875 29.59375 74.21875 
Q 40.828125 74.21875 47.359375 69.109375 
Q 53.90625 64.015625 53.90625 55.328125 
Q 53.90625 49.265625 50.4375 45.09375 
Q 46.96875 40.921875 40.578125 39.3125 
z
" id="DejaVuSans-51"/>
       </defs>
       <use xlink:href="#DejaVuSans-8722"/>
       <use x="83.789062" xlink:href="#DejaVuSans-51"/>
      </g>
     </g>
    </g>
    <g id="xtick_3">
     <g id="line2d_5">
      <path clip-path="url(#pbba4fc08c5)" d="M 179.411111 153.61 
L 179.411111 49.175 
" style="fill:none;stroke:#cccccc;stroke-dasharray:1.85,0.8;stroke-dashoffset:0;stroke-width:0.5;"/>
     </g>
     <g id="line2d_6">
      <g>
       <use style="stroke:#000000;stroke-width:0.8;" x="179.411111" xlink:href="#ma69f620db1" y="153.61"/>
      </g>
     </g>
     <g id="text_3">
      <!-- −2 -->
      <g transform="translate(167.617361 172.7675)scale(0.16 -0.16)">
       <defs>
        <path d="M 19.1875 8.296875 
L 53.609375 8.296875 
L 53.609375 0 
L 7.328125 0 
L 7.328125 8.296875 
Q 12.9375 14.109375 22.625 23.890625 
Q 32.328125 33.6875 34.8125 36.53125 
Q 39.546875 41.84375 41.421875 45.53125 
Q 43.3125 49.21875 43.3125 52.78125 
Q 43.3125 58.59375 39.234375 62.25 
Q 35.15625 65.921875 28.609375 65.921875 
Q 23.96875 65.921875 18.8125 64.3125 
Q 13.671875 62.703125 7.8125 59.421875 
L 7.8125 69.390625 
Q 13.765625 71.78125 18.9375 73 
Q 24.125 74.21875 28.421875 74.21875 
Q 39.75 74.21875 46.484375 68.546875 
Q 53.21875 62.890625 53.21875 53.421875 
Q 53.21875 48.921875 51.53125 44.890625 
Q 49.859375 40.875 45.40625 35.40625 
Q 44.1875 33.984375 37.640625 27.21875 
Q 31.109375 20.453125 19.1875 8.296875 
z
" id="DejaVuSans-50"/>
       </defs>
       <use xlink:href="#DejaVuSans-8722"/>
       <use x="83.789062" xlink:href="#DejaVuSans-50"/>
      </g>
     </g>
    </g>
    <g id="xtick_4">
     <g id="line2d_7">
      <path clip-path="url(#pbba4fc08c5)" d="M 233.905556 153.61 
L 233.905556 49.175 
" style="fill:none;stroke:#cccccc;stroke-dasharray:1.85,0.8;stroke-dashoffset:0;stroke-width:0.5;"/>
     </g>
     <g id="line2d_8">
      <g>
       <use style="stroke:#000000;stroke-width:0.8;" x="233.905556" xlink:href="#ma69f620db1" y="153.61"/>
      </g>
     </g>
     <g id="text_4">
      <!-- −1 -->
      <g transform="translate(222.111806 172.7675)scale(0.16 -0.16)">
       <defs>
        <path d="M 12.40625 8.296875 
L 28.515625 8.296875 
L 28.515625 63.921875 
L 10.984375 60.40625 
L 10.984375 69.390625 
L 28.421875 72.90625 
L 38.28125 72.90625 
L 38.28125 8.296875 
L 54.390625 8.296875 
L 54.390625 0 
L 12.40625 0 
z
" id="DejaVuSans-49"/>
       </defs>
       <use xlink:href="#DejaVuSans-8722"/>
       <use x="83.789062" xlink:href="#DejaVuSans-49"/>
      </g>
     </g>
    </g>
    <g id="xtick_5">
     <g id="line2d_9">
      <path clip-path="url(#pbba4fc08c5)" d="M 288.4 153.61 
L 288.4 49.175 
" style="fill:none;stroke:#cccccc;stroke-dasharray:1.85,0.8;stroke-dashoffset:0;stroke-width:0.5;"/>
     </g>
     <g id="line2d_10">
      <g>
       <use style="stroke:#000000;stroke-width:0.8;" x="288.4" xlink:href="#ma69f620db1" y="153.61"/>
      </g>
     </g>
     <g id="text_5">
      <!-- 0 -->
      <g transform="translate(283.31 172.7675)scale(0.16 -0.16)">
       <defs>
        <path d="M 31.78125 66.40625 
Q 24.171875 66.40625 20.328125 58.90625 
Q 16.5 51.421875 16.5 36.375 
Q 16.5 21.390625 20.328125 13.890625 
Q 24.171875 6.390625 31.78125 6.390625 
Q 39.453125 6.390625 43.28125 13.890625 
Q 47.125 21.390625 47.125 36.375 
Q 47.125 51.421875 43.28125 58.90625 
Q 39.453125 66.40625 31.78125 66.40625 
z
M 31.78125 74.21875 
Q 44.046875 74.21875 50.515625 64.515625 
Q 56.984375 54.828125 56.984375 36.375 
Q 56.984375 17.96875 50.515625 8.265625 
Q 44.046875 -1.421875 31.78125 -1.421875 
Q 19.53125 -1.421875 13.0625 8.265625 
Q 6.59375 17.96875 6.59375 36.375 
Q 6.59375 54.828125 13.0625 64.515625 
Q 19.53125 74.21875 31.78125 74.21875 
z
" id="DejaVuSans-48"/>
       </defs>
       <use xlink:href="#DejaVuSans-48"/>
      </g>
     </g>
    </g>
    <g id="xtick_6">
     <g id="line2d_11">
      <path clip-path="url(#pbba4fc08c5)" d="M 342.894444 153.61 
L 342.894444 49.175 
" style="fill:none;stroke:#cccccc;stroke-dasharray:1.85,0.8;stroke-dashoffset:0;stroke-width:0.5;"/>
     </g>
     <g id="line2d_12">
      <g>
       <use style="stroke:#000000;stroke-width:0.8;" x="342.894444" xlink:href="#ma69f620db1" y="153.61"/>
      </g>
     </g>
     <g id="text_6">
      <!-- 1 -->
      <g transform="translate(337.804444 172.7675)scale(0.16 -0.16)">
       <use xlink:href="#DejaVuSans-49"/>
      </g>
     </g>
    </g>
    <g id="xtick_7">
     <g id="line2d_13">
      <path clip-path="url(#pbba4fc08c5)" d="M 397.388889 153.61 
L 397.388889 49.175 
" style="fill:none;stroke:#cccccc;stroke-dasharray:1.85,0.8;stroke-dashoffset:0;stroke-width:0.5;"/>
     </g>
     <g id="line2d_14">
      <g>
       <use style="stroke:#000000;stroke-width:0.8;" x="397.388889" xlink:href="#ma69f620db1" y="153.61"/>
      </g>
     </g>
     <g id="text_7">
      <!-- 2 -->
      <g transform="translate(392.298889 172.7675)scale(0.16 -0.16)">
       <use xlink:href="#DejaVuSans-50"/>
      </g>
     </g>
    </g>
    <g id="xtick_8">
     <g id="line2d_15">
      <path clip-path="url(#pbba4fc08c5)" d="M 451.883333 153.61 
L 451.883333 49.175 
" style="fill:none;stroke:#cccccc;stroke-dasharray:1.85,0.8;stroke-dashoffset:0;stroke-width:0.5;"/>
     </g>
     <g id="line2d_16">
      <g>
       <use style="stroke:#000000;stroke-width:0.8;" x="451.883333" xlink:href="#ma69f620db1" y="153.61"/>
      </g>
     </g>
     <g id="text_8">
      <!-- 3 -->
      <g transform="translate(446.793333 172.7675)scale(0.16 -0.16)">
       <use xlink:href="#DejaVuSans-51"/>
      </g>
     </g>
    </g>
    <g id="xtick_9">
     <g id="line2d_17">
      <path clip-path="url(#pbba4fc08c5)" d="M 506.377778 153.61 
L 506.377778 49.175 
" style="fill:none;stroke:#cccccc;stroke-dasharray:1.85,0.8;stroke-dashoffset:0;stroke-width:0.5;"/>
     </g>
     <g id="line2d_18">
      <g>
       <use style="stroke:#000000;stroke-width:0.8;" x="506.377778" xlink:href="#ma69f620db1" y="153.61"/>
      </g>
     </g>
     <g id="text_9">
      <!-- 4 -->
      <g transform="translate(501.287778 172.7675)scale(0.16 -0.16)">
       <use xlink:href="#DejaVuSans-52"/>
      </g>
     </g>
    </g>
    <g id="text_10">
     <!-- Time (s) -->
     <g transform="translate(255.87375 192.2525)scale(0.16 -0.16)">
      <defs>
       <path d="M -0.296875 72.90625 
L 61.375 72.90625 
L 61.375 64.59375 
L 35.5 64.59375 
L 35.5 0 
L 25.59375 0 
L 25.59375 64.59375 
L -0.296875 64.59375 
z
" id="DejaVuSans-84"/>
       <path d="M 9.421875 54.6875 
L 18.40625 54.6875 
L 18.40625 0 
L 9.421875 0 
z
M 9.421875 75.984375 
L 18.40625 75.984375 
L 18.40625 64.59375 
L 9.421875 64.59375 
z
" id="DejaVuSans-105"/>
       <path d="M 52 44.1875 
Q 55.375 50.25 60.0625 53.125 
Q 64.75 56 71.09375 56 
Q 79.640625 56 84.28125 50.015625 
Q 88.921875 44.046875 88.921875 33.015625 
L 88.921875 0 
L 79.890625 0 
L 79.890625 32.71875 
Q 79.890625 40.578125 77.09375 44.375 
Q 74.3125 48.1875 68.609375 48.1875 
Q 61.625 48.1875 57.5625 43.546875 
Q 53.515625 38.921875 53.515625 30.90625 
L 53.515625 0 
L 44.484375 0 
L 44.484375 32.71875 
Q 44.484375 40.625 41.703125 44.40625 
Q 38.921875 48.1875 33.109375 48.1875 
Q 26.21875 48.1875 22.15625 43.53125 
Q 18.109375 38.875 18.109375 30.90625 
L 18.109375 0 
L 9.078125 0 
L 9.078125 54.6875 
L 18.109375 54.6875 
L 18.109375 46.1875 
Q 21.1875 51.21875 25.484375 53.609375 
Q 29.78125 56 35.6875 56 
Q 41.65625 56 45.828125 52.96875 
Q 50 49.953125 52 44.1875 
z
" id="DejaVuSans-109"/>
       <path d="M 56.203125 29.59375 
L 56.203125 25.203125 
L 14.890625 25.203125 
Q 15.484375 15.921875 20.484375 11.0625 
Q 25.484375 6.203125 34.421875 6.203125 
Q 39.59375 6.203125 44.453125 7.46875 
Q 49.3125 8.734375 54.109375 11.28125 
L 54.109375 2.78125 
Q 49.265625 0.734375 44.1875 -0.34375 
Q 39.109375 -1.421875 33.890625 -1.421875 
Q 20.796875 -1.421875 13.15625 6.1875 
Q 5.515625 13.8125 5.515625 26.8125 
Q 5.515625 40.234375 12.765625 48.109375 
Q 20.015625 56 32.328125 56 
Q 43.359375 56 49.78125 48.890625 
Q 56.203125 41.796875 56.203125 29.59375 
z
M 47.21875 32.234375 
Q 47.125 39.59375 43.09375 43.984375 
Q 39.0625 48.390625 32.421875 48.390625 
Q 24.90625 48.390625 20.390625 44.140625 
Q 15.875 39.890625 15.1875 32.171875 
z
" id="DejaVuSans-101"/>
       <path id="DejaVuSans-32"/>
       <path d="M 31 75.875 
Q 24.46875 64.65625 21.28125 53.65625 
Q 18.109375 42.671875 18.109375 31.390625 
Q 18.109375 20.125 21.3125 9.0625 
Q 24.515625 -2 31 -13.1875 
L 23.1875 -13.1875 
Q 15.875 -1.703125 12.234375 9.375 
Q 8.59375 20.453125 8.59375 31.390625 
Q 8.59375 42.28125 12.203125 53.3125 
Q 15.828125 64.359375 23.1875 75.875 
z
" id="DejaVuSans-40"/>
       <path d="M 44.28125 53.078125 
L 44.28125 44.578125 
Q 40.484375 46.53125 36.375 47.5 
Q 32.28125 48.484375 27.875 48.484375 
Q 21.1875 48.484375 17.84375 46.4375 
Q 14.5 44.390625 14.5 40.28125 
Q 14.5 37.15625 16.890625 35.375 
Q 19.28125 33.59375 26.515625 31.984375 
L 29.59375 31.296875 
Q 39.15625 29.25 43.1875 25.515625 
Q 47.21875 21.78125 47.21875 15.09375 
Q 47.21875 7.46875 41.1875 3.015625 
Q 35.15625 -1.421875 24.609375 -1.421875 
Q 20.21875 -1.421875 15.453125 -0.5625 
Q 10.6875 0.296875 5.421875 2 
L 5.421875 11.28125 
Q 10.40625 8.6875 15.234375 7.390625 
Q 20.0625 6.109375 24.8125 6.109375 
Q 31.15625 6.109375 34.5625 8.28125 
Q 37.984375 10.453125 37.984375 14.40625 
Q 37.984375 18.0625 35.515625 20.015625 
Q 33.0625 21.96875 24.703125 23.78125 
L 21.578125 24.515625 
Q 13.234375 26.265625 9.515625 29.90625 
Q 5.8125 33.546875 5.8125 39.890625 
Q 5.8125 47.609375 11.28125 51.796875 
Q 16.75 56 26.8125 56 
Q 31.78125 56 36.171875 55.265625 
Q 40.578125 54.546875 44.28125 53.078125 
z
" id="DejaVuSans-115"/>
       <path d="M 8.015625 75.875 
L 15.828125 75.875 
Q 23.140625 64.359375 26.78125 53.3125 
Q 30.421875 42.28125 30.421875 31.390625 
Q 30.421875 20.453125 26.78125 9.375 
Q 23.140625 -1.703125 15.828125 -13.1875 
L 8.015625 -13.1875 
Q 14.5 -2 17.703125 9.0625 
Q 20.90625 20.125 20.90625 31.390625 
Q 20.90625 42.671875 17.703125 53.65625 
Q 14.5 64.65625 8.015625 75.875 
z
" id="DejaVuSans-41"/>
      </defs>
      <use xlink:href="#DejaVuSans-84"/>
      <use x="57.958984" xlink:href="#DejaVuSans-105"/>
      <use x="85.742188" xlink:href="#DejaVuSans-109"/>
      <use x="183.154297" xlink:href="#DejaVuSans-101"/>
      <use x="244.677734" xlink:href="#DejaVuSans-32"/>
      <use x="276.464844" xlink:href="#DejaVuSans-40"/>
      <use x="315.478516" xlink:href="#DejaVuSans-115"/>
      <use x="367.578125" xlink:href="#DejaVuSans-41"/>
     </g>
    </g>
   </g>
   <g id="matplotlib.axis_2">
    <g id="ytick_1">
     <g id="line2d_19">
      <path clip-path="url(#pbba4fc08c5)" d="M 43.175 148.862955 
L 533.625 148.862955 
" style="fill:none;stroke:#cccccc;stroke-dasharray:1.85,0.8;stroke-dashoffset:0;stroke-width:0.5;"/>
     </g>
     <g id="line2d_20">
      <defs>
       <path d="M 0 0 
L -3.5 0 
" id="m4bbc0ba568" style="stroke:#000000;stroke-width:0.8;"/>
      </defs>
      <g>
       <use style="stroke:#000000;stroke-width:0.8;" x="43.175" xlink:href="#m4bbc0ba568" y="148.862955"/>
      </g>
     </g>
     <g id="text_11">
      <!-- 0.00 -->
      <g transform="translate(0.55 154.941705)scale(0.16 -0.16)">
       <defs>
        <path d="M 10.6875 12.40625 
L 21 12.40625 
L 21 0 
L 10.6875 0 
z
" id="DejaVuSans-46"/>
       </defs>
       <use xlink:href="#DejaVuSans-48"/>
       <use x="63.623047" xlink:href="#DejaVuSans-46"/>
       <use x="95.410156" xlink:href="#DejaVuSans-48"/>
       <use x="159.033203" xlink:href="#DejaVuSans-48"/>
      </g>
     </g>
    </g>
    <g id="ytick_2">
     <g id="line2d_21">
      <path clip-path="url(#pbba4fc08c5)" d="M 43.175 125.127727 
L 533.625 125.127727 
" style="fill:none;stroke:#cccccc;stroke-dasharray:1.85,0.8;stroke-dashoffset:0;stroke-width:0.5;"/>
     </g>
     <g id="line2d_22">
      <g>
       <use style="stroke:#000000;stroke-width:0.8;" x="43.175" xlink:href="#m4bbc0ba568" y="125.127727"/>
      </g>
     </g>
     <g id="text_12">
      <!-- 0.25 -->
      <g transform="translate(0.55 131.206477)scale(0.16 -0.16)">
       <defs>
        <path d="M 10.796875 72.90625 
L 49.515625 72.90625 
L 49.515625 64.59375 
L 19.828125 64.59375 
L 19.828125 46.734375 
Q 21.96875 47.46875 24.109375 47.828125 
Q 26.265625 48.1875 28.421875 48.1875 
Q 40.625 48.1875 47.75 41.5 
Q 54.890625 34.8125 54.890625 23.390625 
Q 54.890625 11.625 47.5625 5.09375 
Q 40.234375 -1.421875 26.90625 -1.421875 
Q 22.3125 -1.421875 17.546875 -0.640625 
Q 12.796875 0.140625 7.71875 1.703125 
L 7.71875 11.625 
Q 12.109375 9.234375 16.796875 8.0625 
Q 21.484375 6.890625 26.703125 6.890625 
Q 35.15625 6.890625 40.078125 11.328125 
Q 45.015625 15.765625 45.015625 23.390625 
Q 45.015625 31 40.078125 35.4375 
Q 35.15625 39.890625 26.703125 39.890625 
Q 22.75 39.890625 18.8125 39.015625 
Q 14.890625 38.140625 10.796875 36.28125 
z
" id="DejaVuSans-53"/>
       </defs>
       <use xlink:href="#DejaVuSans-48"/>
       <use x="63.623047" xlink:href="#DejaVuSans-46"/>
       <use x="95.410156" xlink:href="#DejaVuSans-50"/>
       <use x="159.033203" xlink:href="#DejaVuSans-53"/>
      </g>
     </g>
    </g>
    <g id="ytick_3">
     <g id="line2d_23">
      <path clip-path="url(#pbba4fc08c5)" d="M 43.175 101.3925 
L 533.625 101.3925 
" style="fill:none;stroke:#cccccc;stroke-dasharray:1.85,0.8;stroke-dashoffset:0;stroke-width:0.5;"/>
     </g>
     <g id="line2d_24">
      <g>
       <use style="stroke:#000000;stroke-width:0.8;" x="43.175" xlink:href="#m4bbc0ba568" y="101.3925"/>
      </g>
     </g>
     <g id="text_13">
      <!-- 0.50 -->
      <g transform="translate(0.55 107.47125)scale(0.16 -0.16)">
       <use xlink:href="#DejaVuSans-48"/>
       <use x="63.623047" xlink:href="#DejaVuSans-46"/>
       <use x="95.410156" xlink:href="#DejaVuSans-53"/>
       <use x="159.033203" xlink:href="#DejaVuSans-48"/>
      </g>
     </g>
    </g>
    <g id="ytick_4">
     <g id="line2d_25">
      <path clip-path="url(#pbba4fc08c5)" d="M 43.175 77.657273 
L 533.625 77.657273 
" style="fill:none;stroke:#cccccc;stroke-dasharray:1.85,0.8;stroke-dashoffset:0;stroke-width:0.5;"/>
     </g>
     <g id="line2d_26">
      <g>
       <use style="stroke:#000000;stroke-width:0.8;" x="43.175" xlink:href="#m4bbc0ba568" y="77.657273"/>
      </g>
     </g>
     <g id="text_14">
      <!-- 0.75 -->
      <g transform="translate(0.55 83.736023)scale(0.16 -0.16)">
       <defs>
        <path d="M 8.203125 72.90625 
L 55.078125 72.90625 
L 55.078125 68.703125 
L 28.609375 0 
L 18.3125 0 
L 43.21875 64.59375 
L 8.203125 64.59375 
z
" id="DejaVuSans-55"/>
       </defs>
       <use xlink:href="#DejaVuSans-48"/>
       <use x="63.623047" xlink:href="#DejaVuSans-46"/>
       <use x="95.410156" xlink:href="#DejaVuSans-55"/>
       <use x="159.033203" xlink:href="#DejaVuSans-53"/>
      </g>
     </g>
    </g>
    <g id="ytick_5">
     <g id="line2d_27">
      <path clip-path="url(#pbba4fc08c5)" d="M 43.175 53.922045 
L 533.625 53.922045 
" style="fill:none;stroke:#cccccc;stroke-dasharray:1.85,0.8;stroke-dashoffset:0;stroke-width:0.5;"/>
     </g>
     <g id="line2d_28">
      <g>
       <use style="stroke:#000000;stroke-width:0.8;" x="43.175" xlink:href="#m4bbc0ba568" y="53.922045"/>
      </g>
     </g>
     <g id="text_15">
      <!-- 1.00 -->
      <g transform="translate(0.55 60.000795)scale(0.16 -0.16)">
       <use xlink:href="#DejaVuSans-49"/>
       <use x="63.623047" xlink:href="#DejaVuSans-46"/>
       <use x="95.410156" xlink:href="#DejaVuSans-48"/>
       <use x="159.033203" xlink:href="#DejaVuSans-48"/>
      </g>
     </g>
    </g>
   </g>
   <g id="line2d_29">
    <path clip-path="url(#pbba4fc08c5)" d="M 43.175 148.862955 
L 533.625 148.862955 
" style="fill:none;stroke:#000000;stroke-linecap:square;stroke-width:2;"/>
   </g>
   <g id="patch_24">
    <path d="M 43.175 153.61 
L 43.175 49.175 
" style="fill:none;stroke:#000000;stroke-linecap:square;stroke-linejoin:miter;stroke-width:0.8;"/>
   </g>
   <g id="patch_25">
    <path d="M 43.175 153.61 
L 533.625 153.61 
" style="fill:none;stroke:#000000;stroke-linecap:square;stroke-linejoin:miter;stroke-width:0.8;"/>
   </g>
   <g id="text_16">
    <!-- Impulse Train $\sum_{n} \delta( t - n\cdot T_s) $ -->
    <g transform="translate(168.07 37.115)scale(0.18 -0.18)">
     <defs>
      <path d="M 9.8125 72.90625 
L 19.671875 72.90625 
L 19.671875 0 
L 9.8125 0 
z
" id="DejaVuSans-73"/>
      <path d="M 18.109375 8.203125 
L 18.109375 -20.796875 
L 9.078125 -20.796875 
L 9.078125 54.6875 
L 18.109375 54.6875 
L 18.109375 46.390625 
Q 20.953125 51.265625 25.265625 53.625 
Q 29.59375 56 35.59375 56 
Q 45.5625 56 51.78125 48.09375 
Q 58.015625 40.1875 58.015625 27.296875 
Q 58.015625 14.40625 51.78125 6.484375 
Q 45.5625 -1.421875 35.59375 -1.421875 
Q 29.59375 -1.421875 25.265625 0.953125 
Q 20.953125 3.328125 18.109375 8.203125 
z
M 48.6875 27.296875 
Q 48.6875 37.203125 44.609375 42.84375 
Q 40.53125 48.484375 33.40625 48.484375 
Q 26.265625 48.484375 22.1875 42.84375 
Q 18.109375 37.203125 18.109375 27.296875 
Q 18.109375 17.390625 22.1875 11.75 
Q 26.265625 6.109375 33.40625 6.109375 
Q 40.53125 6.109375 44.609375 11.75 
Q 48.6875 17.390625 48.6875 27.296875 
z
" id="DejaVuSans-112"/>
      <path d="M 8.5 21.578125 
L 8.5 54.6875 
L 17.484375 54.6875 
L 17.484375 21.921875 
Q 17.484375 14.15625 20.5 10.265625 
Q 23.53125 6.390625 29.59375 6.390625 
Q 36.859375 6.390625 41.078125 11.03125 
Q 45.3125 15.671875 45.3125 23.6875 
L 45.3125 54.6875 
L 54.296875 54.6875 
L 54.296875 0 
L 45.3125 0 
L 45.3125 8.40625 
Q 42.046875 3.421875 37.71875 1 
Q 33.40625 -1.421875 27.6875 -1.421875 
Q 18.265625 -1.421875 13.375 4.4375 
Q 8.5 10.296875 8.5 21.578125 
z
M 31.109375 56 
z
" id="DejaVuSans-117"/>
      <path d="M 9.421875 75.984375 
L 18.40625 75.984375 
L 18.40625 0 
L 9.421875 0 
z
" id="DejaVuSans-108"/>
      <path d="M 41.109375 46.296875 
Q 39.59375 47.171875 37.8125 47.578125 
Q 36.03125 48 33.890625 48 
Q 26.265625 48 22.1875 43.046875 
Q 18.109375 38.09375 18.109375 28.8125 
L 18.109375 0 
L 9.078125 0 
L 9.078125 54.6875 
L 18.109375 54.6875 
L 18.109375 46.1875 
Q 20.953125 51.171875 25.484375 53.578125 
Q 30.03125 56 36.53125 56 
Q 37.453125 56 38.578125 55.875 
Q 39.703125 55.765625 41.0625 55.515625 
z
" id="DejaVuSans-114"/>
      <path d="M 34.28125 27.484375 
Q 23.390625 27.484375 19.1875 25 
Q 14.984375 22.515625 14.984375 16.5 
Q 14.984375 11.71875 18.140625 8.90625 
Q 21.296875 6.109375 26.703125 6.109375 
Q 34.1875 6.109375 38.703125 11.40625 
Q 43.21875 16.703125 43.21875 25.484375 
L 43.21875 27.484375 
z
M 52.203125 31.203125 
L 52.203125 0 
L 43.21875 0 
L 43.21875 8.296875 
Q 40.140625 3.328125 35.546875 0.953125 
Q 30.953125 -1.421875 24.3125 -1.421875 
Q 15.921875 -1.421875 10.953125 3.296875 
Q 6 8.015625 6 15.921875 
Q 6 25.140625 12.171875 29.828125 
Q 18.359375 34.515625 30.609375 34.515625 
L 43.21875 34.515625 
L 43.21875 35.40625 
Q 43.21875 41.609375 39.140625 45 
Q 35.0625 48.390625 27.6875 48.390625 
Q 23 48.390625 18.546875 47.265625 
Q 14.109375 46.140625 10.015625 43.890625 
L 10.015625 52.203125 
Q 14.9375 54.109375 19.578125 55.046875 
Q 24.21875 56 28.609375 56 
Q 40.484375 56 46.34375 49.84375 
Q 52.203125 43.703125 52.203125 31.203125 
z
" id="DejaVuSans-97"/>
      <path d="M 54.890625 33.015625 
L 54.890625 0 
L 45.90625 0 
L 45.90625 32.71875 
Q 45.90625 40.484375 42.875 44.328125 
Q 39.84375 48.1875 33.796875 48.1875 
Q 26.515625 48.1875 22.3125 43.546875 
Q 18.109375 38.921875 18.109375 30.90625 
L 18.109375 0 
L 9.078125 0 
L 9.078125 54.6875 
L 18.109375 54.6875 
L 18.109375 46.1875 
Q 21.34375 51.125 25.703125 53.5625 
Q 30.078125 56 35.796875 56 
Q 45.21875 56 50.046875 50.171875 
Q 54.890625 44.34375 54.890625 33.015625 
z
" id="DejaVuSans-110"/>
      <path d="M 3.8125 101.703125 
L 90.671875 101.703125 
L 90.671875 88.375 
L 24.46875 88.375 
L 70.84375 38.875 
L 22.953125 -13.875 
L 92.484375 -13.875 
L 92.484375 -27.15625 
L 1.703125 -27.15625 
L 1.703125 -16.84375 
L 51.8125 38.484375 
L 3.8125 89.5 
z
" id="DejaVuSansDisplay-8721"/>
      <path d="M 55.71875 33.015625 
L 49.3125 0 
L 40.28125 0 
L 46.6875 32.671875 
Q 47.125 34.96875 47.359375 36.71875 
Q 47.609375 38.484375 47.609375 39.5 
Q 47.609375 43.609375 45.015625 45.890625 
Q 42.4375 48.1875 37.796875 48.1875 
Q 30.5625 48.1875 25.34375 43.375 
Q 20.125 38.578125 18.5 30.328125 
L 12.5 0 
L 3.515625 0 
L 14.109375 54.6875 
L 23.09375 54.6875 
L 21.296875 46.09375 
Q 25.046875 50.828125 30.3125 53.40625 
Q 35.59375 56 41.40625 56 
Q 48.640625 56 52.609375 52.09375 
Q 56.59375 48.1875 56.59375 41.109375 
Q 56.59375 39.359375 56.375 37.359375 
Q 56.15625 35.359375 55.71875 33.015625 
z
" id="DejaVuSans-Oblique-110"/>
      <path d="M 54.25 63.328125 
Q 49.953125 66.75 38.28125 66.75 
Q 25.921875 66.75 24.8125 61.03125 
Q 23.921875 56.546875 36.375 54.203125 
Q 46.140625 52.390625 50.828125 46.921875 
Q 56.5 40.328125 53.859375 26.8125 
Q 51.3125 13.875 43.171875 6.25 
Q 34.96875 -1.421875 23.25 -1.421875 
Q 11.578125 -1.421875 6.34375 6.25 
Q 1.125 13.875 3.765625 27.296875 
Q 5.671875 37.25 13.921875 45.3125 
Q 17.140625 48.4375 21.140625 50.203125 
Q 14.265625 54.046875 15.625 60.9375 
Q 18.21875 74.21875 39.75 74.21875 
Q 50.53125 74.21875 55.71875 70.796875 
z
M 27.390625 47.75 
Q 23.828125 46.34375 20.40625 42.78125 
Q 15.140625 37.25 13.234375 27.296875 
Q 11.28125 17.390625 14.359375 11.8125 
Q 17.484375 6.203125 24.75 6.203125 
Q 31.9375 6.203125 37.203125 11.859375 
Q 42.53125 17.53125 44.34375 26.8125 
Q 46.1875 36.53125 42.671875 41.21875 
Q 38.921875 46.234375 32.859375 46.78125 
Q 29.78125 47.078125 27.390625 47.75 
z
" id="DejaVuSans-Oblique-948"/>
      <path d="M 42.28125 54.6875 
L 40.921875 47.703125 
L 23 47.703125 
L 17.1875 18.015625 
Q 16.890625 16.359375 16.75 15.234375 
Q 16.609375 14.109375 16.609375 13.484375 
Q 16.609375 10.359375 18.484375 8.9375 
Q 20.359375 7.515625 24.515625 7.515625 
L 33.59375 7.515625 
L 32.078125 0 
L 23.484375 0 
Q 15.484375 0 11.546875 3.125 
Q 7.625 6.25 7.625 12.59375 
Q 7.625 13.71875 7.765625 15.0625 
Q 7.90625 16.40625 8.203125 18.015625 
L 14.015625 47.703125 
L 6.390625 47.703125 
L 7.8125 54.6875 
L 15.28125 54.6875 
L 18.3125 70.21875 
L 27.296875 70.21875 
L 24.3125 54.6875 
z
" id="DejaVuSans-Oblique-116"/>
      <path d="M 10.6875 40.921875 
L 21 40.921875 
L 21 28.515625 
L 10.6875 28.515625 
z
" id="DejaVuSans-8901"/>
      <path d="M 5.90625 72.90625 
L 67.578125 72.90625 
L 66.015625 64.59375 
L 39.984375 64.59375 
L 27.484375 0 
L 17.578125 0 
L 30.078125 64.59375 
L 4.296875 64.59375 
z
" id="DejaVuSans-Oblique-84"/>
      <path d="M 50 53.078125 
L 48.296875 44.578125 
Q 44.734375 46.53125 40.765625 47.5 
Q 36.8125 48.484375 32.625 48.484375 
Q 25.53125 48.484375 21.453125 46.0625 
Q 17.390625 43.65625 17.390625 39.5 
Q 17.390625 34.671875 26.859375 32.078125 
Q 27.59375 31.890625 27.9375 31.78125 
L 30.8125 30.90625 
Q 39.796875 28.421875 42.796875 25.6875 
Q 45.796875 22.953125 45.796875 18.21875 
Q 45.796875 9.515625 38.890625 4.046875 
Q 31.984375 -1.421875 20.796875 -1.421875 
Q 16.453125 -1.421875 11.671875 -0.578125 
Q 6.890625 0.25 1.125 2 
L 2.875 11.28125 
Q 7.8125 8.734375 12.59375 7.421875 
Q 17.390625 6.109375 21.78125 6.109375 
Q 28.375 6.109375 32.5 8.9375 
Q 36.625 11.765625 36.625 16.109375 
Q 36.625 20.796875 25.78125 23.6875 
L 24.859375 23.921875 
L 21.78125 24.703125 
Q 14.9375 26.515625 11.765625 29.46875 
Q 8.59375 32.421875 8.59375 37.015625 
Q 8.59375 45.75 15.15625 50.875 
Q 21.734375 56 33.015625 56 
Q 37.453125 56 41.671875 55.265625 
Q 45.90625 54.546875 50 53.078125 
z
" id="DejaVuSans-Oblique-115"/>
     </defs>
     <use transform="translate(0 0.546875)" xlink:href="#DejaVuSans-73"/>
     <use transform="translate(25.867188 0.546875)" xlink:href="#DejaVuSans-109"/>
     <use transform="translate(123.279297 0.546875)" xlink:href="#DejaVuSans-112"/>
     <use transform="translate(186.755859 0.546875)" xlink:href="#DejaVuSans-117"/>
     <use transform="translate(250.134766 0.546875)" xlink:href="#DejaVuSans-108"/>
     <use transform="translate(277.917969 0.546875)" xlink:href="#DejaVuSans-115"/>
     <use transform="translate(330.017578 0.546875)" xlink:href="#DejaVuSans-101"/>
     <use transform="translate(391.541016 0.546875)" xlink:href="#DejaVuSans-32"/>
     <use transform="translate(423.328125 0.546875)" xlink:href="#DejaVuSans-84"/>
     <use transform="translate(484.412109 0.546875)" xlink:href="#DejaVuSans-114"/>
     <use transform="translate(525.525391 0.546875)" xlink:href="#DejaVuSans-97"/>
     <use transform="translate(586.804688 0.546875)" xlink:href="#DejaVuSans-105"/>
     <use transform="translate(614.587891 0.546875)" xlink:href="#DejaVuSans-110"/>
     <use transform="translate(677.966797 0.546875)" xlink:href="#DejaVuSans-32"/>
     <use transform="translate(709.753906 19.296875)" xlink:href="#DejaVuSansDisplay-8721"/>
     <use transform="translate(732.753906 -65.809375)scale(0.7)" xlink:href="#DejaVuSans-Oblique-110"/>
     <use transform="translate(800.519531 0.546875)" xlink:href="#DejaVuSans-Oblique-948"/>
     <use transform="translate(861.701172 0.546875)" xlink:href="#DejaVuSans-40"/>
     <use transform="translate(900.714844 0.546875)" xlink:href="#DejaVuSans-Oblique-116"/>
     <use transform="translate(959.40625 0.546875)" xlink:href="#DejaVuSans-8722"/>
     <use transform="translate(1062.677734 0.546875)" xlink:href="#DejaVuSans-Oblique-110"/>
     <use transform="translate(1145.539062 0.546875)" xlink:href="#DejaVuSans-8901"/>
     <use transform="translate(1196.808594 0.546875)" xlink:href="#DejaVuSans-Oblique-84"/>
     <use transform="translate(1257.892578 -15.859375)scale(0.7)" xlink:href="#DejaVuSans-Oblique-115"/>
     <use transform="translate(1297.09668 0.546875)" xlink:href="#DejaVuSans-41"/>
    </g>
   </g>
  </g>
  <g id="axes_2">
   <g id="patch_26">
    <path d="M 650.75 153.61 
L 1141.2 153.61 
L 1141.2 49.175 
L 650.75 49.175 
z
" style="fill:#ffffff;"/>
   </g>
   <g id="patch_27">
    <path clip-path="url(#p985fee91ef)" d="M 351.030556 53.922045 
L 353.755278 61.517318 
L 351.711736 61.517318 
L 351.711736 148.862955 
L 350.349375 148.862955 
L 350.349375 61.517318 
L 348.305833 61.517318 
z
" style="stroke:#000000;stroke-linejoin:miter;"/>
   </g>
   <g id="patch_28">
    <path clip-path="url(#p985fee91ef)" d="M 405.525 53.922045 
L 408.249722 61.517318 
L 406.206181 61.517318 
L 406.206181 148.862955 
L 404.843819 148.862955 
L 404.843819 61.517318 
L 402.800278 61.517318 
z
" style="stroke:#000000;stroke-linejoin:miter;"/>
   </g>
   <g id="patch_29">
    <path clip-path="url(#p985fee91ef)" d="M 460.019444 53.922045 
L 462.744167 61.517318 
L 460.700625 61.517318 
L 460.700625 148.862955 
L 459.338264 148.862955 
L 459.338264 61.517318 
L 457.294722 61.517318 
z
" style="stroke:#000000;stroke-linejoin:miter;"/>
   </g>
   <g id="patch_30">
    <path clip-path="url(#p985fee91ef)" d="M 514.513889 53.922045 
L 517.238611 61.517318 
L 515.195069 61.517318 
L 515.195069 148.862955 
L 513.832708 148.862955 
L 513.832708 61.517318 
L 511.789167 61.517318 
z
" style="stroke:#000000;stroke-linejoin:miter;"/>
   </g>
   <g id="patch_31">
    <path clip-path="url(#p985fee91ef)" d="M 569.008333 53.922045 
L 571.733056 61.517318 
L 569.689514 61.517318 
L 569.689514 148.862955 
L 568.327153 148.862955 
L 568.327153 61.517318 
L 566.283611 61.517318 
z
" style="stroke:#000000;stroke-linejoin:miter;"/>
   </g>
   <g id="patch_32">
    <path clip-path="url(#p985fee91ef)" d="M 623.502778 53.922045 
L 626.2275 61.517318 
L 624.183958 61.517318 
L 624.183958 148.862955 
L 622.821597 148.862955 
L 622.821597 61.517318 
L 620.778056 61.517318 
z
" style="stroke:#000000;stroke-linejoin:miter;"/>
   </g>
   <g id="patch_33">
    <path clip-path="url(#p985fee91ef)" d="M 677.997222 53.922045 
L 680.721944 61.517318 
L 678.678403 61.517318 
L 678.678403 148.862955 
L 677.316042 148.862955 
L 677.316042 61.517318 
L 675.2725 61.517318 
z
" style="stroke:#000000;stroke-linejoin:miter;"/>
   </g>
   <g id="patch_34">
    <path clip-path="url(#p985fee91ef)" d="M 732.491667 53.922045 
L 735.216389 61.517318 
L 733.172847 61.517318 
L 733.172847 148.862955 
L 731.810486 148.862955 
L 731.810486 61.517318 
L 729.766944 61.517318 
z
" style="stroke:#000000;stroke-linejoin:miter;"/>
   </g>
   <g id="patch_35">
    <path clip-path="url(#p985fee91ef)" d="M 786.986111 53.922045 
L 789.710833 61.517318 
L 787.667292 61.517318 
L 787.667292 148.862955 
L 786.304931 148.862955 
L 786.304931 61.517318 
L 784.261389 61.517318 
z
" style="stroke:#000000;stroke-linejoin:miter;"/>
   </g>
   <g id="patch_36">
    <path clip-path="url(#p985fee91ef)" d="M 841.480556 53.922045 
L 844.205278 61.517318 
L 842.161736 61.517318 
L 842.161736 148.862955 
L 840.799375 148.862955 
L 840.799375 61.517318 
L 838.755833 61.517318 
z
" style="stroke:#000000;stroke-linejoin:miter;"/>
   </g>
   <g id="patch_37">
    <path clip-path="url(#p985fee91ef)" d="M 895.975 53.922045 
L 898.699722 61.517318 
L 896.656181 61.517318 
L 896.656181 148.862955 
L 895.293819 148.862955 
L 895.293819 61.517318 
L 893.250278 61.517318 
z
" style="stroke:#000000;stroke-linejoin:miter;"/>
   </g>
   <g id="patch_38">
    <path clip-path="url(#p985fee91ef)" d="M 950.469444 53.922045 
L 953.194167 61.517318 
L 951.150625 61.517318 
L 951.150625 148.862955 
L 949.788264 148.862955 
L 949.788264 61.517318 
L 947.744722 61.517318 
z
" style="stroke:#000000;stroke-linejoin:miter;"/>
   </g>
   <g id="patch_39">
    <path clip-path="url(#p985fee91ef)" d="M 1004.963889 53.922045 
L 1007.688611 61.517318 
L 1005.645069 61.517318 
L 1005.645069 148.862955 
L 1004.282708 148.862955 
L 1004.282708 61.517318 
L 1002.239167 61.517318 
z
" style="stroke:#000000;stroke-linejoin:miter;"/>
   </g>
   <g id="patch_40">
    <path clip-path="url(#p985fee91ef)" d="M 1059.458333 53.922045 
L 1062.183056 61.517318 
L 1060.139514 61.517318 
L 1060.139514 148.862955 
L 1058.777153 148.862955 
L 1058.777153 61.517318 
L 1056.733611 61.517318 
z
" style="stroke:#000000;stroke-linejoin:miter;"/>
   </g>
   <g id="patch_41">
    <path clip-path="url(#p985fee91ef)" d="M 1113.952778 53.922045 
L 1116.6775 61.517318 
L 1114.633958 61.517318 
L 1114.633958 148.862955 
L 1113.271597 148.862955 
L 1113.271597 61.517318 
L 1111.228056 61.517318 
z
" style="stroke:#000000;stroke-linejoin:miter;"/>
   </g>
   <g id="patch_42">
    <path clip-path="url(#p985fee91ef)" d="M 1168.447222 53.922045 
L 1171.171944 61.517318 
L 1169.128403 61.517318 
L 1169.128403 148.862955 
L 1167.766042 148.862955 
L 1167.766042 61.517318 
L 1165.7225 61.517318 
z
" style="stroke:#000000;stroke-linejoin:miter;"/>
   </g>
   <g id="patch_43">
    <path clip-path="url(#p985fee91ef)" d="M 1222.941667 53.922045 
L 1225.666389 61.517318 
L 1223.622847 61.517318 
L 1223.622847 148.862955 
L 1222.260486 148.862955 
L 1222.260486 61.517318 
L 1220.216944 61.517318 
z
" style="stroke:#000000;stroke-linejoin:miter;"/>
   </g>
   <g id="patch_44">
    <path clip-path="url(#p985fee91ef)" d="M 1277.436111 53.922045 
L 1280.160833 61.517318 
L 1278.117292 61.517318 
L 1278.117292 148.862955 
L 1276.754931 148.862955 
L 1276.754931 61.517318 
L 1274.711389 61.517318 
z
" style="stroke:#000000;stroke-linejoin:miter;"/>
   </g>
   <g id="patch_45">
    <path clip-path="url(#p985fee91ef)" d="M 1331.930556 53.922045 
L 1334.655278 61.517318 
L 1332.611736 61.517318 
L 1332.611736 148.862955 
L 1331.249375 148.862955 
L 1331.249375 61.517318 
L 1329.205833 61.517318 
z
" style="stroke:#000000;stroke-linejoin:miter;"/>
   </g>
   <g id="patch_46">
    <path clip-path="url(#p985fee91ef)" d="M 1386.425 53.922045 
L 1389.149722 61.517318 
L 1387.106181 61.517318 
L 1387.106181 148.862955 
L 1385.743819 148.862955 
L 1385.743819 61.517318 
L 1383.700278 61.517318 
z
" style="stroke:#000000;stroke-linejoin:miter;"/>
   </g>
   <g id="patch_47">
    <path clip-path="url(#p985fee91ef)" d="M 1440.919444 53.922045 
L 1443.644167 61.517318 
L 1441.600625 61.517318 
L 1441.600625 148.862955 
L 1440.238264 148.862955 
L 1440.238264 61.517318 
L 1438.194722 61.517318 
z
" style="stroke:#000000;stroke-linejoin:miter;"/>
   </g>
   <g id="matplotlib.axis_3">
    <g id="xtick_10">
     <g id="line2d_30">
      <path clip-path="url(#p985fee91ef)" d="M 677.997222 153.61 
L 677.997222 49.175 
" style="fill:none;stroke:#cccccc;stroke-dasharray:1.85,0.8;stroke-dashoffset:0;stroke-width:0.5;"/>
     </g>
     <g id="line2d_31">
      <g>
       <use style="stroke:#000000;stroke-width:0.8;" x="677.997222" xlink:href="#ma69f620db1" y="153.61"/>
      </g>
     </g>
     <g id="text_17">
      <!-- −4 -->
      <g transform="translate(666.203472 172.7675)scale(0.16 -0.16)">
       <use xlink:href="#DejaVuSans-8722"/>
       <use x="83.789062" xlink:href="#DejaVuSans-52"/>
      </g>
     </g>
    </g>
    <g id="xtick_11">
     <g id="line2d_32">
      <path clip-path="url(#p985fee91ef)" d="M 732.491667 153.61 
L 732.491667 49.175 
" style="fill:none;stroke:#cccccc;stroke-dasharray:1.85,0.8;stroke-dashoffset:0;stroke-width:0.5;"/>
     </g>
     <g id="line2d_33">
      <g>
       <use style="stroke:#000000;stroke-width:0.8;" x="732.491667" xlink:href="#ma69f620db1" y="153.61"/>
      </g>
     </g>
     <g id="text_18">
      <!-- −3 -->
      <g transform="translate(720.697917 172.7675)scale(0.16 -0.16)">
       <use xlink:href="#DejaVuSans-8722"/>
       <use x="83.789062" xlink:href="#DejaVuSans-51"/>
      </g>
     </g>
    </g>
    <g id="xtick_12">
     <g id="line2d_34">
      <path clip-path="url(#p985fee91ef)" d="M 786.986111 153.61 
L 786.986111 49.175 
" style="fill:none;stroke:#cccccc;stroke-dasharray:1.85,0.8;stroke-dashoffset:0;stroke-width:0.5;"/>
     </g>
     <g id="line2d_35">
      <g>
       <use style="stroke:#000000;stroke-width:0.8;" x="786.986111" xlink:href="#ma69f620db1" y="153.61"/>
      </g>
     </g>
     <g id="text_19">
      <!-- −2 -->
      <g transform="translate(775.192361 172.7675)scale(0.16 -0.16)">
       <use xlink:href="#DejaVuSans-8722"/>
       <use x="83.789062" xlink:href="#DejaVuSans-50"/>
      </g>
     </g>
    </g>
    <g id="xtick_13">
     <g id="line2d_36">
      <path clip-path="url(#p985fee91ef)" d="M 841.480556 153.61 
L 841.480556 49.175 
" style="fill:none;stroke:#cccccc;stroke-dasharray:1.85,0.8;stroke-dashoffset:0;stroke-width:0.5;"/>
     </g>
     <g id="line2d_37">
      <g>
       <use style="stroke:#000000;stroke-width:0.8;" x="841.480556" xlink:href="#ma69f620db1" y="153.61"/>
      </g>
     </g>
     <g id="text_20">
      <!-- −1 -->
      <g transform="translate(829.686806 172.7675)scale(0.16 -0.16)">
       <use xlink:href="#DejaVuSans-8722"/>
       <use x="83.789062" xlink:href="#DejaVuSans-49"/>
      </g>
     </g>
    </g>
    <g id="xtick_14">
     <g id="line2d_38">
      <path clip-path="url(#p985fee91ef)" d="M 895.975 153.61 
L 895.975 49.175 
" style="fill:none;stroke:#cccccc;stroke-dasharray:1.85,0.8;stroke-dashoffset:0;stroke-width:0.5;"/>
     </g>
     <g id="line2d_39">
      <g>
       <use style="stroke:#000000;stroke-width:0.8;" x="895.975" xlink:href="#ma69f620db1" y="153.61"/>
      </g>
     </g>
     <g id="text_21">
      <!-- 0 -->
      <g transform="translate(890.885 172.7675)scale(0.16 -0.16)">
       <use xlink:href="#DejaVuSans-48"/>
      </g>
     </g>
    </g>
    <g id="xtick_15">
     <g id="line2d_40">
      <path clip-path="url(#p985fee91ef)" d="M 950.469444 153.61 
L 950.469444 49.175 
" style="fill:none;stroke:#cccccc;stroke-dasharray:1.85,0.8;stroke-dashoffset:0;stroke-width:0.5;"/>
     </g>
     <g id="line2d_41">
      <g>
       <use style="stroke:#000000;stroke-width:0.8;" x="950.469444" xlink:href="#ma69f620db1" y="153.61"/>
      </g>
     </g>
     <g id="text_22">
      <!-- 1 -->
      <g transform="translate(945.379444 172.7675)scale(0.16 -0.16)">
       <use xlink:href="#DejaVuSans-49"/>
      </g>
     </g>
    </g>
    <g id="xtick_16">
     <g id="line2d_42">
      <path clip-path="url(#p985fee91ef)" d="M 1004.963889 153.61 
L 1004.963889 49.175 
" style="fill:none;stroke:#cccccc;stroke-dasharray:1.85,0.8;stroke-dashoffset:0;stroke-width:0.5;"/>
     </g>
     <g id="line2d_43">
      <g>
       <use style="stroke:#000000;stroke-width:0.8;" x="1004.963889" xlink:href="#ma69f620db1" y="153.61"/>
      </g>
     </g>
     <g id="text_23">
      <!-- 2 -->
      <g transform="translate(999.873889 172.7675)scale(0.16 -0.16)">
       <use xlink:href="#DejaVuSans-50"/>
      </g>
     </g>
    </g>
    <g id="xtick_17">
     <g id="line2d_44">
      <path clip-path="url(#p985fee91ef)" d="M 1059.458333 153.61 
L 1059.458333 49.175 
" style="fill:none;stroke:#cccccc;stroke-dasharray:1.85,0.8;stroke-dashoffset:0;stroke-width:0.5;"/>
     </g>
     <g id="line2d_45">
      <g>
       <use style="stroke:#000000;stroke-width:0.8;" x="1059.458333" xlink:href="#ma69f620db1" y="153.61"/>
      </g>
     </g>
     <g id="text_24">
      <!-- 3 -->
      <g transform="translate(1054.368333 172.7675)scale(0.16 -0.16)">
       <use xlink:href="#DejaVuSans-51"/>
      </g>
     </g>
    </g>
    <g id="xtick_18">
     <g id="line2d_46">
      <path clip-path="url(#p985fee91ef)" d="M 1113.952778 153.61 
L 1113.952778 49.175 
" style="fill:none;stroke:#cccccc;stroke-dasharray:1.85,0.8;stroke-dashoffset:0;stroke-width:0.5;"/>
     </g>
     <g id="line2d_47">
      <g>
       <use style="stroke:#000000;stroke-width:0.8;" x="1113.952778" xlink:href="#ma69f620db1" y="153.61"/>
      </g>
     </g>
     <g id="text_25">
      <!-- 4 -->
      <g transform="translate(1108.862778 172.7675)scale(0.16 -0.16)">
       <use xlink:href="#DejaVuSans-52"/>
      </g>
     </g>
    </g>
    <g id="text_26">
     <!-- $\frac{\omega}{2\pi T_s}$ (1/sec) -->
     <g transform="translate(852.295 193.535)scale(0.16 -0.16)">
      <defs>
       <path d="M 21.390625 -1.421875 
Q 1.125 -1.421875 6.78125 27.59375 
Q 8.984375 39.0625 19.625 54.6875 
L 29.296875 54.6875 
Q 19.234375 39.0625 17 27.34375 
Q 12.796875 6.203125 23.734375 6.203125 
Q 33.84375 6.203125 38.71875 32.46875 
L 47.015625 32.46875 
Q 41.703125 6.0625 51.8125 6.203125 
Q 62.703125 6.296875 66.796875 27.34375 
Q 69.046875 39.0625 65.140625 54.6875 
L 74.8125 54.6875 
Q 79.296875 39.0625 77.09375 27.59375 
Q 71.53125 -1.46875 51.21875 -1.421875 
Q 37.9375 -1.375 39.109375 13.1875 
Q 34.28125 -1.421875 21.390625 -1.421875 
z
" id="DejaVuSans-Oblique-969"/>
       <path d="M 9.125 54.6875 
L 61.53125 54.6875 
L 59.765625 45.703125 
L 52.875 45.703125 
L 46.34375 12.109375 
Q 45.65625 8.59375 46.578125 7.03125 
Q 47.46875 5.515625 50.140625 5.515625 
Q 50.875 5.515625 51.953125 5.671875 
Q 53.078125 5.765625 53.421875 5.8125 
L 52.15625 -0.6875 
Q 50.34375 -1.3125 48.484375 -1.609375 
Q 46.578125 -1.90625 44.78125 -1.90625 
Q 38.921875 -1.90625 37.3125 1.265625 
Q 35.6875 4.5 37.359375 13.09375 
L 43.703125 45.703125 
L 23.53125 45.703125 
L 14.65625 0 
L 5.46875 0 
L 14.359375 45.703125 
L 7.375 45.703125 
z
" id="DejaVuSans-Oblique-960"/>
       <path d="M 25.390625 72.90625 
L 33.6875 72.90625 
L 8.296875 -9.28125 
L 0 -9.28125 
z
" id="DejaVuSans-47"/>
       <path d="M 48.78125 52.59375 
L 48.78125 44.1875 
Q 44.96875 46.296875 41.140625 47.34375 
Q 37.3125 48.390625 33.40625 48.390625 
Q 24.65625 48.390625 19.8125 42.84375 
Q 14.984375 37.3125 14.984375 27.296875 
Q 14.984375 17.28125 19.8125 11.734375 
Q 24.65625 6.203125 33.40625 6.203125 
Q 37.3125 6.203125 41.140625 7.25 
Q 44.96875 8.296875 48.78125 10.40625 
L 48.78125 2.09375 
Q 45.015625 0.34375 40.984375 -0.53125 
Q 36.96875 -1.421875 32.421875 -1.421875 
Q 20.0625 -1.421875 12.78125 6.34375 
Q 5.515625 14.109375 5.515625 27.296875 
Q 5.515625 40.671875 12.859375 48.328125 
Q 20.21875 56 33.015625 56 
Q 37.15625 56 41.109375 55.140625 
Q 45.0625 54.296875 48.78125 52.59375 
z
" id="DejaVuSans-99"/>
      </defs>
      <use transform="translate(49 45.71875)scale(0.7)" xlink:href="#DejaVuSans-Oblique-969"/>
      <use transform="translate(0 -38.5125)scale(0.7)" xlink:href="#DejaVuSans-50"/>
      <use transform="translate(44.536133 -38.5125)scale(0.7)" xlink:href="#DejaVuSans-Oblique-960"/>
      <use transform="translate(86.679688 -38.5125)scale(0.7)" xlink:href="#DejaVuSans-Oblique-84"/>
      <use transform="translate(129.438477 -49.996875)scale(0.49)" xlink:href="#DejaVuSans-Oblique-115"/>
      <use transform="translate(169.381348 0.89375)" xlink:href="#DejaVuSans-32"/>
      <use transform="translate(201.168457 0.89375)" xlink:href="#DejaVuSans-40"/>
      <use transform="translate(240.182129 0.89375)" xlink:href="#DejaVuSans-49"/>
      <use transform="translate(303.805176 0.89375)" xlink:href="#DejaVuSans-47"/>
      <use transform="translate(337.496582 0.89375)" xlink:href="#DejaVuSans-115"/>
      <use transform="translate(389.596191 0.89375)" xlink:href="#DejaVuSans-101"/>
      <use transform="translate(451.119629 0.89375)" xlink:href="#DejaVuSans-99"/>
      <use transform="translate(506.100098 0.89375)" xlink:href="#DejaVuSans-41"/>
      <path d="M 0 19.690625 
L 0 25.940625 
L 156.881348 25.940625 
L 156.881348 19.690625 
L 0 19.690625 
z
"/>
     </g>
    </g>
   </g>
   <g id="matplotlib.axis_4">
    <g id="ytick_6">
     <g id="line2d_48">
      <path clip-path="url(#p985fee91ef)" d="M 650.75 148.862955 
L 1141.2 148.862955 
" style="fill:none;stroke:#cccccc;stroke-dasharray:1.85,0.8;stroke-dashoffset:0;stroke-width:0.5;"/>
     </g>
     <g id="line2d_49">
      <g>
       <use style="stroke:#000000;stroke-width:0.8;" x="650.75" xlink:href="#m4bbc0ba568" y="148.862955"/>
      </g>
     </g>
     <g id="text_27">
      <!-- 0 -->
      <g transform="translate(633.57 154.941705)scale(0.16 -0.16)">
       <use xlink:href="#DejaVuSans-48"/>
      </g>
     </g>
    </g>
    <g id="ytick_7">
     <g id="line2d_50">
      <path clip-path="url(#p985fee91ef)" d="M 650.75 118.642325 
L 1141.2 118.642325 
" style="fill:none;stroke:#cccccc;stroke-dasharray:1.85,0.8;stroke-dashoffset:0;stroke-width:0.5;"/>
     </g>
     <g id="line2d_51">
      <g>
       <use style="stroke:#000000;stroke-width:0.8;" x="650.75" xlink:href="#m4bbc0ba568" y="118.642325"/>
      </g>
     </g>
     <g id="text_28">
      <!-- 2 -->
      <g transform="translate(633.57 124.721075)scale(0.16 -0.16)">
       <use xlink:href="#DejaVuSans-50"/>
      </g>
     </g>
    </g>
    <g id="ytick_8">
     <g id="line2d_52">
      <path clip-path="url(#p985fee91ef)" d="M 650.75 88.421695 
L 1141.2 88.421695 
" style="fill:none;stroke:#cccccc;stroke-dasharray:1.85,0.8;stroke-dashoffset:0;stroke-width:0.5;"/>
     </g>
     <g id="line2d_53">
      <g>
       <use style="stroke:#000000;stroke-width:0.8;" x="650.75" xlink:href="#m4bbc0ba568" y="88.421695"/>
      </g>
     </g>
     <g id="text_29">
      <!-- 4 -->
      <g transform="translate(633.57 94.500445)scale(0.16 -0.16)">
       <use xlink:href="#DejaVuSans-52"/>
      </g>
     </g>
    </g>
    <g id="ytick_9">
     <g id="line2d_54">
      <path clip-path="url(#p985fee91ef)" d="M 650.75 58.201065 
L 1141.2 58.201065 
" style="fill:none;stroke:#cccccc;stroke-dasharray:1.85,0.8;stroke-dashoffset:0;stroke-width:0.5;"/>
     </g>
     <g id="line2d_55">
      <g>
       <use style="stroke:#000000;stroke-width:0.8;" x="650.75" xlink:href="#m4bbc0ba568" y="58.201065"/>
      </g>
     </g>
     <g id="text_30">
      <!-- 6 -->
      <g transform="translate(633.57 64.279815)scale(0.16 -0.16)">
       <defs>
        <path d="M 33.015625 40.375 
Q 26.375 40.375 22.484375 35.828125 
Q 18.609375 31.296875 18.609375 23.390625 
Q 18.609375 15.53125 22.484375 10.953125 
Q 26.375 6.390625 33.015625 6.390625 
Q 39.65625 6.390625 43.53125 10.953125 
Q 47.40625 15.53125 47.40625 23.390625 
Q 47.40625 31.296875 43.53125 35.828125 
Q 39.65625 40.375 33.015625 40.375 
z
M 52.59375 71.296875 
L 52.59375 62.3125 
Q 48.875 64.0625 45.09375 64.984375 
Q 41.3125 65.921875 37.59375 65.921875 
Q 27.828125 65.921875 22.671875 59.328125 
Q 17.53125 52.734375 16.796875 39.40625 
Q 19.671875 43.65625 24.015625 45.921875 
Q 28.375 48.1875 33.59375 48.1875 
Q 44.578125 48.1875 50.953125 41.515625 
Q 57.328125 34.859375 57.328125 23.390625 
Q 57.328125 12.15625 50.6875 5.359375 
Q 44.046875 -1.421875 33.015625 -1.421875 
Q 20.359375 -1.421875 13.671875 8.265625 
Q 6.984375 17.96875 6.984375 36.375 
Q 6.984375 53.65625 15.1875 63.9375 
Q 23.390625 74.21875 37.203125 74.21875 
Q 40.921875 74.21875 44.703125 73.484375 
Q 48.484375 72.75 52.59375 71.296875 
z
" id="DejaVuSans-54"/>
       </defs>
       <use xlink:href="#DejaVuSans-54"/>
      </g>
     </g>
    </g>
   </g>
   <g id="line2d_56">
    <path clip-path="url(#p985fee91ef)" d="M 650.75 148.862955 
L 1141.2 148.862955 
" style="fill:none;stroke:#000000;stroke-linecap:square;stroke-width:2;"/>
   </g>
   <g id="patch_48">
    <path d="M 650.75 153.61 
L 650.75 49.175 
" style="fill:none;stroke:#000000;stroke-linecap:square;stroke-linejoin:miter;stroke-width:0.8;"/>
   </g>
   <g id="patch_49">
    <path d="M 650.75 153.61 
L 1141.2 153.61 
" style="fill:none;stroke:#000000;stroke-linecap:square;stroke-linejoin:miter;stroke-width:0.8;"/>
   </g>
   <g id="text_31">
    <!-- Fourier Transform of Impulse Train $\frac{2\pi}{T_s} \sum_{n} \delta( \omega - n\cdot \omega_s) $ -->
    <g transform="translate(665.395 37.115)scale(0.18 -0.18)">
     <defs>
      <path d="M 9.8125 72.90625 
L 51.703125 72.90625 
L 51.703125 64.59375 
L 19.671875 64.59375 
L 19.671875 43.109375 
L 48.578125 43.109375 
L 48.578125 34.8125 
L 19.671875 34.8125 
L 19.671875 0 
L 9.8125 0 
z
" id="DejaVuSans-70"/>
      <path d="M 30.609375 48.390625 
Q 23.390625 48.390625 19.1875 42.75 
Q 14.984375 37.109375 14.984375 27.296875 
Q 14.984375 17.484375 19.15625 11.84375 
Q 23.34375 6.203125 30.609375 6.203125 
Q 37.796875 6.203125 41.984375 11.859375 
Q 46.1875 17.53125 46.1875 27.296875 
Q 46.1875 37.015625 41.984375 42.703125 
Q 37.796875 48.390625 30.609375 48.390625 
z
M 30.609375 56 
Q 42.328125 56 49.015625 48.375 
Q 55.71875 40.765625 55.71875 27.296875 
Q 55.71875 13.875 49.015625 6.21875 
Q 42.328125 -1.421875 30.609375 -1.421875 
Q 18.84375 -1.421875 12.171875 6.21875 
Q 5.515625 13.875 5.515625 27.296875 
Q 5.515625 40.765625 12.171875 48.375 
Q 18.84375 56 30.609375 56 
z
" id="DejaVuSans-111"/>
      <path d="M 37.109375 75.984375 
L 37.109375 68.5 
L 28.515625 68.5 
Q 23.6875 68.5 21.796875 66.546875 
Q 19.921875 64.59375 19.921875 59.515625 
L 19.921875 54.6875 
L 34.71875 54.6875 
L 34.71875 47.703125 
L 19.921875 47.703125 
L 19.921875 0 
L 10.890625 0 
L 10.890625 47.703125 
L 2.296875 47.703125 
L 2.296875 54.6875 
L 10.890625 54.6875 
L 10.890625 58.5 
Q 10.890625 67.625 15.140625 71.796875 
Q 19.390625 75.984375 28.609375 75.984375 
z
" id="DejaVuSans-102"/>
     </defs>
     <use transform="translate(0 0.546875)" xlink:href="#DejaVuSans-70"/>
     <use transform="translate(57.519531 0.546875)" xlink:href="#DejaVuSans-111"/>
     <use transform="translate(118.701172 0.546875)" xlink:href="#DejaVuSans-117"/>
     <use transform="translate(182.080078 0.546875)" xlink:href="#DejaVuSans-114"/>
     <use transform="translate(223.193359 0.546875)" xlink:href="#DejaVuSans-105"/>
     <use transform="translate(250.976562 0.546875)" xlink:href="#DejaVuSans-101"/>
     <use transform="translate(312.5 0.546875)" xlink:href="#DejaVuSans-114"/>
     <use transform="translate(353.613281 0.546875)" xlink:href="#DejaVuSans-32"/>
     <use transform="translate(385.400391 0.546875)" xlink:href="#DejaVuSans-84"/>
     <use transform="translate(446.484375 0.546875)" xlink:href="#DejaVuSans-114"/>
     <use transform="translate(487.597656 0.546875)" xlink:href="#DejaVuSans-97"/>
     <use transform="translate(548.876953 0.546875)" xlink:href="#DejaVuSans-110"/>
     <use transform="translate(612.255859 0.546875)" xlink:href="#DejaVuSans-115"/>
     <use transform="translate(664.355469 0.546875)" xlink:href="#DejaVuSans-102"/>
     <use transform="translate(699.560547 0.546875)" xlink:href="#DejaVuSans-111"/>
     <use transform="translate(760.742188 0.546875)" xlink:href="#DejaVuSans-114"/>
     <use transform="translate(801.855469 0.546875)" xlink:href="#DejaVuSans-109"/>
     <use transform="translate(899.267578 0.546875)" xlink:href="#DejaVuSans-32"/>
     <use transform="translate(931.054688 0.546875)" xlink:href="#DejaVuSans-111"/>
     <use transform="translate(992.236328 0.546875)" xlink:href="#DejaVuSans-102"/>
     <use transform="translate(1027.441406 0.546875)" xlink:href="#DejaVuSans-32"/>
     <use transform="translate(1059.228516 0.546875)" xlink:href="#DejaVuSans-73"/>
     <use transform="translate(1085.095703 0.546875)" xlink:href="#DejaVuSans-109"/>
     <use transform="translate(1182.507812 0.546875)" xlink:href="#DejaVuSans-112"/>
     <use transform="translate(1245.984375 0.546875)" xlink:href="#DejaVuSans-117"/>
     <use transform="translate(1309.363281 0.546875)" xlink:href="#DejaVuSans-108"/>
     <use transform="translate(1337.146484 0.546875)" xlink:href="#DejaVuSans-115"/>
     <use transform="translate(1389.246094 0.546875)" xlink:href="#DejaVuSans-101"/>
     <use transform="translate(1450.769531 0.546875)" xlink:href="#DejaVuSans-32"/>
     <use transform="translate(1482.556641 0.546875)" xlink:href="#DejaVuSans-84"/>
     <use transform="translate(1543.640625 0.546875)" xlink:href="#DejaVuSans-114"/>
     <use transform="translate(1584.753906 0.546875)" xlink:href="#DejaVuSans-97"/>
     <use transform="translate(1646.033203 0.546875)" xlink:href="#DejaVuSans-105"/>
     <use transform="translate(1673.816406 0.546875)" xlink:href="#DejaVuSans-110"/>
     <use transform="translate(1737.195312 0.546875)" xlink:href="#DejaVuSans-32"/>
     <use transform="translate(1768.982422 45.678125)scale(0.7)" xlink:href="#DejaVuSans-50"/>
     <use transform="translate(1813.518555 45.678125)scale(0.7)" xlink:href="#DejaVuSans-Oblique-960"/>
     <use transform="translate(1776.982422 -37.940625)scale(0.7)" xlink:href="#DejaVuSans-Oblique-84"/>
     <use transform="translate(1819.741211 -49.425)scale(0.49)" xlink:href="#DejaVuSans-Oblique-115"/>
     <use transform="translate(1868.162109 19.296875)" xlink:href="#DejaVuSansDisplay-8721"/>
     <use transform="translate(1891.162109 -65.809375)scale(0.7)" xlink:href="#DejaVuSans-Oblique-110"/>
     <use transform="translate(1958.927734 0.546875)" xlink:href="#DejaVuSans-Oblique-948"/>
     <use transform="translate(2020.109375 0.546875)" xlink:href="#DejaVuSans-40"/>
     <use transform="translate(2059.123047 0.546875)" xlink:href="#DejaVuSans-Oblique-969"/>
     <use transform="translate(2162.345703 0.546875)" xlink:href="#DejaVuSans-8722"/>
     <use transform="translate(2265.617188 0.546875)" xlink:href="#DejaVuSans-Oblique-110"/>
     <use transform="translate(2348.478516 0.546875)" xlink:href="#DejaVuSans-8901"/>
     <use transform="translate(2399.748047 0.546875)" xlink:href="#DejaVuSans-Oblique-969"/>
     <use transform="translate(2483.488281 -15.859375)scale(0.7)" xlink:href="#DejaVuSans-Oblique-115"/>
     <use transform="translate(2522.692383 0.546875)" xlink:href="#DejaVuSans-41"/>
     <path d="M 1768.982422 19.34375 
L 1768.982422 25.59375 
L 1855.662109 25.59375 
L 1855.662109 19.34375 
L 1768.982422 19.34375 
z
"/>
    </g>
   </g>
  </g>
 </g>
 <defs>
  <clipPath id="pbba4fc08c5">
   <rect height="104.435" width="490.45" x="43.175" y="49.175"/>
  </clipPath>
  <clipPath id="p985fee91ef">
   <rect height="104.435" width="490.45" x="650.75" y="49.175"/>
  </clipPath>
 </defs>
</svg>
