<?xml version="1.0" encoding="utf-8" standalone="no"?>
<!DOCTYPE svg PUBLIC "-//W3C//DTD SVG 1.1//EN"
  "http://www.w3.org/Graphics/SVG/1.1/DTD/svg11.dtd">
<!-- Created with matplotlib (https://matplotlib.org/) -->
<svg height="288pt" version="1.1" viewBox="0 0 1080 288" width="1080pt" xmlns="http://www.w3.org/2000/svg" xmlns:xlink="http://www.w3.org/1999/xlink">
 <metadata>
  <rdf:RDF xmlns:cc="http://creativecommons.org/ns#" xmlns:dc="http://purl.org/dc/elements/1.1/" xmlns:rdf="http://www.w3.org/1999/02/22-rdf-syntax-ns#">
   <cc:Work>
    <dc:type rdf:resource="http://purl.org/dc/dcmitype/StillImage"/>
    <dc:date>2021-08-20T10:40:23.982927</dc:date>
    <dc:format>image/svg+xml</dc:format>
    <dc:creator>
     <cc:Agent>
      <dc:title>Matplotlib v3.3.4, https://matplotlib.org/</dc:title>
     </cc:Agent>
    </dc:creator>
   </cc:Work>
  </rdf:RDF>
 </metadata>
 <defs>
  <style type="text/css">*{stroke-linecap:butt;stroke-linejoin:round;}</style>
 </defs>
 <g id="figure_1">
  <g id="patch_1">
   <path d="M 0 288 
L 1080 288 
L 1080 0 
L 0 0 
z
" style="fill:none;"/>
  </g>
  <g id="axes_1">
   <g id="line2d_1">
    <path clip-path="url(#pfd1249ff75)" d="M -1 157.727724 
L 33.319149 157.727724 
L 33.319149 91.40894 
L 89.617021 91.40894 
L 89.617021 152.942184 
L 145.914894 152.942184 
L 145.914894 259.12156 
L 202.212766 259.12156 
L 202.212766 109.931546 
L 258.510638 109.931546 
L 258.510638 181.171381 
L 314.808511 181.171381 
L 314.808511 118.027471 
L 371.106383 118.027471 
L 371.106383 192.737254 
L 427.404255 192.737254 
L 427.404255 203.357288 
L 483.702128 203.357288 
L 483.702128 212.48531 
L 540 212.48531 
L 540 194.644364 
L 596.297872 194.644364 
L 596.297872 111.831453 
L 652.595745 111.831453 
L 652.595745 154.082595 
L 708.893617 154.082595 
L 708.893617 198.800497 
L 765.191489 198.800497 
L 765.191489 191.196385 
L 821.489362 191.196385 
L 821.489362 168.371105 
L 877.787234 168.371105 
L 877.787234 82.022895 
L 934.085106 82.022895 
L 934.085106 106.258907 
L 990.382979 106.258907 
L 990.382979 147.28943 
L 1046.680851 147.28943 
L 1046.680851 147.966422 
L 1081 147.966422 
L 1081 147.966422 
" style="fill:none;stroke:#d62728;stroke-linecap:square;stroke-width:1.5;"/>
   </g>
   <g id="line2d_2">
    <path clip-path="url(#pfd1249ff75)" d="M 10.8 144 
L 1069.2 144 
" style="fill:none;stroke:#808080;stroke-linecap:square;"/>
   </g>
  </g>
 </g>
 <defs>
  <clipPath id="pfd1249ff75">
   <rect height="266.4" width="1058.4" x="10.8" y="10.8"/>
  </clipPath>
 </defs>
</svg>
