<?xml version="1.0" encoding="utf-8" standalone="no"?>
<!DOCTYPE svg PUBLIC "-//W3C//DTD SVG 1.1//EN"
  "http://www.w3.org/Graphics/SVG/1.1/DTD/svg11.dtd">
<!-- Created with matplotlib (https://matplotlib.org/) -->
<svg height="288pt" version="1.1" viewBox="0 0 1080 288" width="1080pt" xmlns="http://www.w3.org/2000/svg" xmlns:xlink="http://www.w3.org/1999/xlink">
 <metadata>
  <rdf:RDF xmlns:cc="http://creativecommons.org/ns#" xmlns:dc="http://purl.org/dc/elements/1.1/" xmlns:rdf="http://www.w3.org/1999/02/22-rdf-syntax-ns#">
   <cc:Work>
    <dc:type rdf:resource="http://purl.org/dc/dcmitype/StillImage"/>
    <dc:date>2021-08-20T10:00:48.429188</dc:date>
    <dc:format>image/svg+xml</dc:format>
    <dc:creator>
     <cc:Agent>
      <dc:title>Matplotlib v3.3.4, https://matplotlib.org/</dc:title>
     </cc:Agent>
    </dc:creator>
   </cc:Work>
  </rdf:RDF>
 </metadata>
 <defs>
  <style type="text/css">*{stroke-linecap:butt;stroke-linejoin:round;}</style>
 </defs>
 <g id="figure_1">
  <g id="patch_1">
   <path d="M 0 288 
L 1080 288 
L 1080 0 
L 0 0 
z
" style="fill:none;"/>
  </g>
  <g id="axes_1">
   <g id="line2d_1">
    <path clip-path="url(#p78dd3e68b6)" d="M 10.8 120.868608 
L 12.620848 85.104213 
L 13.141091 78.855204 
L 13.661333 73.481924 
L 15.742303 48.654314 
L 16.522667 44.706021 
L 17.042909 43.536291 
L 17.30303 43.39059 
L 18.863758 39.152342 
L 19.123879 38.847834 
L 19.384 38.351259 
L 20.164364 35.488865 
L 20.424485 34.819756 
L 21.204848 32.037162 
L 21.46497 31.937041 
L 21.725091 31.485464 
L 21.985212 31.814077 
L 22.245333 32.486771 
L 22.505455 33.783723 
L 23.025697 38.016819 
L 23.545939 44.060917 
L 24.326303 59.969316 
L 25.366788 79.410836 
L 28.228121 125.427838 
L 28.748364 131.364312 
L 29.528727 138.543497 
L 30.309091 142.690003 
L 31.349576 147.865236 
L 31.609697 149.24457 
L 32.129939 150.406236 
L 32.390061 151.325657 
L 33.170424 156.342115 
L 34.47103 163.940505 
L 34.731152 165.062474 
L 34.991273 165.559934 
L 35.251394 165.640014 
L 35.511515 165.399722 
L 36.031758 163.879038 
L 36.552 160.326742 
L 37.072242 154.919982 
L 38.112727 141.780767 
L 41.234182 104.809748 
L 42.014545 95.055711 
L 43.315152 83.804886 
L 43.575273 82.156365 
L 44.355636 79.549693 
L 44.615758 78.972817 
L 45.136 79.71595 
L 45.396121 79.757352 
L 46.176485 78.350235 
L 46.436606 78.402119 
L 46.696727 79.017022 
L 47.21697 78.924397 
L 47.477091 78.998025 
L 47.997333 79.824747 
L 48.257455 80.608065 
L 48.777697 83.203156 
L 49.297939 86.965186 
L 50.078303 93.061862 
L 51.118788 100.400279 
L 51.63903 102.137153 
L 51.899152 103.129491 
L 52.159273 103.606996 
L 52.679515 105.256326 
L 52.939636 105.419826 
L 53.199758 105.39517 
L 53.459879 105.642417 
L 53.980121 108.479637 
L 56.321212 127.794662 
L 56.841455 130.303751 
L 57.101576 130.730414 
L 57.621818 132.785446 
L 58.142061 135.580469 
L 59.182545 143.957306 
L 59.442667 145.302597 
L 59.702788 145.804186 
L 60.743273 149.278697 
L 61.263515 151.242026 
L 61.523636 151.436553 
L 61.783758 151.833591 
L 62.043879 151.876798 
L 62.564121 152.371365 
L 62.824242 152.942184 
L 63.344485 156.668025 
L 64.124848 164.800968 
L 65.945697 192.099831 
L 66.986182 211.339989 
L 67.506424 218.341821 
L 68.546909 230.077797 
L 69.327273 236.157863 
L 70.107636 245.126652 
L 70.627879 249.911511 
L 70.888 251.101353 
L 71.148121 251.579081 
L 71.668364 250.810796 
L 71.928485 250.621776 
L 72.188606 250.267386 
L 72.448727 250.477392 
L 72.96897 251.982717 
L 73.489212 253.895577 
L 74.269576 255.452536 
L 74.789818 257.24436 
L 75.049939 258.165105 
L 75.570182 258.980455 
L 75.830303 259.12156 
L 76.350545 256.577011 
L 76.870788 252.582605 
L 78.951758 226.734938 
L 80.252364 206.895088 
L 80.772606 200.923706 
L 81.55297 191.335739 
L 82.073212 186.381787 
L 82.593455 180.147037 
L 84.154182 157.447592 
L 86.235152 136.013278 
L 87.275636 122.479807 
L 87.795879 117.031023 
L 88.576242 111.110685 
L 88.836364 109.931546 
L 89.096485 109.502202 
L 89.356606 109.290387 
L 89.616727 109.429008 
L 89.876848 110.023973 
L 90.13697 111.17513 
L 90.397091 111.5741 
L 90.917333 112.980304 
L 91.697697 115.761058 
L 91.957818 116.349957 
L 92.217939 116.660089 
L 92.478061 116.672097 
L 92.998303 116.895634 
L 93.258424 116.9422 
L 93.518545 116.534832 
L 94.55903 119.95343 
L 94.819152 120.74579 
L 95.339394 124.343602 
L 95.859636 129.452566 
L 96.64 139.008174 
L 98.460848 157.519877 
L 98.981091 162.650765 
L 100.021576 175.005396 
L 100.541818 178.455468 
L 101.322182 181.853054 
L 101.582303 181.817453 
L 101.842424 181.171381 
L 102.362667 178.725779 
L 103.14303 173.700893 
L 103.923394 171.14788 
L 104.443636 169.579988 
L 104.963879 169.547134 
L 105.484121 170.715965 
L 105.744242 170.929575 
L 106.264485 170.941318 
L 106.524606 170.522717 
L 107.565091 163.584929 
L 108.085333 158.63113 
L 110.946667 127.960661 
L 111.466909 124.254642 
L 112.767515 116.184504 
L 113.027636 115.187763 
L 113.287758 114.926213 
L 113.808 115.731012 
L 114.328242 115.706616 
L 114.588364 116.467823 
L 115.108606 120.189536 
L 116.149091 128.268238 
L 117.449697 134.839092 
L 117.969939 136.04635 
L 118.230061 136.395489 
L 119.010424 138.677538 
L 119.530667 142.326687 
L 121.871758 164.643423 
L 122.912242 172.804882 
L 123.432485 177.637294 
L 124.212848 183.133323 
L 124.993212 185.232121 
L 125.253333 186.533543 
L 125.773576 187.507411 
L 126.293818 189.096202 
L 126.814061 189.70507 
L 127.594424 192.11813 
L 127.854545 192.737254 
L 128.114667 192.857313 
L 128.374788 192.680664 
L 128.634909 192.797993 
L 128.89503 192.465516 
L 129.415273 192.36237 
L 129.935515 191.796182 
L 130.455758 190.793319 
L 130.715879 190.691184 
L 130.976 190.739707 
L 131.236121 190.557437 
L 131.496242 189.937676 
L 131.756364 190.380721 
L 132.016485 190.36451 
L 133.317091 186.188126 
L 133.577212 185.70545 
L 133.837333 185.510733 
L 134.097455 184.915824 
L 134.357576 185.005867 
L 134.877818 186.381947 
L 135.398061 187.744298 
L 135.918303 189.671032 
L 136.438545 190.568829 
L 136.698667 191.391229 
L 136.958788 191.782931 
L 137.47903 194.113001 
L 137.999273 197.006356 
L 138.259394 197.84721 
L 138.779636 200.445391 
L 139.039758 201.292917 
L 140.600485 203.868667 
L 140.860606 203.357288 
L 141.120727 203.183641 
L 141.380848 203.281354 
L 141.64097 203.084026 
L 141.901091 203.468553 
L 142.161212 203.554152 
L 142.421333 203.294363 
L 142.941576 203.455146 
L 143.721939 205.671885 
L 144.242182 207.952491 
L 144.502303 209.490286 
L 145.022545 210.567071 
L 146.06303 215.703365 
L 147.363636 218.706086 
L 147.623758 218.915344 
L 147.883879 218.901354 
L 148.144 219.09062 
L 148.404121 219.048366 
L 148.664242 218.748839 
L 149.704727 218.24642 
L 150.22497 218.328625 
L 150.485091 218.070162 
L 151.005333 217.089165 
L 151.265455 216.864452 
L 151.785697 215.298032 
L 152.045818 214.374787 
L 152.305939 214.230323 
L 152.566061 214.608137 
L 153.606545 212.331007 
L 153.866667 212.48531 
L 154.386909 213.369655 
L 155.167273 215.287886 
L 155.687515 217.439068 
L 156.207758 219.29241 
L 156.467879 219.615837 
L 156.728 219.656995 
L 156.988121 219.085148 
L 157.768485 216.664002 
L 158.028606 216.627337 
L 158.288727 216.293156 
L 158.80897 215.115897 
L 159.069091 214.991232 
L 159.329212 214.698608 
L 159.849455 213.388832 
L 160.109576 212.639611 
L 160.369697 212.737642 
L 160.889939 212.358867 
L 161.670303 210.663377 
L 161.930424 210.098279 
L 162.190545 209.14966 
L 162.710788 208.428485 
L 163.751273 205.833963 
L 164.011394 205.734372 
L 164.531636 203.891555 
L 165.051879 202.683538 
L 165.312 201.831145 
L 165.572121 200.117989 
L 165.832242 199.339239 
L 166.872727 194.644364 
L 167.913212 184.099014 
L 169.994182 161.57197 
L 171.034667 154.473572 
L 172.855515 139.56346 
L 174.156121 131.261513 
L 174.936485 127.932379 
L 175.196606 127.618749 
L 176.237091 121.768547 
L 177.277576 116.929879 
L 177.537697 116.601541 
L 179.098424 112.685045 
L 179.618667 111.806756 
L 179.878788 111.831453 
L 180.138909 112.561114 
L 180.39903 113.664013 
L 180.659152 114.017708 
L 181.179394 115.474548 
L 181.439515 116.462832 
L 181.959758 119.480178 
L 183.000242 122.630618 
L 183.520485 123.221588 
L 184.040727 122.820481 
L 184.300848 123.257569 
L 184.821091 125.140044 
L 185.341333 127.547435 
L 186.381818 131.435722 
L 186.641939 131.635616 
L 186.902061 131.492492 
L 187.162182 131.511544 
L 187.682424 132.397455 
L 187.942545 133.074124 
L 188.202667 133.207804 
L 188.98303 136.737039 
L 189.503273 138.837718 
L 190.283636 141.129265 
L 191.064 143.632334 
L 193.14497 155.457345 
L 193.405091 156.851067 
L 194.185455 162.734737 
L 194.445576 164.378004 
L 194.705697 165.216104 
L 194.965818 166.583421 
L 195.486061 170.303879 
L 196.006303 174.081768 
L 196.526545 178.116915 
L 197.306909 186.399862 
L 197.827152 189.707745 
L 199.127758 195.785094 
L 199.648 197.674237 
L 200.168242 200.088177 
L 200.688485 200.709313 
L 200.948606 200.589745 
L 201.208727 200.885838 
L 201.468848 199.970793 
L 201.72897 200.166093 
L 202.249212 200.162346 
L 203.289697 201.414436 
L 203.549818 201.378758 
L 204.070061 202.230742 
L 204.590303 202.357669 
L 204.850424 202.151586 
L 205.110545 201.795783 
L 205.890909 198.800497 
L 206.411152 196.733874 
L 207.451636 191.703309 
L 207.711758 191.457035 
L 209.272485 184.260998 
L 209.532606 183.470387 
L 210.052848 180.609734 
L 210.573091 179.506038 
L 210.833212 179.339005 
L 211.093333 178.809405 
L 211.613576 176.683985 
L 211.873697 176.52573 
L 212.133818 175.716035 
L 212.393939 175.510809 
L 213.174303 176.345107 
L 214.214788 179.356974 
L 214.73503 182.29119 
L 215.775515 185.923271 
L 216.035636 186.647599 
L 216.295758 186.977254 
L 216.555879 187.00072 
L 216.816 186.645016 
L 217.076121 186.773911 
L 217.336242 186.615159 
L 217.596364 186.591204 
L 217.856485 186.832087 
L 218.116606 187.36844 
L 218.636848 190.179081 
L 220.457697 197.02372 
L 220.717818 196.92486 
L 220.977939 197.668467 
L 222.018424 201.630992 
L 222.278545 202.097541 
L 222.538667 201.968845 
L 222.798788 201.996954 
L 223.058909 201.38376 
L 224.099394 197.134651 
L 224.359515 197.370839 
L 224.619636 197.222434 
L 225.4 195.441126 
L 225.920242 193.345779 
L 226.180364 192.630678 
L 226.960727 191.556348 
L 227.220848 190.932381 
L 228.261333 185.855943 
L 229.041697 180.611817 
L 229.561939 179.031462 
L 231.122667 173.55117 
L 231.90303 168.371105 
L 233.723879 156.739507 
L 234.244121 152.988329 
L 235.544727 142.169945 
L 236.06497 140.161988 
L 236.585212 139.396781 
L 236.845333 139.247418 
L 237.105455 138.305641 
L 238.145939 130.840926 
L 238.666182 127.687155 
L 239.186424 123.043093 
L 240.226909 111.457767 
L 241.527515 100.147182 
L 242.828121 93.944355 
L 243.088242 91.917153 
L 243.608485 89.708549 
L 244.909091 82.022895 
L 245.429333 80.210413 
L 245.689455 79.516515 
L 246.469818 78.690767 
L 246.729939 78.591086 
L 247.510303 79.396607 
L 247.770424 79.953144 
L 248.030545 79.652295 
L 248.290667 78.844281 
L 248.810909 78.665579 
L 249.331152 77.531145 
L 250.111515 75.353198 
L 250.371636 75.680981 
L 250.891879 77.173059 
L 251.672242 80.548202 
L 252.712727 88.328862 
L 254.013333 95.112214 
L 254.533576 98.665738 
L 255.053818 100.221202 
L 255.313939 100.424293 
L 255.574061 100.344563 
L 255.834182 100.796009 
L 256.094303 102.092787 
L 256.614545 102.251823 
L 257.394909 105.060868 
L 257.65503 105.949504 
L 257.915152 106.258907 
L 258.435394 107.245915 
L 258.695515 107.625304 
L 258.955636 107.247494 
L 259.215758 106.378692 
L 259.736 105.695825 
L 260.516364 103.28615 
L 260.776485 103.513677 
L 261.036606 103.583248 
L 261.296727 103.971259 
L 261.556848 103.778076 
L 261.81697 103.020964 
L 262.077091 103.006729 
L 262.337212 103.219166 
L 262.857455 104.024512 
L 263.117576 105.039291 
L 263.637818 106.083833 
L 263.897939 106.891147 
L 264.418182 107.965353 
L 264.678303 107.905217 
L 265.198545 107.054639 
L 265.458667 107.729378 
L 265.978909 111.408944 
L 266.759273 117.317313 
L 267.019394 118.384675 
L 267.279515 118.850206 
L 267.539636 119.812509 
L 268.32 124.103885 
L 270.140848 139.03886 
L 270.921212 147.28943 
L 271.961697 157.09089 
L 273.522424 173.72663 
L 273.782545 175.199223 
L 275.343273 187.692026 
L 276.383758 192.740755 
L 276.643879 193.103433 
L 276.904 192.886761 
L 277.944485 190.539934 
L 278.204606 190.822694 
L 278.464727 189.716537 
L 278.98497 185.456082 
L 279.765333 176.9802 
L 280.285576 174.68133 
L 281.326061 169.996617 
L 281.846303 167.355741 
L 282.106424 166.173392 
L 283.146909 156.977813 
L 284.707636 138.205065 
L 286.788606 114.402108 
L 288.089212 104.974972 
L 288.609455 102.266661 
L 289.649939 95.483607 
L 289.910061 94.757686 
L 290.170182 94.769272 
L 290.690424 95.973702 
L 290.950545 97.349232 
L 291.210667 97.315113 
L 291.99103 100.161241 
L 292.511273 104.505169 
L 292.771394 106.116097 
L 293.291636 107.884493 
L 294.592242 114.34206 
L 294.852364 115.059549 
L 295.372606 115.576007 
L 295.632727 116.751624 
L 296.413091 122.272398 
L 297.193455 128.139136 
L 297.193455 128.139136 
" style="fill:none;stroke:#d62728;stroke-linecap:square;stroke-width:1.5;"/>
   </g>
   <g id="line2d_2">
    <path clip-path="url(#p78dd3e68b6)" d="M 10.8 144 
L 296.933333 144 
" style="fill:none;stroke:#808080;stroke-linecap:square;"/>
   </g>
  </g>
  <g id="axes_2">
   <g id="line2d_3">
    <path clip-path="url(#p6d024291a6)" d="M 396.933333 199.452906 
L 398.233939 198.64986 
L 398.754182 198.484973 
L 400.835152 199.49522 
L 401.355394 199.722257 
L 402.135758 200.354507 
L 403.436364 200.924365 
L 403.956606 200.875193 
L 404.73697 201.252309 
L 406.037576 201.422621 
L 406.557818 201.183898 
L 407.078061 200.534601 
L 409.679273 196.020539 
L 410.459636 194.871361 
L 410.979879 194.175236 
L 411.500121 193.605663 
L 412.540606 192.034056 
L 413.060848 191.664254 
L 413.581091 191.489842 
L 415.141818 189.606654 
L 415.662061 188.741032 
L 416.702545 187.968753 
L 417.74303 187.289945 
L 419.043636 186.250079 
L 420.864485 183.61269 
L 422.165091 181.149632 
L 423.465697 179.243761 
L 425.286545 177.580114 
L 425.546667 177.420824 
L 426.066909 177.495761 
L 427.367515 178.300714 
L 428.147879 179.18676 
L 429.968727 182.09887 
L 430.749091 183.640555 
L 431.529455 185.181863 
L 432.309818 186.333295 
L 433.090182 187.137815 
L 433.870545 187.112975 
L 434.91103 186.906637 
L 435.171152 186.92949 
L 435.691394 186.768407 
L 436.731879 186.888377 
L 437.772364 186.621074 
L 438.812848 185.959925 
L 439.853333 186.036828 
L 440.373576 186.222881 
L 441.414061 186.256017 
L 441.934303 186.062136 
L 442.194424 186.117103 
L 444.535515 188.66608 
L 446.616485 191.625038 
L 448.957576 196.571676 
L 449.737939 197.52654 
L 451.818909 197.935445 
L 452.859394 197.819117 
L 453.639758 198.107545 
L 454.16 198.676915 
L 454.940364 199.560064 
L 456.24097 200.858886 
L 457.021333 201.889921 
L 459.362424 206.683166 
L 459.882667 207.782013 
L 460.923152 209.161744 
L 463.524364 212.629379 
L 464.304727 213.905583 
L 465.085091 214.713226 
L 465.865455 215.229038 
L 467.426182 216.764132 
L 467.946424 217.26922 
L 468.466667 217.63374 
L 469.767273 218.400119 
L 470.287515 218.852409 
L 470.547636 219.016047 
L 471.328 219.955781 
L 472.888727 222.553292 
L 474.189333 225.388159 
L 474.969697 226.62097 
L 475.750061 227.388267 
L 476.270303 227.632068 
L 477.570909 228.915643 
L 478.091152 229.046633 
L 478.871515 229.059288 
L 479.131636 228.960417 
L 480.432242 227.698741 
L 480.952485 227.046957 
L 481.99297 225.443241 
L 485.114424 217.22862 
L 486.41503 215.273948 
L 487.975758 213.329476 
L 488.496 212.953397 
L 490.316848 212.248879 
L 490.837091 211.841706 
L 492.137697 210.989904 
L 493.178182 209.891765 
L 493.958545 209.028437 
L 494.478788 207.744428 
L 494.99903 206.405144 
L 496.299636 203.975431 
L 497.08 202.785187 
L 497.600242 202.100059 
L 499.681212 198.805579 
L 500.981818 197.694951 
L 501.502061 197.730736 
L 504.363394 199.609933 
L 505.143758 200.454085 
L 505.664 200.618499 
L 506.184242 200.389171 
L 506.704485 200.224151 
L 507.224727 200.146644 
L 507.74497 200.162362 
L 509.045576 199.665698 
L 509.825939 199.001436 
L 510.606303 198.104596 
L 511.126545 197.934124 
L 512.16703 197.994745 
L 512.687273 198.24029 
L 514.248 197.997196 
L 515.028364 197.622904 
L 516.32897 196.44594 
L 517.109333 196.192899 
L 517.629576 196.22044 
L 518.409939 196.519793 
L 519.450424 197.366247 
L 519.970667 198.033833 
L 521.011152 199.543585 
L 523.352242 203.11914 
L 524.132606 203.991828 
L 525.953455 206.599398 
L 526.733818 207.636009 
L 527.774303 208.948973 
L 528.554667 210.126599 
L 529.595152 211.518752 
L 531.155879 213.674393 
L 532.196364 215.565493 
L 533.49697 217.830636 
L 535.057697 221.208175 
L 536.878545 225.089504 
L 537.91903 227.189097 
L 538.699394 228.433805 
L 539.739879 229.35887 
L 540.520242 229.417492 
L 541.040485 229.234484 
L 541.560727 229.102028 
L 542.601212 229.465444 
L 543.121455 229.667369 
L 543.901818 229.780843 
L 544.682182 230.227875 
L 546.242909 232.554144 
L 547.543515 235.251334 
L 548.063758 235.747565 
L 548.844121 236.213983 
L 549.884606 236.130799 
L 550.404848 235.915899 
L 550.925091 235.752612 
L 551.445333 235.335631 
L 553.006061 233.274124 
L 559.769212 217.473363 
L 561.069818 214.233084 
L 562.110303 212.409556 
L 562.890667 211.393617 
L 564.191273 208.447016 
L 565.231758 206.270099 
L 567.052606 203.354117 
L 567.83297 202.864288 
L 568.613333 202.259156 
L 569.393697 201.077845 
L 570.694303 198.470532 
L 571.474667 196.543097 
L 572.25503 194.046381 
L 573.555636 188.921366 
L 575.636606 179.579878 
L 579.018182 163.010588 
L 581.099152 154.303472 
L 582.399758 148.604258 
L 583.700364 143.776971 
L 585.00097 139.95345 
L 586.561697 135.692813 
L 587.862303 133.024964 
L 589.162909 130.948868 
L 589.683152 130.206256 
L 590.203394 129.69025 
L 590.723636 129.474241 
L 591.764121 129.628118 
L 593.845091 131.016352 
L 594.625455 131.264038 
L 595.926061 131.174551 
L 596.446303 130.755282 
L 596.706424 130.559327 
L 597.746909 128.998054 
L 599.567758 125.682846 
L 600.608242 124.540628 
L 601.128485 124.182356 
L 601.648727 124.057608 
L 602.16897 124.377105 
L 602.949333 124.913525 
L 604.249939 126.391814 
L 605.030303 126.919342 
L 607.631515 130.133448 
L 608.672 131.242093 
L 609.192242 131.815897 
L 609.972606 133.309496 
L 612.053576 137.615909 
L 612.833939 138.860889 
L 614.134545 139.658231 
L 615.17503 140.21312 
L 615.955394 141.008089 
L 616.995879 142.899013 
L 617.776242 144.276385 
L 618.816727 145.817994 
L 619.33697 146.451719 
L 619.857212 146.983123 
L 620.637576 147.873971 
L 624.279273 154.901432 
L 625.059636 157.112355 
L 626.100121 160.210845 
L 627.140606 163.27438 
L 628.701333 168.081923 
L 630.001939 171.652444 
L 630.522182 172.814386 
L 631.302545 174.252809 
L 632.082909 175.317512 
L 632.863273 177.17121 
L 634.684121 181.736771 
L 636.765091 185.268091 
L 637.285333 185.606539 
L 637.805576 186.030535 
L 639.106182 186.595527 
L 639.366303 186.80815 
L 639.886545 186.859454 
L 640.666909 186.873767 
L 642.487758 185.744259 
L 643.788364 184.080169 
L 644.828848 182.258255 
L 647.169939 178.83937 
L 647.690182 178.449219 
L 648.210424 178.248852 
L 650.031273 178.392483 
L 650.291394 178.474372 
L 650.811636 178.366712 
L 652.372364 178.858021 
L 653.412848 178.543121 
L 653.67297 178.37057 
L 655.233697 176.457843 
L 655.753939 175.780388 
L 656.274182 175.321487 
L 658.09503 174.349072 
L 658.875394 174.461565 
L 660.436121 174.175935 
L 661.216485 173.797528 
L 662.777212 171.931012 
L 664.077818 170.957306 
L 665.118303 170.696322 
L 665.378424 170.80259 
L 666.158788 170.563714 
L 667.979636 169.483971 
L 668.499879 168.778156 
L 670.84097 163.372759 
L 671.621333 161.396447 
L 673.442182 157.139482 
L 673.962424 155.844488 
L 675.26303 152.463984 
L 676.563636 149.745676 
L 677.083879 148.210803 
L 677.864242 145.805094 
L 679.945212 140.77656 
L 680.465455 140.078572 
L 680.725576 139.88463 
L 681.505939 138.601522 
L 682.286303 137.273809 
L 683.326788 135.711669 
L 683.326788 135.711669 
" style="fill:none;stroke:#1f77b4;stroke-linecap:square;stroke-width:1.5;"/>
   </g>
   <g id="line2d_4">
    <path clip-path="url(#p6d024291a6)" d="M 396.933333 144 
L 683.066667 144 
" style="fill:none;stroke:#808080;stroke-linecap:square;"/>
   </g>
  </g>
  <g id="axes_3">
   <g id="line2d_5">
    <path clip-path="url(#pc8c52a4400)" d="M 783.066667 151.374835 
L 785.546489 161.6519 
L 786.214133 163.894513 
L 787.549422 167.541699 
L 788.312444 170.710242 
L 789.170844 174.378406 
L 790.124622 177.58862 
L 790.792267 180.04435 
L 793.367467 188.336241 
L 794.512 191.330968 
L 795.3704 194.050767 
L 795.847289 194.81354 
L 796.801067 197.474882 
L 798.804 203.809502 
L 799.853156 206.327117 
L 801.093067 208.418975 
L 801.474578 208.805309 
L 802.332978 209.279271 
L 802.619111 209.247723 
L 803.572889 209.656566 
L 804.145156 209.735784 
L 804.431289 209.935004 
L 805.098933 210.640984 
L 805.6712 211.719931 
L 805.957333 212.194687 
L 806.338844 212.795637 
L 807.197244 213.812372 
L 808.055644 214.079449 
L 808.532533 214.466307 
L 808.914044 214.650571 
L 810.916978 215.49801 
L 811.393867 215.31652 
L 811.584622 215.32699 
L 812.919911 214.8672 
L 813.873689 213.03235 
L 814.445956 211.826536 
L 814.922844 211.21816 
L 815.972 208.795745 
L 817.402667 205.098359 
L 818.356444 202.941524 
L 820.264 198.279574 
L 820.836267 197.201388 
L 821.313156 196.126594 
L 822.457689 194.343882 
L 823.316089 193.198094 
L 823.888356 192.206246 
L 824.269867 191.07478 
L 825.986667 185.460266 
L 826.368178 184.5398 
L 826.940444 183.341561 
L 827.798844 181.088198 
L 828.657244 178.977718 
L 829.324889 177.375483 
L 830.660178 175.0446 
L 831.804711 173.8507 
L 832.186222 173.812349 
L 832.472356 173.841403 
L 833.807644 172.944732 
L 834.284533 172.280546 
L 835.238311 169.982024 
L 835.810578 168.731772 
L 837.432 165.314606 
L 838.195022 164.24952 
L 839.721067 162.658727 
L 841.247111 162.465753 
L 842.200889 161.841285 
L 842.5824 161.349906 
L 843.154667 160.960301 
L 843.631556 161.087741 
L 843.917689 161.244585 
L 844.585333 161.591691 
L 845.062222 161.88977 
L 845.252978 161.901854 
L 845.729867 161.508348 
L 846.206756 161.63909 
L 847.542044 162.118094 
L 847.923556 162.190537 
L 848.400444 162.395791 
L 848.972711 162.493748 
L 849.258844 162.428259 
L 849.735733 162.124067 
L 850.117244 162.025756 
L 850.594133 162.116333 
L 850.880267 162.132891 
L 851.357156 162.012323 
L 851.643289 162.020604 
L 852.501689 162.346265 
L 852.787822 162.357582 
L 853.169333 162.62327 
L 853.455467 163.0678 
L 853.455467 163.0678 
" style="fill:none;stroke:#2ca02c;stroke-linecap:square;stroke-width:1.5;"/>
   </g>
   <g id="line2d_6">
    <path clip-path="url(#pc8c52a4400)" d="M 853.550844 118.874063 
L 855.363022 122.47354 
L 855.839911 123.442235 
L 856.698311 124.941261 
L 857.079822 125.496352 
L 857.747467 125.983574 
L 858.0336 126.061687 
L 858.224356 125.907528 
L 859.368889 124.559931 
L 860.227289 122.878638 
L 860.704178 122.130748 
L 861.4672 121.276369 
L 861.848711 120.878089 
L 862.802489 119.709871 
L 863.279378 118.923031 
L 863.756267 117.885315 
L 864.233156 116.899751 
L 865.091556 115.349688 
L 866.045333 111.926735 
L 868.715911 99.098898 
L 869.383556 95.1746 
L 871.386489 83.394903 
L 872.340267 77.591525 
L 873.770933 68.083078 
L 875.487733 57.384285 
L 877.109156 46.565474 
L 877.967556 42.898084 
L 878.444444 41.180048 
L 879.112089 39.445157 
L 880.161244 36.821536 
L 880.828889 34.711127 
L 882.545689 29.863662 
L 883.594844 28.592103 
L 884.167111 28.056768 
L 884.644 28.301755 
L 885.025511 29.003684 
L 886.265422 32.393465 
L 886.742311 34.006321 
L 888.268356 40.646737 
L 890.175911 50.345424 
L 891.225067 55.990197 
L 896.852356 91.636601 
L 897.710756 94.896191 
L 898.855289 97.72345 
L 899.522933 99.297651 
L 900.9536 104.109357 
L 901.430489 105.485312 
L 902.6704 107.330407 
L 903.338044 107.75242 
L 903.814933 107.447512 
L 904.482578 106.509892 
L 906.199378 103.347861 
L 906.580889 102.896715 
L 906.9624 102.47525 
L 907.343911 101.68348 
L 908.583822 98.921251 
L 910.014489 96.597843 
L 910.872889 94.526721 
L 911.922044 91.651208 
L 913.448089 86.946054 
L 914.020356 85.721205 
L 914.974133 84.582269 
L 915.260267 84.376745 
L 916.118667 84.51982 
L 916.977067 84.796121 
L 917.644711 85.372085 
L 918.598489 86.443201 
L 919.170756 86.377249 
L 919.456889 86.231004 
L 919.743022 85.985532 
L 920.506044 85.722007 
L 922.032089 86.522503 
L 922.508978 87.23375 
L 923.272 88.921053 
L 923.653511 90.025021 
L 924.9888 94.280136 
L 926.610222 97.378046 
L 927.373244 99.249345 
L 927.945511 100.220298 
L 928.613156 101.513829 
L 928.994667 102.245893 
L 931.856 109.31608 
L 932.237511 109.849197 
L 933.382044 110.938426 
L 933.858933 111.059428 
L 934.335822 110.951642 
L 934.908089 110.577128 
L 935.480356 110.290279 
L 936.434133 110.700752 
L 937.101778 111.370135 
L 937.483289 111.614091 
L 937.8648 112.179514 
L 938.341689 113.276141 
L 939.5816 117.112144 
L 941.393778 121.854379 
L 942.347556 124.489497 
L 942.919822 125.56403 
L 943.492089 126.261433 
L 943.968978 126.650809 
L 944.541244 127.381318 
L 945.781156 127.993093 
L 945.971911 128.036101 
L 947.974844 129.619889 
L 948.260978 129.692816 
L 948.833244 129.712448 
L 948.833244 129.712448 
" style="fill:none;stroke:#2ca02c;stroke-linecap:square;stroke-width:1.5;"/>
   </g>
   <g id="line2d_7">
    <path clip-path="url(#pc8c52a4400)" d="M 948.928622 174.142957 
L 949.310133 174.397648 
L 949.691644 174.7741 
L 951.026933 177.317876 
L 953.983644 187.126886 
L 954.746667 190.134624 
L 955.509689 192.384018 
L 956.558844 194.310504 
L 957.035733 194.813283 
L 957.321867 194.786605 
L 958.847911 193.300424 
L 959.515556 192.861302 
L 959.801689 192.607869 
L 960.564711 191.39591 
L 961.9 188.625536 
L 962.472267 187.50144 
L 963.807556 186.09254 
L 964.189067 185.897413 
L 964.761333 185.154001 
L 965.047467 184.80064 
L 967.241156 180.302304 
L 969.339467 174.353568 
L 970.102489 171.216635 
L 971.437778 164.948546 
L 972.296178 162.003119 
L 972.963822 158.744628 
L 974.108356 152.332678 
L 976.206667 142.223868 
L 977.065067 139.569322 
L 979.831022 131.804269 
L 980.307911 130.596775 
L 982.406222 125.625881 
L 983.550756 123.640807 
L 984.123022 123.103867 
L 984.409156 123.17808 
L 985.362933 123.404323 
L 985.744444 123.444081 
L 986.125956 123.393566 
L 986.412089 123.506934 
L 986.698222 123.668865 
L 987.461244 123.579448 
L 988.319644 123.762183 
L 988.891911 123.935902 
L 989.845689 124.452402 
L 990.704089 124.44068 
L 990.990222 124.391367 
L 991.562489 124.933009 
L 992.039378 125.945438 
L 992.897778 128.315207 
L 993.565422 129.358767 
L 993.946933 129.981517 
L 994.423822 131.287459 
L 997.475911 140.766741 
L 998.048178 142.565491 
L 998.8112 145.519246 
L 1000.718756 154.540471 
L 1003.389333 165.89925 
L 1004.724622 169.039753 
L 1005.869156 172.794018 
L 1009.016622 183.841014 
L 1009.779644 186.230744 
L 1010.447289 187.642173 
L 1011.019556 188.427247 
L 1011.305689 188.613182 
L 1011.782578 188.737836 
L 1011.973333 188.911091 
L 1012.927111 190.181063 
L 1013.499378 190.644435 
L 1014.167022 190.748493 
L 1014.834667 190.414182 
L 1015.216178 190.225955 
L 1016.074578 189.925209 
L 1016.456089 189.971394 
L 1016.8376 190.095899 
L 1017.314489 189.717742 
L 1017.696 189.092828 
L 1019.4128 185.347629 
L 1021.224978 180.831555 
L 1022.560267 177.048555 
L 1024.467822 173.864794 
L 1025.230844 172.715239 
L 1025.803111 171.424447 
L 1026.184622 170.645626 
L 1027.043022 169.21646 
L 1027.615289 167.76103 
L 1028.473689 165.715754 
L 1028.950578 165.051234 
L 1030.476622 163.426115 
L 1031.144267 163.004581 
L 1031.525778 162.692903 
L 1032.2888 161.726674 
L 1033.433333 160.243372 
L 1034.0056 159.797871 
L 1034.577867 159.195161 
L 1035.150133 158.406195 
L 1035.531644 157.682442 
L 1041.254311 141.93454 
L 1042.112711 138.946726 
L 1042.875733 135.467601 
L 1045.069422 124.643699 
L 1047.167733 115.850237 
L 1049.170667 107.6946 
L 1051.078222 101.630769 
L 1052.318133 98.764281 
L 1054.130311 94.483867 
L 1054.702578 93.716405 
L 1055.084089 93.882175 
L 1055.942489 94.825983 
L 1056.991644 96.873647 
L 1057.563911 97.878944 
L 1058.136178 99.411659 
L 1060.139111 105.166581 
L 1061.665156 112.530217 
L 1062.3328 115.912748 
L 1063.1912 120.130794 
L 1064.335733 125.162542 
L 1065.671022 130.295119 
L 1066.529422 133.525101 
L 1067.387822 135.861977 
L 1067.960089 137.072407 
L 1068.3416 137.616605 
L 1069.009244 138.435222 
L 1069.295378 138.867738 
L 1069.295378 138.867738 
" style="fill:none;stroke:#2ca02c;stroke-linecap:square;stroke-width:1.5;"/>
   </g>
   <g id="line2d_8">
    <path clip-path="url(#pc8c52a4400)" d="M 783.066667 144 
L 1069.2 144 
" style="fill:none;stroke:#808080;stroke-linecap:square;"/>
   </g>
  </g>
 </g>
 <defs>
  <clipPath id="p78dd3e68b6">
   <rect height="266.4" width="286.133333" x="10.8" y="10.8"/>
  </clipPath>
  <clipPath id="p6d024291a6">
   <rect height="266.4" width="286.133333" x="396.933333" y="10.8"/>
  </clipPath>
  <clipPath id="pc8c52a4400">
   <rect height="266.4" width="286.133333" x="783.066667" y="10.8"/>
  </clipPath>
 </defs>
</svg>
