<?xml version="1.0" encoding="utf-8" standalone="no"?>
<!DOCTYPE svg PUBLIC "-//W3C//DTD SVG 1.1//EN"
  "http://www.w3.org/Graphics/SVG/1.1/DTD/svg11.dtd">
<!-- Created with matplotlib (https://matplotlib.org/) -->
<svg height="288pt" version="1.1" viewBox="0 0 1080 288" width="1080pt" xmlns="http://www.w3.org/2000/svg" xmlns:xlink="http://www.w3.org/1999/xlink">
 <metadata>
  <rdf:RDF xmlns:cc="http://creativecommons.org/ns#" xmlns:dc="http://purl.org/dc/elements/1.1/" xmlns:rdf="http://www.w3.org/1999/02/22-rdf-syntax-ns#">
   <cc:Work>
    <dc:type rdf:resource="http://purl.org/dc/dcmitype/StillImage"/>
    <dc:date>2021-11-22T15:37:50.433937</dc:date>
    <dc:format>image/svg+xml</dc:format>
    <dc:creator>
     <cc:Agent>
      <dc:title>Matplotlib v3.3.4, https://matplotlib.org/</dc:title>
     </cc:Agent>
    </dc:creator>
   </cc:Work>
  </rdf:RDF>
 </metadata>
 <defs>
  <style type="text/css">*{stroke-linecap:butt;stroke-linejoin:round;}</style>
 </defs>
 <g id="figure_1">
  <g id="patch_1">
   <path d="M 0 288 
L 1080 288 
L 1080 0 
L 0 0 
z
" style="fill:none;"/>
  </g>
  <g id="axes_1">
   <g id="patch_2">
    <path d="M 46.55 230.2 
L 534.6 230.2 
L 534.6 30.8 
L 46.55 30.8 
z
" style="fill:#ffffff;"/>
   </g>
   <g id="matplotlib.axis_1">
    <g id="xtick_1">
     <g id="line2d_1">
      <path clip-path="url(#p6884565415)" d="M 46.55 230.2 
L 46.55 30.8 
" style="fill:none;stroke:#cccccc;stroke-dasharray:1.85,0.8;stroke-dashoffset:0;stroke-width:0.5;"/>
     </g>
     <g id="line2d_2">
      <defs>
       <path d="M 0 0 
L 0 3.5 
" id="mdb3ccbe806" style="stroke:#000000;stroke-width:0.8;"/>
      </defs>
      <g>
       <use style="stroke:#000000;stroke-width:0.8;" x="46.55" xlink:href="#mdb3ccbe806" y="230.2"/>
      </g>
     </g>
     <g id="text_1">
      <!-- 0.0 -->
      <g transform="translate(32.237188 250.877188)scale(0.18 -0.18)">
       <defs>
        <path d="M 31.78125 66.40625 
Q 24.171875 66.40625 20.328125 58.90625 
Q 16.5 51.421875 16.5 36.375 
Q 16.5 21.390625 20.328125 13.890625 
Q 24.171875 6.390625 31.78125 6.390625 
Q 39.453125 6.390625 43.28125 13.890625 
Q 47.125 21.390625 47.125 36.375 
Q 47.125 51.421875 43.28125 58.90625 
Q 39.453125 66.40625 31.78125 66.40625 
z
M 31.78125 74.21875 
Q 44.046875 74.21875 50.515625 64.515625 
Q 56.984375 54.828125 56.984375 36.375 
Q 56.984375 17.96875 50.515625 8.265625 
Q 44.046875 -1.421875 31.78125 -1.421875 
Q 19.53125 -1.421875 13.0625 8.265625 
Q 6.59375 17.96875 6.59375 36.375 
Q 6.59375 54.828125 13.0625 64.515625 
Q 19.53125 74.21875 31.78125 74.21875 
z
" id="DejaVuSans-48"/>
        <path d="M 10.6875 12.40625 
L 21 12.40625 
L 21 0 
L 10.6875 0 
z
" id="DejaVuSans-46"/>
       </defs>
       <use xlink:href="#DejaVuSans-48"/>
       <use x="63.623047" xlink:href="#DejaVuSans-46"/>
       <use x="95.410156" xlink:href="#DejaVuSans-48"/>
      </g>
     </g>
    </g>
    <g id="xtick_2">
     <g id="line2d_3">
      <path clip-path="url(#p6884565415)" d="M 95.355 230.2 
L 95.355 30.8 
" style="fill:none;stroke:#cccccc;stroke-dasharray:1.85,0.8;stroke-dashoffset:0;stroke-width:0.5;"/>
     </g>
     <g id="line2d_4">
      <g>
       <use style="stroke:#000000;stroke-width:0.8;" x="95.355" xlink:href="#mdb3ccbe806" y="230.2"/>
      </g>
     </g>
     <g id="text_2">
      <!-- 0.2 -->
      <g transform="translate(81.042187 250.877188)scale(0.18 -0.18)">
       <defs>
        <path d="M 19.1875 8.296875 
L 53.609375 8.296875 
L 53.609375 0 
L 7.328125 0 
L 7.328125 8.296875 
Q 12.9375 14.109375 22.625 23.890625 
Q 32.328125 33.6875 34.8125 36.53125 
Q 39.546875 41.84375 41.421875 45.53125 
Q 43.3125 49.21875 43.3125 52.78125 
Q 43.3125 58.59375 39.234375 62.25 
Q 35.15625 65.921875 28.609375 65.921875 
Q 23.96875 65.921875 18.8125 64.3125 
Q 13.671875 62.703125 7.8125 59.421875 
L 7.8125 69.390625 
Q 13.765625 71.78125 18.9375 73 
Q 24.125 74.21875 28.421875 74.21875 
Q 39.75 74.21875 46.484375 68.546875 
Q 53.21875 62.890625 53.21875 53.421875 
Q 53.21875 48.921875 51.53125 44.890625 
Q 49.859375 40.875 45.40625 35.40625 
Q 44.1875 33.984375 37.640625 27.21875 
Q 31.109375 20.453125 19.1875 8.296875 
z
" id="DejaVuSans-50"/>
       </defs>
       <use xlink:href="#DejaVuSans-48"/>
       <use x="63.623047" xlink:href="#DejaVuSans-46"/>
       <use x="95.410156" xlink:href="#DejaVuSans-50"/>
      </g>
     </g>
    </g>
    <g id="xtick_3">
     <g id="line2d_5">
      <path clip-path="url(#p6884565415)" d="M 144.16 230.2 
L 144.16 30.8 
" style="fill:none;stroke:#cccccc;stroke-dasharray:1.85,0.8;stroke-dashoffset:0;stroke-width:0.5;"/>
     </g>
     <g id="line2d_6">
      <g>
       <use style="stroke:#000000;stroke-width:0.8;" x="144.16" xlink:href="#mdb3ccbe806" y="230.2"/>
      </g>
     </g>
     <g id="text_3">
      <!-- 0.4 -->
      <g transform="translate(129.847187 250.877188)scale(0.18 -0.18)">
       <defs>
        <path d="M 37.796875 64.3125 
L 12.890625 25.390625 
L 37.796875 25.390625 
z
M 35.203125 72.90625 
L 47.609375 72.90625 
L 47.609375 25.390625 
L 58.015625 25.390625 
L 58.015625 17.1875 
L 47.609375 17.1875 
L 47.609375 0 
L 37.796875 0 
L 37.796875 17.1875 
L 4.890625 17.1875 
L 4.890625 26.703125 
z
" id="DejaVuSans-52"/>
       </defs>
       <use xlink:href="#DejaVuSans-48"/>
       <use x="63.623047" xlink:href="#DejaVuSans-46"/>
       <use x="95.410156" xlink:href="#DejaVuSans-52"/>
      </g>
     </g>
    </g>
    <g id="xtick_4">
     <g id="line2d_7">
      <path clip-path="url(#p6884565415)" d="M 192.965 230.2 
L 192.965 30.8 
" style="fill:none;stroke:#cccccc;stroke-dasharray:1.85,0.8;stroke-dashoffset:0;stroke-width:0.5;"/>
     </g>
     <g id="line2d_8">
      <g>
       <use style="stroke:#000000;stroke-width:0.8;" x="192.965" xlink:href="#mdb3ccbe806" y="230.2"/>
      </g>
     </g>
     <g id="text_4">
      <!-- 0.6 -->
      <g transform="translate(178.652187 250.877188)scale(0.18 -0.18)">
       <defs>
        <path d="M 33.015625 40.375 
Q 26.375 40.375 22.484375 35.828125 
Q 18.609375 31.296875 18.609375 23.390625 
Q 18.609375 15.53125 22.484375 10.953125 
Q 26.375 6.390625 33.015625 6.390625 
Q 39.65625 6.390625 43.53125 10.953125 
Q 47.40625 15.53125 47.40625 23.390625 
Q 47.40625 31.296875 43.53125 35.828125 
Q 39.65625 40.375 33.015625 40.375 
z
M 52.59375 71.296875 
L 52.59375 62.3125 
Q 48.875 64.0625 45.09375 64.984375 
Q 41.3125 65.921875 37.59375 65.921875 
Q 27.828125 65.921875 22.671875 59.328125 
Q 17.53125 52.734375 16.796875 39.40625 
Q 19.671875 43.65625 24.015625 45.921875 
Q 28.375 48.1875 33.59375 48.1875 
Q 44.578125 48.1875 50.953125 41.515625 
Q 57.328125 34.859375 57.328125 23.390625 
Q 57.328125 12.15625 50.6875 5.359375 
Q 44.046875 -1.421875 33.015625 -1.421875 
Q 20.359375 -1.421875 13.671875 8.265625 
Q 6.984375 17.96875 6.984375 36.375 
Q 6.984375 53.65625 15.1875 63.9375 
Q 23.390625 74.21875 37.203125 74.21875 
Q 40.921875 74.21875 44.703125 73.484375 
Q 48.484375 72.75 52.59375 71.296875 
z
" id="DejaVuSans-54"/>
       </defs>
       <use xlink:href="#DejaVuSans-48"/>
       <use x="63.623047" xlink:href="#DejaVuSans-46"/>
       <use x="95.410156" xlink:href="#DejaVuSans-54"/>
      </g>
     </g>
    </g>
    <g id="xtick_5">
     <g id="line2d_9">
      <path clip-path="url(#p6884565415)" d="M 241.77 230.2 
L 241.77 30.8 
" style="fill:none;stroke:#cccccc;stroke-dasharray:1.85,0.8;stroke-dashoffset:0;stroke-width:0.5;"/>
     </g>
     <g id="line2d_10">
      <g>
       <use style="stroke:#000000;stroke-width:0.8;" x="241.77" xlink:href="#mdb3ccbe806" y="230.2"/>
      </g>
     </g>
     <g id="text_5">
      <!-- 0.8 -->
      <g transform="translate(227.457187 250.877188)scale(0.18 -0.18)">
       <defs>
        <path d="M 31.78125 34.625 
Q 24.75 34.625 20.71875 30.859375 
Q 16.703125 27.09375 16.703125 20.515625 
Q 16.703125 13.921875 20.71875 10.15625 
Q 24.75 6.390625 31.78125 6.390625 
Q 38.8125 6.390625 42.859375 10.171875 
Q 46.921875 13.96875 46.921875 20.515625 
Q 46.921875 27.09375 42.890625 30.859375 
Q 38.875 34.625 31.78125 34.625 
z
M 21.921875 38.8125 
Q 15.578125 40.375 12.03125 44.71875 
Q 8.5 49.078125 8.5 55.328125 
Q 8.5 64.0625 14.71875 69.140625 
Q 20.953125 74.21875 31.78125 74.21875 
Q 42.671875 74.21875 48.875 69.140625 
Q 55.078125 64.0625 55.078125 55.328125 
Q 55.078125 49.078125 51.53125 44.71875 
Q 48 40.375 41.703125 38.8125 
Q 48.828125 37.15625 52.796875 32.3125 
Q 56.78125 27.484375 56.78125 20.515625 
Q 56.78125 9.90625 50.3125 4.234375 
Q 43.84375 -1.421875 31.78125 -1.421875 
Q 19.734375 -1.421875 13.25 4.234375 
Q 6.78125 9.90625 6.78125 20.515625 
Q 6.78125 27.484375 10.78125 32.3125 
Q 14.796875 37.15625 21.921875 38.8125 
z
M 18.3125 54.390625 
Q 18.3125 48.734375 21.84375 45.5625 
Q 25.390625 42.390625 31.78125 42.390625 
Q 38.140625 42.390625 41.71875 45.5625 
Q 45.3125 48.734375 45.3125 54.390625 
Q 45.3125 60.0625 41.71875 63.234375 
Q 38.140625 66.40625 31.78125 66.40625 
Q 25.390625 66.40625 21.84375 63.234375 
Q 18.3125 60.0625 18.3125 54.390625 
z
" id="DejaVuSans-56"/>
       </defs>
       <use xlink:href="#DejaVuSans-48"/>
       <use x="63.623047" xlink:href="#DejaVuSans-46"/>
       <use x="95.410156" xlink:href="#DejaVuSans-56"/>
      </g>
     </g>
    </g>
    <g id="xtick_6">
     <g id="line2d_11">
      <path clip-path="url(#p6884565415)" d="M 290.575 230.2 
L 290.575 30.8 
" style="fill:none;stroke:#cccccc;stroke-dasharray:1.85,0.8;stroke-dashoffset:0;stroke-width:0.5;"/>
     </g>
     <g id="line2d_12">
      <g>
       <use style="stroke:#000000;stroke-width:0.8;" x="290.575" xlink:href="#mdb3ccbe806" y="230.2"/>
      </g>
     </g>
     <g id="text_6">
      <!-- 1.0 -->
      <g transform="translate(276.262187 250.877188)scale(0.18 -0.18)">
       <defs>
        <path d="M 12.40625 8.296875 
L 28.515625 8.296875 
L 28.515625 63.921875 
L 10.984375 60.40625 
L 10.984375 69.390625 
L 28.421875 72.90625 
L 38.28125 72.90625 
L 38.28125 8.296875 
L 54.390625 8.296875 
L 54.390625 0 
L 12.40625 0 
z
" id="DejaVuSans-49"/>
       </defs>
       <use xlink:href="#DejaVuSans-49"/>
       <use x="63.623047" xlink:href="#DejaVuSans-46"/>
       <use x="95.410156" xlink:href="#DejaVuSans-48"/>
      </g>
     </g>
    </g>
    <g id="xtick_7">
     <g id="line2d_13">
      <path clip-path="url(#p6884565415)" d="M 339.38 230.2 
L 339.38 30.8 
" style="fill:none;stroke:#cccccc;stroke-dasharray:1.85,0.8;stroke-dashoffset:0;stroke-width:0.5;"/>
     </g>
     <g id="line2d_14">
      <g>
       <use style="stroke:#000000;stroke-width:0.8;" x="339.38" xlink:href="#mdb3ccbe806" y="230.2"/>
      </g>
     </g>
     <g id="text_7">
      <!-- 1.2 -->
      <g transform="translate(325.067187 250.877188)scale(0.18 -0.18)">
       <use xlink:href="#DejaVuSans-49"/>
       <use x="63.623047" xlink:href="#DejaVuSans-46"/>
       <use x="95.410156" xlink:href="#DejaVuSans-50"/>
      </g>
     </g>
    </g>
    <g id="xtick_8">
     <g id="line2d_15">
      <path clip-path="url(#p6884565415)" d="M 388.185 230.2 
L 388.185 30.8 
" style="fill:none;stroke:#cccccc;stroke-dasharray:1.85,0.8;stroke-dashoffset:0;stroke-width:0.5;"/>
     </g>
     <g id="line2d_16">
      <g>
       <use style="stroke:#000000;stroke-width:0.8;" x="388.185" xlink:href="#mdb3ccbe806" y="230.2"/>
      </g>
     </g>
     <g id="text_8">
      <!-- 1.4 -->
      <g transform="translate(373.872187 250.877188)scale(0.18 -0.18)">
       <use xlink:href="#DejaVuSans-49"/>
       <use x="63.623047" xlink:href="#DejaVuSans-46"/>
       <use x="95.410156" xlink:href="#DejaVuSans-52"/>
      </g>
     </g>
    </g>
    <g id="xtick_9">
     <g id="line2d_17">
      <path clip-path="url(#p6884565415)" d="M 436.99 230.2 
L 436.99 30.8 
" style="fill:none;stroke:#cccccc;stroke-dasharray:1.85,0.8;stroke-dashoffset:0;stroke-width:0.5;"/>
     </g>
     <g id="line2d_18">
      <g>
       <use style="stroke:#000000;stroke-width:0.8;" x="436.99" xlink:href="#mdb3ccbe806" y="230.2"/>
      </g>
     </g>
     <g id="text_9">
      <!-- 1.6 -->
      <g transform="translate(422.677187 250.877188)scale(0.18 -0.18)">
       <use xlink:href="#DejaVuSans-49"/>
       <use x="63.623047" xlink:href="#DejaVuSans-46"/>
       <use x="95.410156" xlink:href="#DejaVuSans-54"/>
      </g>
     </g>
    </g>
    <g id="xtick_10">
     <g id="line2d_19">
      <path clip-path="url(#p6884565415)" d="M 485.795 230.2 
L 485.795 30.8 
" style="fill:none;stroke:#cccccc;stroke-dasharray:1.85,0.8;stroke-dashoffset:0;stroke-width:0.5;"/>
     </g>
     <g id="line2d_20">
      <g>
       <use style="stroke:#000000;stroke-width:0.8;" x="485.795" xlink:href="#mdb3ccbe806" y="230.2"/>
      </g>
     </g>
     <g id="text_10">
      <!-- 1.8 -->
      <g transform="translate(471.482187 250.877188)scale(0.18 -0.18)">
       <use xlink:href="#DejaVuSans-49"/>
       <use x="63.623047" xlink:href="#DejaVuSans-46"/>
       <use x="95.410156" xlink:href="#DejaVuSans-56"/>
      </g>
     </g>
    </g>
    <g id="text_11">
     <!-- $\Omega / \pi$ -->
     <g transform="translate(275.185 272.297813)scale(0.18 -0.18)">
      <defs>
       <path d="M 72.609375 8.6875 
L 72.609375 0 
L 43.3125 0 
L 43.3125 8.6875 
Q 51.953125 13.421875 56.78125 21.53125 
Q 61.625 29.640625 61.625 39.5 
Q 61.625 51.21875 55.171875 58.296875 
Q 48.734375 65.375 38.1875 65.375 
Q 27.640625 65.375 21.171875 58.265625 
Q 14.703125 51.171875 14.703125 39.5 
Q 14.703125 29.640625 19.53125 21.53125 
Q 24.421875 13.421875 33.109375 8.6875 
L 33.109375 0 
L 3.8125 0 
L 3.8125 8.6875 
L 19.390625 8.6875 
Q 11.671875 15.484375 8.109375 22.75 
Q 4.59375 30.03125 4.59375 39.015625 
Q 4.59375 54.546875 13.96875 64.15625 
Q 23.296875 73.78125 38.1875 73.78125 
Q 52.984375 73.78125 62.40625 64.15625 
Q 71.78125 54.59375 71.78125 39.5 
Q 71.78125 30.03125 68.3125 22.796875 
Q 64.84375 15.578125 56.984375 8.6875 
z
" id="DejaVuSans-937"/>
       <path d="M 25.390625 72.90625 
L 33.6875 72.90625 
L 8.296875 -9.28125 
L 0 -9.28125 
z
" id="DejaVuSans-47"/>
       <path d="M 9.125 54.6875 
L 61.53125 54.6875 
L 59.765625 45.703125 
L 52.875 45.703125 
L 46.34375 12.109375 
Q 45.65625 8.59375 46.578125 7.03125 
Q 47.46875 5.515625 50.140625 5.515625 
Q 50.875 5.515625 51.953125 5.671875 
Q 53.078125 5.765625 53.421875 5.8125 
L 52.15625 -0.6875 
Q 50.34375 -1.3125 48.484375 -1.609375 
Q 46.578125 -1.90625 44.78125 -1.90625 
Q 38.921875 -1.90625 37.3125 1.265625 
Q 35.6875 4.5 37.359375 13.09375 
L 43.703125 45.703125 
L 23.53125 45.703125 
L 14.65625 0 
L 5.46875 0 
L 14.359375 45.703125 
L 7.375 45.703125 
z
" id="DejaVuSans-Oblique-960"/>
      </defs>
      <use transform="translate(0 0.21875)" xlink:href="#DejaVuSans-937"/>
      <use transform="translate(76.416016 0.21875)" xlink:href="#DejaVuSans-47"/>
      <use transform="translate(110.107422 0.21875)" xlink:href="#DejaVuSans-Oblique-960"/>
     </g>
    </g>
   </g>
   <g id="matplotlib.axis_2">
    <g id="ytick_1">
     <g id="line2d_21">
      <path clip-path="url(#p6884565415)" d="M 46.55 221.136364 
L 534.6 221.136364 
" style="fill:none;stroke:#cccccc;stroke-dasharray:1.85,0.8;stroke-dashoffset:0;stroke-width:0.5;"/>
     </g>
     <g id="line2d_22">
      <defs>
       <path d="M 0 0 
L -3.5 0 
" id="m0470fdb711" style="stroke:#000000;stroke-width:0.8;"/>
      </defs>
      <g>
       <use style="stroke:#000000;stroke-width:0.8;" x="46.55" xlink:href="#m0470fdb711" y="221.136364"/>
      </g>
     </g>
     <g id="text_12">
      <!-- 0.0 -->
      <g transform="translate(10.924375 227.974957)scale(0.18 -0.18)">
       <use xlink:href="#DejaVuSans-48"/>
       <use x="63.623047" xlink:href="#DejaVuSans-46"/>
       <use x="95.410156" xlink:href="#DejaVuSans-48"/>
      </g>
     </g>
    </g>
    <g id="ytick_2">
     <g id="line2d_23">
      <path clip-path="url(#p6884565415)" d="M 46.55 189.031922 
L 534.6 189.031922 
" style="fill:none;stroke:#cccccc;stroke-dasharray:1.85,0.8;stroke-dashoffset:0;stroke-width:0.5;"/>
     </g>
     <g id="line2d_24">
      <g>
       <use style="stroke:#000000;stroke-width:0.8;" x="46.55" xlink:href="#m0470fdb711" y="189.031922"/>
      </g>
     </g>
     <g id="text_13">
      <!-- 0.2 -->
      <g transform="translate(10.924375 195.870516)scale(0.18 -0.18)">
       <use xlink:href="#DejaVuSans-48"/>
       <use x="63.623047" xlink:href="#DejaVuSans-46"/>
       <use x="95.410156" xlink:href="#DejaVuSans-50"/>
      </g>
     </g>
    </g>
    <g id="ytick_3">
     <g id="line2d_25">
      <path clip-path="url(#p6884565415)" d="M 46.55 156.927481 
L 534.6 156.927481 
" style="fill:none;stroke:#cccccc;stroke-dasharray:1.85,0.8;stroke-dashoffset:0;stroke-width:0.5;"/>
     </g>
     <g id="line2d_26">
      <g>
       <use style="stroke:#000000;stroke-width:0.8;" x="46.55" xlink:href="#m0470fdb711" y="156.927481"/>
      </g>
     </g>
     <g id="text_14">
      <!-- 0.4 -->
      <g transform="translate(10.924375 163.766075)scale(0.18 -0.18)">
       <use xlink:href="#DejaVuSans-48"/>
       <use x="63.623047" xlink:href="#DejaVuSans-46"/>
       <use x="95.410156" xlink:href="#DejaVuSans-52"/>
      </g>
     </g>
    </g>
    <g id="ytick_4">
     <g id="line2d_27">
      <path clip-path="url(#p6884565415)" d="M 46.55 124.82304 
L 534.6 124.82304 
" style="fill:none;stroke:#cccccc;stroke-dasharray:1.85,0.8;stroke-dashoffset:0;stroke-width:0.5;"/>
     </g>
     <g id="line2d_28">
      <g>
       <use style="stroke:#000000;stroke-width:0.8;" x="46.55" xlink:href="#m0470fdb711" y="124.82304"/>
      </g>
     </g>
     <g id="text_15">
      <!-- 0.6 -->
      <g transform="translate(10.924375 131.661634)scale(0.18 -0.18)">
       <use xlink:href="#DejaVuSans-48"/>
       <use x="63.623047" xlink:href="#DejaVuSans-46"/>
       <use x="95.410156" xlink:href="#DejaVuSans-54"/>
      </g>
     </g>
    </g>
    <g id="ytick_5">
     <g id="line2d_29">
      <path clip-path="url(#p6884565415)" d="M 46.55 92.718599 
L 534.6 92.718599 
" style="fill:none;stroke:#cccccc;stroke-dasharray:1.85,0.8;stroke-dashoffset:0;stroke-width:0.5;"/>
     </g>
     <g id="line2d_30">
      <g>
       <use style="stroke:#000000;stroke-width:0.8;" x="46.55" xlink:href="#m0470fdb711" y="92.718599"/>
      </g>
     </g>
     <g id="text_16">
      <!-- 0.8 -->
      <g transform="translate(10.924375 99.557193)scale(0.18 -0.18)">
       <use xlink:href="#DejaVuSans-48"/>
       <use x="63.623047" xlink:href="#DejaVuSans-46"/>
       <use x="95.410156" xlink:href="#DejaVuSans-56"/>
      </g>
     </g>
    </g>
    <g id="ytick_6">
     <g id="line2d_31">
      <path clip-path="url(#p6884565415)" d="M 46.55 60.614158 
L 534.6 60.614158 
" style="fill:none;stroke:#cccccc;stroke-dasharray:1.85,0.8;stroke-dashoffset:0;stroke-width:0.5;"/>
     </g>
     <g id="line2d_32">
      <g>
       <use style="stroke:#000000;stroke-width:0.8;" x="46.55" xlink:href="#m0470fdb711" y="60.614158"/>
      </g>
     </g>
     <g id="text_17">
      <!-- 1.0 -->
      <g transform="translate(10.924375 67.452752)scale(0.18 -0.18)">
       <use xlink:href="#DejaVuSans-49"/>
       <use x="63.623047" xlink:href="#DejaVuSans-46"/>
       <use x="95.410156" xlink:href="#DejaVuSans-48"/>
      </g>
     </g>
    </g>
   </g>
   <g id="line2d_33">
    <defs>
     <path d="M 0 2.5 
C 0.663008 2.5 1.29895 2.236584 1.767767 1.767767 
C 2.236584 1.29895 2.5 0.663008 2.5 0 
C 2.5 -0.663008 2.236584 -1.29895 1.767767 -1.767767 
C 1.29895 -2.236584 0.663008 -2.5 0 -2.5 
C -0.663008 -2.5 -1.29895 -2.236584 -1.767767 -1.767767 
C -2.236584 -1.29895 -2.5 -0.663008 -2.5 0 
C -2.5 0.663008 -2.236584 1.29895 -1.767767 1.767767 
C -1.29895 2.236584 -0.663008 2.5 0 2.5 
z
" id="m0d756b01b5" style="stroke:#000000;"/>
    </defs>
    <g clip-path="url(#p6884565415)">
     <use style="stroke:#000000;" x="46.55" xlink:href="#m0d756b01b5" y="60.614158"/>
     <use style="stroke:#000000;" x="58.75125" xlink:href="#m0d756b01b5" y="60.614158"/>
     <use style="stroke:#000000;" x="70.9525" xlink:href="#m0d756b01b5" y="60.614158"/>
     <use style="stroke:#000000;" x="83.15375" xlink:href="#m0d756b01b5" y="60.614158"/>
     <use style="stroke:#000000;" x="95.355" xlink:href="#m0d756b01b5" y="60.614158"/>
     <use style="stroke:#000000;" x="107.55625" xlink:href="#m0d756b01b5" y="60.614158"/>
     <use style="stroke:#000000;" x="119.7575" xlink:href="#m0d756b01b5" y="221.136364"/>
     <use style="stroke:#000000;" x="131.95875" xlink:href="#m0d756b01b5" y="221.136364"/>
     <use style="stroke:#000000;" x="144.16" xlink:href="#m0d756b01b5" y="221.136364"/>
     <use style="stroke:#000000;" x="156.36125" xlink:href="#m0d756b01b5" y="221.136364"/>
     <use style="stroke:#000000;" x="168.5625" xlink:href="#m0d756b01b5" y="221.136364"/>
     <use style="stroke:#000000;" x="180.76375" xlink:href="#m0d756b01b5" y="221.136364"/>
     <use style="stroke:#000000;" x="192.965" xlink:href="#m0d756b01b5" y="221.136364"/>
     <use style="stroke:#000000;" x="205.16625" xlink:href="#m0d756b01b5" y="221.136364"/>
     <use style="stroke:#000000;" x="217.3675" xlink:href="#m0d756b01b5" y="221.136364"/>
     <use style="stroke:#000000;" x="229.56875" xlink:href="#m0d756b01b5" y="221.136364"/>
     <use style="stroke:#000000;" x="241.77" xlink:href="#m0d756b01b5" y="221.136364"/>
     <use style="stroke:#000000;" x="253.97125" xlink:href="#m0d756b01b5" y="221.136364"/>
     <use style="stroke:#000000;" x="266.1725" xlink:href="#m0d756b01b5" y="221.136364"/>
     <use style="stroke:#000000;" x="278.37375" xlink:href="#m0d756b01b5" y="221.136364"/>
     <use style="stroke:#000000;" x="290.575" xlink:href="#m0d756b01b5" y="221.136364"/>
     <use style="stroke:#000000;" x="302.77625" xlink:href="#m0d756b01b5" y="221.136364"/>
     <use style="stroke:#000000;" x="314.9775" xlink:href="#m0d756b01b5" y="221.136364"/>
     <use style="stroke:#000000;" x="327.17875" xlink:href="#m0d756b01b5" y="221.136364"/>
     <use style="stroke:#000000;" x="339.38" xlink:href="#m0d756b01b5" y="221.136364"/>
     <use style="stroke:#000000;" x="351.58125" xlink:href="#m0d756b01b5" y="221.136364"/>
     <use style="stroke:#000000;" x="363.7825" xlink:href="#m0d756b01b5" y="221.136364"/>
     <use style="stroke:#000000;" x="375.98375" xlink:href="#m0d756b01b5" y="221.136364"/>
     <use style="stroke:#000000;" x="388.185" xlink:href="#m0d756b01b5" y="221.136364"/>
     <use style="stroke:#000000;" x="400.38625" xlink:href="#m0d756b01b5" y="221.136364"/>
     <use style="stroke:#000000;" x="412.5875" xlink:href="#m0d756b01b5" y="221.136364"/>
     <use style="stroke:#000000;" x="424.78875" xlink:href="#m0d756b01b5" y="221.136364"/>
     <use style="stroke:#000000;" x="436.99" xlink:href="#m0d756b01b5" y="221.136364"/>
     <use style="stroke:#000000;" x="449.19125" xlink:href="#m0d756b01b5" y="221.136364"/>
     <use style="stroke:#000000;" x="461.3925" xlink:href="#m0d756b01b5" y="221.136364"/>
     <use style="stroke:#000000;" x="473.59375" xlink:href="#m0d756b01b5" y="60.614158"/>
     <use style="stroke:#000000;" x="485.795" xlink:href="#m0d756b01b5" y="60.614158"/>
     <use style="stroke:#000000;" x="497.99625" xlink:href="#m0d756b01b5" y="60.614158"/>
     <use style="stroke:#000000;" x="510.1975" xlink:href="#m0d756b01b5" y="60.614158"/>
     <use style="stroke:#000000;" x="522.39875" xlink:href="#m0d756b01b5" y="60.614158"/>
    </g>
   </g>
   <g id="line2d_34">
    <path clip-path="url(#p6884565415)" d="M 46.55 60.614158 
L 107.55625 60.614158 
L 107.55625 221.136364 
L 473.59375 221.136364 
L 473.59375 60.614158 
L 534.6 60.614158 
" style="fill:none;stroke:#000000;stroke-linecap:square;stroke-opacity:0.5;"/>
   </g>
   <g id="line2d_35">
    <path clip-path="url(#p6884565415)" d="M 46.55 60.614158 
L 48.21814 60.505271 
L 50.362891 60.121251 
L 53.341711 59.593396 
L 54.890698 59.55723 
L 56.320532 59.756064 
L 57.750366 60.188922 
L 59.418506 60.94059 
L 64.065466 63.198822 
L 65.256995 63.445783 
L 66.32937 63.440414 
L 67.282593 63.22883 
L 68.354968 62.746821 
L 69.427344 62.015212 
L 70.738025 60.831779 
L 72.763623 58.636255 
L 74.789221 56.540494 
L 75.98075 55.636802 
L 76.933972 55.201667 
L 77.768042 55.077399 
L 78.482959 55.182076 
L 79.197876 55.491523 
L 80.031946 56.113642 
L 80.985168 57.156014 
L 82.057544 58.705678 
L 83.368225 61.015593 
L 87.300269 68.275192 
L 88.253491 69.474455 
L 88.968408 70.084215 
L 89.683325 70.400809 
L 90.279089 70.41648 
L 90.874854 70.190423 
L 91.470618 69.712293 
L 92.185535 68.798822 
L 92.900452 67.516762 
L 93.734521 65.57472 
L 94.806897 62.444707 
L 96.117578 57.871602 
L 99.930469 44.068721 
L 100.883691 41.694528 
L 101.598608 40.498377 
L 102.07522 40.03276 
L 102.551831 39.863636 
L 102.90929 39.946216 
L 103.266748 40.219003 
L 103.743359 40.893725 
L 104.339124 42.262658 
L 104.934888 44.243243 
L 105.649805 47.458397 
L 106.483875 52.393015 
L 107.437097 59.597803 
L 108.509473 69.639479 
L 109.701001 83.014774 
L 111.130835 101.670378 
L 113.156433 131.408216 
L 117.088477 189.892495 
L 118.637463 209.339516 
L 119.709839 220.678011 
L 119.828992 220.456406 
L 120.901367 211.38017 
L 121.85459 205.145066 
L 122.68866 201.133513 
L 123.403577 198.756014 
L 123.999341 197.500056 
L 124.475952 196.950706 
L 124.833411 196.792882 
L 125.190869 196.843382 
L 125.548328 197.092627 
L 126.024939 197.715998 
L 126.620703 198.924921 
L 127.33562 200.930285 
L 128.288843 204.370391 
L 129.599524 210.076719 
L 131.982581 221.029667 
L 133.412415 215.144012 
L 134.48479 211.619378 
L 135.31886 209.540392 
L 136.033777 208.26578 
L 136.629541 207.574697 
L 137.225305 207.222689 
L 137.701917 207.181494 
L 138.178528 207.347518 
L 138.774292 207.832852 
L 139.489209 208.792351 
L 140.323279 210.369124 
L 141.395654 212.975147 
L 142.944641 217.454218 
L 144.136169 221.065286 
L 144.374475 220.50097 
L 145.923462 216.282389 
L 146.995837 213.945577 
L 147.829907 212.569795 
L 148.544824 211.737696 
L 149.259741 211.243987 
L 149.855505 211.095203 
L 150.45127 211.182429 
L 151.047034 211.497651 
L 151.761951 212.158409 
L 152.596021 213.279105 
L 153.549243 214.943669 
L 154.859924 217.700306 
L 156.408911 221.027706 
L 158.196204 217.233351 
L 159.387732 215.231277 
L 160.340955 214.069193 
L 161.175024 213.422095 
L 161.889941 213.158632 
L 162.485706 213.146954 
L 163.200623 213.377537 
L 163.91554 213.861898 
L 164.749609 214.718703 
L 165.702832 216.024989 
L 167.013513 218.235469 
L 168.5625 221.136364 
L 170.468945 217.776165 
L 171.660474 216.112143 
L 172.613696 215.143779 
L 173.447766 214.604674 
L 174.162683 214.386978 
L 174.8776 214.398738 
L 175.592517 214.635679 
L 176.426587 215.180823 
L 177.37981 216.120242 
L 178.452185 217.50453 
L 180.120325 220.087222 
L 180.716089 221.058786 
L 180.835242 221.020146 
L 182.741687 218.117891 
L 183.933215 216.679727 
L 184.886438 215.844468 
L 185.720508 215.382589 
L 186.554578 215.189898 
L 187.269495 215.242743 
L 188.103564 215.552537 
L 188.937634 216.111924 
L 189.890857 217.019103 
L 191.082385 218.467443 
L 192.988831 221.101782 
L 195.014429 218.344843 
L 196.205957 217.067176 
L 197.15918 216.328629 
L 197.99325 215.924655 
L 198.827319 215.763397 
L 199.661389 215.849161 
L 200.495459 216.175028 
L 201.448682 216.818287 
L 202.521057 217.835882 
L 203.950891 219.538417 
L 205.142419 221.104768 
L 205.499878 220.695601 
L 207.406323 218.369231 
L 208.597852 217.243163 
L 209.551074 216.61017 
L 210.385144 216.282538 
L 211.219214 216.17982 
L 212.053284 216.304463 
L 212.887354 216.648577 
L 213.840576 217.287369 
L 215.032104 218.392553 
L 216.581091 220.169181 
L 217.415161 221.077607 
L 219.559912 218.602992 
L 220.75144 217.534616 
L 221.823816 216.867318 
L 222.777039 216.548868 
L 223.611108 216.496727 
L 224.445178 216.657106 
L 225.398401 217.088714 
L 226.470776 217.856353 
L 227.781458 219.112679 
L 229.56875 221.136364 
L 229.687903 220.997713 
L 231.832654 218.669818 
L 233.024182 217.671409 
L 234.096558 217.053846 
L 235.04978 216.766579 
L 235.88385 216.730624 
L 236.71792 216.896493 
L 237.671143 217.321518 
L 238.743518 218.066565 
L 240.054199 219.276911 
L 241.841492 221.056775 
L 243.986243 218.816172 
L 245.296924 217.763337 
L 246.369299 217.185697 
L 247.322522 216.924648 
L 248.275745 216.916513 
L 249.228967 217.16046 
L 250.18219 217.640669 
L 251.254565 218.425724 
L 252.684399 219.771536 
L 253.995081 221.1107 
L 256.258984 218.82437 
L 257.569666 217.818297 
L 258.642041 217.272881 
L 259.595264 217.034234 
L 260.548486 217.041659 
L 261.501709 217.293824 
L 262.454932 217.774828 
L 263.64646 218.651834 
L 265.195447 220.117521 
L 266.148669 221.111287 
L 266.506128 220.785903 
L 268.531726 218.811563 
L 269.842407 217.841036 
L 270.914783 217.321584 
L 271.868005 217.102345 
L 272.821228 217.124892 
L 273.774451 217.387365 
L 274.727673 217.87361 
L 275.919202 218.75008 
L 277.468188 220.204262 
L 278.421411 221.086896 
L 280.685315 218.879709 
L 281.995996 217.905842 
L 283.068372 217.377001 
L 284.021594 217.145355 
L 284.974817 217.152791 
L 285.92804 217.398698 
L 286.881262 217.86824 
L 288.072791 218.725599 
L 289.621777 220.161244 
L 290.575 221.136364 
L 292.958057 218.825216 
L 294.268738 217.86824 
L 295.341113 217.355292 
L 296.294336 217.138669 
L 297.247559 217.16138 
L 298.200781 217.422238 
L 299.273157 217.980659 
L 300.464685 218.879709 
L 302.013672 220.350339 
L 302.847742 221.062158 
L 305.111646 218.851419 
L 306.422327 217.87361 
L 307.494702 217.341854 
L 308.447925 217.108775 
L 309.401147 217.116647 
L 310.35437 217.365517 
L 311.307593 217.841036 
L 312.499121 218.71046 
L 314.048108 220.169027 
L 315.001331 221.111287 
L 317.384387 218.753644 
L 318.695068 217.774828 
L 319.767444 217.249326 
L 320.720667 217.027177 
L 321.673889 217.050742 
L 322.627112 217.319505 
L 323.580334 217.818297 
L 324.771863 218.719938 
L 326.32085 220.221703 
L 327.154919 221.1107 
L 327.512378 220.777215 
L 329.657129 218.629856 
L 330.96781 217.640669 
L 332.040186 217.116582 
L 332.993408 216.903581 
L 333.827478 216.924648 
L 334.780701 217.185697 
L 335.733923 217.685377 
L 336.806299 218.496602 
L 338.236133 219.885415 
L 339.427661 221.083283 
L 341.810718 218.582621 
L 343.121399 217.540764 
L 344.193774 216.979949 
L 345.146997 216.74207 
L 345.981067 216.749001 
L 346.815137 216.957971 
L 347.768359 217.433077 
L 348.840735 218.235896 
L 350.151416 219.518323 
L 351.58125 221.136364 
L 354.083459 218.391094 
L 355.274988 217.39594 
L 356.347363 216.789012 
L 357.300586 216.521077 
L 358.134656 216.512143 
L 358.968726 216.716215 
L 359.921948 217.199977 
L 360.994324 218.030783 
L 362.305005 219.371648 
L 363.853992 221.048175 
L 366.237048 218.269281 
L 367.428577 217.194388 
L 368.381799 216.586552 
L 369.335022 216.24592 
L 370.169092 216.185879 
L 371.003162 216.353564 
L 371.837231 216.743554 
L 372.790454 217.44093 
L 373.981982 218.631459 
L 375.530969 220.539273 
L 376.007581 221.104768 
L 378.50979 217.96498 
L 379.701318 216.818287 
L 380.654541 216.175028 
L 381.488611 215.849161 
L 382.322681 215.763397 
L 383.15675 215.924655 
L 383.99082 216.328629 
L 384.944043 217.067176 
L 386.016418 218.202026 
L 387.446252 220.077028 
L 388.161169 221.101782 
L 388.518628 220.651365 
L 390.663379 217.70681 
L 391.854907 216.421218 
L 392.80813 215.68797 
L 393.6422 215.304514 
L 394.357117 215.185229 
L 395.072034 215.266496 
L 395.786951 215.548281 
L 396.621021 216.121062 
L 397.574243 217.069425 
L 398.765771 218.61836 
L 400.433911 221.058786 
L 402.936121 217.17203 
L 404.127649 215.731766 
L 405.080872 214.91329 
L 405.914941 214.48962 
L 406.629858 214.364266 
L 407.344775 214.467173 
L 408.059692 214.798824 
L 408.893762 215.464873 
L 409.846985 216.563184 
L 410.91936 218.15872 
L 412.468347 220.912449 
L 412.5875 221.136364 
L 415.208862 216.396807 
L 416.400391 214.718703 
L 417.353613 213.764364 
L 418.06853 213.321016 
L 418.783447 213.134266 
L 419.379211 213.183618 
L 420.094128 213.492392 
L 420.809045 214.069193 
L 421.643115 215.062916 
L 422.596338 216.576349 
L 423.787866 218.918144 
L 424.860242 220.973026 
L 427.600757 214.943669 
L 428.673132 213.09801 
L 429.507202 212.027984 
L 430.222119 211.416918 
L 430.817883 211.146415 
L 431.413647 211.105912 
L 432.009412 211.302409 
L 432.605176 211.737696 
L 433.320093 212.569795 
L 434.154163 213.945577 
L 435.107385 215.994803 
L 436.298914 219.123748 
L 437.013831 221.065286 
L 440.230957 211.74851 
L 441.303333 209.412392 
L 442.137402 208.108917 
L 442.852319 207.420429 
L 443.448083 207.181494 
L 443.924695 207.222689 
L 444.401306 207.477257 
L 444.99707 208.100392 
L 445.592834 209.062191 
L 446.307751 210.652837 
L 447.141821 213.075339 
L 448.214197 216.977017 
L 449.167419 221.029667 
L 449.405725 220.166681 
L 453.456921 202.129178 
L 454.410144 199.219507 
L 455.125061 197.715998 
L 455.720825 196.988089 
L 456.197437 196.787023 
L 456.554895 196.874396 
L 456.912354 197.175981 
L 457.388965 197.925068 
L 457.865576 199.085424 
L 458.46134 201.133513 
L 459.176257 204.48945 
L 460.010327 209.657074 
L 460.96355 217.194692 
L 461.440161 220.678011 
L 462.631689 207.964253 
L 463.942371 191.498797 
L 465.729663 165.974365 
L 470.972388 88.948969 
L 472.402222 72.136118 
L 473.59375 60.614158 
L 474.666125 52.393015 
L 475.619348 46.857951 
L 476.453418 43.375995 
L 477.168335 41.369662 
L 477.764099 40.353748 
L 478.24071 39.946216 
L 478.598169 39.863636 
L 478.955627 39.96169 
L 479.432239 40.355592 
L 480.028003 41.234077 
L 480.74292 42.782578 
L 481.57699 45.145124 
L 482.768518 49.249074 
L 486.819714 63.916375 
L 487.89209 66.741416 
L 488.72616 68.41199 
L 489.560229 69.585863 
L 490.275146 70.190423 
L 490.870911 70.41648 
L 491.466675 70.400809 
L 492.062439 70.158328 
L 492.777356 69.594818 
L 493.611426 68.611463 
L 494.683801 66.941658 
L 496.232788 64.03996 
L 498.85415 59.096513 
L 500.045679 57.309655 
L 500.998901 56.225086 
L 501.832971 55.563255 
L 502.667041 55.182076 
L 503.381958 55.077399 
L 504.216028 55.201667 
L 505.050098 55.566897 
L 506.00332 56.233933 
L 507.194849 57.346592 
L 512.080115 62.285307 
L 513.271643 62.992908 
L 514.344019 63.359896 
L 515.416394 63.472357 
L 516.48877 63.35239 
L 517.680298 62.993231 
L 519.229285 62.280665 
L 523.637939 60.101465 
L 525.067773 59.706385 
L 526.497607 59.546793 
L 528.046594 59.618641 
L 530.072192 59.969596 
L 533.289319 60.54608 
L 534.480847 60.613584 
L 534.480847 60.613584 
" style="fill:none;stroke:#d62728;stroke-linecap:square;"/>
   </g>
   <g id="patch_3">
    <path d="M 46.55 230.2 
L 46.55 30.8 
" style="fill:none;stroke:#000000;stroke-linecap:square;stroke-linejoin:miter;stroke-width:0.8;"/>
   </g>
   <g id="patch_4">
    <path d="M 46.55 230.2 
L 534.6 230.2 
" style="fill:none;stroke:#000000;stroke-linecap:square;stroke-linejoin:miter;stroke-width:0.8;"/>
   </g>
   <g id="text_18">
    <!-- Magnitude Response -->
    <g transform="translate(196.807656 24.8)scale(0.18 -0.18)">
     <defs>
      <path d="M 9.8125 72.90625 
L 24.515625 72.90625 
L 43.109375 23.296875 
L 61.8125 72.90625 
L 76.515625 72.90625 
L 76.515625 0 
L 66.890625 0 
L 66.890625 64.015625 
L 48.09375 14.015625 
L 38.1875 14.015625 
L 19.390625 64.015625 
L 19.390625 0 
L 9.8125 0 
z
" id="DejaVuSans-77"/>
      <path d="M 34.28125 27.484375 
Q 23.390625 27.484375 19.1875 25 
Q 14.984375 22.515625 14.984375 16.5 
Q 14.984375 11.71875 18.140625 8.90625 
Q 21.296875 6.109375 26.703125 6.109375 
Q 34.1875 6.109375 38.703125 11.40625 
Q 43.21875 16.703125 43.21875 25.484375 
L 43.21875 27.484375 
z
M 52.203125 31.203125 
L 52.203125 0 
L 43.21875 0 
L 43.21875 8.296875 
Q 40.140625 3.328125 35.546875 0.953125 
Q 30.953125 -1.421875 24.3125 -1.421875 
Q 15.921875 -1.421875 10.953125 3.296875 
Q 6 8.015625 6 15.921875 
Q 6 25.140625 12.171875 29.828125 
Q 18.359375 34.515625 30.609375 34.515625 
L 43.21875 34.515625 
L 43.21875 35.40625 
Q 43.21875 41.609375 39.140625 45 
Q 35.0625 48.390625 27.6875 48.390625 
Q 23 48.390625 18.546875 47.265625 
Q 14.109375 46.140625 10.015625 43.890625 
L 10.015625 52.203125 
Q 14.9375 54.109375 19.578125 55.046875 
Q 24.21875 56 28.609375 56 
Q 40.484375 56 46.34375 49.84375 
Q 52.203125 43.703125 52.203125 31.203125 
z
" id="DejaVuSans-97"/>
      <path d="M 45.40625 27.984375 
Q 45.40625 37.75 41.375 43.109375 
Q 37.359375 48.484375 30.078125 48.484375 
Q 22.859375 48.484375 18.828125 43.109375 
Q 14.796875 37.75 14.796875 27.984375 
Q 14.796875 18.265625 18.828125 12.890625 
Q 22.859375 7.515625 30.078125 7.515625 
Q 37.359375 7.515625 41.375 12.890625 
Q 45.40625 18.265625 45.40625 27.984375 
z
M 54.390625 6.78125 
Q 54.390625 -7.171875 48.1875 -13.984375 
Q 42 -20.796875 29.203125 -20.796875 
Q 24.46875 -20.796875 20.265625 -20.09375 
Q 16.0625 -19.390625 12.109375 -17.921875 
L 12.109375 -9.1875 
Q 16.0625 -11.328125 19.921875 -12.34375 
Q 23.78125 -13.375 27.78125 -13.375 
Q 36.625 -13.375 41.015625 -8.765625 
Q 45.40625 -4.15625 45.40625 5.171875 
L 45.40625 9.625 
Q 42.625 4.78125 38.28125 2.390625 
Q 33.9375 0 27.875 0 
Q 17.828125 0 11.671875 7.65625 
Q 5.515625 15.328125 5.515625 27.984375 
Q 5.515625 40.671875 11.671875 48.328125 
Q 17.828125 56 27.875 56 
Q 33.9375 56 38.28125 53.609375 
Q 42.625 51.21875 45.40625 46.390625 
L 45.40625 54.6875 
L 54.390625 54.6875 
z
" id="DejaVuSans-103"/>
      <path d="M 54.890625 33.015625 
L 54.890625 0 
L 45.90625 0 
L 45.90625 32.71875 
Q 45.90625 40.484375 42.875 44.328125 
Q 39.84375 48.1875 33.796875 48.1875 
Q 26.515625 48.1875 22.3125 43.546875 
Q 18.109375 38.921875 18.109375 30.90625 
L 18.109375 0 
L 9.078125 0 
L 9.078125 54.6875 
L 18.109375 54.6875 
L 18.109375 46.1875 
Q 21.34375 51.125 25.703125 53.5625 
Q 30.078125 56 35.796875 56 
Q 45.21875 56 50.046875 50.171875 
Q 54.890625 44.34375 54.890625 33.015625 
z
" id="DejaVuSans-110"/>
      <path d="M 9.421875 54.6875 
L 18.40625 54.6875 
L 18.40625 0 
L 9.421875 0 
z
M 9.421875 75.984375 
L 18.40625 75.984375 
L 18.40625 64.59375 
L 9.421875 64.59375 
z
" id="DejaVuSans-105"/>
      <path d="M 18.3125 70.21875 
L 18.3125 54.6875 
L 36.8125 54.6875 
L 36.8125 47.703125 
L 18.3125 47.703125 
L 18.3125 18.015625 
Q 18.3125 11.328125 20.140625 9.421875 
Q 21.96875 7.515625 27.59375 7.515625 
L 36.8125 7.515625 
L 36.8125 0 
L 27.59375 0 
Q 17.1875 0 13.234375 3.875 
Q 9.28125 7.765625 9.28125 18.015625 
L 9.28125 47.703125 
L 2.6875 47.703125 
L 2.6875 54.6875 
L 9.28125 54.6875 
L 9.28125 70.21875 
z
" id="DejaVuSans-116"/>
      <path d="M 8.5 21.578125 
L 8.5 54.6875 
L 17.484375 54.6875 
L 17.484375 21.921875 
Q 17.484375 14.15625 20.5 10.265625 
Q 23.53125 6.390625 29.59375 6.390625 
Q 36.859375 6.390625 41.078125 11.03125 
Q 45.3125 15.671875 45.3125 23.6875 
L 45.3125 54.6875 
L 54.296875 54.6875 
L 54.296875 0 
L 45.3125 0 
L 45.3125 8.40625 
Q 42.046875 3.421875 37.71875 1 
Q 33.40625 -1.421875 27.6875 -1.421875 
Q 18.265625 -1.421875 13.375 4.4375 
Q 8.5 10.296875 8.5 21.578125 
z
M 31.109375 56 
z
" id="DejaVuSans-117"/>
      <path d="M 45.40625 46.390625 
L 45.40625 75.984375 
L 54.390625 75.984375 
L 54.390625 0 
L 45.40625 0 
L 45.40625 8.203125 
Q 42.578125 3.328125 38.25 0.953125 
Q 33.9375 -1.421875 27.875 -1.421875 
Q 17.96875 -1.421875 11.734375 6.484375 
Q 5.515625 14.40625 5.515625 27.296875 
Q 5.515625 40.1875 11.734375 48.09375 
Q 17.96875 56 27.875 56 
Q 33.9375 56 38.25 53.625 
Q 42.578125 51.265625 45.40625 46.390625 
z
M 14.796875 27.296875 
Q 14.796875 17.390625 18.875 11.75 
Q 22.953125 6.109375 30.078125 6.109375 
Q 37.203125 6.109375 41.296875 11.75 
Q 45.40625 17.390625 45.40625 27.296875 
Q 45.40625 37.203125 41.296875 42.84375 
Q 37.203125 48.484375 30.078125 48.484375 
Q 22.953125 48.484375 18.875 42.84375 
Q 14.796875 37.203125 14.796875 27.296875 
z
" id="DejaVuSans-100"/>
      <path d="M 56.203125 29.59375 
L 56.203125 25.203125 
L 14.890625 25.203125 
Q 15.484375 15.921875 20.484375 11.0625 
Q 25.484375 6.203125 34.421875 6.203125 
Q 39.59375 6.203125 44.453125 7.46875 
Q 49.3125 8.734375 54.109375 11.28125 
L 54.109375 2.78125 
Q 49.265625 0.734375 44.1875 -0.34375 
Q 39.109375 -1.421875 33.890625 -1.421875 
Q 20.796875 -1.421875 13.15625 6.1875 
Q 5.515625 13.8125 5.515625 26.8125 
Q 5.515625 40.234375 12.765625 48.109375 
Q 20.015625 56 32.328125 56 
Q 43.359375 56 49.78125 48.890625 
Q 56.203125 41.796875 56.203125 29.59375 
z
M 47.21875 32.234375 
Q 47.125 39.59375 43.09375 43.984375 
Q 39.0625 48.390625 32.421875 48.390625 
Q 24.90625 48.390625 20.390625 44.140625 
Q 15.875 39.890625 15.1875 32.171875 
z
" id="DejaVuSans-101"/>
      <path id="DejaVuSans-32"/>
      <path d="M 44.390625 34.1875 
Q 47.5625 33.109375 50.5625 29.59375 
Q 53.5625 26.078125 56.59375 19.921875 
L 66.609375 0 
L 56 0 
L 46.6875 18.703125 
Q 43.0625 26.03125 39.671875 28.421875 
Q 36.28125 30.8125 30.421875 30.8125 
L 19.671875 30.8125 
L 19.671875 0 
L 9.8125 0 
L 9.8125 72.90625 
L 32.078125 72.90625 
Q 44.578125 72.90625 50.734375 67.671875 
Q 56.890625 62.453125 56.890625 51.90625 
Q 56.890625 45.015625 53.6875 40.46875 
Q 50.484375 35.9375 44.390625 34.1875 
z
M 19.671875 64.796875 
L 19.671875 38.921875 
L 32.078125 38.921875 
Q 39.203125 38.921875 42.84375 42.21875 
Q 46.484375 45.515625 46.484375 51.90625 
Q 46.484375 58.296875 42.84375 61.546875 
Q 39.203125 64.796875 32.078125 64.796875 
z
" id="DejaVuSans-82"/>
      <path d="M 44.28125 53.078125 
L 44.28125 44.578125 
Q 40.484375 46.53125 36.375 47.5 
Q 32.28125 48.484375 27.875 48.484375 
Q 21.1875 48.484375 17.84375 46.4375 
Q 14.5 44.390625 14.5 40.28125 
Q 14.5 37.15625 16.890625 35.375 
Q 19.28125 33.59375 26.515625 31.984375 
L 29.59375 31.296875 
Q 39.15625 29.25 43.1875 25.515625 
Q 47.21875 21.78125 47.21875 15.09375 
Q 47.21875 7.46875 41.1875 3.015625 
Q 35.15625 -1.421875 24.609375 -1.421875 
Q 20.21875 -1.421875 15.453125 -0.5625 
Q 10.6875 0.296875 5.421875 2 
L 5.421875 11.28125 
Q 10.40625 8.6875 15.234375 7.390625 
Q 20.0625 6.109375 24.8125 6.109375 
Q 31.15625 6.109375 34.5625 8.28125 
Q 37.984375 10.453125 37.984375 14.40625 
Q 37.984375 18.0625 35.515625 20.015625 
Q 33.0625 21.96875 24.703125 23.78125 
L 21.578125 24.515625 
Q 13.234375 26.265625 9.515625 29.90625 
Q 5.8125 33.546875 5.8125 39.890625 
Q 5.8125 47.609375 11.28125 51.796875 
Q 16.75 56 26.8125 56 
Q 31.78125 56 36.171875 55.265625 
Q 40.578125 54.546875 44.28125 53.078125 
z
" id="DejaVuSans-115"/>
      <path d="M 18.109375 8.203125 
L 18.109375 -20.796875 
L 9.078125 -20.796875 
L 9.078125 54.6875 
L 18.109375 54.6875 
L 18.109375 46.390625 
Q 20.953125 51.265625 25.265625 53.625 
Q 29.59375 56 35.59375 56 
Q 45.5625 56 51.78125 48.09375 
Q 58.015625 40.1875 58.015625 27.296875 
Q 58.015625 14.40625 51.78125 6.484375 
Q 45.5625 -1.421875 35.59375 -1.421875 
Q 29.59375 -1.421875 25.265625 0.953125 
Q 20.953125 3.328125 18.109375 8.203125 
z
M 48.6875 27.296875 
Q 48.6875 37.203125 44.609375 42.84375 
Q 40.53125 48.484375 33.40625 48.484375 
Q 26.265625 48.484375 22.1875 42.84375 
Q 18.109375 37.203125 18.109375 27.296875 
Q 18.109375 17.390625 22.1875 11.75 
Q 26.265625 6.109375 33.40625 6.109375 
Q 40.53125 6.109375 44.609375 11.75 
Q 48.6875 17.390625 48.6875 27.296875 
z
" id="DejaVuSans-112"/>
      <path d="M 30.609375 48.390625 
Q 23.390625 48.390625 19.1875 42.75 
Q 14.984375 37.109375 14.984375 27.296875 
Q 14.984375 17.484375 19.15625 11.84375 
Q 23.34375 6.203125 30.609375 6.203125 
Q 37.796875 6.203125 41.984375 11.859375 
Q 46.1875 17.53125 46.1875 27.296875 
Q 46.1875 37.015625 41.984375 42.703125 
Q 37.796875 48.390625 30.609375 48.390625 
z
M 30.609375 56 
Q 42.328125 56 49.015625 48.375 
Q 55.71875 40.765625 55.71875 27.296875 
Q 55.71875 13.875 49.015625 6.21875 
Q 42.328125 -1.421875 30.609375 -1.421875 
Q 18.84375 -1.421875 12.171875 6.21875 
Q 5.515625 13.875 5.515625 27.296875 
Q 5.515625 40.765625 12.171875 48.375 
Q 18.84375 56 30.609375 56 
z
" id="DejaVuSans-111"/>
     </defs>
     <use xlink:href="#DejaVuSans-77"/>
     <use x="86.279297" xlink:href="#DejaVuSans-97"/>
     <use x="147.558594" xlink:href="#DejaVuSans-103"/>
     <use x="211.035156" xlink:href="#DejaVuSans-110"/>
     <use x="274.414062" xlink:href="#DejaVuSans-105"/>
     <use x="302.197266" xlink:href="#DejaVuSans-116"/>
     <use x="341.40625" xlink:href="#DejaVuSans-117"/>
     <use x="404.785156" xlink:href="#DejaVuSans-100"/>
     <use x="468.261719" xlink:href="#DejaVuSans-101"/>
     <use x="529.785156" xlink:href="#DejaVuSans-32"/>
     <use x="561.572266" xlink:href="#DejaVuSans-82"/>
     <use x="626.554688" xlink:href="#DejaVuSans-101"/>
     <use x="688.078125" xlink:href="#DejaVuSans-115"/>
     <use x="740.177734" xlink:href="#DejaVuSans-112"/>
     <use x="803.654297" xlink:href="#DejaVuSans-111"/>
     <use x="864.835938" xlink:href="#DejaVuSans-110"/>
     <use x="928.214844" xlink:href="#DejaVuSans-115"/>
     <use x="980.314453" xlink:href="#DejaVuSans-101"/>
    </g>
   </g>
  </g>
  <g id="axes_2">
   <g id="patch_5">
    <path d="M 581.15 230.2 
L 1069.2 230.2 
L 1069.2 30.8 
L 581.15 30.8 
z
" style="fill:#ffffff;"/>
   </g>
   <g id="matplotlib.axis_3">
    <g id="xtick_11">
     <g id="line2d_36">
      <path clip-path="url(#p202917cc23)" d="M 581.15 230.2 
L 581.15 30.8 
" style="fill:none;stroke:#cccccc;stroke-dasharray:1.85,0.8;stroke-dashoffset:0;stroke-width:0.5;"/>
     </g>
     <g id="line2d_37">
      <g>
       <use style="stroke:#000000;stroke-width:0.8;" x="581.15" xlink:href="#mdb3ccbe806" y="230.2"/>
      </g>
     </g>
     <g id="text_19">
      <!-- 0.0 -->
      <g transform="translate(566.837188 250.877188)scale(0.18 -0.18)">
       <use xlink:href="#DejaVuSans-48"/>
       <use x="63.623047" xlink:href="#DejaVuSans-46"/>
       <use x="95.410156" xlink:href="#DejaVuSans-48"/>
      </g>
     </g>
    </g>
    <g id="xtick_12">
     <g id="line2d_38">
      <path clip-path="url(#p202917cc23)" d="M 629.955 230.2 
L 629.955 30.8 
" style="fill:none;stroke:#cccccc;stroke-dasharray:1.85,0.8;stroke-dashoffset:0;stroke-width:0.5;"/>
     </g>
     <g id="line2d_39">
      <g>
       <use style="stroke:#000000;stroke-width:0.8;" x="629.955" xlink:href="#mdb3ccbe806" y="230.2"/>
      </g>
     </g>
     <g id="text_20">
      <!-- 0.2 -->
      <g transform="translate(615.642188 250.877188)scale(0.18 -0.18)">
       <use xlink:href="#DejaVuSans-48"/>
       <use x="63.623047" xlink:href="#DejaVuSans-46"/>
       <use x="95.410156" xlink:href="#DejaVuSans-50"/>
      </g>
     </g>
    </g>
    <g id="xtick_13">
     <g id="line2d_40">
      <path clip-path="url(#p202917cc23)" d="M 678.76 230.2 
L 678.76 30.8 
" style="fill:none;stroke:#cccccc;stroke-dasharray:1.85,0.8;stroke-dashoffset:0;stroke-width:0.5;"/>
     </g>
     <g id="line2d_41">
      <g>
       <use style="stroke:#000000;stroke-width:0.8;" x="678.76" xlink:href="#mdb3ccbe806" y="230.2"/>
      </g>
     </g>
     <g id="text_21">
      <!-- 0.4 -->
      <g transform="translate(664.447188 250.877188)scale(0.18 -0.18)">
       <use xlink:href="#DejaVuSans-48"/>
       <use x="63.623047" xlink:href="#DejaVuSans-46"/>
       <use x="95.410156" xlink:href="#DejaVuSans-52"/>
      </g>
     </g>
    </g>
    <g id="xtick_14">
     <g id="line2d_42">
      <path clip-path="url(#p202917cc23)" d="M 727.565 230.2 
L 727.565 30.8 
" style="fill:none;stroke:#cccccc;stroke-dasharray:1.85,0.8;stroke-dashoffset:0;stroke-width:0.5;"/>
     </g>
     <g id="line2d_43">
      <g>
       <use style="stroke:#000000;stroke-width:0.8;" x="727.565" xlink:href="#mdb3ccbe806" y="230.2"/>
      </g>
     </g>
     <g id="text_22">
      <!-- 0.6 -->
      <g transform="translate(713.252188 250.877188)scale(0.18 -0.18)">
       <use xlink:href="#DejaVuSans-48"/>
       <use x="63.623047" xlink:href="#DejaVuSans-46"/>
       <use x="95.410156" xlink:href="#DejaVuSans-54"/>
      </g>
     </g>
    </g>
    <g id="xtick_15">
     <g id="line2d_44">
      <path clip-path="url(#p202917cc23)" d="M 776.37 230.2 
L 776.37 30.8 
" style="fill:none;stroke:#cccccc;stroke-dasharray:1.85,0.8;stroke-dashoffset:0;stroke-width:0.5;"/>
     </g>
     <g id="line2d_45">
      <g>
       <use style="stroke:#000000;stroke-width:0.8;" x="776.37" xlink:href="#mdb3ccbe806" y="230.2"/>
      </g>
     </g>
     <g id="text_23">
      <!-- 0.8 -->
      <g transform="translate(762.057188 250.877188)scale(0.18 -0.18)">
       <use xlink:href="#DejaVuSans-48"/>
       <use x="63.623047" xlink:href="#DejaVuSans-46"/>
       <use x="95.410156" xlink:href="#DejaVuSans-56"/>
      </g>
     </g>
    </g>
    <g id="xtick_16">
     <g id="line2d_46">
      <path clip-path="url(#p202917cc23)" d="M 825.175 230.2 
L 825.175 30.8 
" style="fill:none;stroke:#cccccc;stroke-dasharray:1.85,0.8;stroke-dashoffset:0;stroke-width:0.5;"/>
     </g>
     <g id="line2d_47">
      <g>
       <use style="stroke:#000000;stroke-width:0.8;" x="825.175" xlink:href="#mdb3ccbe806" y="230.2"/>
      </g>
     </g>
     <g id="text_24">
      <!-- 1.0 -->
      <g transform="translate(810.862188 250.877188)scale(0.18 -0.18)">
       <use xlink:href="#DejaVuSans-49"/>
       <use x="63.623047" xlink:href="#DejaVuSans-46"/>
       <use x="95.410156" xlink:href="#DejaVuSans-48"/>
      </g>
     </g>
    </g>
    <g id="xtick_17">
     <g id="line2d_48">
      <path clip-path="url(#p202917cc23)" d="M 873.98 230.2 
L 873.98 30.8 
" style="fill:none;stroke:#cccccc;stroke-dasharray:1.85,0.8;stroke-dashoffset:0;stroke-width:0.5;"/>
     </g>
     <g id="line2d_49">
      <g>
       <use style="stroke:#000000;stroke-width:0.8;" x="873.98" xlink:href="#mdb3ccbe806" y="230.2"/>
      </g>
     </g>
     <g id="text_25">
      <!-- 1.2 -->
      <g transform="translate(859.667188 250.877188)scale(0.18 -0.18)">
       <use xlink:href="#DejaVuSans-49"/>
       <use x="63.623047" xlink:href="#DejaVuSans-46"/>
       <use x="95.410156" xlink:href="#DejaVuSans-50"/>
      </g>
     </g>
    </g>
    <g id="xtick_18">
     <g id="line2d_50">
      <path clip-path="url(#p202917cc23)" d="M 922.785 230.2 
L 922.785 30.8 
" style="fill:none;stroke:#cccccc;stroke-dasharray:1.85,0.8;stroke-dashoffset:0;stroke-width:0.5;"/>
     </g>
     <g id="line2d_51">
      <g>
       <use style="stroke:#000000;stroke-width:0.8;" x="922.785" xlink:href="#mdb3ccbe806" y="230.2"/>
      </g>
     </g>
     <g id="text_26">
      <!-- 1.4 -->
      <g transform="translate(908.472188 250.877188)scale(0.18 -0.18)">
       <use xlink:href="#DejaVuSans-49"/>
       <use x="63.623047" xlink:href="#DejaVuSans-46"/>
       <use x="95.410156" xlink:href="#DejaVuSans-52"/>
      </g>
     </g>
    </g>
    <g id="xtick_19">
     <g id="line2d_52">
      <path clip-path="url(#p202917cc23)" d="M 971.59 230.2 
L 971.59 30.8 
" style="fill:none;stroke:#cccccc;stroke-dasharray:1.85,0.8;stroke-dashoffset:0;stroke-width:0.5;"/>
     </g>
     <g id="line2d_53">
      <g>
       <use style="stroke:#000000;stroke-width:0.8;" x="971.59" xlink:href="#mdb3ccbe806" y="230.2"/>
      </g>
     </g>
     <g id="text_27">
      <!-- 1.6 -->
      <g transform="translate(957.277188 250.877188)scale(0.18 -0.18)">
       <use xlink:href="#DejaVuSans-49"/>
       <use x="63.623047" xlink:href="#DejaVuSans-46"/>
       <use x="95.410156" xlink:href="#DejaVuSans-54"/>
      </g>
     </g>
    </g>
    <g id="xtick_20">
     <g id="line2d_54">
      <path clip-path="url(#p202917cc23)" d="M 1020.395 230.2 
L 1020.395 30.8 
" style="fill:none;stroke:#cccccc;stroke-dasharray:1.85,0.8;stroke-dashoffset:0;stroke-width:0.5;"/>
     </g>
     <g id="line2d_55">
      <g>
       <use style="stroke:#000000;stroke-width:0.8;" x="1020.395" xlink:href="#mdb3ccbe806" y="230.2"/>
      </g>
     </g>
     <g id="text_28">
      <!-- 1.8 -->
      <g transform="translate(1006.082188 250.877188)scale(0.18 -0.18)">
       <use xlink:href="#DejaVuSans-49"/>
       <use x="63.623047" xlink:href="#DejaVuSans-46"/>
       <use x="95.410156" xlink:href="#DejaVuSans-56"/>
      </g>
     </g>
    </g>
    <g id="text_29">
     <!-- $\Omega / \pi$ -->
     <g transform="translate(809.785 272.297813)scale(0.18 -0.18)">
      <use transform="translate(0 0.21875)" xlink:href="#DejaVuSans-937"/>
      <use transform="translate(76.416016 0.21875)" xlink:href="#DejaVuSans-47"/>
      <use transform="translate(110.107422 0.21875)" xlink:href="#DejaVuSans-Oblique-960"/>
     </g>
    </g>
   </g>
   <g id="matplotlib.axis_4">
    <g id="ytick_7">
     <g id="line2d_56">
      <path clip-path="url(#p202917cc23)" d="M 581.15 221.136364 
L 1069.2 221.136364 
" style="fill:none;stroke:#cccccc;stroke-dasharray:1.85,0.8;stroke-dashoffset:0;stroke-width:0.5;"/>
     </g>
     <g id="line2d_57">
      <g>
       <use style="stroke:#000000;stroke-width:0.8;" x="581.15" xlink:href="#m0470fdb711" y="221.136364"/>
      </g>
     </g>
     <g id="text_30">
      <!-- 0.0 -->
      <g transform="translate(545.524375 227.974957)scale(0.18 -0.18)">
       <use xlink:href="#DejaVuSans-48"/>
       <use x="63.623047" xlink:href="#DejaVuSans-46"/>
       <use x="95.410156" xlink:href="#DejaVuSans-48"/>
      </g>
     </g>
    </g>
    <g id="ytick_8">
     <g id="line2d_58">
      <path clip-path="url(#p202917cc23)" d="M 581.15 186.002333 
L 1069.2 186.002333 
" style="fill:none;stroke:#cccccc;stroke-dasharray:1.85,0.8;stroke-dashoffset:0;stroke-width:0.5;"/>
     </g>
     <g id="line2d_59">
      <g>
       <use style="stroke:#000000;stroke-width:0.8;" x="581.15" xlink:href="#m0470fdb711" y="186.002333"/>
      </g>
     </g>
     <g id="text_31">
      <!-- 0.2 -->
      <g transform="translate(545.524375 192.840927)scale(0.18 -0.18)">
       <use xlink:href="#DejaVuSans-48"/>
       <use x="63.623047" xlink:href="#DejaVuSans-46"/>
       <use x="95.410156" xlink:href="#DejaVuSans-50"/>
      </g>
     </g>
    </g>
    <g id="ytick_9">
     <g id="line2d_60">
      <path clip-path="url(#p202917cc23)" d="M 581.15 150.868303 
L 1069.2 150.868303 
" style="fill:none;stroke:#cccccc;stroke-dasharray:1.85,0.8;stroke-dashoffset:0;stroke-width:0.5;"/>
     </g>
     <g id="line2d_61">
      <g>
       <use style="stroke:#000000;stroke-width:0.8;" x="581.15" xlink:href="#m0470fdb711" y="150.868303"/>
      </g>
     </g>
     <g id="text_32">
      <!-- 0.4 -->
      <g transform="translate(545.524375 157.706897)scale(0.18 -0.18)">
       <use xlink:href="#DejaVuSans-48"/>
       <use x="63.623047" xlink:href="#DejaVuSans-46"/>
       <use x="95.410156" xlink:href="#DejaVuSans-52"/>
      </g>
     </g>
    </g>
    <g id="ytick_10">
     <g id="line2d_62">
      <path clip-path="url(#p202917cc23)" d="M 581.15 115.734273 
L 1069.2 115.734273 
" style="fill:none;stroke:#cccccc;stroke-dasharray:1.85,0.8;stroke-dashoffset:0;stroke-width:0.5;"/>
     </g>
     <g id="line2d_63">
      <g>
       <use style="stroke:#000000;stroke-width:0.8;" x="581.15" xlink:href="#m0470fdb711" y="115.734273"/>
      </g>
     </g>
     <g id="text_33">
      <!-- 0.6 -->
      <g transform="translate(545.524375 122.572866)scale(0.18 -0.18)">
       <use xlink:href="#DejaVuSans-48"/>
       <use x="63.623047" xlink:href="#DejaVuSans-46"/>
       <use x="95.410156" xlink:href="#DejaVuSans-54"/>
      </g>
     </g>
    </g>
    <g id="ytick_11">
     <g id="line2d_64">
      <path clip-path="url(#p202917cc23)" d="M 581.15 80.600242 
L 1069.2 80.600242 
" style="fill:none;stroke:#cccccc;stroke-dasharray:1.85,0.8;stroke-dashoffset:0;stroke-width:0.5;"/>
     </g>
     <g id="line2d_65">
      <g>
       <use style="stroke:#000000;stroke-width:0.8;" x="581.15" xlink:href="#m0470fdb711" y="80.600242"/>
      </g>
     </g>
     <g id="text_34">
      <!-- 0.8 -->
      <g transform="translate(545.524375 87.438836)scale(0.18 -0.18)">
       <use xlink:href="#DejaVuSans-48"/>
       <use x="63.623047" xlink:href="#DejaVuSans-46"/>
       <use x="95.410156" xlink:href="#DejaVuSans-56"/>
      </g>
     </g>
    </g>
    <g id="ytick_12">
     <g id="line2d_66">
      <path clip-path="url(#p202917cc23)" d="M 581.15 45.466212 
L 1069.2 45.466212 
" style="fill:none;stroke:#cccccc;stroke-dasharray:1.85,0.8;stroke-dashoffset:0;stroke-width:0.5;"/>
     </g>
     <g id="line2d_67">
      <g>
       <use style="stroke:#000000;stroke-width:0.8;" x="581.15" xlink:href="#m0470fdb711" y="45.466212"/>
      </g>
     </g>
     <g id="text_35">
      <!-- 1.0 -->
      <g transform="translate(545.524375 52.304806)scale(0.18 -0.18)">
       <use xlink:href="#DejaVuSans-49"/>
       <use x="63.623047" xlink:href="#DejaVuSans-46"/>
       <use x="95.410156" xlink:href="#DejaVuSans-48"/>
      </g>
     </g>
    </g>
   </g>
   <g id="line2d_68">
    <g clip-path="url(#p202917cc23)">
     <use style="stroke:#000000;" x="581.15" xlink:href="#m0d756b01b5" y="45.466212"/>
     <use style="stroke:#000000;" x="593.35125" xlink:href="#m0d756b01b5" y="45.466212"/>
     <use style="stroke:#000000;" x="605.5525" xlink:href="#m0d756b01b5" y="45.466212"/>
     <use style="stroke:#000000;" x="617.75375" xlink:href="#m0d756b01b5" y="45.466212"/>
     <use style="stroke:#000000;" x="629.955" xlink:href="#m0d756b01b5" y="45.466212"/>
     <use style="stroke:#000000;" x="642.15625" xlink:href="#m0d756b01b5" y="133.301288"/>
     <use style="stroke:#000000;" x="654.3575" xlink:href="#m0d756b01b5" y="221.136364"/>
     <use style="stroke:#000000;" x="666.55875" xlink:href="#m0d756b01b5" y="221.136364"/>
     <use style="stroke:#000000;" x="678.76" xlink:href="#m0d756b01b5" y="221.136364"/>
     <use style="stroke:#000000;" x="690.96125" xlink:href="#m0d756b01b5" y="221.136364"/>
     <use style="stroke:#000000;" x="703.1625" xlink:href="#m0d756b01b5" y="221.136364"/>
     <use style="stroke:#000000;" x="715.36375" xlink:href="#m0d756b01b5" y="221.136364"/>
     <use style="stroke:#000000;" x="727.565" xlink:href="#m0d756b01b5" y="221.136364"/>
     <use style="stroke:#000000;" x="739.76625" xlink:href="#m0d756b01b5" y="221.136364"/>
     <use style="stroke:#000000;" x="751.9675" xlink:href="#m0d756b01b5" y="221.136364"/>
     <use style="stroke:#000000;" x="764.16875" xlink:href="#m0d756b01b5" y="221.136364"/>
     <use style="stroke:#000000;" x="776.37" xlink:href="#m0d756b01b5" y="221.136364"/>
     <use style="stroke:#000000;" x="788.57125" xlink:href="#m0d756b01b5" y="221.136364"/>
     <use style="stroke:#000000;" x="800.7725" xlink:href="#m0d756b01b5" y="221.136364"/>
     <use style="stroke:#000000;" x="812.97375" xlink:href="#m0d756b01b5" y="221.136364"/>
     <use style="stroke:#000000;" x="825.175" xlink:href="#m0d756b01b5" y="221.136364"/>
     <use style="stroke:#000000;" x="837.37625" xlink:href="#m0d756b01b5" y="221.136364"/>
     <use style="stroke:#000000;" x="849.5775" xlink:href="#m0d756b01b5" y="221.136364"/>
     <use style="stroke:#000000;" x="861.77875" xlink:href="#m0d756b01b5" y="221.136364"/>
     <use style="stroke:#000000;" x="873.98" xlink:href="#m0d756b01b5" y="221.136364"/>
     <use style="stroke:#000000;" x="886.18125" xlink:href="#m0d756b01b5" y="221.136364"/>
     <use style="stroke:#000000;" x="898.3825" xlink:href="#m0d756b01b5" y="221.136364"/>
     <use style="stroke:#000000;" x="910.58375" xlink:href="#m0d756b01b5" y="221.136364"/>
     <use style="stroke:#000000;" x="922.785" xlink:href="#m0d756b01b5" y="221.136364"/>
     <use style="stroke:#000000;" x="934.98625" xlink:href="#m0d756b01b5" y="221.136364"/>
     <use style="stroke:#000000;" x="947.1875" xlink:href="#m0d756b01b5" y="221.136364"/>
     <use style="stroke:#000000;" x="959.38875" xlink:href="#m0d756b01b5" y="221.136364"/>
     <use style="stroke:#000000;" x="971.59" xlink:href="#m0d756b01b5" y="221.136364"/>
     <use style="stroke:#000000;" x="983.79125" xlink:href="#m0d756b01b5" y="221.136364"/>
     <use style="stroke:#000000;" x="995.9925" xlink:href="#m0d756b01b5" y="221.136364"/>
     <use style="stroke:#000000;" x="1008.19375" xlink:href="#m0d756b01b5" y="133.301288"/>
     <use style="stroke:#000000;" x="1020.395" xlink:href="#m0d756b01b5" y="45.466212"/>
     <use style="stroke:#000000;" x="1032.59625" xlink:href="#m0d756b01b5" y="45.466212"/>
     <use style="stroke:#000000;" x="1044.7975" xlink:href="#m0d756b01b5" y="45.466212"/>
     <use style="stroke:#000000;" x="1056.99875" xlink:href="#m0d756b01b5" y="45.466212"/>
    </g>
   </g>
   <g id="line2d_69">
    <path clip-path="url(#p202917cc23)" d="M 581.15 45.466212 
L 642.15625 45.466212 
L 642.15625 221.136364 
L 1008.19375 221.136364 
L 1008.19375 45.466212 
L 1069.2 45.466212 
" style="fill:none;stroke:#000000;stroke-linecap:square;stroke-opacity:0.5;"/>
   </g>
   <g id="line2d_70">
    <path clip-path="url(#p202917cc23)" d="M 581.15 45.466212 
L 584.962891 45.578904 
L 589.848157 45.716582 
L 592.588672 45.550493 
L 596.044104 45.088765 
L 599.380383 44.698276 
L 601.405981 44.685039 
L 603.193274 44.887767 
L 605.099719 45.331366 
L 607.721082 46.204583 
L 610.58075 47.109763 
L 612.129736 47.364103 
L 613.440417 47.355003 
L 614.631946 47.128015 
L 615.823474 46.673738 
L 617.134155 45.913106 
L 618.563989 44.810124 
L 620.70874 42.831049 
L 622.853491 40.945367 
L 623.925867 40.263339 
L 624.879089 39.918179 
L 625.594006 39.870243 
L 626.308923 40.040503 
L 627.02384 40.462127 
L 627.738757 41.167155 
L 628.453674 42.185847 
L 629.287744 43.80774 
L 630.121814 45.933251 
L 631.075037 49.019855 
L 632.147412 53.3713 
L 633.219788 58.678283 
L 634.411316 65.694066 
L 635.721997 74.721391 
L 637.270984 86.999834 
L 639.177429 104.071669 
L 641.917944 130.914569 
L 645.730835 168.047821 
L 647.63728 184.492453 
L 649.186267 196.118722 
L 650.616101 205.227189 
L 651.926782 212.109449 
L 653.118311 217.130446 
L 654.190686 220.667008 
L 654.309839 221.004431 
L 654.428992 220.9417 
L 655.382214 218.70772 
L 656.216284 217.276392 
L 657.050354 216.29112 
L 657.765271 215.767083 
L 658.480188 215.506257 
L 659.195105 215.476312 
L 660.029175 215.689067 
L 660.982397 216.194449 
L 662.173926 217.107522 
L 664.199524 219.009308 
L 666.463428 221.060298 
L 666.582581 221.117521 
L 668.012415 220.129118 
L 669.323096 219.500153 
L 670.514624 219.173793 
L 671.706152 219.07251 
L 673.016833 219.190507 
L 674.56582 219.571693 
L 676.829724 220.396759 
L 678.855322 221.102395 
L 681.000073 220.463474 
L 682.787366 220.167156 
L 684.574658 220.108428 
L 686.481104 220.27579 
L 689.102466 220.751666 
L 691.128064 221.103535 
L 693.987732 220.659756 
L 696.251636 220.530604 
L 698.634692 220.617534 
L 702.090125 221.001041 
L 703.519958 221.09303 
L 706.975391 220.788855 
L 709.835059 220.760783 
L 713.290491 220.963625 
L 716.031006 221.083104 
L 720.082202 220.87813 
L 723.656787 220.926775 
L 729.25697 221.047013 
L 733.665625 220.948672 
L 738.550891 221.08563 
L 741.053101 221.086149 
L 746.414978 221.003273 
L 767.385876 221.078304 
L 774.415894 221.104835 
L 780.373535 221.088881 
L 796.459167 221.107151 
L 824.698389 221.136301 
L 891.423975 221.040872 
L 897.262463 221.104096 
L 900.241284 221.080015 
L 906.318079 221.009115 
L 913.824707 221.007539 
L 918.471667 220.959848 
L 925.501685 220.982024 
L 929.791187 220.872092 
L 933.365771 221.01377 
L 935.748828 221.07282 
L 940.753247 220.755081 
L 943.732068 220.807672 
L 946.949194 221.107329 
L 947.544958 221.091906 
L 952.66853 220.558266 
L 955.051587 220.558402 
L 957.315491 220.777435 
L 959.8177 221.049897 
L 964.464661 220.201814 
L 966.371106 220.102466 
L 968.158398 220.239418 
L 969.945691 220.613266 
L 971.852136 221.041153 
L 976.975708 219.258292 
L 978.405542 219.077281 
L 979.59707 219.136128 
L 980.788599 219.416181 
L 981.980127 219.929904 
L 983.290808 220.756012 
L 983.886572 221.060298 
L 985.673865 219.468087 
L 988.890991 216.529138 
L 989.963367 215.849609 
L 990.797437 215.537601 
L 991.512354 215.464481 
L 992.227271 215.605765 
L 992.942188 215.994225 
L 993.657104 216.661593 
L 994.372021 217.637941 
L 995.206091 219.204446 
L 996.040161 221.004431 
L 996.993384 217.995366 
L 997.946606 214.258282 
L 999.018982 209.157939 
L 1000.21051 202.373239 
L 1001.521191 193.59116 
L 1003.070178 181.573391 
L 1004.857471 165.856165 
L 1007.35968 141.641802 
L 1012.006641 96.375975 
L 1013.913086 80.185762 
L 1015.462073 68.822451 
L 1016.891907 59.987875 
L 1018.083435 53.913547 
L 1019.155811 49.456762 
L 1020.228186 45.933251 
L 1021.181409 43.546046 
L 1022.015479 41.993067 
L 1022.849548 40.898745 
L 1023.564465 40.291648 
L 1024.279382 39.957441 
L 1024.994299 39.863636 
L 1025.709216 39.97683 
L 1026.543286 40.325589 
L 1027.615662 41.035837 
L 1029.164648 42.380767 
L 1032.620081 45.484339 
L 1034.049915 46.427848 
L 1035.360596 47.015958 
L 1036.552124 47.310022 
L 1037.743652 47.38766 
L 1039.054333 47.257645 
L 1040.722473 46.849431 
L 1043.820447 45.785255 
L 1046.203503 45.082267 
L 1048.109949 44.753045 
L 1050.016394 44.662852 
L 1052.161145 44.801623 
L 1056.093188 45.349319 
L 1059.191162 45.665205 
L 1061.931677 45.717908 
L 1066.459485 45.529159 
L 1069.080847 45.466341 
L 1069.080847 45.466341 
" style="fill:none;stroke:#d62728;stroke-linecap:square;"/>
   </g>
   <g id="patch_6">
    <path d="M 581.15 230.2 
L 581.15 30.8 
" style="fill:none;stroke:#000000;stroke-linecap:square;stroke-linejoin:miter;stroke-width:0.8;"/>
   </g>
   <g id="patch_7">
    <path d="M 581.15 230.2 
L 1069.2 230.2 
" style="fill:none;stroke:#000000;stroke-linecap:square;stroke-linejoin:miter;stroke-width:0.8;"/>
   </g>
   <g id="text_36">
    <!-- Magnitude Response -->
    <g transform="translate(731.407656 24.8)scale(0.18 -0.18)">
     <use xlink:href="#DejaVuSans-77"/>
     <use x="86.279297" xlink:href="#DejaVuSans-97"/>
     <use x="147.558594" xlink:href="#DejaVuSans-103"/>
     <use x="211.035156" xlink:href="#DejaVuSans-110"/>
     <use x="274.414062" xlink:href="#DejaVuSans-105"/>
     <use x="302.197266" xlink:href="#DejaVuSans-116"/>
     <use x="341.40625" xlink:href="#DejaVuSans-117"/>
     <use x="404.785156" xlink:href="#DejaVuSans-100"/>
     <use x="468.261719" xlink:href="#DejaVuSans-101"/>
     <use x="529.785156" xlink:href="#DejaVuSans-32"/>
     <use x="561.572266" xlink:href="#DejaVuSans-82"/>
     <use x="626.554688" xlink:href="#DejaVuSans-101"/>
     <use x="688.078125" xlink:href="#DejaVuSans-115"/>
     <use x="740.177734" xlink:href="#DejaVuSans-112"/>
     <use x="803.654297" xlink:href="#DejaVuSans-111"/>
     <use x="864.835938" xlink:href="#DejaVuSans-110"/>
     <use x="928.214844" xlink:href="#DejaVuSans-115"/>
     <use x="980.314453" xlink:href="#DejaVuSans-101"/>
    </g>
   </g>
  </g>
 </g>
 <defs>
  <clipPath id="p6884565415">
   <rect height="199.4" width="488.05" x="46.55" y="30.8"/>
  </clipPath>
  <clipPath id="p202917cc23">
   <rect height="199.4" width="488.05" x="581.15" y="30.8"/>
  </clipPath>
 </defs>
</svg>
