<?xml version="1.0" encoding="utf-8" standalone="no"?>
<!DOCTYPE svg PUBLIC "-//W3C//DTD SVG 1.1//EN"
  "http://www.w3.org/Graphics/SVG/1.1/DTD/svg11.dtd">
<!-- Created with matplotlib (https://matplotlib.org/) -->
<svg height="288pt" version="1.1" viewBox="0 0 1440 288" width="1440pt" xmlns="http://www.w3.org/2000/svg" xmlns:xlink="http://www.w3.org/1999/xlink">
 <metadata>
  <rdf:RDF xmlns:cc="http://creativecommons.org/ns#" xmlns:dc="http://purl.org/dc/elements/1.1/" xmlns:rdf="http://www.w3.org/1999/02/22-rdf-syntax-ns#">
   <cc:Work>
    <dc:type rdf:resource="http://purl.org/dc/dcmitype/StillImage"/>
    <dc:date>2021-11-18T11:49:41.235927</dc:date>
    <dc:format>image/svg+xml</dc:format>
    <dc:creator>
     <cc:Agent>
      <dc:title>Matplotlib v3.3.4, https://matplotlib.org/</dc:title>
     </cc:Agent>
    </dc:creator>
   </cc:Work>
  </rdf:RDF>
 </metadata>
 <defs>
  <style type="text/css">*{stroke-linecap:butt;stroke-linejoin:round;}</style>
 </defs>
 <g id="figure_1">
  <g id="patch_1">
   <path d="M 0 288 
L 1440 288 
L 1440 0 
L 0 0 
z
" style="fill:none;"/>
  </g>
  <g id="axes_1">
   <g id="patch_2">
    <path d="M 40.8 230.2 
L 684.475 230.2 
L 684.475 34.9 
L 40.8 34.9 
z
" style="fill:#ffffff;"/>
   </g>
   <g id="matplotlib.axis_1">
    <g id="xtick_1">
     <g id="line2d_1">
      <path clip-path="url(#pd3c2ebf82a)" d="M 40.8 230.2 
L 40.8 34.9 
" style="fill:none;stroke:#cccccc;stroke-dasharray:1.85,0.8;stroke-dashoffset:0;stroke-width:0.5;"/>
     </g>
     <g id="line2d_2">
      <defs>
       <path d="M 0 0 
L 0 3.5 
" id="mc534d9b32a" style="stroke:#000000;stroke-width:0.8;"/>
      </defs>
      <g>
       <use style="stroke:#000000;stroke-width:0.8;" x="40.8" xlink:href="#mc534d9b32a" y="230.2"/>
      </g>
     </g>
     <g id="text_1">
      <!-- 0.0 -->
      <g transform="translate(26.487187 250.877188)scale(0.18 -0.18)">
       <defs>
        <path d="M 31.78125 66.40625 
Q 24.171875 66.40625 20.328125 58.90625 
Q 16.5 51.421875 16.5 36.375 
Q 16.5 21.390625 20.328125 13.890625 
Q 24.171875 6.390625 31.78125 6.390625 
Q 39.453125 6.390625 43.28125 13.890625 
Q 47.125 21.390625 47.125 36.375 
Q 47.125 51.421875 43.28125 58.90625 
Q 39.453125 66.40625 31.78125 66.40625 
z
M 31.78125 74.21875 
Q 44.046875 74.21875 50.515625 64.515625 
Q 56.984375 54.828125 56.984375 36.375 
Q 56.984375 17.96875 50.515625 8.265625 
Q 44.046875 -1.421875 31.78125 -1.421875 
Q 19.53125 -1.421875 13.0625 8.265625 
Q 6.59375 17.96875 6.59375 36.375 
Q 6.59375 54.828125 13.0625 64.515625 
Q 19.53125 74.21875 31.78125 74.21875 
z
" id="DejaVuSans-48"/>
        <path d="M 10.6875 12.40625 
L 21 12.40625 
L 21 0 
L 10.6875 0 
z
" id="DejaVuSans-46"/>
       </defs>
       <use xlink:href="#DejaVuSans-48"/>
       <use x="63.623047" xlink:href="#DejaVuSans-46"/>
       <use x="95.410156" xlink:href="#DejaVuSans-48"/>
      </g>
     </g>
    </g>
    <g id="xtick_2">
     <g id="line2d_3">
      <path clip-path="url(#pd3c2ebf82a)" d="M 121.259375 230.2 
L 121.259375 34.9 
" style="fill:none;stroke:#cccccc;stroke-dasharray:1.85,0.8;stroke-dashoffset:0;stroke-width:0.5;"/>
     </g>
     <g id="line2d_4">
      <g>
       <use style="stroke:#000000;stroke-width:0.8;" x="121.259375" xlink:href="#mc534d9b32a" y="230.2"/>
      </g>
     </g>
     <g id="text_2">
      <!-- 0.5 -->
      <g transform="translate(106.946563 250.877188)scale(0.18 -0.18)">
       <defs>
        <path d="M 10.796875 72.90625 
L 49.515625 72.90625 
L 49.515625 64.59375 
L 19.828125 64.59375 
L 19.828125 46.734375 
Q 21.96875 47.46875 24.109375 47.828125 
Q 26.265625 48.1875 28.421875 48.1875 
Q 40.625 48.1875 47.75 41.5 
Q 54.890625 34.8125 54.890625 23.390625 
Q 54.890625 11.625 47.5625 5.09375 
Q 40.234375 -1.421875 26.90625 -1.421875 
Q 22.3125 -1.421875 17.546875 -0.640625 
Q 12.796875 0.140625 7.71875 1.703125 
L 7.71875 11.625 
Q 12.109375 9.234375 16.796875 8.0625 
Q 21.484375 6.890625 26.703125 6.890625 
Q 35.15625 6.890625 40.078125 11.328125 
Q 45.015625 15.765625 45.015625 23.390625 
Q 45.015625 31 40.078125 35.4375 
Q 35.15625 39.890625 26.703125 39.890625 
Q 22.75 39.890625 18.8125 39.015625 
Q 14.890625 38.140625 10.796875 36.28125 
z
" id="DejaVuSans-53"/>
       </defs>
       <use xlink:href="#DejaVuSans-48"/>
       <use x="63.623047" xlink:href="#DejaVuSans-46"/>
       <use x="95.410156" xlink:href="#DejaVuSans-53"/>
      </g>
     </g>
    </g>
    <g id="xtick_3">
     <g id="line2d_5">
      <path clip-path="url(#pd3c2ebf82a)" d="M 201.71875 230.2 
L 201.71875 34.9 
" style="fill:none;stroke:#cccccc;stroke-dasharray:1.85,0.8;stroke-dashoffset:0;stroke-width:0.5;"/>
     </g>
     <g id="line2d_6">
      <g>
       <use style="stroke:#000000;stroke-width:0.8;" x="201.71875" xlink:href="#mc534d9b32a" y="230.2"/>
      </g>
     </g>
     <g id="text_3">
      <!-- 1.0 -->
      <g transform="translate(187.405938 250.877188)scale(0.18 -0.18)">
       <defs>
        <path d="M 12.40625 8.296875 
L 28.515625 8.296875 
L 28.515625 63.921875 
L 10.984375 60.40625 
L 10.984375 69.390625 
L 28.421875 72.90625 
L 38.28125 72.90625 
L 38.28125 8.296875 
L 54.390625 8.296875 
L 54.390625 0 
L 12.40625 0 
z
" id="DejaVuSans-49"/>
       </defs>
       <use xlink:href="#DejaVuSans-49"/>
       <use x="63.623047" xlink:href="#DejaVuSans-46"/>
       <use x="95.410156" xlink:href="#DejaVuSans-48"/>
      </g>
     </g>
    </g>
    <g id="xtick_4">
     <g id="line2d_7">
      <path clip-path="url(#pd3c2ebf82a)" d="M 282.178125 230.2 
L 282.178125 34.9 
" style="fill:none;stroke:#cccccc;stroke-dasharray:1.85,0.8;stroke-dashoffset:0;stroke-width:0.5;"/>
     </g>
     <g id="line2d_8">
      <g>
       <use style="stroke:#000000;stroke-width:0.8;" x="282.178125" xlink:href="#mc534d9b32a" y="230.2"/>
      </g>
     </g>
     <g id="text_4">
      <!-- 1.5 -->
      <g transform="translate(267.865313 250.877188)scale(0.18 -0.18)">
       <use xlink:href="#DejaVuSans-49"/>
       <use x="63.623047" xlink:href="#DejaVuSans-46"/>
       <use x="95.410156" xlink:href="#DejaVuSans-53"/>
      </g>
     </g>
    </g>
    <g id="xtick_5">
     <g id="line2d_9">
      <path clip-path="url(#pd3c2ebf82a)" d="M 362.6375 230.2 
L 362.6375 34.9 
" style="fill:none;stroke:#cccccc;stroke-dasharray:1.85,0.8;stroke-dashoffset:0;stroke-width:0.5;"/>
     </g>
     <g id="line2d_10">
      <g>
       <use style="stroke:#000000;stroke-width:0.8;" x="362.6375" xlink:href="#mc534d9b32a" y="230.2"/>
      </g>
     </g>
     <g id="text_5">
      <!-- 2.0 -->
      <g transform="translate(348.324688 250.877188)scale(0.18 -0.18)">
       <defs>
        <path d="M 19.1875 8.296875 
L 53.609375 8.296875 
L 53.609375 0 
L 7.328125 0 
L 7.328125 8.296875 
Q 12.9375 14.109375 22.625 23.890625 
Q 32.328125 33.6875 34.8125 36.53125 
Q 39.546875 41.84375 41.421875 45.53125 
Q 43.3125 49.21875 43.3125 52.78125 
Q 43.3125 58.59375 39.234375 62.25 
Q 35.15625 65.921875 28.609375 65.921875 
Q 23.96875 65.921875 18.8125 64.3125 
Q 13.671875 62.703125 7.8125 59.421875 
L 7.8125 69.390625 
Q 13.765625 71.78125 18.9375 73 
Q 24.125 74.21875 28.421875 74.21875 
Q 39.75 74.21875 46.484375 68.546875 
Q 53.21875 62.890625 53.21875 53.421875 
Q 53.21875 48.921875 51.53125 44.890625 
Q 49.859375 40.875 45.40625 35.40625 
Q 44.1875 33.984375 37.640625 27.21875 
Q 31.109375 20.453125 19.1875 8.296875 
z
" id="DejaVuSans-50"/>
       </defs>
       <use xlink:href="#DejaVuSans-50"/>
       <use x="63.623047" xlink:href="#DejaVuSans-46"/>
       <use x="95.410156" xlink:href="#DejaVuSans-48"/>
      </g>
     </g>
    </g>
    <g id="xtick_6">
     <g id="line2d_11">
      <path clip-path="url(#pd3c2ebf82a)" d="M 443.096875 230.2 
L 443.096875 34.9 
" style="fill:none;stroke:#cccccc;stroke-dasharray:1.85,0.8;stroke-dashoffset:0;stroke-width:0.5;"/>
     </g>
     <g id="line2d_12">
      <g>
       <use style="stroke:#000000;stroke-width:0.8;" x="443.096875" xlink:href="#mc534d9b32a" y="230.2"/>
      </g>
     </g>
     <g id="text_6">
      <!-- 2.5 -->
      <g transform="translate(428.784063 250.877188)scale(0.18 -0.18)">
       <use xlink:href="#DejaVuSans-50"/>
       <use x="63.623047" xlink:href="#DejaVuSans-46"/>
       <use x="95.410156" xlink:href="#DejaVuSans-53"/>
      </g>
     </g>
    </g>
    <g id="xtick_7">
     <g id="line2d_13">
      <path clip-path="url(#pd3c2ebf82a)" d="M 523.55625 230.2 
L 523.55625 34.9 
" style="fill:none;stroke:#cccccc;stroke-dasharray:1.85,0.8;stroke-dashoffset:0;stroke-width:0.5;"/>
     </g>
     <g id="line2d_14">
      <g>
       <use style="stroke:#000000;stroke-width:0.8;" x="523.55625" xlink:href="#mc534d9b32a" y="230.2"/>
      </g>
     </g>
     <g id="text_7">
      <!-- 3.0 -->
      <g transform="translate(509.243438 250.877188)scale(0.18 -0.18)">
       <defs>
        <path d="M 40.578125 39.3125 
Q 47.65625 37.796875 51.625 33 
Q 55.609375 28.21875 55.609375 21.1875 
Q 55.609375 10.40625 48.1875 4.484375 
Q 40.765625 -1.421875 27.09375 -1.421875 
Q 22.515625 -1.421875 17.65625 -0.515625 
Q 12.796875 0.390625 7.625 2.203125 
L 7.625 11.71875 
Q 11.71875 9.328125 16.59375 8.109375 
Q 21.484375 6.890625 26.8125 6.890625 
Q 36.078125 6.890625 40.9375 10.546875 
Q 45.796875 14.203125 45.796875 21.1875 
Q 45.796875 27.640625 41.28125 31.265625 
Q 36.765625 34.90625 28.71875 34.90625 
L 20.21875 34.90625 
L 20.21875 43.015625 
L 29.109375 43.015625 
Q 36.375 43.015625 40.234375 45.921875 
Q 44.09375 48.828125 44.09375 54.296875 
Q 44.09375 59.90625 40.109375 62.90625 
Q 36.140625 65.921875 28.71875 65.921875 
Q 24.65625 65.921875 20.015625 65.03125 
Q 15.375 64.15625 9.8125 62.3125 
L 9.8125 71.09375 
Q 15.4375 72.65625 20.34375 73.4375 
Q 25.25 74.21875 29.59375 74.21875 
Q 40.828125 74.21875 47.359375 69.109375 
Q 53.90625 64.015625 53.90625 55.328125 
Q 53.90625 49.265625 50.4375 45.09375 
Q 46.96875 40.921875 40.578125 39.3125 
z
" id="DejaVuSans-51"/>
       </defs>
       <use xlink:href="#DejaVuSans-51"/>
       <use x="63.623047" xlink:href="#DejaVuSans-46"/>
       <use x="95.410156" xlink:href="#DejaVuSans-48"/>
      </g>
     </g>
    </g>
    <g id="xtick_8">
     <g id="line2d_15">
      <path clip-path="url(#pd3c2ebf82a)" d="M 604.015625 230.2 
L 604.015625 34.9 
" style="fill:none;stroke:#cccccc;stroke-dasharray:1.85,0.8;stroke-dashoffset:0;stroke-width:0.5;"/>
     </g>
     <g id="line2d_16">
      <g>
       <use style="stroke:#000000;stroke-width:0.8;" x="604.015625" xlink:href="#mc534d9b32a" y="230.2"/>
      </g>
     </g>
     <g id="text_8">
      <!-- 3.5 -->
      <g transform="translate(589.702813 250.877188)scale(0.18 -0.18)">
       <use xlink:href="#DejaVuSans-51"/>
       <use x="63.623047" xlink:href="#DejaVuSans-46"/>
       <use x="95.410156" xlink:href="#DejaVuSans-53"/>
      </g>
     </g>
    </g>
    <g id="xtick_9">
     <g id="line2d_17">
      <path clip-path="url(#pd3c2ebf82a)" d="M 684.475 230.2 
L 684.475 34.9 
" style="fill:none;stroke:#cccccc;stroke-dasharray:1.85,0.8;stroke-dashoffset:0;stroke-width:0.5;"/>
     </g>
     <g id="line2d_18">
      <g>
       <use style="stroke:#000000;stroke-width:0.8;" x="684.475" xlink:href="#mc534d9b32a" y="230.2"/>
      </g>
     </g>
     <g id="text_9">
      <!-- 4.0 -->
      <g transform="translate(670.162188 250.877188)scale(0.18 -0.18)">
       <defs>
        <path d="M 37.796875 64.3125 
L 12.890625 25.390625 
L 37.796875 25.390625 
z
M 35.203125 72.90625 
L 47.609375 72.90625 
L 47.609375 25.390625 
L 58.015625 25.390625 
L 58.015625 17.1875 
L 47.609375 17.1875 
L 47.609375 0 
L 37.796875 0 
L 37.796875 17.1875 
L 4.890625 17.1875 
L 4.890625 26.703125 
z
" id="DejaVuSans-52"/>
       </defs>
       <use xlink:href="#DejaVuSans-52"/>
       <use x="63.623047" xlink:href="#DejaVuSans-46"/>
       <use x="95.410156" xlink:href="#DejaVuSans-48"/>
      </g>
     </g>
    </g>
    <g id="text_10">
     <!-- x -->
     <g transform="translate(357.310625 272.297813)scale(0.18 -0.18)">
      <defs>
       <path d="M 54.890625 54.6875 
L 35.109375 28.078125 
L 55.90625 0 
L 45.3125 0 
L 29.390625 21.484375 
L 13.484375 0 
L 2.875 0 
L 24.125 28.609375 
L 4.6875 54.6875 
L 15.28125 54.6875 
L 29.78125 35.203125 
L 44.28125 54.6875 
z
" id="DejaVuSans-120"/>
      </defs>
      <use xlink:href="#DejaVuSans-120"/>
     </g>
    </g>
   </g>
   <g id="matplotlib.axis_2">
    <g id="ytick_1">
     <g id="line2d_19">
      <path clip-path="url(#pd3c2ebf82a)" d="M 40.8 230.004895 
L 684.475 230.004895 
" style="fill:none;stroke:#cccccc;stroke-dasharray:1.85,0.8;stroke-dashoffset:0;stroke-width:0.5;"/>
     </g>
     <g id="line2d_20">
      <defs>
       <path d="M 0 0 
L -3.5 0 
" id="m4ceaa19b59" style="stroke:#000000;stroke-width:0.8;"/>
      </defs>
      <g>
       <use style="stroke:#000000;stroke-width:0.8;" x="40.8" xlink:href="#m4ceaa19b59" y="230.004895"/>
      </g>
     </g>
     <g id="text_11">
      <!-- 0 -->
      <g transform="translate(22.3475 236.843489)scale(0.18 -0.18)">
       <use xlink:href="#DejaVuSans-48"/>
      </g>
     </g>
    </g>
    <g id="ytick_2">
     <g id="line2d_21">
      <path clip-path="url(#pd3c2ebf82a)" d="M 40.8 190.983916 
L 684.475 190.983916 
" style="fill:none;stroke:#cccccc;stroke-dasharray:1.85,0.8;stroke-dashoffset:0;stroke-width:0.5;"/>
     </g>
     <g id="line2d_22">
      <g>
       <use style="stroke:#000000;stroke-width:0.8;" x="40.8" xlink:href="#m4ceaa19b59" y="190.983916"/>
      </g>
     </g>
     <g id="text_12">
      <!-- 2 -->
      <g transform="translate(22.3475 197.82251)scale(0.18 -0.18)">
       <use xlink:href="#DejaVuSans-50"/>
      </g>
     </g>
    </g>
    <g id="ytick_3">
     <g id="line2d_23">
      <path clip-path="url(#pd3c2ebf82a)" d="M 40.8 151.962937 
L 684.475 151.962937 
" style="fill:none;stroke:#cccccc;stroke-dasharray:1.85,0.8;stroke-dashoffset:0;stroke-width:0.5;"/>
     </g>
     <g id="line2d_24">
      <g>
       <use style="stroke:#000000;stroke-width:0.8;" x="40.8" xlink:href="#m4ceaa19b59" y="151.962937"/>
      </g>
     </g>
     <g id="text_13">
      <!-- 4 -->
      <g transform="translate(22.3475 158.801531)scale(0.18 -0.18)">
       <use xlink:href="#DejaVuSans-52"/>
      </g>
     </g>
    </g>
    <g id="ytick_4">
     <g id="line2d_25">
      <path clip-path="url(#pd3c2ebf82a)" d="M 40.8 112.941958 
L 684.475 112.941958 
" style="fill:none;stroke:#cccccc;stroke-dasharray:1.85,0.8;stroke-dashoffset:0;stroke-width:0.5;"/>
     </g>
     <g id="line2d_26">
      <g>
       <use style="stroke:#000000;stroke-width:0.8;" x="40.8" xlink:href="#m4ceaa19b59" y="112.941958"/>
      </g>
     </g>
     <g id="text_14">
      <!-- 6 -->
      <g transform="translate(22.3475 119.780552)scale(0.18 -0.18)">
       <defs>
        <path d="M 33.015625 40.375 
Q 26.375 40.375 22.484375 35.828125 
Q 18.609375 31.296875 18.609375 23.390625 
Q 18.609375 15.53125 22.484375 10.953125 
Q 26.375 6.390625 33.015625 6.390625 
Q 39.65625 6.390625 43.53125 10.953125 
Q 47.40625 15.53125 47.40625 23.390625 
Q 47.40625 31.296875 43.53125 35.828125 
Q 39.65625 40.375 33.015625 40.375 
z
M 52.59375 71.296875 
L 52.59375 62.3125 
Q 48.875 64.0625 45.09375 64.984375 
Q 41.3125 65.921875 37.59375 65.921875 
Q 27.828125 65.921875 22.671875 59.328125 
Q 17.53125 52.734375 16.796875 39.40625 
Q 19.671875 43.65625 24.015625 45.921875 
Q 28.375 48.1875 33.59375 48.1875 
Q 44.578125 48.1875 50.953125 41.515625 
Q 57.328125 34.859375 57.328125 23.390625 
Q 57.328125 12.15625 50.6875 5.359375 
Q 44.046875 -1.421875 33.015625 -1.421875 
Q 20.359375 -1.421875 13.671875 8.265625 
Q 6.984375 17.96875 6.984375 36.375 
Q 6.984375 53.65625 15.1875 63.9375 
Q 23.390625 74.21875 37.203125 74.21875 
Q 40.921875 74.21875 44.703125 73.484375 
Q 48.484375 72.75 52.59375 71.296875 
z
" id="DejaVuSans-54"/>
       </defs>
       <use xlink:href="#DejaVuSans-54"/>
      </g>
     </g>
    </g>
    <g id="ytick_5">
     <g id="line2d_27">
      <path clip-path="url(#pd3c2ebf82a)" d="M 40.8 73.920979 
L 684.475 73.920979 
" style="fill:none;stroke:#cccccc;stroke-dasharray:1.85,0.8;stroke-dashoffset:0;stroke-width:0.5;"/>
     </g>
     <g id="line2d_28">
      <g>
       <use style="stroke:#000000;stroke-width:0.8;" x="40.8" xlink:href="#m4ceaa19b59" y="73.920979"/>
      </g>
     </g>
     <g id="text_15">
      <!-- 8 -->
      <g transform="translate(22.3475 80.759573)scale(0.18 -0.18)">
       <defs>
        <path d="M 31.78125 34.625 
Q 24.75 34.625 20.71875 30.859375 
Q 16.703125 27.09375 16.703125 20.515625 
Q 16.703125 13.921875 20.71875 10.15625 
Q 24.75 6.390625 31.78125 6.390625 
Q 38.8125 6.390625 42.859375 10.171875 
Q 46.921875 13.96875 46.921875 20.515625 
Q 46.921875 27.09375 42.890625 30.859375 
Q 38.875 34.625 31.78125 34.625 
z
M 21.921875 38.8125 
Q 15.578125 40.375 12.03125 44.71875 
Q 8.5 49.078125 8.5 55.328125 
Q 8.5 64.0625 14.71875 69.140625 
Q 20.953125 74.21875 31.78125 74.21875 
Q 42.671875 74.21875 48.875 69.140625 
Q 55.078125 64.0625 55.078125 55.328125 
Q 55.078125 49.078125 51.53125 44.71875 
Q 48 40.375 41.703125 38.8125 
Q 48.828125 37.15625 52.796875 32.3125 
Q 56.78125 27.484375 56.78125 20.515625 
Q 56.78125 9.90625 50.3125 4.234375 
Q 43.84375 -1.421875 31.78125 -1.421875 
Q 19.734375 -1.421875 13.25 4.234375 
Q 6.78125 9.90625 6.78125 20.515625 
Q 6.78125 27.484375 10.78125 32.3125 
Q 14.796875 37.15625 21.921875 38.8125 
z
M 18.3125 54.390625 
Q 18.3125 48.734375 21.84375 45.5625 
Q 25.390625 42.390625 31.78125 42.390625 
Q 38.140625 42.390625 41.71875 45.5625 
Q 45.3125 48.734375 45.3125 54.390625 
Q 45.3125 60.0625 41.71875 63.234375 
Q 38.140625 66.40625 31.78125 66.40625 
Q 25.390625 66.40625 21.84375 63.234375 
Q 18.3125 60.0625 18.3125 54.390625 
z
" id="DejaVuSans-56"/>
       </defs>
       <use xlink:href="#DejaVuSans-56"/>
      </g>
     </g>
    </g>
    <g id="ytick_6">
     <g id="line2d_29">
      <path clip-path="url(#pd3c2ebf82a)" d="M 40.8 34.9 
L 684.475 34.9 
" style="fill:none;stroke:#cccccc;stroke-dasharray:1.85,0.8;stroke-dashoffset:0;stroke-width:0.5;"/>
     </g>
     <g id="line2d_30">
      <g>
       <use style="stroke:#000000;stroke-width:0.8;" x="40.8" xlink:href="#m4ceaa19b59" y="34.9"/>
      </g>
     </g>
     <g id="text_16">
      <!-- 10 -->
      <g transform="translate(10.895 41.738594)scale(0.18 -0.18)">
       <use xlink:href="#DejaVuSans-49"/>
       <use x="63.623047" xlink:href="#DejaVuSans-48"/>
      </g>
     </g>
    </g>
   </g>
   <g id="line2d_31">
    <path clip-path="url(#pd3c2ebf82a)" d="M 40.8 220.24965 
L 73.371564 219.151202 
L 101.20729 217.995558 
L 125.185793 216.782823 
L 145.992587 215.512962 
L 164.16836 214.185793 
L 180.142764 212.801092 
L 194.263384 211.358302 
L 206.805392 209.857548 
L 218.000509 208.298113 
L 228.037012 206.679545 
L 237.074209 205.000743 
L 245.247272 203.259879 
L 252.662408 201.45658 
L 259.416168 199.588667 
L 265.59062 197.653483 
L 271.258179 195.646973 
L 276.471946 193.568019 
L 281.289854 191.410004 
L 285.755349 189.168322 
L 289.907053 186.83723 
L 293.778758 184.410052 
L 297.404257 181.876005 
L 300.807689 179.226743 
L 304.01319 176.450259 
L 307.040072 173.534593 
L 309.907644 170.463606 
L 312.630389 167.221752 
L 315.227618 163.782339 
L 317.704157 160.132426 
L 320.074491 156.24123 
L 322.348273 152.078268 
L 324.530331 147.616104 
L 326.630321 142.811074 
L 328.653069 137.621309 
L 330.598577 132.011477 
L 332.476499 125.910089 
L 334.286835 119.2631 
L 336.034412 111.988385 
L 337.719232 104.008838 
L 339.341293 95.236024 
L 340.905423 85.536257 
L 342.411622 74.777832 
L 343.859891 62.805568 
L 345.255057 49.385662 
L 346.592291 34.33255 
L 347.876423 17.310144 
L 349.04643 -1 
M 376.22857 -1 
L 377.512829 18.94378 
L 378.854892 36.41004 
L 380.254885 51.794359 
L 381.712809 65.414972 
L 383.228663 77.531548 
L 384.807276 88.388509 
L 386.44382 98.123798 
L 388.143122 106.910324 
L 389.900355 114.844409 
L 391.725173 122.069016 
L 393.61275 128.646437 
L 395.567913 134.664348 
L 397.595489 140.194135 
L 399.695479 145.283502 
L 401.877537 149.994686 
L 404.141664 154.359387 
L 406.497515 158.42253 
L 408.954744 162.220128 
L 411.51818 165.774945 
L 414.202304 169.118334 
L 417.016773 172.269596 
L 419.976069 175.249368 
L 423.094674 178.073861 
L 426.3919 180.75961 
L 429.887055 183.319031 
L 433.604278 185.764425 
L 437.572534 188.107222 
L 441.820789 190.35507 
L 446.378008 192.512842 
L 451.287639 194.589231 
L 456.593131 196.589084 
L 462.342758 198.516048 
L 468.594451 200.37396 
L 475.415797 202.166174 
L 482.884036 203.895173 
L 491.086065 205.562399 
L 500.128089 207.169852 
L 510.130799 208.71848 
L 521.23902 210.20935 
L 533.626545 211.643464 
L 547.496132 213.021087 
L 563.098814 214.343002 
L 580.738728 215.609728 
L 600.782767 216.82133 
L 623.689551 217.978161 
L 650.03356 219.080585 
L 680.529272 220.128567 
L 684.473391 220.249602 
L 684.473391 220.249602 
" style="fill:none;stroke:#1f77b4;stroke-linecap:square;"/>
   </g>
   <g id="line2d_32">
    <path clip-path="url(#pd3c2ebf82a)" d="M 40.8 225.127273 
L 67.27918 224.213502 
L 89.688725 223.223498 
L 108.907252 222.157293 
L 125.576825 221.014838 
L 140.180202 219.795779 
L 153.079449 218.500262 
L 164.56422 217.127451 
L 174.856583 215.677127 
L 184.139986 214.148038 
L 192.559255 212.539278 
L 200.230252 210.850403 
L 207.259183 209.0782 
L 213.723289 207.221986 
L 219.694984 205.278624 
L 225.237025 203.243731 
L 230.39769 201.114264 
L 235.220425 198.885854 
L 239.748678 196.550229 
L 244.011416 194.102694 
L 248.037603 191.535708 
L 251.851377 188.841542 
L 255.476877 186.009117 
L 258.938239 183.023042 
L 262.249947 179.872122 
L 265.426483 176.542244 
L 268.48233 173.015621 
L 271.427143 169.276311 
L 274.270578 165.305234 
L 277.027116 161.071674 
L 279.701585 156.554153 
L 282.303642 151.718875 
L 284.833284 146.545505 
L 287.300169 140.990344 
L 289.709123 135.012604 
L 292.060145 128.578564 
L 294.362893 121.621427 
L 296.612537 114.10978 
L 298.818733 105.958357 
L 300.976653 97.124014 
L 303.091126 87.519346 
L 305.16215 77.065905 
L 307.194554 65.647645 
L 309.188337 53.157099 
L 311.138672 39.508491 
L 313.050387 24.537071 
L 314.923481 8.088455 
L 315.871509 -1 
M 409.403491 -1 
L 411.315422 16.790065 
L 413.270585 32.938445 
L 415.264368 47.58743 
L 417.301599 60.9308 
L 419.377451 73.075771 
L 421.496751 84.173174 
L 423.654672 94.305684 
L 425.85604 103.591661 
L 428.105684 112.130121 
L 430.398776 119.973072 
L 432.744972 127.214424 
L 435.139443 133.891885 
L 437.587017 140.066778 
L 440.092522 145.791281 
L 442.660785 151.110034 
L 445.296634 156.061436 
L 448.004897 160.678696 
L 450.7904 164.99069 
L 453.657973 169.022666 
L 456.622096 172.808572 
L 459.687598 176.364804 
L 462.868962 179.715856 
L 466.175842 182.87689 
L 469.627549 185.86872 
L 473.233739 188.700073 
L 477.018548 191.388358 
L 481.001287 193.943397 
L 485.201266 196.372541 
L 489.647451 198.686033 
L 494.373635 200.892923 
L 499.408782 202.996945 
L 504.796342 205.005258 
L 510.579762 206.921645 
L 516.812145 208.750167 
L 523.55625 210.494406 
L 530.879662 212.155982 
L 538.869278 213.737687 
L 547.626477 215.24138 
L 557.271947 216.668389 
L 567.950515 218.019606 
L 579.840801 219.295902 
L 593.160046 220.497651 
L 608.188248 221.625765 
L 625.277819 222.680721 
L 644.882551 223.662858 
L 667.596232 224.5724 
L 684.473391 225.127224 
L 684.473391 225.127224 
" style="fill:none;stroke:#ff7f0e;stroke-linecap:square;"/>
   </g>
   <g id="patch_3">
    <path d="M 40.8 230.2 
L 40.8 34.9 
" style="fill:none;stroke:#000000;stroke-linecap:square;stroke-linejoin:miter;stroke-width:0.8;"/>
   </g>
   <g id="patch_4">
    <path d="M 684.475 230.2 
L 684.475 34.9 
" style="fill:none;stroke:#000000;stroke-linecap:square;stroke-linejoin:miter;stroke-width:0.8;"/>
   </g>
   <g id="patch_5">
    <path d="M 40.8 230.2 
L 684.475 230.2 
" style="fill:none;stroke:#000000;stroke-linecap:square;stroke-linejoin:miter;stroke-width:0.8;"/>
   </g>
   <g id="patch_6">
    <path d="M 40.8 34.9 
L 684.475 34.9 
" style="fill:none;stroke:#000000;stroke-linecap:square;stroke-linejoin:miter;stroke-width:0.8;"/>
   </g>
   <g id="text_17">
    <!-- $\vert x - 2 \vert^{-1}$ vs. $(x - 2)^{-2}$ -->
    <g transform="translate(267.5075 28.9)scale(0.18 -0.18)">
     <defs>
      <path d="M 21 76.421875 
L 21 -23.578125 
L 12.703125 -23.578125 
L 12.703125 76.421875 
z
" id="DejaVuSans-124"/>
      <path d="M 60.015625 54.6875 
L 34.90625 27.875 
L 50.296875 0 
L 39.984375 0 
L 28.421875 21.6875 
L 8.296875 0 
L -2.59375 0 
L 24.3125 28.8125 
L 10.015625 54.6875 
L 20.3125 54.6875 
L 30.8125 34.90625 
L 49.125 54.6875 
z
" id="DejaVuSans-Oblique-120"/>
      <path d="M 10.59375 35.5 
L 73.1875 35.5 
L 73.1875 27.203125 
L 10.59375 27.203125 
z
" id="DejaVuSans-8722"/>
      <path id="DejaVuSans-32"/>
      <path d="M 2.984375 54.6875 
L 12.5 54.6875 
L 29.59375 8.796875 
L 46.6875 54.6875 
L 56.203125 54.6875 
L 35.6875 0 
L 23.484375 0 
z
" id="DejaVuSans-118"/>
      <path d="M 44.28125 53.078125 
L 44.28125 44.578125 
Q 40.484375 46.53125 36.375 47.5 
Q 32.28125 48.484375 27.875 48.484375 
Q 21.1875 48.484375 17.84375 46.4375 
Q 14.5 44.390625 14.5 40.28125 
Q 14.5 37.15625 16.890625 35.375 
Q 19.28125 33.59375 26.515625 31.984375 
L 29.59375 31.296875 
Q 39.15625 29.25 43.1875 25.515625 
Q 47.21875 21.78125 47.21875 15.09375 
Q 47.21875 7.46875 41.1875 3.015625 
Q 35.15625 -1.421875 24.609375 -1.421875 
Q 20.21875 -1.421875 15.453125 -0.5625 
Q 10.6875 0.296875 5.421875 2 
L 5.421875 11.28125 
Q 10.40625 8.6875 15.234375 7.390625 
Q 20.0625 6.109375 24.8125 6.109375 
Q 31.15625 6.109375 34.5625 8.28125 
Q 37.984375 10.453125 37.984375 14.40625 
Q 37.984375 18.0625 35.515625 20.015625 
Q 33.0625 21.96875 24.703125 23.78125 
L 21.578125 24.515625 
Q 13.234375 26.265625 9.515625 29.90625 
Q 5.8125 33.546875 5.8125 39.890625 
Q 5.8125 47.609375 11.28125 51.796875 
Q 16.75 56 26.8125 56 
Q 31.78125 56 36.171875 55.265625 
Q 40.578125 54.546875 44.28125 53.078125 
z
" id="DejaVuSans-115"/>
      <path d="M 31 75.875 
Q 24.46875 64.65625 21.28125 53.65625 
Q 18.109375 42.671875 18.109375 31.390625 
Q 18.109375 20.125 21.3125 9.0625 
Q 24.515625 -2 31 -13.1875 
L 23.1875 -13.1875 
Q 15.875 -1.703125 12.234375 9.375 
Q 8.59375 20.453125 8.59375 31.390625 
Q 8.59375 42.28125 12.203125 53.3125 
Q 15.828125 64.359375 23.1875 75.875 
z
" id="DejaVuSans-40"/>
      <path d="M 8.015625 75.875 
L 15.828125 75.875 
Q 23.140625 64.359375 26.78125 53.3125 
Q 30.421875 42.28125 30.421875 31.390625 
Q 30.421875 20.453125 26.78125 9.375 
Q 23.140625 -1.703125 15.828125 -13.1875 
L 8.015625 -13.1875 
Q 14.5 -2 17.703125 9.0625 
Q 20.90625 20.125 20.90625 31.390625 
Q 20.90625 42.671875 17.703125 53.65625 
Q 14.5 64.65625 8.015625 75.875 
z
" id="DejaVuSans-41"/>
     </defs>
     <use transform="translate(0 0.765625)" xlink:href="#DejaVuSans-124"/>
     <use transform="translate(33.691406 0.765625)" xlink:href="#DejaVuSans-Oblique-120"/>
     <use transform="translate(112.353516 0.765625)" xlink:href="#DejaVuSans-8722"/>
     <use transform="translate(215.625 0.765625)" xlink:href="#DejaVuSans-50"/>
     <use transform="translate(279.248047 0.765625)" xlink:href="#DejaVuSans-124"/>
     <use transform="translate(313.896484 39.046875)scale(0.7)" xlink:href="#DejaVuSans-8722"/>
     <use transform="translate(372.548828 39.046875)scale(0.7)" xlink:href="#DejaVuSans-49"/>
     <use transform="translate(419.819336 0.765625)" xlink:href="#DejaVuSans-32"/>
     <use transform="translate(451.606445 0.765625)" xlink:href="#DejaVuSans-118"/>
     <use transform="translate(510.786133 0.765625)" xlink:href="#DejaVuSans-115"/>
     <use transform="translate(562.885742 0.765625)" xlink:href="#DejaVuSans-46"/>
     <use transform="translate(594.672852 0.765625)" xlink:href="#DejaVuSans-32"/>
     <use transform="translate(626.459961 0.765625)" xlink:href="#DejaVuSans-40"/>
     <use transform="translate(665.473633 0.765625)" xlink:href="#DejaVuSans-Oblique-120"/>
     <use transform="translate(744.135742 0.765625)" xlink:href="#DejaVuSans-8722"/>
     <use transform="translate(847.407227 0.765625)" xlink:href="#DejaVuSans-50"/>
     <use transform="translate(911.030273 0.765625)" xlink:href="#DejaVuSans-41"/>
     <use transform="translate(951.000977 39.046875)scale(0.7)" xlink:href="#DejaVuSans-8722"/>
     <use transform="translate(1009.65332 39.046875)scale(0.7)" xlink:href="#DejaVuSans-50"/>
    </g>
   </g>
  </g>
  <g id="axes_2">
   <g id="patch_7">
    <path d="M 759.4 230.2 
L 1403.075 230.2 
L 1403.075 34.9 
L 759.4 34.9 
z
" style="fill:#ffffff;"/>
   </g>
   <g id="matplotlib.axis_3">
    <g id="xtick_10">
     <g id="line2d_33">
      <path clip-path="url(#pe59d740c66)" d="M 759.4 230.2 
L 759.4 34.9 
" style="fill:none;stroke:#cccccc;stroke-dasharray:1.85,0.8;stroke-dashoffset:0;stroke-width:0.5;"/>
     </g>
     <g id="line2d_34">
      <g>
       <use style="stroke:#000000;stroke-width:0.8;" x="759.4" xlink:href="#mc534d9b32a" y="230.2"/>
      </g>
     </g>
     <g id="text_18">
      <!-- 1.9900 -->
      <g transform="translate(733.157031 248.597656)scale(0.15 -0.15)">
       <defs>
        <path d="M 10.984375 1.515625 
L 10.984375 10.5 
Q 14.703125 8.734375 18.5 7.8125 
Q 22.3125 6.890625 25.984375 6.890625 
Q 35.75 6.890625 40.890625 13.453125 
Q 46.046875 20.015625 46.78125 33.40625 
Q 43.953125 29.203125 39.59375 26.953125 
Q 35.25 24.703125 29.984375 24.703125 
Q 19.046875 24.703125 12.671875 31.3125 
Q 6.296875 37.9375 6.296875 49.421875 
Q 6.296875 60.640625 12.9375 67.421875 
Q 19.578125 74.21875 30.609375 74.21875 
Q 43.265625 74.21875 49.921875 64.515625 
Q 56.59375 54.828125 56.59375 36.375 
Q 56.59375 19.140625 48.40625 8.859375 
Q 40.234375 -1.421875 26.421875 -1.421875 
Q 22.703125 -1.421875 18.890625 -0.6875 
Q 15.09375 0.046875 10.984375 1.515625 
z
M 30.609375 32.421875 
Q 37.25 32.421875 41.125 36.953125 
Q 45.015625 41.5 45.015625 49.421875 
Q 45.015625 57.28125 41.125 61.84375 
Q 37.25 66.40625 30.609375 66.40625 
Q 23.96875 66.40625 20.09375 61.84375 
Q 16.21875 57.28125 16.21875 49.421875 
Q 16.21875 41.5 20.09375 36.953125 
Q 23.96875 32.421875 30.609375 32.421875 
z
" id="DejaVuSans-57"/>
       </defs>
       <use xlink:href="#DejaVuSans-49"/>
       <use x="63.623047" xlink:href="#DejaVuSans-46"/>
       <use x="95.410156" xlink:href="#DejaVuSans-57"/>
       <use x="159.033203" xlink:href="#DejaVuSans-57"/>
       <use x="222.65625" xlink:href="#DejaVuSans-48"/>
       <use x="286.279297" xlink:href="#DejaVuSans-48"/>
      </g>
     </g>
    </g>
    <g id="xtick_11">
     <g id="line2d_35">
      <path clip-path="url(#pe59d740c66)" d="M 839.859375 230.2 
L 839.859375 34.9 
" style="fill:none;stroke:#cccccc;stroke-dasharray:1.85,0.8;stroke-dashoffset:0;stroke-width:0.5;"/>
     </g>
     <g id="line2d_36">
      <g>
       <use style="stroke:#000000;stroke-width:0.8;" x="839.859375" xlink:href="#mc534d9b32a" y="230.2"/>
      </g>
     </g>
     <g id="text_19">
      <!-- 1.9925 -->
      <g transform="translate(813.616406 248.597656)scale(0.15 -0.15)">
       <use xlink:href="#DejaVuSans-49"/>
       <use x="63.623047" xlink:href="#DejaVuSans-46"/>
       <use x="95.410156" xlink:href="#DejaVuSans-57"/>
       <use x="159.033203" xlink:href="#DejaVuSans-57"/>
       <use x="222.65625" xlink:href="#DejaVuSans-50"/>
       <use x="286.279297" xlink:href="#DejaVuSans-53"/>
      </g>
     </g>
    </g>
    <g id="xtick_12">
     <g id="line2d_37">
      <path clip-path="url(#pe59d740c66)" d="M 920.31875 230.2 
L 920.31875 34.9 
" style="fill:none;stroke:#cccccc;stroke-dasharray:1.85,0.8;stroke-dashoffset:0;stroke-width:0.5;"/>
     </g>
     <g id="line2d_38">
      <g>
       <use style="stroke:#000000;stroke-width:0.8;" x="920.31875" xlink:href="#mc534d9b32a" y="230.2"/>
      </g>
     </g>
     <g id="text_20">
      <!-- 1.9950 -->
      <g transform="translate(894.075781 248.597656)scale(0.15 -0.15)">
       <use xlink:href="#DejaVuSans-49"/>
       <use x="63.623047" xlink:href="#DejaVuSans-46"/>
       <use x="95.410156" xlink:href="#DejaVuSans-57"/>
       <use x="159.033203" xlink:href="#DejaVuSans-57"/>
       <use x="222.65625" xlink:href="#DejaVuSans-53"/>
       <use x="286.279297" xlink:href="#DejaVuSans-48"/>
      </g>
     </g>
    </g>
    <g id="xtick_13">
     <g id="line2d_39">
      <path clip-path="url(#pe59d740c66)" d="M 1000.778125 230.2 
L 1000.778125 34.9 
" style="fill:none;stroke:#cccccc;stroke-dasharray:1.85,0.8;stroke-dashoffset:0;stroke-width:0.5;"/>
     </g>
     <g id="line2d_40">
      <g>
       <use style="stroke:#000000;stroke-width:0.8;" x="1000.778125" xlink:href="#mc534d9b32a" y="230.2"/>
      </g>
     </g>
     <g id="text_21">
      <!-- 1.9975 -->
      <g transform="translate(974.535156 248.597656)scale(0.15 -0.15)">
       <defs>
        <path d="M 8.203125 72.90625 
L 55.078125 72.90625 
L 55.078125 68.703125 
L 28.609375 0 
L 18.3125 0 
L 43.21875 64.59375 
L 8.203125 64.59375 
z
" id="DejaVuSans-55"/>
       </defs>
       <use xlink:href="#DejaVuSans-49"/>
       <use x="63.623047" xlink:href="#DejaVuSans-46"/>
       <use x="95.410156" xlink:href="#DejaVuSans-57"/>
       <use x="159.033203" xlink:href="#DejaVuSans-57"/>
       <use x="222.65625" xlink:href="#DejaVuSans-55"/>
       <use x="286.279297" xlink:href="#DejaVuSans-53"/>
      </g>
     </g>
    </g>
    <g id="xtick_14">
     <g id="line2d_41">
      <path clip-path="url(#pe59d740c66)" d="M 1081.2375 230.2 
L 1081.2375 34.9 
" style="fill:none;stroke:#cccccc;stroke-dasharray:1.85,0.8;stroke-dashoffset:0;stroke-width:0.5;"/>
     </g>
     <g id="line2d_42">
      <g>
       <use style="stroke:#000000;stroke-width:0.8;" x="1081.2375" xlink:href="#mc534d9b32a" y="230.2"/>
      </g>
     </g>
     <g id="text_22">
      <!-- 2.0000 -->
      <g transform="translate(1054.994531 248.597656)scale(0.15 -0.15)">
       <use xlink:href="#DejaVuSans-50"/>
       <use x="63.623047" xlink:href="#DejaVuSans-46"/>
       <use x="95.410156" xlink:href="#DejaVuSans-48"/>
       <use x="159.033203" xlink:href="#DejaVuSans-48"/>
       <use x="222.65625" xlink:href="#DejaVuSans-48"/>
       <use x="286.279297" xlink:href="#DejaVuSans-48"/>
      </g>
     </g>
    </g>
    <g id="xtick_15">
     <g id="line2d_43">
      <path clip-path="url(#pe59d740c66)" d="M 1161.696875 230.2 
L 1161.696875 34.9 
" style="fill:none;stroke:#cccccc;stroke-dasharray:1.85,0.8;stroke-dashoffset:0;stroke-width:0.5;"/>
     </g>
     <g id="line2d_44">
      <g>
       <use style="stroke:#000000;stroke-width:0.8;" x="1161.696875" xlink:href="#mc534d9b32a" y="230.2"/>
      </g>
     </g>
     <g id="text_23">
      <!-- 2.0025 -->
      <g transform="translate(1135.453906 248.597656)scale(0.15 -0.15)">
       <use xlink:href="#DejaVuSans-50"/>
       <use x="63.623047" xlink:href="#DejaVuSans-46"/>
       <use x="95.410156" xlink:href="#DejaVuSans-48"/>
       <use x="159.033203" xlink:href="#DejaVuSans-48"/>
       <use x="222.65625" xlink:href="#DejaVuSans-50"/>
       <use x="286.279297" xlink:href="#DejaVuSans-53"/>
      </g>
     </g>
    </g>
    <g id="xtick_16">
     <g id="line2d_45">
      <path clip-path="url(#pe59d740c66)" d="M 1242.15625 230.2 
L 1242.15625 34.9 
" style="fill:none;stroke:#cccccc;stroke-dasharray:1.85,0.8;stroke-dashoffset:0;stroke-width:0.5;"/>
     </g>
     <g id="line2d_46">
      <g>
       <use style="stroke:#000000;stroke-width:0.8;" x="1242.15625" xlink:href="#mc534d9b32a" y="230.2"/>
      </g>
     </g>
     <g id="text_24">
      <!-- 2.0050 -->
      <g transform="translate(1215.913281 248.597656)scale(0.15 -0.15)">
       <use xlink:href="#DejaVuSans-50"/>
       <use x="63.623047" xlink:href="#DejaVuSans-46"/>
       <use x="95.410156" xlink:href="#DejaVuSans-48"/>
       <use x="159.033203" xlink:href="#DejaVuSans-48"/>
       <use x="222.65625" xlink:href="#DejaVuSans-53"/>
       <use x="286.279297" xlink:href="#DejaVuSans-48"/>
      </g>
     </g>
    </g>
    <g id="xtick_17">
     <g id="line2d_47">
      <path clip-path="url(#pe59d740c66)" d="M 1322.615625 230.2 
L 1322.615625 34.9 
" style="fill:none;stroke:#cccccc;stroke-dasharray:1.85,0.8;stroke-dashoffset:0;stroke-width:0.5;"/>
     </g>
     <g id="line2d_48">
      <g>
       <use style="stroke:#000000;stroke-width:0.8;" x="1322.615625" xlink:href="#mc534d9b32a" y="230.2"/>
      </g>
     </g>
     <g id="text_25">
      <!-- 2.0075 -->
      <g transform="translate(1296.372656 248.597656)scale(0.15 -0.15)">
       <use xlink:href="#DejaVuSans-50"/>
       <use x="63.623047" xlink:href="#DejaVuSans-46"/>
       <use x="95.410156" xlink:href="#DejaVuSans-48"/>
       <use x="159.033203" xlink:href="#DejaVuSans-48"/>
       <use x="222.65625" xlink:href="#DejaVuSans-55"/>
       <use x="286.279297" xlink:href="#DejaVuSans-53"/>
      </g>
     </g>
    </g>
    <g id="xtick_18">
     <g id="line2d_49">
      <path clip-path="url(#pe59d740c66)" d="M 1403.075 230.2 
L 1403.075 34.9 
" style="fill:none;stroke:#cccccc;stroke-dasharray:1.85,0.8;stroke-dashoffset:0;stroke-width:0.5;"/>
     </g>
     <g id="line2d_50">
      <g>
       <use style="stroke:#000000;stroke-width:0.8;" x="1403.075" xlink:href="#mc534d9b32a" y="230.2"/>
      </g>
     </g>
     <g id="text_26">
      <!-- 2.0100 -->
      <g transform="translate(1376.832031 248.597656)scale(0.15 -0.15)">
       <use xlink:href="#DejaVuSans-50"/>
       <use x="63.623047" xlink:href="#DejaVuSans-46"/>
       <use x="95.410156" xlink:href="#DejaVuSans-48"/>
       <use x="159.033203" xlink:href="#DejaVuSans-49"/>
       <use x="222.65625" xlink:href="#DejaVuSans-48"/>
       <use x="286.279297" xlink:href="#DejaVuSans-48"/>
      </g>
     </g>
    </g>
    <g id="text_27">
     <!-- x -->
     <g transform="translate(1075.910625 269.394375)scale(0.18 -0.18)">
      <use xlink:href="#DejaVuSans-120"/>
     </g>
    </g>
   </g>
   <g id="matplotlib.axis_4">
    <g id="ytick_7">
     <g id="line2d_51">
      <path clip-path="url(#pe59d740c66)" d="M 759.4 225.436585 
L 1403.075 225.436585 
" style="fill:none;stroke:#cccccc;stroke-dasharray:1.85,0.8;stroke-dashoffset:0;stroke-width:0.5;"/>
     </g>
     <g id="line2d_52">
      <g>
       <use style="stroke:#000000;stroke-width:0.8;" x="759.4" xlink:href="#m4ceaa19b59" y="225.436585"/>
      </g>
     </g>
     <g id="text_28">
      <!-- 0.000 -->
      <g transform="translate(709.457813 231.135413)scale(0.15 -0.15)">
       <use xlink:href="#DejaVuSans-48"/>
       <use x="63.623047" xlink:href="#DejaVuSans-46"/>
       <use x="95.410156" xlink:href="#DejaVuSans-48"/>
       <use x="159.033203" xlink:href="#DejaVuSans-48"/>
       <use x="222.65625" xlink:href="#DejaVuSans-48"/>
      </g>
     </g>
    </g>
    <g id="ytick_8">
     <g id="line2d_53">
      <path clip-path="url(#pe59d740c66)" d="M 759.4 201.619512 
L 1403.075 201.619512 
" style="fill:none;stroke:#cccccc;stroke-dasharray:1.85,0.8;stroke-dashoffset:0;stroke-width:0.5;"/>
     </g>
     <g id="line2d_54">
      <g>
       <use style="stroke:#000000;stroke-width:0.8;" x="759.4" xlink:href="#m4ceaa19b59" y="201.619512"/>
      </g>
     </g>
     <g id="text_29">
      <!-- 0.005 -->
      <g transform="translate(709.457813 207.31834)scale(0.15 -0.15)">
       <use xlink:href="#DejaVuSans-48"/>
       <use x="63.623047" xlink:href="#DejaVuSans-46"/>
       <use x="95.410156" xlink:href="#DejaVuSans-48"/>
       <use x="159.033203" xlink:href="#DejaVuSans-48"/>
       <use x="222.65625" xlink:href="#DejaVuSans-53"/>
      </g>
     </g>
    </g>
    <g id="ytick_9">
     <g id="line2d_55">
      <path clip-path="url(#pe59d740c66)" d="M 759.4 177.802439 
L 1403.075 177.802439 
" style="fill:none;stroke:#cccccc;stroke-dasharray:1.85,0.8;stroke-dashoffset:0;stroke-width:0.5;"/>
     </g>
     <g id="line2d_56">
      <g>
       <use style="stroke:#000000;stroke-width:0.8;" x="759.4" xlink:href="#m4ceaa19b59" y="177.802439"/>
      </g>
     </g>
     <g id="text_30">
      <!-- 0.010 -->
      <g transform="translate(709.457813 183.501267)scale(0.15 -0.15)">
       <use xlink:href="#DejaVuSans-48"/>
       <use x="63.623047" xlink:href="#DejaVuSans-46"/>
       <use x="95.410156" xlink:href="#DejaVuSans-48"/>
       <use x="159.033203" xlink:href="#DejaVuSans-49"/>
       <use x="222.65625" xlink:href="#DejaVuSans-48"/>
      </g>
     </g>
    </g>
    <g id="ytick_10">
     <g id="line2d_57">
      <path clip-path="url(#pe59d740c66)" d="M 759.4 153.985366 
L 1403.075 153.985366 
" style="fill:none;stroke:#cccccc;stroke-dasharray:1.85,0.8;stroke-dashoffset:0;stroke-width:0.5;"/>
     </g>
     <g id="line2d_58">
      <g>
       <use style="stroke:#000000;stroke-width:0.8;" x="759.4" xlink:href="#m4ceaa19b59" y="153.985366"/>
      </g>
     </g>
     <g id="text_31">
      <!-- 0.015 -->
      <g transform="translate(709.457813 159.684194)scale(0.15 -0.15)">
       <use xlink:href="#DejaVuSans-48"/>
       <use x="63.623047" xlink:href="#DejaVuSans-46"/>
       <use x="95.410156" xlink:href="#DejaVuSans-48"/>
       <use x="159.033203" xlink:href="#DejaVuSans-49"/>
       <use x="222.65625" xlink:href="#DejaVuSans-53"/>
      </g>
     </g>
    </g>
    <g id="ytick_11">
     <g id="line2d_59">
      <path clip-path="url(#pe59d740c66)" d="M 759.4 130.168293 
L 1403.075 130.168293 
" style="fill:none;stroke:#cccccc;stroke-dasharray:1.85,0.8;stroke-dashoffset:0;stroke-width:0.5;"/>
     </g>
     <g id="line2d_60">
      <g>
       <use style="stroke:#000000;stroke-width:0.8;" x="759.4" xlink:href="#m4ceaa19b59" y="130.168293"/>
      </g>
     </g>
     <g id="text_32">
      <!-- 0.020 -->
      <g transform="translate(709.457813 135.867121)scale(0.15 -0.15)">
       <use xlink:href="#DejaVuSans-48"/>
       <use x="63.623047" xlink:href="#DejaVuSans-46"/>
       <use x="95.410156" xlink:href="#DejaVuSans-48"/>
       <use x="159.033203" xlink:href="#DejaVuSans-50"/>
       <use x="222.65625" xlink:href="#DejaVuSans-48"/>
      </g>
     </g>
    </g>
    <g id="ytick_12">
     <g id="line2d_61">
      <path clip-path="url(#pe59d740c66)" d="M 759.4 106.35122 
L 1403.075 106.35122 
" style="fill:none;stroke:#cccccc;stroke-dasharray:1.85,0.8;stroke-dashoffset:0;stroke-width:0.5;"/>
     </g>
     <g id="line2d_62">
      <g>
       <use style="stroke:#000000;stroke-width:0.8;" x="759.4" xlink:href="#m4ceaa19b59" y="106.35122"/>
      </g>
     </g>
     <g id="text_33">
      <!-- 0.025 -->
      <g transform="translate(709.457813 112.050048)scale(0.15 -0.15)">
       <use xlink:href="#DejaVuSans-48"/>
       <use x="63.623047" xlink:href="#DejaVuSans-46"/>
       <use x="95.410156" xlink:href="#DejaVuSans-48"/>
       <use x="159.033203" xlink:href="#DejaVuSans-50"/>
       <use x="222.65625" xlink:href="#DejaVuSans-53"/>
      </g>
     </g>
    </g>
    <g id="ytick_13">
     <g id="line2d_63">
      <path clip-path="url(#pe59d740c66)" d="M 759.4 82.534146 
L 1403.075 82.534146 
" style="fill:none;stroke:#cccccc;stroke-dasharray:1.85,0.8;stroke-dashoffset:0;stroke-width:0.5;"/>
     </g>
     <g id="line2d_64">
      <g>
       <use style="stroke:#000000;stroke-width:0.8;" x="759.4" xlink:href="#m4ceaa19b59" y="82.534146"/>
      </g>
     </g>
     <g id="text_34">
      <!-- 0.030 -->
      <g transform="translate(709.457813 88.232974)scale(0.15 -0.15)">
       <use xlink:href="#DejaVuSans-48"/>
       <use x="63.623047" xlink:href="#DejaVuSans-46"/>
       <use x="95.410156" xlink:href="#DejaVuSans-48"/>
       <use x="159.033203" xlink:href="#DejaVuSans-51"/>
       <use x="222.65625" xlink:href="#DejaVuSans-48"/>
      </g>
     </g>
    </g>
    <g id="ytick_14">
     <g id="line2d_65">
      <path clip-path="url(#pe59d740c66)" d="M 759.4 58.717073 
L 1403.075 58.717073 
" style="fill:none;stroke:#cccccc;stroke-dasharray:1.85,0.8;stroke-dashoffset:0;stroke-width:0.5;"/>
     </g>
     <g id="line2d_66">
      <g>
       <use style="stroke:#000000;stroke-width:0.8;" x="759.4" xlink:href="#m4ceaa19b59" y="58.717073"/>
      </g>
     </g>
     <g id="text_35">
      <!-- 0.035 -->
      <g transform="translate(709.457813 64.415901)scale(0.15 -0.15)">
       <use xlink:href="#DejaVuSans-48"/>
       <use x="63.623047" xlink:href="#DejaVuSans-46"/>
       <use x="95.410156" xlink:href="#DejaVuSans-48"/>
       <use x="159.033203" xlink:href="#DejaVuSans-51"/>
       <use x="222.65625" xlink:href="#DejaVuSans-53"/>
      </g>
     </g>
    </g>
    <g id="ytick_15">
     <g id="line2d_67">
      <path clip-path="url(#pe59d740c66)" d="M 759.4 34.9 
L 1403.075 34.9 
" style="fill:none;stroke:#cccccc;stroke-dasharray:1.85,0.8;stroke-dashoffset:0;stroke-width:0.5;"/>
     </g>
     <g id="line2d_68">
      <g>
       <use style="stroke:#000000;stroke-width:0.8;" x="759.4" xlink:href="#m4ceaa19b59" y="34.9"/>
      </g>
     </g>
     <g id="text_36">
      <!-- 0.040 -->
      <g transform="translate(709.457813 40.598828)scale(0.15 -0.15)">
       <use xlink:href="#DejaVuSans-48"/>
       <use x="63.623047" xlink:href="#DejaVuSans-46"/>
       <use x="95.410156" xlink:href="#DejaVuSans-48"/>
       <use x="159.033203" xlink:href="#DejaVuSans-52"/>
       <use x="222.65625" xlink:href="#DejaVuSans-48"/>
      </g>
     </g>
    </g>
   </g>
   <g id="line2d_69">
    <path clip-path="url(#pe59d740c66)" d="M 759.078163 220.677929 
L 804.45725 219.897731 
L 841.146725 219.051311 
L 871.077613 218.141923 
L 895.215425 217.195384 
L 915.491188 216.187237 
L 932.870413 215.103799 
L 947.3531 213.986069 
L 959.904763 212.801533 
L 970.5254 211.58945 
L 980.180525 210.266475 
L 988.870138 208.839322 
L 996.594238 207.324743 
L 1003.352825 205.753054 
L 1009.1459 204.171341 
L 1013.973463 202.645128 
L 1018.801025 200.882902 
L 1022.663075 199.263977 
L 1026.525125 197.416499 
L 1030.387175 195.288391 
L 1033.283713 193.46736 
L 1036.18025 191.412195 
L 1039.076788 189.074642 
L 1041.973325 186.392203 
L 1044.869863 183.282474 
L 1046.800888 180.918692 
L 1048.731913 178.274064 
L 1050.662938 175.295379 
L 1052.593963 171.915073 
L 1054.524988 168.046048 
L 1056.456013 163.574058 
L 1058.387038 158.346238 
L 1060.318063 152.153283 
L 1062.249088 144.700744 
L 1064.180113 135.560838 
L 1065.145625 130.168293 
L 1066.111138 124.087338 
L 1067.07665 117.177162 
L 1068.042163 109.255741 
L 1069.007675 100.083569 
L 1069.973188 89.339024 
L 1070.9387 76.579878 
L 1071.904213 61.180908 
L 1072.869725 42.22833 
L 1073.835238 18.331601 
L 1074.436057 -1 
M 1088.037829 -1 
L 1088.317925 8.917738 
L 1089.283438 34.9 
L 1090.24895 55.314634 
L 1091.214463 71.778049 
L 1092.179975 85.336155 
L 1093.145488 96.695649 
L 1094.111 106.35122 
L 1095.076513 114.659501 
L 1096.042025 121.884093 
L 1097.97305 133.832458 
L 1099.904075 143.308747 
L 1101.8351 151.008232 
L 1103.766125 157.387805 
L 1105.69715 162.760077 
L 1107.628175 167.346163 
L 1109.5592 171.306874 
L 1111.490225 174.761962 
L 1113.42125 177.802439 
L 1115.352275 180.498711 
L 1117.2833 182.906098 
L 1120.179837 186.069522 
L 1123.076375 188.794934 
L 1125.972913 191.167415 
L 1128.86945 193.251351 
L 1131.765988 195.096365 
L 1135.628038 197.2507 
L 1139.490088 199.119377 
L 1143.352138 200.755681 
L 1148.1797 202.535553 
L 1153.007263 204.075982 
L 1158.800338 205.671379 
L 1164.593413 207.045023 
L 1171.352 208.42439 
L 1179.0761 209.767458 
L 1187.765713 211.045605 
L 1197.420838 212.241531 
L 1209.006988 213.43806 
L 1221.55865 214.511322 
L 1237.00685 215.59482 
L 1254.386075 216.582655 
L 1274.661838 217.510771 
L 1298.79965 218.390114 
L 1327.765025 219.218028 
L 1363.488988 220.005098 
L 1403.075 220.673171 
L 1403.075 220.673171 
" style="fill:none;stroke:#1f77b4;stroke-linecap:square;"/>
   </g>
   <g id="line2d_70">
    <path clip-path="url(#pe59d740c66)" d="M 759.078163 225.431831 
L 1017.835513 225.313845 
L 1041.973325 225.116549 
L 1052.593963 224.83522 
L 1058.387038 224.491651 
L 1062.249088 224.068181 
L 1065.145625 223.53122 
L 1067.07665 222.976144 
L 1069.007675 222.137822 
L 1069.973188 221.548084 
L 1070.9387 220.784813 
L 1071.904213 219.772597 
L 1072.869725 218.390114 
L 1073.835238 216.432021 
L 1074.80075 213.528049 
L 1075.766263 208.954182 
L 1076.731775 201.133449 
L 1077.697287 186.069522 
L 1078.6628 151.008232 
L 1079.628313 34.9 
L 1079.662963 -1 
M 1082.868084 -1 
L 1083.490363 128.224042 
L 1084.455875 177.802439 
L 1085.421387 197.2507 
L 1086.3869 206.829497 
L 1087.352412 212.241531 
L 1088.317925 215.59482 
L 1089.283438 217.815122 
L 1090.24895 219.360801 
L 1091.214463 220.479858 
L 1092.179975 221.315984 
L 1093.145488 221.957101 
L 1095.076513 222.860374 
L 1097.007538 223.452656 
L 1099.904075 224.020588 
L 1103.766125 224.46446 
L 1108.593688 224.777289 
L 1116.317788 225.035658 
L 1129.834963 225.227673 
L 1157.834825 225.352491 
L 1238.937875 225.416746 
L 1403.075 225.431822 
L 1403.075 225.431822 
" style="fill:none;stroke:#ff7f0e;stroke-linecap:square;"/>
   </g>
   <g id="patch_8">
    <path d="M 759.4 230.2 
L 759.4 34.9 
" style="fill:none;stroke:#000000;stroke-linecap:square;stroke-linejoin:miter;stroke-width:0.8;"/>
   </g>
   <g id="patch_9">
    <path d="M 1403.075 230.2 
L 1403.075 34.9 
" style="fill:none;stroke:#000000;stroke-linecap:square;stroke-linejoin:miter;stroke-width:0.8;"/>
   </g>
   <g id="patch_10">
    <path d="M 759.4 230.2 
L 1403.075 230.2 
" style="fill:none;stroke:#000000;stroke-linecap:square;stroke-linejoin:miter;stroke-width:0.8;"/>
   </g>
   <g id="patch_11">
    <path d="M 759.4 34.9 
L 1403.075 34.9 
" style="fill:none;stroke:#000000;stroke-linecap:square;stroke-linejoin:miter;stroke-width:0.8;"/>
   </g>
   <g id="text_37">
    <!-- $\vert x - 2 \vert^{-1}$ vs. $(x - 2)^{-2}$ (normalized) -->
    <g transform="translate(925.9875 28.9)scale(0.18 -0.18)">
     <defs>
      <path d="M 54.890625 33.015625 
L 54.890625 0 
L 45.90625 0 
L 45.90625 32.71875 
Q 45.90625 40.484375 42.875 44.328125 
Q 39.84375 48.1875 33.796875 48.1875 
Q 26.515625 48.1875 22.3125 43.546875 
Q 18.109375 38.921875 18.109375 30.90625 
L 18.109375 0 
L 9.078125 0 
L 9.078125 54.6875 
L 18.109375 54.6875 
L 18.109375 46.1875 
Q 21.34375 51.125 25.703125 53.5625 
Q 30.078125 56 35.796875 56 
Q 45.21875 56 50.046875 50.171875 
Q 54.890625 44.34375 54.890625 33.015625 
z
" id="DejaVuSans-110"/>
      <path d="M 30.609375 48.390625 
Q 23.390625 48.390625 19.1875 42.75 
Q 14.984375 37.109375 14.984375 27.296875 
Q 14.984375 17.484375 19.15625 11.84375 
Q 23.34375 6.203125 30.609375 6.203125 
Q 37.796875 6.203125 41.984375 11.859375 
Q 46.1875 17.53125 46.1875 27.296875 
Q 46.1875 37.015625 41.984375 42.703125 
Q 37.796875 48.390625 30.609375 48.390625 
z
M 30.609375 56 
Q 42.328125 56 49.015625 48.375 
Q 55.71875 40.765625 55.71875 27.296875 
Q 55.71875 13.875 49.015625 6.21875 
Q 42.328125 -1.421875 30.609375 -1.421875 
Q 18.84375 -1.421875 12.171875 6.21875 
Q 5.515625 13.875 5.515625 27.296875 
Q 5.515625 40.765625 12.171875 48.375 
Q 18.84375 56 30.609375 56 
z
" id="DejaVuSans-111"/>
      <path d="M 41.109375 46.296875 
Q 39.59375 47.171875 37.8125 47.578125 
Q 36.03125 48 33.890625 48 
Q 26.265625 48 22.1875 43.046875 
Q 18.109375 38.09375 18.109375 28.8125 
L 18.109375 0 
L 9.078125 0 
L 9.078125 54.6875 
L 18.109375 54.6875 
L 18.109375 46.1875 
Q 20.953125 51.171875 25.484375 53.578125 
Q 30.03125 56 36.53125 56 
Q 37.453125 56 38.578125 55.875 
Q 39.703125 55.765625 41.0625 55.515625 
z
" id="DejaVuSans-114"/>
      <path d="M 52 44.1875 
Q 55.375 50.25 60.0625 53.125 
Q 64.75 56 71.09375 56 
Q 79.640625 56 84.28125 50.015625 
Q 88.921875 44.046875 88.921875 33.015625 
L 88.921875 0 
L 79.890625 0 
L 79.890625 32.71875 
Q 79.890625 40.578125 77.09375 44.375 
Q 74.3125 48.1875 68.609375 48.1875 
Q 61.625 48.1875 57.5625 43.546875 
Q 53.515625 38.921875 53.515625 30.90625 
L 53.515625 0 
L 44.484375 0 
L 44.484375 32.71875 
Q 44.484375 40.625 41.703125 44.40625 
Q 38.921875 48.1875 33.109375 48.1875 
Q 26.21875 48.1875 22.15625 43.53125 
Q 18.109375 38.875 18.109375 30.90625 
L 18.109375 0 
L 9.078125 0 
L 9.078125 54.6875 
L 18.109375 54.6875 
L 18.109375 46.1875 
Q 21.1875 51.21875 25.484375 53.609375 
Q 29.78125 56 35.6875 56 
Q 41.65625 56 45.828125 52.96875 
Q 50 49.953125 52 44.1875 
z
" id="DejaVuSans-109"/>
      <path d="M 34.28125 27.484375 
Q 23.390625 27.484375 19.1875 25 
Q 14.984375 22.515625 14.984375 16.5 
Q 14.984375 11.71875 18.140625 8.90625 
Q 21.296875 6.109375 26.703125 6.109375 
Q 34.1875 6.109375 38.703125 11.40625 
Q 43.21875 16.703125 43.21875 25.484375 
L 43.21875 27.484375 
z
M 52.203125 31.203125 
L 52.203125 0 
L 43.21875 0 
L 43.21875 8.296875 
Q 40.140625 3.328125 35.546875 0.953125 
Q 30.953125 -1.421875 24.3125 -1.421875 
Q 15.921875 -1.421875 10.953125 3.296875 
Q 6 8.015625 6 15.921875 
Q 6 25.140625 12.171875 29.828125 
Q 18.359375 34.515625 30.609375 34.515625 
L 43.21875 34.515625 
L 43.21875 35.40625 
Q 43.21875 41.609375 39.140625 45 
Q 35.0625 48.390625 27.6875 48.390625 
Q 23 48.390625 18.546875 47.265625 
Q 14.109375 46.140625 10.015625 43.890625 
L 10.015625 52.203125 
Q 14.9375 54.109375 19.578125 55.046875 
Q 24.21875 56 28.609375 56 
Q 40.484375 56 46.34375 49.84375 
Q 52.203125 43.703125 52.203125 31.203125 
z
" id="DejaVuSans-97"/>
      <path d="M 9.421875 75.984375 
L 18.40625 75.984375 
L 18.40625 0 
L 9.421875 0 
z
" id="DejaVuSans-108"/>
      <path d="M 9.421875 54.6875 
L 18.40625 54.6875 
L 18.40625 0 
L 9.421875 0 
z
M 9.421875 75.984375 
L 18.40625 75.984375 
L 18.40625 64.59375 
L 9.421875 64.59375 
z
" id="DejaVuSans-105"/>
      <path d="M 5.515625 54.6875 
L 48.1875 54.6875 
L 48.1875 46.484375 
L 14.40625 7.171875 
L 48.1875 7.171875 
L 48.1875 0 
L 4.296875 0 
L 4.296875 8.203125 
L 38.09375 47.515625 
L 5.515625 47.515625 
z
" id="DejaVuSans-122"/>
      <path d="M 56.203125 29.59375 
L 56.203125 25.203125 
L 14.890625 25.203125 
Q 15.484375 15.921875 20.484375 11.0625 
Q 25.484375 6.203125 34.421875 6.203125 
Q 39.59375 6.203125 44.453125 7.46875 
Q 49.3125 8.734375 54.109375 11.28125 
L 54.109375 2.78125 
Q 49.265625 0.734375 44.1875 -0.34375 
Q 39.109375 -1.421875 33.890625 -1.421875 
Q 20.796875 -1.421875 13.15625 6.1875 
Q 5.515625 13.8125 5.515625 26.8125 
Q 5.515625 40.234375 12.765625 48.109375 
Q 20.015625 56 32.328125 56 
Q 43.359375 56 49.78125 48.890625 
Q 56.203125 41.796875 56.203125 29.59375 
z
M 47.21875 32.234375 
Q 47.125 39.59375 43.09375 43.984375 
Q 39.0625 48.390625 32.421875 48.390625 
Q 24.90625 48.390625 20.390625 44.140625 
Q 15.875 39.890625 15.1875 32.171875 
z
" id="DejaVuSans-101"/>
      <path d="M 45.40625 46.390625 
L 45.40625 75.984375 
L 54.390625 75.984375 
L 54.390625 0 
L 45.40625 0 
L 45.40625 8.203125 
Q 42.578125 3.328125 38.25 0.953125 
Q 33.9375 -1.421875 27.875 -1.421875 
Q 17.96875 -1.421875 11.734375 6.484375 
Q 5.515625 14.40625 5.515625 27.296875 
Q 5.515625 40.1875 11.734375 48.09375 
Q 17.96875 56 27.875 56 
Q 33.9375 56 38.25 53.625 
Q 42.578125 51.265625 45.40625 46.390625 
z
M 14.796875 27.296875 
Q 14.796875 17.390625 18.875 11.75 
Q 22.953125 6.109375 30.078125 6.109375 
Q 37.203125 6.109375 41.296875 11.75 
Q 45.40625 17.390625 45.40625 27.296875 
Q 45.40625 37.203125 41.296875 42.84375 
Q 37.203125 48.484375 30.078125 48.484375 
Q 22.953125 48.484375 18.875 42.84375 
Q 14.796875 37.203125 14.796875 27.296875 
z
" id="DejaVuSans-100"/>
     </defs>
     <use transform="translate(0 0.765625)" xlink:href="#DejaVuSans-124"/>
     <use transform="translate(33.691406 0.765625)" xlink:href="#DejaVuSans-Oblique-120"/>
     <use transform="translate(112.353516 0.765625)" xlink:href="#DejaVuSans-8722"/>
     <use transform="translate(215.625 0.765625)" xlink:href="#DejaVuSans-50"/>
     <use transform="translate(279.248047 0.765625)" xlink:href="#DejaVuSans-124"/>
     <use transform="translate(313.896484 39.046875)scale(0.7)" xlink:href="#DejaVuSans-8722"/>
     <use transform="translate(372.548828 39.046875)scale(0.7)" xlink:href="#DejaVuSans-49"/>
     <use transform="translate(419.819336 0.765625)" xlink:href="#DejaVuSans-32"/>
     <use transform="translate(451.606445 0.765625)" xlink:href="#DejaVuSans-118"/>
     <use transform="translate(510.786133 0.765625)" xlink:href="#DejaVuSans-115"/>
     <use transform="translate(562.885742 0.765625)" xlink:href="#DejaVuSans-46"/>
     <use transform="translate(594.672852 0.765625)" xlink:href="#DejaVuSans-32"/>
     <use transform="translate(626.459961 0.765625)" xlink:href="#DejaVuSans-40"/>
     <use transform="translate(665.473633 0.765625)" xlink:href="#DejaVuSans-Oblique-120"/>
     <use transform="translate(744.135742 0.765625)" xlink:href="#DejaVuSans-8722"/>
     <use transform="translate(847.407227 0.765625)" xlink:href="#DejaVuSans-50"/>
     <use transform="translate(911.030273 0.765625)" xlink:href="#DejaVuSans-41"/>
     <use transform="translate(951.000977 39.046875)scale(0.7)" xlink:href="#DejaVuSans-8722"/>
     <use transform="translate(1009.65332 39.046875)scale(0.7)" xlink:href="#DejaVuSans-50"/>
     <use transform="translate(1056.923828 0.765625)" xlink:href="#DejaVuSans-32"/>
     <use transform="translate(1088.710938 0.765625)" xlink:href="#DejaVuSans-40"/>
     <use transform="translate(1127.724609 0.765625)" xlink:href="#DejaVuSans-110"/>
     <use transform="translate(1191.103516 0.765625)" xlink:href="#DejaVuSans-111"/>
     <use transform="translate(1252.285156 0.765625)" xlink:href="#DejaVuSans-114"/>
     <use transform="translate(1293.398438 0.765625)" xlink:href="#DejaVuSans-109"/>
     <use transform="translate(1390.810547 0.765625)" xlink:href="#DejaVuSans-97"/>
     <use transform="translate(1452.089844 0.765625)" xlink:href="#DejaVuSans-108"/>
     <use transform="translate(1479.873047 0.765625)" xlink:href="#DejaVuSans-105"/>
     <use transform="translate(1507.65625 0.765625)" xlink:href="#DejaVuSans-122"/>
     <use transform="translate(1560.146484 0.765625)" xlink:href="#DejaVuSans-101"/>
     <use transform="translate(1621.669922 0.765625)" xlink:href="#DejaVuSans-100"/>
     <use transform="translate(1685.146484 0.765625)" xlink:href="#DejaVuSans-41"/>
    </g>
   </g>
  </g>
 </g>
 <defs>
  <clipPath id="pd3c2ebf82a">
   <rect height="195.3" width="643.675" x="40.8" y="34.9"/>
  </clipPath>
  <clipPath id="pe59d740c66">
   <rect height="195.3" width="643.675" x="759.4" y="34.9"/>
  </clipPath>
 </defs>
</svg>
