<?xml version="1.0" encoding="UTF-8" standalone="no"?>
<!-- Created with matplotlib (https://matplotlib.org/) -->

<svg
   xmlns:dc="http://purl.org/dc/elements/1.1/"
   xmlns:cc="http://creativecommons.org/ns#"
   xmlns:rdf="http://www.w3.org/1999/02/22-rdf-syntax-ns#"
   xmlns:svg="http://www.w3.org/2000/svg"
   xmlns="http://www.w3.org/2000/svg"
   xmlns:xlink="http://www.w3.org/1999/xlink"
   xmlns:sodipodi="http://sodipodi.sourceforge.net/DTD/sodipodi-0.dtd"
   xmlns:inkscape="http://www.inkscape.org/namespaces/inkscape"
   height="576pt"
   version="1.1"
   viewBox="0 0 576 576"
   width="576pt"
   id="svg391"
   sodipodi:docname="bilintransinv.svg"
   inkscape:version="0.92.4 (5da689c313, 2019-01-14)">
  <sodipodi:namedview
     pagecolor="#ffffff"
     bordercolor="#666666"
     borderopacity="1"
     objecttolerance="10"
     gridtolerance="10"
     guidetolerance="10"
     inkscape:pageopacity="0"
     inkscape:pageshadow="2"
     inkscape:window-width="1920"
     inkscape:window-height="1009"
     id="namedview393"
     showgrid="false"
     inkscape:zoom="0.86915208"
     inkscape:cx="383.64147"
     inkscape:cy="384.50665"
     inkscape:window-x="-8"
     inkscape:window-y="-8"
     inkscape:window-maximized="1"
     inkscape:current-layer="figure_1" />
  <metadata
     id="metadata2">
    <rdf:RDF>
      <cc:Work>
        <dc:type
           rdf:resource="http://purl.org/dc/dcmitype/StillImage" />
        <dc:date>2021-11-22T16:36:21.959750</dc:date>
        <dc:format>image/svg+xml</dc:format>
        <dc:creator>
          <cc:Agent>
            <dc:title>Matplotlib v3.3.4, https://matplotlib.org/</dc:title>
          </cc:Agent>
        </dc:creator>
        <dc:title></dc:title>
      </cc:Work>
    </rdf:RDF>
  </metadata>
  <defs
     id="defs6">
    <style
       type="text/css"
       id="style4">*{stroke-linecap:butt;stroke-linejoin:round;}</style>
  </defs>
  <g
     id="figure_1">
    <g
       id="axes_1">
      <g
         id="patch_2">
        <path
           d="M 16.642032 559.503415  L 565.2 559.503415  L 565.2 30.8  L 16.642032 30.8  z "
           style="fill:#ffffff;"
           id="path11" />
      </g>
      <g
         id="matplotlib.axis_1">
        <g
           id="xtick_1">
          <g
             id="line2d_1">
            <path
               clip-path="url(#pa74ee01e1c)"
               d="M 36.420924 559.503415  L 36.420924 30.8  "
               style="fill:none;stroke:#cccccc;stroke-dasharray:1.85,0.8;stroke-dashoffset:0;stroke-width:0.5;"
               id="path14" />
          </g>
          <g
             id="line2d_2">
            <defs
               id="defs18">
              <path
                 d="M 0 0  L 0 3.5  "
                 id="m6212a7ca6a"
                 style="stroke:#000000;stroke-width:0.8;" />
            </defs>
            <g
               id="g22">
              <use
                 style="stroke:#000000;stroke-width:0.8;"
                 x="36.420924"
                 xlink:href="#m6212a7ca6a"
                 y="295.151707"
                 id="use20" />
            </g>
          </g>
          <g
             id="text_1">
            <!-- −1.0 -->
            <g
               transform="translate(14.566392 315.828895)scale(0.18 -0.18)"
               id="g39">
              <defs
                 id="defs29">
                <path
                   d="M 10.59375 35.5  L 73.1875 35.5  L 73.1875 27.203125  L 10.59375 27.203125  z "
                   id="DejaVuSans-8722" />
                <path
                   d="M 12.40625 8.296875  L 28.515625 8.296875  L 28.515625 63.921875  L 10.984375 60.40625  L 10.984375 69.390625  L 28.421875 72.90625  L 38.28125 72.90625  L 38.28125 8.296875  L 54.390625 8.296875  L 54.390625 0  L 12.40625 0  z "
                   id="DejaVuSans-49" />
                <path
                   d="M 10.6875 12.40625  L 21 12.40625  L 21 0  L 10.6875 0  z "
                   id="DejaVuSans-46" />
                <path
                   d="M 31.78125 66.40625  Q 24.171875 66.40625 20.328125 58.90625  Q 16.5 51.421875 16.5 36.375  Q 16.5 21.390625 20.328125 13.890625  Q 24.171875 6.390625 31.78125 6.390625  Q 39.453125 6.390625 43.28125 13.890625  Q 47.125 21.390625 47.125 36.375  Q 47.125 51.421875 43.28125 58.90625  Q 39.453125 66.40625 31.78125 66.40625  z M 31.78125 74.21875  Q 44.046875 74.21875 50.515625 64.515625  Q 56.984375 54.828125 56.984375 36.375  Q 56.984375 17.96875 50.515625 8.265625  Q 44.046875 -1.421875 31.78125 -1.421875  Q 19.53125 -1.421875 13.0625 8.265625  Q 6.59375 17.96875 6.59375 36.375  Q 6.59375 54.828125 13.0625 64.515625  Q 19.53125 74.21875 31.78125 74.21875  z "
                   id="DejaVuSans-48" />
              </defs>
              <use
                 xlink:href="#DejaVuSans-8722"
                 id="use31" />
              <use
                 x="83.789062"
                 xlink:href="#DejaVuSans-49"
                 id="use33" />
              <use
                 x="147.412109"
                 xlink:href="#DejaVuSans-46"
                 id="use35" />
              <use
                 x="179.199219"
                 xlink:href="#DejaVuSans-48"
                 id="use37" />
            </g>
          </g>
        </g>
        <g
           id="xtick_2">
          <g
             id="line2d_3">
            <path
               clip-path="url(#pa74ee01e1c)"
               d="M 163.672259 559.503415  L 163.672259 30.8  "
               style="fill:none;stroke:#cccccc;stroke-dasharray:1.85,0.8;stroke-dashoffset:0;stroke-width:0.5;"
               id="path43" />
          </g>
          <g
             id="line2d_4">
            <g
               id="g48">
              <use
                 style="stroke:#000000;stroke-width:0.8;"
                 x="163.672259"
                 xlink:href="#m6212a7ca6a"
                 y="295.151707"
                 id="use46" />
            </g>
          </g>
          <g
             id="text_2">
            <!-- −0.5 -->
            <g
               transform="translate(141.817728 315.828895)scale(0.18 -0.18)"
               id="g62">
              <defs
                 id="defs52">
                <path
                   d="M 10.796875 72.90625  L 49.515625 72.90625  L 49.515625 64.59375  L 19.828125 64.59375  L 19.828125 46.734375  Q 21.96875 47.46875 24.109375 47.828125  Q 26.265625 48.1875 28.421875 48.1875  Q 40.625 48.1875 47.75 41.5  Q 54.890625 34.8125 54.890625 23.390625  Q 54.890625 11.625 47.5625 5.09375  Q 40.234375 -1.421875 26.90625 -1.421875  Q 22.3125 -1.421875 17.546875 -0.640625  Q 12.796875 0.140625 7.71875 1.703125  L 7.71875 11.625  Q 12.109375 9.234375 16.796875 8.0625  Q 21.484375 6.890625 26.703125 6.890625  Q 35.15625 6.890625 40.078125 11.328125  Q 45.015625 15.765625 45.015625 23.390625  Q 45.015625 31 40.078125 35.4375  Q 35.15625 39.890625 26.703125 39.890625  Q 22.75 39.890625 18.8125 39.015625  Q 14.890625 38.140625 10.796875 36.28125  z "
                   id="DejaVuSans-53" />
              </defs>
              <use
                 xlink:href="#DejaVuSans-8722"
                 id="use54" />
              <use
                 x="83.789062"
                 xlink:href="#DejaVuSans-48"
                 id="use56" />
              <use
                 x="147.412109"
                 xlink:href="#DejaVuSans-46"
                 id="use58" />
              <use
                 x="179.199219"
                 xlink:href="#DejaVuSans-53"
                 id="use60" />
            </g>
          </g>
        </g>
        <g
           id="xtick_3">
          <g
             id="line2d_5">
            <path
               clip-path="url(#pa74ee01e1c)"
               d="M 290.923595 559.503415  L 290.923595 30.8  "
               style="fill:none;stroke:#cccccc;stroke-dasharray:1.85,0.8;stroke-dashoffset:0;stroke-width:0.5;"
               id="path66" />
          </g>
          <g
             id="line2d_6">
            <g
               id="g71">
              <use
                 style="stroke:#000000;stroke-width:0.8;"
                 x="290.923595"
                 xlink:href="#m6212a7ca6a"
                 y="295.151707"
                 id="use69" />
            </g>
          </g>
          <g
             id="text_3">
            <!-- 0.0 -->
            <g
               transform="translate(276.610782 315.828895)scale(0.18 -0.18)"
               id="g80">
              <use
                 xlink:href="#DejaVuSans-48"
                 id="use74" />
              <use
                 x="63.623047"
                 xlink:href="#DejaVuSans-46"
                 id="use76" />
              <use
                 x="95.410156"
                 xlink:href="#DejaVuSans-48"
                 id="use78" />
            </g>
          </g>
        </g>
        <g
           id="xtick_4">
          <g
             id="line2d_7">
            <path
               clip-path="url(#pa74ee01e1c)"
               d="M 418.17493 559.503415  L 418.17493 30.8  "
               style="fill:none;stroke:#cccccc;stroke-dasharray:1.85,0.8;stroke-dashoffset:0;stroke-width:0.5;"
               id="path84" />
          </g>
          <g
             id="line2d_8">
            <g
               id="g89">
              <use
                 style="stroke:#000000;stroke-width:0.8;"
                 x="418.17493"
                 xlink:href="#m6212a7ca6a"
                 y="295.151707"
                 id="use87" />
            </g>
          </g>
          <g
             id="text_4">
            <!-- 0.5 -->
            <g
               transform="translate(403.862118 315.828895)scale(0.18 -0.18)"
               id="g98">
              <use
                 xlink:href="#DejaVuSans-48"
                 id="use92" />
              <use
                 x="63.623047"
                 xlink:href="#DejaVuSans-46"
                 id="use94" />
              <use
                 x="95.410156"
                 xlink:href="#DejaVuSans-53"
                 id="use96" />
            </g>
          </g>
        </g>
        <g
           id="xtick_5">
          <g
             id="line2d_9">
            <path
               clip-path="url(#pa74ee01e1c)"
               d="M 545.426266 559.503415  L 545.426266 30.8  "
               style="fill:none;stroke:#cccccc;stroke-dasharray:1.85,0.8;stroke-dashoffset:0;stroke-width:0.5;"
               id="path102" />
          </g>
          <g
             id="line2d_10">
            <g
               id="g107">
              <use
                 style="stroke:#000000;stroke-width:0.8;"
                 x="545.426266"
                 xlink:href="#m6212a7ca6a"
                 y="295.151707"
                 id="use105" />
            </g>
          </g>
          <g
             id="text_5">
            <!-- 1.0 -->
            <g
               transform="translate(531.113453 315.828895)scale(0.18 -0.18)"
               id="g116">
              <use
                 xlink:href="#DejaVuSans-49"
                 id="use110" />
              <use
                 x="63.623047"
                 xlink:href="#DejaVuSans-46"
                 id="use112" />
              <use
                 x="95.410156"
                 xlink:href="#DejaVuSans-48"
                 id="use114" />
            </g>
          </g>
        </g>
        <g
           id="text_6">
          <!-- $\Omega / \pi$ -->
          <g
             transform="translate(522.382102 340.5511)scale(0.18 -0.18)"
             id="g131">
            <defs
               id="defs123">
              <path
                 d="M 72.609375 8.6875  L 72.609375 0  L 43.3125 0  L 43.3125 8.6875  Q 51.953125 13.421875 56.78125 21.53125  Q 61.625 29.640625 61.625 39.5  Q 61.625 51.21875 55.171875 58.296875  Q 48.734375 65.375 38.1875 65.375  Q 27.640625 65.375 21.171875 58.265625  Q 14.703125 51.171875 14.703125 39.5  Q 14.703125 29.640625 19.53125 21.53125  Q 24.421875 13.421875 33.109375 8.6875  L 33.109375 0  L 3.8125 0  L 3.8125 8.6875  L 19.390625 8.6875  Q 11.671875 15.484375 8.109375 22.75  Q 4.59375 30.03125 4.59375 39.015625  Q 4.59375 54.546875 13.96875 64.15625  Q 23.296875 73.78125 38.1875 73.78125  Q 52.984375 73.78125 62.40625 64.15625  Q 71.78125 54.59375 71.78125 39.5  Q 71.78125 30.03125 68.3125 22.796875  Q 64.84375 15.578125 56.984375 8.6875  z "
                 id="DejaVuSans-937" />
              <path
                 d="M 25.390625 72.90625  L 33.6875 72.90625  L 8.296875 -9.28125  L 0 -9.28125  z "
                 id="DejaVuSans-47" />
              <path
                 d="M 9.125 54.6875  L 61.53125 54.6875  L 59.765625 45.703125  L 52.875 45.703125  L 46.34375 12.109375  Q 45.65625 8.59375 46.578125 7.03125  Q 47.46875 5.515625 50.140625 5.515625  Q 50.875 5.515625 51.953125 5.671875  Q 53.078125 5.765625 53.421875 5.8125  L 52.15625 -0.6875  Q 50.34375 -1.3125 48.484375 -1.609375  Q 46.578125 -1.90625 44.78125 -1.90625  Q 38.921875 -1.90625 37.3125 1.265625  Q 35.6875 4.5 37.359375 13.09375  L 43.703125 45.703125  L 23.53125 45.703125  L 14.65625 0  L 5.46875 0  L 14.359375 45.703125  L 7.375 45.703125  z "
                 id="DejaVuSans-Oblique-960" />
            </defs>
            <use
               transform="translate(0 0.21875)"
               xlink:href="#DejaVuSans-937"
               id="use125" />
            <use
               transform="translate(76.416016 0.21875)"
               xlink:href="#DejaVuSans-47"
               id="use127" />
            <use
               transform="translate(110.107422 0.21875)"
               xlink:href="#DejaVuSans-Oblique-960"
               id="use129" />
          </g>
        </g>
      </g>
      <g
         id="matplotlib.axis_2">
        <g
           id="ytick_1">
          <g
             id="line2d_11">
            <path
               clip-path="url(#pa74ee01e1c)"
               d="M 16.642032 553.055812  L 565.2 553.055812  "
               style="fill:none;stroke:#cccccc;stroke-dasharray:1.85,0.8;stroke-dashoffset:0;stroke-width:0.5;"
               id="path135" />
          </g>
          <g
             id="line2d_12">
            <defs
               id="defs139">
              <path
                 d="M 0 0  L -3.5 0  "
                 id="ma5975ac937"
                 style="stroke:#000000;stroke-width:0.8;" />
            </defs>
            <g
               id="g143">
              <use
                 style="stroke:#000000;stroke-width:0.8;"
                 x="290.921016"
                 xlink:href="#ma5975ac937"
                 y="553.055812"
                 id="use141" />
            </g>
          </g>
          <g
             id="text_7">
            <!-- −4 -->
            <g
               transform="translate(257.385079 559.894406)scale(0.18 -0.18)"
               id="g153">
              <defs
                 id="defs147">
                <path
                   d="M 37.796875 64.3125  L 12.890625 25.390625  L 37.796875 25.390625  z M 35.203125 72.90625  L 47.609375 72.90625  L 47.609375 25.390625  L 58.015625 25.390625  L 58.015625 17.1875  L 47.609375 17.1875  L 47.609375 0  L 37.796875 0  L 37.796875 17.1875  L 4.890625 17.1875  L 4.890625 26.703125  z "
                   id="DejaVuSans-52" />
              </defs>
              <use
                 xlink:href="#DejaVuSans-8722"
                 id="use149" />
              <use
                 x="83.789062"
                 xlink:href="#DejaVuSans-52"
                 id="use151" />
            </g>
          </g>
        </g>
        <g
           id="ytick_2">
          <g
             id="line2d_13">
            <path
               clip-path="url(#pa74ee01e1c)"
               d="M 16.642032 488.579786  L 565.2 488.579786  "
               style="fill:none;stroke:#cccccc;stroke-dasharray:1.85,0.8;stroke-dashoffset:0;stroke-width:0.5;"
               id="path157" />
          </g>
          <g
             id="line2d_14">
            <g
               id="g162">
              <use
                 style="stroke:#000000;stroke-width:0.8;"
                 x="290.921016"
                 xlink:href="#ma5975ac937"
                 y="488.579786"
                 id="use160" />
            </g>
          </g>
          <g
             id="text_8">
            <!-- −3 -->
            <g
               transform="translate(257.385079 495.41838)scale(0.18 -0.18)"
               id="g172">
              <defs
                 id="defs166">
                <path
                   d="M 40.578125 39.3125  Q 47.65625 37.796875 51.625 33  Q 55.609375 28.21875 55.609375 21.1875  Q 55.609375 10.40625 48.1875 4.484375  Q 40.765625 -1.421875 27.09375 -1.421875  Q 22.515625 -1.421875 17.65625 -0.515625  Q 12.796875 0.390625 7.625 2.203125  L 7.625 11.71875  Q 11.71875 9.328125 16.59375 8.109375  Q 21.484375 6.890625 26.8125 6.890625  Q 36.078125 6.890625 40.9375 10.546875  Q 45.796875 14.203125 45.796875 21.1875  Q 45.796875 27.640625 41.28125 31.265625  Q 36.765625 34.90625 28.71875 34.90625  L 20.21875 34.90625  L 20.21875 43.015625  L 29.109375 43.015625  Q 36.375 43.015625 40.234375 45.921875  Q 44.09375 48.828125 44.09375 54.296875  Q 44.09375 59.90625 40.109375 62.90625  Q 36.140625 65.921875 28.71875 65.921875  Q 24.65625 65.921875 20.015625 65.03125  Q 15.375 64.15625 9.8125 62.3125  L 9.8125 71.09375  Q 15.4375 72.65625 20.34375 73.4375  Q 25.25 74.21875 29.59375 74.21875  Q 40.828125 74.21875 47.359375 69.109375  Q 53.90625 64.015625 53.90625 55.328125  Q 53.90625 49.265625 50.4375 45.09375  Q 46.96875 40.921875 40.578125 39.3125  z "
                   id="DejaVuSans-51" />
              </defs>
              <use
                 xlink:href="#DejaVuSans-8722"
                 id="use168" />
              <use
                 x="83.789062"
                 xlink:href="#DejaVuSans-51"
                 id="use170" />
            </g>
          </g>
        </g>
        <g
           id="ytick_3">
          <g
             id="line2d_15">
            <path
               clip-path="url(#pa74ee01e1c)"
               d="M 16.642032 424.10376  L 565.2 424.10376  "
               style="fill:none;stroke:#cccccc;stroke-dasharray:1.85,0.8;stroke-dashoffset:0;stroke-width:0.5;"
               id="path176" />
          </g>
          <g
             id="line2d_16">
            <g
               id="g181">
              <use
                 style="stroke:#000000;stroke-width:0.8;"
                 x="290.921016"
                 xlink:href="#ma5975ac937"
                 y="424.10376"
                 id="use179" />
            </g>
          </g>
          <g
             id="text_9">
            <!-- −2 -->
            <g
               transform="translate(257.385079 430.942353)scale(0.18 -0.18)"
               id="g191">
              <defs
                 id="defs185">
                <path
                   d="M 19.1875 8.296875  L 53.609375 8.296875  L 53.609375 0  L 7.328125 0  L 7.328125 8.296875  Q 12.9375 14.109375 22.625 23.890625  Q 32.328125 33.6875 34.8125 36.53125  Q 39.546875 41.84375 41.421875 45.53125  Q 43.3125 49.21875 43.3125 52.78125  Q 43.3125 58.59375 39.234375 62.25  Q 35.15625 65.921875 28.609375 65.921875  Q 23.96875 65.921875 18.8125 64.3125  Q 13.671875 62.703125 7.8125 59.421875  L 7.8125 69.390625  Q 13.765625 71.78125 18.9375 73  Q 24.125 74.21875 28.421875 74.21875  Q 39.75 74.21875 46.484375 68.546875  Q 53.21875 62.890625 53.21875 53.421875  Q 53.21875 48.921875 51.53125 44.890625  Q 49.859375 40.875 45.40625 35.40625  Q 44.1875 33.984375 37.640625 27.21875  Q 31.109375 20.453125 19.1875 8.296875  z "
                   id="DejaVuSans-50" />
              </defs>
              <use
                 xlink:href="#DejaVuSans-8722"
                 id="use187" />
              <use
                 x="83.789062"
                 xlink:href="#DejaVuSans-50"
                 id="use189" />
            </g>
          </g>
        </g>
        <g
           id="ytick_4">
          <g
             id="line2d_17">
            <path
               clip-path="url(#pa74ee01e1c)"
               d="M 16.642032 359.627733  L 565.2 359.627733  "
               style="fill:none;stroke:#cccccc;stroke-dasharray:1.85,0.8;stroke-dashoffset:0;stroke-width:0.5;"
               id="path195" />
          </g>
          <g
             id="line2d_18">
            <g
               id="g200">
              <use
                 style="stroke:#000000;stroke-width:0.8;"
                 x="290.921016"
                 xlink:href="#ma5975ac937"
                 y="359.627733"
                 id="use198" />
            </g>
          </g>
          <g
             id="text_10">
            <!-- −1 -->
            <g
               transform="translate(257.385079 366.466327)scale(0.18 -0.18)"
               id="g207">
              <use
                 xlink:href="#DejaVuSans-8722"
                 id="use203" />
              <use
                 x="83.789062"
                 xlink:href="#DejaVuSans-49"
                 id="use205" />
            </g>
          </g>
        </g>
        <g
           id="ytick_5">
          <g
             id="line2d_19">
            <path
               clip-path="url(#pa74ee01e1c)"
               d="M 16.642032 295.151707  L 565.2 295.151707  "
               style="fill:none;stroke:#cccccc;stroke-dasharray:1.85,0.8;stroke-dashoffset:0;stroke-width:0.5;"
               id="path211" />
          </g>
          <g
             id="line2d_20">
            <g
               id="g216">
              <use
                 style="stroke:#000000;stroke-width:0.8;"
                 x="290.921016"
                 xlink:href="#ma5975ac937"
                 y="295.151707"
                 id="use214" />
            </g>
          </g>
          <g
             id="text_11">
            <!-- 0 -->
            <g
               transform="translate(272.468516 301.990301)scale(0.18 -0.18)"
               id="g221">
              <use
                 xlink:href="#DejaVuSans-48"
                 id="use219" />
            </g>
          </g>
        </g>
        <g
           id="ytick_6">
          <g
             id="line2d_21">
            <path
               clip-path="url(#pa74ee01e1c)"
               d="M 16.642032 230.675681  L 565.2 230.675681  "
               style="fill:none;stroke:#cccccc;stroke-dasharray:1.85,0.8;stroke-dashoffset:0;stroke-width:0.5;"
               id="path225" />
          </g>
          <g
             id="line2d_22">
            <g
               id="g230">
              <use
                 style="stroke:#000000;stroke-width:0.8;"
                 x="290.921016"
                 xlink:href="#ma5975ac937"
                 y="230.675681"
                 id="use228" />
            </g>
          </g>
          <g
             id="text_12">
            <!-- 1 -->
            <g
               transform="translate(272.468516 237.514275)scale(0.18 -0.18)"
               id="g235">
              <use
                 xlink:href="#DejaVuSans-49"
                 id="use233" />
            </g>
          </g>
        </g>
        <g
           id="ytick_7">
          <g
             id="line2d_23">
            <path
               clip-path="url(#pa74ee01e1c)"
               d="M 16.642032 166.199655  L 565.2 166.199655  "
               style="fill:none;stroke:#cccccc;stroke-dasharray:1.85,0.8;stroke-dashoffset:0;stroke-width:0.5;"
               id="path239" />
          </g>
          <g
             id="line2d_24">
            <g
               id="g244">
              <use
                 style="stroke:#000000;stroke-width:0.8;"
                 x="290.921016"
                 xlink:href="#ma5975ac937"
                 y="166.199655"
                 id="use242" />
            </g>
          </g>
          <g
             id="text_13">
            <!-- 2 -->
            <g
               transform="translate(272.468516 173.038249)scale(0.18 -0.18)"
               id="g249">
              <use
                 xlink:href="#DejaVuSans-50"
                 id="use247" />
            </g>
          </g>
        </g>
        <g
           id="ytick_8">
          <g
             id="line2d_25">
            <path
               clip-path="url(#pa74ee01e1c)"
               d="M 16.642032 101.723629  L 565.2 101.723629  "
               style="fill:none;stroke:#cccccc;stroke-dasharray:1.85,0.8;stroke-dashoffset:0;stroke-width:0.5;"
               id="path253" />
          </g>
          <g
             id="line2d_26">
            <g
               id="g258">
              <use
                 style="stroke:#000000;stroke-width:0.8;"
                 x="290.921016"
                 xlink:href="#ma5975ac937"
                 y="101.723629"
                 id="use256" />
            </g>
          </g>
          <g
             id="text_14">
            <!-- 3 -->
            <g
               transform="translate(272.468516 108.562223)scale(0.18 -0.18)"
               id="g263">
              <use
                 xlink:href="#DejaVuSans-51"
                 id="use261" />
            </g>
          </g>
        </g>
        <g
           id="ytick_9">
          <g
             id="line2d_27">
            <path
               clip-path="url(#pa74ee01e1c)"
               d="M 16.642032 37.247603  L 565.2 37.247603  "
               style="fill:none;stroke:#cccccc;stroke-dasharray:1.85,0.8;stroke-dashoffset:0;stroke-width:0.5;"
               id="path267" />
          </g>
          <g
             id="line2d_28">
            <g
               id="g272">
              <use
                 style="stroke:#000000;stroke-width:0.8;"
                 x="290.921016"
                 xlink:href="#ma5975ac937"
                 y="37.247603"
                 id="use270" />
            </g>
          </g>
          <g
             id="text_15">
            <!-- 4 -->
            <g
               transform="translate(272.468516 44.086196)scale(0.18 -0.18)"
               id="g277">
              <use
                 xlink:href="#DejaVuSans-52"
                 id="use275" />
            </g>
          </g>
        </g>
        <g
           id="text_16">
          <!-- $\omega / 2\pi$ (Hz) -->
          <g
             transform="translate(259.74968 126.510341)rotate(-90)scale(0.18 -0.18)"
             id="g307">
            <defs
               id="defs287">
              <path
                 d="M 21.390625 -1.421875  Q 1.125 -1.421875 6.78125 27.59375  Q 8.984375 39.0625 19.625 54.6875  L 29.296875 54.6875  Q 19.234375 39.0625 17 27.34375  Q 12.796875 6.203125 23.734375 6.203125  Q 33.84375 6.203125 38.71875 32.46875  L 47.015625 32.46875  Q 41.703125 6.0625 51.8125 6.203125  Q 62.703125 6.296875 66.796875 27.34375  Q 69.046875 39.0625 65.140625 54.6875  L 74.8125 54.6875  Q 79.296875 39.0625 77.09375 27.59375  Q 71.53125 -1.46875 51.21875 -1.421875  Q 37.9375 -1.375 39.109375 13.1875  Q 34.28125 -1.421875 21.390625 -1.421875  z "
                 id="DejaVuSans-Oblique-969" />
              <path
                 id="DejaVuSans-32" />
              <path
                 d="M 31 75.875  Q 24.46875 64.65625 21.28125 53.65625  Q 18.109375 42.671875 18.109375 31.390625  Q 18.109375 20.125 21.3125 9.0625  Q 24.515625 -2 31 -13.1875  L 23.1875 -13.1875  Q 15.875 -1.703125 12.234375 9.375  Q 8.59375 20.453125 8.59375 31.390625  Q 8.59375 42.28125 12.203125 53.3125  Q 15.828125 64.359375 23.1875 75.875  z "
                 id="DejaVuSans-40" />
              <path
                 d="M 9.8125 72.90625  L 19.671875 72.90625  L 19.671875 43.015625  L 55.515625 43.015625  L 55.515625 72.90625  L 65.375 72.90625  L 65.375 0  L 55.515625 0  L 55.515625 34.71875  L 19.671875 34.71875  L 19.671875 0  L 9.8125 0  z "
                 id="DejaVuSans-72" />
              <path
                 d="M 5.515625 54.6875  L 48.1875 54.6875  L 48.1875 46.484375  L 14.40625 7.171875  L 48.1875 7.171875  L 48.1875 0  L 4.296875 0  L 4.296875 8.203125  L 38.09375 47.515625  L 5.515625 47.515625  z "
                 id="DejaVuSans-122" />
              <path
                 d="M 8.015625 75.875  L 15.828125 75.875  Q 23.140625 64.359375 26.78125 53.3125  Q 30.421875 42.28125 30.421875 31.390625  Q 30.421875 20.453125 26.78125 9.375  Q 23.140625 -1.703125 15.828125 -13.1875  L 8.015625 -13.1875  Q 14.5 -2 17.703125 9.0625  Q 20.90625 20.125 20.90625 31.390625  Q 20.90625 42.671875 17.703125 53.65625  Q 14.5 64.65625 8.015625 75.875  z "
                 id="DejaVuSans-41" />
            </defs>
            <use
               transform="translate(0 0.125)"
               xlink:href="#DejaVuSans-Oblique-969"
               id="use289" />
            <use
               transform="translate(83.740234 0.125)"
               xlink:href="#DejaVuSans-47"
               id="use291" />
            <use
               transform="translate(113.806641 0.125)"
               xlink:href="#DejaVuSans-50"
               id="use293" />
            <use
               transform="translate(177.429688 0.125)"
               xlink:href="#DejaVuSans-Oblique-960"
               id="use295" />
            <use
               transform="translate(237.634766 0.125)"
               xlink:href="#DejaVuSans-32"
               id="use297" />
            <use
               transform="translate(269.421875 0.125)"
               xlink:href="#DejaVuSans-40"
               id="use299" />
            <use
               transform="translate(308.435547 0.125)"
               xlink:href="#DejaVuSans-72"
               id="use301" />
            <use
               transform="translate(383.630859 0.125)"
               xlink:href="#DejaVuSans-122"
               id="use303" />
            <use
               transform="translate(436.121094 0.125)"
               xlink:href="#DejaVuSans-41"
               id="use305" />
          </g>
        </g>
      </g>
      <g
         id="line2d_29">
        <path
           clip-path="url(#pa74ee01e1c)"
           d="M 48.198065 577  L 49.383879 551.121531  L 50.631067 528.554922  L 51.954132 508.567354  L 53.32414 491.158827  L 54.761124 475.684581  L 56.233933 462.144615  L 57.784998 449.89417  L 59.392665 438.933246  L 61.024763 429.261842  L 62.770178 420.235198  L 64.625898 411.853315  L 66.410741 404.760952  L 68.238637 398.313349  L 70.300358 391.865747  L 72.39451 386.062904  L 74.481715 380.904822  L 76.820702 375.74674  L 79.110763 371.233418  L 81.668879 366.720096  L 84.111328 362.851535  L 86.823491 358.982973  L 89.322177 355.759172  L 92.071239 352.535371  L 95.108446 349.311569  L 98.479092 346.087768  L 102.237817 342.863967  L 105.568286 340.284926  L 109.229732 337.705885  L 113.269708 335.126844  L 117.744218 332.547802  L 122.719289 329.968761  L 128.272738 327.38972  L 134.496023 324.810679  L 139.666722 322.876399  L 145.325126 320.942118  L 151.527706 319.007837  L 158.335878 317.073556  L 165.814993 315.139275  L 174.032377 313.204995  L 183.053978 311.270714  L 192.939205 309.336433  L 203.733561 307.402152  L 219.573383 304.823111  L 237.014613 302.24407  L 260.737459 299.020269  L 301.090337 293.862187  L 330.817743 289.993625  L 349.334778 287.414584  L 366.38819 284.835543  L 381.814721 282.256502  L 395.59671 279.677461  L 404.900099 277.74318  L 413.378424 275.808899  L 421.096132 273.874619  L 428.120541 271.940338  L 436.522064 269.361297  L 443.955586 266.782256  L 450.552838 264.203215  L 456.428848 261.624174  L 461.682571 259.045133  L 466.398415 256.466092  L 470.648071 253.887051  L 474.492344 251.30801  L 477.982829 248.728968  L 481.163382 246.149927  L 484.759632 242.926126  L 487.990915 239.702325  L 490.907886 236.478523  L 493.552635 233.254722  L 496.416123 229.386161  L 498.988296 225.517599  L 501.310338 221.649037  L 503.74823 217.135716  L 505.935883 212.622394  L 508.175464 207.464312  L 510.178469 202.30623  L 512.192481 196.503387  L 514.179612 190.055785  L 516.110751 182.963422  L 517.964859 175.226299  L 519.727867 166.844415  L 521.391446 157.817772  L 522.951783 148.146368  L 524.493308 137.185443  L 525.984877 124.934998  L 527.405153 111.395033  L 528.794631 95.920786  L 530.122824 78.512259  L 531.370642 59.169452  L 532.560123 37.247603  L 533.698947 12.101952  L 534.216068 -1  L 534.216068 -1  "
           style="fill:none;stroke:#d62728;stroke-linecap:square;stroke-width:2;"
           id="path311" />
      </g>
      <g
         id="patch_3">
        <path
           d="M 290.921016 559.503415  L 290.921016 30.8  "
           style="fill:none;stroke:#000000;stroke-linecap:square;stroke-linejoin:miter;stroke-width:0.8;"
           id="path314" />
      </g>
      <g
         id="patch_4">
        <path
           d="M 16.642032 295.151707  L 565.2 295.151707  "
           style="fill:none;stroke:#000000;stroke-linecap:square;stroke-linejoin:miter;stroke-width:0.8;"
           id="path317" />
      </g>
      <g
         id="text_17">
        <!-- Bilinear Transformation -->
        <g
           transform="translate(186.412735 24.8)scale(0.18 -0.18)"
           id="g381">
          <defs
             id="defs333">
            <path
               d="M 19.671875 34.8125  L 19.671875 8.109375  L 35.5 8.109375  Q 43.453125 8.109375 47.28125 11.40625  Q 51.125 14.703125 51.125 21.484375  Q 51.125 28.328125 47.28125 31.5625  Q 43.453125 34.8125 35.5 34.8125  z M 19.671875 64.796875  L 19.671875 42.828125  L 34.28125 42.828125  Q 41.5 42.828125 45.03125 45.53125  Q 48.578125 48.25 48.578125 53.8125  Q 48.578125 59.328125 45.03125 62.0625  Q 41.5 64.796875 34.28125 64.796875  z M 9.8125 72.90625  L 35.015625 72.90625  Q 46.296875 72.90625 52.390625 68.21875  Q 58.5 63.53125 58.5 54.890625  Q 58.5 48.1875 55.375 44.234375  Q 52.25 40.28125 46.1875 39.3125  Q 53.46875 37.75 57.5 32.78125  Q 61.53125 27.828125 61.53125 20.40625  Q 61.53125 10.640625 54.890625 5.3125  Q 48.25 0 35.984375 0  L 9.8125 0  z "
               id="DejaVuSans-66" />
            <path
               d="M 9.421875 54.6875  L 18.40625 54.6875  L 18.40625 0  L 9.421875 0  z M 9.421875 75.984375  L 18.40625 75.984375  L 18.40625 64.59375  L 9.421875 64.59375  z "
               id="DejaVuSans-105" />
            <path
               d="M 9.421875 75.984375  L 18.40625 75.984375  L 18.40625 0  L 9.421875 0  z "
               id="DejaVuSans-108" />
            <path
               d="M 54.890625 33.015625  L 54.890625 0  L 45.90625 0  L 45.90625 32.71875  Q 45.90625 40.484375 42.875 44.328125  Q 39.84375 48.1875 33.796875 48.1875  Q 26.515625 48.1875 22.3125 43.546875  Q 18.109375 38.921875 18.109375 30.90625  L 18.109375 0  L 9.078125 0  L 9.078125 54.6875  L 18.109375 54.6875  L 18.109375 46.1875  Q 21.34375 51.125 25.703125 53.5625  Q 30.078125 56 35.796875 56  Q 45.21875 56 50.046875 50.171875  Q 54.890625 44.34375 54.890625 33.015625  z "
               id="DejaVuSans-110" />
            <path
               d="M 56.203125 29.59375  L 56.203125 25.203125  L 14.890625 25.203125  Q 15.484375 15.921875 20.484375 11.0625  Q 25.484375 6.203125 34.421875 6.203125  Q 39.59375 6.203125 44.453125 7.46875  Q 49.3125 8.734375 54.109375 11.28125  L 54.109375 2.78125  Q 49.265625 0.734375 44.1875 -0.34375  Q 39.109375 -1.421875 33.890625 -1.421875  Q 20.796875 -1.421875 13.15625 6.1875  Q 5.515625 13.8125 5.515625 26.8125  Q 5.515625 40.234375 12.765625 48.109375  Q 20.015625 56 32.328125 56  Q 43.359375 56 49.78125 48.890625  Q 56.203125 41.796875 56.203125 29.59375  z M 47.21875 32.234375  Q 47.125 39.59375 43.09375 43.984375  Q 39.0625 48.390625 32.421875 48.390625  Q 24.90625 48.390625 20.390625 44.140625  Q 15.875 39.890625 15.1875 32.171875  z "
               id="DejaVuSans-101" />
            <path
               d="M 34.28125 27.484375  Q 23.390625 27.484375 19.1875 25  Q 14.984375 22.515625 14.984375 16.5  Q 14.984375 11.71875 18.140625 8.90625  Q 21.296875 6.109375 26.703125 6.109375  Q 34.1875 6.109375 38.703125 11.40625  Q 43.21875 16.703125 43.21875 25.484375  L 43.21875 27.484375  z M 52.203125 31.203125  L 52.203125 0  L 43.21875 0  L 43.21875 8.296875  Q 40.140625 3.328125 35.546875 0.953125  Q 30.953125 -1.421875 24.3125 -1.421875  Q 15.921875 -1.421875 10.953125 3.296875  Q 6 8.015625 6 15.921875  Q 6 25.140625 12.171875 29.828125  Q 18.359375 34.515625 30.609375 34.515625  L 43.21875 34.515625  L 43.21875 35.40625  Q 43.21875 41.609375 39.140625 45  Q 35.0625 48.390625 27.6875 48.390625  Q 23 48.390625 18.546875 47.265625  Q 14.109375 46.140625 10.015625 43.890625  L 10.015625 52.203125  Q 14.9375 54.109375 19.578125 55.046875  Q 24.21875 56 28.609375 56  Q 40.484375 56 46.34375 49.84375  Q 52.203125 43.703125 52.203125 31.203125  z "
               id="DejaVuSans-97" />
            <path
               d="M 41.109375 46.296875  Q 39.59375 47.171875 37.8125 47.578125  Q 36.03125 48 33.890625 48  Q 26.265625 48 22.1875 43.046875  Q 18.109375 38.09375 18.109375 28.8125  L 18.109375 0  L 9.078125 0  L 9.078125 54.6875  L 18.109375 54.6875  L 18.109375 46.1875  Q 20.953125 51.171875 25.484375 53.578125  Q 30.03125 56 36.53125 56  Q 37.453125 56 38.578125 55.875  Q 39.703125 55.765625 41.0625 55.515625  z "
               id="DejaVuSans-114" />
            <path
               d="M -0.296875 72.90625  L 61.375 72.90625  L 61.375 64.59375  L 35.5 64.59375  L 35.5 0  L 25.59375 0  L 25.59375 64.59375  L -0.296875 64.59375  z "
               id="DejaVuSans-84" />
            <path
               d="M 44.28125 53.078125  L 44.28125 44.578125  Q 40.484375 46.53125 36.375 47.5  Q 32.28125 48.484375 27.875 48.484375  Q 21.1875 48.484375 17.84375 46.4375  Q 14.5 44.390625 14.5 40.28125  Q 14.5 37.15625 16.890625 35.375  Q 19.28125 33.59375 26.515625 31.984375  L 29.59375 31.296875  Q 39.15625 29.25 43.1875 25.515625  Q 47.21875 21.78125 47.21875 15.09375  Q 47.21875 7.46875 41.1875 3.015625  Q 35.15625 -1.421875 24.609375 -1.421875  Q 20.21875 -1.421875 15.453125 -0.5625  Q 10.6875 0.296875 5.421875 2  L 5.421875 11.28125  Q 10.40625 8.6875 15.234375 7.390625  Q 20.0625 6.109375 24.8125 6.109375  Q 31.15625 6.109375 34.5625 8.28125  Q 37.984375 10.453125 37.984375 14.40625  Q 37.984375 18.0625 35.515625 20.015625  Q 33.0625 21.96875 24.703125 23.78125  L 21.578125 24.515625  Q 13.234375 26.265625 9.515625 29.90625  Q 5.8125 33.546875 5.8125 39.890625  Q 5.8125 47.609375 11.28125 51.796875  Q 16.75 56 26.8125 56  Q 31.78125 56 36.171875 55.265625  Q 40.578125 54.546875 44.28125 53.078125  z "
               id="DejaVuSans-115" />
            <path
               d="M 37.109375 75.984375  L 37.109375 68.5  L 28.515625 68.5  Q 23.6875 68.5 21.796875 66.546875  Q 19.921875 64.59375 19.921875 59.515625  L 19.921875 54.6875  L 34.71875 54.6875  L 34.71875 47.703125  L 19.921875 47.703125  L 19.921875 0  L 10.890625 0  L 10.890625 47.703125  L 2.296875 47.703125  L 2.296875 54.6875  L 10.890625 54.6875  L 10.890625 58.5  Q 10.890625 67.625 15.140625 71.796875  Q 19.390625 75.984375 28.609375 75.984375  z "
               id="DejaVuSans-102" />
            <path
               d="M 30.609375 48.390625  Q 23.390625 48.390625 19.1875 42.75  Q 14.984375 37.109375 14.984375 27.296875  Q 14.984375 17.484375 19.15625 11.84375  Q 23.34375 6.203125 30.609375 6.203125  Q 37.796875 6.203125 41.984375 11.859375  Q 46.1875 17.53125 46.1875 27.296875  Q 46.1875 37.015625 41.984375 42.703125  Q 37.796875 48.390625 30.609375 48.390625  z M 30.609375 56  Q 42.328125 56 49.015625 48.375  Q 55.71875 40.765625 55.71875 27.296875  Q 55.71875 13.875 49.015625 6.21875  Q 42.328125 -1.421875 30.609375 -1.421875  Q 18.84375 -1.421875 12.171875 6.21875  Q 5.515625 13.875 5.515625 27.296875  Q 5.515625 40.765625 12.171875 48.375  Q 18.84375 56 30.609375 56  z "
               id="DejaVuSans-111" />
            <path
               d="M 52 44.1875  Q 55.375 50.25 60.0625 53.125  Q 64.75 56 71.09375 56  Q 79.640625 56 84.28125 50.015625  Q 88.921875 44.046875 88.921875 33.015625  L 88.921875 0  L 79.890625 0  L 79.890625 32.71875  Q 79.890625 40.578125 77.09375 44.375  Q 74.3125 48.1875 68.609375 48.1875  Q 61.625 48.1875 57.5625 43.546875  Q 53.515625 38.921875 53.515625 30.90625  L 53.515625 0  L 44.484375 0  L 44.484375 32.71875  Q 44.484375 40.625 41.703125 44.40625  Q 38.921875 48.1875 33.109375 48.1875  Q 26.21875 48.1875 22.15625 43.53125  Q 18.109375 38.875 18.109375 30.90625  L 18.109375 0  L 9.078125 0  L 9.078125 54.6875  L 18.109375 54.6875  L 18.109375 46.1875  Q 21.1875 51.21875 25.484375 53.609375  Q 29.78125 56 35.6875 56  Q 41.65625 56 45.828125 52.96875  Q 50 49.953125 52 44.1875  z "
               id="DejaVuSans-109" />
            <path
               d="M 18.3125 70.21875  L 18.3125 54.6875  L 36.8125 54.6875  L 36.8125 47.703125  L 18.3125 47.703125  L 18.3125 18.015625  Q 18.3125 11.328125 20.140625 9.421875  Q 21.96875 7.515625 27.59375 7.515625  L 36.8125 7.515625  L 36.8125 0  L 27.59375 0  Q 17.1875 0 13.234375 3.875  Q 9.28125 7.765625 9.28125 18.015625  L 9.28125 47.703125  L 2.6875 47.703125  L 2.6875 54.6875  L 9.28125 54.6875  L 9.28125 70.21875  z "
               id="DejaVuSans-116" />
          </defs>
          <use
             xlink:href="#DejaVuSans-66"
             id="use335" />
          <use
             x="68.603516"
             xlink:href="#DejaVuSans-105"
             id="use337" />
          <use
             x="96.386719"
             xlink:href="#DejaVuSans-108"
             id="use339" />
          <use
             x="124.169922"
             xlink:href="#DejaVuSans-105"
             id="use341" />
          <use
             x="151.953125"
             xlink:href="#DejaVuSans-110"
             id="use343" />
          <use
             x="215.332031"
             xlink:href="#DejaVuSans-101"
             id="use345" />
          <use
             x="276.855469"
             xlink:href="#DejaVuSans-97"
             id="use347" />
          <use
             x="338.134766"
             xlink:href="#DejaVuSans-114"
             id="use349" />
          <use
             x="379.248047"
             xlink:href="#DejaVuSans-32"
             id="use351" />
          <use
             x="411.035156"
             xlink:href="#DejaVuSans-84"
             id="use353" />
          <use
             x="457.369141"
             xlink:href="#DejaVuSans-114"
             id="use355" />
          <use
             x="498.482422"
             xlink:href="#DejaVuSans-97"
             id="use357" />
          <use
             x="559.761719"
             xlink:href="#DejaVuSans-110"
             id="use359" />
          <use
             x="623.140625"
             xlink:href="#DejaVuSans-115"
             id="use361" />
          <use
             x="675.240234"
             xlink:href="#DejaVuSans-102"
             id="use363" />
          <use
             x="710.445312"
             xlink:href="#DejaVuSans-111"
             id="use365" />
          <use
             x="771.626953"
             xlink:href="#DejaVuSans-114"
             id="use367" />
          <use
             x="810.990234"
             xlink:href="#DejaVuSans-109"
             id="use369" />
          <use
             x="908.402344"
             xlink:href="#DejaVuSans-97"
             id="use371" />
          <use
             x="969.681641"
             xlink:href="#DejaVuSans-116"
             id="use373" />
          <use
             x="1008.890625"
             xlink:href="#DejaVuSans-105"
             id="use375" />
          <use
             x="1036.673828"
             xlink:href="#DejaVuSans-111"
             id="use377" />
          <use
             x="1097.855469"
             xlink:href="#DejaVuSans-110"
             id="use379" />
        </g>
      </g>
    </g>
  </g>
  <defs
     id="defs389">
    <clipPath
       id="pa74ee01e1c">
      <rect
         height="528.703415"
         width="548.557968"
         x="16.642032"
         y="30.8"
         id="rect386" />
    </clipPath>
  </defs>
</svg>
