<?xml version="1.0" encoding="utf-8" standalone="no"?>
<!DOCTYPE svg PUBLIC "-//W3C//DTD SVG 1.1//EN"
  "http://www.w3.org/Graphics/SVG/1.1/DTD/svg11.dtd">
<!-- Created with matplotlib (https://matplotlib.org/) -->
<svg height="576pt" version="1.1" viewBox="0 0 1152 576" width="1152pt" xmlns="http://www.w3.org/2000/svg" xmlns:xlink="http://www.w3.org/1999/xlink">
 <metadata>
  <rdf:RDF xmlns:cc="http://creativecommons.org/ns#" xmlns:dc="http://purl.org/dc/elements/1.1/" xmlns:rdf="http://www.w3.org/1999/02/22-rdf-syntax-ns#">
   <cc:Work>
    <dc:type rdf:resource="http://purl.org/dc/dcmitype/StillImage"/>
    <dc:date>2021-11-15T16:46:48.356516</dc:date>
    <dc:format>image/svg+xml</dc:format>
    <dc:creator>
     <cc:Agent>
      <dc:title>Matplotlib v3.3.4, https://matplotlib.org/</dc:title>
     </cc:Agent>
    </dc:creator>
   </cc:Work>
  </rdf:RDF>
 </metadata>
 <defs>
  <style type="text/css">*{stroke-linecap:butt;stroke-linejoin:round;}</style>
 </defs>
 <g id="figure_1">
  <g id="patch_1">
   <path d="M 0 576 
L 1152 576 
L 1152 0 
L 0 0 
z
" style="fill:none;"/>
  </g>
  <g id="axes_1">
   <g id="patch_2">
    <path d="M 46.55 235.6 
L 564.85 235.6 
L 564.85 32.065625 
L 46.55 32.065625 
z
" style="fill:#ffffff;"/>
   </g>
   <g id="matplotlib.axis_1">
    <g id="xtick_1">
     <g id="line2d_1">
      <defs>
       <path d="M 0 0 
L 0 3.5 
" id="m39fdc13873" style="stroke:#000000;stroke-width:0.8;"/>
      </defs>
      <g>
       <use style="stroke:#000000;stroke-width:0.8;" x="46.55" xlink:href="#m39fdc13873" y="235.6"/>
      </g>
     </g>
     <g id="text_1">
      <!-- −10 -->
      <g transform="translate(27.555781 256.277188)scale(0.18 -0.18)">
       <defs>
        <path d="M 10.59375 35.5 
L 73.1875 35.5 
L 73.1875 27.203125 
L 10.59375 27.203125 
z
" id="DejaVuSans-8722"/>
        <path d="M 12.40625 8.296875 
L 28.515625 8.296875 
L 28.515625 63.921875 
L 10.984375 60.40625 
L 10.984375 69.390625 
L 28.421875 72.90625 
L 38.28125 72.90625 
L 38.28125 8.296875 
L 54.390625 8.296875 
L 54.390625 0 
L 12.40625 0 
z
" id="DejaVuSans-49"/>
        <path d="M 31.78125 66.40625 
Q 24.171875 66.40625 20.328125 58.90625 
Q 16.5 51.421875 16.5 36.375 
Q 16.5 21.390625 20.328125 13.890625 
Q 24.171875 6.390625 31.78125 6.390625 
Q 39.453125 6.390625 43.28125 13.890625 
Q 47.125 21.390625 47.125 36.375 
Q 47.125 51.421875 43.28125 58.90625 
Q 39.453125 66.40625 31.78125 66.40625 
z
M 31.78125 74.21875 
Q 44.046875 74.21875 50.515625 64.515625 
Q 56.984375 54.828125 56.984375 36.375 
Q 56.984375 17.96875 50.515625 8.265625 
Q 44.046875 -1.421875 31.78125 -1.421875 
Q 19.53125 -1.421875 13.0625 8.265625 
Q 6.59375 17.96875 6.59375 36.375 
Q 6.59375 54.828125 13.0625 64.515625 
Q 19.53125 74.21875 31.78125 74.21875 
z
" id="DejaVuSans-48"/>
       </defs>
       <use xlink:href="#DejaVuSans-8722"/>
       <use x="83.789062" xlink:href="#DejaVuSans-49"/>
       <use x="147.412109" xlink:href="#DejaVuSans-48"/>
      </g>
     </g>
    </g>
    <g id="xtick_2">
     <g id="line2d_2">
      <g>
       <use style="stroke:#000000;stroke-width:0.8;" x="132.933333" xlink:href="#m39fdc13873" y="235.6"/>
      </g>
     </g>
     <g id="text_2">
      <!-- 0 -->
      <g transform="translate(127.207083 256.277188)scale(0.18 -0.18)">
       <use xlink:href="#DejaVuSans-48"/>
      </g>
     </g>
    </g>
    <g id="xtick_3">
     <g id="line2d_3">
      <g>
       <use style="stroke:#000000;stroke-width:0.8;" x="219.316667" xlink:href="#m39fdc13873" y="235.6"/>
      </g>
     </g>
     <g id="text_3">
      <!-- 10 -->
      <g transform="translate(207.864167 256.277188)scale(0.18 -0.18)">
       <use xlink:href="#DejaVuSans-49"/>
       <use x="63.623047" xlink:href="#DejaVuSans-48"/>
      </g>
     </g>
    </g>
    <g id="xtick_4">
     <g id="line2d_4">
      <g>
       <use style="stroke:#000000;stroke-width:0.8;" x="305.7" xlink:href="#m39fdc13873" y="235.6"/>
      </g>
     </g>
     <g id="text_4">
      <!-- 20 -->
      <g transform="translate(294.2475 256.277188)scale(0.18 -0.18)">
       <defs>
        <path d="M 19.1875 8.296875 
L 53.609375 8.296875 
L 53.609375 0 
L 7.328125 0 
L 7.328125 8.296875 
Q 12.9375 14.109375 22.625 23.890625 
Q 32.328125 33.6875 34.8125 36.53125 
Q 39.546875 41.84375 41.421875 45.53125 
Q 43.3125 49.21875 43.3125 52.78125 
Q 43.3125 58.59375 39.234375 62.25 
Q 35.15625 65.921875 28.609375 65.921875 
Q 23.96875 65.921875 18.8125 64.3125 
Q 13.671875 62.703125 7.8125 59.421875 
L 7.8125 69.390625 
Q 13.765625 71.78125 18.9375 73 
Q 24.125 74.21875 28.421875 74.21875 
Q 39.75 74.21875 46.484375 68.546875 
Q 53.21875 62.890625 53.21875 53.421875 
Q 53.21875 48.921875 51.53125 44.890625 
Q 49.859375 40.875 45.40625 35.40625 
Q 44.1875 33.984375 37.640625 27.21875 
Q 31.109375 20.453125 19.1875 8.296875 
z
" id="DejaVuSans-50"/>
       </defs>
       <use xlink:href="#DejaVuSans-50"/>
       <use x="63.623047" xlink:href="#DejaVuSans-48"/>
      </g>
     </g>
    </g>
    <g id="xtick_5">
     <g id="line2d_5">
      <g>
       <use style="stroke:#000000;stroke-width:0.8;" x="392.083333" xlink:href="#m39fdc13873" y="235.6"/>
      </g>
     </g>
     <g id="text_5">
      <!-- 30 -->
      <g transform="translate(380.630833 256.277188)scale(0.18 -0.18)">
       <defs>
        <path d="M 40.578125 39.3125 
Q 47.65625 37.796875 51.625 33 
Q 55.609375 28.21875 55.609375 21.1875 
Q 55.609375 10.40625 48.1875 4.484375 
Q 40.765625 -1.421875 27.09375 -1.421875 
Q 22.515625 -1.421875 17.65625 -0.515625 
Q 12.796875 0.390625 7.625 2.203125 
L 7.625 11.71875 
Q 11.71875 9.328125 16.59375 8.109375 
Q 21.484375 6.890625 26.8125 6.890625 
Q 36.078125 6.890625 40.9375 10.546875 
Q 45.796875 14.203125 45.796875 21.1875 
Q 45.796875 27.640625 41.28125 31.265625 
Q 36.765625 34.90625 28.71875 34.90625 
L 20.21875 34.90625 
L 20.21875 43.015625 
L 29.109375 43.015625 
Q 36.375 43.015625 40.234375 45.921875 
Q 44.09375 48.828125 44.09375 54.296875 
Q 44.09375 59.90625 40.109375 62.90625 
Q 36.140625 65.921875 28.71875 65.921875 
Q 24.65625 65.921875 20.015625 65.03125 
Q 15.375 64.15625 9.8125 62.3125 
L 9.8125 71.09375 
Q 15.4375 72.65625 20.34375 73.4375 
Q 25.25 74.21875 29.59375 74.21875 
Q 40.828125 74.21875 47.359375 69.109375 
Q 53.90625 64.015625 53.90625 55.328125 
Q 53.90625 49.265625 50.4375 45.09375 
Q 46.96875 40.921875 40.578125 39.3125 
z
" id="DejaVuSans-51"/>
       </defs>
       <use xlink:href="#DejaVuSans-51"/>
       <use x="63.623047" xlink:href="#DejaVuSans-48"/>
      </g>
     </g>
    </g>
    <g id="xtick_6">
     <g id="line2d_6">
      <g>
       <use style="stroke:#000000;stroke-width:0.8;" x="478.466667" xlink:href="#m39fdc13873" y="235.6"/>
      </g>
     </g>
     <g id="text_6">
      <!-- 40 -->
      <g transform="translate(467.014167 256.277188)scale(0.18 -0.18)">
       <defs>
        <path d="M 37.796875 64.3125 
L 12.890625 25.390625 
L 37.796875 25.390625 
z
M 35.203125 72.90625 
L 47.609375 72.90625 
L 47.609375 25.390625 
L 58.015625 25.390625 
L 58.015625 17.1875 
L 47.609375 17.1875 
L 47.609375 0 
L 37.796875 0 
L 37.796875 17.1875 
L 4.890625 17.1875 
L 4.890625 26.703125 
z
" id="DejaVuSans-52"/>
       </defs>
       <use xlink:href="#DejaVuSans-52"/>
       <use x="63.623047" xlink:href="#DejaVuSans-48"/>
      </g>
     </g>
    </g>
    <g id="xtick_7">
     <g id="line2d_7">
      <g>
       <use style="stroke:#000000;stroke-width:0.8;" x="564.85" xlink:href="#m39fdc13873" y="235.6"/>
      </g>
     </g>
     <g id="text_7">
      <!-- 50 -->
      <g transform="translate(553.3975 256.277188)scale(0.18 -0.18)">
       <defs>
        <path d="M 10.796875 72.90625 
L 49.515625 72.90625 
L 49.515625 64.59375 
L 19.828125 64.59375 
L 19.828125 46.734375 
Q 21.96875 47.46875 24.109375 47.828125 
Q 26.265625 48.1875 28.421875 48.1875 
Q 40.625 48.1875 47.75 41.5 
Q 54.890625 34.8125 54.890625 23.390625 
Q 54.890625 11.625 47.5625 5.09375 
Q 40.234375 -1.421875 26.90625 -1.421875 
Q 22.3125 -1.421875 17.546875 -0.640625 
Q 12.796875 0.140625 7.71875 1.703125 
L 7.71875 11.625 
Q 12.109375 9.234375 16.796875 8.0625 
Q 21.484375 6.890625 26.703125 6.890625 
Q 35.15625 6.890625 40.078125 11.328125 
Q 45.015625 15.765625 45.015625 23.390625 
Q 45.015625 31 40.078125 35.4375 
Q 35.15625 39.890625 26.703125 39.890625 
Q 22.75 39.890625 18.8125 39.015625 
Q 14.890625 38.140625 10.796875 36.28125 
z
" id="DejaVuSans-53"/>
       </defs>
       <use xlink:href="#DejaVuSans-53"/>
       <use x="63.623047" xlink:href="#DejaVuSans-48"/>
      </g>
     </g>
    </g>
    <g id="text_8">
     <!-- $n$ -->
     <g transform="translate(299.94 277.697812)scale(0.18 -0.18)">
      <defs>
       <path d="M 55.71875 33.015625 
L 49.3125 0 
L 40.28125 0 
L 46.6875 32.671875 
Q 47.125 34.96875 47.359375 36.71875 
Q 47.609375 38.484375 47.609375 39.5 
Q 47.609375 43.609375 45.015625 45.890625 
Q 42.4375 48.1875 37.796875 48.1875 
Q 30.5625 48.1875 25.34375 43.375 
Q 20.125 38.578125 18.5 30.328125 
L 12.5 0 
L 3.515625 0 
L 14.109375 54.6875 
L 23.09375 54.6875 
L 21.296875 46.09375 
Q 25.046875 50.828125 30.3125 53.40625 
Q 35.59375 56 41.40625 56 
Q 48.640625 56 52.609375 52.09375 
Q 56.59375 48.1875 56.59375 41.109375 
Q 56.59375 39.359375 56.375 37.359375 
Q 56.15625 35.359375 55.71875 33.015625 
z
" id="DejaVuSans-Oblique-110"/>
      </defs>
      <use xlink:href="#DejaVuSans-Oblique-110"/>
     </g>
    </g>
   </g>
   <g id="matplotlib.axis_2"/>
   <g id="line2d_8">
    <path clip-path="url(#p42932d1f8b)" d="M 46.55 41.317188 
L 47.32745 41.42468 
L 48.1049 41.746129 
L 48.968733 42.350419 
L 49.91895 43.307178 
L 50.95555 44.684093 
L 52.164917 46.699285 
L 53.54705 49.484363 
L 55.188333 53.349259 
L 57.261533 58.85998 
L 64.6905 79.20854 
L 66.418167 83.009978 
L 67.886683 85.742565 
L 69.268817 87.853879 
L 70.478183 89.320564 
L 71.601167 90.363793 
L 72.72415 91.108158 
L 73.76075 91.54302 
L 74.79735 91.753038 
L 75.920333 91.751488 
L 77.1297 91.519013 
L 78.511833 91.01643 
L 80.2395 90.13905 
L 86.19995 86.888936 
L 87.75485 86.404616 
L 89.136983 86.194934 
L 90.519117 86.209059 
L 91.90125 86.445993 
L 93.369767 86.92281 
L 95.097433 87.727739 
L 97.60255 89.173169 
L 100.539583 90.818265 
L 102.094483 91.442132 
L 103.390233 91.732001 
L 104.513217 91.767612 
L 105.549817 91.593114 
L 106.586417 91.197024 
L 107.623017 90.561655 
L 108.659617 89.674015 
L 109.7826 88.418757 
L 110.991967 86.722721 
L 112.287717 84.517419 
L 113.756233 81.560802 
L 115.397517 77.746195 
L 117.470717 72.321477 
L 120.92605 62.517491 
L 123.863083 54.448805 
L 125.763517 49.86491 
L 127.232033 46.858986 
L 128.527783 44.684093 
L 129.650767 43.207872 
L 130.687367 42.209036 
L 131.5512 41.656332 
L 132.415033 41.364983 
L 133.192483 41.32914 
L 133.969933 41.508167 
L 134.833767 41.956941 
L 135.6976 42.663521 
L 136.647817 43.728493 
L 137.7708 45.355241 
L 138.980167 47.517665 
L 140.3623 50.448122 
L 142.089967 54.672234 
L 144.422317 61.042542 
L 150.123617 76.883504 
L 152.02405 81.37274 
L 153.57895 84.517419 
L 154.961083 86.855619 
L 156.256833 88.631936 
L 157.4662 89.920096 
L 158.589183 90.800936 
L 159.712167 91.390227 
L 160.748767 91.691586 
L 161.87175 91.778442 
L 162.994733 91.645315 
L 164.290483 91.263231 
L 165.845383 90.56001 
L 168.177733 89.225157 
L 171.4603 87.378984 
L 173.187967 86.671508 
L 174.656483 86.30036 
L 176.038617 86.173709 
L 177.42075 86.272361 
L 178.802883 86.589349 
L 180.357783 87.17826 
L 182.258217 88.153399 
L 187.959517 91.263231 
L 189.34165 91.662609 
L 190.551017 91.780202 
L 191.674 91.656726 
L 192.7106 91.317865 
L 193.7472 90.743725 
L 194.7838 89.920096 
L 195.906783 88.735786 
L 197.11615 87.116027 
L 198.4119 84.989765 
L 199.880417 82.115895 
L 201.5217 78.380538 
L 203.508517 73.262719 
L 206.44555 64.99366 
L 210.07365 54.896778 
L 211.974083 50.252095 
L 213.528983 47.020693 
L 214.824733 44.813865 
L 215.947717 43.307178 
L 216.984317 42.278456 
L 217.934533 41.656332 
L 218.798367 41.364983 
L 219.575817 41.32914 
L 220.353267 41.508167 
L 221.2171 41.956941 
L 222.080933 42.663521 
L 223.03115 43.728493 
L 224.154133 45.355241 
L 225.3635 47.517665 
L 226.745633 50.448122 
L 228.4733 54.672234 
L 230.80565 61.042542 
L 236.50695 76.883504 
L 238.407383 81.37274 
L 239.962283 84.517419 
L 241.344417 86.855619 
L 242.640167 88.631936 
L 243.849533 89.920096 
L 244.972517 90.800936 
L 246.0955 91.390227 
L 247.1321 91.691586 
L 248.255083 91.778442 
L 249.378067 91.645315 
L 250.673817 91.263231 
L 252.228717 90.56001 
L 254.561067 89.225157 
L 257.843633 87.378984 
L 259.5713 86.671508 
L 261.039817 86.30036 
L 262.42195 86.173709 
L 263.804083 86.272361 
L 265.186217 86.589349 
L 266.741117 87.17826 
L 268.64155 88.153399 
L 274.34285 91.263231 
L 275.724983 91.662609 
L 276.93435 91.780202 
L 278.057333 91.656726 
L 279.093933 91.317865 
L 280.130533 90.743725 
L 281.167133 89.920096 
L 282.290117 88.735786 
L 283.499483 87.116027 
L 284.795233 84.989765 
L 286.26375 82.115895 
L 287.905033 78.380538 
L 289.89185 73.262719 
L 292.828883 64.99366 
L 296.456983 54.896778 
L 298.357417 50.252095 
L 299.912317 47.020693 
L 301.208067 44.813865 
L 302.33105 43.307178 
L 303.36765 42.278456 
L 304.317867 41.656332 
L 305.1817 41.364983 
L 305.95915 41.32914 
L 306.7366 41.508167 
L 307.600433 41.956941 
L 308.464267 42.663521 
L 309.414483 43.728493 
L 310.537467 45.355241 
L 311.746833 47.517665 
L 313.128967 50.448122 
L 314.856633 54.672234 
L 317.188983 61.042542 
L 322.890283 76.883504 
L 324.790717 81.37274 
L 326.345617 84.517419 
L 327.72775 86.855619 
L 329.0235 88.631936 
L 330.232867 89.920096 
L 331.35585 90.800936 
L 332.478833 91.390227 
L 333.515433 91.691586 
L 334.638417 91.778442 
L 335.7614 91.645315 
L 337.05715 91.263231 
L 338.61205 90.56001 
L 340.9444 89.225157 
L 344.226967 87.378984 
L 345.954633 86.671508 
L 347.42315 86.30036 
L 348.805283 86.173709 
L 350.187417 86.272361 
L 351.56955 86.589349 
L 353.12445 87.17826 
L 355.024883 88.153399 
L 360.726183 91.263231 
L 362.108317 91.662609 
L 363.317683 91.780202 
L 364.440667 91.656726 
L 365.477267 91.317865 
L 366.513867 90.743725 
L 367.550467 89.920096 
L 368.67345 88.735786 
L 369.882817 87.116027 
L 371.178567 84.989765 
L 372.647083 82.115895 
L 374.288367 78.380538 
L 376.275183 73.262719 
L 379.212217 64.99366 
L 382.840317 54.896778 
L 384.74075 50.252095 
L 386.29565 47.020693 
L 387.5914 44.813865 
L 388.714383 43.307178 
L 389.750983 42.278456 
L 390.7012 41.656332 
L 391.565033 41.364983 
L 392.342483 41.32914 
L 393.119933 41.508167 
L 393.983767 41.956941 
L 394.8476 42.663521 
L 395.797817 43.728493 
L 396.9208 45.355241 
L 398.130167 47.517665 
L 399.5123 50.448122 
L 401.239967 54.672234 
L 403.572317 61.042542 
L 409.273617 76.883504 
L 411.17405 81.37274 
L 412.72895 84.517419 
L 414.111083 86.855619 
L 415.406833 88.631936 
L 416.6162 89.920096 
L 417.739183 90.800936 
L 418.862167 91.390227 
L 419.898767 91.691586 
L 421.02175 91.778442 
L 422.144733 91.645315 
L 423.440483 91.263231 
L 424.995383 90.56001 
L 427.327733 89.225157 
L 430.6103 87.378984 
L 432.337967 86.671508 
L 433.806483 86.30036 
L 435.188617 86.173709 
L 436.57075 86.272361 
L 437.952883 86.589349 
L 439.507783 87.17826 
L 441.408217 88.153399 
L 447.109517 91.263231 
L 448.49165 91.662609 
L 449.701017 91.780202 
L 450.824 91.656726 
L 451.8606 91.317865 
L 452.8972 90.743725 
L 453.9338 89.920096 
L 455.056783 88.735786 
L 456.26615 87.116027 
L 457.5619 84.989765 
L 459.030417 82.115895 
L 460.6717 78.380538 
L 462.658517 73.262719 
L 465.59555 64.99366 
L 469.22365 54.896778 
L 471.124083 50.252095 
L 472.678983 47.020693 
L 473.974733 44.813865 
L 475.097717 43.307178 
L 476.134317 42.278456 
L 477.084533 41.656332 
L 477.948367 41.364983 
L 478.725817 41.32914 
L 479.503267 41.508167 
L 480.3671 41.956941 
L 481.230933 42.663521 
L 482.18115 43.728493 
L 483.304133 45.355241 
L 484.5135 47.517665 
L 485.895633 50.448122 
L 487.6233 54.672234 
L 489.95565 61.042542 
L 495.65695 76.883504 
L 497.557383 81.37274 
L 499.112283 84.517419 
L 500.494417 86.855619 
L 501.790167 88.631936 
L 502.999533 89.920096 
L 504.122517 90.800936 
L 505.2455 91.390227 
L 506.2821 91.691586 
L 507.405083 91.778442 
L 508.528067 91.645315 
L 509.823817 91.263231 
L 511.378717 90.56001 
L 513.711067 89.225157 
L 516.993633 87.378984 
L 518.7213 86.671508 
L 520.189817 86.30036 
L 521.57195 86.173709 
L 522.954083 86.272361 
L 524.336217 86.589349 
L 525.891117 87.17826 
L 527.79155 88.153399 
L 533.49285 91.263231 
L 534.874983 91.662609 
L 536.08435 91.780202 
L 537.207333 91.656726 
L 538.243933 91.317865 
L 539.280533 90.743725 
L 540.317133 89.920096 
L 541.440117 88.735786 
L 542.649483 87.116027 
L 543.945233 84.989765 
L 545.41375 82.115895 
L 547.055033 78.380538 
L 549.04185 73.262719 
L 551.978883 64.99366 
L 555.606983 54.896778 
L 557.507417 50.252095 
L 559.062317 47.020693 
L 560.358067 44.813865 
L 561.48105 43.307178 
L 562.51765 42.278456 
L 563.467867 41.656332 
L 564.3317 41.364983 
L 564.936383 41.318516 
L 564.936383 41.318516 
" style="fill:none;stroke:#000000;stroke-linecap:square;stroke-opacity:0.2;"/>
   </g>
   <g id="line2d_9">
    <defs>
     <path d="M 0 1.5 
C 0.397805 1.5 0.77937 1.341951 1.06066 1.06066 
C 1.341951 0.77937 1.5 0.397805 1.5 0 
C 1.5 -0.397805 1.341951 -0.77937 1.06066 -1.06066 
C 0.77937 -1.341951 0.397805 -1.5 0 -1.5 
C -0.397805 -1.5 -0.77937 -1.341951 -1.06066 -1.06066 
C -1.341951 -0.77937 -1.5 -0.397805 -1.5 0 
C -1.5 0.397805 -1.341951 0.77937 -1.06066 1.06066 
C -0.77937 1.341951 -0.397805 1.5 0 1.5 
z
" id="maa7bf10951" style="stroke:#d62728;"/>
    </defs>
    <g clip-path="url(#p42932d1f8b)">
     <use style="fill:#d62728;stroke:#d62728;" x="132.933333" xlink:href="#maa7bf10951" y="72.267882"/>
     <use style="fill:#d62728;stroke:#d62728;" x="141.571667" xlink:href="#maa7bf10951" y="63.289853"/>
     <use style="fill:#d62728;stroke:#d62728;" x="150.21" xlink:href="#maa7bf10951" y="77.100934"/>
     <use style="fill:#d62728;stroke:#d62728;" x="158.848333" xlink:href="#maa7bf10951" y="83.600854"/>
     <use style="fill:#d62728;stroke:#d62728;" x="167.486667" xlink:href="#maa7bf10951" y="76.133594"/>
    </g>
   </g>
   <g id="line2d_10">
    <path clip-path="url(#p42932d1f8b)" d="M 46.55 108.601305 
L 47.32745 108.708798 
L 48.1049 109.030247 
L 48.968733 109.634537 
L 49.91895 110.591296 
L 50.95555 111.968211 
L 52.164917 113.983403 
L 53.54705 116.768481 
L 55.188333 120.633377 
L 57.261533 126.144098 
L 64.6905 146.492658 
L 66.418167 150.294096 
L 67.886683 153.026682 
L 69.268817 155.137997 
L 70.478183 156.604682 
L 71.601167 157.647911 
L 72.72415 158.392276 
L 73.76075 158.827137 
L 74.79735 159.037156 
L 75.920333 159.035606 
L 77.1297 158.803131 
L 78.511833 158.300548 
L 80.2395 157.423168 
L 86.19995 154.173054 
L 87.75485 153.688734 
L 89.136983 153.479052 
L 90.519117 153.493177 
L 91.90125 153.730111 
L 93.369767 154.206927 
L 95.097433 155.011857 
L 97.60255 156.457286 
L 100.539583 158.102383 
L 102.094483 158.72625 
L 103.390233 159.016119 
L 104.513217 159.05173 
L 105.549817 158.877232 
L 106.586417 158.481142 
L 107.623017 157.845773 
L 108.659617 156.958133 
L 109.7826 155.702875 
L 110.991967 154.006839 
L 112.287717 151.801537 
L 113.756233 148.84492 
L 115.397517 145.030312 
L 117.470717 139.605594 
L 120.92605 129.801608 
L 123.863083 121.732923 
L 125.763517 117.149028 
L 127.232033 114.143104 
L 128.527783 111.968211 
L 129.650767 110.49199 
L 130.687367 109.493154 
L 131.5512 108.94045 
L 132.415033 108.649101 
L 133.192483 108.613257 
L 133.969933 108.792285 
L 134.833767 109.241059 
L 135.6976 109.947639 
L 136.647817 111.012611 
L 137.7708 112.639359 
L 138.980167 114.801782 
L 140.3623 117.73224 
L 142.089967 121.956352 
L 144.422317 128.32666 
L 150.123617 144.167622 
L 152.02405 148.656857 
L 153.57895 151.801537 
L 154.961083 154.139737 
L 156.256833 155.916053 
L 157.4662 157.204214 
L 158.589183 158.085053 
L 159.712167 158.674345 
L 160.748767 158.975704 
L 161.87175 159.06256 
L 162.994733 158.929432 
L 164.290483 158.547349 
L 165.845383 157.844128 
L 168.177733 156.509275 
L 171.4603 154.663101 
L 173.187967 153.955626 
L 174.656483 153.584477 
L 176.038617 153.457826 
L 177.42075 153.556478 
L 178.802883 153.873467 
L 180.357783 154.462378 
L 182.258217 155.437517 
L 187.959517 158.547349 
L 189.34165 158.946727 
L 190.551017 159.06432 
L 191.674 158.940844 
L 192.7106 158.601982 
L 193.7472 158.027843 
L 194.7838 157.204214 
L 195.906783 156.019903 
L 197.11615 154.400145 
L 198.4119 152.273883 
L 199.880417 149.400012 
L 201.5217 145.664656 
L 203.508517 140.546837 
L 206.44555 132.277778 
L 210.07365 122.180896 
L 211.974083 117.536213 
L 213.528983 114.304811 
L 214.824733 112.097982 
L 215.947717 110.591296 
L 216.984317 109.562574 
L 217.934533 108.94045 
L 218.798367 108.649101 
L 219.575817 108.613257 
L 220.353267 108.792285 
L 221.2171 109.241059 
L 222.080933 109.947639 
L 223.03115 111.012611 
L 224.154133 112.639359 
L 225.3635 114.801782 
L 226.745633 117.73224 
L 228.4733 121.956352 
L 230.80565 128.32666 
L 236.50695 144.167622 
L 238.407383 148.656857 
L 239.962283 151.801537 
L 241.344417 154.139737 
L 242.640167 155.916053 
L 243.849533 157.204214 
L 244.972517 158.085053 
L 246.0955 158.674345 
L 247.1321 158.975704 
L 248.255083 159.06256 
L 249.378067 158.929432 
L 250.673817 158.547349 
L 252.228717 157.844128 
L 254.561067 156.509275 
L 257.843633 154.663101 
L 259.5713 153.955626 
L 261.039817 153.584477 
L 262.42195 153.457826 
L 263.804083 153.556478 
L 265.186217 153.873467 
L 266.741117 154.462378 
L 268.64155 155.437517 
L 274.34285 158.547349 
L 275.724983 158.946727 
L 276.93435 159.06432 
L 278.057333 158.940844 
L 279.093933 158.601982 
L 280.130533 158.027843 
L 281.167133 157.204214 
L 282.290117 156.019903 
L 283.499483 154.400145 
L 284.795233 152.273883 
L 286.26375 149.400012 
L 287.905033 145.664656 
L 289.89185 140.546837 
L 292.828883 132.277778 
L 296.456983 122.180896 
L 298.357417 117.536213 
L 299.912317 114.304811 
L 301.208067 112.097982 
L 302.33105 110.591296 
L 303.36765 109.562574 
L 304.317867 108.94045 
L 305.1817 108.649101 
L 305.95915 108.613257 
L 306.7366 108.792285 
L 307.600433 109.241059 
L 308.464267 109.947639 
L 309.414483 111.012611 
L 310.537467 112.639359 
L 311.746833 114.801782 
L 313.128967 117.73224 
L 314.856633 121.956352 
L 317.188983 128.32666 
L 322.890283 144.167622 
L 324.790717 148.656857 
L 326.345617 151.801537 
L 327.72775 154.139737 
L 329.0235 155.916053 
L 330.232867 157.204214 
L 331.35585 158.085053 
L 332.478833 158.674345 
L 333.515433 158.975704 
L 334.638417 159.06256 
L 335.7614 158.929432 
L 337.05715 158.547349 
L 338.61205 157.844128 
L 340.9444 156.509275 
L 344.226967 154.663101 
L 345.954633 153.955626 
L 347.42315 153.584477 
L 348.805283 153.457826 
L 350.187417 153.556478 
L 351.56955 153.873467 
L 353.12445 154.462378 
L 355.024883 155.437517 
L 360.726183 158.547349 
L 362.108317 158.946727 
L 363.317683 159.06432 
L 364.440667 158.940844 
L 365.477267 158.601982 
L 366.513867 158.027843 
L 367.550467 157.204214 
L 368.67345 156.019903 
L 369.882817 154.400145 
L 371.178567 152.273883 
L 372.647083 149.400012 
L 374.288367 145.664656 
L 376.275183 140.546837 
L 379.212217 132.277778 
L 382.840317 122.180896 
L 384.74075 117.536213 
L 386.29565 114.304811 
L 387.5914 112.097982 
L 388.714383 110.591296 
L 389.750983 109.562574 
L 390.7012 108.94045 
L 391.565033 108.649101 
L 392.342483 108.613257 
L 393.119933 108.792285 
L 393.983767 109.241059 
L 394.8476 109.947639 
L 395.797817 111.012611 
L 396.9208 112.639359 
L 398.130167 114.801782 
L 399.5123 117.73224 
L 401.239967 121.956352 
L 403.572317 128.32666 
L 409.273617 144.167622 
L 411.17405 148.656857 
L 412.72895 151.801537 
L 414.111083 154.139737 
L 415.406833 155.916053 
L 416.6162 157.204214 
L 417.739183 158.085053 
L 418.862167 158.674345 
L 419.898767 158.975704 
L 421.02175 159.06256 
L 422.144733 158.929432 
L 423.440483 158.547349 
L 424.995383 157.844128 
L 427.327733 156.509275 
L 430.6103 154.663101 
L 432.337967 153.955626 
L 433.806483 153.584477 
L 435.188617 153.457826 
L 436.57075 153.556478 
L 437.952883 153.873467 
L 439.507783 154.462378 
L 441.408217 155.437517 
L 447.109517 158.547349 
L 448.49165 158.946727 
L 449.701017 159.06432 
L 450.824 158.940844 
L 451.8606 158.601982 
L 452.8972 158.027843 
L 453.9338 157.204214 
L 455.056783 156.019903 
L 456.26615 154.400145 
L 457.5619 152.273883 
L 459.030417 149.400012 
L 460.6717 145.664656 
L 462.658517 140.546837 
L 465.59555 132.277778 
L 469.22365 122.180896 
L 471.124083 117.536213 
L 472.678983 114.304811 
L 473.974733 112.097982 
L 475.097717 110.591296 
L 476.134317 109.562574 
L 477.084533 108.94045 
L 477.948367 108.649101 
L 478.725817 108.613257 
L 479.503267 108.792285 
L 480.3671 109.241059 
L 481.230933 109.947639 
L 482.18115 111.012611 
L 483.304133 112.639359 
L 484.5135 114.801782 
L 485.895633 117.73224 
L 487.6233 121.956352 
L 489.95565 128.32666 
L 495.65695 144.167622 
L 497.557383 148.656857 
L 499.112283 151.801537 
L 500.494417 154.139737 
L 501.790167 155.916053 
L 502.999533 157.204214 
L 504.122517 158.085053 
L 505.2455 158.674345 
L 506.2821 158.975704 
L 507.405083 159.06256 
L 508.528067 158.929432 
L 509.823817 158.547349 
L 511.378717 157.844128 
L 513.711067 156.509275 
L 516.993633 154.663101 
L 518.7213 153.955626 
L 520.189817 153.584477 
L 521.57195 153.457826 
L 522.954083 153.556478 
L 524.336217 153.873467 
L 525.891117 154.462378 
L 527.79155 155.437517 
L 533.49285 158.547349 
L 534.874983 158.946727 
L 536.08435 159.06432 
L 537.207333 158.940844 
L 538.243933 158.601982 
L 539.280533 158.027843 
L 540.317133 157.204214 
L 541.440117 156.019903 
L 542.649483 154.400145 
L 543.945233 152.273883 
L 545.41375 149.400012 
L 547.055033 145.664656 
L 549.04185 140.546837 
L 551.978883 132.277778 
L 555.606983 122.180896 
L 557.507417 117.536213 
L 559.062317 114.304811 
L 560.358067 112.097982 
L 561.48105 110.591296 
L 562.51765 109.562574 
L 563.467867 108.94045 
L 564.3317 108.649101 
L 564.936383 108.602633 
L 564.936383 108.602633 
" style="fill:none;stroke:#000000;stroke-linecap:square;stroke-opacity:0.2;"/>
   </g>
   <g id="line2d_11">
    <defs>
     <path d="M 0 1.5 
C 0.397805 1.5 0.77937 1.341951 1.06066 1.06066 
C 1.341951 0.77937 1.5 0.397805 1.5 0 
C 1.5 -0.397805 1.341951 -0.77937 1.06066 -1.06066 
C 0.77937 -1.341951 0.397805 -1.5 0 -1.5 
C -0.397805 -1.5 -0.77937 -1.341951 -1.06066 -1.06066 
C -1.341951 -0.77937 -1.5 -0.397805 -1.5 0 
C -1.5 0.397805 -1.341951 0.77937 -1.06066 1.06066 
C -0.77937 1.341951 -0.397805 1.5 0 1.5 
z
" id="m5125144e29" style="stroke:#1f77b4;"/>
    </defs>
    <g clip-path="url(#p42932d1f8b)">
     <use style="fill:#1f77b4;stroke:#1f77b4;" x="132.933333" xlink:href="#m5125144e29" y="139.551999"/>
     <use style="fill:#1f77b4;stroke:#1f77b4;" x="141.571667" xlink:href="#m5125144e29" y="138.188908"/>
     <use style="fill:#1f77b4;stroke:#1f77b4;" x="150.21" xlink:href="#m5125144e29" y="143.228801"/>
     <use style="fill:#1f77b4;stroke:#1f77b4;" x="158.848333" xlink:href="#m5125144e29" y="154.565657"/>
     <use style="fill:#1f77b4;stroke:#1f77b4;" x="167.486667" xlink:href="#m5125144e29" y="156.515481"/>
     <use style="fill:#1f77b4;stroke:#1f77b4;" x="176.125" xlink:href="#m5125144e29" y="153.146291"/>
     <use style="fill:#1f77b4;stroke:#1f77b4;" x="184.763333" xlink:href="#m5125144e29" y="153.546458"/>
     <use style="fill:#1f77b4;stroke:#1f77b4;" x="193.401667" xlink:href="#m5125144e29" y="149.606684"/>
     <use style="fill:#1f77b4;stroke:#1f77b4;" x="202.04" xlink:href="#m5125144e29" y="142.645187"/>
     <use style="fill:#1f77b4;stroke:#1f77b4;" x="210.678333" xlink:href="#m5125144e29" y="140.514565"/>
    </g>
   </g>
   <g id="line2d_12">
    <path clip-path="url(#p42932d1f8b)" d="M 46.55 175.885423 
L 47.32745 175.992916 
L 48.1049 176.314365 
L 48.968733 176.918654 
L 49.91895 177.875413 
L 50.95555 179.252328 
L 52.164917 181.26752 
L 53.54705 184.052599 
L 55.188333 187.917494 
L 57.261533 193.428216 
L 64.6905 213.776776 
L 66.418167 217.578214 
L 67.886683 220.3108 
L 69.268817 222.422115 
L 70.478183 223.888799 
L 71.601167 224.932029 
L 72.72415 225.676393 
L 73.76075 226.111255 
L 74.79735 226.321274 
L 75.920333 226.319724 
L 77.1297 226.087248 
L 78.511833 225.584665 
L 80.2395 224.707285 
L 86.19995 221.457172 
L 87.75485 220.972852 
L 89.136983 220.76317 
L 90.519117 220.777294 
L 91.90125 221.014228 
L 93.369767 221.491045 
L 95.097433 222.295975 
L 97.60255 223.741404 
L 100.539583 225.386501 
L 102.094483 226.010367 
L 103.390233 226.300236 
L 104.513217 226.335848 
L 105.549817 226.16135 
L 106.586417 225.76526 
L 107.623017 225.129891 
L 108.659617 224.242251 
L 109.7826 222.986993 
L 110.991967 221.290957 
L 112.287717 219.085655 
L 113.756233 216.129038 
L 115.397517 212.31443 
L 117.470717 206.889712 
L 120.92605 197.085726 
L 123.863083 189.017041 
L 125.763517 184.433146 
L 127.232033 181.427222 
L 128.527783 179.252328 
L 129.650767 177.776108 
L 130.687367 176.777272 
L 131.5512 176.224568 
L 132.415033 175.933219 
L 133.192483 175.897375 
L 133.969933 176.076403 
L 134.833767 176.525177 
L 135.6976 177.231756 
L 136.647817 178.296729 
L 137.7708 179.923477 
L 138.980167 182.0859 
L 140.3623 185.016357 
L 142.089967 189.24047 
L 144.422317 195.610778 
L 150.123617 211.45174 
L 152.02405 215.940975 
L 153.57895 219.085655 
L 154.961083 221.423855 
L 156.256833 223.200171 
L 157.4662 224.488332 
L 158.589183 225.369171 
L 159.712167 225.958462 
L 160.748767 226.259821 
L 161.87175 226.346678 
L 162.994733 226.21355 
L 164.290483 225.831467 
L 165.845383 225.128245 
L 168.177733 223.793393 
L 171.4603 221.947219 
L 173.187967 221.239744 
L 174.656483 220.868595 
L 176.038617 220.741944 
L 177.42075 220.840596 
L 178.802883 221.157585 
L 180.357783 221.746496 
L 182.258217 222.721635 
L 187.959517 225.831467 
L 189.34165 226.230845 
L 190.551017 226.348437 
L 191.674 226.224962 
L 192.7106 225.8861 
L 193.7472 225.311961 
L 194.7838 224.488332 
L 195.906783 223.304021 
L 197.11615 221.684262 
L 198.4119 219.558001 
L 199.880417 216.68413 
L 201.5217 212.948774 
L 203.508517 207.830955 
L 206.44555 199.561896 
L 210.07365 189.465013 
L 211.974083 184.820331 
L 213.528983 181.588929 
L 214.824733 179.3821 
L 215.947717 177.875413 
L 216.984317 176.846692 
L 217.934533 176.224568 
L 218.798367 175.933219 
L 219.575817 175.897375 
L 220.353267 176.076403 
L 221.2171 176.525177 
L 222.080933 177.231756 
L 223.03115 178.296729 
L 224.154133 179.923477 
L 225.3635 182.0859 
L 226.745633 185.016357 
L 228.4733 189.24047 
L 230.80565 195.610778 
L 236.50695 211.45174 
L 238.407383 215.940975 
L 239.962283 219.085655 
L 241.344417 221.423855 
L 242.640167 223.200171 
L 243.849533 224.488332 
L 244.972517 225.369171 
L 246.0955 225.958462 
L 247.1321 226.259821 
L 248.255083 226.346678 
L 249.378067 226.21355 
L 250.673817 225.831467 
L 252.228717 225.128245 
L 254.561067 223.793393 
L 257.843633 221.947219 
L 259.5713 221.239744 
L 261.039817 220.868595 
L 262.42195 220.741944 
L 263.804083 220.840596 
L 265.186217 221.157585 
L 266.741117 221.746496 
L 268.64155 222.721635 
L 274.34285 225.831467 
L 275.724983 226.230845 
L 276.93435 226.348437 
L 278.057333 226.224962 
L 279.093933 225.8861 
L 280.130533 225.311961 
L 281.167133 224.488332 
L 282.290117 223.304021 
L 283.499483 221.684262 
L 284.795233 219.558001 
L 286.26375 216.68413 
L 287.905033 212.948774 
L 289.89185 207.830955 
L 292.828883 199.561896 
L 296.456983 189.465013 
L 298.357417 184.820331 
L 299.912317 181.588929 
L 301.208067 179.3821 
L 302.33105 177.875413 
L 303.36765 176.846692 
L 304.317867 176.224568 
L 305.1817 175.933219 
L 305.95915 175.897375 
L 306.7366 176.076403 
L 307.600433 176.525177 
L 308.464267 177.231756 
L 309.414483 178.296729 
L 310.537467 179.923477 
L 311.746833 182.0859 
L 313.128967 185.016357 
L 314.856633 189.24047 
L 317.188983 195.610778 
L 322.890283 211.45174 
L 324.790717 215.940975 
L 326.345617 219.085655 
L 327.72775 221.423855 
L 329.0235 223.200171 
L 330.232867 224.488332 
L 331.35585 225.369171 
L 332.478833 225.958462 
L 333.515433 226.259821 
L 334.638417 226.346678 
L 335.7614 226.21355 
L 337.05715 225.831467 
L 338.61205 225.128245 
L 340.9444 223.793393 
L 344.226967 221.947219 
L 345.954633 221.239744 
L 347.42315 220.868595 
L 348.805283 220.741944 
L 350.187417 220.840596 
L 351.56955 221.157585 
L 353.12445 221.746496 
L 355.024883 222.721635 
L 360.726183 225.831467 
L 362.108317 226.230845 
L 363.317683 226.348437 
L 364.440667 226.224962 
L 365.477267 225.8861 
L 366.513867 225.311961 
L 367.550467 224.488332 
L 368.67345 223.304021 
L 369.882817 221.684262 
L 371.178567 219.558001 
L 372.647083 216.68413 
L 374.288367 212.948774 
L 376.275183 207.830955 
L 379.212217 199.561896 
L 382.840317 189.465013 
L 384.74075 184.820331 
L 386.29565 181.588929 
L 387.5914 179.3821 
L 388.714383 177.875413 
L 389.750983 176.846692 
L 390.7012 176.224568 
L 391.565033 175.933219 
L 392.342483 175.897375 
L 393.119933 176.076403 
L 393.983767 176.525177 
L 394.8476 177.231756 
L 395.797817 178.296729 
L 396.9208 179.923477 
L 398.130167 182.0859 
L 399.5123 185.016357 
L 401.239967 189.24047 
L 403.572317 195.610778 
L 409.273617 211.45174 
L 411.17405 215.940975 
L 412.72895 219.085655 
L 414.111083 221.423855 
L 415.406833 223.200171 
L 416.6162 224.488332 
L 417.739183 225.369171 
L 418.862167 225.958462 
L 419.898767 226.259821 
L 421.02175 226.346678 
L 422.144733 226.21355 
L 423.440483 225.831467 
L 424.995383 225.128245 
L 427.327733 223.793393 
L 430.6103 221.947219 
L 432.337967 221.239744 
L 433.806483 220.868595 
L 435.188617 220.741944 
L 436.57075 220.840596 
L 437.952883 221.157585 
L 439.507783 221.746496 
L 441.408217 222.721635 
L 447.109517 225.831467 
L 448.49165 226.230845 
L 449.701017 226.348437 
L 450.824 226.224962 
L 451.8606 225.8861 
L 452.8972 225.311961 
L 453.9338 224.488332 
L 455.056783 223.304021 
L 456.26615 221.684262 
L 457.5619 219.558001 
L 459.030417 216.68413 
L 460.6717 212.948774 
L 462.658517 207.830955 
L 465.59555 199.561896 
L 469.22365 189.465013 
L 471.124083 184.820331 
L 472.678983 181.588929 
L 473.974733 179.3821 
L 475.097717 177.875413 
L 476.134317 176.846692 
L 477.084533 176.224568 
L 477.948367 175.933219 
L 478.725817 175.897375 
L 479.503267 176.076403 
L 480.3671 176.525177 
L 481.230933 177.231756 
L 482.18115 178.296729 
L 483.304133 179.923477 
L 484.5135 182.0859 
L 485.895633 185.016357 
L 487.6233 189.24047 
L 489.95565 195.610778 
L 495.65695 211.45174 
L 497.557383 215.940975 
L 499.112283 219.085655 
L 500.494417 221.423855 
L 501.790167 223.200171 
L 502.999533 224.488332 
L 504.122517 225.369171 
L 505.2455 225.958462 
L 506.2821 226.259821 
L 507.405083 226.346678 
L 508.528067 226.21355 
L 509.823817 225.831467 
L 511.378717 225.128245 
L 513.711067 223.793393 
L 516.993633 221.947219 
L 518.7213 221.239744 
L 520.189817 220.868595 
L 521.57195 220.741944 
L 522.954083 220.840596 
L 524.336217 221.157585 
L 525.891117 221.746496 
L 527.79155 222.721635 
L 533.49285 225.831467 
L 534.874983 226.230845 
L 536.08435 226.348437 
L 537.207333 226.224962 
L 538.243933 225.8861 
L 539.280533 225.311961 
L 540.317133 224.488332 
L 541.440117 223.304021 
L 542.649483 221.684262 
L 543.945233 219.558001 
L 545.41375 216.68413 
L 547.055033 212.948774 
L 549.04185 207.830955 
L 551.978883 199.561896 
L 555.606983 189.465013 
L 557.507417 184.820331 
L 559.062317 181.588929 
L 560.358067 179.3821 
L 561.48105 177.875413 
L 562.51765 176.846692 
L 563.467867 176.224568 
L 564.3317 175.933219 
L 564.936383 175.886751 
L 564.936383 175.886751 
" style="fill:none;stroke:#000000;stroke-linecap:square;stroke-opacity:0.2;"/>
   </g>
   <g id="line2d_13">
    <defs>
     <path d="M 0 1.5 
C 0.397805 1.5 0.77937 1.341951 1.06066 1.06066 
C 1.341951 0.77937 1.5 0.397805 1.5 0 
C 1.5 -0.397805 1.341951 -0.77937 1.06066 -1.06066 
C 0.77937 -1.341951 0.397805 -1.5 0 -1.5 
C -0.397805 -1.5 -0.77937 -1.341951 -1.06066 -1.06066 
C -1.341951 -0.77937 -1.5 -0.397805 -1.5 0 
C -1.5 0.397805 -1.341951 0.77937 -1.06066 1.06066 
C -0.77937 1.341951 -0.397805 1.5 0 1.5 
z
" id="m2234210718" style="stroke:#2ca02c;"/>
    </defs>
    <g clip-path="url(#p42932d1f8b)">
     <use style="fill:#2ca02c;stroke:#2ca02c;" x="132.933333" xlink:href="#m2234210718" y="206.836117"/>
     <use style="fill:#2ca02c;stroke:#2ca02c;" x="141.571667" xlink:href="#m2234210718" y="207.669955"/>
     <use style="fill:#2ca02c;stroke:#2ca02c;" x="150.21" xlink:href="#m2234210718" y="209.749518"/>
     <use style="fill:#2ca02c;stroke:#2ca02c;" x="158.848333" xlink:href="#m2234210718" y="211.650921"/>
     <use style="fill:#2ca02c;stroke:#2ca02c;" x="167.486667" xlink:href="#m2234210718" y="212.056092"/>
     <use style="fill:#2ca02c;stroke:#2ca02c;" x="176.125" xlink:href="#m2234210718" y="212.009669"/>
     <use style="fill:#2ca02c;stroke:#2ca02c;" x="184.763333" xlink:href="#m2234210718" y="213.618471"/>
     <use style="fill:#2ca02c;stroke:#2ca02c;" x="193.401667" xlink:href="#m2234210718" y="215.013325"/>
     <use style="fill:#2ca02c;stroke:#2ca02c;" x="202.04" xlink:href="#m2234210718" y="210.4099"/>
     <use style="fill:#2ca02c;stroke:#2ca02c;" x="210.678333" xlink:href="#m2234210718" y="199.056295"/>
     <use style="fill:#2ca02c;stroke:#2ca02c;" x="219.316667" xlink:href="#m2234210718" y="190.737641"/>
     <use style="fill:#2ca02c;stroke:#2ca02c;" x="227.955" xlink:href="#m2234210718" y="195.869714"/>
     <use style="fill:#2ca02c;stroke:#2ca02c;" x="236.593333" xlink:href="#m2234210718" y="211.033341"/>
     <use style="fill:#2ca02c;stroke:#2ca02c;" x="245.231667" xlink:href="#m2234210718" y="221.849775"/>
     <use style="fill:#2ca02c;stroke:#2ca02c;" x="253.87" xlink:href="#m2234210718" y="221.724913"/>
     <use style="fill:#2ca02c;stroke:#2ca02c;" x="262.508333" xlink:href="#m2234210718" y="219.444207"/>
     <use style="fill:#2ca02c;stroke:#2ca02c;" x="271.146667" xlink:href="#m2234210718" y="223.161471"/>
     <use style="fill:#2ca02c;stroke:#2ca02c;" x="279.785" xlink:href="#m2234210718" y="224.941399"/>
     <use style="fill:#2ca02c;stroke:#2ca02c;" x="288.423333" xlink:href="#m2234210718" y="211.640542"/>
     <use style="fill:#2ca02c;stroke:#2ca02c;" x="297.061667" xlink:href="#m2234210718" y="187.949729"/>
     <use style="fill:#2ca02c;stroke:#2ca02c;" x="305.7" xlink:href="#m2234210718" y="175.935605"/>
     <use style="fill:#2ca02c;stroke:#2ca02c;" x="314.338333" xlink:href="#m2234210718" y="188.20635"/>
     <use style="fill:#2ca02c;stroke:#2ca02c;" x="322.976667" xlink:href="#m2234210718" y="211.590335"/>
     <use style="fill:#2ca02c;stroke:#2ca02c;" x="331.615" xlink:href="#m2234210718" y="224.390847"/>
     <use style="fill:#2ca02c;stroke:#2ca02c;" x="340.253333" xlink:href="#m2234210718" y="222.508644"/>
     <use style="fill:#2ca02c;stroke:#2ca02c;" x="348.891667" xlink:href="#m2234210718" y="218.84549"/>
     <use style="fill:#2ca02c;stroke:#2ca02c;" x="357.53" xlink:href="#m2234210718" y="220.830575"/>
     <use style="fill:#2ca02c;stroke:#2ca02c;" x="366.168333" xlink:href="#m2234210718" y="220.779468"/>
     <use style="fill:#2ca02c;stroke:#2ca02c;" x="374.806667" xlink:href="#m2234210718" y="210.881054"/>
     <use style="fill:#2ca02c;stroke:#2ca02c;" x="383.445" xlink:href="#m2234210718" y="197.457821"/>
     <use style="fill:#2ca02c;stroke:#2ca02c;" x="392.083333" xlink:href="#m2234210718" y="193.226117"/>
     <use style="fill:#2ca02c;stroke:#2ca02c;" x="400.721667" xlink:href="#m2234210718" y="200.623736"/>
     <use style="fill:#2ca02c;stroke:#2ca02c;" x="409.36" xlink:href="#m2234210718" y="210.261655"/>
     <use style="fill:#2ca02c;stroke:#2ca02c;" x="417.998333" xlink:href="#m2234210718" y="213.987355"/>
     <use style="fill:#2ca02c;stroke:#2ca02c;" x="426.636667" xlink:href="#m2234210718" y="212.776707"/>
     <use style="fill:#2ca02c;stroke:#2ca02c;" x="435.275" xlink:href="#m2234210718" y="211.459168"/>
     <use style="fill:#2ca02c;stroke:#2ca02c;" x="443.913333" xlink:href="#m2234210718" y="211.475287"/>
     <use style="fill:#2ca02c;stroke:#2ca02c;" x="452.551667" xlink:href="#m2234210718" y="211.186562"/>
     <use style="fill:#2ca02c;stroke:#2ca02c;" x="461.19" xlink:href="#m2234210718" y="209.711575"/>
     <use style="fill:#2ca02c;stroke:#2ca02c;" x="469.828333" xlink:href="#m2234210718" y="207.798683"/>
    </g>
   </g>
   <g id="patch_3">
    <path d="M 46.55 235.6 
L 46.55 32.065625 
" style="fill:none;stroke:#000000;stroke-linecap:square;stroke-linejoin:miter;stroke-width:0.8;"/>
   </g>
   <g id="patch_4">
    <path d="M 564.85 235.6 
L 564.85 32.065625 
" style="fill:none;stroke:#000000;stroke-linecap:square;stroke-linejoin:miter;stroke-width:0.8;"/>
   </g>
   <g id="patch_5">
    <path d="M 46.55 235.6 
L 564.85 235.6 
" style="fill:none;stroke:#000000;stroke-linecap:square;stroke-linejoin:miter;stroke-width:0.8;"/>
   </g>
   <g id="patch_6">
    <path d="M 46.55 32.065625 
L 564.85 32.065625 
" style="fill:none;stroke:#000000;stroke-linecap:square;stroke-linejoin:miter;stroke-width:0.8;"/>
   </g>
   <g id="text_9">
    <!-- $x[n]$, N1 = 5, N2 = 10, N3 = 40 -->
    <g transform="translate(164.67 26.065625)scale(0.18 -0.18)">
     <defs>
      <path d="M 60.015625 54.6875 
L 34.90625 27.875 
L 50.296875 0 
L 39.984375 0 
L 28.421875 21.6875 
L 8.296875 0 
L -2.59375 0 
L 24.3125 28.8125 
L 10.015625 54.6875 
L 20.3125 54.6875 
L 30.8125 34.90625 
L 49.125 54.6875 
z
" id="DejaVuSans-Oblique-120"/>
      <path d="M 8.59375 75.984375 
L 29.296875 75.984375 
L 29.296875 69 
L 17.578125 69 
L 17.578125 -6.203125 
L 29.296875 -6.203125 
L 29.296875 -13.1875 
L 8.59375 -13.1875 
z
" id="DejaVuSans-91"/>
      <path d="M 30.421875 75.984375 
L 30.421875 -13.1875 
L 9.71875 -13.1875 
L 9.71875 -6.203125 
L 21.390625 -6.203125 
L 21.390625 69 
L 9.71875 69 
L 9.71875 75.984375 
z
" id="DejaVuSans-93"/>
      <path d="M 11.71875 12.40625 
L 22.015625 12.40625 
L 22.015625 4 
L 14.015625 -11.625 
L 7.71875 -11.625 
L 11.71875 4 
z
" id="DejaVuSans-44"/>
      <path id="DejaVuSans-32"/>
      <path d="M 9.8125 72.90625 
L 23.09375 72.90625 
L 55.421875 11.921875 
L 55.421875 72.90625 
L 64.984375 72.90625 
L 64.984375 0 
L 51.703125 0 
L 19.390625 60.984375 
L 19.390625 0 
L 9.8125 0 
z
" id="DejaVuSans-78"/>
      <path d="M 10.59375 45.40625 
L 73.1875 45.40625 
L 73.1875 37.203125 
L 10.59375 37.203125 
z
M 10.59375 25.484375 
L 73.1875 25.484375 
L 73.1875 17.1875 
L 10.59375 17.1875 
z
" id="DejaVuSans-61"/>
     </defs>
     <use transform="translate(0 0.015625)" xlink:href="#DejaVuSans-Oblique-120"/>
     <use transform="translate(59.179688 0.015625)" xlink:href="#DejaVuSans-91"/>
     <use transform="translate(98.193359 0.015625)" xlink:href="#DejaVuSans-Oblique-110"/>
     <use transform="translate(161.572266 0.015625)" xlink:href="#DejaVuSans-93"/>
     <use transform="translate(200.585938 0.015625)" xlink:href="#DejaVuSans-44"/>
     <use transform="translate(232.373047 0.015625)" xlink:href="#DejaVuSans-32"/>
     <use transform="translate(264.160156 0.015625)" xlink:href="#DejaVuSans-78"/>
     <use transform="translate(338.964844 0.015625)" xlink:href="#DejaVuSans-49"/>
     <use transform="translate(402.587891 0.015625)" xlink:href="#DejaVuSans-32"/>
     <use transform="translate(434.375 0.015625)" xlink:href="#DejaVuSans-61"/>
     <use transform="translate(518.164062 0.015625)" xlink:href="#DejaVuSans-32"/>
     <use transform="translate(549.951172 0.015625)" xlink:href="#DejaVuSans-53"/>
     <use transform="translate(613.574219 0.015625)" xlink:href="#DejaVuSans-44"/>
     <use transform="translate(645.361328 0.015625)" xlink:href="#DejaVuSans-32"/>
     <use transform="translate(677.148438 0.015625)" xlink:href="#DejaVuSans-78"/>
     <use transform="translate(751.953125 0.015625)" xlink:href="#DejaVuSans-50"/>
     <use transform="translate(815.576172 0.015625)" xlink:href="#DejaVuSans-32"/>
     <use transform="translate(847.363281 0.015625)" xlink:href="#DejaVuSans-61"/>
     <use transform="translate(931.152344 0.015625)" xlink:href="#DejaVuSans-32"/>
     <use transform="translate(962.939453 0.015625)" xlink:href="#DejaVuSans-49"/>
     <use transform="translate(1026.5625 0.015625)" xlink:href="#DejaVuSans-48"/>
     <use transform="translate(1090.185547 0.015625)" xlink:href="#DejaVuSans-44"/>
     <use transform="translate(1121.972656 0.015625)" xlink:href="#DejaVuSans-32"/>
     <use transform="translate(1153.759766 0.015625)" xlink:href="#DejaVuSans-78"/>
     <use transform="translate(1228.564453 0.015625)" xlink:href="#DejaVuSans-51"/>
     <use transform="translate(1292.1875 0.015625)" xlink:href="#DejaVuSans-32"/>
     <use transform="translate(1323.974609 0.015625)" xlink:href="#DejaVuSans-61"/>
     <use transform="translate(1407.763672 0.015625)" xlink:href="#DejaVuSans-32"/>
     <use transform="translate(1439.550781 0.015625)" xlink:href="#DejaVuSans-52"/>
     <use transform="translate(1503.173828 0.015625)" xlink:href="#DejaVuSans-48"/>
    </g>
   </g>
  </g>
  <g id="axes_2">
   <g id="patch_7">
    <path d="M 622.9 235.6 
L 1141.2 235.6 
L 1141.2 32.065625 
L 622.9 32.065625 
z
" style="fill:#ffffff;"/>
   </g>
   <g id="matplotlib.axis_3">
    <g id="xtick_8">
     <g id="line2d_14">
      <path clip-path="url(#p3173c5d2e8)" d="M 674.73 235.6 
L 674.73 32.065625 
" style="fill:none;stroke:#cccccc;stroke-dasharray:1.85,0.8;stroke-dashoffset:0;stroke-width:0.5;"/>
     </g>
     <g id="line2d_15">
      <g>
       <use style="stroke:#000000;stroke-width:0.8;" x="674.73" xlink:href="#m39fdc13873" y="235.6"/>
      </g>
     </g>
     <g id="text_10">
      <!-- −4 -->
      <g transform="translate(661.462031 256.277188)scale(0.18 -0.18)">
       <use xlink:href="#DejaVuSans-8722"/>
       <use x="83.789062" xlink:href="#DejaVuSans-52"/>
      </g>
     </g>
    </g>
    <g id="xtick_9">
     <g id="line2d_16">
      <path clip-path="url(#p3173c5d2e8)" d="M 778.39 235.6 
L 778.39 32.065625 
" style="fill:none;stroke:#cccccc;stroke-dasharray:1.85,0.8;stroke-dashoffset:0;stroke-width:0.5;"/>
     </g>
     <g id="line2d_17">
      <g>
       <use style="stroke:#000000;stroke-width:0.8;" x="778.39" xlink:href="#m39fdc13873" y="235.6"/>
      </g>
     </g>
     <g id="text_11">
      <!-- −2 -->
      <g transform="translate(765.122031 256.277188)scale(0.18 -0.18)">
       <use xlink:href="#DejaVuSans-8722"/>
       <use x="83.789062" xlink:href="#DejaVuSans-50"/>
      </g>
     </g>
    </g>
    <g id="xtick_10">
     <g id="line2d_18">
      <path clip-path="url(#p3173c5d2e8)" d="M 882.05 235.6 
L 882.05 32.065625 
" style="fill:none;stroke:#cccccc;stroke-dasharray:1.85,0.8;stroke-dashoffset:0;stroke-width:0.5;"/>
     </g>
     <g id="line2d_19">
      <g>
       <use style="stroke:#000000;stroke-width:0.8;" x="882.05" xlink:href="#m39fdc13873" y="235.6"/>
      </g>
     </g>
     <g id="text_12">
      <!-- 0 -->
      <g transform="translate(876.32375 256.277188)scale(0.18 -0.18)">
       <use xlink:href="#DejaVuSans-48"/>
      </g>
     </g>
    </g>
    <g id="xtick_11">
     <g id="line2d_20">
      <path clip-path="url(#p3173c5d2e8)" d="M 985.71 235.6 
L 985.71 32.065625 
" style="fill:none;stroke:#cccccc;stroke-dasharray:1.85,0.8;stroke-dashoffset:0;stroke-width:0.5;"/>
     </g>
     <g id="line2d_21">
      <g>
       <use style="stroke:#000000;stroke-width:0.8;" x="985.71" xlink:href="#m39fdc13873" y="235.6"/>
      </g>
     </g>
     <g id="text_13">
      <!-- 2 -->
      <g transform="translate(979.98375 256.277188)scale(0.18 -0.18)">
       <use xlink:href="#DejaVuSans-50"/>
      </g>
     </g>
    </g>
    <g id="xtick_12">
     <g id="line2d_22">
      <path clip-path="url(#p3173c5d2e8)" d="M 1089.37 235.6 
L 1089.37 32.065625 
" style="fill:none;stroke:#cccccc;stroke-dasharray:1.85,0.8;stroke-dashoffset:0;stroke-width:0.5;"/>
     </g>
     <g id="line2d_23">
      <g>
       <use style="stroke:#000000;stroke-width:0.8;" x="1089.37" xlink:href="#m39fdc13873" y="235.6"/>
      </g>
     </g>
     <g id="text_14">
      <!-- 4 -->
      <g transform="translate(1083.64375 256.277188)scale(0.18 -0.18)">
       <use xlink:href="#DejaVuSans-52"/>
      </g>
     </g>
    </g>
    <g id="text_15">
     <!-- $f$ -->
     <g transform="translate(878.81 277.697812)scale(0.18 -0.18)">
      <defs>
       <path d="M 47.796875 75.984375 
L 46.390625 68.5 
L 37.796875 68.5 
Q 32.90625 68.5 30.6875 66.578125 
Q 28.46875 64.65625 27.390625 59.515625 
L 26.421875 54.6875 
L 41.21875 54.6875 
L 39.890625 47.703125 
L 25.09375 47.703125 
L 15.828125 0 
L 6.78125 0 
L 16.109375 47.703125 
L 7.515625 47.703125 
L 8.796875 54.6875 
L 17.390625 54.6875 
L 18.109375 58.5 
Q 19.96875 68.171875 24.625 72.078125 
Q 29.296875 75.984375 39.3125 75.984375 
z
" id="DejaVuSans-Oblique-102"/>
      </defs>
      <use transform="translate(0 0.015625)" xlink:href="#DejaVuSans-Oblique-102"/>
     </g>
    </g>
   </g>
   <g id="matplotlib.axis_4">
    <g id="ytick_1">
     <g id="line2d_24">
      <path clip-path="url(#p3173c5d2e8)" d="M 622.9 206.41234 
L 1141.2 206.41234 
" style="fill:none;stroke:#cccccc;stroke-dasharray:1.85,0.8;stroke-dashoffset:0;stroke-width:0.5;"/>
     </g>
     <g id="line2d_25">
      <defs>
       <path d="M 0 0 
L -3.5 0 
" id="m3584a255ca" style="stroke:#000000;stroke-width:0.8;"/>
      </defs>
      <g>
       <use style="stroke:#000000;stroke-width:0.8;" x="622.9" xlink:href="#m3584a255ca" y="206.41234"/>
      </g>
     </g>
     <g id="text_16">
      <!-- 0.2 -->
      <g transform="translate(587.274375 213.250934)scale(0.18 -0.18)">
       <defs>
        <path d="M 10.6875 12.40625 
L 21 12.40625 
L 21 0 
L 10.6875 0 
z
" id="DejaVuSans-46"/>
       </defs>
       <use xlink:href="#DejaVuSans-48"/>
       <use x="63.623047" xlink:href="#DejaVuSans-46"/>
       <use x="95.410156" xlink:href="#DejaVuSans-50"/>
      </g>
     </g>
    </g>
    <g id="ytick_2">
     <g id="line2d_26">
      <path clip-path="url(#p3173c5d2e8)" d="M 622.9 163.470759 
L 1141.2 163.470759 
" style="fill:none;stroke:#cccccc;stroke-dasharray:1.85,0.8;stroke-dashoffset:0;stroke-width:0.5;"/>
     </g>
     <g id="line2d_27">
      <g>
       <use style="stroke:#000000;stroke-width:0.8;" x="622.9" xlink:href="#m3584a255ca" y="163.470759"/>
      </g>
     </g>
     <g id="text_17">
      <!-- 0.4 -->
      <g transform="translate(587.274375 170.309353)scale(0.18 -0.18)">
       <use xlink:href="#DejaVuSans-48"/>
       <use x="63.623047" xlink:href="#DejaVuSans-46"/>
       <use x="95.410156" xlink:href="#DejaVuSans-52"/>
      </g>
     </g>
    </g>
    <g id="ytick_3">
     <g id="line2d_28">
      <path clip-path="url(#p3173c5d2e8)" d="M 622.9 120.529179 
L 1141.2 120.529179 
" style="fill:none;stroke:#cccccc;stroke-dasharray:1.85,0.8;stroke-dashoffset:0;stroke-width:0.5;"/>
     </g>
     <g id="line2d_29">
      <g>
       <use style="stroke:#000000;stroke-width:0.8;" x="622.9" xlink:href="#m3584a255ca" y="120.529179"/>
      </g>
     </g>
     <g id="text_18">
      <!-- 0.6 -->
      <g transform="translate(587.274375 127.367773)scale(0.18 -0.18)">
       <defs>
        <path d="M 33.015625 40.375 
Q 26.375 40.375 22.484375 35.828125 
Q 18.609375 31.296875 18.609375 23.390625 
Q 18.609375 15.53125 22.484375 10.953125 
Q 26.375 6.390625 33.015625 6.390625 
Q 39.65625 6.390625 43.53125 10.953125 
Q 47.40625 15.53125 47.40625 23.390625 
Q 47.40625 31.296875 43.53125 35.828125 
Q 39.65625 40.375 33.015625 40.375 
z
M 52.59375 71.296875 
L 52.59375 62.3125 
Q 48.875 64.0625 45.09375 64.984375 
Q 41.3125 65.921875 37.59375 65.921875 
Q 27.828125 65.921875 22.671875 59.328125 
Q 17.53125 52.734375 16.796875 39.40625 
Q 19.671875 43.65625 24.015625 45.921875 
Q 28.375 48.1875 33.59375 48.1875 
Q 44.578125 48.1875 50.953125 41.515625 
Q 57.328125 34.859375 57.328125 23.390625 
Q 57.328125 12.15625 50.6875 5.359375 
Q 44.046875 -1.421875 33.015625 -1.421875 
Q 20.359375 -1.421875 13.671875 8.265625 
Q 6.984375 17.96875 6.984375 36.375 
Q 6.984375 53.65625 15.1875 63.9375 
Q 23.390625 74.21875 37.203125 74.21875 
Q 40.921875 74.21875 44.703125 73.484375 
Q 48.484375 72.75 52.59375 71.296875 
z
" id="DejaVuSans-54"/>
       </defs>
       <use xlink:href="#DejaVuSans-48"/>
       <use x="63.623047" xlink:href="#DejaVuSans-46"/>
       <use x="95.410156" xlink:href="#DejaVuSans-54"/>
      </g>
     </g>
    </g>
    <g id="ytick_4">
     <g id="line2d_30">
      <path clip-path="url(#p3173c5d2e8)" d="M 622.9 77.587598 
L 1141.2 77.587598 
" style="fill:none;stroke:#cccccc;stroke-dasharray:1.85,0.8;stroke-dashoffset:0;stroke-width:0.5;"/>
     </g>
     <g id="line2d_31">
      <g>
       <use style="stroke:#000000;stroke-width:0.8;" x="622.9" xlink:href="#m3584a255ca" y="77.587598"/>
      </g>
     </g>
     <g id="text_19">
      <!-- 0.8 -->
      <g transform="translate(587.274375 84.426192)scale(0.18 -0.18)">
       <defs>
        <path d="M 31.78125 34.625 
Q 24.75 34.625 20.71875 30.859375 
Q 16.703125 27.09375 16.703125 20.515625 
Q 16.703125 13.921875 20.71875 10.15625 
Q 24.75 6.390625 31.78125 6.390625 
Q 38.8125 6.390625 42.859375 10.171875 
Q 46.921875 13.96875 46.921875 20.515625 
Q 46.921875 27.09375 42.890625 30.859375 
Q 38.875 34.625 31.78125 34.625 
z
M 21.921875 38.8125 
Q 15.578125 40.375 12.03125 44.71875 
Q 8.5 49.078125 8.5 55.328125 
Q 8.5 64.0625 14.71875 69.140625 
Q 20.953125 74.21875 31.78125 74.21875 
Q 42.671875 74.21875 48.875 69.140625 
Q 55.078125 64.0625 55.078125 55.328125 
Q 55.078125 49.078125 51.53125 44.71875 
Q 48 40.375 41.703125 38.8125 
Q 48.828125 37.15625 52.796875 32.3125 
Q 56.78125 27.484375 56.78125 20.515625 
Q 56.78125 9.90625 50.3125 4.234375 
Q 43.84375 -1.421875 31.78125 -1.421875 
Q 19.734375 -1.421875 13.25 4.234375 
Q 6.78125 9.90625 6.78125 20.515625 
Q 6.78125 27.484375 10.78125 32.3125 
Q 14.796875 37.15625 21.921875 38.8125 
z
M 18.3125 54.390625 
Q 18.3125 48.734375 21.84375 45.5625 
Q 25.390625 42.390625 31.78125 42.390625 
Q 38.140625 42.390625 41.71875 45.5625 
Q 45.3125 48.734375 45.3125 54.390625 
Q 45.3125 60.0625 41.71875 63.234375 
Q 38.140625 66.40625 31.78125 66.40625 
Q 25.390625 66.40625 21.84375 63.234375 
Q 18.3125 60.0625 18.3125 54.390625 
z
" id="DejaVuSans-56"/>
       </defs>
       <use xlink:href="#DejaVuSans-48"/>
       <use x="63.623047" xlink:href="#DejaVuSans-46"/>
       <use x="95.410156" xlink:href="#DejaVuSans-56"/>
      </g>
     </g>
    </g>
    <g id="ytick_5">
     <g id="line2d_32">
      <path clip-path="url(#p3173c5d2e8)" d="M 622.9 34.646018 
L 1141.2 34.646018 
" style="fill:none;stroke:#cccccc;stroke-dasharray:1.85,0.8;stroke-dashoffset:0;stroke-width:0.5;"/>
     </g>
     <g id="line2d_33">
      <g>
       <use style="stroke:#000000;stroke-width:0.8;" x="622.9" xlink:href="#m3584a255ca" y="34.646018"/>
      </g>
     </g>
     <g id="text_20">
      <!-- 1.0 -->
      <g transform="translate(587.274375 41.484611)scale(0.18 -0.18)">
       <use xlink:href="#DejaVuSans-49"/>
       <use x="63.623047" xlink:href="#DejaVuSans-46"/>
       <use x="95.410156" xlink:href="#DejaVuSans-48"/>
      </g>
     </g>
    </g>
   </g>
   <g id="line2d_34">
    <path clip-path="url(#p3173c5d2e8)" d="M 622.9 214.38827 
L 624.798071 214.270949 
L 626.696143 213.92114 
L 628.594214 213.345103 
L 630.618823 212.492389 
L 632.769971 211.333647 
L 635.047656 209.845797 
L 637.578418 207.909161 
L 640.235718 205.591978 
L 643.272632 202.635749 
L 646.562622 199.117516 
L 650.358765 194.716893 
L 654.534521 189.527162 
L 659.342969 183.180636 
L 664.657568 175.790983 
L 670.731396 166.958589 
L 677.817529 156.248381 
L 686.548657 142.628429 
L 715.905493 96.472716 
L 722.232397 87.155303 
L 727.673535 79.53229 
L 732.481982 73.167361 
L 736.910815 67.66708 
L 740.960034 62.983165 
L 744.756177 58.924001 
L 748.299243 55.45161 
L 751.715771 52.414636 
L 754.879224 49.893184 
L 757.916138 47.750422 
L 760.826514 45.964944 
L 763.610352 44.513185 
L 766.267651 43.369889 
L 768.924951 42.471444 
L 771.455713 41.850254 
L 773.986475 41.463991 
L 776.390698 41.319804 
L 778.794922 41.397255 
L 781.199146 41.700482 
L 783.603369 42.233238 
L 786.007593 42.998881 
L 788.411816 44.00035 
L 790.81604 45.240154 
L 793.346802 46.804953 
L 795.877563 48.637976 
L 798.408325 50.7405 
L 801.065625 53.238944 
L 803.849463 56.175921 
L 806.633301 59.439087 
L 809.543677 63.197457 
L 812.580591 67.493973 
L 815.744043 72.371319 
L 819.034033 77.871197 
L 822.450562 84.033477 
L 825.993628 90.8952 
L 829.663232 98.48939 
L 833.585913 107.130529 
L 837.76167 116.888238 
L 842.190503 127.818737 
L 846.99895 140.292867 
L 852.440088 155.052626 
L 859.273145 174.287159 
L 870.15542 204.989397 
L 873.192334 212.862595 
L 875.343481 217.880716 
L 876.988477 221.203313 
L 878.253857 223.326065 
L 879.3927 224.819959 
L 880.278467 225.656707 
L 881.037695 226.12026 
L 881.796924 226.334109 
L 882.556152 226.291178 
L 883.315381 225.992907 
L 884.074609 225.449027 
L 884.960376 224.526431 
L 885.972681 223.134075 
L 887.238062 220.968181 
L 888.756519 217.880716 
L 890.65459 213.483128 
L 893.185352 207.018377 
L 896.854956 196.975526 
L 904.447241 175.36993 
L 912.419141 152.957708 
L 917.986816 137.95142 
L 922.921802 125.270528 
L 927.477173 114.172196 
L 931.65293 104.567827 
L 935.57561 96.080762 
L 939.371753 88.390522 
L 942.914819 81.698359 
L 946.331348 75.704852 
L 949.621338 70.371584 
L 952.78479 65.657519 
L 955.821704 61.519981 
L 958.73208 57.915482 
L 961.642456 54.666588 
L 964.426294 51.893064 
L 967.083594 49.550706 
L 969.740894 47.505891 
L 972.271655 45.833993 
L 974.802417 44.429272 
L 977.206641 43.340264 
L 979.610864 42.488057 
L 982.015088 41.869869 
L 984.419312 41.482495 
L 986.823535 41.322325 
L 989.227759 41.38536 
L 991.631982 41.667231 
L 994.162744 42.195156 
L 996.693506 42.954414 
L 999.350806 43.993716 
L 1002.008105 45.273412 
L 1004.791943 46.863041 
L 1007.702319 48.786908 
L 1010.739233 51.067556 
L 1013.902686 53.725308 
L 1017.192676 56.777795 
L 1020.735742 60.37313 
L 1024.531885 64.553743 
L 1028.581104 69.355339 
L 1032.883398 74.804946 
L 1037.691846 81.268079 
L 1043.006445 88.799809 
L 1049.080273 97.809155 
L 1056.419482 109.112649 
L 1067.17522 126.134751 
L 1083.625171 152.143733 
L 1091.723608 164.507002 
L 1098.430127 174.345185 
L 1104.124341 182.320009 
L 1109.185864 189.039547 
L 1113.614697 194.564655 
L 1117.537378 199.117516 
L 1121.080444 202.893467 
L 1124.243896 205.939352 
L 1127.027734 208.31873 
L 1129.558496 210.19833 
L 1131.836182 211.628675 
L 1133.987329 212.727867 
L 1136.011938 213.520336 
L 1137.91001 214.03687 
L 1139.808081 214.325132 
L 1141.073462 214.387748 
L 1141.073462 214.387748 
" style="fill:none;stroke:#d62728;stroke-linecap:square;stroke-width:2;"/>
   </g>
   <g id="patch_8">
    <path d="M 622.9 235.6 
L 622.9 32.065625 
" style="fill:none;stroke:#000000;stroke-linecap:square;stroke-linejoin:miter;stroke-width:0.8;"/>
   </g>
   <g id="patch_9">
    <path d="M 1141.2 235.6 
L 1141.2 32.065625 
" style="fill:none;stroke:#000000;stroke-linecap:square;stroke-linejoin:miter;stroke-width:0.8;"/>
   </g>
   <g id="patch_10">
    <path d="M 622.9 235.6 
L 1141.2 235.6 
" style="fill:none;stroke:#000000;stroke-linecap:square;stroke-linejoin:miter;stroke-width:0.8;"/>
   </g>
   <g id="patch_11">
    <path d="M 622.9 32.065625 
L 1141.2 32.065625 
" style="fill:none;stroke:#000000;stroke-linecap:square;stroke-linejoin:miter;stroke-width:0.8;"/>
   </g>
   <g id="text_21">
    <!-- $W[\Omega]$,  N = 5 -->
    <g transform="translate(824.9 26.065625)scale(0.18 -0.18)">
     <defs>
      <path d="M 9.625 72.90625 
L 19.1875 72.90625 
L 22.703125 10.890625 
L 50.203125 72.90625 
L 61.1875 72.90625 
L 64.796875 10.890625 
L 92 72.90625 
L 102 72.90625 
L 69.578125 0 
L 57.171875 0 
L 53.8125 60.796875 
L 26.515625 0 
L 14.109375 0 
z
" id="DejaVuSans-Oblique-87"/>
      <path d="M 72.609375 8.6875 
L 72.609375 0 
L 43.3125 0 
L 43.3125 8.6875 
Q 51.953125 13.421875 56.78125 21.53125 
Q 61.625 29.640625 61.625 39.5 
Q 61.625 51.21875 55.171875 58.296875 
Q 48.734375 65.375 38.1875 65.375 
Q 27.640625 65.375 21.171875 58.265625 
Q 14.703125 51.171875 14.703125 39.5 
Q 14.703125 29.640625 19.53125 21.53125 
Q 24.421875 13.421875 33.109375 8.6875 
L 33.109375 0 
L 3.8125 0 
L 3.8125 8.6875 
L 19.390625 8.6875 
Q 11.671875 15.484375 8.109375 22.75 
Q 4.59375 30.03125 4.59375 39.015625 
Q 4.59375 54.546875 13.96875 64.15625 
Q 23.296875 73.78125 38.1875 73.78125 
Q 52.984375 73.78125 62.40625 64.15625 
Q 71.78125 54.59375 71.78125 39.5 
Q 71.78125 30.03125 68.3125 22.796875 
Q 64.84375 15.578125 56.984375 8.6875 
z
" id="DejaVuSans-937"/>
     </defs>
     <use transform="translate(0 0.015625)" xlink:href="#DejaVuSans-Oblique-87"/>
     <use transform="translate(98.876953 0.015625)" xlink:href="#DejaVuSans-91"/>
     <use transform="translate(137.890625 0.015625)" xlink:href="#DejaVuSans-937"/>
     <use transform="translate(214.306641 0.015625)" xlink:href="#DejaVuSans-93"/>
     <use transform="translate(253.320312 0.015625)" xlink:href="#DejaVuSans-44"/>
     <use transform="translate(285.107422 0.015625)" xlink:href="#DejaVuSans-32"/>
     <use transform="translate(316.894531 0.015625)" xlink:href="#DejaVuSans-32"/>
     <use transform="translate(348.681641 0.015625)" xlink:href="#DejaVuSans-78"/>
     <use transform="translate(423.486328 0.015625)" xlink:href="#DejaVuSans-32"/>
     <use transform="translate(455.273438 0.015625)" xlink:href="#DejaVuSans-61"/>
     <use transform="translate(539.0625 0.015625)" xlink:href="#DejaVuSans-32"/>
     <use transform="translate(570.849609 0.015625)" xlink:href="#DejaVuSans-53"/>
    </g>
   </g>
  </g>
  <g id="axes_3">
   <g id="patch_12">
    <path d="M 46.55 518.2 
L 564.85 518.2 
L 564.85 314.665625 
L 46.55 314.665625 
z
" style="fill:#ffffff;"/>
   </g>
   <g id="matplotlib.axis_5">
    <g id="xtick_13">
     <g id="line2d_35">
      <path clip-path="url(#p5b742c6178)" d="M 98.38 518.2 
L 98.38 314.665625 
" style="fill:none;stroke:#cccccc;stroke-dasharray:1.85,0.8;stroke-dashoffset:0;stroke-width:0.5;"/>
     </g>
     <g id="line2d_36">
      <g>
       <use style="stroke:#000000;stroke-width:0.8;" x="98.38" xlink:href="#m39fdc13873" y="518.2"/>
      </g>
     </g>
     <g id="text_22">
      <!-- −4 -->
      <g transform="translate(85.112031 538.877187)scale(0.18 -0.18)">
       <use xlink:href="#DejaVuSans-8722"/>
       <use x="83.789062" xlink:href="#DejaVuSans-52"/>
      </g>
     </g>
    </g>
    <g id="xtick_14">
     <g id="line2d_37">
      <path clip-path="url(#p5b742c6178)" d="M 202.04 518.2 
L 202.04 314.665625 
" style="fill:none;stroke:#cccccc;stroke-dasharray:1.85,0.8;stroke-dashoffset:0;stroke-width:0.5;"/>
     </g>
     <g id="line2d_38">
      <g>
       <use style="stroke:#000000;stroke-width:0.8;" x="202.04" xlink:href="#m39fdc13873" y="518.2"/>
      </g>
     </g>
     <g id="text_23">
      <!-- −2 -->
      <g transform="translate(188.772031 538.877187)scale(0.18 -0.18)">
       <use xlink:href="#DejaVuSans-8722"/>
       <use x="83.789062" xlink:href="#DejaVuSans-50"/>
      </g>
     </g>
    </g>
    <g id="xtick_15">
     <g id="line2d_39">
      <path clip-path="url(#p5b742c6178)" d="M 305.7 518.2 
L 305.7 314.665625 
" style="fill:none;stroke:#cccccc;stroke-dasharray:1.85,0.8;stroke-dashoffset:0;stroke-width:0.5;"/>
     </g>
     <g id="line2d_40">
      <g>
       <use style="stroke:#000000;stroke-width:0.8;" x="305.7" xlink:href="#m39fdc13873" y="518.2"/>
      </g>
     </g>
     <g id="text_24">
      <!-- 0 -->
      <g transform="translate(299.97375 538.877187)scale(0.18 -0.18)">
       <use xlink:href="#DejaVuSans-48"/>
      </g>
     </g>
    </g>
    <g id="xtick_16">
     <g id="line2d_41">
      <path clip-path="url(#p5b742c6178)" d="M 409.36 518.2 
L 409.36 314.665625 
" style="fill:none;stroke:#cccccc;stroke-dasharray:1.85,0.8;stroke-dashoffset:0;stroke-width:0.5;"/>
     </g>
     <g id="line2d_42">
      <g>
       <use style="stroke:#000000;stroke-width:0.8;" x="409.36" xlink:href="#m39fdc13873" y="518.2"/>
      </g>
     </g>
     <g id="text_25">
      <!-- 2 -->
      <g transform="translate(403.63375 538.877187)scale(0.18 -0.18)">
       <use xlink:href="#DejaVuSans-50"/>
      </g>
     </g>
    </g>
    <g id="xtick_17">
     <g id="line2d_43">
      <path clip-path="url(#p5b742c6178)" d="M 513.02 518.2 
L 513.02 314.665625 
" style="fill:none;stroke:#cccccc;stroke-dasharray:1.85,0.8;stroke-dashoffset:0;stroke-width:0.5;"/>
     </g>
     <g id="line2d_44">
      <g>
       <use style="stroke:#000000;stroke-width:0.8;" x="513.02" xlink:href="#m39fdc13873" y="518.2"/>
      </g>
     </g>
     <g id="text_26">
      <!-- 4 -->
      <g transform="translate(507.29375 538.877187)scale(0.18 -0.18)">
       <use xlink:href="#DejaVuSans-52"/>
      </g>
     </g>
    </g>
    <g id="text_27">
     <!-- $f$ -->
     <g transform="translate(302.46 560.297812)scale(0.18 -0.18)">
      <use transform="translate(0 0.015625)" xlink:href="#DejaVuSans-Oblique-102"/>
     </g>
    </g>
   </g>
   <g id="matplotlib.axis_6">
    <g id="ytick_6">
     <g id="line2d_45">
      <path clip-path="url(#p5b742c6178)" d="M 46.55 510.938909 
L 564.85 510.938909 
" style="fill:none;stroke:#cccccc;stroke-dasharray:1.85,0.8;stroke-dashoffset:0;stroke-width:0.5;"/>
     </g>
     <g id="line2d_46">
      <g>
       <use style="stroke:#000000;stroke-width:0.8;" x="46.55" xlink:href="#m3584a255ca" y="510.938909"/>
      </g>
     </g>
     <g id="text_28">
      <!-- 0.0 -->
      <g transform="translate(10.924375 517.777503)scale(0.18 -0.18)">
       <use xlink:href="#DejaVuSans-48"/>
       <use x="63.623047" xlink:href="#DejaVuSans-46"/>
       <use x="95.410156" xlink:href="#DejaVuSans-48"/>
      </g>
     </g>
    </g>
    <g id="ytick_7">
     <g id="line2d_47">
      <path clip-path="url(#p5b742c6178)" d="M 46.55 469.152945 
L 564.85 469.152945 
" style="fill:none;stroke:#cccccc;stroke-dasharray:1.85,0.8;stroke-dashoffset:0;stroke-width:0.5;"/>
     </g>
     <g id="line2d_48">
      <g>
       <use style="stroke:#000000;stroke-width:0.8;" x="46.55" xlink:href="#m3584a255ca" y="469.152945"/>
      </g>
     </g>
     <g id="text_29">
      <!-- 0.5 -->
      <g transform="translate(10.924375 475.991538)scale(0.18 -0.18)">
       <use xlink:href="#DejaVuSans-48"/>
       <use x="63.623047" xlink:href="#DejaVuSans-46"/>
       <use x="95.410156" xlink:href="#DejaVuSans-53"/>
      </g>
     </g>
    </g>
    <g id="ytick_8">
     <g id="line2d_49">
      <path clip-path="url(#p5b742c6178)" d="M 46.55 427.36698 
L 564.85 427.36698 
" style="fill:none;stroke:#cccccc;stroke-dasharray:1.85,0.8;stroke-dashoffset:0;stroke-width:0.5;"/>
     </g>
     <g id="line2d_50">
      <g>
       <use style="stroke:#000000;stroke-width:0.8;" x="46.55" xlink:href="#m3584a255ca" y="427.36698"/>
      </g>
     </g>
     <g id="text_30">
      <!-- 1.0 -->
      <g transform="translate(10.924375 434.205574)scale(0.18 -0.18)">
       <use xlink:href="#DejaVuSans-49"/>
       <use x="63.623047" xlink:href="#DejaVuSans-46"/>
       <use x="95.410156" xlink:href="#DejaVuSans-48"/>
      </g>
     </g>
    </g>
    <g id="ytick_9">
     <g id="line2d_51">
      <path clip-path="url(#p5b742c6178)" d="M 46.55 385.581015 
L 564.85 385.581015 
" style="fill:none;stroke:#cccccc;stroke-dasharray:1.85,0.8;stroke-dashoffset:0;stroke-width:0.5;"/>
     </g>
     <g id="line2d_52">
      <g>
       <use style="stroke:#000000;stroke-width:0.8;" x="46.55" xlink:href="#m3584a255ca" y="385.581015"/>
      </g>
     </g>
     <g id="text_31">
      <!-- 1.5 -->
      <g transform="translate(10.924375 392.419609)scale(0.18 -0.18)">
       <use xlink:href="#DejaVuSans-49"/>
       <use x="63.623047" xlink:href="#DejaVuSans-46"/>
       <use x="95.410156" xlink:href="#DejaVuSans-53"/>
      </g>
     </g>
    </g>
    <g id="ytick_10">
     <g id="line2d_53">
      <path clip-path="url(#p5b742c6178)" d="M 46.55 343.795051 
L 564.85 343.795051 
" style="fill:none;stroke:#cccccc;stroke-dasharray:1.85,0.8;stroke-dashoffset:0;stroke-width:0.5;"/>
     </g>
     <g id="line2d_54">
      <g>
       <use style="stroke:#000000;stroke-width:0.8;" x="46.55" xlink:href="#m3584a255ca" y="343.795051"/>
      </g>
     </g>
     <g id="text_32">
      <!-- 2.0 -->
      <g transform="translate(10.924375 350.633644)scale(0.18 -0.18)">
       <use xlink:href="#DejaVuSans-50"/>
       <use x="63.623047" xlink:href="#DejaVuSans-46"/>
       <use x="95.410156" xlink:href="#DejaVuSans-48"/>
      </g>
     </g>
    </g>
   </g>
   <g id="line2d_55">
    <path clip-path="url(#p5b742c6178)" d="M 46.55 508.948437 
L 48.194995 508.841734 
L 50.219604 508.467522 
L 53.256519 507.638609 
L 62.240723 505.066154 
L 66.036865 504.257889 
L 69.579932 503.725477 
L 73.122998 503.420763 
L 76.666064 503.338098 
L 80.588745 503.475817 
L 85.397192 503.883496 
L 94.634473 504.720731 
L 97.924463 504.760825 
L 100.834839 504.58336 
L 103.745215 504.179229 
L 106.655591 503.544681 
L 109.565967 502.686843 
L 112.602881 501.560788 
L 115.639795 500.198883 
L 118.676709 498.593549 
L 121.713623 496.733816 
L 124.750537 494.610844 
L 127.913989 492.117659 
L 131.203979 489.230777 
L 134.747046 485.819137 
L 138.922803 481.474855 
L 145.502783 474.250924 
L 151.323535 467.98296 
L 154.866602 464.48483 
L 157.776978 461.912309 
L 160.307739 459.961297 
L 162.585425 458.476186 
L 164.736572 457.341481 
L 166.634644 456.578533 
L 168.532715 456.056793 
L 170.304248 455.800903 
L 172.075781 455.77906 
L 173.720776 455.976013 
L 175.365771 456.387599 
L 177.010767 457.01717 
L 178.7823 457.940182 
L 180.553833 459.115262 
L 182.451904 460.646813 
L 184.476514 462.575173 
L 186.754199 465.072839 
L 189.411499 468.341701 
L 197.003784 477.941111 
L 198.522241 479.358259 
L 199.661084 480.154559 
L 200.673389 480.622722 
L 201.559155 480.818728 
L 202.444922 480.794577 
L 203.330688 480.53551 
L 204.216455 480.032831 
L 205.102222 479.284383 
L 206.114526 478.133604 
L 207.253369 476.480298 
L 208.51875 474.233962 
L 210.037207 471.037367 
L 211.80874 466.728276 
L 213.83335 461.195515 
L 216.364111 453.600405 
L 219.654102 442.970138 
L 224.842163 425.33753 
L 232.687524 398.740831 
L 236.736743 385.808574 
L 240.153271 375.596696 
L 243.316724 366.834553 
L 246.2271 359.435789 
L 248.884399 353.278244 
L 251.415161 347.97004 
L 253.819385 343.443381 
L 256.09707 339.624035 
L 258.248218 336.435223 
L 260.399365 333.647679 
L 262.423975 331.382529 
L 264.448584 329.453992 
L 266.346655 327.939588 
L 268.244727 326.695614 
L 270.142798 325.706684 
L 272.040869 324.955626 
L 274.065479 324.395505 
L 276.090088 324.060127 
L 278.241235 323.920909 
L 280.645459 323.990599 
L 283.429297 324.308596 
L 286.845825 324.943089 
L 293.552344 326.490093 
L 297.981177 327.380918 
L 301.397705 327.847853 
L 304.561157 328.053487 
L 307.598071 328.025597 
L 310.761523 327.764645 
L 314.178052 327.247528 
L 318.353809 326.37485 
L 327.464551 324.388365 
L 330.374927 324.020413 
L 332.905688 323.917776 
L 335.183374 324.046041 
L 337.334521 324.395505 
L 339.359131 324.955626 
L 341.257202 325.706684 
L 343.155273 326.695614 
L 345.053345 327.939588 
L 346.951416 329.453992 
L 348.849487 331.252261 
L 350.747559 333.34573 
L 352.772168 335.914354 
L 354.796777 338.837289 
L 356.947925 342.336607 
L 359.22561 346.485826 
L 361.629834 351.3577 
L 364.160596 357.020964 
L 366.817896 363.536261 
L 369.601733 370.951165 
L 372.638647 379.669669 
L 376.055176 390.163596 
L 380.104395 403.35014 
L 385.925146 423.161217 
L 392.884741 446.723023 
L 396.174731 457.096579 
L 398.705493 464.378118 
L 400.730103 469.563782 
L 402.375098 473.225308 
L 403.767017 475.849645 
L 405.032397 477.798159 
L 406.17124 479.157567 
L 407.183545 480.032831 
L 408.069312 480.53551 
L 408.955078 480.794577 
L 409.840845 480.818728 
L 410.726611 480.622722 
L 411.738916 480.154559 
L 412.877759 479.358259 
L 414.269678 478.072066 
L 415.914673 476.229746 
L 418.445435 473.010539 
L 424.139648 465.669498 
L 426.543872 462.968571 
L 428.69502 460.87166 
L 430.719629 459.208706 
L 432.6177 457.940182 
L 434.389233 457.01717 
L 436.160767 456.348229 
L 437.805762 455.953299 
L 439.450757 455.77266 
L 441.22229 455.811536 
L 442.993823 456.083756 
L 444.765356 456.578533 
L 446.663428 457.341481 
L 448.688037 458.401944 
L 450.839185 459.782902 
L 453.243408 461.601298 
L 455.900708 463.899298 
L 459.06416 466.949857 
L 462.986841 471.064212 
L 478.044873 487.193777 
L 481.587939 490.487353 
L 484.87793 493.249755 
L 488.041382 495.616877 
L 491.078296 497.61845 
L 494.11521 499.36023 
L 497.152124 500.852709 
L 500.189038 502.105971 
L 503.225952 503.124436 
L 506.262866 503.904165 
L 509.173242 504.418994 
L 512.083618 504.703219 
L 515.120532 504.769303 
L 518.537061 504.615797 
L 523.598584 504.136605 
L 530.811255 503.475817 
L 534.860474 503.337444 
L 538.530078 503.434993 
L 542.073145 503.756 
L 545.616211 504.30441 
L 549.285815 505.096942 
L 553.58811 506.263434 
L 562.1927 508.681727 
L 564.090771 508.925181 
L 564.723462 508.947787 
L 564.723462 508.947787 
" style="fill:none;stroke:#d62728;stroke-linecap:square;stroke-width:2;"/>
   </g>
   <g id="patch_13">
    <path d="M 46.55 518.2 
L 46.55 314.665625 
" style="fill:none;stroke:#000000;stroke-linecap:square;stroke-linejoin:miter;stroke-width:0.8;"/>
   </g>
   <g id="patch_14">
    <path d="M 564.85 518.2 
L 564.85 314.665625 
" style="fill:none;stroke:#000000;stroke-linecap:square;stroke-linejoin:miter;stroke-width:0.8;"/>
   </g>
   <g id="patch_15">
    <path d="M 46.55 518.2 
L 564.85 518.2 
" style="fill:none;stroke:#000000;stroke-linecap:square;stroke-linejoin:miter;stroke-width:0.8;"/>
   </g>
   <g id="patch_16">
    <path d="M 46.55 314.665625 
L 564.85 314.665625 
" style="fill:none;stroke:#000000;stroke-linecap:square;stroke-linejoin:miter;stroke-width:0.8;"/>
   </g>
   <g id="text_33">
    <!-- $W[\Omega]$,  N = 10 -->
    <g transform="translate(242.79 308.665625)scale(0.18 -0.18)">
     <use transform="translate(0 0.015625)" xlink:href="#DejaVuSans-Oblique-87"/>
     <use transform="translate(98.876953 0.015625)" xlink:href="#DejaVuSans-91"/>
     <use transform="translate(137.890625 0.015625)" xlink:href="#DejaVuSans-937"/>
     <use transform="translate(214.306641 0.015625)" xlink:href="#DejaVuSans-93"/>
     <use transform="translate(253.320312 0.015625)" xlink:href="#DejaVuSans-44"/>
     <use transform="translate(285.107422 0.015625)" xlink:href="#DejaVuSans-32"/>
     <use transform="translate(316.894531 0.015625)" xlink:href="#DejaVuSans-32"/>
     <use transform="translate(348.681641 0.015625)" xlink:href="#DejaVuSans-78"/>
     <use transform="translate(423.486328 0.015625)" xlink:href="#DejaVuSans-32"/>
     <use transform="translate(455.273438 0.015625)" xlink:href="#DejaVuSans-61"/>
     <use transform="translate(539.0625 0.015625)" xlink:href="#DejaVuSans-32"/>
     <use transform="translate(570.849609 0.015625)" xlink:href="#DejaVuSans-49"/>
     <use transform="translate(634.472656 0.015625)" xlink:href="#DejaVuSans-48"/>
    </g>
   </g>
  </g>
  <g id="axes_4">
   <g id="patch_17">
    <path d="M 622.9 518.2 
L 1141.2 518.2 
L 1141.2 314.665625 
L 622.9 314.665625 
z
" style="fill:#ffffff;"/>
   </g>
   <g id="matplotlib.axis_7">
    <g id="xtick_18">
     <g id="line2d_56">
      <path clip-path="url(#paf83d39d48)" d="M 674.73 518.2 
L 674.73 314.665625 
" style="fill:none;stroke:#cccccc;stroke-dasharray:1.85,0.8;stroke-dashoffset:0;stroke-width:0.5;"/>
     </g>
     <g id="line2d_57">
      <g>
       <use style="stroke:#000000;stroke-width:0.8;" x="674.73" xlink:href="#m39fdc13873" y="518.2"/>
      </g>
     </g>
     <g id="text_34">
      <!-- −4 -->
      <g transform="translate(661.462031 538.877187)scale(0.18 -0.18)">
       <use xlink:href="#DejaVuSans-8722"/>
       <use x="83.789062" xlink:href="#DejaVuSans-52"/>
      </g>
     </g>
    </g>
    <g id="xtick_19">
     <g id="line2d_58">
      <path clip-path="url(#paf83d39d48)" d="M 778.39 518.2 
L 778.39 314.665625 
" style="fill:none;stroke:#cccccc;stroke-dasharray:1.85,0.8;stroke-dashoffset:0;stroke-width:0.5;"/>
     </g>
     <g id="line2d_59">
      <g>
       <use style="stroke:#000000;stroke-width:0.8;" x="778.39" xlink:href="#m39fdc13873" y="518.2"/>
      </g>
     </g>
     <g id="text_35">
      <!-- −2 -->
      <g transform="translate(765.122031 538.877187)scale(0.18 -0.18)">
       <use xlink:href="#DejaVuSans-8722"/>
       <use x="83.789062" xlink:href="#DejaVuSans-50"/>
      </g>
     </g>
    </g>
    <g id="xtick_20">
     <g id="line2d_60">
      <path clip-path="url(#paf83d39d48)" d="M 882.05 518.2 
L 882.05 314.665625 
" style="fill:none;stroke:#cccccc;stroke-dasharray:1.85,0.8;stroke-dashoffset:0;stroke-width:0.5;"/>
     </g>
     <g id="line2d_61">
      <g>
       <use style="stroke:#000000;stroke-width:0.8;" x="882.05" xlink:href="#m39fdc13873" y="518.2"/>
      </g>
     </g>
     <g id="text_36">
      <!-- 0 -->
      <g transform="translate(876.32375 538.877187)scale(0.18 -0.18)">
       <use xlink:href="#DejaVuSans-48"/>
      </g>
     </g>
    </g>
    <g id="xtick_21">
     <g id="line2d_62">
      <path clip-path="url(#paf83d39d48)" d="M 985.71 518.2 
L 985.71 314.665625 
" style="fill:none;stroke:#cccccc;stroke-dasharray:1.85,0.8;stroke-dashoffset:0;stroke-width:0.5;"/>
     </g>
     <g id="line2d_63">
      <g>
       <use style="stroke:#000000;stroke-width:0.8;" x="985.71" xlink:href="#m39fdc13873" y="518.2"/>
      </g>
     </g>
     <g id="text_37">
      <!-- 2 -->
      <g transform="translate(979.98375 538.877187)scale(0.18 -0.18)">
       <use xlink:href="#DejaVuSans-50"/>
      </g>
     </g>
    </g>
    <g id="xtick_22">
     <g id="line2d_64">
      <path clip-path="url(#paf83d39d48)" d="M 1089.37 518.2 
L 1089.37 314.665625 
" style="fill:none;stroke:#cccccc;stroke-dasharray:1.85,0.8;stroke-dashoffset:0;stroke-width:0.5;"/>
     </g>
     <g id="line2d_65">
      <g>
       <use style="stroke:#000000;stroke-width:0.8;" x="1089.37" xlink:href="#m39fdc13873" y="518.2"/>
      </g>
     </g>
     <g id="text_38">
      <!-- 4 -->
      <g transform="translate(1083.64375 538.877187)scale(0.18 -0.18)">
       <use xlink:href="#DejaVuSans-52"/>
      </g>
     </g>
    </g>
    <g id="text_39">
     <!-- $f$ -->
     <g transform="translate(878.81 560.297812)scale(0.18 -0.18)">
      <use transform="translate(0 0.015625)" xlink:href="#DejaVuSans-Oblique-102"/>
     </g>
    </g>
   </g>
   <g id="matplotlib.axis_8">
    <g id="ytick_11">
     <g id="line2d_66">
      <path clip-path="url(#paf83d39d48)" d="M 622.9 508.967862 
L 1141.2 508.967862 
" style="fill:none;stroke:#cccccc;stroke-dasharray:1.85,0.8;stroke-dashoffset:0;stroke-width:0.5;"/>
     </g>
     <g id="line2d_67">
      <g>
       <use style="stroke:#000000;stroke-width:0.8;" x="622.9" xlink:href="#m3584a255ca" y="508.967862"/>
      </g>
     </g>
     <g id="text_40">
      <!-- 0 -->
      <g transform="translate(604.4475 515.806456)scale(0.18 -0.18)">
       <use xlink:href="#DejaVuSans-48"/>
      </g>
     </g>
    </g>
    <g id="ytick_12">
     <g id="line2d_68">
      <path clip-path="url(#paf83d39d48)" d="M 622.9 473.990136 
L 1141.2 473.990136 
" style="fill:none;stroke:#cccccc;stroke-dasharray:1.85,0.8;stroke-dashoffset:0;stroke-width:0.5;"/>
     </g>
     <g id="line2d_69">
      <g>
       <use style="stroke:#000000;stroke-width:0.8;" x="622.9" xlink:href="#m3584a255ca" y="473.990136"/>
      </g>
     </g>
     <g id="text_41">
      <!-- 2 -->
      <g transform="translate(604.4475 480.82873)scale(0.18 -0.18)">
       <use xlink:href="#DejaVuSans-50"/>
      </g>
     </g>
    </g>
    <g id="ytick_13">
     <g id="line2d_70">
      <path clip-path="url(#paf83d39d48)" d="M 622.9 439.012411 
L 1141.2 439.012411 
" style="fill:none;stroke:#cccccc;stroke-dasharray:1.85,0.8;stroke-dashoffset:0;stroke-width:0.5;"/>
     </g>
     <g id="line2d_71">
      <g>
       <use style="stroke:#000000;stroke-width:0.8;" x="622.9" xlink:href="#m3584a255ca" y="439.012411"/>
      </g>
     </g>
     <g id="text_42">
      <!-- 4 -->
      <g transform="translate(604.4475 445.851004)scale(0.18 -0.18)">
       <use xlink:href="#DejaVuSans-52"/>
      </g>
     </g>
    </g>
    <g id="ytick_14">
     <g id="line2d_72">
      <path clip-path="url(#paf83d39d48)" d="M 622.9 404.034685 
L 1141.2 404.034685 
" style="fill:none;stroke:#cccccc;stroke-dasharray:1.85,0.8;stroke-dashoffset:0;stroke-width:0.5;"/>
     </g>
     <g id="line2d_73">
      <g>
       <use style="stroke:#000000;stroke-width:0.8;" x="622.9" xlink:href="#m3584a255ca" y="404.034685"/>
      </g>
     </g>
     <g id="text_43">
      <!-- 6 -->
      <g transform="translate(604.4475 410.873279)scale(0.18 -0.18)">
       <use xlink:href="#DejaVuSans-54"/>
      </g>
     </g>
    </g>
    <g id="ytick_15">
     <g id="line2d_74">
      <path clip-path="url(#paf83d39d48)" d="M 622.9 369.05696 
L 1141.2 369.05696 
" style="fill:none;stroke:#cccccc;stroke-dasharray:1.85,0.8;stroke-dashoffset:0;stroke-width:0.5;"/>
     </g>
     <g id="line2d_75">
      <g>
       <use style="stroke:#000000;stroke-width:0.8;" x="622.9" xlink:href="#m3584a255ca" y="369.05696"/>
      </g>
     </g>
     <g id="text_44">
      <!-- 8 -->
      <g transform="translate(604.4475 375.895553)scale(0.18 -0.18)">
       <use xlink:href="#DejaVuSans-56"/>
      </g>
     </g>
    </g>
    <g id="ytick_16">
     <g id="line2d_76">
      <path clip-path="url(#paf83d39d48)" d="M 622.9 334.079234 
L 1141.2 334.079234 
" style="fill:none;stroke:#cccccc;stroke-dasharray:1.85,0.8;stroke-dashoffset:0;stroke-width:0.5;"/>
     </g>
     <g id="line2d_77">
      <g>
       <use style="stroke:#000000;stroke-width:0.8;" x="622.9" xlink:href="#m3584a255ca" y="334.079234"/>
      </g>
     </g>
     <g id="text_45">
      <!-- 10 -->
      <g transform="translate(592.995 340.917828)scale(0.18 -0.18)">
       <use xlink:href="#DejaVuSans-49"/>
       <use x="63.623047" xlink:href="#DejaVuSans-48"/>
      </g>
     </g>
    </g>
   </g>
   <g id="line2d_78">
    <path clip-path="url(#paf83d39d48)" d="M 622.9 508.948437 
L 623.912305 508.463011 
L 626.063452 507.526202 
L 627.581909 507.083286 
L 628.973828 506.897238 
L 630.365747 506.94384 
L 631.757666 507.218069 
L 633.402661 507.792413 
L 635.680347 508.866739 
L 635.933423 508.933063 
L 639.476489 507.36602 
L 640.994946 506.986351 
L 642.386865 506.86947 
L 643.778784 506.988391 
L 645.170703 507.330386 
L 646.815698 507.9691 
L 648.966846 508.906621 
L 652.130298 507.455343 
L 653.648755 507.016855 
L 655.040674 506.841549 
L 656.432593 506.904878 
L 657.824512 507.200776 
L 659.342969 507.750332 
L 661.494116 508.789692 
L 661.87373 508.937117 
L 665.922949 507.149569 
L 667.314868 506.850852 
L 668.706787 506.78878 
L 670.098706 506.97178 
L 671.490625 507.380806 
L 673.262158 508.155582 
L 674.907153 508.912507 
L 678.323682 507.285381 
L 679.842139 506.856748 
L 681.234058 506.708108 
L 682.499438 506.792933 
L 683.891357 507.12034 
L 685.409814 507.716097 
L 687.560962 508.830275 
L 687.814038 508.937724 
L 688.826343 508.400112 
L 690.97749 507.349547 
L 692.495947 506.845002 
L 693.887866 506.626491 
L 695.153247 506.654715 
L 696.418628 506.898742 
L 697.810547 507.390967 
L 699.58208 508.271566 
L 700.847461 508.92133 
L 702.87207 507.799778 
L 704.643604 507.007701 
L 706.035522 506.62199 
L 707.300903 506.496163 
L 708.566284 506.599129 
L 709.831665 506.92339 
L 711.350122 507.563536 
L 713.374731 508.698071 
L 713.880884 508.902533 
L 715.525879 507.942611 
L 717.297412 507.057204 
L 718.689331 506.59003 
L 719.954712 506.392088 
L 721.220093 506.43132 
L 722.485474 506.7056 
L 723.877393 507.249158 
L 725.648926 508.210749 
L 726.914307 508.885226 
L 727.673535 508.454111 
L 729.951221 507.191959 
L 731.34314 506.657801 
L 732.608521 506.395529 
L 733.873901 506.370736 
L 735.139282 506.583332 
L 736.531201 507.062123 
L 738.302734 507.942128 
L 740.074268 508.806612 
L 740.58042 508.626785 
L 743.23772 507.408066 
L 744.629639 507.05062 
L 745.89502 506.944893 
L 747.286938 507.061608 
L 748.931934 507.442975 
L 751.84231 508.167263 
L 752.601538 508.107147 
L 753.360767 507.838094 
L 754.246533 507.277546 
L 755.1323 506.448611 
L 756.018066 505.314466 
L 756.903833 503.829141 
L 757.916138 501.649303 
L 758.928442 498.912324 
L 760.067285 495.13778 
L 761.332666 490.08158 
L 762.724585 483.534861 
L 764.36958 474.668827 
L 766.773804 460.287179 
L 770.31687 439.135302 
L 771.961865 430.713296 
L 773.227246 425.306346 
L 774.366089 421.411223 
L 775.251855 419.088795 
L 776.011084 417.620474 
L 776.643774 416.776236 
L 777.276465 416.28146 
L 777.782617 416.13777 
L 778.28877 416.216892 
L 778.794922 416.516161 
L 779.427612 417.193622 
L 780.060303 418.198179 
L 780.819531 419.816361 
L 781.705298 422.237352 
L 782.717603 425.642458 
L 783.982983 430.724819 
L 785.50144 437.782059 
L 787.652588 448.931549 
L 793.093726 477.583122 
L 794.991797 486.223878 
L 796.636792 492.745457 
L 798.028711 497.451392 
L 799.294092 501.009544 
L 800.432935 503.567135 
L 801.445239 505.27912 
L 802.204468 506.18687 
L 802.963696 506.747567 
L 803.596387 506.932459 
L 804.102539 506.88504 
L 804.735229 506.56878 
L 805.36792 505.95241 
L 806.00061 505.020349 
L 806.759839 503.463828 
L 807.519067 501.406107 
L 808.404834 498.342401 
L 809.417139 493.93153 
L 810.429443 488.522755 
L 811.568286 481.232986 
L 812.833667 471.663041 
L 814.225586 459.454774 
L 815.870581 443.051244 
L 818.148267 417.813858 
L 822.703638 366.571693 
L 824.348633 350.893474 
L 825.614014 340.819426 
L 826.626318 334.273487 
L 827.512085 329.779858 
L 828.271313 326.909143 
L 828.904004 325.237665 
L 829.410156 324.383345 
L 829.916309 323.963467 
L 830.295923 323.934994 
L 830.675537 324.152 
L 831.055151 324.613547 
L 831.561304 325.606175 
L 832.193994 327.44373 
L 832.953223 330.499382 
L 833.838989 335.182222 
L 834.851294 341.900134 
L 835.990137 351.006868 
L 837.382056 363.985178 
L 839.280127 384.012115 
L 845.480493 451.479526 
L 847.125488 466.233081 
L 848.643945 477.856374 
L 849.909326 485.987128 
L 851.174707 492.710309 
L 852.31355 497.613542 
L 853.452393 501.515491 
L 854.464697 504.229028 
L 855.477002 506.317918 
L 856.362769 507.690988 
L 857.121997 508.493142 
L 857.501611 508.585609 
L 858.007764 508.329828 
L 859.399683 507.58366 
L 860.538525 507.239572 
L 861.803906 507.081851 
L 863.322363 507.117854 
L 865.220435 507.404743 
L 869.775806 508.264463 
L 871.041187 508.120441 
L 874.963867 507.499514 
L 876.7354 507.519798 
L 878.633472 507.788785 
L 882.176538 508.3867 
L 883.315381 508.250432 
L 887.744214 507.495378 
L 889.515747 507.525919 
L 891.413818 507.795813 
L 894.450732 508.266072 
L 895.589575 508.160319 
L 897.740723 507.662579 
L 900.144946 507.188307 
L 901.916479 507.070804 
L 903.308398 507.191311 
L 904.447241 507.487546 
L 905.586084 508.019368 
L 906.724927 508.593841 
L 907.104541 508.396734 
L 907.737231 507.690988 
L 908.622998 506.317918 
L 909.508765 504.522597 
L 910.394531 502.257004 
L 911.406836 499.020564 
L 912.419141 495.019133 
L 913.557983 489.521633 
L 914.696826 482.9057 
L 915.962207 474.205644 
L 917.354126 463.019148 
L 918.999121 447.787347 
L 920.897192 428.018081 
L 927.856787 353.228403 
L 929.248706 341.900134 
L 930.387549 334.442402 
L 931.273315 329.927192 
L 932.032544 327.023881 
L 932.665234 325.317872 
L 933.171387 324.432619 
L 933.677539 323.980084 
L 934.057153 323.926677 
L 934.436768 324.118911 
L 934.816382 324.556334 
L 935.322534 325.518637 
L 935.955225 327.322808 
L 936.714453 330.347777 
L 937.60022 335.011937 
L 938.612524 341.736685 
L 939.751367 350.893474 
L 941.143286 364.000633 
L 942.914819 382.908601 
L 949.747876 458.263996 
L 951.266333 471.663041 
L 952.658252 482.10567 
L 953.923633 489.969435 
L 955.062476 495.701339 
L 956.07478 499.744703 
L 956.960547 502.499081 
L 957.846313 504.555708 
L 958.605542 505.791747 
L 959.238232 506.470016 
L 959.870923 506.845045 
L 960.503613 506.932459 
L 961.136304 506.747567 
L 961.768994 506.305047 
L 962.528223 505.453545 
L 963.413989 504.046582 
L 964.426294 501.932855 
L 965.565137 498.960826 
L 966.830518 494.982315 
L 968.222437 489.857435 
L 969.867432 482.898973 
L 971.765503 473.846189 
L 974.296265 460.584798 
L 978.851636 436.546501 
L 980.496631 429.113554 
L 981.762012 424.29079 
L 982.900854 420.786231 
L 983.786621 418.688677 
L 984.54585 417.368755 
L 985.17854 416.624936 
L 985.81123 416.216892 
L 986.317383 416.13777 
L 986.823535 416.28146 
L 987.329687 416.649254 
L 987.962378 417.423816 
L 988.595068 418.544826 
L 989.354297 420.3373 
L 990.240063 423.020792 
L 991.252368 426.816304 
L 992.517749 432.530972 
L 994.036206 440.542768 
L 996.187354 453.276407 
L 1000.36311 478.204394 
L 1002.008105 486.631364 
L 1003.400024 492.721244 
L 1004.665405 497.32643 
L 1005.804248 500.690009 
L 1006.816553 503.074554 
L 1007.828857 504.927876 
L 1008.841162 506.306344 
L 1009.853467 507.277546 
L 1010.739233 507.838094 
L 1011.625 508.131648 
L 1012.384229 508.158555 
L 1013.523071 507.92971 
L 1017.192676 507.007628 
L 1018.584595 506.954434 
L 1019.849976 507.12365 
L 1021.241895 507.546112 
L 1022.88689 508.300737 
L 1024.025732 508.806612 
L 1024.405347 508.703705 
L 1028.960718 506.583332 
L 1030.226099 506.370736 
L 1031.491479 506.395529 
L 1032.75686 506.657801 
L 1034.148779 507.191959 
L 1035.920312 508.147379 
L 1037.312231 508.878361 
L 1038.197998 508.363448 
L 1040.349146 507.190622 
L 1041.741064 506.668119 
L 1043.006445 506.416607 
L 1044.271826 506.401369 
L 1045.537207 506.622283 
L 1046.929126 507.111005 
L 1048.574121 507.942611 
L 1050.345654 508.907862 
L 1051.737573 508.104413 
L 1053.635645 507.160444 
L 1055.027563 506.703411 
L 1056.292944 506.509835 
L 1057.558325 506.544615 
L 1058.823706 506.802459 
L 1060.215625 507.312331 
L 1061.987158 508.209987 
L 1063.379077 508.909959 
L 1067.048682 507.095913 
L 1068.440601 506.727158 
L 1069.705981 506.611378 
L 1070.971362 506.714304 
L 1072.363281 507.065989 
L 1073.881738 507.685863 
L 1076.4125 508.897424 
L 1079.575952 507.341903 
L 1081.094409 506.884824 
L 1082.486328 506.711441 
L 1083.751709 506.773951 
L 1085.143628 507.075913 
L 1086.662085 507.642034 
L 1088.813232 508.713544 
L 1089.319385 508.936611 
L 1093.495142 507.096197 
L 1094.887061 506.827387 
L 1096.152441 506.792155 
L 1097.54436 506.986097 
L 1099.062817 507.447941 
L 1100.960889 508.295292 
L 1102.352808 508.917685 
L 1105.642798 507.404338 
L 1107.161255 506.986723 
L 1108.553174 506.836704 
L 1109.945093 506.926238 
L 1111.337012 507.244277 
L 1112.982007 507.863365 
L 1115.38623 508.893167 
L 1118.296606 507.550192 
L 1119.815063 507.088422 
L 1121.206982 506.885532 
L 1122.598901 506.916866 
L 1123.99082 507.178309 
L 1125.509277 507.690246 
L 1127.660425 508.683477 
L 1128.293115 508.927448 
L 1131.709644 507.410575 
L 1133.228101 507.018303 
L 1134.62002 506.886962 
L 1136.011938 506.989495 
L 1137.403857 507.314215 
L 1139.048853 507.933057 
L 1141.073462 508.901282 
L 1141.073462 508.901282 
" style="fill:none;stroke:#d62728;stroke-linecap:square;stroke-width:2;"/>
   </g>
   <g id="patch_18">
    <path d="M 622.9 518.2 
L 622.9 314.665625 
" style="fill:none;stroke:#000000;stroke-linecap:square;stroke-linejoin:miter;stroke-width:0.8;"/>
   </g>
   <g id="patch_19">
    <path d="M 1141.2 518.2 
L 1141.2 314.665625 
" style="fill:none;stroke:#000000;stroke-linecap:square;stroke-linejoin:miter;stroke-width:0.8;"/>
   </g>
   <g id="patch_20">
    <path d="M 622.9 518.2 
L 1141.2 518.2 
" style="fill:none;stroke:#000000;stroke-linecap:square;stroke-linejoin:miter;stroke-width:0.8;"/>
   </g>
   <g id="patch_21">
    <path d="M 622.9 314.665625 
L 1141.2 314.665625 
" style="fill:none;stroke:#000000;stroke-linecap:square;stroke-linejoin:miter;stroke-width:0.8;"/>
   </g>
   <g id="text_46">
    <!-- $W[\Omega]$,  N = 40 -->
    <g transform="translate(819.14 308.665625)scale(0.18 -0.18)">
     <use transform="translate(0 0.015625)" xlink:href="#DejaVuSans-Oblique-87"/>
     <use transform="translate(98.876953 0.015625)" xlink:href="#DejaVuSans-91"/>
     <use transform="translate(137.890625 0.015625)" xlink:href="#DejaVuSans-937"/>
     <use transform="translate(214.306641 0.015625)" xlink:href="#DejaVuSans-93"/>
     <use transform="translate(253.320312 0.015625)" xlink:href="#DejaVuSans-44"/>
     <use transform="translate(285.107422 0.015625)" xlink:href="#DejaVuSans-32"/>
     <use transform="translate(316.894531 0.015625)" xlink:href="#DejaVuSans-32"/>
     <use transform="translate(348.681641 0.015625)" xlink:href="#DejaVuSans-78"/>
     <use transform="translate(423.486328 0.015625)" xlink:href="#DejaVuSans-32"/>
     <use transform="translate(455.273438 0.015625)" xlink:href="#DejaVuSans-61"/>
     <use transform="translate(539.0625 0.015625)" xlink:href="#DejaVuSans-32"/>
     <use transform="translate(570.849609 0.015625)" xlink:href="#DejaVuSans-52"/>
     <use transform="translate(634.472656 0.015625)" xlink:href="#DejaVuSans-48"/>
    </g>
   </g>
  </g>
 </g>
 <defs>
  <clipPath id="p42932d1f8b">
   <rect height="203.534375" width="518.3" x="46.55" y="32.065625"/>
  </clipPath>
  <clipPath id="p3173c5d2e8">
   <rect height="203.534375" width="518.3" x="622.9" y="32.065625"/>
  </clipPath>
  <clipPath id="p5b742c6178">
   <rect height="203.534375" width="518.3" x="46.55" y="314.665625"/>
  </clipPath>
  <clipPath id="paf83d39d48">
   <rect height="203.534375" width="518.3" x="622.9" y="314.665625"/>
  </clipPath>
 </defs>
</svg>
