<?xml version="1.0" encoding="utf-8" standalone="no"?>
<!DOCTYPE svg PUBLIC "-//W3C//DTD SVG 1.1//EN"
  "http://www.w3.org/Graphics/SVG/1.1/DTD/svg11.dtd">
<!-- Created with matplotlib (http://matplotlib.org/) -->
<svg height="216pt" version="1.1" viewBox="0 0 1008 216" width="1008pt" xmlns="http://www.w3.org/2000/svg" xmlns:xlink="http://www.w3.org/1999/xlink">
 <defs>
  <style type="text/css">
*{stroke-linecap:butt;stroke-linejoin:round;}
  </style>
 </defs>
 <g id="figure_1">
  <g id="patch_1">
   <path d="
M0 216
L1008 216
L1008 0
L0 0
z
" style="fill:#ffffff;"/>
  </g>
  <g id="axes_1">
   <g id="patch_2">
    <path d="
M126 189
L907.2 189
L907.2 21.6
L126 21.6
z
" style="fill:#eaeaf2;"/>
   </g>
   <g id="matplotlib.axis_1">
    <g id="xtick_1">
     <g id="line2d_1">
      <path clip-path="url(#p9b02606968)" d="
M126 189
L126 21.6" style="fill:none;stroke:#ffffff;stroke-linecap:round;"/>
     </g>
     <g id="line2d_2">
      <defs>
       <path d="
M0 0
L0 0" id="m219da94a98" style="stroke:#262626;"/>
      </defs>
      <g>
       <use style="fill:#262626;stroke:#262626;" x="126.0" xlink:href="#m219da94a98" y="189.0"/>
      </g>
     </g>
     <g id="line2d_3">
      <g>
       <use style="fill:#262626;stroke:#262626;" x="126.0" xlink:href="#m219da94a98" y="21.6"/>
      </g>
     </g>
     <g id="text_1">
      <!-- −10 -->
      <defs>
       <path d="
M4.9375 29.6875
L4.9375 36.8125
L53.5156 36.8125
L53.5156 29.6875
z
" id="LiberationSans-2212"/>
       <path d="
M7.625 0
L7.625 7.46875
L25.1406 7.46875
L25.1406 60.4062
L9.625 49.3125
L9.625 57.625
L25.875 68.7969
L33.9844 68.7969
L33.9844 7.46875
L50.7344 7.46875
L50.7344 0
z
" id="LiberationSans-31"/>
       <path d="
M51.7031 34.4219
Q51.7031 24.5156 49.8281 17.75
Q47.9531 10.9844 44.7031 6.8125
Q41.4531 2.64062 37.0625 0.828125
Q32.6719 -0.984375 27.6875 -0.984375
Q22.6562 -0.984375 18.3125 0.828125
Q13.9688 2.64062 10.7656 6.78125
Q7.5625 10.9375 5.73438 17.7031
Q3.90625 24.4688 3.90625 34.4219
Q3.90625 44.8281 5.73438 51.6406
Q7.5625 58.4531 10.7812 62.5
Q14.0156 66.5469 18.4062 68.1875
Q22.7969 69.8281 27.9844 69.8281
Q32.9062 69.8281 37.2188 68.1875
Q41.5469 66.5469 44.7656 62.5
Q48 58.4531 49.8438 51.6406
Q51.7031 44.8281 51.7031 34.4219
M42.7812 34.4219
Q42.7812 42.625 41.7969 48.0625
Q40.8281 53.5156 38.9219 56.7656
Q37.0156 60.0156 34.25 61.3594
Q31.5 62.7031 27.9844 62.7031
Q24.2656 62.7031 21.4375 61.3281
Q18.6094 59.9688 16.6719 56.7188
Q14.75 53.4688 13.7656 48.0156
Q12.7969 42.5781 12.7969 34.4219
Q12.7969 26.5156 13.7969 21.0938
Q14.7969 15.6719 16.7188 12.375
Q18.6562 9.07812 21.4375 7.64062
Q24.2188 6.20312 27.7812 6.20312
Q31.25 6.20312 34.0312 7.64062
Q36.8125 9.07812 38.7344 12.375
Q40.6719 15.6719 41.7188 21.0938
Q42.7812 26.5156 42.7812 34.4219" id="LiberationSans-30"/>
      </defs>
      <g style="fill:#262626;" transform="translate(109.921875 210.49375)scale(0.2 -0.2)">
       <use xlink:href="#LiberationSans-2212"/>
       <use x="58.3984375" xlink:href="#LiberationSans-31"/>
       <use x="114.013671875" xlink:href="#LiberationSans-30"/>
      </g>
     </g>
    </g>
    <g id="xtick_2">
     <g id="line2d_4">
      <path clip-path="url(#p9b02606968)" d="
M331.579 189
L331.579 21.6" style="fill:none;stroke:#ffffff;stroke-linecap:round;"/>
     </g>
     <g id="line2d_5">
      <g>
       <use style="fill:#262626;stroke:#262626;" x="331.578947368" xlink:href="#m219da94a98" y="189.0"/>
      </g>
     </g>
     <g id="line2d_6">
      <g>
       <use style="fill:#262626;stroke:#262626;" x="331.578947368" xlink:href="#m219da94a98" y="21.6"/>
      </g>
     </g>
     <g id="text_2">
      <!-- −5 -->
      <defs>
       <path d="
M51.4219 22.4062
Q51.4219 17.2344 49.8594 12.9375
Q48.2969 8.64062 45.2188 5.53125
Q42.1406 2.4375 37.5781 0.71875
Q33.0156 -0.984375 27 -0.984375
Q21.5781 -0.984375 17.5469 0.28125
Q13.5312 1.5625 10.7344 3.78125
Q7.95312 6 6.3125 8.98438
Q4.6875 11.9688 4 15.375
L12.8906 16.4062
Q13.4219 14.4531 14.3906 12.625
Q15.375 10.7969 17.0625 9.34375
Q18.75 7.90625 21.2188 7.04688
Q23.6875 6.20312 27.2031 6.20312
Q30.6094 6.20312 33.3906 7.25
Q36.1875 8.29688 38.1562 10.3438
Q40.1406 12.4062 41.2031 15.375
Q42.2812 18.3594 42.2812 22.2188
Q42.2812 25.3906 41.25 28.0469
Q40.2344 30.7188 38.3281 32.6406
Q36.4219 34.5781 33.6562 35.6406
Q30.9062 36.7188 27.3906 36.7188
Q25.2031 36.7188 23.3438 36.3281
Q21.4844 35.9375 19.8906 35.25
Q18.3125 34.5781 17.0156 33.6719
Q15.7188 32.7656 14.5938 31.7812
L6 31.7812
L8.29688 68.7969
L47.4062 68.7969
L47.4062 61.3281
L16.3125 61.3281
L14.9844 39.5
Q17.3281 41.3125 20.8438 42.5938
Q24.3594 43.8906 29.2031 43.8906
Q34.3281 43.8906 38.4219 42.3281
Q42.5312 40.7656 45.4062 37.9062
Q48.2969 35.0625 49.8594 31.1094
Q51.4219 27.1562 51.4219 22.4062" id="LiberationSans-35"/>
      </defs>
      <g style="fill:#262626;" transform="translate(321.089884868 210.49375)scale(0.2 -0.2)">
       <use xlink:href="#LiberationSans-2212"/>
       <use x="58.3984375" xlink:href="#LiberationSans-35"/>
      </g>
     </g>
    </g>
    <g id="xtick_3">
     <g id="line2d_7">
      <path clip-path="url(#p9b02606968)" d="
M537.158 189
L537.158 21.6" style="fill:none;stroke:#ffffff;stroke-linecap:round;"/>
     </g>
     <g id="line2d_8">
      <g>
       <use style="fill:#262626;stroke:#262626;" x="537.157894737" xlink:href="#m219da94a98" y="189.0"/>
      </g>
     </g>
     <g id="line2d_9">
      <g>
       <use style="fill:#262626;stroke:#262626;" x="537.157894737" xlink:href="#m219da94a98" y="21.6"/>
      </g>
     </g>
     <g id="text_3">
      <!-- 0 -->
      <g style="fill:#262626;" transform="translate(532.378207237 210.49375)scale(0.2 -0.2)">
       <use xlink:href="#LiberationSans-30"/>
      </g>
     </g>
    </g>
    <g id="xtick_4">
     <g id="line2d_10">
      <path clip-path="url(#p9b02606968)" d="
M742.737 189
L742.737 21.6" style="fill:none;stroke:#ffffff;stroke-linecap:round;"/>
     </g>
     <g id="line2d_11">
      <g>
       <use style="fill:#262626;stroke:#262626;" x="742.736842105" xlink:href="#m219da94a98" y="189.0"/>
      </g>
     </g>
     <g id="line2d_12">
      <g>
       <use style="fill:#262626;stroke:#262626;" x="742.736842105" xlink:href="#m219da94a98" y="21.6"/>
      </g>
     </g>
     <g id="text_4">
      <!-- 5 -->
      <g style="fill:#262626;" transform="translate(737.994654605 210.49375)scale(0.2 -0.2)">
       <use xlink:href="#LiberationSans-35"/>
      </g>
     </g>
    </g>
    <g id="text_5">
     <!-- Time -->
     <defs>
      <path d="
M37.5 0
L37.5 33.5
Q37.5 37.3594 37.0156 39.9375
Q36.5312 42.5312 35.375 44.1094
Q34.2344 45.7031 32.375 46.3594
Q30.5156 47.0156 27.8281 47.0156
Q25.0469 47.0156 22.7969 45.9219
Q20.5625 44.8281 18.9688 42.75
Q17.3906 40.6719 16.5312 37.625
Q15.6719 34.5781 15.6719 30.6094
L15.6719 0
L6.9375 0
L6.9375 41.5469
Q6.9375 43.2188 6.90625 45.0469
Q6.89062 46.875 6.82812 48.5
Q6.78125 50.1406 6.73438 51.3125
Q6.6875 52.4844 6.64062 52.8281
L14.9375 52.8281
Q14.9844 52.5938 15.0312 51.5156
Q15.0938 50.4375 15.1562 49.0469
Q15.2344 47.6562 15.2812 46.2188
Q15.3281 44.7812 15.3281 43.7969
L15.4844 43.7969
Q16.6562 46.0938 18.0156 47.9531
Q19.3906 49.8125 21.2188 51.0938
Q23.0469 52.3906 25.4062 53.0938
Q27.7812 53.8125 30.9062 53.8125
Q36.9219 53.8125 40.4062 51.4219
Q43.8906 49.0312 45.2656 43.7969
L45.4062 43.7969
Q46.5781 46.0938 48.0469 47.9531
Q49.5156 49.8125 51.4688 51.0938
Q53.4219 52.3906 55.8594 53.0938
Q58.2969 53.8125 61.4219 53.8125
Q65.4375 53.8125 68.3281 52.7344
Q71.2344 51.6562 73.0938 49.4062
Q74.9531 47.1719 75.8281 43.625
Q76.7031 40.0938 76.7031 35.2031
L76.7031 0
L68.0156 0
L68.0156 33.5
Q68.0156 37.3594 67.5312 39.9375
Q67.0469 42.5312 65.8906 44.1094
Q64.75 45.7031 62.8906 46.3594
Q61.0312 47.0156 58.3438 47.0156
Q55.5625 47.0156 53.3125 45.9688
Q51.0781 44.9219 49.4844 42.875
Q47.9062 40.8281 47.0469 37.75
Q46.1875 34.6719 46.1875 30.6094
L46.1875 0
z
" id="LiberationSans-6d"/>
      <path d="
M35.1562 61.1875
L35.1562 0
L25.875 0
L25.875 61.1875
L2.25 61.1875
L2.25 68.7969
L58.7969 68.7969
L58.7969 61.1875
z
" id="LiberationSans-54"/>
      <path d="
M6.6875 64.0625
L6.6875 72.4688
L15.4844 72.4688
L15.4844 64.0625
z

M6.6875 0
L6.6875 52.8281
L15.4844 52.8281
L15.4844 0
z
" id="LiberationSans-69"/>
      <path d="
M13.4844 24.5625
Q13.4844 20.4062 14.3281 16.9062
Q15.1875 13.4219 16.9688 10.9062
Q18.75 8.40625 21.5312 7
Q24.3125 5.60938 28.2188 5.60938
Q33.9375 5.60938 37.375 7.90625
Q40.8281 10.2031 42.0469 13.7188
L49.75 11.5312
Q48.9219 9.32812 47.4375 7.10938
Q45.9531 4.89062 43.4531 3.09375
Q40.9688 1.3125 37.2344 0.15625
Q33.5 -0.984375 28.2188 -0.984375
Q16.5 -0.984375 10.375 6
Q4.25 12.9844 4.25 26.7656
Q4.25 34.1875 6.09375 39.3281
Q7.95312 44.4844 11.1719 47.7031
Q14.4062 50.9219 18.7031 52.3594
Q23 53.8125 27.875 53.8125
Q34.5156 53.8125 38.9844 51.6562
Q43.4531 49.5156 46.1562 45.7188
Q48.875 41.9375 50.0156 36.8125
Q51.1719 31.6875 51.1719 25.7344
L51.1719 24.5625
z

M42.0938 31.2969
Q41.3594 39.6562 37.8438 43.4844
Q34.3281 47.3125 27.7344 47.3125
Q25.5312 47.3125 23.1094 46.6094
Q20.7031 45.9062 18.6562 44.0938
Q16.6094 42.2812 15.1875 39.1719
Q13.7656 36.0781 13.5781 31.2969
z
" id="LiberationSans-65"/>
     </defs>
     <g style="fill:#262626;" transform="translate(495.4234375 234.1375)scale(0.2 -0.2)">
      <use xlink:href="#LiberationSans-54"/>
      <use x="57.333984375" xlink:href="#LiberationSans-69"/>
      <use x="79.55078125" xlink:href="#LiberationSans-6d"/>
      <use x="162.8515625" xlink:href="#LiberationSans-65"/>
     </g>
    </g>
   </g>
   <g id="matplotlib.axis_2">
    <g id="ytick_1">
     <g id="line2d_13">
      <path clip-path="url(#p9b02606968)" d="
M126 175.05
L907.2 175.05" style="fill:none;stroke:#ffffff;stroke-linecap:round;"/>
     </g>
     <g id="line2d_14">
      <g>
       <use style="fill:#262626;stroke:#262626;" x="126.0" xlink:href="#m219da94a98" y="175.05"/>
      </g>
     </g>
     <g id="line2d_15">
      <g>
       <use style="fill:#262626;stroke:#262626;" x="907.2" xlink:href="#m219da94a98" y="175.05"/>
      </g>
     </g>
     <g id="text_6">
      <!-- 0.0 -->
      <defs>
       <path d="
M9.125 0
L9.125 10.6875
L18.6562 10.6875
L18.6562 0
z
" id="LiberationSans-2e"/>
      </defs>
      <g style="fill:#262626;" transform="translate(92.7625 180.221875)scale(0.2 -0.2)">
       <use xlink:href="#LiberationSans-30"/>
       <use x="55.615234375" xlink:href="#LiberationSans-2e"/>
       <use x="83.3984375" xlink:href="#LiberationSans-30"/>
      </g>
     </g>
    </g>
    <g id="ytick_2">
     <g id="line2d_16">
      <path clip-path="url(#p9b02606968)" d="
M126 147.15
L907.2 147.15" style="fill:none;stroke:#ffffff;stroke-linecap:round;"/>
     </g>
     <g id="line2d_17">
      <g>
       <use style="fill:#262626;stroke:#262626;" x="126.0" xlink:href="#m219da94a98" y="147.15"/>
      </g>
     </g>
     <g id="line2d_18">
      <g>
       <use style="fill:#262626;stroke:#262626;" x="907.2" xlink:href="#m219da94a98" y="147.15"/>
      </g>
     </g>
     <g id="text_7">
      <!-- 0.2 -->
      <defs>
       <path d="
M5.03125 0
L5.03125 6.20312
Q7.51562 11.9219 11.1094 16.2812
Q14.7031 20.6562 18.6562 24.1875
Q22.6094 27.7344 26.4844 30.7656
Q30.375 33.7969 33.5 36.8125
Q36.625 39.8438 38.5469 43.1562
Q40.4844 46.4844 40.4844 50.6875
Q40.4844 53.6094 39.5938 55.8281
Q38.7188 58.0625 37.0625 59.5625
Q35.4062 61.0781 33.0781 61.8281
Q30.7656 62.5938 27.9375 62.5938
Q25.2969 62.5938 22.9688 61.8594
Q20.6562 61.1406 18.8438 59.6719
Q17.0469 58.2031 15.8906 56.0312
Q14.75 53.8594 14.4062 50.9844
L5.42188 51.8125
Q5.85938 55.5156 7.46875 58.7812
Q9.07812 62.0625 11.9062 64.5312
Q14.75 67 18.7188 68.4062
Q22.7031 69.8281 27.9375 69.8281
Q33.0625 69.8281 37.0625 68.6094
Q41.0625 67.3906 43.8125 64.9844
Q46.5781 62.5938 48.0469 59.0781
Q49.5156 55.5625 49.5156 50.9844
Q49.5156 47.5156 48.2656 44.3906
Q47.0156 41.2656 44.9375 38.4219
Q42.875 35.5938 40.1406 32.9531
Q37.4062 30.3281 34.4219 27.8125
Q31.4531 25.2969 28.4219 22.8281
Q25.3906 20.3594 22.7188 17.8594
Q20.0625 15.375 17.9688 12.8125
Q15.875 10.25 14.7031 7.46875
L50.5938 7.46875
L50.5938 0
z
" id="LiberationSans-32"/>
      </defs>
      <g style="fill:#262626;" transform="translate(92.984375 152.321875)scale(0.2 -0.2)">
       <use xlink:href="#LiberationSans-30"/>
       <use x="55.615234375" xlink:href="#LiberationSans-2e"/>
       <use x="83.3984375" xlink:href="#LiberationSans-32"/>
      </g>
     </g>
    </g>
    <g id="ytick_3">
     <g id="line2d_19">
      <path clip-path="url(#p9b02606968)" d="
M126 119.25
L907.2 119.25" style="fill:none;stroke:#ffffff;stroke-linecap:round;"/>
     </g>
     <g id="line2d_20">
      <g>
       <use style="fill:#262626;stroke:#262626;" x="126.0" xlink:href="#m219da94a98" y="119.25"/>
      </g>
     </g>
     <g id="line2d_21">
      <g>
       <use style="fill:#262626;stroke:#262626;" x="907.2" xlink:href="#m219da94a98" y="119.25"/>
      </g>
     </g>
     <g id="text_8">
      <!-- 0.4 -->
      <defs>
       <path d="
M43.0156 15.5781
L43.0156 0
L34.7188 0
L34.7188 15.5781
L2.29688 15.5781
L2.29688 22.4062
L33.7969 68.7969
L43.0156 68.7969
L43.0156 22.5156
L52.6875 22.5156
L52.6875 15.5781
z

M34.7188 58.8906
Q34.625 58.6406 34.2344 57.9375
Q33.8438 57.2344 33.3438 56.3438
Q32.8594 55.4688 32.3438 54.5625
Q31.8438 53.6562 31.4531 53.0781
L13.8125 27.0938
Q13.5781 26.7031 13.1094 26.0625
Q12.6406 25.4375 12.1562 24.7812
Q11.6719 24.125 11.1719 23.4844
Q10.6875 22.8594 10.4062 22.5156
L34.7188 22.5156
z
" id="LiberationSans-34"/>
      </defs>
      <g style="fill:#262626;" transform="translate(92.565625 124.421875)scale(0.2 -0.2)">
       <use xlink:href="#LiberationSans-30"/>
       <use x="55.615234375" xlink:href="#LiberationSans-2e"/>
       <use x="83.3984375" xlink:href="#LiberationSans-34"/>
      </g>
     </g>
    </g>
    <g id="ytick_4">
     <g id="line2d_22">
      <path clip-path="url(#p9b02606968)" d="
M126 91.35
L907.2 91.35" style="fill:none;stroke:#ffffff;stroke-linecap:round;"/>
     </g>
     <g id="line2d_23">
      <g>
       <use style="fill:#262626;stroke:#262626;" x="126.0" xlink:href="#m219da94a98" y="91.35"/>
      </g>
     </g>
     <g id="line2d_24">
      <g>
       <use style="fill:#262626;stroke:#262626;" x="907.2" xlink:href="#m219da94a98" y="91.35"/>
      </g>
     </g>
     <g id="text_9">
      <!-- 0.6 -->
      <defs>
       <path d="
M51.2188 22.5156
Q51.2188 17.3281 49.7812 13
Q48.3438 8.6875 45.5312 5.57812
Q42.7188 2.48438 38.5625 0.75
Q34.4219 -0.984375 29 -0.984375
Q23 -0.984375 18.5 1.3125
Q14.0156 3.60938 11.0312 7.92188
Q8.0625 12.25 6.5625 18.5312
Q5.07812 24.8125 5.07812 32.8125
Q5.07812 42 6.76562 48.9219
Q8.45312 55.8594 11.625 60.5
Q14.7969 65.1406 19.3594 67.4844
Q23.9219 69.8281 29.6875 69.8281
Q33.2031 69.8281 36.2812 69.0938
Q39.3594 68.3594 41.875 66.7188
Q44.3906 65.0938 46.2812 62.4062
Q48.1875 59.7188 49.3125 55.8125
L40.9219 54.2969
Q39.5469 58.7344 36.5469 60.7188
Q33.5469 62.7031 29.5938 62.7031
Q25.9844 62.7031 23.0469 60.9844
Q20.125 59.2812 18.0625 55.875
Q16.0156 52.4844 14.9062 47.3594
Q13.8125 42.2344 13.8125 35.4062
Q16.2188 39.8438 20.5625 42.1562
Q24.9062 44.4844 30.5156 44.4844
Q35.2031 44.4844 39.0156 42.9688
Q42.8281 41.4531 45.5312 38.5938
Q48.25 35.75 49.7344 31.6719
Q51.2188 27.5938 51.2188 22.5156
M42.2812 22.125
Q42.2812 25.6875 41.4062 28.5625
Q40.5312 31.4531 38.7656 33.4688
Q37.0156 35.5 34.4219 36.5938
Q31.8438 37.7031 28.4219 37.7031
Q26.0312 37.7031 23.5781 36.9844
Q21.1406 36.2812 19.1562 34.6875
Q17.1875 33.1094 15.9375 30.5156
Q14.7031 27.9375 14.7031 24.2188
Q14.7031 20.4062 15.6719 17.1094
Q16.6562 13.8125 18.4844 11.375
Q20.3125 8.9375 22.8906 7.51562
Q25.4844 6.10938 28.7188 6.10938
Q31.8906 6.10938 34.4062 7.20312
Q36.9219 8.29688 38.6719 10.375
Q40.4375 12.4531 41.3594 15.4219
Q42.2812 18.4062 42.2812 22.125" id="LiberationSans-36"/>
      </defs>
      <g style="fill:#262626;" transform="translate(92.859375 96.521875)scale(0.2 -0.2)">
       <use xlink:href="#LiberationSans-30"/>
       <use x="55.615234375" xlink:href="#LiberationSans-2e"/>
       <use x="83.3984375" xlink:href="#LiberationSans-36"/>
      </g>
     </g>
    </g>
    <g id="ytick_5">
     <g id="line2d_25">
      <path clip-path="url(#p9b02606968)" d="
M126 63.45
L907.2 63.45" style="fill:none;stroke:#ffffff;stroke-linecap:round;"/>
     </g>
     <g id="line2d_26">
      <g>
       <use style="fill:#262626;stroke:#262626;" x="126.0" xlink:href="#m219da94a98" y="63.45"/>
      </g>
     </g>
     <g id="line2d_27">
      <g>
       <use style="fill:#262626;stroke:#262626;" x="907.2" xlink:href="#m219da94a98" y="63.45"/>
      </g>
     </g>
     <g id="text_10">
      <!-- 0.8 -->
      <defs>
       <path d="
M51.2656 19.1875
Q51.2656 14.7969 49.875 11.1094
Q48.4844 7.42188 45.625 4.73438
Q42.7812 2.04688 38.3281 0.53125
Q33.8906 -0.984375 27.8281 -0.984375
Q21.7812 -0.984375 17.3594 0.53125
Q12.9375 2.04688 10.0312 4.70312
Q7.125 7.375 5.73438 11.0625
Q4.34375 14.75 4.34375 19.0938
Q4.34375 22.8594 5.48438 25.7812
Q6.64062 28.7188 8.5625 30.8281
Q10.5 32.9531 12.9688 34.25
Q15.4375 35.5469 18.0625 35.9844
L18.0625 36.1875
Q15.1875 36.8594 12.9062 38.375
Q10.6406 39.8906 9.09375 42.0156
Q7.5625 44.1406 6.75 46.7188
Q5.95312 49.3125 5.95312 52.2031
Q5.95312 55.8125 7.34375 59
Q8.73438 62.2031 11.4688 64.625
Q14.2031 67.0469 18.25 68.4375
Q22.3125 69.8281 27.6406 69.8281
Q33.25 69.8281 37.375 68.4062
Q41.5 67 44.2031 64.5781
Q46.9219 62.1562 48.2344 58.9375
Q49.5625 55.7188 49.5625 52.0938
Q49.5625 49.2656 48.75 46.6719
Q47.9531 44.0938 46.4062 41.9688
Q44.875 39.8438 42.5938 38.3438
Q40.3281 36.8594 37.3594 36.2812
L37.3594 36.0781
Q40.3281 35.5938 42.8594 34.2969
Q45.4062 33.0156 47.2656 30.8906
Q49.125 28.7656 50.1875 25.8281
Q51.2656 22.9062 51.2656 19.1875
M40.4375 51.6094
Q40.4375 54.2031 39.7656 56.3438
Q39.1094 58.5 37.5938 60.0312
Q36.0781 61.5781 33.6406 62.4219
Q31.2031 63.2812 27.6406 63.2812
Q24.1719 63.2812 21.7812 62.4219
Q19.3906 61.5781 17.8438 60.0312
Q16.3125 58.5 15.625 56.3438
Q14.9375 54.2031 14.9375 51.6094
Q14.9375 49.5625 15.4688 47.4062
Q16.0156 45.2656 17.4219 43.5
Q18.8438 41.75 21.3281 40.625
Q23.8281 39.5 27.7344 39.5
Q31.8906 39.5 34.4062 40.625
Q36.9219 41.75 38.25 43.5
Q39.5938 45.2656 40.0156 47.4062
Q40.4375 49.5625 40.4375 51.6094
M42.1406 20.0156
Q42.1406 22.5156 41.4531 24.8281
Q40.7656 27.1562 39.1094 28.9375
Q37.4531 30.7188 34.6406 31.8125
Q31.8438 32.9062 27.6406 32.9062
Q23.7812 32.9062 21.0625 31.8125
Q18.3594 30.7188 16.6719 28.9062
Q14.9844 27.0938 14.2031 24.7188
Q13.4219 22.3594 13.4219 19.8281
Q13.4219 16.6562 14.2031 14.0312
Q14.9844 11.4219 16.6875 9.54688
Q18.4062 7.67188 21.1875 6.64062
Q23.9688 5.60938 27.9375 5.60938
Q31.9375 5.60938 34.6719 6.64062
Q37.4062 7.67188 39.0625 9.54688
Q40.7188 11.4219 41.4219 14.0781
Q42.1406 16.75 42.1406 20.0156" id="LiberationSans-38"/>
      </defs>
      <g style="fill:#262626;" transform="translate(92.85 68.621875)scale(0.2 -0.2)">
       <use xlink:href="#LiberationSans-30"/>
       <use x="55.615234375" xlink:href="#LiberationSans-2e"/>
       <use x="83.3984375" xlink:href="#LiberationSans-38"/>
      </g>
     </g>
    </g>
    <g id="ytick_6">
     <g id="line2d_28">
      <path clip-path="url(#p9b02606968)" d="
M126 35.55
L907.2 35.55" style="fill:none;stroke:#ffffff;stroke-linecap:round;"/>
     </g>
     <g id="line2d_29">
      <g>
       <use style="fill:#262626;stroke:#262626;" x="126.0" xlink:href="#m219da94a98" y="35.55"/>
      </g>
     </g>
     <g id="line2d_30">
      <g>
       <use style="fill:#262626;stroke:#262626;" x="907.2" xlink:href="#m219da94a98" y="35.55"/>
      </g>
     </g>
     <g id="text_11">
      <!-- 1.0 -->
      <g style="fill:#262626;" transform="translate(93.50625 40.721875)scale(0.2 -0.2)">
       <use xlink:href="#LiberationSans-31"/>
       <use x="55.615234375" xlink:href="#LiberationSans-2e"/>
       <use x="83.3984375" xlink:href="#LiberationSans-30"/>
      </g>
     </g>
    </g>
   </g>
   <g id="line2d_31">
    <defs>
     <path d="
M0 3.5
C0.928211 3.5 1.81853 3.13122 2.47487 2.47487
C3.13122 1.81853 3.5 0.928211 3.5 0
C3.5 -0.928211 3.13122 -1.81853 2.47487 -2.47487
C1.81853 -3.13122 0.928211 -3.5 0 -3.5
C-0.928211 -3.5 -1.81853 -3.13122 -2.47487 -2.47487
C-3.13122 -1.81853 -3.5 -0.928211 -3.5 0
C-3.5 0.928211 -3.13122 1.81853 -2.47487 2.47487
C-1.81853 3.13122 -0.928211 3.5 0 3.5
z
" id="m1709273626"/>
    </defs>
    <g clip-path="url(#p9b02606968)">
     <use style="fill:#0000ff;" x="126.0" xlink:href="#m1709273626" y="175.05"/>
     <use style="fill:#0000ff;" x="167.115789474" xlink:href="#m1709273626" y="175.05"/>
     <use style="fill:#0000ff;" x="208.231578947" xlink:href="#m1709273626" y="175.05"/>
     <use style="fill:#0000ff;" x="249.347368421" xlink:href="#m1709273626" y="175.05"/>
     <use style="fill:#0000ff;" x="290.463157895" xlink:href="#m1709273626" y="175.05"/>
     <use style="fill:#0000ff;" x="331.578947368" xlink:href="#m1709273626" y="175.05"/>
     <use style="fill:#0000ff;" x="372.694736842" xlink:href="#m1709273626" y="175.05"/>
     <use style="fill:#0000ff;" x="413.810526316" xlink:href="#m1709273626" y="175.05"/>
     <use style="fill:#0000ff;" x="454.926315789" xlink:href="#m1709273626" y="175.05"/>
     <use style="fill:#0000ff;" x="496.042105263" xlink:href="#m1709273626" y="175.05"/>
     <use style="fill:#0000ff;" x="537.157894737" xlink:href="#m1709273626" y="35.55"/>
     <use style="fill:#0000ff;" x="578.273684211" xlink:href="#m1709273626" y="175.05"/>
     <use style="fill:#0000ff;" x="619.389473684" xlink:href="#m1709273626" y="175.05"/>
     <use style="fill:#0000ff;" x="660.505263158" xlink:href="#m1709273626" y="175.05"/>
     <use style="fill:#0000ff;" x="701.621052632" xlink:href="#m1709273626" y="175.05"/>
     <use style="fill:#0000ff;" x="742.736842105" xlink:href="#m1709273626" y="175.05"/>
     <use style="fill:#0000ff;" x="783.852631579" xlink:href="#m1709273626" y="175.05"/>
     <use style="fill:#0000ff;" x="824.968421053" xlink:href="#m1709273626" y="175.05"/>
     <use style="fill:#0000ff;" x="866.084210526" xlink:href="#m1709273626" y="175.05"/>
     <use style="fill:#0000ff;" x="907.2" xlink:href="#m1709273626" y="175.05"/>
    </g>
   </g>
   <g id="line2d_32">
    <path clip-path="url(#p9b02606968)" d="
M126 175.05
L126 175.05" style="fill:none;stroke:#0000ff;stroke-linecap:round;stroke-width:1.75;"/>
   </g>
   <g id="line2d_33">
    <path clip-path="url(#p9b02606968)" d="
M167.116 175.05
L167.116 175.05" style="fill:none;stroke:#0000ff;stroke-linecap:round;stroke-width:1.75;"/>
   </g>
   <g id="line2d_34">
    <path clip-path="url(#p9b02606968)" d="
M208.232 175.05
L208.232 175.05" style="fill:none;stroke:#0000ff;stroke-linecap:round;stroke-width:1.75;"/>
   </g>
   <g id="line2d_35">
    <path clip-path="url(#p9b02606968)" d="
M249.347 175.05
L249.347 175.05" style="fill:none;stroke:#0000ff;stroke-linecap:round;stroke-width:1.75;"/>
   </g>
   <g id="line2d_36">
    <path clip-path="url(#p9b02606968)" d="
M290.463 175.05
L290.463 175.05" style="fill:none;stroke:#0000ff;stroke-linecap:round;stroke-width:1.75;"/>
   </g>
   <g id="line2d_37">
    <path clip-path="url(#p9b02606968)" d="
M331.579 175.05
L331.579 175.05" style="fill:none;stroke:#0000ff;stroke-linecap:round;stroke-width:1.75;"/>
   </g>
   <g id="line2d_38">
    <path clip-path="url(#p9b02606968)" d="
M372.695 175.05
L372.695 175.05" style="fill:none;stroke:#0000ff;stroke-linecap:round;stroke-width:1.75;"/>
   </g>
   <g id="line2d_39">
    <path clip-path="url(#p9b02606968)" d="
M413.811 175.05
L413.811 175.05" style="fill:none;stroke:#0000ff;stroke-linecap:round;stroke-width:1.75;"/>
   </g>
   <g id="line2d_40">
    <path clip-path="url(#p9b02606968)" d="
M454.926 175.05
L454.926 175.05" style="fill:none;stroke:#0000ff;stroke-linecap:round;stroke-width:1.75;"/>
   </g>
   <g id="line2d_41">
    <path clip-path="url(#p9b02606968)" d="
M496.042 175.05
L496.042 175.05" style="fill:none;stroke:#0000ff;stroke-linecap:round;stroke-width:1.75;"/>
   </g>
   <g id="line2d_42">
    <path clip-path="url(#p9b02606968)" d="
M537.158 175.05
L537.158 35.55" style="fill:none;stroke:#0000ff;stroke-linecap:round;stroke-width:1.75;"/>
   </g>
   <g id="line2d_43">
    <path clip-path="url(#p9b02606968)" d="
M578.274 175.05
L578.274 175.05" style="fill:none;stroke:#0000ff;stroke-linecap:round;stroke-width:1.75;"/>
   </g>
   <g id="line2d_44">
    <path clip-path="url(#p9b02606968)" d="
M619.389 175.05
L619.389 175.05" style="fill:none;stroke:#0000ff;stroke-linecap:round;stroke-width:1.75;"/>
   </g>
   <g id="line2d_45">
    <path clip-path="url(#p9b02606968)" d="
M660.505 175.05
L660.505 175.05" style="fill:none;stroke:#0000ff;stroke-linecap:round;stroke-width:1.75;"/>
   </g>
   <g id="line2d_46">
    <path clip-path="url(#p9b02606968)" d="
M701.621 175.05
L701.621 175.05" style="fill:none;stroke:#0000ff;stroke-linecap:round;stroke-width:1.75;"/>
   </g>
   <g id="line2d_47">
    <path clip-path="url(#p9b02606968)" d="
M742.737 175.05
L742.737 175.05" style="fill:none;stroke:#0000ff;stroke-linecap:round;stroke-width:1.75;"/>
   </g>
   <g id="line2d_48">
    <path clip-path="url(#p9b02606968)" d="
M783.853 175.05
L783.853 175.05" style="fill:none;stroke:#0000ff;stroke-linecap:round;stroke-width:1.75;"/>
   </g>
   <g id="line2d_49">
    <path clip-path="url(#p9b02606968)" d="
M824.968 175.05
L824.968 175.05" style="fill:none;stroke:#0000ff;stroke-linecap:round;stroke-width:1.75;"/>
   </g>
   <g id="line2d_50">
    <path clip-path="url(#p9b02606968)" d="
M866.084 175.05
L866.084 175.05" style="fill:none;stroke:#0000ff;stroke-linecap:round;stroke-width:1.75;"/>
   </g>
   <g id="line2d_51">
    <path clip-path="url(#p9b02606968)" d="
M907.2 175.05
L907.2 175.05" style="fill:none;stroke:#0000ff;stroke-linecap:round;stroke-width:1.75;"/>
   </g>
   <g id="line2d_52">
    <path clip-path="url(#p9b02606968)" d="
M126 175.05
L907.2 175.05" style="fill:none;stroke:#ff0000;stroke-linecap:round;stroke-width:1.75;"/>
   </g>
   <g id="patch_3">
    <path d="
M126 21.6
L907.2 21.6" style="fill:none;"/>
   </g>
   <g id="patch_4">
    <path d="
M907.2 189
L907.2 21.6" style="fill:none;"/>
   </g>
   <g id="patch_5">
    <path d="
M126 189
L907.2 189" style="fill:none;"/>
   </g>
   <g id="patch_6">
    <path d="
M126 189
L126 21.6" style="fill:none;"/>
   </g>
   <g id="legend_1">
    <g id="line2d_53">
     <g>
      <use style="fill:#0000ff;" x="800.679980469" xlink:href="#m1709273626" y="52.94375"/>
     </g>
    </g>
    <g id="line2d_54">
     <path d="
M800.68 64.975
L800.68 52.9437" style="fill:none;stroke:#0000ff;stroke-linecap:round;stroke-width:1.75;"/>
    </g>
    <g id="line2d_55">
     <path d="
M775.68 64.975
L825.68 64.975" style="fill:none;stroke:#ff0000;stroke-linecap:round;stroke-width:1.75;"/>
    </g>
    <g id="text_12">
     <!-- $\delta[n]$ -->
     <defs>
      <path d="
M2.20312 -25
L2.20312 -21
L11.9219 -21
L11.9219 71
L2.20312 71
L2.20312 75
L15.9219 75
L15.9219 -25
z
" id="Cmr10-5d"/>
      <path d="
M7.71875 1.70312
Q7.71875 2.29688 7.8125 2.59375
L15.2812 32.4219
Q16.0156 35.2031 16.0156 37.3125
Q16.0156 41.6094 13.0938 41.6094
Q9.96875 41.6094 8.45312 37.8594
Q6.9375 34.125 5.51562 28.4219
Q5.51562 28.125 5.21875 27.9531
Q4.9375 27.7812 4.6875 27.7812
L3.51562 27.7812
Q3.17188 27.7812 2.92188 28.1406
Q2.6875 28.5156 2.6875 28.8125
Q3.76562 33.1562 4.76562 36.1719
Q5.76562 39.2031 7.89062 41.6875
Q10.0156 44.1875 13.1875 44.1875
Q16.9375 44.1875 19.8125 41.8125
Q22.7031 39.4531 22.7031 35.7969
Q25.6875 39.7031 29.6875 41.9375
Q33.6875 44.1875 38.1875 44.1875
Q41.75 44.1875 44.3281 42.9688
Q46.9219 41.75 48.3594 39.2812
Q49.8125 36.8125 49.8125 33.4062
Q49.8125 29.2969 47.9688 23.4844
Q46.1406 17.6719 43.4062 10.5
Q42 7.23438 42 4.5
Q42 1.51562 44.2812 1.51562
Q48.1875 1.51562 50.7969 5.70312
Q53.4219 9.90625 54.5 14.7031
Q54.6875 15.2812 55.3281 15.2812
L56.5 15.2812
Q56.8906 15.2812 57.1562 15.0312
Q57.4219 14.7969 57.4219 14.4062
Q57.4219 14.3125 57.3281 14.1094
Q55.9531 8.45312 52.5625 3.65625
Q49.1719 -1.125 44.0938 -1.125
Q40.5781 -1.125 38.0781 1.29688
Q35.5938 3.71875 35.5938 7.17188
Q35.5938 9.03125 36.375 11.0781
Q37.6406 14.3594 39.2812 18.8906
Q40.9219 23.4375 41.9688 27.5781
Q43.0156 31.7344 43.0156 34.9062
Q43.0156 37.7031 41.8594 39.6562
Q40.7188 41.6094 37.9844 41.6094
Q34.3281 41.6094 31.25 39.9844
Q28.1719 38.375 25.875 35.7188
Q23.5781 33.0625 21.6875 29.3906
L14.8906 2.20312
Q14.5469 0.828125 13.3438 -0.140625
Q12.1562 -1.125 10.6875 -1.125
Q9.46875 -1.125 8.59375 -0.34375
Q7.71875 0.4375 7.71875 1.70312" id="Cmmi10-6e"/>
      <path d="
M20.0156 -1.51562
Q16.5469 -1.51562 13.5625 -0.21875
Q10.5938 1.07812 8.375 3.51562
Q6.15625 5.95312 5.07812 8.95312
Q4 11.9688 4 15.4844
Q4 21.7344 6.95312 27.6094
Q9.90625 33.5 15.0156 37.7969
Q20.125 42.0938 26.125 43.6094
Q23.1875 49.0312 21.6562 52.9531
Q20.125 56.8906 20.125 60.9844
Q20.125 64.0156 21.5312 66.3281
Q22.9531 68.6562 25.4375 69.9688
Q27.9375 71.2969 31 71.2969
Q33.9844 71.2969 42.8281 69.2812
Q45.125 68.75 45.125 66.6094
Q45.125 64.9375 43.8906 63.5625
Q42.6719 62.2031 41.0156 62.2031
Q39.7969 62.2031 38.8125 62.7656
Q37.8438 63.3281 35.7344 64.7344
Q33.6406 66.1562 31.9844 66.9062
Q30.3281 67.6719 28.5156 67.6719
Q26.4688 67.6719 24.8281 66.4219
Q23.1875 65.1875 23.1875 63.1875
Q23.1875 60.0156 26 55.8906
Q28.8125 51.7656 33.9844 45.3125
Q39.8906 37.7969 39.8906 28.7188
Q39.8906 24.2188 38.5938 18.9844
Q37.3125 13.7656 34.8438 9.125
Q32.375 4.5 28.5312 1.48438
Q24.7031 -1.51562 20.0156 -1.51562
M20.2188 1.21875
Q24.125 1.21875 26.9219 5.26562
Q29.7344 9.32812 31.1719 14.9219
Q32.625 20.5156 32.625 24.3125
Q32.625 31.7812 27.3906 41.1094
Q22.125 39.6562 18.3125 34.9688
Q14.5 30.2812 12.5469 24.1719
Q10.5938 18.0625 10.5938 12.5938
Q10.5938 7.8125 13.0781 4.51562
Q15.5781 1.21875 20.2188 1.21875" id="Cmmi10-b1"/>
      <path d="
M11.8125 -25
L11.8125 75
L25.4844 75
L25.4844 71
L15.8281 71
L15.8281 -21
L25.4844 -21
L25.4844 -25
z
" id="Cmr10-5b"/>
     </defs>
     <g style="fill:#262626;" transform="translate(845.679980469 64.975)scale(0.25 -0.25)">
      <use xlink:href="#Cmmi10-b1"/>
      <use transform="translate(44.384765625 0.0)" xlink:href="#Cmr10-5b"/>
      <use transform="translate(72.0703125 0.0)" xlink:href="#Cmmi10-6e"/>
      <use transform="translate(132.080078125 0.0)" xlink:href="#Cmr10-5d"/>
     </g>
    </g>
   </g>
  </g>
 </g>
 <defs>
  <clipPath id="p9b02606968">
   <rect height="167.4" width="781.2" x="126.0" y="21.6"/>
  </clipPath>
 </defs>
</svg>
