<?xml version="1.0" encoding="UTF-8" standalone="no"?>
<!-- Created with matplotlib (http://matplotlib.org/) -->

<svg
   xmlns:dc="http://purl.org/dc/elements/1.1/"
   xmlns:cc="http://creativecommons.org/ns#"
   xmlns:rdf="http://www.w3.org/1999/02/22-rdf-syntax-ns#"
   xmlns:svg="http://www.w3.org/2000/svg"
   xmlns="http://www.w3.org/2000/svg"
   xmlns:xlink="http://www.w3.org/1999/xlink"
   xmlns:sodipodi="http://sodipodi.sourceforge.net/DTD/sodipodi-0.dtd"
   xmlns:inkscape="http://www.inkscape.org/namespaces/inkscape"
   height="216pt"
   version="1.1"
   viewBox="0 0 1152 216"
   width="1152pt"
   id="svg2"
   inkscape:version="0.48.4 r9939"
   sodipodi:docname="ft_rect_sinc.svg">
  <metadata
     id="metadata736">
    <rdf:RDF>
      <cc:Work
         rdf:about="">
        <dc:format>image/svg+xml</dc:format>
        <dc:type
           rdf:resource="http://purl.org/dc/dcmitype/StillImage" />
      </cc:Work>
    </rdf:RDF>
  </metadata>
  <sodipodi:namedview
     pagecolor="#ffffff"
     bordercolor="#666666"
     borderopacity="1"
     objecttolerance="10"
     gridtolerance="10"
     guidetolerance="10"
     inkscape:pageopacity="0"
     inkscape:pageshadow="2"
     inkscape:window-width="1335"
     inkscape:window-height="750"
     id="namedview734"
     showgrid="false"
     inkscape:zoom="0.66944444"
     inkscape:cx="577.51786"
     inkscape:cy="95.885851"
     inkscape:window-x="31"
     inkscape:window-y="18"
     inkscape:window-maximized="1"
     inkscape:current-layer="figure_1" />
  <defs
     id="defs4">
    <style
       type="text/css"
       id="style6">
*{stroke-linecap:butt;stroke-linejoin:round;}
  </style>
  </defs>
  <g
     id="figure_1">
    <g
       id="g3713">
      <g
         id="axes_1">
        <g
           id="patch_2">
          <path
             id="path14"
             style="fill:#eaeaf2;"
             d=" M144 189 L549.818 189 L549.818 21.6 L144 21.6 z " />
        </g>
        <g
           id="matplotlib.axis_1">
          <g
             id="xtick_1">
            <g
               id="line2d_1">
              <path
                 id="path19"
                 style="fill:none;stroke:#ffffff;stroke-linecap:round;"
                 d=" M184.586 189 L184.586 21.6"
                 clip-path="url(#p1b72ccf5f4)" />
            </g>
            <g
               id="line2d_2">
              <defs
                 id="defs22">
                <path
                   style="stroke:#262626;"
                   id="m219da94a98"
                   d=" M0 0 L0 0" />
              </defs>
              <g
                 id="g25">
                <use
                   id="use27"
                   y="189.0"
                   xlink:href="#m219da94a98"
                   x="184.585876769"
                   style="fill:#262626;stroke:#262626;" />
              </g>
            </g>
            <g
               id="line2d_3">
              <g
                 id="g30">
                <use
                   id="use32"
                   y="21.6"
                   xlink:href="#m219da94a98"
                   x="184.585876769"
                   style="fill:#262626;stroke:#262626;" />
              </g>
            </g>
            <g
               id="text_1">
              <!-- −4 -->
              <defs
                 id="defs35">
                <path
                   id="LiberationSans-2212"
                   d=" M4.9375 29.6875 L4.9375 36.8125 L53.5156 36.8125 L53.5156 29.6875 z " />
                <path
                   id="LiberationSans-34"
                   d=" M43.0156 15.5781 L43.0156 0 L34.7188 0 L34.7188 15.5781 L2.29688 15.5781 L2.29688 22.4062 L33.7969 68.7969 L43.0156 68.7969 L43.0156 22.5156 L52.6875 22.5156 L52.6875 15.5781 z  M34.7188 58.8906 Q34.625 58.6406 34.2344 57.9375 Q33.8438 57.2344 33.3438 56.3438 Q32.8594 55.4688 32.3438 54.5625 Q31.8438 53.6562 31.4531 53.0781 L13.8125 27.0938 Q13.5781 26.7031 13.1094 26.0625 Q12.6406 25.4375 12.1562 24.7812 Q11.6719 24.125 11.1719 23.4844 Q10.6875 22.8594 10.4062 22.5156 L34.7188 22.5156 z " />
              </defs>
              <g
                 id="g39"
                 transform="translate(173.970251769 210.49375)scale(0.2 -0.2)"
                 style="fill:#262626;">
                <use
                   id="use41"
                   xlink:href="#LiberationSans-2212" />
                <use
                   id="use43"
                   xlink:href="#LiberationSans-34"
                   x="58.3984375" />
              </g>
            </g>
          </g>
          <g
             id="xtick_2">
            <g
               id="line2d_4">
              <path
                 id="path47"
                 style="fill:none;stroke:#ffffff;stroke-linecap:round;"
                 d=" M265.758 189 L265.758 21.6"
                 clip-path="url(#p1b72ccf5f4)" />
            </g>
            <g
               id="line2d_5">
              <g
                 id="g50">
                <use
                   id="use52"
                   y="189.0"
                   xlink:href="#m219da94a98"
                   x="265.757630308"
                   style="fill:#262626;stroke:#262626;" />
              </g>
            </g>
            <g
               id="line2d_6">
              <g
                 id="g55">
                <use
                   id="use57"
                   y="21.6"
                   xlink:href="#m219da94a98"
                   x="265.757630308"
                   style="fill:#262626;stroke:#262626;" />
              </g>
            </g>
            <g
               id="text_2">
              <!-- −2 -->
              <defs
                 id="defs60">
                <path
                   id="LiberationSans-32"
                   d=" M5.03125 0 L5.03125 6.20312 Q7.51562 11.9219 11.1094 16.2812 Q14.7031 20.6562 18.6562 24.1875 Q22.6094 27.7344 26.4844 30.7656 Q30.375 33.7969 33.5 36.8125 Q36.625 39.8438 38.5469 43.1562 Q40.4844 46.4844 40.4844 50.6875 Q40.4844 53.6094 39.5938 55.8281 Q38.7188 58.0625 37.0625 59.5625 Q35.4062 61.0781 33.0781 61.8281 Q30.7656 62.5938 27.9375 62.5938 Q25.2969 62.5938 22.9688 61.8594 Q20.6562 61.1406 18.8438 59.6719 Q17.0469 58.2031 15.8906 56.0312 Q14.75 53.8594 14.4062 50.9844 L5.42188 51.8125 Q5.85938 55.5156 7.46875 58.7812 Q9.07812 62.0625 11.9062 64.5312 Q14.75 67 18.7188 68.4062 Q22.7031 69.8281 27.9375 69.8281 Q33.0625 69.8281 37.0625 68.6094 Q41.0625 67.3906 43.8125 64.9844 Q46.5781 62.5938 48.0469 59.0781 Q49.5156 55.5625 49.5156 50.9844 Q49.5156 47.5156 48.2656 44.3906 Q47.0156 41.2656 44.9375 38.4219 Q42.875 35.5938 40.1406 32.9531 Q37.4062 30.3281 34.4219 27.8125 Q31.4531 25.2969 28.4219 22.8281 Q25.3906 20.3594 22.7188 17.8594 Q20.0625 15.375 17.9688 12.8125 Q15.875 10.25 14.7031 7.46875 L50.5938 7.46875 L50.5938 0 z " />
              </defs>
              <g
                 id="g63"
                 transform="translate(255.351380308 210.49375)scale(0.2 -0.2)"
                 style="fill:#262626;">
                <use
                   id="use65"
                   xlink:href="#LiberationSans-2212" />
                <use
                   id="use67"
                   xlink:href="#LiberationSans-32"
                   x="58.3984375" />
              </g>
            </g>
          </g>
          <g
             id="xtick_3">
            <g
               id="line2d_7">
              <path
                 id="path71"
                 style="fill:none;stroke:#ffffff;stroke-linecap:round;"
                 d=" M346.929 189 L346.929 21.6"
                 clip-path="url(#p1b72ccf5f4)" />
            </g>
            <g
               id="line2d_8">
              <g
                 id="g74">
                <use
                   id="use76"
                   y="189.0"
                   xlink:href="#m219da94a98"
                   x="346.929383847"
                   style="fill:#262626;stroke:#262626;" />
              </g>
            </g>
            <g
               id="line2d_9">
              <g
                 id="g79">
                <use
                   id="use81"
                   y="21.6"
                   xlink:href="#m219da94a98"
                   x="346.929383847"
                   style="fill:#262626;stroke:#262626;" />
              </g>
            </g>
            <g
               id="text_3">
              <!-- 0 -->
              <defs
                 id="defs84">
                <path
                   id="LiberationSans-30"
                   d=" M51.7031 34.4219 Q51.7031 24.5156 49.8281 17.75 Q47.9531 10.9844 44.7031 6.8125 Q41.4531 2.64062 37.0625 0.828125 Q32.6719 -0.984375 27.6875 -0.984375 Q22.6562 -0.984375 18.3125 0.828125 Q13.9688 2.64062 10.7656 6.78125 Q7.5625 10.9375 5.73438 17.7031 Q3.90625 24.4688 3.90625 34.4219 Q3.90625 44.8281 5.73438 51.6406 Q7.5625 58.4531 10.7812 62.5 Q14.0156 66.5469 18.4062 68.1875 Q22.7969 69.8281 27.9844 69.8281 Q32.9062 69.8281 37.2188 68.1875 Q41.5469 66.5469 44.7656 62.5 Q48 58.4531 49.8438 51.6406 Q51.7031 44.8281 51.7031 34.4219 M42.7812 34.4219 Q42.7812 42.625 41.7969 48.0625 Q40.8281 53.5156 38.9219 56.7656 Q37.0156 60.0156 34.25 61.3594 Q31.5 62.7031 27.9844 62.7031 Q24.2656 62.7031 21.4375 61.3281 Q18.6094 59.9688 16.6719 56.7188 Q14.75 53.4688 13.7656 48.0156 Q12.7969 42.5781 12.7969 34.4219 Q12.7969 26.5156 13.7969 21.0938 Q14.7969 15.6719 16.7188 12.375 Q18.6562 9.07812 21.4375 7.64062 Q24.2188 6.20312 27.7812 6.20312 Q31.25 6.20312 34.0312 7.64062 Q36.8125 9.07812 38.7344 12.375 Q40.6719 15.6719 41.7188 21.0938 Q42.7812 26.5156 42.7812 34.4219" />
              </defs>
              <g
                 id="g87"
                 transform="translate(342.149696347 210.49375)scale(0.2 -0.2)"
                 style="fill:#262626;">
                <use
                   id="use89"
                   xlink:href="#LiberationSans-30" />
              </g>
            </g>
          </g>
          <g
             id="xtick_4">
            <g
               id="line2d_10">
              <path
                 id="path93"
                 style="fill:none;stroke:#ffffff;stroke-linecap:round;"
                 d=" M428.101 189 L428.101 21.6"
                 clip-path="url(#p1b72ccf5f4)" />
            </g>
            <g
               id="line2d_11">
              <g
                 id="g96">
                <use
                   id="use98"
                   y="189.0"
                   xlink:href="#m219da94a98"
                   x="428.101137386"
                   style="fill:#262626;stroke:#262626;" />
              </g>
            </g>
            <g
               id="line2d_12">
              <g
                 id="g101">
                <use
                   id="use103"
                   y="21.6"
                   xlink:href="#m219da94a98"
                   x="428.101137386"
                   style="fill:#262626;stroke:#262626;" />
              </g>
            </g>
            <g
               id="text_4">
              <!-- 2 -->
              <g
                 id="g106"
                 transform="translate(423.544887386 210.49375)scale(0.2 -0.2)"
                 style="fill:#262626;">
                <use
                   id="use108"
                   xlink:href="#LiberationSans-32" />
              </g>
            </g>
          </g>
          <g
             id="xtick_5">
            <g
               id="line2d_13">
              <path
                 id="path112"
                 style="fill:none;stroke:#ffffff;stroke-linecap:round;"
                 d=" M509.273 189 L509.273 21.6"
                 clip-path="url(#p1b72ccf5f4)" />
            </g>
            <g
               id="line2d_14">
              <g
                 id="g115">
                <use
                   id="use117"
                   y="189.0"
                   xlink:href="#m219da94a98"
                   x="509.272890925"
                   style="fill:#262626;stroke:#262626;" />
              </g>
            </g>
            <g
               id="line2d_15">
              <g
                 id="g120">
                <use
                   id="use122"
                   y="21.6"
                   xlink:href="#m219da94a98"
                   x="509.272890925"
                   style="fill:#262626;stroke:#262626;" />
              </g>
            </g>
            <g
               id="text_5">
              <!-- 4 -->
              <g
                 id="g125"
                 transform="translate(504.233828425 210.49375)scale(0.2 -0.2)"
                 style="fill:#262626;">
                <use
                   id="use127"
                   xlink:href="#LiberationSans-34" />
              </g>
            </g>
          </g>
          <g
             id="text_6">
            <!-- Time (sec) -->
            <defs
               id="defs130">
              <path
                 id="LiberationSans-73"
                 d=" M46.3906 14.5938 Q46.3906 10.8906 44.9375 7.98438 Q43.5 5.07812 40.7656 3.09375 Q38.0312 1.125 34.0469 0.0625 Q30.0781 -0.984375 24.9531 -0.984375 Q20.3594 -0.984375 16.6719 -0.265625 Q12.9844 0.4375 10.2031 2 Q7.42188 3.5625 5.53125 6.125 Q3.65625 8.6875 2.78125 12.4062 L10.5469 13.9219 Q11.6719 9.67188 15.1875 7.6875 Q18.7031 5.71875 24.9531 5.71875 Q27.7812 5.71875 30.1406 6.10938 Q32.5156 6.5 34.2188 7.45312 Q35.9375 8.40625 36.8906 9.98438 Q37.8438 11.5781 37.8438 13.9219 Q37.8438 16.3125 36.7188 17.8438 Q35.5938 19.3906 33.5938 20.4062 Q31.5938 21.4375 28.7344 22.1875 Q25.875 22.9531 22.4688 23.875 Q19.2812 24.7031 16.1562 25.7344 Q13.0312 26.7656 10.5156 28.4375 Q8.01562 30.125 6.45312 32.6094 Q4.89062 35.1094 4.89062 38.875 Q4.89062 46.0938 10.0312 49.875 Q15.1875 53.6562 25.0469 53.6562 Q33.7969 53.6562 38.9375 50.5781 Q44.0938 47.5156 45.4531 40.7188 L37.5469 39.75 Q37.1094 41.7969 35.9375 43.1875 Q34.7656 44.5781 33.1094 45.4375 Q31.4531 46.2969 29.375 46.6562 Q27.2969 47.0156 25.0469 47.0156 Q19.0938 47.0156 16.25 45.2031 Q13.4219 43.4062 13.4219 39.75 Q13.4219 37.5938 14.4688 36.2031 Q15.5312 34.8125 17.4062 33.8594 Q19.2812 32.9062 21.9219 32.2031 Q24.5625 31.5 27.7344 30.7188 Q29.8281 30.1719 32.0312 29.5625 Q34.2344 28.9531 36.2969 28.0938 Q38.375 27.25 40.2031 26.0938 Q42.0469 24.9531 43.4062 23.3438 Q44.7812 21.7344 45.5781 19.5781 Q46.3906 17.4375 46.3906 14.5938" />
              <path
                 id="LiberationSans-28"
                 d=" M6.20312 25.9844 Q6.20312 32.7656 7.21875 38.9688 Q8.25 45.1719 10.4375 50.875 Q12.6406 56.5938 16.0625 61.9531 Q19.4844 67.3281 24.2188 72.4688 L32.7188 72.4688 Q28.125 67.3281 24.7812 61.9375 Q21.4375 56.5469 19.2812 50.7969 Q17.1406 45.0625 16.0938 38.8594 Q15.0469 32.6719 15.0469 25.875 Q15.0469 19.0938 16.0938 12.8906 Q17.1406 6.6875 19.2812 0.921875 Q21.4375 -4.82812 24.7812 -10.2031 Q28.125 -15.5781 32.7188 -20.7031 L24.2188 -20.7031 Q19.4844 -15.5781 16.0625 -10.2031 Q12.6406 -4.82812 10.4375 0.875 Q8.25 6.59375 7.21875 12.7656 Q6.20312 18.9531 6.20312 25.7812 z " />
              <path
                 id="LiberationSans-65"
                 d=" M13.4844 24.5625 Q13.4844 20.4062 14.3281 16.9062 Q15.1875 13.4219 16.9688 10.9062 Q18.75 8.40625 21.5312 7 Q24.3125 5.60938 28.2188 5.60938 Q33.9375 5.60938 37.375 7.90625 Q40.8281 10.2031 42.0469 13.7188 L49.75 11.5312 Q48.9219 9.32812 47.4375 7.10938 Q45.9531 4.89062 43.4531 3.09375 Q40.9688 1.3125 37.2344 0.15625 Q33.5 -0.984375 28.2188 -0.984375 Q16.5 -0.984375 10.375 6 Q4.25 12.9844 4.25 26.7656 Q4.25 34.1875 6.09375 39.3281 Q7.95312 44.4844 11.1719 47.7031 Q14.4062 50.9219 18.7031 52.3594 Q23 53.8125 27.875 53.8125 Q34.5156 53.8125 38.9844 51.6562 Q43.4531 49.5156 46.1562 45.7188 Q48.875 41.9375 50.0156 36.8125 Q51.1719 31.6875 51.1719 25.7344 L51.1719 24.5625 z  M42.0938 31.2969 Q41.3594 39.6562 37.8438 43.4844 Q34.3281 47.3125 27.7344 47.3125 Q25.5312 47.3125 23.1094 46.6094 Q20.7031 45.9062 18.6562 44.0938 Q16.6094 42.2812 15.1875 39.1719 Q13.7656 36.0781 13.5781 31.2969 z " />
              <path
                 id="LiberationSans-63"
                 d=" M13.4219 26.6562 Q13.4219 22.125 14.0781 18.3125 Q14.75 14.5 16.3125 11.7344 Q17.875 8.98438 20.4375 7.46875 Q23 5.95312 26.7656 5.95312 Q31.4531 5.95312 34.5938 8.48438 Q37.75 11.0312 38.4844 16.3125 L47.3594 15.7188 Q46.9219 12.4531 45.4531 9.42188 Q44 6.39062 41.4844 4.09375 Q38.9688 1.8125 35.3438 0.40625 Q31.7344 -0.984375 27 -0.984375 Q20.7969 -0.984375 16.4531 1.10938 Q12.1094 3.21875 9.39062 6.90625 Q6.6875 10.5938 5.46875 15.5938 Q4.25 20.6094 4.25 26.4688 Q4.25 31.7812 5.125 35.8594 Q6 39.9375 7.59375 42.9844 Q9.1875 46.0469 11.3281 48.125 Q13.4844 50.2031 15.9844 51.4375 Q18.5 52.6875 21.2812 53.25 Q24.0781 53.8125 26.9062 53.8125 Q31.3438 53.8125 34.8125 52.5938 Q38.2812 51.375 40.7969 49.25 Q43.3125 47.125 44.875 44.2344 Q46.4375 41.3594 47.0781 38.0312 L38.0312 37.3594 Q37.3594 41.75 34.5625 44.3281 Q31.7812 46.9219 26.6562 46.9219 Q22.9062 46.9219 20.3906 45.6719 Q17.875 44.4375 16.3125 41.9219 Q14.75 39.4062 14.0781 35.5938 Q13.4219 31.7812 13.4219 26.6562" />
              <path
                 id="LiberationSans-69"
                 d=" M6.6875 64.0625 L6.6875 72.4688 L15.4844 72.4688 L15.4844 64.0625 z  M6.6875 0 L6.6875 52.8281 L15.4844 52.8281 L15.4844 0 z " />
              <path
                 id="LiberationSans-6d"
                 d=" M37.5 0 L37.5 33.5 Q37.5 37.3594 37.0156 39.9375 Q36.5312 42.5312 35.375 44.1094 Q34.2344 45.7031 32.375 46.3594 Q30.5156 47.0156 27.8281 47.0156 Q25.0469 47.0156 22.7969 45.9219 Q20.5625 44.8281 18.9688 42.75 Q17.3906 40.6719 16.5312 37.625 Q15.6719 34.5781 15.6719 30.6094 L15.6719 0 L6.9375 0 L6.9375 41.5469 Q6.9375 43.2188 6.90625 45.0469 Q6.89062 46.875 6.82812 48.5 Q6.78125 50.1406 6.73438 51.3125 Q6.6875 52.4844 6.64062 52.8281 L14.9375 52.8281 Q14.9844 52.5938 15.0312 51.5156 Q15.0938 50.4375 15.1562 49.0469 Q15.2344 47.6562 15.2812 46.2188 Q15.3281 44.7812 15.3281 43.7969 L15.4844 43.7969 Q16.6562 46.0938 18.0156 47.9531 Q19.3906 49.8125 21.2188 51.0938 Q23.0469 52.3906 25.4062 53.0938 Q27.7812 53.8125 30.9062 53.8125 Q36.9219 53.8125 40.4062 51.4219 Q43.8906 49.0312 45.2656 43.7969 L45.4062 43.7969 Q46.5781 46.0938 48.0469 47.9531 Q49.5156 49.8125 51.4688 51.0938 Q53.4219 52.3906 55.8594 53.0938 Q58.2969 53.8125 61.4219 53.8125 Q65.4375 53.8125 68.3281 52.7344 Q71.2344 51.6562 73.0938 49.4062 Q74.9531 47.1719 75.8281 43.625 Q76.7031 40.0938 76.7031 35.2031 L76.7031 0 L68.0156 0 L68.0156 33.5 Q68.0156 37.3594 67.5312 39.9375 Q67.0469 42.5312 65.8906 44.1094 Q64.75 45.7031 62.8906 46.3594 Q61.0312 47.0156 58.3438 47.0156 Q55.5625 47.0156 53.3125 45.9688 Q51.0781 44.9219 49.4844 42.875 Q47.9062 40.8281 47.0469 37.75 Q46.1875 34.6719 46.1875 30.6094 L46.1875 0 z " />
              <path
                 id="LiberationSans-29"
                 d=" M27.0938 25.7812 Q27.0938 18.9531 26.0625 12.7656 Q25.0469 6.59375 22.8438 0.875 Q20.6562 -4.82812 17.2344 -10.2031 Q13.8125 -15.5781 9.07812 -20.7031 L0.59375 -20.7031 Q5.17188 -15.5781 8.51562 -10.2031 Q11.8594 -4.82812 14 0.921875 Q16.1562 6.6875 17.2031 12.8906 Q18.2656 19.0938 18.2656 25.875 Q18.2656 32.6719 17.2031 38.8594 Q16.1562 45.0625 14 50.7969 Q11.8594 56.5469 8.51562 61.9375 Q5.17188 67.3281 0.59375 72.4688 L9.07812 72.4688 Q13.8125 67.3281 17.2344 61.9531 Q20.6562 56.5938 22.8438 50.875 Q25.0469 45.1719 26.0625 38.9688 Q27.0938 32.7656 27.0938 25.9844 z " />
              <path
                 id="LiberationSans-20" />
              <path
                 id="LiberationSans-54"
                 d=" M35.1562 61.1875 L35.1562 0 L25.875 0 L25.875 61.1875 L2.25 61.1875 L2.25 68.7969 L58.7969 68.7969 L58.7969 61.1875 z " />
            </defs>
            <g
               id="g141"
               transform="translate(300.685653409 234.1375)scale(0.2 -0.2)"
               style="fill:#262626;">
              <use
                 id="use143"
                 xlink:href="#LiberationSans-54" />
              <use
                 id="use145"
                 xlink:href="#LiberationSans-69"
                 x="57.333984375" />
              <use
                 id="use147"
                 xlink:href="#LiberationSans-6d"
                 x="79.55078125" />
              <use
                 id="use149"
                 xlink:href="#LiberationSans-65"
                 x="162.8515625" />
              <use
                 id="use151"
                 xlink:href="#LiberationSans-20"
                 x="218.466796875" />
              <use
                 id="use153"
                 xlink:href="#LiberationSans-28"
                 x="246.25" />
              <use
                 id="use155"
                 xlink:href="#LiberationSans-73"
                 x="279.55078125" />
              <use
                 id="use157"
                 xlink:href="#LiberationSans-65"
                 x="329.55078125" />
              <use
                 id="use159"
                 xlink:href="#LiberationSans-63"
                 x="385.166015625" />
              <use
                 id="use161"
                 xlink:href="#LiberationSans-29"
                 x="435.166015625" />
            </g>
          </g>
        </g>
        <g
           id="matplotlib.axis_2">
          <g
             id="ytick_1">
            <g
               id="line2d_16">
              <path
                 id="path166"
                 style="fill:none;stroke:#ffffff;stroke-linecap:round;"
                 d=" M144 175.05 L549.818 175.05"
                 clip-path="url(#p1b72ccf5f4)" />
            </g>
            <g
               id="line2d_17">
              <g
                 id="g169">
                <use
                   id="use171"
                   y="175.05"
                   xlink:href="#m219da94a98"
                   x="144.0"
                   style="fill:#262626;stroke:#262626;" />
              </g>
            </g>
            <g
               id="line2d_18">
              <g
                 id="g174">
                <use
                   id="use176"
                   y="175.05"
                   xlink:href="#m219da94a98"
                   x="549.818181818"
                   style="fill:#262626;stroke:#262626;" />
              </g>
            </g>
            <g
               id="text_7">
              <!-- 0.0 -->
              <defs
                 id="defs179">
                <path
                   id="LiberationSans-2e"
                   d=" M9.125 0 L9.125 10.6875 L18.6562 10.6875 L18.6562 0 z " />
              </defs>
              <g
                 id="g182"
                 transform="translate(110.7625 180.221875)scale(0.2 -0.2)"
                 style="fill:#262626;">
                <use
                   id="use184"
                   xlink:href="#LiberationSans-30" />
                <use
                   id="use186"
                   xlink:href="#LiberationSans-2e"
                   x="55.615234375" />
                <use
                   id="use188"
                   xlink:href="#LiberationSans-30"
                   x="83.3984375" />
              </g>
            </g>
          </g>
          <g
             id="ytick_2">
            <g
               id="line2d_19">
              <path
                 id="path192"
                 style="fill:none;stroke:#ffffff;stroke-linecap:round;"
                 d=" M144 147.15 L549.818 147.15"
                 clip-path="url(#p1b72ccf5f4)" />
            </g>
            <g
               id="line2d_20">
              <g
                 id="g195">
                <use
                   id="use197"
                   y="147.15"
                   xlink:href="#m219da94a98"
                   x="144.0"
                   style="fill:#262626;stroke:#262626;" />
              </g>
            </g>
            <g
               id="line2d_21">
              <g
                 id="g200">
                <use
                   id="use202"
                   y="147.15"
                   xlink:href="#m219da94a98"
                   x="549.818181818"
                   style="fill:#262626;stroke:#262626;" />
              </g>
            </g>
            <g
               id="text_8">
              <!-- 0.2 -->
              <g
                 id="g205"
                 transform="translate(110.984375 152.321875)scale(0.2 -0.2)"
                 style="fill:#262626;">
                <use
                   id="use207"
                   xlink:href="#LiberationSans-30" />
                <use
                   id="use209"
                   xlink:href="#LiberationSans-2e"
                   x="55.615234375" />
                <use
                   id="use211"
                   xlink:href="#LiberationSans-32"
                   x="83.3984375" />
              </g>
            </g>
          </g>
          <g
             id="ytick_3">
            <g
               id="line2d_22">
              <path
                 id="path215"
                 style="fill:none;stroke:#ffffff;stroke-linecap:round;"
                 d=" M144 119.25 L549.818 119.25"
                 clip-path="url(#p1b72ccf5f4)" />
            </g>
            <g
               id="line2d_23">
              <g
                 id="g218">
                <use
                   id="use220"
                   y="119.25"
                   xlink:href="#m219da94a98"
                   x="144.0"
                   style="fill:#262626;stroke:#262626;" />
              </g>
            </g>
            <g
               id="line2d_24">
              <g
                 id="g223">
                <use
                   id="use225"
                   y="119.25"
                   xlink:href="#m219da94a98"
                   x="549.818181818"
                   style="fill:#262626;stroke:#262626;" />
              </g>
            </g>
            <g
               id="text_9">
              <!-- 0.4 -->
              <g
                 id="g228"
                 transform="translate(110.565625 124.421875)scale(0.2 -0.2)"
                 style="fill:#262626;">
                <use
                   id="use230"
                   xlink:href="#LiberationSans-30" />
                <use
                   id="use232"
                   xlink:href="#LiberationSans-2e"
                   x="55.615234375" />
                <use
                   id="use234"
                   xlink:href="#LiberationSans-34"
                   x="83.3984375" />
              </g>
            </g>
          </g>
          <g
             id="ytick_4">
            <g
               id="line2d_25">
              <path
                 id="path238"
                 style="fill:none;stroke:#ffffff;stroke-linecap:round;"
                 d=" M144 91.35 L549.818 91.35"
                 clip-path="url(#p1b72ccf5f4)" />
            </g>
            <g
               id="line2d_26">
              <g
                 id="g241">
                <use
                   id="use243"
                   y="91.35"
                   xlink:href="#m219da94a98"
                   x="144.0"
                   style="fill:#262626;stroke:#262626;" />
              </g>
            </g>
            <g
               id="line2d_27">
              <g
                 id="g246">
                <use
                   id="use248"
                   y="91.35"
                   xlink:href="#m219da94a98"
                   x="549.818181818"
                   style="fill:#262626;stroke:#262626;" />
              </g>
            </g>
            <g
               id="text_10">
              <!-- 0.6 -->
              <defs
                 id="defs251">
                <path
                   id="LiberationSans-36"
                   d=" M51.2188 22.5156 Q51.2188 17.3281 49.7812 13 Q48.3438 8.6875 45.5312 5.57812 Q42.7188 2.48438 38.5625 0.75 Q34.4219 -0.984375 29 -0.984375 Q23 -0.984375 18.5 1.3125 Q14.0156 3.60938 11.0312 7.92188 Q8.0625 12.25 6.5625 18.5312 Q5.07812 24.8125 5.07812 32.8125 Q5.07812 42 6.76562 48.9219 Q8.45312 55.8594 11.625 60.5 Q14.7969 65.1406 19.3594 67.4844 Q23.9219 69.8281 29.6875 69.8281 Q33.2031 69.8281 36.2812 69.0938 Q39.3594 68.3594 41.875 66.7188 Q44.3906 65.0938 46.2812 62.4062 Q48.1875 59.7188 49.3125 55.8125 L40.9219 54.2969 Q39.5469 58.7344 36.5469 60.7188 Q33.5469 62.7031 29.5938 62.7031 Q25.9844 62.7031 23.0469 60.9844 Q20.125 59.2812 18.0625 55.875 Q16.0156 52.4844 14.9062 47.3594 Q13.8125 42.2344 13.8125 35.4062 Q16.2188 39.8438 20.5625 42.1562 Q24.9062 44.4844 30.5156 44.4844 Q35.2031 44.4844 39.0156 42.9688 Q42.8281 41.4531 45.5312 38.5938 Q48.25 35.75 49.7344 31.6719 Q51.2188 27.5938 51.2188 22.5156 M42.2812 22.125 Q42.2812 25.6875 41.4062 28.5625 Q40.5312 31.4531 38.7656 33.4688 Q37.0156 35.5 34.4219 36.5938 Q31.8438 37.7031 28.4219 37.7031 Q26.0312 37.7031 23.5781 36.9844 Q21.1406 36.2812 19.1562 34.6875 Q17.1875 33.1094 15.9375 30.5156 Q14.7031 27.9375 14.7031 24.2188 Q14.7031 20.4062 15.6719 17.1094 Q16.6562 13.8125 18.4844 11.375 Q20.3125 8.9375 22.8906 7.51562 Q25.4844 6.10938 28.7188 6.10938 Q31.8906 6.10938 34.4062 7.20312 Q36.9219 8.29688 38.6719 10.375 Q40.4375 12.4531 41.3594 15.4219 Q42.2812 18.4062 42.2812 22.125" />
              </defs>
              <g
                 id="g254"
                 transform="translate(110.859375 96.521875)scale(0.2 -0.2)"
                 style="fill:#262626;">
                <use
                   id="use256"
                   xlink:href="#LiberationSans-30" />
                <use
                   id="use258"
                   xlink:href="#LiberationSans-2e"
                   x="55.615234375" />
                <use
                   id="use260"
                   xlink:href="#LiberationSans-36"
                   x="83.3984375" />
              </g>
            </g>
          </g>
          <g
             id="ytick_5">
            <g
               id="line2d_28">
              <path
                 id="path264"
                 style="fill:none;stroke:#ffffff;stroke-linecap:round;"
                 d=" M144 63.45 L549.818 63.45"
                 clip-path="url(#p1b72ccf5f4)" />
            </g>
            <g
               id="line2d_29">
              <g
                 id="g267">
                <use
                   id="use269"
                   y="63.45"
                   xlink:href="#m219da94a98"
                   x="144.0"
                   style="fill:#262626;stroke:#262626;" />
              </g>
            </g>
            <g
               id="line2d_30">
              <g
                 id="g272">
                <use
                   id="use274"
                   y="63.45"
                   xlink:href="#m219da94a98"
                   x="549.818181818"
                   style="fill:#262626;stroke:#262626;" />
              </g>
            </g>
            <g
               id="text_11">
              <!-- 0.8 -->
              <defs
                 id="defs277">
                <path
                   id="LiberationSans-38"
                   d=" M51.2656 19.1875 Q51.2656 14.7969 49.875 11.1094 Q48.4844 7.42188 45.625 4.73438 Q42.7812 2.04688 38.3281 0.53125 Q33.8906 -0.984375 27.8281 -0.984375 Q21.7812 -0.984375 17.3594 0.53125 Q12.9375 2.04688 10.0312 4.70312 Q7.125 7.375 5.73438 11.0625 Q4.34375 14.75 4.34375 19.0938 Q4.34375 22.8594 5.48438 25.7812 Q6.64062 28.7188 8.5625 30.8281 Q10.5 32.9531 12.9688 34.25 Q15.4375 35.5469 18.0625 35.9844 L18.0625 36.1875 Q15.1875 36.8594 12.9062 38.375 Q10.6406 39.8906 9.09375 42.0156 Q7.5625 44.1406 6.75 46.7188 Q5.95312 49.3125 5.95312 52.2031 Q5.95312 55.8125 7.34375 59 Q8.73438 62.2031 11.4688 64.625 Q14.2031 67.0469 18.25 68.4375 Q22.3125 69.8281 27.6406 69.8281 Q33.25 69.8281 37.375 68.4062 Q41.5 67 44.2031 64.5781 Q46.9219 62.1562 48.2344 58.9375 Q49.5625 55.7188 49.5625 52.0938 Q49.5625 49.2656 48.75 46.6719 Q47.9531 44.0938 46.4062 41.9688 Q44.875 39.8438 42.5938 38.3438 Q40.3281 36.8594 37.3594 36.2812 L37.3594 36.0781 Q40.3281 35.5938 42.8594 34.2969 Q45.4062 33.0156 47.2656 30.8906 Q49.125 28.7656 50.1875 25.8281 Q51.2656 22.9062 51.2656 19.1875 M40.4375 51.6094 Q40.4375 54.2031 39.7656 56.3438 Q39.1094 58.5 37.5938 60.0312 Q36.0781 61.5781 33.6406 62.4219 Q31.2031 63.2812 27.6406 63.2812 Q24.1719 63.2812 21.7812 62.4219 Q19.3906 61.5781 17.8438 60.0312 Q16.3125 58.5 15.625 56.3438 Q14.9375 54.2031 14.9375 51.6094 Q14.9375 49.5625 15.4688 47.4062 Q16.0156 45.2656 17.4219 43.5 Q18.8438 41.75 21.3281 40.625 Q23.8281 39.5 27.7344 39.5 Q31.8906 39.5 34.4062 40.625 Q36.9219 41.75 38.25 43.5 Q39.5938 45.2656 40.0156 47.4062 Q40.4375 49.5625 40.4375 51.6094 M42.1406 20.0156 Q42.1406 22.5156 41.4531 24.8281 Q40.7656 27.1562 39.1094 28.9375 Q37.4531 30.7188 34.6406 31.8125 Q31.8438 32.9062 27.6406 32.9062 Q23.7812 32.9062 21.0625 31.8125 Q18.3594 30.7188 16.6719 28.9062 Q14.9844 27.0938 14.2031 24.7188 Q13.4219 22.3594 13.4219 19.8281 Q13.4219 16.6562 14.2031 14.0312 Q14.9844 11.4219 16.6875 9.54688 Q18.4062 7.67188 21.1875 6.64062 Q23.9688 5.60938 27.9375 5.60938 Q31.9375 5.60938 34.6719 6.64062 Q37.4062 7.67188 39.0625 9.54688 Q40.7188 11.4219 41.4219 14.0781 Q42.1406 16.75 42.1406 20.0156" />
              </defs>
              <g
                 id="g280"
                 transform="translate(110.85 68.621875)scale(0.2 -0.2)"
                 style="fill:#262626;">
                <use
                   id="use282"
                   xlink:href="#LiberationSans-30" />
                <use
                   id="use284"
                   xlink:href="#LiberationSans-2e"
                   x="55.615234375" />
                <use
                   id="use286"
                   xlink:href="#LiberationSans-38"
                   x="83.3984375" />
              </g>
            </g>
          </g>
          <g
             id="ytick_6">
            <g
               id="line2d_31">
              <path
                 id="path290"
                 style="fill:none;stroke:#ffffff;stroke-linecap:round;"
                 d=" M144 35.55 L549.818 35.55"
                 clip-path="url(#p1b72ccf5f4)" />
            </g>
            <g
               id="line2d_32">
              <g
                 id="g293">
                <use
                   id="use295"
                   y="35.55"
                   xlink:href="#m219da94a98"
                   x="144.0"
                   style="fill:#262626;stroke:#262626;" />
              </g>
            </g>
            <g
               id="line2d_33">
              <g
                 id="g298">
                <use
                   id="use300"
                   y="35.55"
                   xlink:href="#m219da94a98"
                   x="549.818181818"
                   style="fill:#262626;stroke:#262626;" />
              </g>
            </g>
            <g
               id="text_12">
              <!-- 1.0 -->
              <defs
                 id="defs303">
                <path
                   id="LiberationSans-31"
                   d=" M7.625 0 L7.625 7.46875 L25.1406 7.46875 L25.1406 60.4062 L9.625 49.3125 L9.625 57.625 L25.875 68.7969 L33.9844 68.7969 L33.9844 7.46875 L50.7344 7.46875 L50.7344 0 z " />
              </defs>
              <g
                 id="g306"
                 transform="translate(111.50625 40.721875)scale(0.2 -0.2)"
                 style="fill:#262626;">
                <use
                   id="use308"
                   xlink:href="#LiberationSans-31" />
                <use
                   id="use310"
                   xlink:href="#LiberationSans-2e"
                   x="55.615234375" />
                <use
                   id="use312"
                   xlink:href="#LiberationSans-30"
                   x="83.3984375" />
              </g>
            </g>
          </g>
        </g>
        <g
           id="line2d_34">
          <path
             id="path315"
             style="fill:none;stroke:#4c72b0;stroke-linecap:round;stroke-width:1.75;"
             d=" M144 175.05 L326.596 175.05 L326.718 35.55 L367.182 35.55 L367.303 175.05 L549.818 175.05 L549.818 175.05"
             clip-path="url(#p1b72ccf5f4)" />
        </g>
        <g
           id="patch_3">
          <path
             id="path318"
             style="fill:none;"
             d=" M144 21.6 L549.818 21.6" />
        </g>
        <g
           id="patch_4">
          <path
             id="path321"
             style="fill:none;"
             d=" M549.818 189 L549.818 21.6" />
        </g>
        <g
           id="patch_5">
          <path
             id="path324"
             style="fill:none;"
             d=" M144 189 L549.818 189" />
        </g>
        <g
           id="patch_6">
          <path
             id="path327"
             style="fill:none;"
             d=" M144 189 L144 21.6" />
        </g>
        <g
           id="legend_1">
          <g
             id="line2d_35">
            <path
               id="path331"
               style="fill:none;stroke:#4c72b0;stroke-linecap:round;stroke-width:1.75;"
               d=" M160.2 56.106 L196.2 56.106" />
          </g>
          <g
             id="line2d_36" />
          <g
             id="text_13">
            <!-- Rectangular -->
            <defs
               id="defs335">
              <path
                 id="LiberationSans-72"
                 d=" M6.9375 0 L6.9375 40.5312 Q6.9375 42.1875 6.90625 43.9219 Q6.89062 45.6562 6.82812 47.2656 Q6.78125 48.875 6.73438 50.2812 Q6.6875 51.7031 6.64062 52.8281 L14.9375 52.8281 Q14.9844 51.7031 15.0625 50.2656 Q15.1406 48.8281 15.2031 47.3125 Q15.2812 45.7969 15.2969 44.4062 Q15.3281 43.0156 15.3281 42.0469 L15.5312 42.0469 Q16.4531 45.0625 17.5 47.2812 Q18.5625 49.5156 19.9688 50.9531 Q21.3906 52.3906 23.3438 53.0938 Q25.2969 53.8125 28.0781 53.8125 Q29.1562 53.8125 30.125 53.6406 Q31.1094 53.4688 31.6406 53.3281 L31.6406 45.2656 Q30.7656 45.5156 29.5938 45.625 Q28.4219 45.75 26.9531 45.75 Q23.9219 45.75 21.7969 44.375 Q19.6719 43.0156 18.3281 40.5938 Q17 38.1875 16.3594 34.8438 Q15.7188 31.5 15.7188 27.5469 L15.7188 0 z " />
              <path
                 id="LiberationSans-67"
                 d=" M26.7656 -20.75 Q22.2188 -20.75 18.7031 -19.8125 Q15.1875 -18.8906 12.6875 -17.1562 Q10.2031 -15.4375 8.64062 -13.0312 Q7.07812 -10.6406 6.39062 -7.71875 L15.2344 -6.45312 Q16.1094 -10.1094 19.1094 -12.0781 Q22.125 -14.0625 27 -14.0625 Q29.9844 -14.0625 32.4219 -13.2344 Q34.8594 -12.4062 36.5625 -10.5625 Q38.2812 -8.73438 39.2031 -5.79688 Q40.1406 -2.875 40.1406 1.3125 L40.1406 9.8125 L40.0469 9.8125 Q39.0625 7.8125 37.625 5.98438 Q36.1875 4.15625 34.1094 2.73438 Q32.0312 1.3125 29.2969 0.453125 Q26.5625 -0.390625 23.0469 -0.390625 Q18.0156 -0.390625 14.4219 1.29688 Q10.8438 2.98438 8.5625 6.34375 Q6.29688 9.71875 5.25 14.7188 Q4.20312 19.7344 4.20312 26.3125 Q4.20312 32.6719 5.25 37.75 Q6.29688 42.8281 8.65625 46.3594 Q11.0312 49.9062 14.8125 51.7812 Q18.6094 53.6562 24.0312 53.6562 Q29.6406 53.6562 33.7656 51.0938 Q37.8906 48.5312 40.1406 43.7969 L40.2344 43.7969 Q40.2344 45.0156 40.2969 46.5312 Q40.375 48.0469 40.4531 49.3906 Q40.5312 50.7344 40.625 51.7031 Q40.7188 52.6875 40.8281 52.8281 L49.1719 52.8281 Q49.125 52.3906 49.0781 51.3438 Q49.0312 50.2969 48.9688 48.8281 Q48.9219 47.3594 48.8906 45.5781 Q48.875 43.7969 48.875 41.8906 L48.875 1.51562 Q48.875 -9.57812 43.4219 -15.1562 Q37.9844 -20.75 26.7656 -20.75 M40.1406 26.4219 Q40.1406 31.9375 38.9375 35.8594 Q37.75 39.7969 35.7969 42.2812 Q33.8438 44.7812 31.3281 45.9531 Q28.8125 47.125 26.1719 47.125 Q22.7969 47.125 20.375 45.9531 Q17.9688 44.7812 16.375 42.2656 Q14.7969 39.75 14.0312 35.8125 Q13.2812 31.8906 13.2812 26.4219 Q13.2812 20.7031 14.0312 16.8125 Q14.7969 12.9375 16.3594 10.5469 Q17.9219 8.15625 20.3125 7.125 Q22.7031 6.10938 26.0312 6.10938 Q28.6562 6.10938 31.1719 7.21875 Q33.6875 8.34375 35.6875 10.7812 Q37.7031 13.2344 38.9219 17.0938 Q40.1406 20.9531 40.1406 26.4219" />
              <path
                 id="LiberationSans-61"
                 d=" M20.2188 -0.984375 Q12.25 -0.984375 8.25 3.21875 Q4.25 7.42188 4.25 14.75 Q4.25 19.9688 6.21875 23.3125 Q8.20312 26.6562 11.3906 28.5625 Q14.5938 30.4688 18.6875 31.2031 Q22.7969 31.9375 27.0469 32.0312 L38.9219 32.2344 L38.9219 35.1094 Q38.9219 38.375 38.2344 40.6719 Q37.5469 42.9688 36.125 44.375 Q34.7188 45.7969 32.5938 46.4531 Q30.4688 47.125 27.5938 47.125 Q25.0469 47.125 23 46.75 Q20.9531 46.3906 19.4375 45.4375 Q17.9219 44.4844 16.9844 42.8438 Q16.0625 41.2188 15.7656 38.7188 L6.59375 39.5469 Q7.07812 42.6719 8.4375 45.2812 Q9.8125 47.9062 12.3281 49.7969 Q14.8438 51.7031 18.625 52.75 Q22.4062 53.8125 27.7812 53.8125 Q37.75 53.8125 42.7656 49.2344 Q47.7969 44.6719 47.7969 36.0312 L47.7969 13.2812 Q47.7969 9.375 48.8281 7.39062 Q49.8594 5.42188 52.7344 5.42188 Q53.4688 5.42188 54.2031 5.51562 Q54.9375 5.60938 55.6094 5.76562 L55.6094 0.296875 Q53.9531 -0.09375 52.3125 -0.28125 Q50.6875 -0.484375 48.8281 -0.484375 Q46.3438 -0.484375 44.5625 0.171875 Q42.7812 0.828125 41.6562 2.17188 Q40.5312 3.51562 39.9375 5.48438 Q39.3594 7.46875 39.2031 10.1094 L38.9219 10.1094 Q37.5 7.5625 35.8125 5.51562 Q34.125 3.46875 31.875 2.03125 Q29.6406 0.59375 26.7812 -0.1875 Q23.9219 -0.984375 20.2188 -0.984375 M22.2188 5.60938 Q26.4219 5.60938 29.5625 7.14062 Q32.7188 8.6875 34.7812 11.0781 Q36.8594 13.4844 37.8906 16.3125 Q38.9219 19.1406 38.9219 21.7344 L38.9219 26.0781 L29.2969 25.875 Q26.0781 25.8281 23.1719 25.4062 Q20.2656 25 18.0625 23.7812 Q15.875 22.5625 14.5781 20.3594 Q13.2812 18.1719 13.2812 14.5938 Q13.2812 10.2969 15.5938 7.95312 Q17.9219 5.60938 22.2188 5.60938" />
              <path
                 id="LiberationSans-75"
                 d=" M15.3281 52.8281 L15.3281 19.3438 Q15.3281 15.4844 15.8906 12.8906 Q16.4531 10.2969 17.7188 8.70312 Q19 7.125 21.0625 6.46875 Q23.1406 5.8125 26.2188 5.8125 Q29.3438 5.8125 31.8594 6.90625 Q34.375 8.01562 36.1562 10.0781 Q37.9375 12.1562 38.9062 15.2031 Q39.8906 18.2656 39.8906 22.2188 L39.8906 52.8281 L48.6875 52.8281 L48.6875 11.2812 Q48.6875 9.625 48.7031 7.78125 Q48.7344 5.95312 48.7812 4.3125 Q48.8281 2.6875 48.875 1.51562 Q48.9219 0.34375 48.9688 0 L40.6719 0 Q40.625 0.25 40.5781 1.3125 Q40.5312 2.39062 40.4531 3.78125 Q40.375 5.17188 40.3281 6.60938 Q40.2812 8.0625 40.2812 9.03125 L40.1406 9.03125 Q38.875 6.73438 37.3594 4.875 Q35.8438 3.03125 33.8438 1.73438 Q31.8438 0.4375 29.25 -0.265625 Q26.6562 -0.984375 23.25 -0.984375 Q18.8438 -0.984375 15.6719 0.09375 Q12.5 1.17188 10.4531 3.42188 Q8.40625 5.67188 7.45312 9.1875 Q6.5 12.7031 6.5 17.625 L6.5 52.8281 z " />
              <path
                 id="LiberationSans-74"
                 d=" M27.0469 0.390625 Q25.0469 -0.140625 22.9688 -0.453125 Q20.9062 -0.78125 18.1719 -0.78125 Q7.625 -0.78125 7.625 11.1875 L7.625 46.4375 L1.51562 46.4375 L1.51562 52.8281 L7.95312 52.8281 L10.5469 64.6562 L16.4062 64.6562 L16.4062 52.8281 L26.1719 52.8281 L26.1719 46.4375 L16.4062 46.4375 L16.4062 13.0938 Q16.4062 9.28125 17.6406 7.73438 Q18.8906 6.20312 21.9688 6.20312 Q23.25 6.20312 24.4375 6.39062 Q25.6406 6.59375 27.0469 6.89062 z " />
              <path
                 id="LiberationSans-6e"
                 d=" M40.2812 0 L40.2812 33.5 Q40.2812 37.3594 39.7188 39.9375 Q39.1562 42.5312 37.8906 44.1094 Q36.625 45.7031 34.5469 46.3594 Q32.4688 47.0156 29.3906 47.0156 Q26.2656 47.0156 23.75 45.9219 Q21.2344 44.8281 19.4531 42.75 Q17.6719 40.6719 16.6875 37.625 Q15.7188 34.5781 15.7188 30.6094 L15.7188 0 L6.9375 0 L6.9375 41.5469 Q6.9375 43.2188 6.90625 45.0469 Q6.89062 46.875 6.82812 48.5 Q6.78125 50.1406 6.73438 51.3125 Q6.6875 52.4844 6.64062 52.8281 L14.9375 52.8281 Q14.9844 52.5938 15.0312 51.5156 Q15.0938 50.4375 15.1562 49.0469 Q15.2344 47.6562 15.2812 46.2188 Q15.3281 44.7812 15.3281 43.7969 L15.4844 43.7969 Q16.75 46.0938 18.2656 47.9531 Q19.7812 49.8125 21.7812 51.0938 Q23.7812 52.3906 26.3594 53.0938 Q28.9531 53.8125 32.375 53.8125 Q36.7656 53.8125 39.9375 52.7344 Q43.1094 51.6562 45.1562 49.4062 Q47.2188 47.1719 48.1719 43.625 Q49.125 40.0938 49.125 35.2031 L49.125 0 z " />
              <path
                 id="LiberationSans-6c"
                 d=" M6.73438 0 L6.73438 72.4688 L15.5312 72.4688 L15.5312 0 z " />
              <path
                 id="LiberationSans-52"
                 d=" M56.8438 0 L38.9688 28.5625 L17.5312 28.5625 L17.5312 0 L8.20312 0 L8.20312 68.7969 L40.5781 68.7969 Q46.4375 68.7969 50.9531 67.4531 Q55.4688 66.1094 58.5469 63.5625 Q61.625 61.0312 63.2344 57.375 Q64.8438 53.7188 64.8438 49.125 Q64.8438 45.8438 63.8906 42.6719 Q62.9375 39.5 60.8906 36.8594 Q58.8438 34.2344 55.6562 32.3281 Q52.4844 30.4219 48.0469 29.6406 L67.5781 0 z  M55.4688 49.0312 Q55.4688 52.1562 54.3906 54.4375 Q53.3281 56.7344 51.2656 58.2656 Q49.2188 59.8125 46.2812 60.5625 Q43.3594 61.3281 39.6562 61.3281 L17.5312 61.3281 L17.5312 35.9375 L40.0469 35.9375 Q44.0469 35.9375 46.9688 36.9375 Q49.9062 37.9375 51.7812 39.6875 Q53.6562 41.4531 54.5625 43.8438 Q55.4688 46.2344 55.4688 49.0312" />
            </defs>
            <g
               id="g345"
               transform="translate(210.6 50.844375)scale(0.18 -0.18)"
               style="fill:#262626;">
              <use
                 id="use347"
                 xlink:href="#LiberationSans-52" />
              <use
                 id="use349"
                 xlink:href="#LiberationSans-65"
                 x="72.216796875" />
              <use
                 id="use351"
                 xlink:href="#LiberationSans-63"
                 x="127.83203125" />
              <use
                 id="use353"
                 xlink:href="#LiberationSans-74"
                 x="177.83203125" />
              <use
                 id="use355"
                 xlink:href="#LiberationSans-61"
                 x="205.615234375" />
              <use
                 id="use357"
                 xlink:href="#LiberationSans-6e"
                 x="261.23046875" />
              <use
                 id="use359"
                 xlink:href="#LiberationSans-67"
                 x="316.845703125" />
              <use
                 id="use361"
                 xlink:href="#LiberationSans-75"
                 x="372.4609375" />
              <use
                 id="use363"
                 xlink:href="#LiberationSans-6c"
                 x="428.076171875" />
              <use
                 id="use365"
                 xlink:href="#LiberationSans-61"
                 x="450.29296875" />
              <use
                 id="use367"
                 xlink:href="#LiberationSans-72"
                 x="505.908203125" />
            </g>
            <!-- pulse -->
            <defs
               id="defs369">
              <path
                 id="LiberationSans-70"
                 d=" M51.4219 26.6562 Q51.4219 20.6562 50.4375 15.5781 Q49.4688 10.5 47.1875 6.82812 Q44.9219 3.17188 41.1875 1.09375 Q37.4531 -0.984375 31.9844 -0.984375 Q26.3125 -0.984375 22.0625 1.17188 Q17.8281 3.32812 15.5781 8.20312 L15.3281 8.20312 Q15.375 8.10938 15.4062 7.32812 Q15.4375 6.54688 15.4531 5.375 Q15.4844 4.20312 15.5 2.75 Q15.5312 1.3125 15.5312 -0.09375 L15.5312 -20.75 L6.73438 -20.75 L6.73438 42.0469 Q6.73438 43.9531 6.70312 45.7031 Q6.6875 47.4688 6.64062 48.9062 Q6.59375 50.3438 6.54688 51.3594 Q6.5 52.3906 6.45312 52.8281 L14.9375 52.8281 Q14.9844 52.6875 15.0625 51.7969 Q15.1406 50.9219 15.2031 49.6719 Q15.2812 48.4375 15.3594 47.0156 Q15.4375 45.6094 15.4375 44.3438 L15.625 44.3438 Q16.8438 46.875 18.4062 48.6562 Q19.9688 50.4375 21.9688 51.5781 Q23.9688 52.7344 26.4375 53.25 Q28.9062 53.7656 31.9844 53.7656 Q37.4531 53.7656 41.1875 51.8125 Q44.9219 49.8594 47.1875 46.3125 Q49.4688 42.7812 50.4375 37.7656 Q51.4219 32.7656 51.4219 26.6562 M42.1875 26.4688 Q42.1875 31.3438 41.5938 35.1562 Q41.0156 38.9688 39.5781 41.5938 Q38.1406 44.2344 35.7344 45.5938 Q33.3438 46.9688 29.7344 46.9688 Q26.8125 46.9688 24.2188 46.1406 Q21.625 45.3125 19.7031 42.9688 Q17.7812 40.625 16.6562 36.5 Q15.5312 32.375 15.5312 25.7812 Q15.5312 20.1719 16.4531 16.2812 Q17.3906 12.4062 19.1719 10.0156 Q20.9531 7.625 23.5781 6.5625 Q26.2188 5.51562 29.6406 5.51562 Q33.2969 5.51562 35.7188 6.92188 Q38.1406 8.34375 39.5781 11.0312 Q41.0156 13.7188 41.5938 17.5938 Q42.1875 21.4844 42.1875 26.4688" />
            </defs>
            <g
               id="g372"
               transform="translate(210.6 70.232625)scale(0.18 -0.18)"
               style="fill:#262626;">
              <use
                 id="use374"
                 xlink:href="#LiberationSans-70" />
              <use
                 id="use376"
                 xlink:href="#LiberationSans-75"
                 x="55.615234375" />
              <use
                 id="use378"
                 xlink:href="#LiberationSans-6c"
                 x="111.23046875" />
              <use
                 id="use380"
                 xlink:href="#LiberationSans-73"
                 x="133.447265625" />
              <use
                 id="use382"
                 xlink:href="#LiberationSans-65"
                 x="183.447265625" />
            </g>
          </g>
        </g>
      </g>
      <g
         id="axes_2">
        <g
           id="patch_7">
          <path
             id="path386"
             style="fill:#eaeaf2;"
             d=" M630.982 189 L1036.8 189 L1036.8 21.6 L630.982 21.6 z " />
        </g>
        <g
           id="matplotlib.axis_3">
          <g
             id="xtick_6">
            <g
               id="line2d_37">
              <path
                 id="path391"
                 style="fill:none;stroke:#ffffff;stroke-linecap:round;"
                 d=" M661.659 189 L661.659 21.6"
                 clip-path="url(#pf85dad87f0)" />
            </g>
            <g
               id="line2d_38">
              <g
                 id="g394">
                <use
                   id="use396"
                   y="189.0"
                   xlink:href="#m219da94a98"
                   x="661.658855615"
                   style="fill:#262626;stroke:#262626;" />
              </g>
            </g>
            <g
               id="line2d_39">
              <g
                 id="g399">
                <use
                   id="use401"
                   y="21.6"
                   xlink:href="#m219da94a98"
                   x="661.658855615"
                   style="fill:#262626;stroke:#262626;" />
              </g>
            </g>
            <g
               id="text_14">
              <!-- −40 -->
              <g
                 id="g404"
                 transform="translate(645.580730615 210.49375)scale(0.2 -0.2)"
                 style="fill:#262626;">
                <use
                   id="use406"
                   xlink:href="#LiberationSans-2212" />
                <use
                   id="use408"
                   xlink:href="#LiberationSans-34"
                   x="58.3984375" />
                <use
                   id="use410"
                   xlink:href="#LiberationSans-30"
                   x="114.013671875" />
              </g>
            </g>
          </g>
          <g
             id="xtick_7">
            <g
               id="line2d_40">
              <path
                 id="path414"
                 style="fill:none;stroke:#ffffff;stroke-linecap:round;"
                 d=" M747.783 189 L747.783 21.6"
                 clip-path="url(#pf85dad87f0)" />
            </g>
            <g
               id="line2d_41">
              <g
                 id="g417">
                <use
                   id="use419"
                   y="189.0"
                   xlink:href="#m219da94a98"
                   x="747.783257529"
                   style="fill:#262626;stroke:#262626;" />
              </g>
            </g>
            <g
               id="line2d_42">
              <g
                 id="g422">
                <use
                   id="use424"
                   y="21.6"
                   xlink:href="#m219da94a98"
                   x="747.783257529"
                   style="fill:#262626;stroke:#262626;" />
              </g>
            </g>
            <g
               id="text_15">
              <!-- −20 -->
              <g
                 id="g427"
                 transform="translate(731.705132529 210.49375)scale(0.2 -0.2)"
                 style="fill:#262626;">
                <use
                   id="use429"
                   xlink:href="#LiberationSans-2212" />
                <use
                   id="use431"
                   xlink:href="#LiberationSans-32"
                   x="58.3984375" />
                <use
                   id="use433"
                   xlink:href="#LiberationSans-30"
                   x="114.013671875" />
              </g>
            </g>
          </g>
          <g
             id="xtick_8">
            <g
               id="line2d_43">
              <path
                 id="path437"
                 style="fill:none;stroke:#ffffff;stroke-linecap:round;"
                 d=" M833.908 189 L833.908 21.6"
                 clip-path="url(#pf85dad87f0)" />
            </g>
            <g
               id="line2d_44">
              <g
                 id="g440">
                <use
                   id="use442"
                   y="189.0"
                   xlink:href="#m219da94a98"
                   x="833.907659442"
                   style="fill:#262626;stroke:#262626;" />
              </g>
            </g>
            <g
               id="line2d_45">
              <g
                 id="g445">
                <use
                   id="use447"
                   y="21.6"
                   xlink:href="#m219da94a98"
                   x="833.907659442"
                   style="fill:#262626;stroke:#262626;" />
              </g>
            </g>
            <g
               id="text_16">
              <!-- 0 -->
              <g
                 id="g450"
                 transform="translate(829.127971942 210.49375)scale(0.2 -0.2)"
                 style="fill:#262626;">
                <use
                   id="use452"
                   xlink:href="#LiberationSans-30" />
              </g>
            </g>
          </g>
          <g
             id="xtick_9">
            <g
               id="line2d_46">
              <path
                 id="path456"
                 style="fill:none;stroke:#ffffff;stroke-linecap:round;"
                 d=" M920.032 189 L920.032 21.6"
                 clip-path="url(#pf85dad87f0)" />
            </g>
            <g
               id="line2d_47">
              <g
                 id="g459">
                <use
                   id="use461"
                   y="189.0"
                   xlink:href="#m219da94a98"
                   x="920.032061356"
                   style="fill:#262626;stroke:#262626;" />
              </g>
            </g>
            <g
               id="line2d_48">
              <g
                 id="g464">
                <use
                   id="use466"
                   y="21.6"
                   xlink:href="#m219da94a98"
                   x="920.032061356"
                   style="fill:#262626;stroke:#262626;" />
              </g>
            </g>
            <g
               id="text_17">
              <!-- 20 -->
              <g
                 id="g469"
                 transform="translate(909.803936356 210.49375)scale(0.2 -0.2)"
                 style="fill:#262626;">
                <use
                   id="use471"
                   xlink:href="#LiberationSans-32" />
                <use
                   id="use473"
                   xlink:href="#LiberationSans-30"
                   x="55.615234375" />
              </g>
            </g>
          </g>
          <g
             id="xtick_10">
            <g
               id="line2d_49">
              <path
                 id="path477"
                 style="fill:none;stroke:#ffffff;stroke-linecap:round;"
                 d=" M1006.16 189 L1006.16 21.6"
                 clip-path="url(#pf85dad87f0)" />
            </g>
            <g
               id="line2d_50">
              <g
                 id="g480">
                <use
                   id="use482"
                   y="189.0"
                   xlink:href="#m219da94a98"
                   x="1006.15646327"
                   style="fill:#262626;stroke:#262626;" />
              </g>
            </g>
            <g
               id="line2d_51">
              <g
                 id="g485">
                <use
                   id="use487"
                   y="21.6"
                   xlink:href="#m219da94a98"
                   x="1006.15646327"
                   style="fill:#262626;stroke:#262626;" />
              </g>
            </g>
            <g
               id="text_18">
              <!-- 40 -->
              <g
                 id="g490"
                 transform="translate(995.65490077 210.49375)scale(0.2 -0.2)"
                 style="fill:#262626;">
                <use
                   id="use492"
                   xlink:href="#LiberationSans-34" />
                <use
                   id="use494"
                   xlink:href="#LiberationSans-30"
                   x="55.615234375" />
              </g>
            </g>
          </g>
          <g
             id="text_19">
            <!-- Frequency ($\omega$) -->
            <defs
               id="defs497">
              <path
                 id="LiberationSans-46"
                 d=" M17.5312 61.1875 L17.5312 35.5938 L55.9062 35.5938 L55.9062 27.875 L17.5312 27.875 L17.5312 0 L8.20312 0 L8.20312 68.7969 L57.0781 68.7969 L57.0781 61.1875 z " />
              <path
                 id="LiberationSans-71"
                 d=" M23.6406 -0.984375 Q13.5781 -0.984375 8.89062 5.79688 Q4.20312 12.5938 4.20312 26.1719 Q4.20312 39.9375 9 46.875 Q13.8125 53.8125 23.6406 53.8125 Q26.9062 53.8125 29.4219 53.2188 Q31.9375 52.6406 33.9062 51.4844 Q35.8906 50.3438 37.375 48.625 Q38.875 46.9219 40.0938 44.625 L40.1875 44.625 Q40.1875 45.8438 40.25 47.3281 Q40.3281 48.8281 40.4062 50.1406 Q40.4844 51.4688 40.5781 52.4219 Q40.6719 53.375 40.7656 53.5156 L49.2188 53.5156 Q49.125 52.6875 49 49.1719 Q48.875 45.6562 48.875 39.1094 L48.875 -20.75 L40.0938 -20.75 L40.0938 0.6875 Q40.0938 1.95312 40.1094 3.3125 Q40.1406 4.6875 40.1875 5.90625 Q40.2344 7.28125 40.2812 8.6875 L40.1875 8.6875 Q38.9219 6.20312 37.375 4.375 Q35.8438 2.54688 33.8438 1.34375 Q31.8438 0.140625 29.3281 -0.421875 Q26.8125 -0.984375 23.6406 -0.984375 M40.0938 27.0469 Q40.0938 32.8125 39.0938 36.7188 Q38.0938 40.625 36.25 42.9688 Q34.4219 45.3125 31.8125 46.3125 Q29.2031 47.3125 25.9844 47.3125 Q22.6094 47.3125 20.2188 46.0625 Q17.8281 44.8281 16.3281 42.2656 Q14.8438 39.7031 14.125 35.7656 Q13.4219 31.8438 13.4219 26.4688 Q13.4219 21.1875 14.0781 17.2812 Q14.75 13.375 16.2344 10.8281 Q17.7188 8.29688 20.0938 7.04688 Q22.4688 5.8125 25.875 5.8125 Q28.8125 5.8125 31.3906 6.71875 Q33.9844 7.625 35.9062 9.98438 Q37.8438 12.3594 38.9688 16.4844 Q40.0938 20.6094 40.0938 27.0469" />
              <path
                 id="Cmmi10-21"
                 d=" M12.1094 -1.125 Q6.45312 -1.125 3.9375 3.01562 Q1.42188 7.17188 1.42188 13.1875 Q1.42188 17.1406 2.125 20.9219 Q2.82812 24.7031 4.26562 28.5781 Q5.71875 32.4688 7.5625 35.8594 Q9.42188 39.2656 11.7188 42.4844 Q12.1562 43.1094 12.8906 43.1094 Q13.5312 43.1094 13.9219 42.7188 Q14.3125 42.3281 14.3125 41.7969 Q14.3125 41.2656 14.0156 40.8281 Q4.89062 28.2656 4.89062 17.6719 Q4.89062 13.0938 7 9.79688 Q9.125 6.5 13.4844 6.5 Q17.2344 6.5 20.4375 8.6875 Q23.6406 10.8906 25.9844 14.3125 Q25.9844 16.0625 26.5938 19.7656 Q27.2031 23.4844 28.4844 26.3906 Q29.7812 29.2969 31.5938 29.2969 Q33.8906 29.2969 33.8906 26.6094 Q33.8906 25.0469 33.2188 22.6719 Q32.5625 20.3125 31.75 18.2656 Q30.9531 16.2188 29.7812 13.625 Q30.9531 6.5 36.9219 6.5 Q40.375 6.5 43.8594 8.5 Q47.3594 10.5 50.0469 13.75 Q52.7344 17 54.2656 20.75 Q55.8125 24.5156 55.8125 27.875 Q55.8125 30.9062 54.8594 32.5938 Q53.9062 34.2812 52.3438 36.125 Q50.7812 37.9844 50.7812 39.1094 Q50.7812 41.0625 52.4375 42.6719 Q54.1094 44.2812 56 44.2812 Q58.4531 44.2812 59.4688 42.0625 Q60.5 39.8438 60.5 37.0156 Q60.5 32.4219 58.6719 25.4375 Q56.8438 18.4531 54.5 13.8125 Q51.2656 7.51562 46.4062 3.1875 Q41.5469 -1.125 35.5 -1.125 Q31.6406 -1.125 29.2656 1.1875 Q26.9062 3.51562 26.2188 7.51562 Q23.4375 3.5625 19.875 1.21875 Q16.3125 -1.125 12.1094 -1.125" />
              <path
                 id="LiberationSans-79"
                 d=" M29.5 0 Q27.6406 -4.78125 25.7031 -8.60938 Q23.7812 -12.4531 21.3906 -15.1562 Q19 -17.875 16.0625 -19.3125 Q13.1406 -20.75 9.32812 -20.75 Q7.67188 -20.75 6.25 -20.6562 Q4.82812 -20.5625 3.26562 -20.2188 L3.26562 -13.625 Q4.20312 -13.7656 5.375 -13.8438 Q6.54688 -13.9219 7.375 -13.9219 Q11.2344 -13.9219 14.5469 -11.0312 Q17.875 -8.15625 20.3594 -1.85938 L21.1875 0.25 L0.25 52.8281 L9.625 52.8281 L20.75 23.6406 Q21.2344 22.3125 21.9844 20.1094 Q22.75 17.9219 23.5 15.7188 Q24.2656 13.5312 24.8438 11.7656 Q25.4375 10.0156 25.5312 9.57812 Q25.6875 10.1094 26.25 11.6875 Q26.8125 13.2812 27.5156 15.2344 Q28.2188 17.1875 28.9531 19.1875 Q29.6875 21.1875 30.1719 22.6562 L40.5312 52.8281 L49.8125 52.8281 z " />
            </defs>
            <g
               id="g503"
               transform="translate(770.890909091 234.24375)scale(0.2 -0.2)"
               style="fill:#262626;">
              <use
                 id="use505"
                 xlink:href="#LiberationSans-46"
                 transform="translate(0.0 0.53125)" />
              <use
                 id="use507"
                 xlink:href="#LiberationSans-72"
                 transform="translate(61.083984375 0.53125)" />
              <use
                 id="use509"
                 xlink:href="#LiberationSans-65"
                 transform="translate(94.384765625 0.53125)" />
              <use
                 id="use511"
                 xlink:href="#LiberationSans-71"
                 transform="translate(150.0 0.53125)" />
              <use
                 id="use513"
                 xlink:href="#LiberationSans-75"
                 transform="translate(205.615234375 0.53125)" />
              <use
                 id="use515"
                 xlink:href="#LiberationSans-65"
                 transform="translate(261.23046875 0.53125)" />
              <use
                 id="use517"
                 xlink:href="#LiberationSans-6e"
                 transform="translate(316.845703125 0.53125)" />
              <use
                 id="use519"
                 xlink:href="#LiberationSans-63"
                 transform="translate(372.4609375 0.53125)" />
              <use
                 id="use521"
                 xlink:href="#LiberationSans-79"
                 transform="translate(422.4609375 0.53125)" />
              <use
                 id="use523"
                 xlink:href="#LiberationSans-20"
                 transform="translate(472.4609375 0.53125)" />
              <use
                 id="use525"
                 xlink:href="#LiberationSans-28"
                 transform="translate(500.244140625 0.53125)" />
              <use
                 id="use527"
                 xlink:href="#Cmmi10-21"
                 transform="translate(533.544921875 0.53125)" />
              <use
                 id="use529"
                 xlink:href="#LiberationSans-29"
                 transform="translate(595.751953125 0.53125)" />
            </g>
          </g>
        </g>
        <g
           id="matplotlib.axis_4">
          <g
             id="ytick_7">
            <g
               id="line2d_52">
              <path
                 id="path534"
                 style="fill:none;stroke:#ffffff;stroke-linecap:round;"
                 d=" M630.982 177.043 L1036.8 177.043"
                 clip-path="url(#pf85dad87f0)" />
            </g>
            <g
               id="line2d_53">
              <g
                 id="g537">
                <use
                   id="use539"
                   y="177.042857143"
                   xlink:href="#m219da94a98"
                   x="630.981818182"
                   style="fill:#262626;stroke:#262626;" />
              </g>
            </g>
            <g
               id="line2d_54">
              <g
                 id="g542">
                <use
                   id="use544"
                   y="177.042857143"
                   xlink:href="#m219da94a98"
                   x="1036.8"
                   style="fill:#262626;stroke:#262626;" />
              </g>
            </g>
            <g
               id="text_20">
              <!-- −0.2 -->
              <g
                 id="g547"
                 transform="translate(586.491193182 182.214732143)scale(0.2 -0.2)"
                 style="fill:#262626;">
                <use
                   id="use549"
                   xlink:href="#LiberationSans-2212" />
                <use
                   id="use551"
                   xlink:href="#LiberationSans-30"
                   x="58.3984375" />
                <use
                   id="use553"
                   xlink:href="#LiberationSans-2e"
                   x="114.013671875" />
                <use
                   id="use555"
                   xlink:href="#LiberationSans-32"
                   x="141.796875" />
              </g>
            </g>
          </g>
          <g
             id="ytick_8">
            <g
               id="line2d_55">
              <path
                 id="path559"
                 style="fill:none;stroke:#ffffff;stroke-linecap:round;"
                 d=" M630.982 153.129 L1036.8 153.129"
                 clip-path="url(#pf85dad87f0)" />
            </g>
            <g
               id="line2d_56">
              <g
                 id="g562">
                <use
                   id="use564"
                   y="153.128571429"
                   xlink:href="#m219da94a98"
                   x="630.981818182"
                   style="fill:#262626;stroke:#262626;" />
              </g>
            </g>
            <g
               id="line2d_57">
              <g
                 id="g567">
                <use
                   id="use569"
                   y="153.128571429"
                   xlink:href="#m219da94a98"
                   x="1036.8"
                   style="fill:#262626;stroke:#262626;" />
              </g>
            </g>
            <g
               id="text_21">
              <!-- 0.0 -->
              <g
                 id="g572"
                 transform="translate(597.744318182 158.300446429)scale(0.2 -0.2)"
                 style="fill:#262626;">
                <use
                   id="use574"
                   xlink:href="#LiberationSans-30" />
                <use
                   id="use576"
                   xlink:href="#LiberationSans-2e"
                   x="55.615234375" />
                <use
                   id="use578"
                   xlink:href="#LiberationSans-30"
                   x="83.3984375" />
              </g>
            </g>
          </g>
          <g
             id="ytick_9">
            <g
               id="line2d_58">
              <path
                 id="path582"
                 style="fill:none;stroke:#ffffff;stroke-linecap:round;"
                 d=" M630.982 129.214 L1036.8 129.214"
                 clip-path="url(#pf85dad87f0)" />
            </g>
            <g
               id="line2d_59">
              <g
                 id="g585">
                <use
                   id="use587"
                   y="129.214285714"
                   xlink:href="#m219da94a98"
                   x="630.981818182"
                   style="fill:#262626;stroke:#262626;" />
              </g>
            </g>
            <g
               id="line2d_60">
              <g
                 id="g590">
                <use
                   id="use592"
                   y="129.214285714"
                   xlink:href="#m219da94a98"
                   x="1036.8"
                   style="fill:#262626;stroke:#262626;" />
              </g>
            </g>
            <g
               id="text_22">
              <!-- 0.2 -->
              <g
                 id="g595"
                 transform="translate(597.966193182 134.386160714)scale(0.2 -0.2)"
                 style="fill:#262626;">
                <use
                   id="use597"
                   xlink:href="#LiberationSans-30" />
                <use
                   id="use599"
                   xlink:href="#LiberationSans-2e"
                   x="55.615234375" />
                <use
                   id="use601"
                   xlink:href="#LiberationSans-32"
                   x="83.3984375" />
              </g>
            </g>
          </g>
          <g
             id="ytick_10">
            <g
               id="line2d_61">
              <path
                 id="path605"
                 style="fill:none;stroke:#ffffff;stroke-linecap:round;"
                 d=" M630.982 105.3 L1036.8 105.3"
                 clip-path="url(#pf85dad87f0)" />
            </g>
            <g
               id="line2d_62">
              <g
                 id="g608">
                <use
                   id="use610"
                   y="105.3"
                   xlink:href="#m219da94a98"
                   x="630.981818182"
                   style="fill:#262626;stroke:#262626;" />
              </g>
            </g>
            <g
               id="line2d_63">
              <g
                 id="g613">
                <use
                   id="use615"
                   y="105.3"
                   xlink:href="#m219da94a98"
                   x="1036.8"
                   style="fill:#262626;stroke:#262626;" />
              </g>
            </g>
            <g
               id="text_23">
              <!-- 0.4 -->
              <g
                 id="g618"
                 transform="translate(597.547443182 110.471875)scale(0.2 -0.2)"
                 style="fill:#262626;">
                <use
                   id="use620"
                   xlink:href="#LiberationSans-30" />
                <use
                   id="use622"
                   xlink:href="#LiberationSans-2e"
                   x="55.615234375" />
                <use
                   id="use624"
                   xlink:href="#LiberationSans-34"
                   x="83.3984375" />
              </g>
            </g>
          </g>
          <g
             id="ytick_11">
            <g
               id="line2d_64">
              <path
                 id="path628"
                 style="fill:none;stroke:#ffffff;stroke-linecap:round;"
                 d=" M630.982 81.3857 L1036.8 81.3857"
                 clip-path="url(#pf85dad87f0)" />
            </g>
            <g
               id="line2d_65">
              <g
                 id="g631">
                <use
                   id="use633"
                   y="81.3857142857"
                   xlink:href="#m219da94a98"
                   x="630.981818182"
                   style="fill:#262626;stroke:#262626;" />
              </g>
            </g>
            <g
               id="line2d_66">
              <g
                 id="g636">
                <use
                   id="use638"
                   y="81.3857142857"
                   xlink:href="#m219da94a98"
                   x="1036.8"
                   style="fill:#262626;stroke:#262626;" />
              </g>
            </g>
            <g
               id="text_24">
              <!-- 0.6 -->
              <g
                 id="g641"
                 transform="translate(597.841193182 86.5575892857)scale(0.2 -0.2)"
                 style="fill:#262626;">
                <use
                   id="use643"
                   xlink:href="#LiberationSans-30" />
                <use
                   id="use645"
                   xlink:href="#LiberationSans-2e"
                   x="55.615234375" />
                <use
                   id="use647"
                   xlink:href="#LiberationSans-36"
                   x="83.3984375" />
              </g>
            </g>
          </g>
          <g
             id="ytick_12">
            <g
               id="line2d_67">
              <path
                 id="path651"
                 style="fill:none;stroke:#ffffff;stroke-linecap:round;"
                 d=" M630.982 57.4714 L1036.8 57.4714"
                 clip-path="url(#pf85dad87f0)" />
            </g>
            <g
               id="line2d_68">
              <g
                 id="g654">
                <use
                   id="use656"
                   y="57.4714285714"
                   xlink:href="#m219da94a98"
                   x="630.981818182"
                   style="fill:#262626;stroke:#262626;" />
              </g>
            </g>
            <g
               id="line2d_69">
              <g
                 id="g659">
                <use
                   id="use661"
                   y="57.4714285714"
                   xlink:href="#m219da94a98"
                   x="1036.8"
                   style="fill:#262626;stroke:#262626;" />
              </g>
            </g>
            <g
               id="text_25">
              <!-- 0.8 -->
              <g
                 id="g664"
                 transform="translate(597.831818182 62.6433035714)scale(0.2 -0.2)"
                 style="fill:#262626;">
                <use
                   id="use666"
                   xlink:href="#LiberationSans-30" />
                <use
                   id="use668"
                   xlink:href="#LiberationSans-2e"
                   x="55.615234375" />
                <use
                   id="use670"
                   xlink:href="#LiberationSans-38"
                   x="83.3984375" />
              </g>
            </g>
          </g>
          <g
             id="ytick_13">
            <g
               id="line2d_70">
              <path
                 id="path674"
                 style="fill:none;stroke:#ffffff;stroke-linecap:round;"
                 d=" M630.982 33.5571 L1036.8 33.5571"
                 clip-path="url(#pf85dad87f0)" />
            </g>
            <g
               id="line2d_71">
              <g
                 id="g677">
                <use
                   id="use679"
                   y="33.5571428571"
                   xlink:href="#m219da94a98"
                   x="630.981818182"
                   style="fill:#262626;stroke:#262626;" />
              </g>
            </g>
            <g
               id="line2d_72">
              <g
                 id="g682">
                <use
                   id="use684"
                   y="33.5571428571"
                   xlink:href="#m219da94a98"
                   x="1036.8"
                   style="fill:#262626;stroke:#262626;" />
              </g>
            </g>
            <g
               id="text_26">
              <!-- 1.0 -->
              <g
                 id="g687"
                 transform="translate(598.488068182 38.7290178571)scale(0.2 -0.2)"
                 style="fill:#262626;">
                <use
                   id="use689"
                   xlink:href="#LiberationSans-31" />
                <use
                   id="use691"
                   xlink:href="#LiberationSans-2e"
                   x="55.615234375" />
                <use
                   id="use693"
                   xlink:href="#LiberationSans-30"
                   x="83.3984375" />
              </g>
            </g>
          </g>
        </g>
        <g
           id="line2d_73">
          <path
             id="path696"
             style="fill:none;stroke:#4c72b0;stroke-linecap:round;stroke-width:1.75;"
             d=" M630.982 154.713 L632.015 154.725 L633.049 154.512 L634.211 154.038 L635.934 153.061 L638.044 151.916 L639.207 151.539 L640.24 151.437 L641.231 151.563 L642.307 151.93 L643.642 152.638 L647.044 154.558 L648.121 154.848 L649.111 154.886 L650.101 154.697 L651.178 154.259 L652.599 153.422 L655.355 151.759 L656.475 151.375 L657.465 151.272 L658.412 151.399 L659.446 151.771 L660.695 152.477 L664.441 154.772 L665.475 155.044 L666.422 155.059 L667.369 154.844 L668.403 154.376 L669.781 153.484 L672.58 151.613 L673.656 151.197 L674.604 151.071 L675.508 151.177 L676.456 151.516 L677.575 152.165 L679.47 153.579 L681.106 154.683 L682.183 155.145 L683.087 155.3 L683.948 155.231 L684.853 154.936 L685.886 154.356 L687.35 153.248 L689.633 151.532 L690.709 151.019 L691.613 150.83 L692.475 150.88 L693.336 151.152 L694.326 151.707 L695.661 152.743 L698.331 154.881 L699.365 155.388 L700.226 155.575 L701.044 155.531 L701.905 155.254 L702.853 154.704 L704.101 153.694 L707.073 151.174 L708.063 150.683 L708.924 150.508 L709.743 150.578 L710.561 150.876 L711.508 151.474 L712.714 152.522 L715.685 155.226 L716.633 155.737 L717.451 155.937 L718.226 155.898 L719.001 155.637 L719.862 155.109 L720.939 154.171 L724.771 150.553 L725.633 150.178 L726.408 150.084 L727.14 150.218 L727.915 150.588 L728.819 151.28 L730.025 152.518 L732.824 155.514 L733.728 156.124 L734.503 156.398 L735.235 156.42 L735.967 156.208 L736.743 155.741 L737.647 154.926 L738.939 153.42 L741.264 150.682 L742.211 149.928 L742.987 149.581 L743.676 149.505 L744.365 149.658 L745.097 150.063 L745.915 150.782 L746.991 152.054 L750.35 156.288 L751.168 156.869 L751.857 157.109 L752.503 157.11 L753.149 156.888 L753.881 156.38 L754.743 155.477 L755.862 153.941 L758.704 149.877 L759.566 149.093 L760.255 148.737 L760.9 148.65 L761.503 148.793 L762.149 149.183 L762.881 149.897 L763.786 151.112 L765.164 153.399 L767.015 156.404 L767.92 157.467 L768.652 158.006 L769.255 158.197 L769.814 158.158 L770.417 157.879 L771.063 157.319 L771.838 156.325 L772.829 154.657 L776.317 148.391 L777.049 147.657 L777.652 147.331 L778.211 147.275 L778.728 147.44 L779.288 147.852 L779.934 148.612 L780.752 149.957 L781.829 152.204 L784.585 158.156 L785.403 159.314 L786.049 159.868 L786.566 160.052 L787.039 160.007 L787.556 159.72 L788.116 159.136 L788.805 158.053 L789.623 156.321 L790.829 153.175 L792.982 147.5 L793.843 145.861 L794.489 145.055 L795.006 144.714 L795.479 144.659 L795.91 144.83 L796.384 145.26 L796.944 146.088 L797.633 147.547 L798.494 149.94 L799.829 154.426 L801.637 160.38 L802.499 162.472 L803.144 163.513 L803.661 163.958 L804.092 164.044 L804.479 163.89 L804.91 163.46 L805.427 162.585 L806.03 161.095 L806.805 158.516 L807.838 154.192 L810.81 141.193 L811.542 139.147 L812.101 138.172 L812.532 137.818 L812.877 137.801 L813.221 138.029 L813.609 138.584 L814.082 139.693 L814.642 141.601 L815.331 144.776 L816.235 150.115 L817.613 159.827 L819.336 171.656 L820.154 175.865 L820.757 177.965 L821.231 178.886 L821.532 179.098 L821.79 179.033 L822.092 178.656 L822.436 177.813 L822.867 176.12 L823.384 173.129 L824.03 167.91 L824.762 160.059 L825.666 147.765 L826.829 128.556 L829.068 86.6766 L830.532 61.5628 L831.522 48.082 L832.298 40.3135 L832.9 36.229 L833.374 34.3104 L833.719 33.6518 L833.977 33.5699 L834.192 33.7719 L834.494 34.466 L834.881 36.0553 L835.355 39.0352 L835.958 44.3959 L836.69 53.0527 L837.637 67.1762 L838.972 90.8662 L841.944 144.613 L843.02 159.653 L843.881 168.786 L844.613 174.302 L845.216 177.258 L845.69 178.594 L846.034 179.039 L846.293 179.096 L846.551 178.924 L846.896 178.359 L847.326 177.152 L847.886 174.848 L848.618 170.819 L849.738 163.215 L852.106 146.865 L853.011 142.272 L853.7 139.789 L854.259 138.49 L854.733 137.907 L855.078 137.779 L855.422 137.893 L855.81 138.299 L856.283 139.168 L856.886 140.806 L857.661 143.621 L858.824 148.791 L860.934 158.226 L861.838 161.244 L862.527 162.858 L863.087 163.675 L863.561 164.007 L863.948 164.033 L864.336 163.843 L864.81 163.333 L865.369 162.366 L866.101 160.593 L867.092 157.528 L870.106 147.736 L870.924 145.996 L871.57 145.108 L872.087 144.732 L872.561 144.654 L872.991 144.801 L873.508 145.241 L874.111 146.085 L874.843 147.521 L875.877 150.096 L878.719 157.485 L879.537 158.915 L880.183 159.656 L880.743 159.995 L881.259 160.051 L881.776 159.863 L882.336 159.398 L882.982 158.556 L883.8 157.105 L885.049 154.368 L887.073 149.939 L887.977 148.481 L888.709 147.692 L889.312 147.342 L889.872 147.271 L890.432 147.443 L891.034 147.885 L891.723 148.682 L892.628 150.109 L894.092 152.924 L895.728 155.942 L896.676 157.235 L897.408 157.886 L898.054 158.171 L898.613 158.19 L899.216 157.978 L899.862 157.498 L900.637 156.623 L901.671 155.077 L904.944 149.886 L905.762 149.11 L906.451 148.741 L907.097 148.65 L907.7 148.788 L908.345 149.162 L909.121 149.887 L910.111 151.152 L913.857 156.313 L914.633 156.871 L915.322 157.111 L915.967 157.108 L916.613 156.886 L917.345 156.391 L918.25 155.481 L919.542 153.81 L921.738 150.953 L922.685 150.087 L923.46 149.654 L924.149 149.505 L924.838 149.583 L925.57 149.908 L926.389 150.53 L927.422 151.617 L931.082 155.748 L931.944 156.249 L932.676 156.431 L933.408 156.377 L934.14 156.096 L935.001 155.506 L936.078 154.467 L939.695 150.722 L940.556 150.26 L941.331 150.088 L942.063 150.148 L942.838 150.439 L943.743 151.039 L944.905 152.111 L948.049 155.179 L948.996 155.717 L949.814 155.932 L950.589 155.906 L951.408 155.641 L952.312 155.098 L953.475 154.113 L956.747 151.166 L957.695 150.688 L958.513 150.511 L959.331 150.566 L960.149 150.846 L961.097 151.412 L962.345 152.44 L965.144 154.827 L966.135 155.348 L966.996 155.565 L967.814 155.549 L968.676 155.302 L969.623 154.793 L970.872 153.846 L973.886 151.457 L974.877 151 L975.781 150.826 L976.642 150.892 L977.546 151.194 L978.58 151.786 L980.087 152.939 L982.197 154.527 L983.274 155.062 L984.221 155.286 L985.082 155.267 L985.987 155.024 L987.02 154.503 L988.441 153.506 L990.939 151.733 L992.015 151.258 L992.963 151.078 L993.867 151.133 L994.814 151.419 L995.934 152.008 L997.656 153.211 L999.508 154.429 L1000.63 154.902 L1001.58 155.074 L1002.52 155.014 L1003.51 154.717 L1004.68 154.116 L1006.7 152.755 L1008.29 151.808 L1009.41 151.396 L1010.4 151.272 L1011.35 151.377 L1012.38 151.725 L1013.63 152.394 L1017.42 154.6 L1018.46 154.86 L1019.45 154.879 L1020.44 154.674 L1021.56 154.208 L1023.15 153.275 L1025.43 151.965 L1026.59 151.561 L1027.63 151.437 L1028.62 151.541 L1029.69 151.883 L1031.03 152.556 L1034.47 154.414 L1035.59 154.7 L1036.63 154.734 L1036.8 154.717 L1036.8 154.717"
             clip-path="url(#pf85dad87f0)" />
        </g>
        <g
           id="patch_8">
          <path
             id="path699"
             style="fill:none;"
             d=" M630.982 21.6 L1036.8 21.6" />
        </g>
        <g
           id="patch_9">
          <path
             id="path702"
             style="fill:none;"
             d=" M1036.8 189 L1036.8 21.6" />
        </g>
        <g
           id="patch_10">
          <path
             id="path705"
             style="fill:none;"
             d=" M630.982 189 L1036.8 189" />
        </g>
        <g
           id="patch_11">
          <path
             id="path708"
             style="fill:none;"
             d=" M630.982 189 L630.982 21.6" />
        </g>
        <g
           id="legend_2">
          <g
             id="line2d_74">
            <path
               id="path712"
               style="fill:none;stroke:#4c72b0;stroke-linecap:round;stroke-width:1.75;"
               d=" M939.167 44.5444 L975.167 44.5444" />
          </g>
          <g
             id="line2d_75" />
          <g
             id="text_27">
            <!-- sinc -->
            <g
               id="g716"
               transform="translate(989.566875 50.844375)scale(0.18 -0.18)"
               style="fill:#262626;">
              <use
                 id="use718"
                 xlink:href="#LiberationSans-73" />
              <use
                 id="use720"
                 xlink:href="#LiberationSans-69"
                 x="50.0" />
              <use
                 id="use722"
                 xlink:href="#LiberationSans-6e"
                 x="72.216796875" />
              <use
                 id="use724"
                 xlink:href="#LiberationSans-63"
                 x="127.83203125" />
            </g>
          </g>
        </g>
      </g>
    </g>
  </g>
  <defs
     id="defs726">
    <clipPath
       id="p1b72ccf5f4">
      <rect
         height="167.4"
         width="405.818181818"
         x="144.0"
         y="21.6"
         id="rect729" />
    </clipPath>
    <clipPath
       id="pf85dad87f0">
      <rect
         height="167.4"
         width="405.818181818"
         x="630.981818182"
         y="21.6"
         id="rect732" />
    </clipPath>
  </defs>
</svg>
