<?xml version="1.0" encoding="utf-8" standalone="no"?>
<!DOCTYPE svg PUBLIC "-//W3C//DTD SVG 1.1//EN"
  "http://www.w3.org/Graphics/SVG/1.1/DTD/svg11.dtd">
<!-- Created with matplotlib (http://matplotlib.org/) -->
<svg height="432pt" version="1.1" viewBox="0 0 1152 432" width="1152pt" xmlns="http://www.w3.org/2000/svg" xmlns:xlink="http://www.w3.org/1999/xlink">
 <defs>
  <style type="text/css">
*{stroke-linecap:butt;stroke-linejoin:round;}
  </style>
 </defs>
 <g id="figure_1">
  <g id="patch_1">
   <path d="
M0 432
L1152 432
L1152 0
L0 0
z
" style="fill:#ffffff;"/>
  </g>
  <g id="axes_1">
   <g id="patch_2">
    <path d="
M144 378
L1036.8 378
L1036.8 43.2
L144 43.2
z
" style="fill:#eaeaf2;"/>
   </g>
   <g id="matplotlib.axis_1">
    <g id="xtick_1">
     <g id="line2d_1">
      <path clip-path="url(#pdb549dcaba)" d="
M218.462 378
L218.462 43.2" style="fill:none;stroke:#ffffff;stroke-linecap:round;"/>
     </g>
     <g id="line2d_2">
      <defs>
       <path d="
M0 0
L0 0" id="m219da94a98" style="stroke:#262626;"/>
      </defs>
      <g>
       <use style="fill:#262626;stroke:#262626;" x="218.46205171" xlink:href="#m219da94a98" y="378.0"/>
      </g>
     </g>
     <g id="line2d_3">
      <g>
       <use style="fill:#262626;stroke:#262626;" x="218.46205171" xlink:href="#m219da94a98" y="43.2"/>
      </g>
     </g>
     <g id="text_1">
      <!-- −0.4 -->
      <defs>
       <path d="
M4.9375 29.6875
L4.9375 36.8125
L53.5156 36.8125
L53.5156 29.6875
z
" id="LiberationSans-2212"/>
       <path d="
M43.0156 15.5781
L43.0156 0
L34.7188 0
L34.7188 15.5781
L2.29688 15.5781
L2.29688 22.4062
L33.7969 68.7969
L43.0156 68.7969
L43.0156 22.5156
L52.6875 22.5156
L52.6875 15.5781
z

M34.7188 58.8906
Q34.625 58.6406 34.2344 57.9375
Q33.8438 57.2344 33.3438 56.3438
Q32.8594 55.4688 32.3438 54.5625
Q31.8438 53.6562 31.4531 53.0781
L13.8125 27.0938
Q13.5781 26.7031 13.1094 26.0625
Q12.6406 25.4375 12.1562 24.7812
Q11.6719 24.125 11.1719 23.4844
Q10.6875 22.8594 10.4062 22.5156
L34.7188 22.5156
z
" id="LiberationSans-34"/>
       <path d="
M9.125 0
L9.125 10.6875
L18.6562 10.6875
L18.6562 0
z
" id="LiberationSans-2e"/>
       <path d="
M51.7031 34.4219
Q51.7031 24.5156 49.8281 17.75
Q47.9531 10.9844 44.7031 6.8125
Q41.4531 2.64062 37.0625 0.828125
Q32.6719 -0.984375 27.6875 -0.984375
Q22.6562 -0.984375 18.3125 0.828125
Q13.9688 2.64062 10.7656 6.78125
Q7.5625 10.9375 5.73438 17.7031
Q3.90625 24.4688 3.90625 34.4219
Q3.90625 44.8281 5.73438 51.6406
Q7.5625 58.4531 10.7812 62.5
Q14.0156 66.5469 18.4062 68.1875
Q22.7969 69.8281 27.9844 69.8281
Q32.9062 69.8281 37.2188 68.1875
Q41.5469 66.5469 44.7656 62.5
Q48 58.4531 49.8438 51.6406
Q51.7031 44.8281 51.7031 34.4219
M42.7812 34.4219
Q42.7812 42.625 41.7969 48.0625
Q40.8281 53.5156 38.9219 56.7656
Q37.0156 60.0156 34.25 61.3594
Q31.5 62.7031 27.9844 62.7031
Q24.2656 62.7031 21.4375 61.3281
Q18.6094 59.9688 16.6719 56.7188
Q14.75 53.4688 13.7656 48.0156
Q12.7969 42.5781 12.7969 34.4219
Q12.7969 26.5156 13.7969 21.0938
Q14.7969 15.6719 16.7188 12.375
Q18.6562 9.07812 21.4375 7.64062
Q24.2188 6.20312 27.7812 6.20312
Q31.25 6.20312 34.0312 7.64062
Q36.8125 9.07812 38.7344 12.375
Q40.6719 15.6719 41.7188 21.0938
Q42.7812 26.5156 42.7812 34.4219" id="LiberationSans-30"/>
      </defs>
      <g style="fill:#262626;" transform="translate(199.50736421 399.49375)scale(0.2 -0.2)">
       <use xlink:href="#LiberationSans-2212"/>
       <use x="58.3984375" xlink:href="#LiberationSans-30"/>
       <use x="114.013671875" xlink:href="#LiberationSans-2e"/>
       <use x="141.796875" xlink:href="#LiberationSans-34"/>
      </g>
     </g>
    </g>
    <g id="xtick_2">
     <g id="line2d_4">
      <path clip-path="url(#pdb549dcaba)" d="
M367.386 378
L367.386 43.2" style="fill:none;stroke:#ffffff;stroke-linecap:round;"/>
     </g>
     <g id="line2d_5">
      <g>
       <use style="fill:#262626;stroke:#262626;" x="367.386155129" xlink:href="#m219da94a98" y="378.0"/>
      </g>
     </g>
     <g id="line2d_6">
      <g>
       <use style="fill:#262626;stroke:#262626;" x="367.386155129" xlink:href="#m219da94a98" y="43.2"/>
      </g>
     </g>
     <g id="text_2">
      <!-- −0.2 -->
      <defs>
       <path d="
M5.03125 0
L5.03125 6.20312
Q7.51562 11.9219 11.1094 16.2812
Q14.7031 20.6562 18.6562 24.1875
Q22.6094 27.7344 26.4844 30.7656
Q30.375 33.7969 33.5 36.8125
Q36.625 39.8438 38.5469 43.1562
Q40.4844 46.4844 40.4844 50.6875
Q40.4844 53.6094 39.5938 55.8281
Q38.7188 58.0625 37.0625 59.5625
Q35.4062 61.0781 33.0781 61.8281
Q30.7656 62.5938 27.9375 62.5938
Q25.2969 62.5938 22.9688 61.8594
Q20.6562 61.1406 18.8438 59.6719
Q17.0469 58.2031 15.8906 56.0312
Q14.75 53.8594 14.4062 50.9844
L5.42188 51.8125
Q5.85938 55.5156 7.46875 58.7812
Q9.07812 62.0625 11.9062 64.5312
Q14.75 67 18.7188 68.4062
Q22.7031 69.8281 27.9375 69.8281
Q33.0625 69.8281 37.0625 68.6094
Q41.0625 67.3906 43.8125 64.9844
Q46.5781 62.5938 48.0469 59.0781
Q49.5156 55.5625 49.5156 50.9844
Q49.5156 47.5156 48.2656 44.3906
Q47.0156 41.2656 44.9375 38.4219
Q42.875 35.5938 40.1406 32.9531
Q37.4062 30.3281 34.4219 27.8125
Q31.4531 25.2969 28.4219 22.8281
Q25.3906 20.3594 22.7188 17.8594
Q20.0625 15.375 17.9688 12.8125
Q15.875 10.25 14.7031 7.46875
L50.5938 7.46875
L50.5938 0
z
" id="LiberationSans-32"/>
      </defs>
      <g style="fill:#262626;" transform="translate(348.640842629 399.49375)scale(0.2 -0.2)">
       <use xlink:href="#LiberationSans-2212"/>
       <use x="58.3984375" xlink:href="#LiberationSans-30"/>
       <use x="114.013671875" xlink:href="#LiberationSans-2e"/>
       <use x="141.796875" xlink:href="#LiberationSans-32"/>
      </g>
     </g>
    </g>
    <g id="xtick_3">
     <g id="line2d_7">
      <path clip-path="url(#pdb549dcaba)" d="
M516.31 378
L516.31 43.2" style="fill:none;stroke:#ffffff;stroke-linecap:round;"/>
     </g>
     <g id="line2d_8">
      <g>
       <use style="fill:#262626;stroke:#262626;" x="516.310258549" xlink:href="#m219da94a98" y="378.0"/>
      </g>
     </g>
     <g id="line2d_9">
      <g>
       <use style="fill:#262626;stroke:#262626;" x="516.310258549" xlink:href="#m219da94a98" y="43.2"/>
      </g>
     </g>
     <g id="text_3">
      <!-- 0.0 -->
      <g style="fill:#262626;" transform="translate(503.191508549 399.49375)scale(0.2 -0.2)">
       <use xlink:href="#LiberationSans-30"/>
       <use x="55.615234375" xlink:href="#LiberationSans-2e"/>
       <use x="83.3984375" xlink:href="#LiberationSans-30"/>
      </g>
     </g>
    </g>
    <g id="xtick_4">
     <g id="line2d_10">
      <path clip-path="url(#pdb549dcaba)" d="
M665.234 378
L665.234 43.2" style="fill:none;stroke:#ffffff;stroke-linecap:round;"/>
     </g>
     <g id="line2d_11">
      <g>
       <use style="fill:#262626;stroke:#262626;" x="665.234361968" xlink:href="#m219da94a98" y="378.0"/>
      </g>
     </g>
     <g id="line2d_12">
      <g>
       <use style="fill:#262626;stroke:#262626;" x="665.234361968" xlink:href="#m219da94a98" y="43.2"/>
      </g>
     </g>
     <g id="text_4">
      <!-- 0.2 -->
      <g style="fill:#262626;" transform="translate(652.226549468 399.49375)scale(0.2 -0.2)">
       <use xlink:href="#LiberationSans-30"/>
       <use x="55.615234375" xlink:href="#LiberationSans-2e"/>
       <use x="83.3984375" xlink:href="#LiberationSans-32"/>
      </g>
     </g>
    </g>
    <g id="xtick_5">
     <g id="line2d_13">
      <path clip-path="url(#pdb549dcaba)" d="
M814.158 378
L814.158 43.2" style="fill:none;stroke:#ffffff;stroke-linecap:round;"/>
     </g>
     <g id="line2d_14">
      <g>
       <use style="fill:#262626;stroke:#262626;" x="814.158465388" xlink:href="#m219da94a98" y="378.0"/>
      </g>
     </g>
     <g id="line2d_15">
      <g>
       <use style="fill:#262626;stroke:#262626;" x="814.158465388" xlink:href="#m219da94a98" y="43.2"/>
      </g>
     </g>
     <g id="text_5">
      <!-- 0.4 -->
      <g style="fill:#262626;" transform="translate(800.941277888 399.49375)scale(0.2 -0.2)">
       <use xlink:href="#LiberationSans-30"/>
       <use x="55.615234375" xlink:href="#LiberationSans-2e"/>
       <use x="83.3984375" xlink:href="#LiberationSans-34"/>
      </g>
     </g>
    </g>
    <g id="xtick_6">
     <g id="line2d_16">
      <path clip-path="url(#pdb549dcaba)" d="
M963.083 378
L963.083 43.2" style="fill:none;stroke:#ffffff;stroke-linecap:round;"/>
     </g>
     <g id="line2d_17">
      <g>
       <use style="fill:#262626;stroke:#262626;" x="963.082568807" xlink:href="#m219da94a98" y="378.0"/>
      </g>
     </g>
     <g id="line2d_18">
      <g>
       <use style="fill:#262626;stroke:#262626;" x="963.082568807" xlink:href="#m219da94a98" y="43.2"/>
      </g>
     </g>
     <g id="text_6">
      <!-- 0.6 -->
      <defs>
       <path d="
M51.2188 22.5156
Q51.2188 17.3281 49.7812 13
Q48.3438 8.6875 45.5312 5.57812
Q42.7188 2.48438 38.5625 0.75
Q34.4219 -0.984375 29 -0.984375
Q23 -0.984375 18.5 1.3125
Q14.0156 3.60938 11.0312 7.92188
Q8.0625 12.25 6.5625 18.5312
Q5.07812 24.8125 5.07812 32.8125
Q5.07812 42 6.76562 48.9219
Q8.45312 55.8594 11.625 60.5
Q14.7969 65.1406 19.3594 67.4844
Q23.9219 69.8281 29.6875 69.8281
Q33.2031 69.8281 36.2812 69.0938
Q39.3594 68.3594 41.875 66.7188
Q44.3906 65.0938 46.2812 62.4062
Q48.1875 59.7188 49.3125 55.8125
L40.9219 54.2969
Q39.5469 58.7344 36.5469 60.7188
Q33.5469 62.7031 29.5938 62.7031
Q25.9844 62.7031 23.0469 60.9844
Q20.125 59.2812 18.0625 55.875
Q16.0156 52.4844 14.9062 47.3594
Q13.8125 42.2344 13.8125 35.4062
Q16.2188 39.8438 20.5625 42.1562
Q24.9062 44.4844 30.5156 44.4844
Q35.2031 44.4844 39.0156 42.9688
Q42.8281 41.4531 45.5312 38.5938
Q48.25 35.75 49.7344 31.6719
Q51.2188 27.5938 51.2188 22.5156
M42.2812 22.125
Q42.2812 25.6875 41.4062 28.5625
Q40.5312 31.4531 38.7656 33.4688
Q37.0156 35.5 34.4219 36.5938
Q31.8438 37.7031 28.4219 37.7031
Q26.0312 37.7031 23.5781 36.9844
Q21.1406 36.2812 19.1562 34.6875
Q17.1875 33.1094 15.9375 30.5156
Q14.7031 27.9375 14.7031 24.2188
Q14.7031 20.4062 15.6719 17.1094
Q16.6562 13.8125 18.4844 11.375
Q20.3125 8.9375 22.8906 7.51562
Q25.4844 6.10938 28.7188 6.10938
Q31.8906 6.10938 34.4062 7.20312
Q36.9219 8.29688 38.6719 10.375
Q40.4375 12.4531 41.3594 15.4219
Q42.2812 18.4062 42.2812 22.125" id="LiberationSans-36"/>
      </defs>
      <g style="fill:#262626;" transform="translate(950.012256307 399.49375)scale(0.2 -0.2)">
       <use xlink:href="#LiberationSans-30"/>
       <use x="55.615234375" xlink:href="#LiberationSans-2e"/>
       <use x="83.3984375" xlink:href="#LiberationSans-36"/>
      </g>
     </g>
    </g>
    <g id="text_7">
     <!-- Time (s) -->
     <defs>
      <path d="
M46.3906 14.5938
Q46.3906 10.8906 44.9375 7.98438
Q43.5 5.07812 40.7656 3.09375
Q38.0312 1.125 34.0469 0.0625
Q30.0781 -0.984375 24.9531 -0.984375
Q20.3594 -0.984375 16.6719 -0.265625
Q12.9844 0.4375 10.2031 2
Q7.42188 3.5625 5.53125 6.125
Q3.65625 8.6875 2.78125 12.4062
L10.5469 13.9219
Q11.6719 9.67188 15.1875 7.6875
Q18.7031 5.71875 24.9531 5.71875
Q27.7812 5.71875 30.1406 6.10938
Q32.5156 6.5 34.2188 7.45312
Q35.9375 8.40625 36.8906 9.98438
Q37.8438 11.5781 37.8438 13.9219
Q37.8438 16.3125 36.7188 17.8438
Q35.5938 19.3906 33.5938 20.4062
Q31.5938 21.4375 28.7344 22.1875
Q25.875 22.9531 22.4688 23.875
Q19.2812 24.7031 16.1562 25.7344
Q13.0312 26.7656 10.5156 28.4375
Q8.01562 30.125 6.45312 32.6094
Q4.89062 35.1094 4.89062 38.875
Q4.89062 46.0938 10.0312 49.875
Q15.1875 53.6562 25.0469 53.6562
Q33.7969 53.6562 38.9375 50.5781
Q44.0938 47.5156 45.4531 40.7188
L37.5469 39.75
Q37.1094 41.7969 35.9375 43.1875
Q34.7656 44.5781 33.1094 45.4375
Q31.4531 46.2969 29.375 46.6562
Q27.2969 47.0156 25.0469 47.0156
Q19.0938 47.0156 16.25 45.2031
Q13.4219 43.4062 13.4219 39.75
Q13.4219 37.5938 14.4688 36.2031
Q15.5312 34.8125 17.4062 33.8594
Q19.2812 32.9062 21.9219 32.2031
Q24.5625 31.5 27.7344 30.7188
Q29.8281 30.1719 32.0312 29.5625
Q34.2344 28.9531 36.2969 28.0938
Q38.375 27.25 40.2031 26.0938
Q42.0469 24.9531 43.4062 23.3438
Q44.7812 21.7344 45.5781 19.5781
Q46.3906 17.4375 46.3906 14.5938" id="LiberationSans-73"/>
      <path d="
M6.20312 25.9844
Q6.20312 32.7656 7.21875 38.9688
Q8.25 45.1719 10.4375 50.875
Q12.6406 56.5938 16.0625 61.9531
Q19.4844 67.3281 24.2188 72.4688
L32.7188 72.4688
Q28.125 67.3281 24.7812 61.9375
Q21.4375 56.5469 19.2812 50.7969
Q17.1406 45.0625 16.0938 38.8594
Q15.0469 32.6719 15.0469 25.875
Q15.0469 19.0938 16.0938 12.8906
Q17.1406 6.6875 19.2812 0.921875
Q21.4375 -4.82812 24.7812 -10.2031
Q28.125 -15.5781 32.7188 -20.7031
L24.2188 -20.7031
Q19.4844 -15.5781 16.0625 -10.2031
Q12.6406 -4.82812 10.4375 0.875
Q8.25 6.59375 7.21875 12.7656
Q6.20312 18.9531 6.20312 25.7812
z
" id="LiberationSans-28"/>
      <path d="
M13.4844 24.5625
Q13.4844 20.4062 14.3281 16.9062
Q15.1875 13.4219 16.9688 10.9062
Q18.75 8.40625 21.5312 7
Q24.3125 5.60938 28.2188 5.60938
Q33.9375 5.60938 37.375 7.90625
Q40.8281 10.2031 42.0469 13.7188
L49.75 11.5312
Q48.9219 9.32812 47.4375 7.10938
Q45.9531 4.89062 43.4531 3.09375
Q40.9688 1.3125 37.2344 0.15625
Q33.5 -0.984375 28.2188 -0.984375
Q16.5 -0.984375 10.375 6
Q4.25 12.9844 4.25 26.7656
Q4.25 34.1875 6.09375 39.3281
Q7.95312 44.4844 11.1719 47.7031
Q14.4062 50.9219 18.7031 52.3594
Q23 53.8125 27.875 53.8125
Q34.5156 53.8125 38.9844 51.6562
Q43.4531 49.5156 46.1562 45.7188
Q48.875 41.9375 50.0156 36.8125
Q51.1719 31.6875 51.1719 25.7344
L51.1719 24.5625
z

M42.0938 31.2969
Q41.3594 39.6562 37.8438 43.4844
Q34.3281 47.3125 27.7344 47.3125
Q25.5312 47.3125 23.1094 46.6094
Q20.7031 45.9062 18.6562 44.0938
Q16.6094 42.2812 15.1875 39.1719
Q13.7656 36.0781 13.5781 31.2969
z
" id="LiberationSans-65"/>
      <path d="
M6.6875 64.0625
L6.6875 72.4688
L15.4844 72.4688
L15.4844 64.0625
z

M6.6875 0
L6.6875 52.8281
L15.4844 52.8281
L15.4844 0
z
" id="LiberationSans-69"/>
      <path d="
M37.5 0
L37.5 33.5
Q37.5 37.3594 37.0156 39.9375
Q36.5312 42.5312 35.375 44.1094
Q34.2344 45.7031 32.375 46.3594
Q30.5156 47.0156 27.8281 47.0156
Q25.0469 47.0156 22.7969 45.9219
Q20.5625 44.8281 18.9688 42.75
Q17.3906 40.6719 16.5312 37.625
Q15.6719 34.5781 15.6719 30.6094
L15.6719 0
L6.9375 0
L6.9375 41.5469
Q6.9375 43.2188 6.90625 45.0469
Q6.89062 46.875 6.82812 48.5
Q6.78125 50.1406 6.73438 51.3125
Q6.6875 52.4844 6.64062 52.8281
L14.9375 52.8281
Q14.9844 52.5938 15.0312 51.5156
Q15.0938 50.4375 15.1562 49.0469
Q15.2344 47.6562 15.2812 46.2188
Q15.3281 44.7812 15.3281 43.7969
L15.4844 43.7969
Q16.6562 46.0938 18.0156 47.9531
Q19.3906 49.8125 21.2188 51.0938
Q23.0469 52.3906 25.4062 53.0938
Q27.7812 53.8125 30.9062 53.8125
Q36.9219 53.8125 40.4062 51.4219
Q43.8906 49.0312 45.2656 43.7969
L45.4062 43.7969
Q46.5781 46.0938 48.0469 47.9531
Q49.5156 49.8125 51.4688 51.0938
Q53.4219 52.3906 55.8594 53.0938
Q58.2969 53.8125 61.4219 53.8125
Q65.4375 53.8125 68.3281 52.7344
Q71.2344 51.6562 73.0938 49.4062
Q74.9531 47.1719 75.8281 43.625
Q76.7031 40.0938 76.7031 35.2031
L76.7031 0
L68.0156 0
L68.0156 33.5
Q68.0156 37.3594 67.5312 39.9375
Q67.0469 42.5312 65.8906 44.1094
Q64.75 45.7031 62.8906 46.3594
Q61.0312 47.0156 58.3438 47.0156
Q55.5625 47.0156 53.3125 45.9688
Q51.0781 44.9219 49.4844 42.875
Q47.9062 40.8281 47.0469 37.75
Q46.1875 34.6719 46.1875 30.6094
L46.1875 0
z
" id="LiberationSans-6d"/>
      <path d="
M27.0938 25.7812
Q27.0938 18.9531 26.0625 12.7656
Q25.0469 6.59375 22.8438 0.875
Q20.6562 -4.82812 17.2344 -10.2031
Q13.8125 -15.5781 9.07812 -20.7031
L0.59375 -20.7031
Q5.17188 -15.5781 8.51562 -10.2031
Q11.8594 -4.82812 14 0.921875
Q16.1562 6.6875 17.2031 12.8906
Q18.2656 19.0938 18.2656 25.875
Q18.2656 32.6719 17.2031 38.8594
Q16.1562 45.0625 14 50.7969
Q11.8594 56.5469 8.51562 61.9375
Q5.17188 67.3281 0.59375 72.4688
L9.07812 72.4688
Q13.8125 67.3281 17.2344 61.9531
Q20.6562 56.5938 22.8438 50.875
Q25.0469 45.1719 26.0625 38.9688
Q27.0938 32.7656 27.0938 25.9844
z
" id="LiberationSans-29"/>
      <path id="LiberationSans-20"/>
      <path d="
M35.1562 61.1875
L35.1562 0
L25.875 0
L25.875 61.1875
L2.25 61.1875
L2.25 68.7969
L58.7969 68.7969
L58.7969 61.1875
z
" id="LiberationSans-54"/>
     </defs>
     <g style="fill:#262626;" transform="translate(554.7375 423.1375)scale(0.2 -0.2)">
      <use xlink:href="#LiberationSans-54"/>
      <use x="57.333984375" xlink:href="#LiberationSans-69"/>
      <use x="79.55078125" xlink:href="#LiberationSans-6d"/>
      <use x="162.8515625" xlink:href="#LiberationSans-65"/>
      <use x="218.466796875" xlink:href="#LiberationSans-20"/>
      <use x="246.25" xlink:href="#LiberationSans-28"/>
      <use x="279.55078125" xlink:href="#LiberationSans-73"/>
      <use x="329.55078125" xlink:href="#LiberationSans-29"/>
     </g>
    </g>
   </g>
   <g id="matplotlib.axis_2">
    <g id="ytick_1">
     <g id="line2d_19">
      <path clip-path="url(#pdb549dcaba)" d="
M144 378
L1036.8 378" style="fill:none;stroke:#ffffff;stroke-linecap:round;"/>
     </g>
     <g id="line2d_20">
      <g>
       <use style="fill:#262626;stroke:#262626;" x="144.0" xlink:href="#m219da94a98" y="378.0"/>
      </g>
     </g>
     <g id="line2d_21">
      <g>
       <use style="fill:#262626;stroke:#262626;" x="1036.8" xlink:href="#m219da94a98" y="378.0"/>
      </g>
     </g>
     <g id="text_8">
      <!-- −0.2 -->
      <g style="fill:#262626;" transform="translate(99.509375 383.171875)scale(0.2 -0.2)">
       <use xlink:href="#LiberationSans-2212"/>
       <use x="58.3984375" xlink:href="#LiberationSans-30"/>
       <use x="114.013671875" xlink:href="#LiberationSans-2e"/>
       <use x="141.796875" xlink:href="#LiberationSans-32"/>
      </g>
     </g>
    </g>
    <g id="ytick_2">
     <g id="line2d_22">
      <path clip-path="url(#pdb549dcaba)" d="
M144 330.171
L1036.8 330.171" style="fill:none;stroke:#ffffff;stroke-linecap:round;"/>
     </g>
     <g id="line2d_23">
      <g>
       <use style="fill:#262626;stroke:#262626;" x="144.0" xlink:href="#m219da94a98" y="330.171428571"/>
      </g>
     </g>
     <g id="line2d_24">
      <g>
       <use style="fill:#262626;stroke:#262626;" x="1036.8" xlink:href="#m219da94a98" y="330.171428571"/>
      </g>
     </g>
     <g id="text_9">
      <!-- 0.0 -->
      <g style="fill:#262626;" transform="translate(110.7625 335.343303571)scale(0.2 -0.2)">
       <use xlink:href="#LiberationSans-30"/>
       <use x="55.615234375" xlink:href="#LiberationSans-2e"/>
       <use x="83.3984375" xlink:href="#LiberationSans-30"/>
      </g>
     </g>
    </g>
    <g id="ytick_3">
     <g id="line2d_25">
      <path clip-path="url(#pdb549dcaba)" d="
M144 282.343
L1036.8 282.343" style="fill:none;stroke:#ffffff;stroke-linecap:round;"/>
     </g>
     <g id="line2d_26">
      <g>
       <use style="fill:#262626;stroke:#262626;" x="144.0" xlink:href="#m219da94a98" y="282.342857143"/>
      </g>
     </g>
     <g id="line2d_27">
      <g>
       <use style="fill:#262626;stroke:#262626;" x="1036.8" xlink:href="#m219da94a98" y="282.342857143"/>
      </g>
     </g>
     <g id="text_10">
      <!-- 0.2 -->
      <g style="fill:#262626;" transform="translate(110.984375 287.514732143)scale(0.2 -0.2)">
       <use xlink:href="#LiberationSans-30"/>
       <use x="55.615234375" xlink:href="#LiberationSans-2e"/>
       <use x="83.3984375" xlink:href="#LiberationSans-32"/>
      </g>
     </g>
    </g>
    <g id="ytick_4">
     <g id="line2d_28">
      <path clip-path="url(#pdb549dcaba)" d="
M144 234.514
L1036.8 234.514" style="fill:none;stroke:#ffffff;stroke-linecap:round;"/>
     </g>
     <g id="line2d_29">
      <g>
       <use style="fill:#262626;stroke:#262626;" x="144.0" xlink:href="#m219da94a98" y="234.514285714"/>
      </g>
     </g>
     <g id="line2d_30">
      <g>
       <use style="fill:#262626;stroke:#262626;" x="1036.8" xlink:href="#m219da94a98" y="234.514285714"/>
      </g>
     </g>
     <g id="text_11">
      <!-- 0.4 -->
      <g style="fill:#262626;" transform="translate(110.565625 239.686160714)scale(0.2 -0.2)">
       <use xlink:href="#LiberationSans-30"/>
       <use x="55.615234375" xlink:href="#LiberationSans-2e"/>
       <use x="83.3984375" xlink:href="#LiberationSans-34"/>
      </g>
     </g>
    </g>
    <g id="ytick_5">
     <g id="line2d_31">
      <path clip-path="url(#pdb549dcaba)" d="
M144 186.686
L1036.8 186.686" style="fill:none;stroke:#ffffff;stroke-linecap:round;"/>
     </g>
     <g id="line2d_32">
      <g>
       <use style="fill:#262626;stroke:#262626;" x="144.0" xlink:href="#m219da94a98" y="186.685714286"/>
      </g>
     </g>
     <g id="line2d_33">
      <g>
       <use style="fill:#262626;stroke:#262626;" x="1036.8" xlink:href="#m219da94a98" y="186.685714286"/>
      </g>
     </g>
     <g id="text_12">
      <!-- 0.6 -->
      <g style="fill:#262626;" transform="translate(110.859375 191.857589286)scale(0.2 -0.2)">
       <use xlink:href="#LiberationSans-30"/>
       <use x="55.615234375" xlink:href="#LiberationSans-2e"/>
       <use x="83.3984375" xlink:href="#LiberationSans-36"/>
      </g>
     </g>
    </g>
    <g id="ytick_6">
     <g id="line2d_34">
      <path clip-path="url(#pdb549dcaba)" d="
M144 138.857
L1036.8 138.857" style="fill:none;stroke:#ffffff;stroke-linecap:round;"/>
     </g>
     <g id="line2d_35">
      <g>
       <use style="fill:#262626;stroke:#262626;" x="144.0" xlink:href="#m219da94a98" y="138.857142857"/>
      </g>
     </g>
     <g id="line2d_36">
      <g>
       <use style="fill:#262626;stroke:#262626;" x="1036.8" xlink:href="#m219da94a98" y="138.857142857"/>
      </g>
     </g>
     <g id="text_13">
      <!-- 0.8 -->
      <defs>
       <path d="
M51.2656 19.1875
Q51.2656 14.7969 49.875 11.1094
Q48.4844 7.42188 45.625 4.73438
Q42.7812 2.04688 38.3281 0.53125
Q33.8906 -0.984375 27.8281 -0.984375
Q21.7812 -0.984375 17.3594 0.53125
Q12.9375 2.04688 10.0312 4.70312
Q7.125 7.375 5.73438 11.0625
Q4.34375 14.75 4.34375 19.0938
Q4.34375 22.8594 5.48438 25.7812
Q6.64062 28.7188 8.5625 30.8281
Q10.5 32.9531 12.9688 34.25
Q15.4375 35.5469 18.0625 35.9844
L18.0625 36.1875
Q15.1875 36.8594 12.9062 38.375
Q10.6406 39.8906 9.09375 42.0156
Q7.5625 44.1406 6.75 46.7188
Q5.95312 49.3125 5.95312 52.2031
Q5.95312 55.8125 7.34375 59
Q8.73438 62.2031 11.4688 64.625
Q14.2031 67.0469 18.25 68.4375
Q22.3125 69.8281 27.6406 69.8281
Q33.25 69.8281 37.375 68.4062
Q41.5 67 44.2031 64.5781
Q46.9219 62.1562 48.2344 58.9375
Q49.5625 55.7188 49.5625 52.0938
Q49.5625 49.2656 48.75 46.6719
Q47.9531 44.0938 46.4062 41.9688
Q44.875 39.8438 42.5938 38.3438
Q40.3281 36.8594 37.3594 36.2812
L37.3594 36.0781
Q40.3281 35.5938 42.8594 34.2969
Q45.4062 33.0156 47.2656 30.8906
Q49.125 28.7656 50.1875 25.8281
Q51.2656 22.9062 51.2656 19.1875
M40.4375 51.6094
Q40.4375 54.2031 39.7656 56.3438
Q39.1094 58.5 37.5938 60.0312
Q36.0781 61.5781 33.6406 62.4219
Q31.2031 63.2812 27.6406 63.2812
Q24.1719 63.2812 21.7812 62.4219
Q19.3906 61.5781 17.8438 60.0312
Q16.3125 58.5 15.625 56.3438
Q14.9375 54.2031 14.9375 51.6094
Q14.9375 49.5625 15.4688 47.4062
Q16.0156 45.2656 17.4219 43.5
Q18.8438 41.75 21.3281 40.625
Q23.8281 39.5 27.7344 39.5
Q31.8906 39.5 34.4062 40.625
Q36.9219 41.75 38.25 43.5
Q39.5938 45.2656 40.0156 47.4062
Q40.4375 49.5625 40.4375 51.6094
M42.1406 20.0156
Q42.1406 22.5156 41.4531 24.8281
Q40.7656 27.1562 39.1094 28.9375
Q37.4531 30.7188 34.6406 31.8125
Q31.8438 32.9062 27.6406 32.9062
Q23.7812 32.9062 21.0625 31.8125
Q18.3594 30.7188 16.6719 28.9062
Q14.9844 27.0938 14.2031 24.7188
Q13.4219 22.3594 13.4219 19.8281
Q13.4219 16.6562 14.2031 14.0312
Q14.9844 11.4219 16.6875 9.54688
Q18.4062 7.67188 21.1875 6.64062
Q23.9688 5.60938 27.9375 5.60938
Q31.9375 5.60938 34.6719 6.64062
Q37.4062 7.67188 39.0625 9.54688
Q40.7188 11.4219 41.4219 14.0781
Q42.1406 16.75 42.1406 20.0156" id="LiberationSans-38"/>
      </defs>
      <g style="fill:#262626;" transform="translate(110.85 144.029017857)scale(0.2 -0.2)">
       <use xlink:href="#LiberationSans-30"/>
       <use x="55.615234375" xlink:href="#LiberationSans-2e"/>
       <use x="83.3984375" xlink:href="#LiberationSans-38"/>
      </g>
     </g>
    </g>
    <g id="ytick_7">
     <g id="line2d_37">
      <path clip-path="url(#pdb549dcaba)" d="
M144 91.0286
L1036.8 91.0286" style="fill:none;stroke:#ffffff;stroke-linecap:round;"/>
     </g>
     <g id="line2d_38">
      <g>
       <use style="fill:#262626;stroke:#262626;" x="144.0" xlink:href="#m219da94a98" y="91.0285714286"/>
      </g>
     </g>
     <g id="line2d_39">
      <g>
       <use style="fill:#262626;stroke:#262626;" x="1036.8" xlink:href="#m219da94a98" y="91.0285714286"/>
      </g>
     </g>
     <g id="text_14">
      <!-- 1.0 -->
      <defs>
       <path d="
M7.625 0
L7.625 7.46875
L25.1406 7.46875
L25.1406 60.4062
L9.625 49.3125
L9.625 57.625
L25.875 68.7969
L33.9844 68.7969
L33.9844 7.46875
L50.7344 7.46875
L50.7344 0
z
" id="LiberationSans-31"/>
      </defs>
      <g style="fill:#262626;" transform="translate(111.50625 96.2004464286)scale(0.2 -0.2)">
       <use xlink:href="#LiberationSans-31"/>
       <use x="55.615234375" xlink:href="#LiberationSans-2e"/>
       <use x="83.3984375" xlink:href="#LiberationSans-30"/>
      </g>
     </g>
    </g>
    <g id="ytick_8">
     <g id="text_15">
      <!-- 1.2 -->
      <g style="fill:#262626;" transform="translate(111.728125 48.371875)scale(0.2 -0.2)">
       <use xlink:href="#LiberationSans-31"/>
       <use x="55.615234375" xlink:href="#LiberationSans-2e"/>
       <use x="83.3984375" xlink:href="#LiberationSans-32"/>
      </g>
     </g>
    </g>
   </g>
   <g id="line2d_40">
    <path clip-path="url(#pdb549dcaba)" d="
M144 362.843
L148.468 362.735
L152.935 362.411
L157.403 361.87
L161.871 361.115
L166.339 360.146
L170.806 358.965
L175.274 357.573
L179.742 355.972
L184.21 354.164
L189.422 351.797
L194.634 349.157
L199.847 346.25
L205.059 343.079
L210.271 339.653
L215.484 335.977
L221.441 331.48
L227.397 326.677
L233.354 321.58
L239.311 316.204
L246.013 309.837
L252.715 303.153
L259.416 296.173
L266.862 288.098
L275.053 278.863
L283.989 268.419
L293.669 256.735
L304.838 242.877
L318.986 224.927
L359.195 173.666
L370.365 159.931
L380.045 148.386
L388.236 138.939
L396.426 129.833
L403.873 121.889
L410.574 115.038
L417.276 108.493
L423.977 102.274
L429.934 97.0356
L435.891 92.0845
L441.848 87.4328
L447.805 83.0922
L453.018 79.558
L458.23 76.2773
L463.442 73.2564
L468.655 70.5011
L473.867 68.0168
L479.079 65.8082
L483.547 64.138
L488.015 62.6758
L492.482 61.4239
L496.95 60.3839
L501.418 59.5574
L505.886 58.9456
L510.353 58.5492
L514.821 58.3689
L519.289 58.405
L523.756 58.6573
L528.224 59.1256
L532.692 59.8091
L537.16 60.7069
L541.627 61.8177
L546.095 63.1399
L550.563 64.6717
L555.031 66.4108
L560.243 68.6986
L565.455 71.2609
L570.668 74.0926
L575.88 77.1884
L581.092 80.5422
L586.305 84.1475
L591.517 87.9975
L597.474 92.6873
L603.431 97.675
L609.388 102.948
L616.089 109.204
L622.791 115.785
L629.493 122.669
L636.939 130.646
L644.385 138.939
L652.576 148.386
L661.511 159.029
L671.936 171.813
L683.85 186.784
L701.721 209.643
L724.804 239.128
L736.718 253.992
L747.143 266.644
L756.078 277.148
L764.269 286.445
L771.715 294.584
L779.161 302.392
L785.863 309.11
L792.564 315.513
L798.521 320.923
L804.478 326.055
L810.435 330.896
L816.392 335.432
L821.605 339.143
L826.817 342.606
L832.029 345.813
L837.242 348.758
L842.454 351.437
L847.666 353.843
L852.879 355.972
L857.346 357.573
L861.814 358.965
L866.282 360.146
L870.75 361.115
L875.217 361.87
L879.685 362.411
L884.153 362.735
L887.876 362.84
L887.876 362.84" style="fill:none;stroke:#4c72b0;stroke-linecap:round;"/>
   </g>
   <g id="line2d_41">
    <path clip-path="url(#pdb549dcaba)" d="
M144 312.095
L146.978 312.191
L149.957 312.479
L152.935 312.956
L155.914 313.617
L159.637 314.696
L163.36 316.042
L167.083 317.637
L170.806 319.46
L175.274 321.915
L179.742 324.617
L185.699 328.511
L194.634 334.693
L203.57 340.825
L208.782 344.162
L213.25 346.778
L216.973 348.734
L220.696 350.443
L224.419 351.87
L227.397 352.783
L230.376 353.475
L233.354 353.928
L236.333 354.128
L239.311 354.059
L242.29 353.708
L245.268 353.063
L247.502 352.38
L249.736 351.522
L252.715 350.099
L255.693 348.35
L258.672 346.271
L261.65 343.857
L264.629 341.106
L267.607 338.017
L270.585 334.591
L273.564 330.831
L276.542 326.742
L279.521 322.329
L283.244 316.368
L286.967 309.932
L290.69 303.042
L294.413 295.725
L298.881 286.42
L303.349 276.598
L308.561 264.567
L314.518 250.197
L321.964 231.561
L348.026 165.547
L353.983 151.408
L359.195 139.63
L363.663 130.059
L368.131 121.035
L371.854 113.971
L375.577 107.35
L379.3 101.197
L383.023 95.5313
L386.002 91.3602
L388.98 87.5175
L391.959 84.0081
L394.937 80.8349
L397.916 77.9993
L400.894 75.5012
L403.873 73.3385
L406.851 71.5077
L409.83 70.0037
L412.808 68.8196
L415.786 67.9474
L418.765 67.3773
L421.743 67.0981
L424.722 67.0976
L427.7 67.3619
L430.679 67.8764
L433.657 68.625
L436.636 69.591
L439.614 70.7567
L443.337 72.4663
L447.061 74.4216
L451.528 77.0375
L456.741 80.3749
L464.187 85.4668
L476.845 94.1813
L482.058 97.5083
L486.525 100.133
L490.993 102.495
L494.716 104.23
L498.439 105.727
L502.162 106.968
L505.886 107.936
L508.864 108.506
L511.843 108.889
L514.821 109.081
L517.799 109.081
L520.778 108.889
L523.756 108.506
L526.735 107.936
L530.458 106.968
L534.181 105.727
L537.904 104.23
L541.627 102.495
L546.095 100.133
L550.563 97.5083
L555.775 94.1813
L562.477 89.6247
L577.369 79.3958
L582.581 76.1366
L587.049 73.6124
L590.772 71.7509
L594.495 70.15
L597.474 69.0819
L600.452 68.2224
L603.431 67.5888
L606.409 67.1975
L609.388 67.0639
L612.366 67.2021
L615.345 67.6253
L618.323 68.3451
L620.557 69.0861
L622.791 70.0037
L625.769 71.5077
L628.748 73.3385
L631.726 75.5012
L634.705 77.9993
L637.683 80.8349
L640.662 84.0081
L643.64 87.5175
L646.619 91.3602
L649.597 95.5313
L652.576 100.025
L656.299 106.082
L660.022 112.61
L663.745 119.588
L667.468 126.988
L671.936 136.383
L676.404 146.286
L681.616 158.396
L687.573 172.837
L695.019 191.531
L719.592 253.843
L725.549 268.061
L730.761 279.926
L735.229 289.582
L739.696 298.701
L743.42 305.851
L747.143 312.562
L750.866 318.811
L754.589 324.575
L757.567 328.828
L760.546 332.753
L763.524 336.346
L766.503 339.603
L769.481 342.523
L772.46 345.106
L775.438 347.352
L778.417 349.265
L781.395 350.851
L784.374 352.114
L787.352 353.063
L790.331 353.708
L793.309 354.059
L796.288 354.128
L799.266 353.928
L802.245 353.475
L805.223 352.783
L808.202 351.87
L811.18 350.752
L814.903 349.096
L818.626 347.187
L823.094 344.616
L828.306 341.317
L835.008 336.769
L849.9 326.529
L855.113 323.238
L859.58 320.653
L864.048 318.34
L867.771 316.651
L871.494 315.203
L875.217 314.016
L878.94 313.104
L881.919 312.581
L884.897 312.245
L887.876 312.101
L887.876 312.101" style="fill:none;stroke:#55a868;stroke-linecap:round;"/>
   </g>
   <g id="line2d_42">
    <path clip-path="url(#pdb549dcaba)" d="
M144 320.795
L146.234 320.903
L148.468 321.225
L150.702 321.753
L152.935 322.476
L155.914 323.717
L158.892 325.229
L162.616 327.409
L168.572 331.249
L173.785 334.551
L177.508 336.639
L180.486 338.041
L182.72 338.897
L184.954 339.561
L187.188 340.015
L189.422 340.246
L191.656 340.246
L193.89 340.011
L196.123 339.542
L198.357 338.846
L200.591 337.935
L202.825 336.824
L205.804 335.071
L208.782 333.063
L213.25 329.736
L221.441 323.541
L224.419 321.558
L227.397 319.862
L229.631 318.827
L231.865 318.028
L234.099 317.494
L236.333 317.244
L238.567 317.295
L240.801 317.659
L243.035 318.338
L245.268 319.331
L247.502 320.629
L249.736 322.216
L251.97 324.069
L254.948 326.902
L257.927 330.067
L262.395 335.202
L268.352 342.094
L271.33 345.235
L273.564 347.331
L275.798 349.133
L278.032 350.574
L279.521 351.304
L281.01 351.829
L282.499 352.13
L283.989 352.192
L285.478 351.998
L286.967 351.536
L288.456 350.79
L289.946 349.75
L291.435 348.405
L292.924 346.745
L294.413 344.764
L295.903 342.454
L297.392 339.812
L298.881 336.835
L301.115 331.741
L303.349 325.896
L305.583 319.314
L307.817 312.019
L310.05 304.041
L313.029 292.415
L316.007 279.767
L319.73 262.738
L324.198 240.941
L330.9 206.774
L337.601 172.862
L341.324 154.961
L345.048 138.182
L348.026 125.777
L351.005 114.426
L353.238 106.672
L355.472 99.6115
L357.706 93.2734
L359.94 87.6774
L362.174 82.8343
L363.663 80.0251
L365.152 77.5498
L366.642 75.4048
L368.131 73.585
L369.62 72.0836
L371.109 70.8922
L372.598 70.0009
L374.088 69.3985
L375.577 69.0722
L377.066 69.0083
L378.555 69.1918
L380.045 69.6066
L381.534 70.236
L383.023 71.0622
L385.257 72.6308
L387.491 74.5377
L389.725 76.7179
L392.703 79.9365
L397.916 85.9981
L403.128 91.9501
L406.106 95.0414
L409.085 97.7764
L411.319 99.5435
L413.553 101.036
L415.786 102.234
L418.02 103.123
L420.254 103.697
L422.488 103.956
L424.722 103.906
L426.956 103.559
L429.19 102.934
L431.424 102.053
L433.657 100.945
L436.636 99.1697
L439.614 97.1291
L444.082 93.7687
L451.528 88.1372
L454.507 86.1292
L457.485 84.3757
L459.719 83.2651
L461.953 82.3537
L464.187 81.6579
L466.421 81.1892
L468.655 80.9541
L470.888 80.9539
L473.122 81.1851
L475.356 81.6391
L477.59 82.3028
L479.824 83.1586
L482.802 84.5612
L485.781 86.2072
L490.249 88.9817
L499.929 95.132
L502.907 96.7575
L505.886 98.1403
L508.864 99.2269
L511.098 99.8218
L513.332 100.213
L515.566 100.393
L517.799 100.357
L520.033 100.106
L522.267 99.6455
L524.501 98.9855
L527.48 97.8205
L530.458 96.3715
L534.181 94.2476
L539.393 90.926
L546.095 86.6489
L549.818 84.5612
L552.797 83.1586
L555.031 82.3028
L557.264 81.6391
L559.498 81.1851
L561.732 80.9539
L563.966 80.9541
L566.2 81.1892
L568.434 81.6579
L570.668 82.3537
L572.901 83.2651
L575.135 84.3757
L578.114 86.1292
L581.092 88.1372
L585.56 91.4639
L593.751 97.6593
L596.729 99.6418
L599.708 101.338
L601.942 102.373
L604.175 103.172
L606.409 103.706
L608.643 103.956
L610.877 103.905
L613.111 103.541
L615.345 102.862
L617.579 101.869
L619.813 100.571
L622.046 98.9838
L624.28 97.1309
L627.259 94.2983
L630.237 91.1331
L634.705 85.9981
L640.662 79.1057
L643.64 75.9649
L645.874 73.8685
L648.108 72.0672
L650.342 70.6256
L651.831 69.8955
L653.32 69.3713
L654.81 69.0701
L656.299 69.0084
L657.788 69.2017
L659.277 69.6644
L660.767 70.4097
L662.256 71.4497
L663.745 72.795
L665.234 74.4546
L666.724 76.4363
L668.213 78.7459
L669.702 81.3879
L671.191 84.3647
L673.425 89.4594
L675.659 95.3044
L677.893 101.886
L680.127 109.181
L682.361 117.159
L685.339 128.785
L688.318 141.433
L692.041 158.462
L696.508 180.259
L703.21 214.426
L709.912 248.338
L713.635 266.239
L717.358 283.018
L720.336 295.423
L723.315 306.774
L725.549 314.528
L727.782 321.588
L730.016 327.927
L732.25 333.523
L734.484 338.366
L735.973 341.175
L737.463 343.65
L738.952 345.795
L740.441 347.615
L741.93 349.116
L743.42 350.308
L744.909 351.199
L746.398 351.802
L747.887 352.128
L749.376 352.192
L750.866 352.008
L752.355 351.593
L753.844 350.964
L755.333 350.138
L757.567 348.569
L759.801 346.662
L762.035 344.482
L765.014 341.264
L770.226 335.202
L775.438 329.25
L778.417 326.159
L781.395 323.424
L783.629 321.656
L785.863 320.164
L788.097 318.966
L790.331 318.077
L792.564 317.503
L794.798 317.244
L797.032 317.294
L799.266 317.641
L801.5 318.266
L803.734 319.147
L805.968 320.255
L808.946 322.03
L811.925 324.071
L816.392 327.431
L823.839 333.063
L826.817 335.071
L829.795 336.824
L832.029 337.935
L834.263 338.846
L836.497 339.542
L838.731 340.011
L840.965 340.246
L843.199 340.246
L845.433 340.015
L847.666 339.561
L849.9 338.897
L852.134 338.041
L855.113 336.639
L858.091 334.993
L862.559 332.218
L872.239 326.068
L875.217 324.443
L878.196 323.06
L881.174 321.973
L883.408 321.378
L885.642 320.987
L887.876 320.807
L887.876 320.807" style="fill:none;stroke:#c44e52;stroke-linecap:round;"/>
   </g>
   <g id="line2d_43">
    <path clip-path="url(#pdb549dcaba)" d="
M144 325.432
L145.489 325.528
L146.978 325.812
L148.468 326.272
L150.702 327.252
L152.935 328.498
L161.126 333.437
L163.36 334.345
L164.849 334.746
L166.339 334.964
L167.828 334.988
L169.317 334.818
L170.806 334.457
L172.296 333.921
L174.529 332.833
L177.508 331.009
L183.465 327.191
L185.699 326.098
L187.188 325.562
L188.677 325.209
L190.166 325.055
L191.656 325.107
L193.145 325.366
L194.634 325.823
L196.123 326.463
L198.357 327.711
L201.336 329.74
L205.804 332.907
L208.037 334.236
L209.527 334.937
L211.016 335.455
L212.505 335.765
L213.994 335.851
L215.484 335.706
L216.973 335.332
L218.462 334.74
L219.951 333.95
L222.185 332.458
L225.164 330.098
L229.631 326.52
L231.865 325.071
L233.354 324.332
L234.844 323.817
L236.333 323.551
L237.822 323.551
L239.311 323.825
L240.801 324.367
L242.29 325.164
L243.779 326.19
L246.013 328.078
L248.991 330.999
L252.715 334.654
L254.948 336.487
L256.438 337.442
L257.927 338.127
L259.416 338.504
L260.905 338.546
L262.395 338.24
L263.884 337.583
L265.373 336.589
L266.862 335.284
L268.352 333.709
L270.585 330.957
L277.287 322.177
L278.776 320.642
L280.266 319.433
L281.755 318.617
L282.499 318.375
L283.244 318.251
L283.989 318.251
L284.733 318.379
L285.478 318.636
L286.223 319.025
L287.712 320.198
L289.201 321.884
L290.69 324.05
L292.179 326.64
L294.413 331.152
L301.115 345.653
L302.604 348.186
L304.093 350.14
L304.838 350.852
L305.583 351.365
L306.327 351.66
L307.072 351.721
L307.817 351.531
L308.561 351.076
L309.306 350.342
L310.05 349.318
L310.795 347.991
L311.54 346.353
L312.284 344.395
L313.773 339.494
L315.263 333.26
L316.752 325.687
L318.241 316.802
L319.73 306.661
L321.964 289.285
L324.198 269.671
L327.177 240.938
L336.112 151.529
L338.346 131.915
L340.58 114.539
L342.069 104.398
L343.558 95.5134
L345.048 87.9405
L346.537 81.7055
L348.026 76.8054
L348.771 74.8471
L349.515 73.2087
L350.26 71.8821
L351.005 70.8575
L351.749 70.124
L352.494 69.6693
L353.238 69.4795
L353.983 69.54
L354.728 69.8349
L355.472 70.3475
L356.217 71.0605
L357.706 73.0144
L359.195 75.5469
L360.685 78.5042
L363.663 85.087
L366.642 91.6199
L368.875 95.9041
L370.365 98.2902
L371.854 100.221
L373.343 101.654
L374.832 102.564
L375.577 102.821
L376.322 102.949
L377.066 102.949
L377.811 102.825
L379.3 102.228
L380.789 101.208
L382.279 99.8266
L383.768 98.1577
L386.002 95.2912
L391.214 88.3644
L393.448 85.9158
L394.937 84.611
L396.426 83.6169
L397.916 82.9602
L399.405 82.6537
L400.894 82.6963
L402.383 83.0733
L403.873 83.7581
L405.362 84.7127
L406.851 85.8903
L409.085 87.9559
L415.042 93.7905
L417.276 95.5495
L418.765 96.4647
L420.254 97.1371
L421.743 97.5463
L423.233 97.683
L424.722 97.5486
L426.211 97.155
L427.7 96.5241
L429.19 95.6865
L431.424 94.1269
L435.147 91.1023
L438.125 88.7419
L440.359 87.2497
L441.848 86.4598
L443.337 85.8679
L444.827 85.4939
L446.316 85.349
L447.805 85.4351
L449.294 85.7449
L450.784 86.2625
L452.273 86.9641
L454.507 88.2926
L457.485 90.3782
L461.208 93.0118
L463.442 94.356
L465.676 95.377
L467.165 95.8344
L468.655 96.0933
L470.144 96.1454
L471.633 95.9908
L473.122 95.6378
L474.612 95.1023
L476.845 94.0094
L479.824 92.1771
L485.036 88.7909
L487.27 87.6069
L489.504 86.7427
L490.993 86.3824
L492.482 86.2116
L493.972 86.236
L495.461 86.4537
L496.95 86.8552
L499.184 87.7631
L501.418 88.9612
L505.141 91.2998
L508.864 93.5575
L511.098 94.6372
L512.587 95.1793
L514.076 95.5532
L515.566 95.7439
L517.055 95.7439
L518.544 95.5532
L520.033 95.1793
L522.267 94.3096
L524.501 93.1405
L528.224 90.8195
L531.947 88.5359
L534.181 87.4235
L536.415 86.6324
L537.904 86.3211
L539.393 86.1993
L540.883 86.2728
L542.372 86.5395
L543.861 86.9899
L546.095 87.9706
L548.329 89.2394
L552.797 92.1771
L555.775 94.0094
L558.009 95.1023
L559.498 95.6378
L560.987 95.9908
L562.477 96.1454
L563.966 96.0933
L565.455 95.8344
L566.944 95.377
L568.434 94.7372
L570.668 93.4892
L573.646 91.4605
L578.114 88.2926
L580.348 86.9641
L581.837 86.2625
L583.326 85.7449
L584.815 85.4351
L586.305 85.349
L587.794 85.4939
L589.283 85.8679
L590.772 86.4598
L592.262 87.2497
L594.495 88.7419
L597.474 91.1023
L601.942 94.68
L604.175 96.1289
L605.665 96.8675
L607.154 97.383
L608.643 97.6492
L610.132 97.6489
L611.622 97.3754
L613.111 96.8328
L614.6 96.0358
L616.089 95.0099
L618.323 93.1216
L621.302 90.2014
L625.025 86.5462
L627.259 84.7127
L628.748 83.7581
L630.237 83.0733
L631.726 82.6963
L633.216 82.6537
L634.705 82.9602
L636.194 83.6169
L637.683 84.611
L639.173 85.9158
L640.662 87.4912
L642.896 90.2433
L649.597 99.0232
L651.087 100.558
L652.576 101.767
L654.065 102.583
L654.81 102.825
L655.554 102.949
L656.299 102.949
L657.044 102.821
L657.788 102.564
L658.533 102.175
L660.022 101.002
L661.511 99.3159
L663.001 97.1504
L664.49 94.56
L666.724 90.0476
L673.425 75.5469
L674.914 73.0144
L676.404 71.0605
L677.148 70.3475
L677.893 69.8349
L678.638 69.54
L679.382 69.4795
L680.127 69.6693
L680.871 70.124
L681.616 70.8575
L682.361 71.8821
L683.105 73.2087
L683.85 74.8471
L684.594 76.8054
L686.084 81.7055
L687.573 87.9405
L689.062 95.5134
L690.551 104.398
L692.041 114.539
L694.275 131.915
L696.508 151.529
L699.487 180.262
L708.422 269.671
L710.656 289.285
L712.89 306.661
L714.379 316.802
L715.869 325.687
L717.358 333.26
L718.847 339.494
L720.336 344.395
L721.081 346.353
L721.826 347.991
L722.57 349.318
L723.315 350.342
L724.059 351.076
L724.804 351.531
L725.549 351.721
L726.293 351.66
L727.038 351.365
L727.782 350.852
L728.527 350.14
L730.016 348.186
L731.506 345.653
L732.995 342.696
L735.973 336.113
L738.952 329.58
L741.186 325.296
L742.675 322.91
L744.164 320.979
L745.653 319.546
L747.143 318.636
L747.887 318.379
L748.632 318.251
L749.376 318.251
L750.121 318.375
L751.61 318.972
L753.1 319.992
L754.589 321.373
L756.078 323.042
L758.312 325.909
L763.524 332.836
L765.758 335.284
L767.247 336.589
L768.737 337.583
L770.226 338.24
L771.715 338.546
L773.204 338.504
L774.694 338.127
L776.183 337.442
L777.672 336.487
L779.161 335.31
L781.395 333.244
L787.352 327.41
L789.586 325.651
L791.075 324.735
L792.564 324.063
L794.054 323.654
L795.543 323.517
L797.032 323.651
L798.521 324.045
L800.011 324.676
L801.5 325.514
L803.734 327.073
L807.457 330.098
L810.435 332.458
L812.669 333.95
L814.158 334.74
L815.648 335.332
L817.137 335.706
L818.626 335.851
L820.115 335.765
L821.605 335.455
L823.094 334.937
L824.583 334.236
L826.817 332.907
L829.795 330.822
L833.519 328.188
L835.752 326.844
L837.986 325.823
L839.476 325.366
L840.965 325.107
L842.454 325.055
L843.943 325.209
L845.433 325.562
L846.922 326.098
L849.156 327.191
L852.134 329.023
L857.346 332.409
L859.58 333.593
L861.814 334.457
L863.303 334.818
L864.793 334.988
L866.282 334.964
L867.771 334.746
L869.26 334.345
L871.494 333.437
L873.728 332.239
L877.451 329.9
L881.174 327.643
L883.408 326.563
L884.897 326.021
L886.387 325.647
L887.876 325.456
L887.876 325.456" style="fill:none;stroke:#8172b2;stroke-linecap:round;"/>
   </g>
   <g id="line2d_44">
    <path clip-path="url(#pdb549dcaba)" d="
M144 327.795
L145.489 327.985
L146.978 328.524
L148.468 329.326
L152.191 331.6
L153.68 332.234
L155.169 332.541
L156.659 332.469
L158.148 332.029
L159.637 331.291
L164.849 328.247
L166.339 327.825
L167.828 327.776
L169.317 328.111
L170.806 328.777
L173.04 330.16
L175.274 331.559
L176.763 332.252
L178.253 332.616
L179.742 332.591
L181.231 332.178
L182.72 331.439
L185.699 329.483
L187.188 328.577
L188.677 327.917
L190.166 327.613
L191.656 327.717
L193.145 328.215
L194.634 329.034
L199.847 332.353
L201.336 332.796
L202.825 332.823
L204.314 332.424
L205.804 331.656
L208.037 330.085
L210.271 328.509
L211.76 327.739
L213.25 327.348
L213.994 327.319
L214.739 327.406
L216.228 327.911
L217.717 328.789
L219.951 330.5
L222.185 332.142
L223.674 332.9
L224.419 333.125
L225.164 333.233
L225.908 333.217
L226.653 333.078
L228.142 332.45
L229.631 331.44
L234.099 327.831
L235.588 327.083
L236.333 326.884
L237.078 326.817
L237.822 326.885
L238.567 327.088
L240.056 327.865
L241.545 329.037
L246.013 332.971
L247.502 333.71
L248.247 333.877
L248.991 333.896
L249.736 333.764
L250.481 333.482
L251.97 332.516
L253.459 331.137
L257.182 327.345
L258.672 326.337
L259.416 326.045
L260.161 325.917
L260.905 325.961
L261.65 326.177
L262.395 326.561
L263.884 327.776
L265.373 329.432
L268.352 333.024
L269.841 334.378
L270.585 334.831
L271.33 335.103
L272.075 335.178
L272.819 335.05
L273.564 334.719
L274.309 334.192
L275.053 333.487
L276.542 331.646
L280.266 326.302
L281.01 325.454
L281.755 324.777
L282.499 324.304
L283.244 324.058
L283.989 324.059
L284.733 324.312
L285.478 324.816
L286.223 325.558
L286.967 326.515
L288.456 328.94
L292.179 335.683
L292.924 336.702
L293.669 337.487
L294.413 337.998
L295.158 338.201
L295.903 338.075
L296.647 337.613
L297.392 336.817
L298.136 335.706
L298.881 334.311
L300.37 330.858
L303.349 323.169
L304.093 321.541
L304.838 320.192
L305.583 319.194
L306.327 318.61
L307.072 318.489
L307.817 318.867
L308.561 319.762
L309.306 321.171
L310.05 323.073
L310.795 325.427
L312.284 331.211
L315.263 344.151
L316.007 346.895
L316.752 349.142
L317.497 350.74
L318.241 351.543
L318.986 351.415
L319.73 350.231
L320.475 347.888
L321.22 344.303
L321.964 339.415
L322.709 333.194
L323.454 325.635
L324.943 306.633
L326.432 282.961
L327.921 255.598
L333.878 138.239
L335.367 114.567
L336.857 95.5654
L337.601 88.006
L338.346 81.7846
L339.091 76.8972
L339.835 73.3116
L340.58 70.9688
L341.324 69.7854
L342.069 69.6566
L342.814 70.4598
L343.558 72.0582
L344.303 74.3051
L345.792 80.135
L348.771 93.033
L350.26 98.1266
L351.005 100.029
L351.749 101.438
L352.494 102.333
L353.238 102.711
L353.983 102.59
L354.728 102.006
L355.472 101.008
L356.217 99.6587
L357.706 96.2038
L360.685 88.5234
L362.174 85.4941
L362.918 84.3832
L363.663 83.5875
L364.408 83.1247
L365.152 82.9993
L365.897 83.2022
L366.642 83.7125
L367.386 84.4979
L368.875 86.7202
L373.343 94.6846
L374.088 95.642
L374.832 96.384
L375.577 96.8879
L376.322 97.1413
L377.066 97.1416
L377.811 96.8964
L378.555 96.4227
L379.3 95.7458
L380.789 93.9189
L384.512 88.5721
L386.002 87.008
L386.746 86.4813
L387.491 86.1497
L388.236 86.0216
L388.98 86.0974
L389.725 86.3693
L390.469 86.822
L391.959 88.176
L394.192 90.8503
L395.682 92.6369
L397.171 94.0997
L397.916 94.6389
L398.66 95.0229
L399.405 95.2393
L400.149 95.2827
L400.894 95.1546
L401.639 94.8633
L403.128 93.855
L404.617 92.4365
L407.596 89.3334
L409.085 88.1383
L409.83 87.7177
L410.574 87.4364
L411.319 87.3037
L412.063 87.3225
L412.808 87.4898
L413.553 87.7966
L415.042 88.7669
L417.276 90.7743
L419.51 92.7882
L420.999 93.7818
L421.743 94.1124
L422.488 94.315
L423.233 94.383
L423.977 94.3155
L424.722 94.1169
L426.211 93.369
L427.7 92.2688
L431.424 89.2156
L432.913 88.3808
L433.657 88.1219
L434.402 87.9825
L435.147 87.9669
L435.891 88.0745
L437.38 88.6323
L438.87 89.5586
L443.337 92.8899
L444.827 93.5947
L446.316 93.8807
L447.061 93.8519
L448.55 93.4612
L450.039 92.6911
L452.273 91.115
L454.507 89.5439
L455.996 88.7765
L457.485 88.3771
L458.974 88.4039
L460.464 88.847
L461.953 89.6308
L467.165 92.9846
L468.655 93.4835
L470.144 93.587
L471.633 93.2829
L473.122 92.6234
L475.356 91.2154
L477.59 89.7607
L479.079 89.0223
L480.568 88.609
L482.058 88.5839
L483.547 88.948
L485.036 89.6407
L487.27 91.0403
L489.504 92.4226
L490.993 93.0892
L492.482 93.4239
L493.972 93.3753
L495.461 92.9531
L496.95 92.226
L502.162 89.171
L503.652 88.7314
L505.141 88.6595
L506.63 88.9656
L508.119 89.6002
L510.353 90.9352
L512.587 92.3006
L514.076 92.9852
L515.566 93.3571
L517.055 93.3571
L518.544 92.9852
L520.033 92.3006
L522.267 90.9352
L524.501 89.6002
L525.99 88.9656
L527.48 88.6595
L528.969 88.7314
L530.458 89.171
L531.947 89.9089
L537.16 92.9531
L538.649 93.3753
L540.138 93.4239
L541.627 93.0892
L543.117 92.4226
L545.35 91.0403
L547.584 89.6407
L549.074 88.948
L550.563 88.5839
L552.052 88.609
L553.541 89.0223
L555.031 89.7607
L558.009 91.7167
L559.498 92.6234
L560.987 93.2829
L562.477 93.587
L563.966 93.4835
L565.455 92.9846
L566.944 92.1659
L572.157 88.847
L573.646 88.4039
L575.135 88.3771
L576.625 88.7765
L578.114 89.5439
L580.348 91.115
L582.581 92.6911
L584.071 93.4612
L585.56 93.8519
L586.305 93.8807
L587.049 93.7941
L588.538 93.2895
L590.028 92.4114
L592.262 90.7
L594.495 89.0579
L595.985 88.2997
L596.729 88.0745
L597.474 87.9669
L598.219 87.9825
L598.963 88.1219
L600.452 88.7499
L601.942 89.76
L606.409 93.369
L607.899 94.1169
L608.643 94.3155
L609.388 94.383
L610.132 94.315
L610.877 94.1124
L612.366 93.3349
L613.856 92.1626
L618.323 88.2287
L619.813 87.4898
L620.557 87.3225
L621.302 87.3037
L622.046 87.4364
L622.791 87.7177
L624.28 88.6836
L625.769 90.063
L629.493 93.855
L630.982 94.8633
L631.726 95.1546
L632.471 95.2827
L633.216 95.2393
L633.96 95.0229
L634.705 94.6389
L636.194 93.4241
L637.683 91.7677
L640.662 88.176
L642.151 86.822
L642.896 86.3693
L643.64 86.0974
L644.385 86.0216
L645.13 86.1497
L645.874 86.4813
L646.619 87.008
L647.363 87.713
L648.853 89.5542
L652.576 94.8984
L653.32 95.7458
L654.065 96.4227
L654.81 96.8964
L655.554 97.1416
L656.299 97.1413
L657.044 96.8879
L657.788 96.384
L658.533 95.642
L659.277 94.6846
L660.767 92.2602
L664.49 85.5168
L665.234 84.4979
L665.979 83.7125
L666.724 83.2022
L667.468 82.9993
L668.213 83.1247
L668.957 83.5875
L669.702 84.3832
L670.447 85.4941
L671.191 86.8889
L672.681 90.3418
L675.659 98.0312
L676.404 99.6587
L677.148 101.008
L677.893 102.006
L678.638 102.59
L679.382 102.711
L680.127 102.333
L680.871 101.438
L681.616 100.029
L682.361 98.1266
L683.105 95.7734
L684.594 89.9889
L687.573 77.0485
L688.318 74.3051
L689.062 72.0582
L689.807 70.4598
L690.551 69.6566
L691.296 69.7854
L692.041 70.9688
L692.785 73.3116
L693.53 76.8972
L694.275 81.7846
L695.019 88.006
L695.764 95.5654
L697.253 114.567
L698.742 138.239
L700.232 165.602
L706.188 282.961
L707.678 306.633
L709.167 325.635
L709.912 333.194
L710.656 339.415
L711.401 344.303
L712.145 347.888
L712.89 350.231
L713.635 351.415
L714.379 351.543
L715.124 350.74
L715.869 349.142
L716.613 346.895
L718.102 341.065
L721.081 328.167
L722.57 323.073
L723.315 321.171
L724.059 319.762
L724.804 318.867
L725.549 318.489
L726.293 318.61
L727.038 319.194
L727.782 320.192
L728.527 321.541
L730.016 324.996
L732.995 332.677
L734.484 335.706
L735.229 336.817
L735.973 337.613
L736.718 338.075
L737.463 338.201
L738.207 337.998
L738.952 337.487
L739.696 336.702
L741.186 334.48
L745.653 326.515
L746.398 325.558
L747.143 324.816
L747.887 324.312
L748.632 324.059
L749.376 324.058
L750.121 324.304
L750.866 324.777
L751.61 325.454
L753.1 327.281
L756.823 332.628
L758.312 334.192
L759.057 334.719
L759.801 335.05
L760.546 335.178
L761.29 335.103
L762.035 334.831
L762.78 334.378
L764.269 333.024
L766.503 330.35
L767.992 328.563
L769.481 327.1
L770.226 326.561
L770.97 326.177
L771.715 325.961
L772.46 325.917
L773.204 326.045
L773.949 326.337
L775.438 327.345
L776.927 328.763
L779.906 331.867
L781.395 333.062
L782.14 333.482
L782.884 333.764
L783.629 333.896
L784.374 333.877
L785.118 333.71
L785.863 333.403
L787.352 332.433
L789.586 330.426
L791.82 328.412
L793.309 327.418
L794.054 327.088
L794.798 326.885
L795.543 326.817
L796.288 326.884
L797.032 327.083
L798.521 327.831
L800.011 328.931
L803.734 331.984
L805.223 332.819
L805.968 333.078
L806.712 333.217
L807.457 333.233
L808.202 333.125
L809.691 332.568
L811.18 331.641
L815.648 328.31
L817.137 327.605
L818.626 327.319
L819.371 327.348
L820.86 327.739
L822.349 328.509
L824.583 330.085
L826.817 331.656
L828.306 332.424
L829.795 332.823
L831.285 332.796
L832.774 332.353
L834.263 331.569
L839.476 328.215
L840.965 327.717
L842.454 327.613
L843.943 327.917
L845.433 328.577
L847.666 329.985
L849.9 331.439
L851.389 332.178
L852.879 332.591
L854.368 332.616
L855.857 332.252
L857.346 331.559
L859.58 330.16
L861.814 328.777
L863.303 328.111
L864.793 327.776
L866.282 327.825
L867.771 328.247
L869.26 328.974
L874.473 332.029
L875.962 332.469
L877.451 332.541
L878.94 332.234
L880.43 331.6
L882.664 330.265
L884.897 328.899
L886.387 328.215
L887.876 327.843
L887.876 327.843" style="fill:none;stroke:#ccb974;stroke-linecap:round;"/>
   </g>
   <g id="line2d_45">
    <path clip-path="url(#pdb549dcaba)" d="
M144 329.874
L144.745 330.183
L145.489 330.468
L146.978 329.877
L148.468 330.461
L149.212 330.094
L149.957 329.887
L150.702 330.271
L151.446 330.448
L152.191 330.051
L152.935 329.903
L153.68 330.312
L154.425 330.429
L155.169 330.011
L155.914 329.925
L156.659 330.35
L157.403 330.404
L158.148 329.975
L158.892 329.953
L159.637 330.385
L160.382 330.374
L161.126 329.942
L161.871 329.986
L162.616 330.415
L163.36 330.339
L164.105 329.915
L164.849 330.023
L165.594 330.44
L166.339 330.3
L167.083 329.892
L167.828 330.063
L168.572 330.459
L169.317 330.258
L170.062 329.876
L170.806 330.107
L171.551 330.472
L173.04 329.866
L174.529 330.479
L176.019 329.863
L177.508 330.479
L178.997 329.867
L179.742 330.245
L180.486 330.471
L181.231 330.074
L181.976 329.877
L182.72 330.291
L183.465 330.458
L184.21 330.03
L184.954 329.895
L185.699 330.335
L186.443 330.437
L187.188 329.987
L187.933 329.918
L188.677 330.376
L189.422 330.41
L190.166 329.948
L190.911 329.948
L191.656 330.413
L192.4 330.378
L193.145 329.913
L193.89 329.984
L194.634 330.445
L195.379 330.339
L196.123 329.883
L196.868 330.024
L197.613 330.473
L198.357 330.297
L199.102 329.859
L199.847 330.069
L200.591 330.494
L201.336 330.25
L202.08 329.841
L203.57 330.508
L205.059 329.83
L206.548 330.515
L208.037 329.827
L209.527 330.515
L210.271 330.096
L211.016 329.831
L211.76 330.273
L212.505 330.507
L213.25 330.044
L213.994 329.842
L214.739 330.325
L215.484 330.492
L216.228 329.992
L216.973 329.862
L217.717 330.376
L218.462 330.468
L219.207 329.942
L219.951 329.889
L220.696 330.424
L221.441 330.437
L222.185 329.896
L222.93 329.924
L223.674 330.468
L224.419 330.399
L225.164 329.855
L225.908 329.966
L226.653 330.507
L227.397 330.354
L228.142 329.818
L228.887 330.014
L229.631 330.54
L230.376 330.303
L231.121 329.788
L231.865 330.068
L232.61 330.567
L233.354 330.246
L234.099 329.766
L235.588 330.586
L237.078 329.751
L238.567 330.596
L240.056 329.745
L240.801 330.255
L241.545 330.597
L242.29 330.055
L243.035 329.749
L243.779 330.322
L244.524 330.589
L245.268 329.987
L246.013 329.762
L246.758 330.39
L247.502 330.57
L248.247 329.92
L248.991 329.786
L249.736 330.456
L250.481 330.542
L251.225 329.854
L251.97 329.819
L252.715 330.521
L253.459 330.503
L254.204 329.791
L254.948 329.864
L255.693 330.582
L256.438 330.453
L257.182 329.732
L257.927 329.918
L258.672 330.638
L259.416 330.394
L260.161 329.679
L260.905 329.982
L261.65 330.688
L262.395 330.325
L263.139 329.633
L263.884 330.056
L264.629 330.729
L265.373 330.247
L266.118 329.596
L267.607 330.762
L269.096 329.569
L270.585 330.783
L271.33 330.065
L272.075 329.553
L272.819 330.327
L273.564 330.792
L274.309 329.964
L275.053 329.551
L275.798 330.431
L276.542 330.788
L277.287 329.857
L278.032 329.562
L278.776 330.541
L279.521 330.769
L280.266 329.746
L281.01 329.59
L281.755 330.654
L282.499 330.733
L283.244 329.631
L283.989 329.634
L284.733 330.77
L285.478 330.68
L286.223 329.515
L286.967 329.697
L287.712 330.887
L288.456 330.607
L289.201 329.398
L289.946 329.78
L290.69 331.003
L291.435 330.513
L292.179 329.282
L292.924 329.885
L293.669 331.118
L294.413 330.396
L295.158 329.168
L295.903 330.015
L296.647 331.23
L297.392 330.252
L298.136 329.058
L299.626 331.337
L301.115 328.954
L301.86 330.365
L302.604 331.438
L303.349 329.869
L304.093 328.858
L304.838 330.595
L305.583 331.53
L306.327 329.615
L307.072 328.771
L307.817 330.876
L308.561 331.612
L309.306 329.303
L310.05 328.695
L310.795 331.224
L311.54 331.68
L312.284 328.91
L313.029 328.635
L313.773 331.671
L314.518 331.73
L315.263 328.395
L316.007 328.597
L316.752 332.274
L317.497 331.754
L318.241 327.674
L318.986 328.593
L319.73 333.159
L320.475 331.728
L321.22 326.552
L321.964 328.666
L322.709 334.648
L323.454 331.573
L324.198 324.452
L324.943 328.988
L325.687 337.885
L326.432 330.827
L327.177 318.686
L327.921 331.23
L328.666 351.505
L329.411 316.75
L330.9 104.45
L331.644 69.6949
L332.389 89.97
L333.134 102.514
L333.878 90.3725
L334.623 83.3153
L335.367 92.2116
L336.112 96.7476
L336.857 89.6268
L337.601 86.5522
L338.346 92.5343
L339.091 94.6483
L339.835 89.4722
L340.58 88.0411
L341.324 92.6068
L342.069 93.5258
L342.814 89.4461
L343.558 88.9258
L344.303 92.6035
L345.048 92.8047
L345.792 89.4697
L346.537 89.529
L347.281 92.5649
L348.026 92.2898
L348.771 89.5201
L349.515 89.9757
L350.26 92.5047
L351.005 91.8972
L351.749 89.5885
L352.494 90.3242
L353.238 92.4293
L353.983 91.5854
L354.728 89.6701
L355.472 90.6049
L356.217 92.3421
L356.961 91.3314
L357.706 89.7623
L358.451 90.8355
L359.195 92.2455
L360.685 89.8628
L362.174 92.1416
L362.918 90.9478
L363.663 89.9698
L364.408 91.1847
L365.152 92.032
L365.897 90.8041
L366.642 90.0816
L367.386 91.3148
L368.131 91.9183
L368.875 90.6867
L369.62 90.1967
L370.365 91.4202
L371.109 91.8022
L371.854 90.5927
L372.598 90.3134
L373.343 91.5034
L374.088 91.6851
L374.832 90.5199
L375.577 90.4304
L376.322 91.5662
L377.066 91.5686
L377.811 90.4666
L378.555 90.5462
L379.3 91.6105
L380.045 91.4539
L380.789 90.431
L381.534 90.6594
L382.279 91.6377
L383.023 91.3426
L383.768 90.4118
L384.512 90.7686
L385.257 91.6492
L386.002 91.2357
L386.746 90.4075
L387.491 90.8728
L388.236 91.6466
L388.98 91.1345
L389.725 90.4168
L391.214 91.631
L392.703 90.4383
L394.192 91.604
L394.937 90.9534
L395.682 90.4705
L396.426 91.144
L397.171 91.5669
L397.916 90.8752
L398.66 90.5122
L399.405 91.2177
L400.149 91.5211
L400.894 90.8061
L401.639 90.5617
L402.383 91.282
L403.128 91.4681
L403.873 90.7467
L404.617 90.6177
L405.362 91.3363
L406.106 91.4094
L406.851 90.6974
L407.596 90.6788
L408.34 91.3805
L409.085 91.3463
L409.83 90.6584
L410.574 90.7435
L411.319 91.4144
L412.063 91.2804
L412.808 90.6297
L413.553 90.8104
L414.297 91.4379
L415.042 91.2129
L415.786 90.6113
L416.531 90.8781
L417.276 91.4513
L418.02 91.1452
L418.765 90.6028
L419.51 90.9454
L420.254 91.4549
L421.743 90.604
L423.233 91.4491
L424.722 90.6143
L426.211 91.4345
L426.956 90.9536
L427.7 90.6331
L428.445 91.1323
L429.19 91.4118
L429.934 90.8972
L430.679 90.6595
L431.424 91.1862
L432.168 91.3818
L432.913 90.8461
L433.657 90.6928
L434.402 91.2343
L435.147 91.3454
L435.891 90.8012
L436.636 90.732
L437.38 91.276
L438.125 91.3037
L438.87 90.7629
L439.614 90.7761
L440.359 91.3107
L441.104 91.2575
L441.848 90.7318
L442.593 90.824
L443.337 91.338
L444.082 91.2081
L444.827 90.7084
L445.571 90.8746
L446.316 91.3576
L447.061 91.1565
L447.805 90.6926
L448.55 90.9269
L449.294 91.3695
L450.039 91.1038
L450.784 90.6847
L452.273 91.3735
L453.762 90.6845
L455.251 91.3699
L456.741 90.6918
L458.23 91.3589
L458.974 90.9498
L459.719 90.7063
L460.464 91.1311
L461.208 91.3411
L461.953 90.9032
L462.698 90.7274
L463.442 91.1758
L464.187 91.3168
L464.931 90.8605
L465.676 90.7546
L466.421 91.2163
L467.165 91.2869
L467.91 90.8225
L468.655 90.7872
L469.399 91.2517
L470.144 91.2519
L470.888 90.7898
L471.633 90.8243
L472.378 91.2816
L473.122 91.2128
L473.867 90.7629
L474.612 90.8652
L475.356 91.3053
L476.101 91.1703
L476.845 90.7424
L477.59 90.909
L478.335 91.3225
L479.079 91.1256
L479.824 90.7285
L480.568 90.9546
L481.313 91.333
L482.802 90.7214
L484.292 91.3367
L485.781 90.7212
L487.27 91.3336
L488.759 90.7277
L489.504 91.093
L490.249 91.3237
L490.993 90.9421
L491.738 90.7407
L492.482 91.1365
L493.227 91.3076
L493.972 90.8999
L494.716 90.7599
L495.461 91.1772
L496.206 91.2854
L496.95 90.8609
L497.695 90.7849
L498.439 91.2143
L499.184 91.2578
L499.929 90.826
L500.673 90.815
L501.418 91.2469
L502.162 91.2253
L502.907 90.7957
L503.652 90.8497
L504.396 91.2746
L505.141 91.1887
L505.886 90.7707
L506.63 90.8881
L507.375 91.2967
L508.119 91.1487
L508.864 90.7516
L509.609 90.9294
L510.353 91.3128
L511.098 91.1063
L511.843 90.7386
L513.332 91.3226
L514.821 90.732
L516.31 91.3259
L517.799 90.732
L519.289 91.3226
L520.778 90.7386
L521.523 91.1063
L522.267 91.3128
L523.012 90.9294
L523.756 90.7516
L524.501 91.1487
L525.246 91.2967
L525.99 90.8881
L526.735 90.7707
L527.48 91.1887
L528.224 91.2746
L528.969 90.8497
L529.713 90.7957
L530.458 91.2253
L531.203 91.2469
L531.947 90.815
L532.692 90.826
L533.437 91.2578
L534.181 91.2143
L534.926 90.7849
L535.67 90.8609
L536.415 91.2854
L537.16 91.1772
L537.904 90.7599
L538.649 90.8999
L539.393 91.3076
L540.138 91.1365
L540.883 90.7407
L541.627 90.9421
L542.372 91.3237
L543.117 91.093
L543.861 90.7277
L545.35 91.3336
L546.84 90.7212
L548.329 91.3367
L549.818 90.7214
L551.307 91.333
L552.052 90.9546
L552.797 90.7285
L553.541 91.1256
L554.286 91.3225
L555.031 90.909
L555.775 90.7424
L556.52 91.1703
L557.264 91.3053
L558.009 90.8652
L558.754 90.7629
L559.498 91.2128
L560.243 91.2816
L560.987 90.8243
L561.732 90.7898
L562.477 91.2519
L563.221 91.2517
L563.966 90.7872
L564.711 90.8225
L565.455 91.2869
L566.2 91.2163
L566.944 90.7546
L567.689 90.8605
L568.434 91.3168
L569.178 91.1758
L569.923 90.7274
L570.668 90.9032
L571.412 91.3411
L572.157 91.1311
L572.901 90.7063
L573.646 90.9498
L574.391 91.3589
L575.88 90.6918
L577.369 91.3699
L578.858 90.6845
L580.348 91.3735
L581.837 90.6847
L582.581 91.1038
L583.326 91.3695
L584.071 90.9269
L584.815 90.6926
L585.56 91.1565
L586.305 91.3576
L587.049 90.8746
L587.794 90.7084
L588.538 91.2081
L589.283 91.338
L590.028 90.824
L590.772 90.7318
L591.517 91.2575
L592.262 91.3107
L593.006 90.7761
L593.751 90.7629
L594.495 91.3037
L595.24 91.276
L595.985 90.732
L596.729 90.8012
L597.474 91.3454
L598.219 91.2343
L598.963 90.6928
L599.708 90.8461
L600.452 91.3818
L601.197 91.1862
L601.942 90.6595
L602.686 90.8972
L603.431 91.4118
L604.175 91.1323
L604.92 90.6331
L605.665 90.9536
L606.409 91.4345
L607.899 90.6143
L609.388 91.4491
L610.877 90.604
L612.366 91.4549
L613.111 90.9454
L613.856 90.6028
L614.6 91.1452
L615.345 91.4513
L616.089 90.8781
L616.834 90.6113
L617.579 91.2129
L618.323 91.4379
L619.068 90.8104
L619.813 90.6297
L620.557 91.2804
L621.302 91.4144
L622.046 90.7435
L622.791 90.6584
L623.536 91.3463
L624.28 91.3805
L625.025 90.6788
L625.769 90.6974
L626.514 91.4094
L627.259 91.3363
L628.003 90.6177
L628.748 90.7467
L629.493 91.4681
L630.237 91.282
L630.982 90.5617
L631.726 90.8061
L632.471 91.5211
L633.216 91.2177
L633.96 90.5122
L634.705 90.8752
L635.45 91.5669
L636.194 91.144
L636.939 90.4705
L637.683 90.9534
L638.428 91.604
L639.917 90.4383
L641.407 91.631
L642.896 90.4168
L643.64 91.1345
L644.385 91.6466
L645.13 90.8728
L645.874 90.4075
L646.619 91.2357
L647.363 91.6492
L648.108 90.7686
L648.853 90.4118
L649.597 91.3426
L650.342 91.6377
L651.087 90.6594
L651.831 90.431
L652.576 91.4539
L653.32 91.6105
L654.065 90.5462
L654.81 90.4666
L655.554 91.5686
L656.299 91.5662
L657.044 90.4304
L657.788 90.5199
L658.533 91.6851
L659.277 91.5034
L660.022 90.3134
L660.767 90.5927
L661.511 91.8022
L662.256 91.4202
L663.001 90.1967
L663.745 90.6867
L664.49 91.9183
L665.234 91.3148
L665.979 90.0816
L666.724 90.8041
L667.468 92.032
L668.213 91.1847
L668.957 89.9698
L669.702 90.9478
L670.447 92.1416
L671.936 89.8628
L673.425 92.2455
L674.17 90.8355
L674.914 89.7623
L675.659 91.3314
L676.404 92.3421
L677.148 90.6049
L677.893 89.6701
L678.638 91.5854
L679.382 92.4293
L680.127 90.3242
L680.871 89.5885
L681.616 91.8972
L682.361 92.5047
L683.105 89.9757
L683.85 89.5201
L684.594 92.2898
L685.339 92.5649
L686.084 89.529
L686.828 89.4697
L687.573 92.8047
L688.318 92.6035
L689.062 88.9258
L689.807 89.4461
L690.551 93.5258
L691.296 92.6068
L692.041 88.0411
L692.785 89.4722
L693.53 94.6483
L694.275 92.5343
L695.019 86.5522
L695.764 89.6268
L696.508 96.7476
L697.253 92.2116
L697.998 83.3153
L698.742 90.3725
L699.487 102.514
L700.232 89.97
L700.976 69.6949
L701.721 104.45
L703.21 316.75
L703.955 351.505
L704.699 331.23
L705.444 318.686
L706.188 330.827
L706.933 337.885
L707.678 328.988
L708.422 324.452
L709.167 331.573
L709.912 334.648
L710.656 328.666
L711.401 326.552
L712.145 331.728
L712.89 333.159
L713.635 328.593
L714.379 327.674
L715.124 331.754
L715.869 332.274
L716.613 328.597
L717.358 328.395
L718.102 331.73
L718.847 331.671
L719.592 328.635
L720.336 328.91
L721.081 331.68
L721.826 331.224
L722.57 328.695
L723.315 329.303
L724.059 331.612
L724.804 330.876
L725.549 328.771
L726.293 329.615
L727.038 331.53
L727.782 330.595
L728.527 328.858
L729.272 329.869
L730.016 331.438
L730.761 330.365
L731.506 328.954
L732.995 331.337
L734.484 329.058
L735.229 330.252
L735.973 331.23
L736.718 330.015
L737.463 329.168
L738.207 330.396
L738.952 331.118
L739.696 329.885
L740.441 329.282
L741.186 330.513
L741.93 331.003
L742.675 329.78
L743.42 329.398
L744.164 330.607
L744.909 330.887
L745.653 329.697
L746.398 329.515
L747.143 330.68
L747.887 330.77
L748.632 329.634
L749.376 329.631
L750.121 330.733
L750.866 330.654
L751.61 329.59
L752.355 329.746
L753.1 330.769
L753.844 330.541
L754.589 329.562
L755.333 329.857
L756.078 330.788
L756.823 330.431
L757.567 329.551
L758.312 329.964
L759.057 330.792
L759.801 330.327
L760.546 329.553
L761.29 330.065
L762.035 330.783
L763.524 329.569
L765.014 330.762
L766.503 329.596
L767.247 330.247
L767.992 330.729
L768.737 330.056
L769.481 329.633
L770.226 330.325
L770.97 330.688
L771.715 329.982
L772.46 329.679
L773.204 330.394
L773.949 330.638
L774.694 329.918
L775.438 329.732
L776.183 330.453
L776.927 330.582
L777.672 329.864
L778.417 329.791
L779.161 330.503
L779.906 330.521
L780.651 329.819
L781.395 329.854
L782.14 330.542
L782.884 330.456
L783.629 329.786
L784.374 329.92
L785.118 330.57
L785.863 330.39
L786.608 329.762
L787.352 329.987
L788.097 330.589
L788.841 330.322
L789.586 329.749
L790.331 330.055
L791.075 330.597
L791.82 330.255
L792.564 329.745
L794.054 330.596
L795.543 329.751
L797.032 330.586
L798.521 329.766
L799.266 330.246
L800.011 330.567
L800.755 330.068
L801.5 329.788
L802.245 330.303
L802.989 330.54
L803.734 330.014
L804.478 329.818
L805.223 330.354
L805.968 330.507
L806.712 329.966
L807.457 329.855
L808.202 330.399
L808.946 330.468
L809.691 329.924
L810.435 329.896
L811.18 330.437
L811.925 330.424
L812.669 329.889
L813.414 329.942
L814.158 330.468
L814.903 330.376
L815.648 329.862
L816.392 329.992
L817.137 330.492
L817.882 330.325
L818.626 329.842
L819.371 330.044
L820.115 330.507
L820.86 330.273
L821.605 329.831
L822.349 330.096
L823.094 330.515
L824.583 329.827
L826.072 330.515
L827.562 329.83
L829.051 330.508
L830.54 329.841
L831.285 330.25
L832.029 330.494
L832.774 330.069
L833.519 329.859
L834.263 330.297
L835.008 330.473
L835.752 330.024
L836.497 329.883
L837.242 330.339
L837.986 330.445
L838.731 329.984
L839.476 329.913
L840.22 330.378
L840.965 330.413
L841.709 329.948
L842.454 329.948
L843.199 330.41
L843.943 330.376
L844.688 329.918
L845.433 329.987
L846.177 330.437
L846.922 330.335
L847.666 329.895
L848.411 330.03
L849.156 330.458
L849.9 330.291
L850.645 329.877
L851.389 330.074
L852.134 330.471
L852.879 330.245
L853.623 329.867
L855.113 330.479
L856.602 329.863
L858.091 330.479
L859.58 329.866
L861.07 330.472
L861.814 330.107
L862.559 329.876
L863.303 330.258
L864.048 330.459
L864.793 330.063
L865.537 329.892
L866.282 330.3
L867.027 330.44
L867.771 330.023
L868.516 329.915
L869.26 330.339
L870.005 330.415
L870.75 329.986
L871.494 329.942
L872.239 330.374
L872.983 330.385
L873.728 329.953
L874.473 329.975
L875.217 330.404
L875.962 330.35
L876.707 329.925
L877.451 330.011
L878.196 330.429
L878.94 330.312
L879.685 329.903
L880.43 330.051
L881.174 330.448
L881.919 330.271
L882.664 329.887
L883.408 330.094
L884.153 330.461
L885.642 329.877
L887.131 330.468
L887.876 330.183
L887.876 330.183" style="fill:none;stroke:#000000;stroke-linecap:round;"/>
   </g>
   <g id="line2d_46">
    <path clip-path="url(#pdb549dcaba)" d="
M144 330.171
L329.411 330.171
L330.155 91.0286
L701.721 91.0286
L702.465 330.171
L887.876 330.171
L887.876 330.171" style="fill:none;stroke:#64b5cd;stroke-linecap:round;stroke-width:1.75;"/>
   </g>
   <g id="patch_3">
    <path d="
M144 43.2
L1036.8 43.2" style="fill:none;"/>
   </g>
   <g id="patch_4">
    <path d="
M1036.8 378
L1036.8 43.2" style="fill:none;"/>
   </g>
   <g id="patch_5">
    <path d="
M144 378
L1036.8 378" style="fill:none;"/>
   </g>
   <g id="patch_6">
    <path d="
M144 378
L144 43.2" style="fill:none;"/>
   </g>
   <g id="text_16">
    <!-- Partial reconstruction from Fourier series coefficients -->
    <defs>
     <path d="
M6.9375 0
L6.9375 40.5312
Q6.9375 42.1875 6.90625 43.9219
Q6.89062 45.6562 6.82812 47.2656
Q6.78125 48.875 6.73438 50.2812
Q6.6875 51.7031 6.64062 52.8281
L14.9375 52.8281
Q14.9844 51.7031 15.0625 50.2656
Q15.1406 48.8281 15.2031 47.3125
Q15.2812 45.7969 15.2969 44.4062
Q15.3281 43.0156 15.3281 42.0469
L15.5312 42.0469
Q16.4531 45.0625 17.5 47.2812
Q18.5625 49.5156 19.9688 50.9531
Q21.3906 52.3906 23.3438 53.0938
Q25.2969 53.8125 28.0781 53.8125
Q29.1562 53.8125 30.125 53.6406
Q31.1094 53.4688 31.6406 53.3281
L31.6406 45.2656
Q30.7656 45.5156 29.5938 45.625
Q28.4219 45.75 26.9531 45.75
Q23.9219 45.75 21.7969 44.375
Q19.6719 43.0156 18.3281 40.5938
Q17 38.1875 16.3594 34.8438
Q15.7188 31.5 15.7188 27.5469
L15.7188 0
z
" id="LiberationSans-72"/>
     <path d="
M17.625 46.4375
L17.625 0
L8.84375 0
L8.84375 46.4375
L1.42188 46.4375
L1.42188 52.8281
L8.84375 52.8281
L8.84375 58.7969
Q8.84375 61.6719 9.375 64.1406
Q9.90625 66.6094 11.3438 68.4375
Q12.7969 70.2656 15.2812 71.3125
Q17.7812 72.3594 21.7344 72.3594
Q23.2969 72.3594 24.9688 72.2188
Q26.6562 72.0781 27.9375 71.7812
L27.9375 65.0938
Q27.0938 65.2344 26 65.3594
Q24.9062 65.4844 24.0312 65.4844
Q22.0781 65.4844 20.8281 64.9375
Q19.5781 64.4062 18.875 63.4062
Q18.1719 62.4062 17.8906 60.9375
Q17.625 59.4688 17.625 57.5625
L17.625 52.8281
L27.9375 52.8281
L27.9375 46.4375
z
" id="LiberationSans-66"/>
     <path d="
M20.2188 -0.984375
Q12.25 -0.984375 8.25 3.21875
Q4.25 7.42188 4.25 14.75
Q4.25 19.9688 6.21875 23.3125
Q8.20312 26.6562 11.3906 28.5625
Q14.5938 30.4688 18.6875 31.2031
Q22.7969 31.9375 27.0469 32.0312
L38.9219 32.2344
L38.9219 35.1094
Q38.9219 38.375 38.2344 40.6719
Q37.5469 42.9688 36.125 44.375
Q34.7188 45.7969 32.5938 46.4531
Q30.4688 47.125 27.5938 47.125
Q25.0469 47.125 23 46.75
Q20.9531 46.3906 19.4375 45.4375
Q17.9219 44.4844 16.9844 42.8438
Q16.0625 41.2188 15.7656 38.7188
L6.59375 39.5469
Q7.07812 42.6719 8.4375 45.2812
Q9.8125 47.9062 12.3281 49.7969
Q14.8438 51.7031 18.625 52.75
Q22.4062 53.8125 27.7812 53.8125
Q37.75 53.8125 42.7656 49.2344
Q47.7969 44.6719 47.7969 36.0312
L47.7969 13.2812
Q47.7969 9.375 48.8281 7.39062
Q49.8594 5.42188 52.7344 5.42188
Q53.4688 5.42188 54.2031 5.51562
Q54.9375 5.60938 55.6094 5.76562
L55.6094 0.296875
Q53.9531 -0.09375 52.3125 -0.28125
Q50.6875 -0.484375 48.8281 -0.484375
Q46.3438 -0.484375 44.5625 0.171875
Q42.7812 0.828125 41.6562 2.17188
Q40.5312 3.51562 39.9375 5.48438
Q39.3594 7.46875 39.2031 10.1094
L38.9219 10.1094
Q37.5 7.5625 35.8125 5.51562
Q34.125 3.46875 31.875 2.03125
Q29.6406 0.59375 26.7812 -0.1875
Q23.9219 -0.984375 20.2188 -0.984375
M22.2188 5.60938
Q26.4219 5.60938 29.5625 7.14062
Q32.7188 8.6875 34.7812 11.0781
Q36.8594 13.4844 37.8906 16.3125
Q38.9219 19.1406 38.9219 21.7344
L38.9219 26.0781
L29.2969 25.875
Q26.0781 25.8281 23.1719 25.4062
Q20.2656 25 18.0625 23.7812
Q15.875 22.5625 14.5781 20.3594
Q13.2812 18.1719 13.2812 14.5938
Q13.2812 10.2969 15.5938 7.95312
Q17.9219 5.60938 22.2188 5.60938" id="LiberationSans-61"/>
     <path d="
M15.3281 52.8281
L15.3281 19.3438
Q15.3281 15.4844 15.8906 12.8906
Q16.4531 10.2969 17.7188 8.70312
Q19 7.125 21.0625 6.46875
Q23.1406 5.8125 26.2188 5.8125
Q29.3438 5.8125 31.8594 6.90625
Q34.375 8.01562 36.1562 10.0781
Q37.9375 12.1562 38.9062 15.2031
Q39.8906 18.2656 39.8906 22.2188
L39.8906 52.8281
L48.6875 52.8281
L48.6875 11.2812
Q48.6875 9.625 48.7031 7.78125
Q48.7344 5.95312 48.7812 4.3125
Q48.8281 2.6875 48.875 1.51562
Q48.9219 0.34375 48.9688 0
L40.6719 0
Q40.625 0.25 40.5781 1.3125
Q40.5312 2.39062 40.4531 3.78125
Q40.375 5.17188 40.3281 6.60938
Q40.2812 8.0625 40.2812 9.03125
L40.1406 9.03125
Q38.875 6.73438 37.3594 4.875
Q35.8438 3.03125 33.8438 1.73438
Q31.8438 0.4375 29.25 -0.265625
Q26.6562 -0.984375 23.25 -0.984375
Q18.8438 -0.984375 15.6719 0.09375
Q12.5 1.17188 10.4531 3.42188
Q8.40625 5.67188 7.45312 9.1875
Q6.5 12.7031 6.5 17.625
L6.5 52.8281
z
" id="LiberationSans-75"/>
     <path d="
M27.0469 0.390625
Q25.0469 -0.140625 22.9688 -0.453125
Q20.9062 -0.78125 18.1719 -0.78125
Q7.625 -0.78125 7.625 11.1875
L7.625 46.4375
L1.51562 46.4375
L1.51562 52.8281
L7.95312 52.8281
L10.5469 64.6562
L16.4062 64.6562
L16.4062 52.8281
L26.1719 52.8281
L26.1719 46.4375
L16.4062 46.4375
L16.4062 13.0938
Q16.4062 9.28125 17.6406 7.73438
Q18.8906 6.20312 21.9688 6.20312
Q23.25 6.20312 24.4375 6.39062
Q25.6406 6.59375 27.0469 6.89062
z
" id="LiberationSans-74"/>
     <path d="
M13.4219 26.6562
Q13.4219 22.125 14.0781 18.3125
Q14.75 14.5 16.3125 11.7344
Q17.875 8.98438 20.4375 7.46875
Q23 5.95312 26.7656 5.95312
Q31.4531 5.95312 34.5938 8.48438
Q37.75 11.0312 38.4844 16.3125
L47.3594 15.7188
Q46.9219 12.4531 45.4531 9.42188
Q44 6.39062 41.4844 4.09375
Q38.9688 1.8125 35.3438 0.40625
Q31.7344 -0.984375 27 -0.984375
Q20.7969 -0.984375 16.4531 1.10938
Q12.1094 3.21875 9.39062 6.90625
Q6.6875 10.5938 5.46875 15.5938
Q4.25 20.6094 4.25 26.4688
Q4.25 31.7812 5.125 35.8594
Q6 39.9375 7.59375 42.9844
Q9.1875 46.0469 11.3281 48.125
Q13.4844 50.2031 15.9844 51.4375
Q18.5 52.6875 21.2812 53.25
Q24.0781 53.8125 26.9062 53.8125
Q31.3438 53.8125 34.8125 52.5938
Q38.2812 51.375 40.7969 49.25
Q43.3125 47.125 44.875 44.2344
Q46.4375 41.3594 47.0781 38.0312
L38.0312 37.3594
Q37.3594 41.75 34.5625 44.3281
Q31.7812 46.9219 26.6562 46.9219
Q22.9062 46.9219 20.3906 45.6719
Q17.875 44.4375 16.3125 41.9219
Q14.75 39.4062 14.0781 35.5938
Q13.4219 31.7812 13.4219 26.6562" id="LiberationSans-63"/>
     <path d="
M40.2812 0
L40.2812 33.5
Q40.2812 37.3594 39.7188 39.9375
Q39.1562 42.5312 37.8906 44.1094
Q36.625 45.7031 34.5469 46.3594
Q32.4688 47.0156 29.3906 47.0156
Q26.2656 47.0156 23.75 45.9219
Q21.2344 44.8281 19.4531 42.75
Q17.6719 40.6719 16.6875 37.625
Q15.7188 34.5781 15.7188 30.6094
L15.7188 0
L6.9375 0
L6.9375 41.5469
Q6.9375 43.2188 6.90625 45.0469
Q6.89062 46.875 6.82812 48.5
Q6.78125 50.1406 6.73438 51.3125
Q6.6875 52.4844 6.64062 52.8281
L14.9375 52.8281
Q14.9844 52.5938 15.0312 51.5156
Q15.0938 50.4375 15.1562 49.0469
Q15.2344 47.6562 15.2812 46.2188
Q15.3281 44.7812 15.3281 43.7969
L15.4844 43.7969
Q16.75 46.0938 18.2656 47.9531
Q19.7812 49.8125 21.7812 51.0938
Q23.7812 52.3906 26.3594 53.0938
Q28.9531 53.8125 32.375 53.8125
Q36.7656 53.8125 39.9375 52.7344
Q43.1094 51.6562 45.1562 49.4062
Q47.2188 47.1719 48.1719 43.625
Q49.125 40.0938 49.125 35.2031
L49.125 0
z
" id="LiberationSans-6e"/>
     <path d="
M51.4219 26.4688
Q51.4219 12.5938 45.3125 5.79688
Q39.2031 -0.984375 27.5938 -0.984375
Q22.0781 -0.984375 17.7188 0.671875
Q13.375 2.34375 10.375 5.76562
Q7.375 9.1875 5.78125 14.3281
Q4.20312 19.4844 4.20312 26.4688
Q4.20312 53.8125 27.875 53.8125
Q34.0312 53.8125 38.5 52.0938
Q42.9688 50.3906 45.8281 46.9688
Q48.6875 43.5625 50.0469 38.4219
Q51.4219 33.2969 51.4219 26.4688
M42.1875 26.4688
Q42.1875 32.625 41.2344 36.625
Q40.2812 40.625 38.4531 43.0156
Q36.625 45.4062 33.9844 46.3594
Q31.3438 47.3125 28.0312 47.3125
Q24.6562 47.3125 21.9375 46.3125
Q19.2344 45.3125 17.3281 42.8906
Q15.4375 40.4844 14.4219 36.4688
Q13.4219 32.4688 13.4219 26.4688
Q13.4219 20.3125 14.5 16.2812
Q15.5781 12.25 17.4531 9.85938
Q19.3438 7.46875 21.9062 6.48438
Q24.4688 5.51562 27.4844 5.51562
Q30.8594 5.51562 33.5938 6.46875
Q36.3281 7.42188 38.2344 9.8125
Q40.1406 12.2031 41.1562 16.25
Q42.1875 20.3125 42.1875 26.4688" id="LiberationSans-6f"/>
     <path d="
M6.73438 0
L6.73438 72.4688
L15.5312 72.4688
L15.5312 0
z
" id="LiberationSans-6c"/>
     <path d="
M17.5312 61.1875
L17.5312 35.5938
L55.9062 35.5938
L55.9062 27.875
L17.5312 27.875
L17.5312 0
L8.20312 0
L8.20312 68.7969
L57.0781 68.7969
L57.0781 61.1875
z
" id="LiberationSans-46"/>
     <path d="
M61.4219 48.0938
Q61.4219 43.6094 59.9375 39.7188
Q58.4531 35.8438 55.5 32.9844
Q52.5469 30.125 48.0938 28.4688
Q43.6562 26.8125 37.75 26.8125
L17.5312 26.8125
L17.5312 0
L8.20312 0
L8.20312 68.7969
L37.1562 68.7969
Q43.2656 68.7969 47.7969 67.3125
Q52.3438 65.8281 55.375 63.1094
Q58.4062 60.4062 59.9062 56.5625
Q61.4219 52.7344 61.4219 48.0938
M52.0469 48
Q52.0469 54.5469 48.0469 57.9375
Q44.0469 61.3281 36.0312 61.3281
L17.5312 61.3281
L17.5312 34.1875
L36.4219 34.1875
Q44.4844 34.1875 48.2656 37.75
Q52.0469 41.3125 52.0469 48" id="LiberationSans-50"/>
    </defs>
    <g style="fill:#262626;" transform="translate(357.5328125 38.2)scale(0.2 -0.2)">
     <use xlink:href="#LiberationSans-50"/>
     <use x="66.69921875" xlink:href="#LiberationSans-61"/>
     <use x="122.314453125" xlink:href="#LiberationSans-72"/>
     <use x="155.615234375" xlink:href="#LiberationSans-74"/>
     <use x="183.3984375" xlink:href="#LiberationSans-69"/>
     <use x="205.615234375" xlink:href="#LiberationSans-61"/>
     <use x="261.23046875" xlink:href="#LiberationSans-6c"/>
     <use x="283.447265625" xlink:href="#LiberationSans-20"/>
     <use x="311.23046875" xlink:href="#LiberationSans-72"/>
     <use x="344.53125" xlink:href="#LiberationSans-65"/>
     <use x="400.146484375" xlink:href="#LiberationSans-63"/>
     <use x="450.146484375" xlink:href="#LiberationSans-6f"/>
     <use x="505.76171875" xlink:href="#LiberationSans-6e"/>
     <use x="561.376953125" xlink:href="#LiberationSans-73"/>
     <use x="611.376953125" xlink:href="#LiberationSans-74"/>
     <use x="639.16015625" xlink:href="#LiberationSans-72"/>
     <use x="672.4609375" xlink:href="#LiberationSans-75"/>
     <use x="728.076171875" xlink:href="#LiberationSans-63"/>
     <use x="778.076171875" xlink:href="#LiberationSans-74"/>
     <use x="805.859375" xlink:href="#LiberationSans-69"/>
     <use x="828.076171875" xlink:href="#LiberationSans-6f"/>
     <use x="883.69140625" xlink:href="#LiberationSans-6e"/>
     <use x="939.306640625" xlink:href="#LiberationSans-20"/>
     <use x="967.08984375" xlink:href="#LiberationSans-66"/>
     <use x="994.873046875" xlink:href="#LiberationSans-72"/>
     <use x="1028.17382812" xlink:href="#LiberationSans-6f"/>
     <use x="1083.7890625" xlink:href="#LiberationSans-6d"/>
     <use x="1167.08984375" xlink:href="#LiberationSans-20"/>
     <use x="1194.87304688" xlink:href="#LiberationSans-46"/>
     <use x="1255.95703125" xlink:href="#LiberationSans-6f"/>
     <use x="1311.57226562" xlink:href="#LiberationSans-75"/>
     <use x="1367.1875" xlink:href="#LiberationSans-72"/>
     <use x="1400.48828125" xlink:href="#LiberationSans-69"/>
     <use x="1422.70507812" xlink:href="#LiberationSans-65"/>
     <use x="1478.3203125" xlink:href="#LiberationSans-72"/>
     <use x="1511.62109375" xlink:href="#LiberationSans-20"/>
     <use x="1539.40429688" xlink:href="#LiberationSans-73"/>
     <use x="1589.40429688" xlink:href="#LiberationSans-65"/>
     <use x="1645.01953125" xlink:href="#LiberationSans-72"/>
     <use x="1678.3203125" xlink:href="#LiberationSans-69"/>
     <use x="1700.53710938" xlink:href="#LiberationSans-65"/>
     <use x="1756.15234375" xlink:href="#LiberationSans-73"/>
     <use x="1806.15234375" xlink:href="#LiberationSans-20"/>
     <use x="1833.93554688" xlink:href="#LiberationSans-63"/>
     <use x="1883.93554688" xlink:href="#LiberationSans-6f"/>
     <use x="1939.55078125" xlink:href="#LiberationSans-65"/>
     <use x="1995.16601562" xlink:href="#LiberationSans-66"/>
     <use x="2021.19921875" xlink:href="#LiberationSans-66"/>
     <use x="2048.98242188" xlink:href="#LiberationSans-69"/>
     <use x="2071.19921875" xlink:href="#LiberationSans-63"/>
     <use x="2121.19921875" xlink:href="#LiberationSans-69"/>
     <use x="2143.41601562" xlink:href="#LiberationSans-65"/>
     <use x="2199.03125" xlink:href="#LiberationSans-6e"/>
     <use x="2254.64648438" xlink:href="#LiberationSans-74"/>
     <use x="2282.4296875" xlink:href="#LiberationSans-73"/>
    </g>
   </g>
   <g id="legend_1">
    <g id="line2d_47">
     <path d="
M914.529 69.2
L954.529 69.2" style="fill:none;stroke:#4c72b0;stroke-linecap:round;"/>
    </g>
    <g id="line2d_48"/>
    <g id="text_17">
     <!-- $\hat{x}_{2}(t)$ -->
     <defs>
      <path d="
M13.4844 53.8125
L11.5312 55.9062
L25 69.3906
L38.375 55.9062
L36.375 53.8125
L25 63.8125
z
" id="Cmr10-5e"/>
      <path d="
M4.98438 0
L4.98438 2.6875
Q4.98438 2.9375 5.17188 3.21875
L20.7031 20.4062
Q24.2188 24.2188 26.4062 26.7969
Q28.6094 29.3906 30.75 32.7656
Q32.9062 36.1406 34.1562 39.625
Q35.4062 43.1094 35.4062 47.0156
Q35.4062 51.125 33.8906 54.8594
Q32.375 58.5938 29.375 60.8438
Q26.375 63.0938 22.125 63.0938
Q17.7812 63.0938 14.3125 60.4688
Q10.8438 57.8594 9.42188 53.7188
Q9.8125 53.8125 10.5 53.8125
Q12.75 53.8125 14.3281 52.2969
Q15.9219 50.7812 15.9219 48.3906
Q15.9219 46.0938 14.3281 44.5
Q12.75 42.9219 10.5 42.9219
Q8.15625 42.9219 6.5625 44.5469
Q4.98438 46.1875 4.98438 48.3906
Q4.98438 52.1562 6.39062 55.4375
Q7.8125 58.7344 10.4688 61.2969
Q13.1406 63.875 16.4844 65.2344
Q19.8281 66.6094 23.5781 66.6094
Q29.2969 66.6094 34.2188 64.1875
Q39.1562 61.7656 42.0312 57.3438
Q44.9219 52.9375 44.9219 47.0156
Q44.9219 42.6719 43.0156 38.7656
Q41.1094 34.8594 38.125 31.6562
Q35.1562 28.4688 30.5156 24.4062
Q25.875 20.3594 24.4219 19
L13.0938 8.10938
L22.7031 8.10938
Q29.7812 8.10938 34.5469 8.21875
Q39.3125 8.34375 39.5938 8.59375
Q40.7656 9.85938 42 17.8281
L44.9219 17.8281
L42.0938 0
z
" id="Cmr10-32"/>
      <path d="
M31 -24.8125
Q25.4375 -20.4062 21.4062 -14.7188
Q17.3906 -9.03125 14.8125 -2.57812
Q12.25 3.85938 10.9844 10.8906
Q9.71875 17.9219 9.71875 25
Q9.71875 32.1719 10.9844 39.2031
Q12.25 46.2344 14.8594 52.7344
Q17.4844 59.2344 21.5312 64.8906
Q25.5938 70.5625 31 74.8125
Q31 75 31.5 75
L32.4219 75
Q32.7188 75 32.9531 74.7344
Q33.2031 74.4688 33.2031 74.125
Q33.2031 73.6875 33.0156 73.4844
Q28.125 68.7031 24.875 63.2344
Q21.625 57.7656 19.6406 51.5781
Q17.6719 45.4062 16.7969 38.7812
Q15.9219 32.1719 15.9219 25
Q15.9219 -6.78125 32.9062 -23.2969
Q33.2031 -23.5781 33.2031 -24.125
Q33.2031 -24.3594 32.9375 -24.6719
Q32.6719 -25 32.4219 -25
L31.5 -25
Q31 -25 31 -24.8125" id="Cmr10-28"/>
      <path d="
M6.5 -25
Q5.60938 -25 5.60938 -24.125
Q5.60938 -23.6875 5.8125 -23.4844
Q22.9062 -6.78125 22.9062 25
Q22.9062 56.7812 6 73.2969
Q5.60938 73.5312 5.60938 74.125
Q5.60938 74.4688 5.875 74.7344
Q6.15625 75 6.5 75
L7.42188 75
Q7.71875 75 7.90625 74.8125
Q15.0938 69.1406 19.875 61.0312
Q24.6562 52.9375 26.875 43.75
Q29.1094 34.5781 29.1094 25
Q29.1094 17.9219 27.9062 11.0625
Q26.7031 4.20312 24.0938 -2.45312
Q21.4844 -9.125 17.4844 -14.7656
Q13.4844 -20.4062 7.90625 -24.8125
Q7.71875 -25 7.42188 -25
z
" id="Cmr10-29"/>
      <path d="
M6.20312 8.10938
Q6.20312 9.57812 6.5 10.8906
L13.7188 39.5938
L3.21875 39.5938
Q2.20312 39.5938 2.20312 40.9219
Q2.59375 43.1094 3.51562 43.1094
L14.5938 43.1094
L18.6094 59.4219
Q19 60.75 20.1719 61.6719
Q21.3438 62.5938 22.7969 62.5938
Q24.0781 62.5938 24.9219 61.8281
Q25.7812 61.0781 25.7812 59.8125
Q25.7812 59.5156 25.75 59.3438
Q25.7344 59.1875 25.6875 58.9844
L21.6875 43.1094
L31.9844 43.1094
Q33.0156 43.1094 33.0156 41.7969
Q32.9531 41.5469 32.8125 40.9531
Q32.6719 40.375 32.4219 39.9844
Q32.1719 39.5938 31.6875 39.5938
L20.7969 39.5938
L13.625 10.6875
Q12.8906 7.85938 12.8906 5.8125
Q12.8906 1.51562 15.8281 1.51562
Q20.2188 1.51562 23.6094 5.64062
Q27 9.76562 28.8125 14.7031
Q29.2031 15.2812 29.5938 15.2812
L30.8125 15.2812
Q31.2031 15.2812 31.4375 15.0156
Q31.6875 14.75 31.6875 14.4062
Q31.6875 14.2031 31.5938 14.1094
Q29.3906 8.0625 25.1875 3.46875
Q21 -1.125 15.5781 -1.125
Q11.625 -1.125 8.90625 1.45312
Q6.20312 4.04688 6.20312 8.10938" id="Cmmi10-74"/>
      <path d="
M7.8125 2.875
Q9.57812 1.51562 12.7969 1.51562
Q15.9219 1.51562 18.3125 4.51562
Q20.7031 7.51562 21.5781 11.0781
L26.125 28.8125
Q27.2031 33.6406 27.2031 35.4062
Q27.2031 37.8906 25.8125 39.75
Q24.4219 41.6094 21.9219 41.6094
Q18.75 41.6094 15.9688 39.625
Q13.1875 37.6406 11.2812 34.5938
Q9.375 31.5469 8.59375 28.4219
Q8.40625 27.7812 7.8125 27.7812
L6.59375 27.7812
Q5.8125 27.7812 5.8125 28.7188
L5.8125 29
Q6.78125 32.7188 9.125 36.25
Q11.4688 39.7969 14.8594 41.9844
Q18.2656 44.1875 22.125 44.1875
Q25.7812 44.1875 28.7344 42.2344
Q31.6875 40.2812 32.9062 36.9219
Q34.625 39.9844 37.2812 42.0781
Q39.9375 44.1875 43.1094 44.1875
Q45.2656 44.1875 47.5 43.4219
Q49.75 42.6719 51.1719 41.1094
Q52.5938 39.5469 52.5938 37.2031
Q52.5938 34.6719 50.9531 32.8281
Q49.3125 31 46.7812 31
Q45.1719 31 44.0938 32.0312
Q43.0156 33.0625 43.0156 34.625
Q43.0156 36.7188 44.4531 38.2969
Q45.9062 39.8906 47.9062 40.1875
Q46.0938 41.6094 42.9219 41.6094
Q39.7031 41.6094 37.3281 38.625
Q34.9688 35.6406 33.9844 31.9844
L29.5938 14.3125
Q28.5156 10.2969 28.5156 7.71875
Q28.5156 5.17188 29.9531 3.34375
Q31.3906 1.51562 33.7969 1.51562
Q38.4844 1.51562 42.1562 5.64062
Q45.8438 9.76562 47.0156 14.7031
Q47.2188 15.2812 47.7969 15.2812
L49.0312 15.2812
Q49.4219 15.2812 49.6562 15.0156
Q49.9062 14.75 49.9062 14.4062
Q49.9062 14.3125 49.8125 14.1094
Q48.3906 8.15625 43.8438 3.51562
Q39.3125 -1.125 33.5938 -1.125
Q29.9375 -1.125 26.9844 0.84375
Q24.0312 2.82812 22.7969 6.20312
Q21.2344 3.26562 18.4688 1.0625
Q15.7188 -1.125 12.5938 -1.125
Q10.4531 -1.125 8.17188 -0.359375
Q5.90625 0.390625 4.48438 1.95312
Q3.07812 3.51562 3.07812 5.90625
Q3.07812 8.25 4.70312 10.1719
Q6.34375 12.1094 8.79688 12.1094
Q10.4531 12.1094 11.5781 11.1094
Q12.7031 10.1094 12.7031 8.5
Q12.7031 6.39062 11.2969 4.82812
Q9.90625 3.26562 7.8125 2.875" id="Cmmi10-78"/>
     </defs>
     <g style="fill:#262626;" transform="translate(970.528515625 76.2)scale(0.2 -0.2)">
      <use transform="translate(3.46875 2.875)" xlink:href="#Cmr10-5e"/>
      <use xlink:href="#Cmmi10-78"/>
      <use transform="translate(57.080078125 -25.509375)scale(0.7)" xlink:href="#Cmr10-32"/>
      <use transform="translate(92.080078125 0.0)" xlink:href="#Cmr10-28"/>
      <use transform="translate(130.8984375 0.0)" xlink:href="#Cmmi10-74"/>
      <use transform="translate(166.982421875 0.0)" xlink:href="#Cmr10-29"/>
     </g>
    </g>
    <g id="line2d_49">
     <path d="
M914.529 99.4
L954.529 99.4" style="fill:none;stroke:#55a868;stroke-linecap:round;"/>
    </g>
    <g id="line2d_50"/>
    <g id="text_18">
     <!-- $\hat{x}_{4}(t)$ -->
     <defs>
      <path d="
M2.78125 16.5
L2.78125 20.0156
L33.6875 66.1094
Q34.0312 66.6094 34.7188 66.6094
L36.1875 66.6094
Q37.3125 66.6094 37.3125 65.4844
L37.3125 20.0156
L47.125 20.0156
L47.125 16.5
L37.3125 16.5
L37.3125 6.6875
Q37.3125 4.64062 40.2344 4.07812
Q43.1719 3.51562 47.0156 3.51562
L47.0156 0
L19.4844 0
L19.4844 3.51562
Q23.3438 3.51562 26.2656 4.07812
Q29.2031 4.64062 29.2031 6.6875
L29.2031 16.5
z

M6.10938 20.0156
L29.7812 20.0156
L29.7812 55.4219
z
" id="Cmr10-34"/>
     </defs>
     <g style="fill:#262626;" transform="translate(970.528515625 106.4)scale(0.2 -0.2)">
      <use transform="translate(3.46875 2.875)" xlink:href="#Cmr10-5e"/>
      <use xlink:href="#Cmmi10-78"/>
      <use transform="translate(57.080078125 -25.509375)scale(0.7)" xlink:href="#Cmr10-34"/>
      <use transform="translate(92.080078125 0.0)" xlink:href="#Cmr10-28"/>
      <use transform="translate(130.8984375 0.0)" xlink:href="#Cmmi10-74"/>
      <use transform="translate(166.982421875 0.0)" xlink:href="#Cmr10-29"/>
     </g>
    </g>
    <g id="line2d_51">
     <path d="
M914.529 129.6
L954.529 129.6" style="fill:none;stroke:#c44e52;stroke-linecap:round;"/>
    </g>
    <g id="line2d_52"/>
    <g id="text_19">
     <!-- $\hat{x}_{8}(t)$ -->
     <defs>
      <path d="
M4.20312 15.1875
Q4.20312 21.1875 8.15625 25.7969
Q12.1094 30.4219 18.3125 33.5
L14.5938 35.8906
Q11.1875 38.1406 9.03125 41.875
Q6.89062 45.6094 6.89062 49.7031
Q6.89062 54.5 9.40625 58.3438
Q11.9219 62.2031 16.0938 64.4062
Q20.2656 66.6094 25 66.6094
Q29.4375 66.6094 33.5625 64.7969
Q37.7031 62.9844 40.3594 59.6094
Q43.0156 56.25 43.0156 51.6094
Q43.0156 48.25 41.4219 45.3594
Q39.8438 42.4844 37.0781 40.1875
Q34.3281 37.8906 31.2031 36.2812
L36.9219 32.625
Q40.875 30.0312 43.2812 25.8281
Q45.7031 21.625 45.7031 17
Q45.7031 11.5781 42.7969 7.125
Q39.8906 2.6875 35.1094 0.234375
Q30.3281 -2.20312 25 -2.20312
Q19.8281 -2.20312 15.0156 -0.09375
Q10.2031 2 7.20312 5.98438
Q4.20312 9.96875 4.20312 15.1875
M9.625 15.1875
Q9.625 11.2344 11.7969 7.95312
Q13.9688 4.6875 17.5312 2.82812
Q21.0938 0.984375 25 0.984375
Q30.8125 0.984375 35.5469 4.375
Q40.2812 7.76562 40.2812 13.375
Q40.2812 15.2812 39.5156 17.1562
Q38.7656 19.0469 37.4219 20.5781
Q36.0781 22.125 34.4219 23.0938
L21 31.7812
Q17.875 30.125 15.25 27.5781
Q12.6406 25.0469 11.125 21.875
Q9.625 18.7031 9.625 15.1875
M16.5 45.7031
L28.6094 37.8906
Q32.8125 40.3281 35.5 43.7969
Q38.1875 47.2656 38.1875 51.6094
Q38.1875 54.9844 36.2969 57.7812
Q34.4219 60.5938 31.3906 62.1562
Q28.375 63.7188 24.9062 63.7188
Q21.875 63.7188 18.7969 62.5469
Q15.7188 61.375 13.7188 59.0469
Q11.7188 56.7344 11.7188 53.6094
Q11.7188 48.9219 16.5 45.7031" id="Cmr10-38"/>
     </defs>
     <g style="fill:#262626;" transform="translate(970.528515625 136.6)scale(0.2 -0.2)">
      <use transform="translate(3.46875 2.875)" xlink:href="#Cmr10-5e"/>
      <use xlink:href="#Cmmi10-78"/>
      <use transform="translate(57.080078125 -25.509375)scale(0.7)" xlink:href="#Cmr10-38"/>
      <use transform="translate(92.080078125 0.0)" xlink:href="#Cmr10-28"/>
      <use transform="translate(130.8984375 0.0)" xlink:href="#Cmmi10-74"/>
      <use transform="translate(166.982421875 0.0)" xlink:href="#Cmr10-29"/>
     </g>
    </g>
    <g id="line2d_53">
     <path d="
M914.529 163.2
L954.529 163.2" style="fill:none;stroke:#8172b2;stroke-linecap:round;"/>
    </g>
    <g id="line2d_54"/>
    <g id="text_20">
     <!-- $\hat{x}_{16}(t)$ -->
     <defs>
      <path d="
M9.28125 0
L9.28125 3.51562
Q21.7812 3.51562 21.7812 6.6875
L21.7812 59.1875
Q16.6094 56.6875 8.6875 56.6875
L8.6875 60.2031
Q20.9531 60.2031 27.2031 66.6094
L28.6094 66.6094
Q28.9531 66.6094 29.2656 66.3281
Q29.5938 66.0625 29.5938 65.7188
L29.5938 6.6875
Q29.5938 3.51562 42.0938 3.51562
L42.0938 0
z
" id="Cmr10-31"/>
      <path d="
M25 -2.20312
Q18.7969 -2.20312 14.6406 1.09375
Q10.5 4.39062 8.21875 9.64062
Q5.95312 14.8906 5.07812 20.6562
Q4.20312 26.4219 4.20312 32.3281
Q4.20312 40.2344 7.28125 48.1875
Q10.3594 56.1562 16.3281 61.375
Q22.3125 66.6094 30.5156 66.6094
Q33.9375 66.6094 36.8906 65.3125
Q39.8438 64.0156 41.5312 61.5
Q43.2188 58.9844 43.2188 55.4219
Q43.2188 53.375 41.8281 51.9844
Q40.4375 50.5938 38.375 50.5938
Q36.4219 50.5938 35 52
Q33.5938 53.4219 33.5938 55.4219
Q33.5938 57.375 35 58.7812
Q36.4219 60.2031 38.375 60.2031
L38.9219 60.2031
Q37.6406 62.0156 35.3281 62.8594
Q33.0156 63.7188 30.5156 63.7188
Q27.4844 63.7188 24.9219 62.3906
Q22.3594 61.0781 20.3125 58.8281
Q18.2656 56.5938 16.8906 53.875
Q15.5312 51.1719 14.7656 47.7031
Q14.0156 44.2344 13.8125 41.2031
Q13.625 38.1875 13.625 33.5938
Q15.375 37.7031 18.5938 40.3125
Q21.8281 42.9219 25.875 42.9219
Q30.3281 42.9219 33.9844 41.1094
Q37.6406 39.3125 40.2812 36.1094
Q42.9219 32.9062 44.3125 28.7969
Q45.7031 24.7031 45.7031 20.5156
Q45.7031 14.6562 43.0938 9.34375
Q40.4844 4.04688 35.7344 0.921875
Q31 -2.20312 25 -2.20312
M25 0.984375
Q28.8594 0.984375 31.2031 2.73438
Q33.5469 4.5 34.6406 7.39062
Q35.75 10.2969 36.0156 13.25
Q36.2812 16.2188 36.2812 20.5156
Q36.2812 26.1719 35.7344 30.1719
Q35.2031 34.1875 32.8125 37.2344
Q30.4219 40.2812 25.4844 40.2812
Q21.4375 40.2812 18.8281 37.5469
Q16.2188 34.8125 15.0156 30.6406
Q13.8125 26.4688 13.8125 22.6094
Q13.8125 21.2969 13.9219 20.6094
Q13.9219 20.4531 13.8906 20.3594
Q13.875 20.2656 13.8125 20.125
Q13.8125 15.8281 14.6875 11.4219
Q15.5781 7.03125 18.0625 4
Q20.5625 0.984375 25 0.984375" id="Cmr10-36"/>
     </defs>
     <g style="fill:#262626;" transform="translate(970.528515625 170.2)scale(0.2 -0.2)">
      <use transform="translate(3.46875 2.875)" xlink:href="#Cmr10-5e"/>
      <use xlink:href="#Cmmi10-78"/>
      <use transform="translate(57.080078125 -25.509375)scale(0.7)" xlink:href="#Cmr10-31"/>
      <use transform="translate(92.080078125 -25.509375)scale(0.7)" xlink:href="#Cmr10-36"/>
      <use transform="translate(127.080078125 0.0)" xlink:href="#Cmr10-28"/>
      <use transform="translate(165.8984375 0.0)" xlink:href="#Cmmi10-74"/>
      <use transform="translate(201.982421875 0.0)" xlink:href="#Cmr10-29"/>
     </g>
    </g>
    <g id="line2d_55">
     <path d="
M914.529 195.302
L954.529 195.302" style="fill:none;stroke:#ccb974;stroke-linecap:round;"/>
    </g>
    <g id="line2d_56"/>
    <g id="text_21">
     <!-- $\hat{x}_{32}(t)$ -->
     <defs>
      <path d="
M9.51562 7.71875
Q11.8594 4.29688 15.8125 2.64062
Q19.7812 0.984375 24.3125 0.984375
Q30.125 0.984375 32.5625 5.9375
Q35.0156 10.8906 35.0156 17.1875
Q35.0156 20.0156 34.5 22.8438
Q33.9844 25.6875 32.7656 28.125
Q31.5469 30.5625 29.4219 32.0312
Q27.2969 33.5 24.2188 33.5
L17.5781 33.5
Q16.7031 33.5 16.7031 34.4219
L16.7031 35.2969
Q16.7031 36.0781 17.5781 36.0781
L23.0938 36.5312
Q26.6094 36.5312 28.9219 39.1562
Q31.25 41.7969 32.3281 45.5781
Q33.4062 49.3594 33.4062 52.7812
Q33.4062 57.5625 31.1562 60.6406
Q28.9062 63.7188 24.3125 63.7188
Q20.5156 63.7188 17.0469 62.2812
Q13.5781 60.8438 11.5312 57.9062
Q11.7188 57.9531 11.8594 57.9844
Q12.0156 58.0156 12.2031 58.0156
Q14.4531 58.0156 15.9688 56.4531
Q17.4844 54.8906 17.4844 52.6875
Q17.4844 50.5312 15.9688 48.9688
Q14.4531 47.4062 12.2031 47.4062
Q10.0156 47.4062 8.45312 48.9688
Q6.89062 50.5312 6.89062 52.6875
Q6.89062 56.9844 9.46875 60.1562
Q12.0625 63.3281 16.1406 64.9688
Q20.2188 66.6094 24.3125 66.6094
Q27.3438 66.6094 30.7031 65.7031
Q34.0781 64.7969 36.8125 63.1094
Q39.5469 61.4219 41.2812 58.7812
Q43.0156 56.1562 43.0156 52.7812
Q43.0156 48.5781 41.1406 45.0156
Q39.2656 41.4531 35.9844 38.8594
Q32.7188 36.2812 28.8125 35.0156
Q33.1562 34.1875 37.0625 31.7344
Q40.9688 29.2969 43.3281 25.4844
Q45.7031 21.6875 45.7031 17.2812
Q45.7031 11.7656 42.6719 7.29688
Q39.6562 2.82812 34.7188 0.3125
Q29.7812 -2.20312 24.3125 -2.20312
Q19.625 -2.20312 14.9062 -0.40625
Q10.2031 1.375 7.20312 4.9375
Q4.20312 8.5 4.20312 13.4844
Q4.20312 15.9688 5.85938 17.625
Q7.51562 19.2812 10.0156 19.2812
Q11.625 19.2812 12.9688 18.5312
Q14.3125 17.7812 15.0625 16.4062
Q15.8281 15.0469 15.8281 13.4844
Q15.8281 11.0312 14.1094 9.375
Q12.4062 7.71875 10.0156 7.71875
z
" id="Cmr10-33"/>
     </defs>
     <g style="fill:#262626;" transform="translate(970.528515625 202.301875)scale(0.2 -0.2)">
      <use transform="translate(3.46875 2.875)" xlink:href="#Cmr10-5e"/>
      <use xlink:href="#Cmmi10-78"/>
      <use transform="translate(57.080078125 -25.509375)scale(0.7)" xlink:href="#Cmr10-33"/>
      <use transform="translate(92.080078125 -25.509375)scale(0.7)" xlink:href="#Cmr10-32"/>
      <use transform="translate(127.080078125 0.0)" xlink:href="#Cmr10-28"/>
      <use transform="translate(165.8984375 0.0)" xlink:href="#Cmmi10-74"/>
      <use transform="translate(201.982421875 0.0)" xlink:href="#Cmr10-29"/>
     </g>
    </g>
    <g id="line2d_57">
     <path d="
M914.529 228.902
L954.529 228.902" style="fill:none;stroke:#000000;stroke-linecap:round;"/>
    </g>
    <g id="line2d_58"/>
    <g id="text_22">
     <!-- $\hat{x}_{16}(t)$ -->
     <g style="fill:#262626;" transform="translate(970.528515625 235.901875)scale(0.2 -0.2)">
      <use transform="translate(3.46875 2.875)" xlink:href="#Cmr10-5e"/>
      <use xlink:href="#Cmmi10-78"/>
      <use transform="translate(57.080078125 -25.509375)scale(0.7)" xlink:href="#Cmr10-31"/>
      <use transform="translate(92.080078125 -25.509375)scale(0.7)" xlink:href="#Cmr10-36"/>
      <use transform="translate(127.080078125 0.0)" xlink:href="#Cmr10-28"/>
      <use transform="translate(165.8984375 0.0)" xlink:href="#Cmmi10-74"/>
      <use transform="translate(201.982421875 0.0)" xlink:href="#Cmr10-29"/>
     </g>
    </g>
    <g id="line2d_59">
     <path d="
M914.529 261.004
L954.529 261.004" style="fill:none;stroke:#64b5cd;stroke-linecap:round;stroke-width:1.75;"/>
    </g>
    <g id="line2d_60"/>
    <g id="text_23">
     <!-- $x(t)$ -->
     <g style="fill:#262626;" transform="translate(970.528515625 268.00375)scale(0.2 -0.2)">
      <use xlink:href="#Cmmi10-78"/>
      <use transform="translate(57.080078125 0.0)" xlink:href="#Cmr10-28"/>
      <use transform="translate(95.8984375 0.0)" xlink:href="#Cmmi10-74"/>
      <use transform="translate(131.982421875 0.0)" xlink:href="#Cmr10-29"/>
     </g>
    </g>
   </g>
  </g>
 </g>
 <defs>
  <clipPath id="pdb549dcaba">
   <rect height="334.8" width="892.8" x="144.0" y="43.2"/>
  </clipPath>
 </defs>
</svg>
