<?xml version="1.0" encoding="utf-8" standalone="no"?>
<!DOCTYPE svg PUBLIC "-//W3C//DTD SVG 1.1//EN"
  "http://www.w3.org/Graphics/SVG/1.1/DTD/svg11.dtd">
<!-- Created with matplotlib (http://matplotlib.org/) -->
<svg height="720pt" version="1.1" viewBox="0 0 720 720" width="720pt" xmlns="http://www.w3.org/2000/svg" xmlns:xlink="http://www.w3.org/1999/xlink">
 <defs>
  <style type="text/css">
*{stroke-linecap:butt;stroke-linejoin:round;}
  </style>
 </defs>
 <g id="figure_1">
  <g id="patch_1">
   <path d="
M0 720
L720 720
L720 0
L0 0
z
" style="fill:#ffffff;"/>
  </g>
  <g id="axes_1">
   <g id="patch_2">
    <path d="
M90 630
L648 630
L648 72
L90 72
L90 630" style="fill:none;"/>
   </g>
   <g id="line2d_1">
    <path clip-path="url(#p033683574c)" d="
M-300.6 351
M-1 351
L721 351" style="fill:none;stroke:#000000;stroke-linecap:square;"/>
   </g>
   <g id="line2d_2">
    <path clip-path="url(#p033683574c)" d="
M369 1020.6
M369 721
L369 -1" style="fill:none;stroke:#000000;stroke-linecap:square;"/>
   </g>
   <g id="line2d_3">
    <defs>
     <path d="
M0 10
C2.65203 10 5.1958 8.94634 7.07107 7.07107
C8.94634 5.1958 10 2.65203 10 0
C10 -2.65203 8.94634 -5.1958 7.07107 -7.07107
C5.1958 -8.94634 2.65203 -10 0 -10
C-2.65203 -10 -5.1958 -8.94634 -7.07107 -7.07107
C-8.94634 -5.1958 -10 -2.65203 -10 0
C-10 2.65203 -8.94634 5.1958 -7.07107 7.07107
C-5.1958 8.94634 -2.65203 10 0 10
z
" id="m1f3a911c3b" style="stroke:#000000;stroke-width:0.5;"/>
    </defs>
    <g clip-path="url(#p033683574c)">
     <use style="fill:none;stroke:#000000;stroke-width:0.5;" x="480.6" xlink:href="#m1f3a911c3b" y="351.0"/>
    </g>
   </g>
   <g id="line2d_4">
    <g clip-path="url(#p033683574c)">
     <use style="fill:none;stroke:#000000;stroke-width:0.5;" x="145.8" xlink:href="#m1f3a911c3b" y="351.0"/>
    </g>
   </g>
   <g id="line2d_5">
    <defs>
     <path d="
M-10 10
L10 -10
M-10 -10
L10 10" id="m5a800472e8" style="stroke:#000000;stroke-width:0.5;"/>
    </defs>
    <g clip-path="url(#p033683574c)">
     <use style="fill:none;stroke:#000000;stroke-width:0.5;" x="285.3" xlink:href="#m5a800472e8" y="351.0"/>
    </g>
   </g>
   <g id="line2d_6">
    <g clip-path="url(#p033683574c)">
     <use style="fill:none;stroke:#000000;stroke-width:0.5;" x="313.2" xlink:href="#m5a800472e8" y="254.351564938"/>
    </g>
   </g>
   <g id="line2d_7">
    <g clip-path="url(#p033683574c)">
     <use style="fill:none;stroke:#000000;stroke-width:0.5;" x="313.2" xlink:href="#m5a800472e8" y="447.648435062"/>
    </g>
   </g>
   <g id="patch_3">
    <path d="
M90 72
L648 72" style="fill:none;stroke:#000000;stroke-linecap:square;stroke-linejoin:miter;"/>
   </g>
   <g id="patch_4">
    <path d="
M648 630
L648 72" style="fill:none;stroke:#000000;stroke-linecap:square;stroke-linejoin:miter;"/>
   </g>
   <g id="patch_5">
    <path d="
M90 630
L648 630" style="fill:none;stroke:#000000;stroke-linecap:square;stroke-linejoin:miter;"/>
   </g>
   <g id="patch_6">
    <path d="
M90 630
L90 72" style="fill:none;stroke:#000000;stroke-linecap:square;stroke-linejoin:miter;"/>
   </g>
   <g id="matplotlib.axis_1">
    <g id="xtick_1">
     <g id="line2d_8">
      <path clip-path="url(#p033683574c)" d="
M90 630
L90 72" style="fill:none;stroke:#000000;stroke-dasharray:1.000000,3.000000;stroke-dashoffset:0.0;stroke-width:0.5;"/>
     </g>
     <g id="line2d_9">
      <defs>
       <path d="
M0 0
L0 -4" id="m93b0483c22" style="stroke:#000000;stroke-width:0.5;"/>
      </defs>
      <g>
       <use style="stroke:#000000;stroke-width:0.5;" x="90.0" xlink:href="#m93b0483c22" y="630.0"/>
      </g>
     </g>
     <g id="line2d_10">
      <defs>
       <path d="
M0 0
L0 4" id="m741efc42ff" style="stroke:#000000;stroke-width:0.5;"/>
      </defs>
      <g>
       <use style="stroke:#000000;stroke-width:0.5;" x="90.0" xlink:href="#m741efc42ff" y="72.0"/>
      </g>
     </g>
     <g id="text_1">
      <!-- −2.5 -->
      <defs>
       <path d="
M10.5938 35.5
L73.1875 35.5
L73.1875 27.2031
L10.5938 27.2031
z
" id="BitstreamVeraSans-Roman-2212"/>
       <path d="
M19.1875 8.29688
L53.6094 8.29688
L53.6094 0
L7.32812 0
L7.32812 8.29688
Q12.9375 14.1094 22.625 23.8906
Q32.3281 33.6875 34.8125 36.5312
Q39.5469 41.8438 41.4219 45.5312
Q43.3125 49.2188 43.3125 52.7812
Q43.3125 58.5938 39.2344 62.25
Q35.1562 65.9219 28.6094 65.9219
Q23.9688 65.9219 18.8125 64.3125
Q13.6719 62.7031 7.8125 59.4219
L7.8125 69.3906
Q13.7656 71.7812 18.9375 73
Q24.125 74.2188 28.4219 74.2188
Q39.75 74.2188 46.4844 68.5469
Q53.2188 62.8906 53.2188 53.4219
Q53.2188 48.9219 51.5312 44.8906
Q49.8594 40.875 45.4062 35.4062
Q44.1875 33.9844 37.6406 27.2188
Q31.1094 20.4531 19.1875 8.29688" id="BitstreamVeraSans-Roman-32"/>
       <path d="
M10.6875 12.4062
L21 12.4062
L21 0
L10.6875 0
z
" id="BitstreamVeraSans-Roman-2e"/>
       <path d="
M10.7969 72.9062
L49.5156 72.9062
L49.5156 64.5938
L19.8281 64.5938
L19.8281 46.7344
Q21.9688 47.4688 24.1094 47.8281
Q26.2656 48.1875 28.4219 48.1875
Q40.625 48.1875 47.75 41.5
Q54.8906 34.8125 54.8906 23.3906
Q54.8906 11.625 47.5625 5.09375
Q40.2344 -1.42188 26.9062 -1.42188
Q22.3125 -1.42188 17.5469 -0.640625
Q12.7969 0.140625 7.71875 1.70312
L7.71875 11.625
Q12.1094 9.23438 16.7969 8.0625
Q21.4844 6.89062 26.7031 6.89062
Q35.1562 6.89062 40.0781 11.3281
Q45.0156 15.7656 45.0156 23.3906
Q45.0156 31 40.0781 35.4375
Q35.1562 39.8906 26.7031 39.8906
Q22.75 39.8906 18.8125 39.0156
Q14.8906 38.1406 10.7969 36.2812
z
" id="BitstreamVeraSans-Roman-35"/>
      </defs>
      <g transform="translate(72.12 646.1575)scale(0.16 -0.16)">
       <use xlink:href="#BitstreamVeraSans-Roman-2212"/>
       <use x="83.7890625" xlink:href="#BitstreamVeraSans-Roman-32"/>
       <use x="147.412109375" xlink:href="#BitstreamVeraSans-Roman-2e"/>
       <use x="179.19921875" xlink:href="#BitstreamVeraSans-Roman-35"/>
      </g>
     </g>
    </g>
    <g id="xtick_2">
     <g id="line2d_11">
      <path clip-path="url(#p033683574c)" d="
M145.8 630
L145.8 72" style="fill:none;stroke:#000000;stroke-dasharray:1.000000,3.000000;stroke-dashoffset:0.0;stroke-width:0.5;"/>
     </g>
     <g id="line2d_12">
      <g>
       <use style="stroke:#000000;stroke-width:0.5;" x="145.8" xlink:href="#m93b0483c22" y="630.0"/>
      </g>
     </g>
     <g id="line2d_13">
      <g>
       <use style="stroke:#000000;stroke-width:0.5;" x="145.8" xlink:href="#m741efc42ff" y="72.0"/>
      </g>
     </g>
     <g id="text_2">
      <!-- −2.0 -->
      <defs>
       <path d="
M31.7812 66.4062
Q24.1719 66.4062 20.3281 58.9062
Q16.5 51.4219 16.5 36.375
Q16.5 21.3906 20.3281 13.8906
Q24.1719 6.39062 31.7812 6.39062
Q39.4531 6.39062 43.2812 13.8906
Q47.125 21.3906 47.125 36.375
Q47.125 51.4219 43.2812 58.9062
Q39.4531 66.4062 31.7812 66.4062
M31.7812 74.2188
Q44.0469 74.2188 50.5156 64.5156
Q56.9844 54.8281 56.9844 36.375
Q56.9844 17.9688 50.5156 8.26562
Q44.0469 -1.42188 31.7812 -1.42188
Q19.5312 -1.42188 13.0625 8.26562
Q6.59375 17.9688 6.59375 36.375
Q6.59375 54.8281 13.0625 64.5156
Q19.5312 74.2188 31.7812 74.2188" id="BitstreamVeraSans-Roman-30"/>
      </defs>
      <g transform="translate(127.7525 646.1575)scale(0.16 -0.16)">
       <use xlink:href="#BitstreamVeraSans-Roman-2212"/>
       <use x="83.7890625" xlink:href="#BitstreamVeraSans-Roman-32"/>
       <use x="147.412109375" xlink:href="#BitstreamVeraSans-Roman-2e"/>
       <use x="179.19921875" xlink:href="#BitstreamVeraSans-Roman-30"/>
      </g>
     </g>
    </g>
    <g id="xtick_3">
     <g id="line2d_14">
      <path clip-path="url(#p033683574c)" d="
M201.6 630
L201.6 72" style="fill:none;stroke:#000000;stroke-dasharray:1.000000,3.000000;stroke-dashoffset:0.0;stroke-width:0.5;"/>
     </g>
     <g id="line2d_15">
      <g>
       <use style="stroke:#000000;stroke-width:0.5;" x="201.6" xlink:href="#m93b0483c22" y="630.0"/>
      </g>
     </g>
     <g id="line2d_16">
      <g>
       <use style="stroke:#000000;stroke-width:0.5;" x="201.6" xlink:href="#m741efc42ff" y="72.0"/>
      </g>
     </g>
     <g id="text_3">
      <!-- −1.5 -->
      <defs>
       <path d="
M12.4062 8.29688
L28.5156 8.29688
L28.5156 63.9219
L10.9844 60.4062
L10.9844 69.3906
L28.4219 72.9062
L38.2812 72.9062
L38.2812 8.29688
L54.3906 8.29688
L54.3906 0
L12.4062 0
z
" id="BitstreamVeraSans-Roman-31"/>
      </defs>
      <g transform="translate(183.72 646.1575)scale(0.16 -0.16)">
       <use xlink:href="#BitstreamVeraSans-Roman-2212"/>
       <use x="83.7890625" xlink:href="#BitstreamVeraSans-Roman-31"/>
       <use x="147.412109375" xlink:href="#BitstreamVeraSans-Roman-2e"/>
       <use x="179.19921875" xlink:href="#BitstreamVeraSans-Roman-35"/>
      </g>
     </g>
    </g>
    <g id="xtick_4">
     <g id="line2d_17">
      <path clip-path="url(#p033683574c)" d="
M257.4 630
L257.4 72" style="fill:none;stroke:#000000;stroke-dasharray:1.000000,3.000000;stroke-dashoffset:0.0;stroke-width:0.5;"/>
     </g>
     <g id="line2d_18">
      <g>
       <use style="stroke:#000000;stroke-width:0.5;" x="257.4" xlink:href="#m93b0483c22" y="630.0"/>
      </g>
     </g>
     <g id="line2d_19">
      <g>
       <use style="stroke:#000000;stroke-width:0.5;" x="257.4" xlink:href="#m741efc42ff" y="72.0"/>
      </g>
     </g>
     <g id="text_4">
      <!-- −1.0 -->
      <g transform="translate(239.3525 646.1575)scale(0.16 -0.16)">
       <use xlink:href="#BitstreamVeraSans-Roman-2212"/>
       <use x="83.7890625" xlink:href="#BitstreamVeraSans-Roman-31"/>
       <use x="147.412109375" xlink:href="#BitstreamVeraSans-Roman-2e"/>
       <use x="179.19921875" xlink:href="#BitstreamVeraSans-Roman-30"/>
      </g>
     </g>
    </g>
    <g id="xtick_5">
     <g id="line2d_20">
      <path clip-path="url(#p033683574c)" d="
M313.2 630
L313.2 72" style="fill:none;stroke:#000000;stroke-dasharray:1.000000,3.000000;stroke-dashoffset:0.0;stroke-width:0.5;"/>
     </g>
     <g id="line2d_21">
      <g>
       <use style="stroke:#000000;stroke-width:0.5;" x="313.2" xlink:href="#m93b0483c22" y="630.0"/>
      </g>
     </g>
     <g id="line2d_22">
      <g>
       <use style="stroke:#000000;stroke-width:0.5;" x="313.2" xlink:href="#m741efc42ff" y="72.0"/>
      </g>
     </g>
     <g id="text_5">
      <!-- −0.5 -->
      <g transform="translate(295.32 646.1575)scale(0.16 -0.16)">
       <use xlink:href="#BitstreamVeraSans-Roman-2212"/>
       <use x="83.7890625" xlink:href="#BitstreamVeraSans-Roman-30"/>
       <use x="147.412109375" xlink:href="#BitstreamVeraSans-Roman-2e"/>
       <use x="179.19921875" xlink:href="#BitstreamVeraSans-Roman-35"/>
      </g>
     </g>
    </g>
    <g id="xtick_6">
     <g id="line2d_23">
      <path clip-path="url(#p033683574c)" d="
M369 630
L369 72" style="fill:none;stroke:#000000;stroke-dasharray:1.000000,3.000000;stroke-dashoffset:0.0;stroke-width:0.5;"/>
     </g>
     <g id="line2d_24">
      <g>
       <use style="stroke:#000000;stroke-width:0.5;" x="369.0" xlink:href="#m93b0483c22" y="630.0"/>
      </g>
     </g>
     <g id="line2d_25">
      <g>
       <use style="stroke:#000000;stroke-width:0.5;" x="369.0" xlink:href="#m741efc42ff" y="72.0"/>
      </g>
     </g>
     <g id="text_6">
      <!-- 0.0 -->
      <g transform="translate(357.33625 646.1575)scale(0.16 -0.16)">
       <use xlink:href="#BitstreamVeraSans-Roman-30"/>
       <use x="63.623046875" xlink:href="#BitstreamVeraSans-Roman-2e"/>
       <use x="95.41015625" xlink:href="#BitstreamVeraSans-Roman-30"/>
      </g>
     </g>
    </g>
    <g id="xtick_7">
     <g id="line2d_26">
      <path clip-path="url(#p033683574c)" d="
M424.8 630
L424.8 72" style="fill:none;stroke:#000000;stroke-dasharray:1.000000,3.000000;stroke-dashoffset:0.0;stroke-width:0.5;"/>
     </g>
     <g id="line2d_27">
      <g>
       <use style="stroke:#000000;stroke-width:0.5;" x="424.8" xlink:href="#m93b0483c22" y="630.0"/>
      </g>
     </g>
     <g id="line2d_28">
      <g>
       <use style="stroke:#000000;stroke-width:0.5;" x="424.8" xlink:href="#m741efc42ff" y="72.0"/>
      </g>
     </g>
     <g id="text_7">
      <!-- 0.5 -->
      <g transform="translate(413.30375 646.1575)scale(0.16 -0.16)">
       <use xlink:href="#BitstreamVeraSans-Roman-30"/>
       <use x="63.623046875" xlink:href="#BitstreamVeraSans-Roman-2e"/>
       <use x="95.41015625" xlink:href="#BitstreamVeraSans-Roman-35"/>
      </g>
     </g>
    </g>
    <g id="xtick_8">
     <g id="line2d_29">
      <path clip-path="url(#p033683574c)" d="
M480.6 630
L480.6 72" style="fill:none;stroke:#000000;stroke-dasharray:1.000000,3.000000;stroke-dashoffset:0.0;stroke-width:0.5;"/>
     </g>
     <g id="line2d_30">
      <g>
       <use style="stroke:#000000;stroke-width:0.5;" x="480.6" xlink:href="#m93b0483c22" y="630.0"/>
      </g>
     </g>
     <g id="line2d_31">
      <g>
       <use style="stroke:#000000;stroke-width:0.5;" x="480.6" xlink:href="#m741efc42ff" y="72.0"/>
      </g>
     </g>
     <g id="text_8">
      <!-- 1.0 -->
      <g transform="translate(469.2875 646.1575)scale(0.16 -0.16)">
       <use xlink:href="#BitstreamVeraSans-Roman-31"/>
       <use x="63.623046875" xlink:href="#BitstreamVeraSans-Roman-2e"/>
       <use x="95.41015625" xlink:href="#BitstreamVeraSans-Roman-30"/>
      </g>
     </g>
    </g>
    <g id="xtick_9">
     <g id="line2d_32">
      <path clip-path="url(#p033683574c)" d="
M536.4 630
L536.4 72" style="fill:none;stroke:#000000;stroke-dasharray:1.000000,3.000000;stroke-dashoffset:0.0;stroke-width:0.5;"/>
     </g>
     <g id="line2d_33">
      <g>
       <use style="stroke:#000000;stroke-width:0.5;" x="536.4" xlink:href="#m93b0483c22" y="630.0"/>
      </g>
     </g>
     <g id="line2d_34">
      <g>
       <use style="stroke:#000000;stroke-width:0.5;" x="536.4" xlink:href="#m741efc42ff" y="72.0"/>
      </g>
     </g>
     <g id="text_9">
      <!-- 1.5 -->
      <g transform="translate(525.255 646.1575)scale(0.16 -0.16)">
       <use xlink:href="#BitstreamVeraSans-Roman-31"/>
       <use x="63.623046875" xlink:href="#BitstreamVeraSans-Roman-2e"/>
       <use x="95.41015625" xlink:href="#BitstreamVeraSans-Roman-35"/>
      </g>
     </g>
    </g>
    <g id="xtick_10">
     <g id="line2d_35">
      <path clip-path="url(#p033683574c)" d="
M592.2 630
L592.2 72" style="fill:none;stroke:#000000;stroke-dasharray:1.000000,3.000000;stroke-dashoffset:0.0;stroke-width:0.5;"/>
     </g>
     <g id="line2d_36">
      <g>
       <use style="stroke:#000000;stroke-width:0.5;" x="592.2" xlink:href="#m93b0483c22" y="630.0"/>
      </g>
     </g>
     <g id="line2d_37">
      <g>
       <use style="stroke:#000000;stroke-width:0.5;" x="592.2" xlink:href="#m741efc42ff" y="72.0"/>
      </g>
     </g>
     <g id="text_10">
      <!-- 2.0 -->
      <g transform="translate(580.595 646.1575)scale(0.16 -0.16)">
       <use xlink:href="#BitstreamVeraSans-Roman-32"/>
       <use x="63.623046875" xlink:href="#BitstreamVeraSans-Roman-2e"/>
       <use x="95.41015625" xlink:href="#BitstreamVeraSans-Roman-30"/>
      </g>
     </g>
    </g>
    <g id="xtick_11">
     <g id="line2d_38">
      <path clip-path="url(#p033683574c)" d="
M648 630
L648 72" style="fill:none;stroke:#000000;stroke-dasharray:1.000000,3.000000;stroke-dashoffset:0.0;stroke-width:0.5;"/>
     </g>
     <g id="line2d_39">
      <g>
       <use style="stroke:#000000;stroke-width:0.5;" x="648.0" xlink:href="#m93b0483c22" y="630.0"/>
      </g>
     </g>
     <g id="line2d_40">
      <g>
       <use style="stroke:#000000;stroke-width:0.5;" x="648.0" xlink:href="#m741efc42ff" y="72.0"/>
      </g>
     </g>
     <g id="text_11">
      <!-- 2.5 -->
      <g transform="translate(636.5625 646.1575)scale(0.16 -0.16)">
       <use xlink:href="#BitstreamVeraSans-Roman-32"/>
       <use x="63.623046875" xlink:href="#BitstreamVeraSans-Roman-2e"/>
       <use x="95.41015625" xlink:href="#BitstreamVeraSans-Roman-35"/>
      </g>
     </g>
    </g>
    <g id="text_12">
     <!-- $\Re \{s\} = \sigma$ -->
     <defs>
      <path d="
M11.0781 -115.094
L11.0781 -113.922
Q11.0781 -113.234 11.8125 -113.094
Q25.4844 -108.641 25.4844 -100.203
L25.4844 -71
Q25.4844 -61.0781 41.7031 -56
Q34.6719 -53.6094 30.0781 -50.1406
Q25.4844 -46.6875 25.4844 -40.9219
L25.4844 -11.7188
Q25.4844 -3.21875 11.8125 1.21875
Q11.0781 1.375 11.0781 2
L11.0781 3.21875
Q11.0781 4 12.0156 4
L13.1875 4
Q21.2344 2.04688 27.0156 -1.51562
Q32.8125 -5.07812 32.8125 -11.5312
L32.8125 -40.7188
Q32.8125 -45.7031 36.7812 -49.0938
Q40.7656 -52.4844 46.4844 -54.5938
Q47.125 -54.7812 47.125 -55.4219
L47.125 -56.5938
Q47.125 -56.8906 46.4844 -57.4219
Q43.2656 -58.5 40.0938 -60.375
Q36.9219 -62.25 34.8594 -65.0156
Q32.8125 -67.7812 32.8125 -71.1875
L32.8125 -100.391
Q32.8125 -104.891 29.7031 -108.031
Q26.6094 -111.188 22.4531 -112.922
Q18.3125 -114.656 13.1875 -115.922
L12.0156 -115.922
Q11.625 -115.922 11.3438 -115.641
Q11.0781 -115.375 11.0781 -115.094" id="Cmex10-aa"/>
      <path d="
M18.7031 -1.125
Q14.2656 -1.125 10.8125 1
Q7.375 3.125 5.48438 6.73438
Q3.60938 10.3594 3.60938 14.7031
Q3.60938 19.3438 5.70312 24.4688
Q7.8125 29.5938 11.4531 33.8438
Q15.0938 38.0938 19.6719 40.5938
Q24.2656 43.1094 29.1094 43.1094
L54.2969 43.1094
Q55.3281 43.1094 56.0469 42.4219
Q56.7812 41.75 56.7812 40.5781
Q56.7812 39.1094 55.7344 38.0156
Q54.6875 36.9219 53.2188 36.9219
L41.0156 36.9219
Q43.8906 32.625 43.8906 26.5156
Q43.8906 21.4844 41.9375 16.5938
Q39.9844 11.7188 36.5156 7.6875
Q33.0625 3.65625 28.4375 1.26562
Q23.8281 -1.125 18.7031 -1.125
M18.7969 1.51562
Q24.2656 1.51562 28.4844 5.78125
Q32.7188 10.0625 34.9531 16.2344
Q37.2031 22.4062 37.2031 27.6875
Q37.2031 31.9844 34.8281 34.4531
Q32.4688 36.9219 28.2188 36.9219
Q22.4062 36.9219 18.3281 33.0156
Q14.2656 29.1094 12.2344 23.1875
Q10.2031 17.2812 10.2031 11.8125
Q10.2031 7.51562 12.4688 4.51562
Q14.75 1.51562 18.7969 1.51562" id="Cmmi10-be"/>
      <path d="
M8.6875 6.10938
Q11.375 1.51562 19.4844 1.51562
Q23 1.51562 26.1719 2.70312
Q29.3438 3.90625 31.4219 6.29688
Q33.5 8.6875 33.5 12.1094
Q33.5 14.7031 31.6406 16.3594
Q29.7812 18.0156 27.0938 18.6094
L21.6875 19.6719
Q17.9688 20.6094 15.5781 23.1406
Q13.1875 25.6875 13.1875 29.2969
Q13.1875 33.7344 15.5938 37.1562
Q18.0156 40.5781 21.9688 42.375
Q25.9219 44.1875 30.1719 44.1875
Q34.7188 44.1875 38.2969 42.0156
Q41.8906 39.8438 41.8906 35.5938
Q41.8906 33.2969 40.5938 31.5312
Q39.3125 29.7812 37.0156 29.7812
Q35.6875 29.7812 34.7344 30.6406
Q33.7969 31.5 33.7969 32.8125
Q33.7969 33.9844 34.4531 35.0781
Q35.1094 36.1875 36.2031 36.8438
Q37.3125 37.5 38.4844 37.5
Q37.5938 39.6562 35.1719 40.625
Q32.7656 41.6094 29.9844 41.6094
Q27.4375 41.6094 24.8906 40.5781
Q22.3594 39.5469 20.8125 37.5625
Q19.2812 35.5938 19.2812 32.9062
Q19.2812 31.1094 20.5469 29.7344
Q21.8281 28.375 23.6875 27.7812
L29.5 26.6094
Q32.2812 26.0312 34.5938 24.5312
Q36.9219 23.0469 38.25 20.7656
Q39.5938 18.5 39.5938 15.5781
Q39.5938 11.8594 37.5156 8.25
Q35.4531 4.64062 32.4219 2.48438
Q27.0938 -1.125 19.3906 -1.125
Q14.0625 -1.125 9.60938 1.3125
Q5.17188 3.76562 5.17188 8.59375
Q5.17188 11.3281 6.75 13.3438
Q8.34375 15.375 11.0781 15.375
Q12.7031 15.375 13.7969 14.3906
Q14.8906 13.4219 14.8906 11.8125
Q14.8906 9.51562 13.1719 7.8125
Q11.4688 6.10938 9.1875 6.10938
z
" id="Cmmi10-73"/>
      <path d="
M7.51562 13.2812
Q6.6875 13.2812 6.14062 13.9062
Q5.60938 14.5469 5.60938 15.2812
Q5.60938 16.1094 6.14062 16.6875
Q6.6875 17.2812 7.51562 17.2812
L70.3125 17.2812
Q71.0469 17.2812 71.5781 16.6875
Q72.125 16.1094 72.125 15.2812
Q72.125 14.5469 71.5781 13.9062
Q71.0469 13.2812 70.3125 13.2812
z

M7.51562 32.7188
Q6.6875 32.7188 6.14062 33.2969
Q5.60938 33.8906 5.60938 34.7188
Q5.60938 35.4531 6.14062 36.0781
Q6.6875 36.7188 7.51562 36.7188
L70.3125 36.7188
Q71.0469 36.7188 71.5781 36.0781
Q72.125 35.4531 72.125 34.7188
Q72.125 33.8906 71.5781 33.2969
Q71.0469 32.7188 70.3125 32.7188
z
" id="Cmr10-3d"/>
      <path d="
M25.4844 -100.391
L25.4844 -71.1875
Q25.4844 -67.7812 23.4844 -64.9844
Q21.4844 -62.2031 18.5 -60.4219
Q15.5312 -58.6406 11.8125 -57.4219
Q11.0781 -57.0312 11.0781 -56.5938
L11.0781 -55.4219
Q11.0781 -54.7344 11.8125 -54.5938
Q17.625 -52.5938 21.5469 -49.2188
Q25.4844 -45.8438 25.4844 -40.7188
L25.4844 -11.5312
Q25.4844 -5.07812 31.3125 -1.48438
Q37.1562 2.09375 45.125 4
L46.2969 4
Q46.5781 4 46.8438 3.78125
Q47.125 3.5625 47.125 3.21875
L47.125 2
Q47.125 1.42188 46.4844 1.21875
Q40.9219 -0.484375 36.8594 -3.625
Q32.8125 -6.78125 32.8125 -11.7188
L32.8125 -40.9219
Q32.8125 -46.7812 28.1875 -50.2188
Q23.5781 -53.6562 16.5 -56
Q23.3906 -58.0625 28.0938 -61.5469
Q32.8125 -65.0469 32.8125 -71
L32.8125 -100.203
Q32.8125 -103.562 34.8594 -106.094
Q36.9219 -108.641 39.9375 -110.297
Q42.9688 -111.969 46.4844 -113.094
Q47.125 -113.281 47.125 -113.922
L47.125 -115.094
Q47.125 -115.375 46.8438 -115.641
Q46.5781 -115.922 46.2969 -115.922
L45.125 -115.922
Q39.9844 -114.656 35.8125 -112.922
Q31.6406 -111.188 28.5625 -108.031
Q25.4844 -104.891 25.4844 -100.391" id="Cmex10-a9"/>
      <path d="
M5.8125 7.71875
Q5.28125 7.71875 4.82812 8.15625
Q4.39062 8.59375 4.39062 9.07812
Q4.39062 9.71875 4.90625 10
Q5.42188 10.2969 6.5 10.5938
Q6.10938 11.1875 6.10938 11.7188
Q6.10938 11.9219 6.29688 12.3125
L7.17188 13.0938
Q7.32812 13.2812 7.8125 13.2812
Q8.15625 13.2812 8.375 13.0312
Q8.59375 12.7969 8.78125 12.3594
Q8.98438 11.9219 9.07812 11.7188
Q9.375 11.8594 9.95312 12.0781
Q10.5469 12.3125 10.8906 12.3125
Q11.4219 12.3125 11.8594 11.8594
Q12.3125 11.4219 12.3125 10.8906
Q12.3125 10.25 11.5 9.875
Q10.6875 9.51562 10.0156 9.28125
Q13.4844 0.390625 19.3906 0.390625
Q23.2969 0.390625 24.4375 8.65625
Q25.5938 16.9375 25.5938 25.3906
L25.5938 44.4844
Q25.5938 67.9219 16.7031 67.9219
Q13.2344 67.9219 11.1094 64.9375
Q8.98438 61.9688 8.98438 58.5
Q8.98438 56.7812 9.82812 55.7031
Q10.6875 54.6406 13.6406 51.5156
Q16.6094 48.3906 18 45.9219
Q19.3906 43.4531 19.3906 40.2812
Q19.3906 24.3125 11.2812 24.3125
Q8.45312 24.3125 7.03125 26.9062
Q5.60938 29.5 5.60938 32.5156
Q5.60938 33.5938 6.5 33.5938
L7.71875 33.5938
Q8.01562 33.5938 8.25 33.3281
Q8.5 33.0625 8.5 32.7188
Q8.5 30.7188 9.07812 28.8125
Q9.67188 26.9062 11.2812 26.9062
Q15.8281 26.9062 15.8281 39.8906
Q15.8281 42.625 14.2031 44.8125
Q12.5938 47.0156 9.8125 49.9062
Q7.71875 52.2969 6.65625 54.125
Q5.60938 55.9531 5.60938 58.2031
Q5.60938 61.375 7.04688 64.2031
Q8.5 67.0469 11.0156 68.7812
Q13.5312 70.5156 16.7031 70.5156
Q19.5781 70.5156 22.2656 69.1719
Q24.9531 67.8281 27.0781 65.5
Q29.2031 63.1875 30.6094 60.5
Q34.0781 66.1094 41.2344 68.8438
Q48.3906 71.5781 56 71.5781
Q56.5 71.5781 56.7812 71.2969
L71.2969 45.125
Q71.4844 44.5312 71.4844 44.4844
Q71.4844 43.8438 71.1875 43.7031
L65.1875 40.375
Q64.0156 39.75 62.4062 38.8594
Q60.7969 37.9844 59.5625 37.375
Q58.3438 36.7656 57 36.1719
Q55.6719 35.5938 54.2969 35.2031
L55.6094 12.4062
Q55.6094 11.7188 55.3906 10.8125
Q55.1719 9.90625 55.1719 9.42188
Q55.1719 7.03125 56.4375 4.82812
Q57.7188 2.64062 59.7188 1.3125
L67.3906 7.8125
Q67.5781 8.01562 68.0156 8.01562
Q68.4062 8.01562 69.1406 7.51562
Q69.875 7.03125 70.0156 6.98438
Q70.3125 6.84375 70.3125 6.29688
Q70.3125 5.8125 70.0156 5.51562
L60.4062 -2
Q60.2031 -2.20312 59.9062 -2.20312
L58.1094 -2.20312
Q55.0781 -2.20312 52.3906 -0.609375
Q49.7031 0.984375 48.0938 3.65625
Q46.4844 6.34375 46.4844 9.42188
Q46.4844 9.96875 46.7031 10.9062
Q46.9219 11.8594 46.9219 12.4062
L45.7031 34.2812
L34.2812 34.2812
L34.2812 25.2031
Q34.2812 20.0156 32.8125 13.5938
Q31.3438 7.17188 27.9531 2.48438
Q24.5625 -2.20312 19.3906 -2.20312
Q11.4688 -2.20312 7.42188 8.29688
Q7.03125 8.10938 6.48438 7.90625
Q5.95312 7.71875 5.8125 7.71875
M34.2812 37.7969
L49.8125 37.7969
Q51.6094 37.7969 53.8281 38.5938
Q56.0625 39.4062 57.9375 40.4062
Q59.8125 41.4062 62.5 42.9219
L49.0312 67.4844
Q43.2188 66.4531 38.6406 63.7188
Q34.0781 60.9844 32.4219 56.2969
Q33.4062 53.3281 33.8438 50.4219
Q34.2812 47.5156 34.2812 44.4844
z
" id="Cmsy10-3c"/>
     </defs>
     <g transform="translate(309.75 683.885)scale(0.3 -0.3)">
      <use transform="translate(0.0 0.705729166667)" xlink:href="#Cmsy10-3c"/>
      <use transform="translate(72.216796875 94.0)" xlink:href="#Cmex10-a9"/>
      <use transform="translate(130.517578125 0.705729166667)" xlink:href="#Cmmi10-73"/>
      <use transform="translate(177.294921875 94.0)" xlink:href="#Cmex10-aa"/>
      <use transform="translate(253.154296875 0.705729166667)" xlink:href="#Cmr10-3d"/>
      <use transform="translate(337.212890625 0.705729166667)" xlink:href="#Cmmi10-be"/>
     </g>
    </g>
   </g>
   <g id="matplotlib.axis_2">
    <g id="ytick_1">
     <g id="line2d_41">
      <path clip-path="url(#p033683574c)" d="
M90 630
L648 630" style="fill:none;stroke:#000000;stroke-dasharray:1.000000,3.000000;stroke-dashoffset:0.0;stroke-width:0.5;"/>
     </g>
     <g id="line2d_42">
      <defs>
       <path d="
M0 0
L4 0" id="m728421d6d4" style="stroke:#000000;stroke-width:0.5;"/>
      </defs>
      <g>
       <use style="stroke:#000000;stroke-width:0.5;" x="90.0" xlink:href="#m728421d6d4" y="630.0"/>
      </g>
     </g>
     <g id="line2d_43">
      <defs>
       <path d="
M0 0
L-4 0" id="mcb0005524f" style="stroke:#000000;stroke-width:0.5;"/>
      </defs>
      <g>
       <use style="stroke:#000000;stroke-width:0.5;" x="648.0" xlink:href="#mcb0005524f" y="630.0"/>
      </g>
     </g>
     <g id="text_13">
      <!-- −2.5 -->
      <g transform="translate(50.24 634.415)scale(0.16 -0.16)">
       <use xlink:href="#BitstreamVeraSans-Roman-2212"/>
       <use x="83.7890625" xlink:href="#BitstreamVeraSans-Roman-32"/>
       <use x="147.412109375" xlink:href="#BitstreamVeraSans-Roman-2e"/>
       <use x="179.19921875" xlink:href="#BitstreamVeraSans-Roman-35"/>
      </g>
     </g>
    </g>
    <g id="ytick_2">
     <g id="line2d_44">
      <path clip-path="url(#p033683574c)" d="
M90 574.2
L648 574.2" style="fill:none;stroke:#000000;stroke-dasharray:1.000000,3.000000;stroke-dashoffset:0.0;stroke-width:0.5;"/>
     </g>
     <g id="line2d_45">
      <g>
       <use style="stroke:#000000;stroke-width:0.5;" x="90.0" xlink:href="#m728421d6d4" y="574.2"/>
      </g>
     </g>
     <g id="line2d_46">
      <g>
       <use style="stroke:#000000;stroke-width:0.5;" x="648.0" xlink:href="#mcb0005524f" y="574.2"/>
      </g>
     </g>
     <g id="text_14">
      <!-- −2.0 -->
      <g transform="translate(49.905 578.615)scale(0.16 -0.16)">
       <use xlink:href="#BitstreamVeraSans-Roman-2212"/>
       <use x="83.7890625" xlink:href="#BitstreamVeraSans-Roman-32"/>
       <use x="147.412109375" xlink:href="#BitstreamVeraSans-Roman-2e"/>
       <use x="179.19921875" xlink:href="#BitstreamVeraSans-Roman-30"/>
      </g>
     </g>
    </g>
    <g id="ytick_3">
     <g id="line2d_47">
      <path clip-path="url(#p033683574c)" d="
M90 518.4
L648 518.4" style="fill:none;stroke:#000000;stroke-dasharray:1.000000,3.000000;stroke-dashoffset:0.0;stroke-width:0.5;"/>
     </g>
     <g id="line2d_48">
      <g>
       <use style="stroke:#000000;stroke-width:0.5;" x="90.0" xlink:href="#m728421d6d4" y="518.4"/>
      </g>
     </g>
     <g id="line2d_49">
      <g>
       <use style="stroke:#000000;stroke-width:0.5;" x="648.0" xlink:href="#mcb0005524f" y="518.4"/>
      </g>
     </g>
     <g id="text_15">
      <!-- −1.5 -->
      <g transform="translate(50.24 522.815)scale(0.16 -0.16)">
       <use xlink:href="#BitstreamVeraSans-Roman-2212"/>
       <use x="83.7890625" xlink:href="#BitstreamVeraSans-Roman-31"/>
       <use x="147.412109375" xlink:href="#BitstreamVeraSans-Roman-2e"/>
       <use x="179.19921875" xlink:href="#BitstreamVeraSans-Roman-35"/>
      </g>
     </g>
    </g>
    <g id="ytick_4">
     <g id="line2d_50">
      <path clip-path="url(#p033683574c)" d="
M90 462.6
L648 462.6" style="fill:none;stroke:#000000;stroke-dasharray:1.000000,3.000000;stroke-dashoffset:0.0;stroke-width:0.5;"/>
     </g>
     <g id="line2d_51">
      <g>
       <use style="stroke:#000000;stroke-width:0.5;" x="90.0" xlink:href="#m728421d6d4" y="462.6"/>
      </g>
     </g>
     <g id="line2d_52">
      <g>
       <use style="stroke:#000000;stroke-width:0.5;" x="648.0" xlink:href="#mcb0005524f" y="462.6"/>
      </g>
     </g>
     <g id="text_16">
      <!-- −1.0 -->
      <g transform="translate(49.905 467.015)scale(0.16 -0.16)">
       <use xlink:href="#BitstreamVeraSans-Roman-2212"/>
       <use x="83.7890625" xlink:href="#BitstreamVeraSans-Roman-31"/>
       <use x="147.412109375" xlink:href="#BitstreamVeraSans-Roman-2e"/>
       <use x="179.19921875" xlink:href="#BitstreamVeraSans-Roman-30"/>
      </g>
     </g>
    </g>
    <g id="ytick_5">
     <g id="line2d_53">
      <path clip-path="url(#p033683574c)" d="
M90 406.8
L648 406.8" style="fill:none;stroke:#000000;stroke-dasharray:1.000000,3.000000;stroke-dashoffset:0.0;stroke-width:0.5;"/>
     </g>
     <g id="line2d_54">
      <g>
       <use style="stroke:#000000;stroke-width:0.5;" x="90.0" xlink:href="#m728421d6d4" y="406.8"/>
      </g>
     </g>
     <g id="line2d_55">
      <g>
       <use style="stroke:#000000;stroke-width:0.5;" x="648.0" xlink:href="#mcb0005524f" y="406.8"/>
      </g>
     </g>
     <g id="text_17">
      <!-- −0.5 -->
      <g transform="translate(50.24 411.215)scale(0.16 -0.16)">
       <use xlink:href="#BitstreamVeraSans-Roman-2212"/>
       <use x="83.7890625" xlink:href="#BitstreamVeraSans-Roman-30"/>
       <use x="147.412109375" xlink:href="#BitstreamVeraSans-Roman-2e"/>
       <use x="179.19921875" xlink:href="#BitstreamVeraSans-Roman-35"/>
      </g>
     </g>
    </g>
    <g id="ytick_6">
     <g id="line2d_56">
      <path clip-path="url(#p033683574c)" d="
M90 351
L648 351" style="fill:none;stroke:#000000;stroke-dasharray:1.000000,3.000000;stroke-dashoffset:0.0;stroke-width:0.5;"/>
     </g>
     <g id="line2d_57">
      <g>
       <use style="stroke:#000000;stroke-width:0.5;" x="90.0" xlink:href="#m728421d6d4" y="351.0"/>
      </g>
     </g>
     <g id="line2d_58">
      <g>
       <use style="stroke:#000000;stroke-width:0.5;" x="648.0" xlink:href="#mcb0005524f" y="351.0"/>
      </g>
     </g>
     <g id="text_18">
      <!-- 0.0 -->
      <g transform="translate(62.6725 355.415)scale(0.16 -0.16)">
       <use xlink:href="#BitstreamVeraSans-Roman-30"/>
       <use x="63.623046875" xlink:href="#BitstreamVeraSans-Roman-2e"/>
       <use x="95.41015625" xlink:href="#BitstreamVeraSans-Roman-30"/>
      </g>
     </g>
    </g>
    <g id="ytick_7">
     <g id="line2d_59">
      <path clip-path="url(#p033683574c)" d="
M90 295.2
L648 295.2" style="fill:none;stroke:#000000;stroke-dasharray:1.000000,3.000000;stroke-dashoffset:0.0;stroke-width:0.5;"/>
     </g>
     <g id="line2d_60">
      <g>
       <use style="stroke:#000000;stroke-width:0.5;" x="90.0" xlink:href="#m728421d6d4" y="295.2"/>
      </g>
     </g>
     <g id="line2d_61">
      <g>
       <use style="stroke:#000000;stroke-width:0.5;" x="648.0" xlink:href="#mcb0005524f" y="295.2"/>
      </g>
     </g>
     <g id="text_19">
      <!-- 0.5 -->
      <g transform="translate(63.0075 299.615)scale(0.16 -0.16)">
       <use xlink:href="#BitstreamVeraSans-Roman-30"/>
       <use x="63.623046875" xlink:href="#BitstreamVeraSans-Roman-2e"/>
       <use x="95.41015625" xlink:href="#BitstreamVeraSans-Roman-35"/>
      </g>
     </g>
    </g>
    <g id="ytick_8">
     <g id="line2d_62">
      <path clip-path="url(#p033683574c)" d="
M90 239.4
L648 239.4" style="fill:none;stroke:#000000;stroke-dasharray:1.000000,3.000000;stroke-dashoffset:0.0;stroke-width:0.5;"/>
     </g>
     <g id="line2d_63">
      <g>
       <use style="stroke:#000000;stroke-width:0.5;" x="90.0" xlink:href="#m728421d6d4" y="239.4"/>
      </g>
     </g>
     <g id="line2d_64">
      <g>
       <use style="stroke:#000000;stroke-width:0.5;" x="648.0" xlink:href="#mcb0005524f" y="239.4"/>
      </g>
     </g>
     <g id="text_20">
      <!-- 1.0 -->
      <g transform="translate(63.375 243.815)scale(0.16 -0.16)">
       <use xlink:href="#BitstreamVeraSans-Roman-31"/>
       <use x="63.623046875" xlink:href="#BitstreamVeraSans-Roman-2e"/>
       <use x="95.41015625" xlink:href="#BitstreamVeraSans-Roman-30"/>
      </g>
     </g>
    </g>
    <g id="ytick_9">
     <g id="line2d_65">
      <path clip-path="url(#p033683574c)" d="
M90 183.6
L648 183.6" style="fill:none;stroke:#000000;stroke-dasharray:1.000000,3.000000;stroke-dashoffset:0.0;stroke-width:0.5;"/>
     </g>
     <g id="line2d_66">
      <g>
       <use style="stroke:#000000;stroke-width:0.5;" x="90.0" xlink:href="#m728421d6d4" y="183.6"/>
      </g>
     </g>
     <g id="line2d_67">
      <g>
       <use style="stroke:#000000;stroke-width:0.5;" x="648.0" xlink:href="#mcb0005524f" y="183.6"/>
      </g>
     </g>
     <g id="text_21">
      <!-- 1.5 -->
      <g transform="translate(63.71 188.015)scale(0.16 -0.16)">
       <use xlink:href="#BitstreamVeraSans-Roman-31"/>
       <use x="63.623046875" xlink:href="#BitstreamVeraSans-Roman-2e"/>
       <use x="95.41015625" xlink:href="#BitstreamVeraSans-Roman-35"/>
      </g>
     </g>
    </g>
    <g id="ytick_10">
     <g id="line2d_68">
      <path clip-path="url(#p033683574c)" d="
M90 127.8
L648 127.8" style="fill:none;stroke:#000000;stroke-dasharray:1.000000,3.000000;stroke-dashoffset:0.0;stroke-width:0.5;"/>
     </g>
     <g id="line2d_69">
      <g>
       <use style="stroke:#000000;stroke-width:0.5;" x="90.0" xlink:href="#m728421d6d4" y="127.8"/>
      </g>
     </g>
     <g id="line2d_70">
      <g>
       <use style="stroke:#000000;stroke-width:0.5;" x="648.0" xlink:href="#mcb0005524f" y="127.8"/>
      </g>
     </g>
     <g id="text_22">
      <!-- 2.0 -->
      <g transform="translate(62.79 132.215)scale(0.16 -0.16)">
       <use xlink:href="#BitstreamVeraSans-Roman-32"/>
       <use x="63.623046875" xlink:href="#BitstreamVeraSans-Roman-2e"/>
       <use x="95.41015625" xlink:href="#BitstreamVeraSans-Roman-30"/>
      </g>
     </g>
    </g>
    <g id="ytick_11">
     <g id="line2d_71">
      <path clip-path="url(#p033683574c)" d="
M90 72
L648 72" style="fill:none;stroke:#000000;stroke-dasharray:1.000000,3.000000;stroke-dashoffset:0.0;stroke-width:0.5;"/>
     </g>
     <g id="line2d_72">
      <g>
       <use style="stroke:#000000;stroke-width:0.5;" x="90.0" xlink:href="#m728421d6d4" y="72.0"/>
      </g>
     </g>
     <g id="line2d_73">
      <g>
       <use style="stroke:#000000;stroke-width:0.5;" x="648.0" xlink:href="#mcb0005524f" y="72.0"/>
      </g>
     </g>
     <g id="text_23">
      <!-- 2.5 -->
      <g transform="translate(63.125 76.415)scale(0.16 -0.16)">
       <use xlink:href="#BitstreamVeraSans-Roman-32"/>
       <use x="63.623046875" xlink:href="#BitstreamVeraSans-Roman-2e"/>
       <use x="95.41015625" xlink:href="#BitstreamVeraSans-Roman-35"/>
      </g>
     </g>
    </g>
    <g id="text_24">
     <!-- $\Im \{s\} = \omega$ -->
     <defs>
      <path d="
M12.1094 -1.125
Q6.45312 -1.125 3.9375 3.01562
Q1.42188 7.17188 1.42188 13.1875
Q1.42188 17.1406 2.125 20.9219
Q2.82812 24.7031 4.26562 28.5781
Q5.71875 32.4688 7.5625 35.8594
Q9.42188 39.2656 11.7188 42.4844
Q12.1562 43.1094 12.8906 43.1094
Q13.5312 43.1094 13.9219 42.7188
Q14.3125 42.3281 14.3125 41.7969
Q14.3125 41.2656 14.0156 40.8281
Q4.89062 28.2656 4.89062 17.6719
Q4.89062 13.0938 7 9.79688
Q9.125 6.5 13.4844 6.5
Q17.2344 6.5 20.4375 8.6875
Q23.6406 10.8906 25.9844 14.3125
Q25.9844 16.0625 26.5938 19.7656
Q27.2031 23.4844 28.4844 26.3906
Q29.7812 29.2969 31.5938 29.2969
Q33.8906 29.2969 33.8906 26.6094
Q33.8906 25.0469 33.2188 22.6719
Q32.5625 20.3125 31.75 18.2656
Q30.9531 16.2188 29.7812 13.625
Q30.9531 6.5 36.9219 6.5
Q40.375 6.5 43.8594 8.5
Q47.3594 10.5 50.0469 13.75
Q52.7344 17 54.2656 20.75
Q55.8125 24.5156 55.8125 27.875
Q55.8125 30.9062 54.8594 32.5938
Q53.9062 34.2812 52.3438 36.125
Q50.7812 37.9844 50.7812 39.1094
Q50.7812 41.0625 52.4375 42.6719
Q54.1094 44.2812 56 44.2812
Q58.4531 44.2812 59.4688 42.0625
Q60.5 39.8438 60.5 37.0156
Q60.5 32.4219 58.6719 25.4375
Q56.8438 18.4531 54.5 13.8125
Q51.2656 7.51562 46.4062 3.1875
Q41.5469 -1.125 35.5 -1.125
Q31.6406 -1.125 29.2656 1.1875
Q26.9062 3.51562 26.2188 7.51562
Q23.4375 3.5625 19.875 1.21875
Q16.3125 -1.125 12.1094 -1.125" id="Cmmi10-21"/>
      <path d="
M6.5 15.7188
Q5.60938 15.7188 5.60938 16.6094
L5.60938 17.4844
Q5.60938 18.3125 6.5 18.3125
L13.4844 18.3125
Q17.625 18.3125 21.0156 16.3594
Q24.4219 14.4062 29.2969 9.85938
Q34.1875 5.32812 36.3281 3.6875
Q38.4844 2.04688 41.8906 1.21875
Q45.0156 1.8125 47.7656 3.54688
Q50.5312 5.28125 52.2188 7.98438
Q53.9062 10.6875 53.9062 13.9219
Q53.9062 16.2656 52.6875 18.0625
Q51.4688 19.875 48.9531 22.4844
Q46.4375 25.0938 45.2656 27.0156
Q44.0938 28.9531 44.0938 31.3906
Q44.0938 34.7656 46.0156 37.4531
Q47.9531 40.1406 51.0781 41.625
Q54.2031 43.1094 57.4219 43.1094
Q60.2031 43.1094 62.9531 41.9688
Q65.7188 40.8281 67.5 38.5938
Q69.2812 36.375 69.2812 33.5
Q69.2812 32.5156 68.5 32.5156
L66.7031 32.5156
Q65.8281 32.5156 65.8281 33.2969
Q65.8281 36.5312 63.25 38.5
Q60.6875 40.4844 57.4219 40.4844
Q54.6875 40.4844 53.7344 37.625
Q52.7812 34.7656 52.7812 31.3906
Q52.7812 29.2031 53.9219 27.4375
Q55.0781 25.6875 57.5625 23.0938
Q60.0625 20.5156 61.3281 18.5
Q62.5938 16.5 62.5938 13.9219
Q62.5938 9.42188 60.0781 6.03125
Q57.5625 2.64062 53.5156 0.75
Q49.4688 -1.125 45.125 -1.125
L38.0938 -1.125
Q33.7344 -1.125 30.2656 0.96875
Q26.8125 3.07812 22.1875 7.25
Q17.5781 11.4219 14.2031 13.5625
Q10.8438 15.7188 6.5 15.7188
M5.60938 51.3125
Q5.60938 55.375 7.35938 58.9844
Q9.125 62.5938 12.1562 65.1562
Q15.1875 67.7188 19.0156 69.1094
Q22.8594 70.5156 26.9062 70.5156
Q32.3281 70.5156 37.5781 68.3125
Q42.8281 66.1094 47.0156 62.2188
Q51.2188 58.3438 54 53.5156
Q54.8906 51.8594 55.6094 50.9688
Q56.3438 50.0938 57.4219 50.0938
Q60.4531 50.0938 63.1406 51.2188
Q65.8281 52.3438 65.8281 54.9844
Q65.8281 55.9062 66.7031 55.9062
L68.5 55.9062
Q69.2812 55.9062 69.2812 54.7812
Q69.2812 50.9844 65.5156 49.25
Q61.7656 47.5156 57.4219 47.5156
Q52.2031 47.5156 48.5625 50.125
Q44.9219 52.7344 40.8125 57.8125
Q36.7188 62.8906 33.8125 65.4062
Q30.9062 67.9219 26.9062 67.9219
Q22.3125 67.9219 18.1562 65.75
Q14.0156 63.5781 11.5469 59.7656
Q9.07812 55.9531 9.07812 51.3125
Q9.07812 46.4844 11.7656 42.6719
Q14.4531 38.875 18.7969 36.7969
Q23.1406 34.7188 27.875 34.7188
Q28.2188 34.7188 28.4688 34.4531
Q28.7188 34.1875 28.7188 33.8906
L28.7188 33.0156
Q28.7188 32.0781 27.6875 32.0781
Q22.2188 32.0781 17.0938 34.5
Q11.9688 36.9219 8.78125 41.3125
Q5.60938 45.7031 5.60938 51.3125" id="Cmsy10-3d"/>
     </defs>
     <g transform="translate(38.005 411.0)rotate(-90.0)scale(0.3 -0.3)">
      <use transform="translate(0.0 0.705729166667)" xlink:href="#Cmsy10-3d"/>
      <use transform="translate(72.216796875 94.0)" xlink:href="#Cmex10-a9"/>
      <use transform="translate(130.517578125 0.705729166667)" xlink:href="#Cmmi10-73"/>
      <use transform="translate(177.294921875 94.0)" xlink:href="#Cmex10-aa"/>
      <use transform="translate(253.154296875 0.705729166667)" xlink:href="#Cmr10-3d"/>
      <use transform="translate(337.212890625 0.705729166667)" xlink:href="#Cmmi10-21"/>
     </g>
    </g>
   </g>
   <g id="text_25">
    <!-- $s$ plane -->
    <defs>
     <path id="BitstreamVeraSans-Roman-20"/>
     <path d="
M54.8906 33.0156
L54.8906 0
L45.9062 0
L45.9062 32.7188
Q45.9062 40.4844 42.875 44.3281
Q39.8438 48.1875 33.7969 48.1875
Q26.5156 48.1875 22.3125 43.5469
Q18.1094 38.9219 18.1094 30.9062
L18.1094 0
L9.07812 0
L9.07812 54.6875
L18.1094 54.6875
L18.1094 46.1875
Q21.3438 51.125 25.7031 53.5625
Q30.0781 56 35.7969 56
Q45.2188 56 50.0469 50.1719
Q54.8906 44.3438 54.8906 33.0156" id="BitstreamVeraSans-Roman-6e"/>
     <path d="
M9.42188 75.9844
L18.4062 75.9844
L18.4062 0
L9.42188 0
z
" id="BitstreamVeraSans-Roman-6c"/>
     <path d="
M56.2031 29.5938
L56.2031 25.2031
L14.8906 25.2031
Q15.4844 15.9219 20.4844 11.0625
Q25.4844 6.20312 34.4219 6.20312
Q39.5938 6.20312 44.4531 7.46875
Q49.3125 8.73438 54.1094 11.2812
L54.1094 2.78125
Q49.2656 0.734375 44.1875 -0.34375
Q39.1094 -1.42188 33.8906 -1.42188
Q20.7969 -1.42188 13.1562 6.1875
Q5.51562 13.8125 5.51562 26.8125
Q5.51562 40.2344 12.7656 48.1094
Q20.0156 56 32.3281 56
Q43.3594 56 49.7812 48.8906
Q56.2031 41.7969 56.2031 29.5938
M47.2188 32.2344
Q47.125 39.5938 43.0938 43.9844
Q39.0625 48.3906 32.4219 48.3906
Q24.9062 48.3906 20.3906 44.1406
Q15.875 39.8906 15.1875 32.1719
z
" id="BitstreamVeraSans-Roman-65"/>
     <path d="
M34.2812 27.4844
Q23.3906 27.4844 19.1875 25
Q14.9844 22.5156 14.9844 16.5
Q14.9844 11.7188 18.1406 8.90625
Q21.2969 6.10938 26.7031 6.10938
Q34.1875 6.10938 38.7031 11.4062
Q43.2188 16.7031 43.2188 25.4844
L43.2188 27.4844
z

M52.2031 31.2031
L52.2031 0
L43.2188 0
L43.2188 8.29688
Q40.1406 3.32812 35.5469 0.953125
Q30.9531 -1.42188 24.3125 -1.42188
Q15.9219 -1.42188 10.9531 3.29688
Q6 8.01562 6 15.9219
Q6 25.1406 12.1719 29.8281
Q18.3594 34.5156 30.6094 34.5156
L43.2188 34.5156
L43.2188 35.4062
Q43.2188 41.6094 39.1406 45
Q35.0625 48.3906 27.6875 48.3906
Q23 48.3906 18.5469 47.2656
Q14.1094 46.1406 10.0156 43.8906
L10.0156 52.2031
Q14.9375 54.1094 19.5781 55.0469
Q24.2188 56 28.6094 56
Q40.4844 56 46.3438 49.8438
Q52.2031 43.7031 52.2031 31.2031" id="BitstreamVeraSans-Roman-61"/>
     <path d="
M18.1094 8.20312
L18.1094 -20.7969
L9.07812 -20.7969
L9.07812 54.6875
L18.1094 54.6875
L18.1094 46.3906
Q20.9531 51.2656 25.2656 53.625
Q29.5938 56 35.5938 56
Q45.5625 56 51.7812 48.0938
Q58.0156 40.1875 58.0156 27.2969
Q58.0156 14.4062 51.7812 6.48438
Q45.5625 -1.42188 35.5938 -1.42188
Q29.5938 -1.42188 25.2656 0.953125
Q20.9531 3.32812 18.1094 8.20312
M48.6875 27.2969
Q48.6875 37.2031 44.6094 42.8438
Q40.5312 48.4844 33.4062 48.4844
Q26.2656 48.4844 22.1875 42.8438
Q18.1094 37.2031 18.1094 27.2969
Q18.1094 17.3906 22.1875 11.75
Q26.2656 6.10938 33.4062 6.10938
Q40.5312 6.10938 44.6094 11.75
Q48.6875 17.3906 48.6875 27.2969" id="BitstreamVeraSans-Roman-70"/>
    </defs>
    <g transform="translate(324.375 67.0)scale(0.25 -0.25)">
     <use transform="translate(0.0 0.015625)" xlink:href="#Cmmi10-73"/>
     <use transform="translate(46.77734375 0.015625)" xlink:href="#BitstreamVeraSans-Roman-20"/>
     <use transform="translate(78.564453125 0.015625)" xlink:href="#BitstreamVeraSans-Roman-70"/>
     <use transform="translate(142.041015625 0.015625)" xlink:href="#BitstreamVeraSans-Roman-6c"/>
     <use transform="translate(169.82421875 0.015625)" xlink:href="#BitstreamVeraSans-Roman-61"/>
     <use transform="translate(231.103515625 0.015625)" xlink:href="#BitstreamVeraSans-Roman-6e"/>
     <use transform="translate(294.482421875 0.015625)" xlink:href="#BitstreamVeraSans-Roman-65"/>
    </g>
   </g>
  </g>
 </g>
 <defs>
  <clipPath id="p033683574c">
   <rect height="558.0" width="558.0" x="90.0" y="72.0"/>
  </clipPath>
 </defs>
</svg>
